<?xml version="1.0" encoding="utf-8" standalone="no"?>
<!DOCTYPE svg PUBLIC "-//W3C//DTD SVG 1.1//EN"
  "http://www.w3.org/Graphics/SVG/1.1/DTD/svg11.dtd">
<svg xmlns:xlink="http://www.w3.org/1999/xlink" width="58.32pt" height="58.32pt" viewBox="0 0 58.32 58.32" xmlns="http://www.w3.org/2000/svg" version="1.1">
 <title>Preview Ski Rose for Branäs</title>
 <metadata>
  <rdf:RDF xmlns:dc="http://purl.org/dc/elements/1.1/" xmlns:cc="http://creativecommons.org/ns#" xmlns:rdf="http://www.w3.org/1999/02/22-rdf-syntax-ns#">
   <cc:Work>
    <dc:type rdf:resource="http://purl.org/dc/dcmitype/StillImage"/>
    <dc:title>Preview Ski Rose for Branäs</dc:title>
    <dc:date>2024-12-07T10:25:43.071389</dc:date>
    <dc:description>An 8-bin histogram of downhill ski trail orientations generated from &lt;https://openskimap.org/?obj=4b54059fb68523480d5c30f6a26deca260900347&gt;.</dc:description>
    <dc:format>image/svg+xml</dc:format>
    <dc:creator>
     <cc:Agent>
      <dc:title>https://github.com/dhimmel/openskistats</dc:title>
     </cc:Agent>
    </dc:creator>
   </cc:Work>
  </rdf:RDF>
 </metadata>
 <defs>
  <style type="text/css">*{stroke-linejoin: round; stroke-linecap: butt}</style>
 </defs>
 <g id="figure_1">
  <g id="patch_1">
   <path d="M 0 58.32 
L 58.32 58.32 
L 58.32 0 
L 0 0 
L 0 58.32 
z
" style="fill: none"/>
  </g>
  <g id="axes_1">
   <g id="patch_2">
    <path d="M 56.88 29.16 
C 56.88 25.519843 56.162968 21.915082 54.769941 18.552015 
C 53.376913 15.188949 51.33498 12.13298 48.761 9.559 
C 46.18702 6.98502 43.131051 4.943087 39.767985 3.550059 
C 36.404918 2.157032 32.800157 1.44 29.16 1.44 
C 25.519843 1.44 21.915082 2.157032 18.552015 3.550059 
C 15.188949 4.943087 12.13298 6.98502 9.559 9.559 
C 6.98502 12.13298 4.943087 15.188949 3.550059 18.552015 
C 2.157032 21.915082 1.44 25.519843 1.44 29.16 
C 1.44 32.800157 2.157032 36.404918 3.550059 39.767985 
C 4.943087 43.131051 6.98502 46.18702 9.559 48.761 
C 12.13298 51.33498 15.188949 53.376913 18.552015 54.769941 
C 21.915082 56.162968 25.519843 56.88 29.16 56.88 
C 32.800157 56.88 36.404918 56.162968 39.767985 54.769941 
C 43.131051 53.376913 46.18702 51.33498 48.761 48.761 
C 51.33498 46.18702 53.376913 43.131051 54.769941 39.767985 
C 56.162968 36.404918 56.88 32.800157 56.88 29.16 
M 29.16 29.16 
C 29.16 29.16 29.16 29.16 29.16 29.16 
C 29.16 29.16 29.16 29.16 29.16 29.16 
C 29.16 29.16 29.16 29.16 29.16 29.16 
C 29.16 29.16 29.16 29.16 29.16 29.16 
C 29.16 29.16 29.16 29.16 29.16 29.16 
C 29.16 29.16 29.16 29.16 29.16 29.16 
C 29.16 29.16 29.16 29.16 29.16 29.16 
C 29.16 29.16 29.16 29.16 29.16 29.16 
C 29.16 29.16 29.16 29.16 29.16 29.16 
C 29.16 29.16 29.16 29.16 29.16 29.16 
C 29.16 29.16 29.16 29.16 29.16 29.16 
C 29.16 29.16 29.16 29.16 29.16 29.16 
C 29.16 29.16 29.16 29.16 29.16 29.16 
C 29.16 29.16 29.16 29.16 29.16 29.16 
C 29.16 29.16 29.16 29.16 29.16 29.16 
C 29.16 29.16 29.16 29.16 29.16 29.16 
L 29.16 29.16 
z
" style="fill: none"/>
   </g>
   <g id="matplotlib.axis_1"/>
   <g id="matplotlib.axis_2"/>
   <g id="patch_3">
    <path d="M 29.16 29.16 
C 29.16 29.16 29.16 29.16 29.16 29.16 
C 29.16 29.16 29.16 29.16 29.16 29.16 
L 33.812142 17.928735 
C 32.337266 17.317822 30.756394 17.003367 29.16 17.003367 
C 27.563606 17.003367 25.982734 17.317822 24.507858 17.928735 
z
" clip-path="url(#p88c94ddb4b)" style="fill: #d4a0a7; stroke: #6b6b6b; stroke-width: 0.4; stroke-linejoin: miter"/>
   </g>
   <g id="patch_4">
    <path d="M 29.16 29.16 
C 29.16 29.16 29.16 29.16 29.16 29.16 
C 29.16 29.16 29.16 29.16 29.16 29.16 
L 54.769941 18.552015 
C 53.376913 15.188949 51.33498 12.13298 48.761 9.559 
C 46.18702 6.98502 43.131051 4.943087 39.767985 3.550059 
z
" clip-path="url(#p88c94ddb4b)" style="fill: #d4a0a7; stroke: #6b6b6b; stroke-width: 0.4; stroke-linejoin: miter"/>
   </g>
   <g id="patch_5">
    <path d="M 29.16 29.16 
C 29.16 29.16 29.16 29.16 29.16 29.16 
C 29.16 29.16 29.16 29.16 29.16 29.16 
L 45.853177 36.07454 
C 46.761186 33.882412 47.228564 31.532742 47.228564 29.16 
C 47.228564 26.787258 46.761186 24.437588 45.853177 22.24546 
z
" clip-path="url(#p88c94ddb4b)" style="fill: #d4a0a7; stroke: #6b6b6b; stroke-width: 0.4; stroke-linejoin: miter"/>
   </g>
   <g id="patch_6">
    <path d="M 29.16 29.16 
C 29.16 29.16 29.16 29.16 29.16 29.16 
C 29.16 29.16 29.16 29.16 29.16 29.16 
L 33.970934 40.774622 
C 35.496152 40.142856 36.882095 39.216798 38.049447 38.049447 
C 39.216798 36.882095 40.142856 35.496152 40.774622 33.970934 
z
" clip-path="url(#p88c94ddb4b)" style="fill: #d4a0a7; stroke: #6b6b6b; stroke-width: 0.4; stroke-linejoin: miter"/>
   </g>
   <g id="patch_7">
    <path d="M 29.16 29.16 
C 29.16 29.16 29.16 29.16 29.16 29.16 
C 29.16 29.16 29.16 29.16 29.16 29.16 
L 27.545347 33.058116 
C 28.057243 33.27015 28.605928 33.37929 29.16 33.37929 
C 29.714072 33.37929 30.262757 33.27015 30.774653 33.058116 
z
" clip-path="url(#p88c94ddb4b)" style="fill: #d4a0a7; stroke: #6b6b6b; stroke-width: 0.4; stroke-linejoin: miter"/>
   </g>
   <g id="patch_8">
    <path d="M 29.16 29.16 
C 29.16 29.16 29.16 29.16 29.16 29.16 
C 29.16 29.16 29.16 29.16 29.16 29.16 
L 24.226725 31.203429 
C 24.495066 31.851261 24.888406 32.439936 25.384235 32.935765 
C 25.880064 33.431594 26.468739 33.824934 27.116571 34.093275 
z
" clip-path="url(#p88c94ddb4b)" style="fill: #d4a0a7; stroke: #6b6b6b; stroke-width: 0.4; stroke-linejoin: miter"/>
   </g>
   <g id="patch_9">
    <path d="M 29.16 29.16 
C 29.16 29.16 29.16 29.16 29.16 29.16 
C 29.16 29.16 29.16 29.16 29.16 29.16 
L 25.04442 27.455271 
C 24.820557 27.995724 24.705328 28.575018 24.705328 29.16 
C 24.705328 29.744982 24.820557 30.324276 25.04442 30.864729 
z
" clip-path="url(#p88c94ddb4b)" style="fill: #d4a0a7; stroke: #6b6b6b; stroke-width: 0.4; stroke-linejoin: miter"/>
   </g>
   <g id="patch_10">
    <path d="M 29.16 29.16 
C 29.16 29.16 29.16 29.16 29.16 29.16 
C 29.16 29.16 29.16 29.16 29.16 29.16 
L 24.752726 18.519899 
C 23.355481 19.098657 22.085824 19.947014 21.016419 21.016419 
C 19.947014 22.085824 19.098657 23.355481 18.519899 24.752726 
z
" clip-path="url(#p88c94ddb4b)" style="fill: #d4a0a7; stroke: #6b6b6b; stroke-width: 0.4; stroke-linejoin: miter"/>
   </g>
   <g id="patch_11">
    <path d="M 29.16 1.44 
C 25.519843 1.44 21.915082 2.157032 18.552015 3.550059 
C 15.188949 4.943087 12.13298 6.98502 9.559 9.559 
C 6.98502 12.13298 4.943087 15.188949 3.550059 18.552015 
C 2.157032 21.915082 1.44 25.519843 1.44 29.16 
C 1.44 32.800157 2.157032 36.404918 3.550059 39.767985 
C 4.943087 43.131051 6.98502 46.18702 9.559 48.761 
C 12.13298 51.33498 15.188949 53.376913 18.552015 54.769941 
C 21.915082 56.162968 25.519843 56.88 29.16 56.88 
C 32.800157 56.88 36.404918 56.162968 39.767985 54.769941 
C 43.131051 53.376913 46.18702 51.33498 48.761 48.761 
C 51.33498 46.18702 53.376913 43.131051 54.769941 39.767985 
C 56.162968 36.404918 56.88 32.800157 56.88 29.16 
C 56.88 25.519843 56.162968 21.915082 54.769941 18.552015 
C 53.376913 15.188949 51.33498 12.13298 48.761 9.559 
C 46.18702 6.98502 43.131051 4.943087 39.767985 3.550059 
C 36.404918 2.157032 32.800157 1.44 29.16 1.44 
" style="fill: none; stroke: #6b6b6b; stroke-width: 0.4; stroke-linejoin: miter; stroke-linecap: square"/>
   </g>
  </g>
 </g>
 <defs>
  <clipPath id="p88c94ddb4b">
   <path d="M 56.88 29.16 
C 56.88 25.519843 56.162968 21.915082 54.769941 18.552015 
C 53.376913 15.188949 51.33498 12.13298 48.761 9.559 
C 46.18702 6.98502 43.131051 4.943087 39.767985 3.550059 
C 36.404918 2.157032 32.800157 1.44 29.16 1.44 
C 25.519843 1.44 21.915082 2.157032 18.552015 3.550059 
C 15.188949 4.943087 12.13298 6.98502 9.559 9.559 
C 6.98502 12.13298 4.943087 15.188949 3.550059 18.552015 
C 2.157032 21.915082 1.44 25.519843 1.44 29.16 
C 1.44 32.800157 2.157032 36.404918 3.550059 39.767985 
C 4.943087 43.131051 6.98502 46.18702 9.559 48.761 
C 12.13298 51.33498 15.188949 53.376913 18.552015 54.769941 
C 21.915082 56.162968 25.519843 56.88 29.16 56.88 
C 32.800157 56.88 36.404918 56.162968 39.767985 54.769941 
C 43.131051 53.376913 46.18702 51.33498 48.761 48.761 
C 51.33498 46.18702 53.376913 43.131051 54.769941 39.767985 
C 56.162968 36.404918 56.88 32.800157 56.88 29.16 
M 29.16 29.16 
C 29.16 29.16 29.16 29.16 29.16 29.16 
C 29.16 29.16 29.16 29.16 29.16 29.16 
C 29.16 29.16 29.16 29.16 29.16 29.16 
C 29.16 29.16 29.16 29.16 29.16 29.16 
C 29.16 29.16 29.16 29.16 29.16 29.16 
C 29.16 29.16 29.16 29.16 29.16 29.16 
C 29.16 29.16 29.16 29.16 29.16 29.16 
C 29.16 29.16 29.16 29.16 29.16 29.16 
C 29.16 29.16 29.16 29.16 29.16 29.16 
C 29.16 29.16 29.16 29.16 29.16 29.16 
C 29.16 29.16 29.16 29.16 29.16 29.16 
C 29.16 29.16 29.16 29.16 29.16 29.16 
C 29.16 29.16 29.16 29.16 29.16 29.16 
C 29.16 29.16 29.16 29.16 29.16 29.16 
C 29.16 29.16 29.16 29.16 29.16 29.16 
C 29.16 29.16 29.16 29.16 29.16 29.16 
z
"/>
  </clipPath>
 </defs>
</svg>
