<?xml version="1.0" encoding="utf-8" standalone="no"?>
<!DOCTYPE svg PUBLIC "-//W3C//DTD SVG 1.1//EN"
  "http://www.w3.org/Graphics/SVG/1.1/DTD/svg11.dtd">
<svg xmlns:xlink="http://www.w3.org/1999/xlink" width="58.32pt" height="58.32pt" viewBox="0 0 58.32 58.32" xmlns="http://www.w3.org/2000/svg" version="1.1">
 <title>Preview Ski Rose for La Rosière</title>
 <metadata>
  <rdf:RDF xmlns:dc="http://purl.org/dc/elements/1.1/" xmlns:cc="http://creativecommons.org/ns#" xmlns:rdf="http://www.w3.org/1999/02/22-rdf-syntax-ns#">
   <cc:Work>
    <dc:type rdf:resource="http://purl.org/dc/dcmitype/StillImage"/>
    <dc:title>Preview Ski Rose for La Rosière</dc:title>
    <dc:date>2024-12-20T01:50:28.700931</dc:date>
    <dc:description>An 8-bin histogram of downhill ski trail orientations generated from &lt;https://openskimap.org/?obj=da6c51ae0a07019b23369b087406b814abfb11e9&gt;.</dc:description>
    <dc:format>image/svg+xml</dc:format>
    <dc:creator>
     <cc:Agent>
      <dc:title>https://github.com/dhimmel/openskistats</dc:title>
     </cc:Agent>
    </dc:creator>
   </cc:Work>
  </rdf:RDF>
 </metadata>
 <defs>
  <style type="text/css">*{stroke-linejoin: round; stroke-linecap: butt}</style>
 </defs>
 <g id="figure_1">
  <g id="patch_1">
   <path d="M 0 58.32 
L 58.32 58.32 
L 58.32 0 
L 0 0 
L 0 58.32 
z
" style="fill: none"/>
  </g>
  <g id="axes_1">
   <g id="patch_2">
    <path d="M 56.88 29.16 
C 56.88 25.519843 56.162968 21.915082 54.769941 18.552015 
C 53.376913 15.188949 51.33498 12.13298 48.761 9.559 
C 46.18702 6.98502 43.131051 4.943087 39.767985 3.550059 
C 36.404918 2.157032 32.800157 1.44 29.16 1.44 
C 25.519843 1.44 21.915082 2.157032 18.552015 3.550059 
C 15.188949 4.943087 12.13298 6.98502 9.559 9.559 
C 6.98502 12.13298 4.943087 15.188949 3.550059 18.552015 
C 2.157032 21.915082 1.44 25.519843 1.44 29.16 
C 1.44 32.800157 2.157032 36.404918 3.550059 39.767985 
C 4.943087 43.131051 6.98502 46.18702 9.559 48.761 
C 12.13298 51.33498 15.188949 53.376913 18.552015 54.769941 
C 21.915082 56.162968 25.519843 56.88 29.16 56.88 
C 32.800157 56.88 36.404918 56.162968 39.767985 54.769941 
C 43.131051 53.376913 46.18702 51.33498 48.761 48.761 
C 51.33498 46.18702 53.376913 43.131051 54.769941 39.767985 
C 56.162968 36.404918 56.88 32.800157 56.88 29.16 
M 29.16 29.16 
C 29.16 29.16 29.16 29.16 29.16 29.16 
C 29.16 29.16 29.16 29.16 29.16 29.16 
C 29.16 29.16 29.16 29.16 29.16 29.16 
C 29.16 29.16 29.16 29.16 29.16 29.16 
C 29.16 29.16 29.16 29.16 29.16 29.16 
C 29.16 29.16 29.16 29.16 29.16 29.16 
C 29.16 29.16 29.16 29.16 29.16 29.16 
C 29.16 29.16 29.16 29.16 29.16 29.16 
C 29.16 29.16 29.16 29.16 29.16 29.16 
C 29.16 29.16 29.16 29.16 29.16 29.16 
C 29.16 29.16 29.16 29.16 29.16 29.16 
C 29.16 29.16 29.16 29.16 29.16 29.16 
C 29.16 29.16 29.16 29.16 29.16 29.16 
C 29.16 29.16 29.16 29.16 29.16 29.16 
C 29.16 29.16 29.16 29.16 29.16 29.16 
C 29.16 29.16 29.16 29.16 29.16 29.16 
L 29.16 29.16 
z
" style="fill: none"/>
   </g>
   <g id="matplotlib.axis_1"/>
   <g id="matplotlib.axis_2"/>
   <g id="patch_3">
    <path d="M 29.16 29.16 
C 29.16 29.16 29.16 29.16 29.16 29.16 
C 29.16 29.16 29.16 29.16 29.16 29.16 
L 31.289951 24.017844 
C 30.614689 23.738141 29.890898 23.59417 29.16 23.59417 
C 28.429102 23.59417 27.705311 23.738141 27.030049 24.017844 
z
" clip-path="url(#pbbe932e645)" style="fill: #d4a0a7; stroke: #6b6b6b; stroke-width: 0.4; stroke-linejoin: miter"/>
   </g>
   <g id="patch_4">
    <path d="M 29.16 29.16 
C 29.16 29.16 29.16 29.16 29.16 29.16 
C 29.16 29.16 29.16 29.16 29.16 29.16 
L 35.340859 26.599804 
C 35.004657 25.788141 34.511845 25.050595 33.890625 24.429375 
C 33.269405 23.808155 32.531859 23.315343 31.720196 22.979141 
z
" clip-path="url(#pbbe932e645)" style="fill: #d4a0a7; stroke: #6b6b6b; stroke-width: 0.4; stroke-linejoin: miter"/>
   </g>
   <g id="patch_5">
    <path d="M 29.16 29.16 
C 29.16 29.16 29.16 29.16 29.16 29.16 
C 29.16 29.16 29.16 29.16 29.16 29.16 
L 39.371569 33.38977 
C 39.927018 32.048799 40.212923 30.611457 40.212923 29.16 
C 40.212923 27.708543 39.927018 26.271201 39.371569 24.93023 
z
" clip-path="url(#pbbe932e645)" style="fill: #d4a0a7; stroke: #6b6b6b; stroke-width: 0.4; stroke-linejoin: miter"/>
   </g>
   <g id="patch_6">
    <path d="M 29.16 29.16 
C 29.16 29.16 29.16 29.16 29.16 29.16 
C 29.16 29.16 29.16 29.16 29.16 29.16 
L 37.755632 49.911691 
C 40.480719 48.782923 42.956965 47.128348 45.042656 45.042656 
C 47.128348 42.956965 48.782923 40.480719 49.911691 37.755632 
z
" clip-path="url(#pbbe932e645)" style="fill: #d4a0a7; stroke: #6b6b6b; stroke-width: 0.4; stroke-linejoin: miter"/>
   </g>
   <g id="patch_7">
    <path d="M 29.16 29.16 
C 29.16 29.16 29.16 29.16 29.16 29.16 
C 29.16 29.16 29.16 29.16 29.16 29.16 
L 18.552015 54.769941 
C 21.915082 56.162968 25.519843 56.88 29.16 56.88 
C 32.800157 56.88 36.404918 56.162968 39.767985 54.769941 
z
" clip-path="url(#pbbe932e645)" style="fill: #d4a0a7; stroke: #6b6b6b; stroke-width: 0.4; stroke-linejoin: miter"/>
   </g>
   <g id="patch_8">
    <path d="M 29.16 29.16 
C 29.16 29.16 29.16 29.16 29.16 29.16 
C 29.16 29.16 29.16 29.16 29.16 29.16 
L 7.616278 38.083702 
C 8.788128 40.912798 10.505853 43.483555 12.671149 45.648851 
C 14.836445 47.814147 17.407202 49.531872 20.236298 50.703722 
z
" clip-path="url(#pbbe932e645)" style="fill: #d4a0a7; stroke: #6b6b6b; stroke-width: 0.4; stroke-linejoin: miter"/>
   </g>
   <g id="patch_9">
    <path d="M 29.16 29.16 
C 29.16 29.16 29.16 29.16 29.16 29.16 
C 29.16 29.16 29.16 29.16 29.16 29.16 
L 15.06811 23.322948 
C 14.301596 25.173478 13.907049 27.157001 13.907049 29.16 
C 13.907049 31.162999 14.301596 33.146522 15.06811 34.997052 
z
" clip-path="url(#pbbe932e645)" style="fill: #d4a0a7; stroke: #6b6b6b; stroke-width: 0.4; stroke-linejoin: miter"/>
   </g>
   <g id="patch_10">
    <path d="M 29.16 29.16 
C 29.16 29.16 29.16 29.16 29.16 29.16 
C 29.16 29.16 29.16 29.16 29.16 29.16 
L 25.57114 20.495725 
C 24.433357 20.967009 23.399472 21.65783 22.528651 22.528651 
C 21.65783 23.399472 20.967009 24.433357 20.495725 25.57114 
z
" clip-path="url(#pbbe932e645)" style="fill: #d4a0a7; stroke: #6b6b6b; stroke-width: 0.4; stroke-linejoin: miter"/>
   </g>
   <g id="patch_11">
    <path d="M 29.16 1.44 
C 25.519843 1.44 21.915082 2.157032 18.552015 3.550059 
C 15.188949 4.943087 12.13298 6.98502 9.559 9.559 
C 6.98502 12.13298 4.943087 15.188949 3.550059 18.552015 
C 2.157032 21.915082 1.44 25.519843 1.44 29.16 
C 1.44 32.800157 2.157032 36.404918 3.550059 39.767985 
C 4.943087 43.131051 6.98502 46.18702 9.559 48.761 
C 12.13298 51.33498 15.188949 53.376913 18.552015 54.769941 
C 21.915082 56.162968 25.519843 56.88 29.16 56.88 
C 32.800157 56.88 36.404918 56.162968 39.767985 54.769941 
C 43.131051 53.376913 46.18702 51.33498 48.761 48.761 
C 51.33498 46.18702 53.376913 43.131051 54.769941 39.767985 
C 56.162968 36.404918 56.88 32.800157 56.88 29.16 
C 56.88 25.519843 56.162968 21.915082 54.769941 18.552015 
C 53.376913 15.188949 51.33498 12.13298 48.761 9.559 
C 46.18702 6.98502 43.131051 4.943087 39.767985 3.550059 
C 36.404918 2.157032 32.800157 1.44 29.16 1.44 
" style="fill: none; stroke: #6b6b6b; stroke-width: 0.4; stroke-linejoin: miter; stroke-linecap: square"/>
   </g>
  </g>
 </g>
 <defs>
  <clipPath id="pbbe932e645">
   <path d="M 56.88 29.16 
C 56.88 25.519843 56.162968 21.915082 54.769941 18.552015 
C 53.376913 15.188949 51.33498 12.13298 48.761 9.559 
C 46.18702 6.98502 43.131051 4.943087 39.767985 3.550059 
C 36.404918 2.157032 32.800157 1.44 29.16 1.44 
C 25.519843 1.44 21.915082 2.157032 18.552015 3.550059 
C 15.188949 4.943087 12.13298 6.98502 9.559 9.559 
C 6.98502 12.13298 4.943087 15.188949 3.550059 18.552015 
C 2.157032 21.915082 1.44 25.519843 1.44 29.16 
C 1.44 32.800157 2.157032 36.404918 3.550059 39.767985 
C 4.943087 43.131051 6.98502 46.18702 9.559 48.761 
C 12.13298 51.33498 15.188949 53.376913 18.552015 54.769941 
C 21.915082 56.162968 25.519843 56.88 29.16 56.88 
C 32.800157 56.88 36.404918 56.162968 39.767985 54.769941 
C 43.131051 53.376913 46.18702 51.33498 48.761 48.761 
C 51.33498 46.18702 53.376913 43.131051 54.769941 39.767985 
C 56.162968 36.404918 56.88 32.800157 56.88 29.16 
M 29.16 29.16 
C 29.16 29.16 29.16 29.16 29.16 29.16 
C 29.16 29.16 29.16 29.16 29.16 29.16 
C 29.16 29.16 29.16 29.16 29.16 29.16 
C 29.16 29.16 29.16 29.16 29.16 29.16 
C 29.16 29.16 29.16 29.16 29.16 29.16 
C 29.16 29.16 29.16 29.16 29.16 29.16 
C 29.16 29.16 29.16 29.16 29.16 29.16 
C 29.16 29.16 29.16 29.16 29.16 29.16 
C 29.16 29.16 29.16 29.16 29.16 29.16 
C 29.16 29.16 29.16 29.16 29.16 29.16 
C 29.16 29.16 29.16 29.16 29.16 29.16 
C 29.16 29.16 29.16 29.16 29.16 29.16 
C 29.16 29.16 29.16 29.16 29.16 29.16 
C 29.16 29.16 29.16 29.16 29.16 29.16 
C 29.16 29.16 29.16 29.16 29.16 29.16 
C 29.16 29.16 29.16 29.16 29.16 29.16 
z
"/>
  </clipPath>
 </defs>
</svg>
