<?xml version="1.0" encoding="utf-8" standalone="no"?>
<!DOCTYPE svg PUBLIC "-//W3C//DTD SVG 1.1//EN"
  "http://www.w3.org/Graphics/SVG/1.1/DTD/svg11.dtd">
<svg xmlns:xlink="http://www.w3.org/1999/xlink" width="361.0475pt" height="304.321062pt" viewBox="0 0 361.0475 304.321062" xmlns="http://www.w3.org/2000/svg" version="1.1">
 <title>Ski Rose for スノークルーズオーンズ, Snowcruse ONZE, すのーくるーずおーんず</title>
 <metadata>
  <rdf:RDF xmlns:dc="http://purl.org/dc/elements/1.1/" xmlns:cc="http://creativecommons.org/ns#" xmlns:rdf="http://www.w3.org/1999/02/22-rdf-syntax-ns#">
   <cc:Work>
    <dc:type rdf:resource="http://purl.org/dc/dcmitype/StillImage"/>
    <dc:title>Ski Rose for スノークルーズオーンズ, Snowcruse ONZE, すのーくるーずおーんず</dc:title>
    <dc:date>2024-12-20T01:53:34.676059</dc:date>
    <dc:description>A 32-bin histogram of downhill ski trail orientations generated from &lt;https://openskimap.org/?obj=0777be0020fd4338d87d22b78f9b394f49e95e25&gt;.</dc:description>
    <dc:format>image/svg+xml</dc:format>
    <dc:creator>
     <cc:Agent>
      <dc:title>https://github.com/dhimmel/openskistats</dc:title>
     </cc:Agent>
    </dc:creator>
   </cc:Work>
  </rdf:RDF>
 </metadata>
 <defs>
  <style type="text/css">*{stroke-linejoin: round; stroke-linecap: butt}</style>
 </defs>
 <g id="figure_1">
  <g id="patch_1">
   <path d="M 0 304.321062 
L 361.0475 304.321062 
L 361.0475 0 
L 0 0 
z
" style="fill: #ffffff"/>
  </g>
  <g id="axes_1">
   <g id="patch_2">
    <path d="M 291.40375 172.902 
C 291.40375 158.341372 288.535624 143.922327 282.963513 130.470061 
C 277.391401 117.017795 269.223669 104.793919 258.92775 94.498 
C 248.631831 84.202081 236.407955 76.034349 222.955689 70.462237 
C 209.503423 64.890126 195.084378 62.022 180.52375 62.022 
C 165.963122 62.022 151.544077 64.890126 138.091811 70.462237 
C 124.639545 76.034349 112.415669 84.202081 102.11975 94.498 
C 91.823831 104.793919 83.656099 117.017795 78.083987 130.470061 
C 72.511876 143.922327 69.64375 158.341372 69.64375 172.902 
C 69.64375 187.462628 72.511876 201.881673 78.083987 215.333939 
C 83.656099 228.786205 91.823831 241.010081 102.11975 251.306 
C 112.415669 261.601919 124.639545 269.769651 138.091811 275.341763 
C 151.544077 280.913874 165.963122 283.782 180.52375 283.782 
C 195.084378 283.782 209.503423 280.913874 222.955689 275.341763 
C 236.407955 269.769651 248.631831 261.601919 258.92775 251.306 
C 269.223669 241.010081 277.391401 228.786205 282.963513 215.333939 
C 288.535624 201.881673 291.40375 187.462628 291.40375 172.902 
M 180.52375 172.902 
C 180.52375 172.902 180.52375 172.902 180.52375 172.902 
C 180.52375 172.902 180.52375 172.902 180.52375 172.902 
C 180.52375 172.902 180.52375 172.902 180.52375 172.902 
C 180.52375 172.902 180.52375 172.902 180.52375 172.902 
C 180.52375 172.902 180.52375 172.902 180.52375 172.902 
C 180.52375 172.902 180.52375 172.902 180.52375 172.902 
C 180.52375 172.902 180.52375 172.902 180.52375 172.902 
C 180.52375 172.902 180.52375 172.902 180.52375 172.902 
C 180.52375 172.902 180.52375 172.902 180.52375 172.902 
C 180.52375 172.902 180.52375 172.902 180.52375 172.902 
C 180.52375 172.902 180.52375 172.902 180.52375 172.902 
C 180.52375 172.902 180.52375 172.902 180.52375 172.902 
C 180.52375 172.902 180.52375 172.902 180.52375 172.902 
C 180.52375 172.902 180.52375 172.902 180.52375 172.902 
C 180.52375 172.902 180.52375 172.902 180.52375 172.902 
C 180.52375 172.902 180.52375 172.902 180.52375 172.902 
z
" style="fill: #ffffff"/>
   </g>
   <g id="matplotlib.axis_1">
    <g id="xtick_1">
     <g id="line2d_1">
      <path d="M 180.52375 172.902 
L 180.52375 62.022 
" clip-path="url(#pc0f0b3daa2)" style="fill: none; stroke: #b0b0b0; stroke-width: 0.8; stroke-linecap: square"/>
     </g>
     <g id="text_1">
      <!-- N -->
      <g transform="translate(176.339375 56.281375) scale(0.1 -0.1)">
       <defs>
        <path id="DejaVuSans-Bold-4e" d="M 588 4666 
L 1931 4666 
L 3628 1466 
L 3628 4666 
L 4769 4666 
L 4769 0 
L 3425 0 
L 1728 3200 
L 1728 0 
L 588 0 
L 588 4666 
z
" transform="scale(0.015625)"/>
       </defs>
       <use xlink:href="#DejaVuSans-Bold-4e"/>
      </g>
     </g>
    </g>
    <g id="xtick_2">
     <g id="line2d_2">
      <path d="M 180.52375 172.902 
L 258.92775 94.498 
" clip-path="url(#pc0f0b3daa2)" style="fill: none; stroke: #b0b0b0; stroke-width: 0.8; stroke-linecap: square"/>
     </g>
    </g>
    <g id="xtick_3">
     <g id="line2d_3">
      <path d="M 180.52375 172.902 
L 291.40375 172.902 
" clip-path="url(#pc0f0b3daa2)" style="fill: none; stroke: #b0b0b0; stroke-width: 0.8; stroke-linecap: square"/>
     </g>
     <g id="text_2">
      <!-- E -->
      <g transform="translate(296.488125 175.661375) scale(0.1 -0.1)">
       <defs>
        <path id="DejaVuSans-Bold-45" d="M 588 4666 
L 3834 4666 
L 3834 3756 
L 1791 3756 
L 1791 2888 
L 3713 2888 
L 3713 1978 
L 1791 1978 
L 1791 909 
L 3903 909 
L 3903 0 
L 588 0 
L 588 4666 
z
" transform="scale(0.015625)"/>
       </defs>
       <use xlink:href="#DejaVuSans-Bold-45"/>
      </g>
     </g>
    </g>
    <g id="xtick_4">
     <g id="line2d_4">
      <path d="M 180.52375 172.902 
L 258.92775 251.306 
" clip-path="url(#pc0f0b3daa2)" style="fill: none; stroke: #b0b0b0; stroke-width: 0.8; stroke-linecap: square"/>
     </g>
    </g>
    <g id="xtick_5">
     <g id="line2d_5">
      <path d="M 180.52375 172.902 
L 180.52375 283.782 
" clip-path="url(#pc0f0b3daa2)" style="fill: none; stroke: #b0b0b0; stroke-width: 0.8; stroke-linecap: square"/>
     </g>
     <g id="text_3">
      <!-- S -->
      <g transform="translate(176.922969 295.041375) scale(0.1 -0.1)">
       <defs>
        <path id="DejaVuSans-Bold-53" d="M 3834 4519 
L 3834 3531 
Q 3450 3703 3084 3790 
Q 2719 3878 2394 3878 
Q 1963 3878 1756 3759 
Q 1550 3641 1550 3391 
Q 1550 3203 1689 3098 
Q 1828 2994 2194 2919 
L 2706 2816 
Q 3484 2659 3812 2340 
Q 4141 2022 4141 1434 
Q 4141 663 3683 286 
Q 3225 -91 2284 -91 
Q 1841 -91 1394 -6 
Q 947 78 500 244 
L 500 1259 
Q 947 1022 1364 901 
Q 1781 781 2169 781 
Q 2563 781 2772 912 
Q 2981 1044 2981 1288 
Q 2981 1506 2839 1625 
Q 2697 1744 2272 1838 
L 1806 1941 
Q 1106 2091 782 2419 
Q 459 2747 459 3303 
Q 459 4000 909 4375 
Q 1359 4750 2203 4750 
Q 2588 4750 2994 4692 
Q 3400 4634 3834 4519 
z
" transform="scale(0.015625)"/>
       </defs>
       <use xlink:href="#DejaVuSans-Bold-53"/>
      </g>
     </g>
    </g>
    <g id="xtick_6">
     <g id="line2d_6">
      <path d="M 180.52375 172.902 
L 102.11975 251.306 
" clip-path="url(#pc0f0b3daa2)" style="fill: none; stroke: #b0b0b0; stroke-width: 0.8; stroke-linecap: square"/>
     </g>
    </g>
    <g id="xtick_7">
     <g id="line2d_7">
      <path d="M 180.52375 172.902 
L 69.64375 172.902 
" clip-path="url(#pc0f0b3daa2)" style="fill: none; stroke: #b0b0b0; stroke-width: 0.8; stroke-linecap: square"/>
     </g>
     <g id="text_4">
      <!-- W -->
      <g transform="translate(55.628906 175.661375) scale(0.1 -0.1)">
       <defs>
        <path id="DejaVuSans-Bold-57" d="M 191 4666 
L 1344 4666 
L 2150 1275 
L 2950 4666 
L 4109 4666 
L 4909 1275 
L 5716 4666 
L 6859 4666 
L 5759 0 
L 4372 0 
L 3525 3547 
L 2688 0 
L 1300 0 
L 191 4666 
z
" transform="scale(0.015625)"/>
       </defs>
       <use xlink:href="#DejaVuSans-Bold-57"/>
      </g>
     </g>
    </g>
    <g id="xtick_8">
     <g id="line2d_8">
      <path d="M 180.52375 172.902 
L 102.11975 94.498 
" clip-path="url(#pc0f0b3daa2)" style="fill: none; stroke: #b0b0b0; stroke-width: 0.8; stroke-linecap: square"/>
     </g>
    </g>
   </g>
   <g id="matplotlib.axis_2"/>
   <g id="patch_3">
    <path d="M 180.52375 172.902 
C 180.52375 172.902 180.52375 172.902 180.52375 172.902 
C 180.52375 172.902 180.52375 172.902 180.52375 172.902 
L 180.52375 172.902 
C 180.52375 172.902 180.52375 172.902 180.52375 172.902 
C 180.52375 172.902 180.52375 172.902 180.52375 172.902 
z
" clip-path="url(#pc0f0b3daa2)" style="fill: #d4a0a7; stroke: #000000; stroke-width: 0.5; stroke-linejoin: miter"/>
   </g>
   <g id="patch_4">
    <path d="M 180.52375 172.902 
C 180.52375 172.902 180.52375 172.902 180.52375 172.902 
C 180.52375 172.902 180.52375 172.902 180.52375 172.902 
L 185.577462 156.242143 
C 185.03216 156.076728 184.479066 155.938185 183.920176 155.827015 
C 183.361286 155.715845 182.797275 155.632181 182.23018 155.576327 
z
" clip-path="url(#pc0f0b3daa2)" style="fill: #d4a0a7; stroke: #000000; stroke-width: 0.5; stroke-linejoin: miter"/>
   </g>
   <g id="patch_5">
    <path d="M 180.52375 172.902 
C 180.52375 172.902 180.52375 172.902 180.52375 172.902 
C 180.52375 172.902 180.52375 172.902 180.52375 172.902 
L 203.522275 129.874786 
C 202.11393 129.12201 200.669475 128.438833 199.194126 127.827724 
C 197.718778 127.216615 196.214315 126.678309 194.686172 126.214752 
z
" clip-path="url(#pc0f0b3daa2)" style="fill: #d4a0a7; stroke: #000000; stroke-width: 0.5; stroke-linejoin: miter"/>
   </g>
   <g id="patch_6">
    <path d="M 180.52375 172.902 
C 180.52375 172.902 180.52375 172.902 180.52375 172.902 
C 180.52375 172.902 180.52375 172.902 180.52375 172.902 
L 237.178054 103.868531 
C 234.918486 102.014151 232.569234 100.271827 230.138785 98.647853 
C 227.708336 97.023879 225.199619 95.520212 222.621696 94.142283 
z
" clip-path="url(#pc0f0b3daa2)" style="fill: #d4a0a7; stroke: #000000; stroke-width: 0.5; stroke-linejoin: miter"/>
   </g>
   <g id="patch_7">
    <path d="M 180.52375 172.902 
C 180.52375 172.902 180.52375 172.902 180.52375 172.902 
C 180.52375 172.902 180.52375 172.902 180.52375 172.902 
L 252.191683 114.085647 
C 250.266536 111.739849 248.227377 109.489984 246.081572 107.344178 
C 243.935766 105.198373 241.685901 103.159214 239.340103 101.234067 
z
" clip-path="url(#pc0f0b3daa2)" style="fill: #d4a0a7; stroke: #000000; stroke-width: 0.5; stroke-linejoin: miter"/>
   </g>
   <g id="patch_8">
    <path d="M 180.52375 172.902 
C 180.52375 172.902 180.52375 172.902 180.52375 172.902 
C 180.52375 172.902 180.52375 172.902 180.52375 172.902 
L 278.31118 120.63353 
C 276.600355 117.432801 274.733414 114.317999 272.717101 111.300373 
C 270.700787 108.282747 268.537532 105.365935 266.235149 102.560473 
z
" clip-path="url(#pc0f0b3daa2)" style="fill: #d4a0a7; stroke: #000000; stroke-width: 0.5; stroke-linejoin: miter"/>
   </g>
   <g id="patch_9">
    <path d="M 180.52375 172.902 
C 180.52375 172.902 180.52375 172.902 180.52375 172.902 
C 180.52375 172.902 180.52375 172.902 180.52375 172.902 
L 277.0695 143.615167 
C 276.110898 140.45508 274.997723 137.343963 273.733994 134.293053 
C 272.470266 131.242142 271.057507 128.255116 269.500823 125.342764 
z
" clip-path="url(#pc0f0b3daa2)" style="fill: #d4a0a7; stroke: #000000; stroke-width: 0.5; stroke-linejoin: miter"/>
   </g>
   <g id="patch_10">
    <path d="M 180.52375 172.902 
C 180.52375 172.902 180.52375 172.902 180.52375 172.902 
C 180.52375 172.902 180.52375 172.902 180.52375 172.902 
L 278.455955 163.25652 
C 278.140244 160.051052 277.667344 156.863018 277.038962 153.703931 
C 276.410581 150.544844 275.627475 147.418513 274.692475 144.33623 
z
" clip-path="url(#pc0f0b3daa2)" style="fill: #d4a0a7; stroke: #000000; stroke-width: 0.5; stroke-linejoin: miter"/>
   </g>
   <g id="patch_11">
    <path d="M 180.52375 172.902 
C 180.52375 172.902 180.52375 172.902 180.52375 172.902 
C 180.52375 172.902 180.52375 172.902 180.52375 172.902 
L 239.490457 178.709714 
C 239.680553 176.779645 239.775772 174.841407 239.775772 172.902 
C 239.775772 170.962593 239.680553 169.024355 239.490457 167.094286 
z
" clip-path="url(#pc0f0b3daa2)" style="fill: #d4a0a7; stroke: #000000; stroke-width: 0.5; stroke-linejoin: miter"/>
   </g>
   <g id="patch_12">
    <path d="M 180.52375 172.902 
C 180.52375 172.902 180.52375 172.902 180.52375 172.902 
C 180.52375 172.902 180.52375 172.902 180.52375 172.902 
L 249.930933 193.956439 
C 250.620077 191.684638 251.197265 189.380372 251.660415 187.051962 
C 252.123564 184.723553 252.472116 182.373808 252.704811 180.011214 
z
" clip-path="url(#pc0f0b3daa2)" style="fill: #d4a0a7; stroke: #000000; stroke-width: 0.5; stroke-linejoin: miter"/>
   </g>
   <g id="patch_13">
    <path d="M 180.52375 172.902 
C 180.52375 172.902 180.52375 172.902 180.52375 172.902 
C 180.52375 172.902 180.52375 172.902 180.52375 172.902 
L 227.814155 198.179248 
C 228.641517 196.631363 229.392384 195.043789 230.064042 193.422261 
C 230.735701 191.800733 231.327343 190.147206 231.83683 188.467653 
z
" clip-path="url(#pc0f0b3daa2)" style="fill: #d4a0a7; stroke: #000000; stroke-width: 0.5; stroke-linejoin: miter"/>
   </g>
   <g id="patch_14">
    <path d="M 180.52375 172.902 
C 180.52375 172.902 180.52375 172.902 180.52375 172.902 
C 180.52375 172.902 180.52375 172.902 180.52375 172.902 
L 180.52375 172.902 
C 180.52375 172.902 180.52375 172.902 180.52375 172.902 
C 180.52375 172.902 180.52375 172.902 180.52375 172.902 
z
" clip-path="url(#pc0f0b3daa2)" style="fill: #d4a0a7; stroke: #000000; stroke-width: 0.5; stroke-linejoin: miter"/>
   </g>
   <g id="patch_15">
    <path d="M 180.52375 172.902 
C 180.52375 172.902 180.52375 172.902 180.52375 172.902 
C 180.52375 172.902 180.52375 172.902 180.52375 172.902 
L 180.52375 172.902 
C 180.52375 172.902 180.52375 172.902 180.52375 172.902 
C 180.52375 172.902 180.52375 172.902 180.52375 172.902 
z
" clip-path="url(#pc0f0b3daa2)" style="fill: #d4a0a7; stroke: #000000; stroke-width: 0.5; stroke-linejoin: miter"/>
   </g>
   <g id="patch_16">
    <path d="M 180.52375 172.902 
C 180.52375 172.902 180.52375 172.902 180.52375 172.902 
C 180.52375 172.902 180.52375 172.902 180.52375 172.902 
L 180.52375 172.902 
C 180.52375 172.902 180.52375 172.902 180.52375 172.902 
C 180.52375 172.902 180.52375 172.902 180.52375 172.902 
z
" clip-path="url(#pc0f0b3daa2)" style="fill: #d4a0a7; stroke: #000000; stroke-width: 0.5; stroke-linejoin: miter"/>
   </g>
   <g id="patch_17">
    <path d="M 180.52375 172.902 
C 180.52375 172.902 180.52375 172.902 180.52375 172.902 
C 180.52375 172.902 180.52375 172.902 180.52375 172.902 
L 180.52375 172.902 
C 180.52375 172.902 180.52375 172.902 180.52375 172.902 
C 180.52375 172.902 180.52375 172.902 180.52375 172.902 
z
" clip-path="url(#pc0f0b3daa2)" style="fill: #d4a0a7; stroke: #000000; stroke-width: 0.5; stroke-linejoin: miter"/>
   </g>
   <g id="patch_18">
    <path d="M 180.52375 172.902 
C 180.52375 172.902 180.52375 172.902 180.52375 172.902 
C 180.52375 172.902 180.52375 172.902 180.52375 172.902 
L 180.52375 172.902 
C 180.52375 172.902 180.52375 172.902 180.52375 172.902 
C 180.52375 172.902 180.52375 172.902 180.52375 172.902 
z
" clip-path="url(#pc0f0b3daa2)" style="fill: #d4a0a7; stroke: #000000; stroke-width: 0.5; stroke-linejoin: miter"/>
   </g>
   <g id="patch_19">
    <path d="M 180.52375 172.902 
C 180.52375 172.902 180.52375 172.902 180.52375 172.902 
C 180.52375 172.902 180.52375 172.902 180.52375 172.902 
L 180.52375 172.902 
C 180.52375 172.902 180.52375 172.902 180.52375 172.902 
C 180.52375 172.902 180.52375 172.902 180.52375 172.902 
z
" clip-path="url(#pc0f0b3daa2)" style="fill: #d4a0a7; stroke: #000000; stroke-width: 0.5; stroke-linejoin: miter"/>
   </g>
   <g id="patch_20">
    <path d="M 180.52375 172.902 
C 180.52375 172.902 180.52375 172.902 180.52375 172.902 
C 180.52375 172.902 180.52375 172.902 180.52375 172.902 
L 180.52375 172.902 
C 180.52375 172.902 180.52375 172.902 180.52375 172.902 
C 180.52375 172.902 180.52375 172.902 180.52375 172.902 
z
" clip-path="url(#pc0f0b3daa2)" style="fill: #d4a0a7; stroke: #000000; stroke-width: 0.5; stroke-linejoin: miter"/>
   </g>
   <g id="patch_21">
    <path d="M 180.52375 172.902 
C 180.52375 172.902 180.52375 172.902 180.52375 172.902 
C 180.52375 172.902 180.52375 172.902 180.52375 172.902 
L 180.52375 172.902 
C 180.52375 172.902 180.52375 172.902 180.52375 172.902 
C 180.52375 172.902 180.52375 172.902 180.52375 172.902 
z
" clip-path="url(#pc0f0b3daa2)" style="fill: #d4a0a7; stroke: #000000; stroke-width: 0.5; stroke-linejoin: miter"/>
   </g>
   <g id="patch_22">
    <path d="M 180.52375 172.902 
C 180.52375 172.902 180.52375 172.902 180.52375 172.902 
C 180.52375 172.902 180.52375 172.902 180.52375 172.902 
L 180.52375 172.902 
C 180.52375 172.902 180.52375 172.902 180.52375 172.902 
C 180.52375 172.902 180.52375 172.902 180.52375 172.902 
z
" clip-path="url(#pc0f0b3daa2)" style="fill: #d4a0a7; stroke: #000000; stroke-width: 0.5; stroke-linejoin: miter"/>
   </g>
   <g id="patch_23">
    <path d="M 180.52375 172.902 
C 180.52375 172.902 180.52375 172.902 180.52375 172.902 
C 180.52375 172.902 180.52375 172.902 180.52375 172.902 
L 180.52375 172.902 
C 180.52375 172.902 180.52375 172.902 180.52375 172.902 
C 180.52375 172.902 180.52375 172.902 180.52375 172.902 
z
" clip-path="url(#pc0f0b3daa2)" style="fill: #d4a0a7; stroke: #000000; stroke-width: 0.5; stroke-linejoin: miter"/>
   </g>
   <g id="patch_24">
    <path d="M 180.52375 172.902 
C 180.52375 172.902 180.52375 172.902 180.52375 172.902 
C 180.52375 172.902 180.52375 172.902 180.52375 172.902 
L 180.52375 172.902 
C 180.52375 172.902 180.52375 172.902 180.52375 172.902 
C 180.52375 172.902 180.52375 172.902 180.52375 172.902 
z
" clip-path="url(#pc0f0b3daa2)" style="fill: #d4a0a7; stroke: #000000; stroke-width: 0.5; stroke-linejoin: miter"/>
   </g>
   <g id="patch_25">
    <path d="M 180.52375 172.902 
C 180.52375 172.902 180.52375 172.902 180.52375 172.902 
C 180.52375 172.902 180.52375 172.902 180.52375 172.902 
L 180.52375 172.902 
C 180.52375 172.902 180.52375 172.902 180.52375 172.902 
C 180.52375 172.902 180.52375 172.902 180.52375 172.902 
z
" clip-path="url(#pc0f0b3daa2)" style="fill: #d4a0a7; stroke: #000000; stroke-width: 0.5; stroke-linejoin: miter"/>
   </g>
   <g id="patch_26">
    <path d="M 180.52375 172.902 
C 180.52375 172.902 180.52375 172.902 180.52375 172.902 
C 180.52375 172.902 180.52375 172.902 180.52375 172.902 
L 180.52375 172.902 
C 180.52375 172.902 180.52375 172.902 180.52375 172.902 
C 180.52375 172.902 180.52375 172.902 180.52375 172.902 
z
" clip-path="url(#pc0f0b3daa2)" style="fill: #d4a0a7; stroke: #000000; stroke-width: 0.5; stroke-linejoin: miter"/>
   </g>
   <g id="patch_27">
    <path d="M 180.52375 172.902 
C 180.52375 172.902 180.52375 172.902 180.52375 172.902 
C 180.52375 172.902 180.52375 172.902 180.52375 172.902 
L 180.52375 172.902 
C 180.52375 172.902 180.52375 172.902 180.52375 172.902 
C 180.52375 172.902 180.52375 172.902 180.52375 172.902 
z
" clip-path="url(#pc0f0b3daa2)" style="fill: #d4a0a7; stroke: #000000; stroke-width: 0.5; stroke-linejoin: miter"/>
   </g>
   <g id="patch_28">
    <path d="M 180.52375 172.902 
C 180.52375 172.902 180.52375 172.902 180.52375 172.902 
C 180.52375 172.902 180.52375 172.902 180.52375 172.902 
L 180.52375 172.902 
C 180.52375 172.902 180.52375 172.902 180.52375 172.902 
C 180.52375 172.902 180.52375 172.902 180.52375 172.902 
z
" clip-path="url(#pc0f0b3daa2)" style="fill: #d4a0a7; stroke: #000000; stroke-width: 0.5; stroke-linejoin: miter"/>
   </g>
   <g id="patch_29">
    <path d="M 180.52375 172.902 
C 180.52375 172.902 180.52375 172.902 180.52375 172.902 
C 180.52375 172.902 180.52375 172.902 180.52375 172.902 
L 180.52375 172.902 
C 180.52375 172.902 180.52375 172.902 180.52375 172.902 
C 180.52375 172.902 180.52375 172.902 180.52375 172.902 
z
" clip-path="url(#pc0f0b3daa2)" style="fill: #d4a0a7; stroke: #000000; stroke-width: 0.5; stroke-linejoin: miter"/>
   </g>
   <g id="patch_30">
    <path d="M 180.52375 172.902 
C 180.52375 172.902 180.52375 172.902 180.52375 172.902 
C 180.52375 172.902 180.52375 172.902 180.52375 172.902 
L 180.52375 172.902 
C 180.52375 172.902 180.52375 172.902 180.52375 172.902 
C 180.52375 172.902 180.52375 172.902 180.52375 172.902 
z
" clip-path="url(#pc0f0b3daa2)" style="fill: #d4a0a7; stroke: #000000; stroke-width: 0.5; stroke-linejoin: miter"/>
   </g>
   <g id="patch_31">
    <path d="M 180.52375 172.902 
C 180.52375 172.902 180.52375 172.902 180.52375 172.902 
C 180.52375 172.902 180.52375 172.902 180.52375 172.902 
L 173.394574 164.215074 
C 173.110238 164.448422 172.83753 164.69559 172.577435 164.955685 
C 172.31734 165.21578 172.070172 165.488488 171.836824 165.772824 
z
" clip-path="url(#pc0f0b3daa2)" style="fill: #d4a0a7; stroke: #000000; stroke-width: 0.5; stroke-linejoin: miter"/>
   </g>
   <g id="patch_32">
    <path d="M 180.52375 172.902 
C 180.52375 172.902 180.52375 172.902 180.52375 172.902 
C 180.52375 172.902 180.52375 172.902 180.52375 172.902 
L 180.52375 172.902 
C 180.52375 172.902 180.52375 172.902 180.52375 172.902 
C 180.52375 172.902 180.52375 172.902 180.52375 172.902 
z
" clip-path="url(#pc0f0b3daa2)" style="fill: #d4a0a7; stroke: #000000; stroke-width: 0.5; stroke-linejoin: miter"/>
   </g>
   <g id="patch_33">
    <path d="M 180.52375 172.902 
C 180.52375 172.902 180.52375 172.902 180.52375 172.902 
C 180.52375 172.902 180.52375 172.902 180.52375 172.902 
L 180.52375 172.902 
C 180.52375 172.902 180.52375 172.902 180.52375 172.902 
C 180.52375 172.902 180.52375 172.902 180.52375 172.902 
z
" clip-path="url(#pc0f0b3daa2)" style="fill: #d4a0a7; stroke: #000000; stroke-width: 0.5; stroke-linejoin: miter"/>
   </g>
   <g id="patch_34">
    <path d="M 180.52375 172.902 
C 180.52375 172.902 180.52375 172.902 180.52375 172.902 
C 180.52375 172.902 180.52375 172.902 180.52375 172.902 
L 180.52375 172.902 
C 180.52375 172.902 180.52375 172.902 180.52375 172.902 
C 180.52375 172.902 180.52375 172.902 180.52375 172.902 
z
" clip-path="url(#pc0f0b3daa2)" style="fill: #d4a0a7; stroke: #000000; stroke-width: 0.5; stroke-linejoin: miter"/>
   </g>
   <g id="PathCollection_1">
    <defs>
     <path id="m035608adc2" d="M 0.193618 7.414054 
L 0.193618 7.414054 
C 0.054922 7.414054 -0.078235 7.358899 -0.176308 7.260826 
C -0.274381 7.162753 -0.329536 7.029596 -0.329536 6.890901 
L -0.329536 5.365008 
L -1.528416 6.56393 
L -1.528416 6.56393 
C -1.577018 6.612704 -1.634775 6.651408 -1.698366 6.677814 
C -1.761958 6.704221 -1.830141 6.717815 -1.898997 6.717815 
C -1.967853 6.717815 -2.036037 6.704221 -2.099628 6.677814 
C -2.163219 6.651408 -2.220976 6.612704 -2.269578 6.56393 
L -2.269578 6.56393 
C -2.318353 6.515327 -2.357056 6.457571 -2.383463 6.393979 
C -2.409869 6.330388 -2.423463 6.262205 -2.423463 6.193348 
C -2.423463 6.124492 -2.409869 6.056309 -2.383463 5.992718 
C -2.357056 5.929126 -2.318353 5.87137 -2.269578 5.822767 
L -0.329536 3.884106 
L -0.329536 0.820937 
L -2.98067 2.351538 
L -3.691824 5.001416 
L -3.691824 5.001416 
C -3.727584 5.135411 -3.815199 5.249836 -3.93523 5.319305 
C -4.055261 5.388775 -4.198123 5.407741 -4.332122 5.371997 
L -4.332122 5.371997 
C -4.466126 5.336237 -4.580558 5.248616 -4.650029 5.128576 
C -4.719499 5.008535 -4.73846 4.865662 -4.702703 4.731657 
L -4.262647 3.092721 
L -5.585535 3.855668 
L -5.585535 3.855668 
C -5.645013 3.890144 -5.710708 3.912561 -5.778854 3.921634 
C -5.847001 3.930706 -5.916272 3.926258 -5.982698 3.908543 
C -6.049125 3.890828 -6.111412 3.860192 -6.165991 3.818391 
C -6.220571 3.77659 -6.266379 3.724437 -6.300791 3.664922 
L -6.300791 3.664922 
C -6.335212 3.605364 -6.35755 3.539597 -6.366524 3.471396 
C -6.375498 3.403194 -6.370933 3.333888 -6.35309 3.267452 
C -6.335248 3.201017 -6.304476 3.138749 -6.26254 3.08422 
C -6.220605 3.029692 -6.168323 2.983966 -6.108695 2.949666 
L -4.785807 2.186762 
L -6.424743 1.746706 
L -6.424743 1.746706 
C -6.558747 1.710946 -6.673179 1.623325 -6.74265 1.503284 
C -6.81212 1.383244 -6.831081 1.240371 -6.795324 1.106366 
L -6.795324 1.106366 
C -6.777471 1.039969 -6.746703 0.977739 -6.704784 0.923241 
C -6.662864 0.868744 -6.61061 0.823041 -6.551015 0.788752 
C -6.491421 0.754464 -6.425647 0.732257 -6.357465 0.723406 
C -6.289282 0.714554 -6.220019 0.71923 -6.153645 0.737166 
L -3.505232 1.44698 
L -0.852424 -0.08496 
L -3.503767 -1.615666 
L -6.153645 -0.905851 
L -6.153645 -0.905851 
C -6.22011 -0.887939 -6.289462 -0.883321 -6.357716 -0.892262 
C -6.42597 -0.901202 -6.491793 -0.923527 -6.551403 -0.957953 
C -6.611013 -0.992379 -6.663247 -1.038234 -6.705103 -1.092883 
C -6.746958 -1.147533 -6.777619 -1.209911 -6.795324 -1.276432 
L -6.795324 -1.276432 
C -6.831068 -1.410431 -6.812101 -1.553293 -6.742632 -1.673324 
C -6.673162 -1.793355 -6.558738 -1.88097 -6.424743 -1.91673 
L -4.785807 -2.355447 
L -6.108695 -3.119732 
L -6.108695 -3.119732 
C -6.228699 -3.188976 -6.316415 -3.303132 -6.352417 -3.436921 
C -6.388419 -3.57071 -6.369839 -3.713469 -6.300791 -3.833586 
L -6.300791 -3.833586 
C -6.266491 -3.893214 -6.220765 -3.945496 -6.166237 -3.987431 
C -6.111708 -4.029367 -6.04944 -4.060139 -5.983005 -4.077981 
C -5.91657 -4.095823 -5.847263 -4.100389 -5.779062 -4.091415 
C -5.71086 -4.082441 -5.645094 -4.060102 -5.585535 -4.025682 
L -4.262647 -3.261396 
L -4.702703 -4.900332 
L -4.702703 -4.900332 
C -4.73846 -5.034337 -4.719499 -5.17721 -4.650029 -5.29725 
C -4.580558 -5.417291 -4.466126 -5.504912 -4.332122 -5.540672 
L -4.332122 -5.540672 
C -4.19831 -5.576464 -4.055613 -5.557686 -3.935617 -5.488496 
C -3.81562 -5.419305 -3.727882 -5.305212 -3.691824 -5.171472 
L -2.982009 -2.521594 
L -0.329411 -0.990302 
L -0.329411 -4.051588 
L -2.269453 -5.991589 
L -2.269453 -5.991589 
C -2.318227 -6.040191 -2.356931 -6.097947 -2.383337 -6.161539 
C -2.409744 -6.22513 -2.423338 -6.293314 -2.423338 -6.36217 
C -2.423338 -6.431026 -2.409744 -6.499209 -2.383337 -6.5628 
C -2.356931 -6.626392 -2.318227 -6.684149 -2.269453 -6.732751 
L -2.269453 -6.732751 
C -2.22085 -6.781526 -2.163094 -6.820229 -2.099502 -6.846635 
C -2.035911 -6.873042 -1.967728 -6.886636 -1.898871 -6.886636 
C -1.830015 -6.886636 -1.761832 -6.873042 -1.698241 -6.846635 
C -1.634649 -6.820229 -1.576893 -6.781526 -1.52829 -6.732751 
L -0.329411 -5.533829 
L -0.329411 -7.059722 
L -0.329411 -7.059722 
C -0.329411 -7.198418 -0.274255 -7.331575 -0.176182 -7.429647 
C -0.07811 -7.52772 0.055047 -7.582875 0.193743 -7.582875 
L 0.193743 -7.582875 
C 0.332439 -7.582875 0.465596 -7.52772 0.563669 -7.429647 
C 0.661741 -7.331575 0.716897 -7.198418 0.716897 -7.059722 
L 0.716897 -5.533829 
L 1.915777 -6.732751 
L 1.915777 -6.732751 
C 1.964379 -6.781526 2.022136 -6.820229 2.085727 -6.846635 
C 2.149318 -6.873042 2.217502 -6.886636 2.286358 -6.886636 
C 2.355214 -6.886636 2.423397 -6.873042 2.486989 -6.846635 
C 2.55058 -6.820229 2.608337 -6.781526 2.656939 -6.732751 
L 2.656939 -6.732751 
C 2.705714 -6.684149 2.744417 -6.626392 2.770823 -6.5628 
C 2.79723 -6.499209 2.810824 -6.431026 2.810824 -6.36217 
C 2.810824 -6.293314 2.79723 -6.22513 2.770823 -6.161539 
C 2.744417 -6.097947 2.705714 -6.040191 2.656939 -5.991589 
L 0.716897 -4.051588 
L 0.716897 -0.991139 
L 3.369495 -2.522954 
L 4.07931 -5.171367 
L 4.07931 -5.171367 
C 4.115368 -5.305107 4.203106 -5.4192 4.323103 -5.488391 
C 4.4431 -5.557582 4.585797 -5.576359 4.719608 -5.540567 
L 4.719608 -5.540567 
C 4.853612 -5.504807 4.968045 -5.417186 5.037515 -5.297146 
C 5.106986 -5.177105 5.125946 -5.034232 5.090189 -4.900227 
L 4.650133 -3.262673 
L 5.973022 -4.025577 
L 5.973022 -4.025577 
C 6.03258 -4.059998 6.098346 -4.082336 6.166548 -4.09131 
C 6.234749 -4.100284 6.304056 -4.095719 6.370491 -4.077876 
C 6.436926 -4.060034 6.499194 -4.029262 6.553723 -3.987327 
C 6.608252 -3.945391 6.653978 -3.893109 6.688277 -3.833481 
L 6.688277 -3.833481 
C 6.757325 -3.713365 6.775905 -3.570605 6.739903 -3.436816 
C 6.703901 -3.303027 6.616186 -3.188871 6.496181 -3.119628 
L 5.173293 -2.355342 
L 6.812229 -1.916625 
L 6.812229 -1.916625 
C 6.946224 -1.880865 7.060649 -1.79325 7.130118 -1.67322 
C 7.199588 -1.553189 7.218554 -1.410326 7.18281 -1.276327 
L 7.18281 -1.276327 
C 7.165106 -1.209806 7.134445 -1.147429 7.092589 -1.092779 
C 7.050733 -1.038129 6.998499 -0.992274 6.938889 -0.957848 
C 6.879279 -0.923422 6.813456 -0.901098 6.745202 -0.892157 
C 6.676949 -0.883217 6.607597 -0.887835 6.541131 -0.905746 
L 3.891253 -1.615561 
L 1.239492 -0.084604 
L 3.892718 1.447085 
L 6.541131 0.73727 
L 6.541131 0.73727 
C 6.674948 0.701466 6.817656 0.720237 6.937662 0.789429 
C 7.057669 0.858621 7.145413 0.972721 7.181471 1.10647 
L 7.181471 1.10647 
C 7.217274 1.240293 7.198497 1.383006 7.129297 1.503014 
C 7.060096 1.623021 6.945986 1.710762 6.812229 1.74681 
L 5.173293 2.186866 
L 6.496181 2.949771 
L 6.496181 2.949771 
C 6.555697 2.984183 6.607849 3.029991 6.649651 3.08457 
C 6.691452 3.13915 6.722088 3.201437 6.739803 3.267863 
C 6.757517 3.33429 6.761966 3.403561 6.752893 3.471707 
C 6.743821 3.539854 6.721404 3.605549 6.686927 3.665026 
L 6.686927 3.665026 
C 6.617458 3.784813 6.503196 3.87225 6.369416 3.907994 
C 6.235636 3.943739 6.092989 3.924946 5.973032 3.855772 
L 4.650144 3.091487 
L 5.08886 4.731783 
L 5.08886 4.731783 
C 5.124664 4.865606 5.105887 5.008319 5.036686 5.128326 
C 4.967486 5.248334 4.853376 5.336074 4.719619 5.372123 
L 4.719619 5.372123 
C 4.585619 5.407867 4.442757 5.3889 4.322726 5.319431 
C 4.202695 5.249961 4.115081 5.135537 4.07932 5.001542 
L 3.368166 2.351664 
L 0.717033 0.821063 
L 0.717033 3.884232 
L 2.657075 5.822893 
L 2.657075 5.822893 
C 2.70585 5.871495 2.744553 5.929252 2.770959 5.992843 
C 2.797366 6.056435 2.81096 6.124618 2.81096 6.193474 
C 2.81096 6.26233 2.797366 6.330514 2.770959 6.394105 
C 2.744553 6.457696 2.70585 6.515453 2.657075 6.564055 
L 2.657075 6.564055 
C 2.608473 6.61283 2.550716 6.651533 2.487125 6.67794 
C 2.423533 6.704346 2.35535 6.71794 2.286494 6.71794 
C 2.217638 6.71794 2.149454 6.704346 2.085863 6.67794 
C 2.022272 6.651533 1.964515 6.61283 1.915913 6.564055 
L 0.717033 5.365133 
L 0.717033 6.891026 
L 0.717033 6.891026 
C 0.717033 7.029722 0.661877 7.162879 0.563805 7.260952 
C 0.465732 7.359024 0.332575 7.41418 0.193879 7.41418 
L 0.193618 7.414054 
z
"/>
    </defs>
    <g clip-path="url(#pc0f0b3daa2)">
     <use xlink:href="#m035608adc2" x="271.95219" y="128.203232" style="fill: #0000ff; fill-opacity: 0.7"/>
    </g>
   </g>
   <g id="patch_35">
    <path d="M 180.52375 62.022 
C 165.963122 62.022 151.544077 64.890126 138.091811 70.462237 
C 124.639545 76.034349 112.415669 84.202081 102.11975 94.498 
C 91.823831 104.793919 83.656099 117.017795 78.083987 130.470061 
C 72.511876 143.922327 69.64375 158.341372 69.64375 172.902 
C 69.64375 187.462628 72.511876 201.881673 78.083987 215.333939 
C 83.656099 228.786205 91.823831 241.010081 102.11975 251.306 
C 112.415669 261.601919 124.639545 269.769651 138.091811 275.341763 
C 151.544077 280.913874 165.963122 283.782 180.52375 283.782 
C 195.084378 283.782 209.503423 280.913874 222.955689 275.341763 
C 236.407955 269.769651 248.631831 261.601919 258.92775 251.306 
C 269.223669 241.010081 277.391401 228.786205 282.963513 215.333939 
C 288.535624 201.881673 291.40375 187.462628 291.40375 172.902 
C 291.40375 158.341372 288.535624 143.922327 282.963513 130.470061 
C 277.391401 117.017795 269.223669 104.793919 258.92775 94.498 
C 248.631831 84.202081 236.407955 76.034349 222.955689 70.462237 
C 209.503423 64.890126 195.084378 62.022 180.52375 62.022 
" style="fill: none; stroke: #000000; stroke-width: 0.8; stroke-linejoin: miter; stroke-linecap: square"/>
   </g>
   <g id="text_5">
    <!-- 9 runs -->
    <g style="fill: #95a5a6" transform="translate(56.64543 56.622118) scale(0.1 -0.1)">
     <defs>
      <path id="DejaVuSans-39" d="M 703 97 
L 703 672 
Q 941 559 1184 500 
Q 1428 441 1663 441 
Q 2288 441 2617 861 
Q 2947 1281 2994 2138 
Q 2813 1869 2534 1725 
Q 2256 1581 1919 1581 
Q 1219 1581 811 2004 
Q 403 2428 403 3163 
Q 403 3881 828 4315 
Q 1253 4750 1959 4750 
Q 2769 4750 3195 4129 
Q 3622 3509 3622 2328 
Q 3622 1225 3098 567 
Q 2575 -91 1691 -91 
Q 1453 -91 1209 -44 
Q 966 3 703 97 
z
M 1959 2075 
Q 2384 2075 2632 2365 
Q 2881 2656 2881 3163 
Q 2881 3666 2632 3958 
Q 2384 4250 1959 4250 
Q 1534 4250 1286 3958 
Q 1038 3666 1038 3163 
Q 1038 2656 1286 2365 
Q 1534 2075 1959 2075 
z
" transform="scale(0.015625)"/>
      <path id="DejaVuSans-20" transform="scale(0.015625)"/>
      <path id="DejaVuSans-72" d="M 2631 2963 
Q 2534 3019 2420 3045 
Q 2306 3072 2169 3072 
Q 1681 3072 1420 2755 
Q 1159 2438 1159 1844 
L 1159 0 
L 581 0 
L 581 3500 
L 1159 3500 
L 1159 2956 
Q 1341 3275 1631 3429 
Q 1922 3584 2338 3584 
Q 2397 3584 2469 3576 
Q 2541 3569 2628 3553 
L 2631 2963 
z
" transform="scale(0.015625)"/>
      <path id="DejaVuSans-75" d="M 544 1381 
L 544 3500 
L 1119 3500 
L 1119 1403 
Q 1119 906 1312 657 
Q 1506 409 1894 409 
Q 2359 409 2629 706 
Q 2900 1003 2900 1516 
L 2900 3500 
L 3475 3500 
L 3475 0 
L 2900 0 
L 2900 538 
Q 2691 219 2414 64 
Q 2138 -91 1772 -91 
Q 1169 -91 856 284 
Q 544 659 544 1381 
z
M 1991 3584 
L 1991 3584 
z
" transform="scale(0.015625)"/>
      <path id="DejaVuSans-6e" d="M 3513 2113 
L 3513 0 
L 2938 0 
L 2938 2094 
Q 2938 2591 2744 2837 
Q 2550 3084 2163 3084 
Q 1697 3084 1428 2787 
Q 1159 2491 1159 1978 
L 1159 0 
L 581 0 
L 581 3500 
L 1159 3500 
L 1159 2956 
Q 1366 3272 1645 3428 
Q 1925 3584 2291 3584 
Q 2894 3584 3203 3211 
Q 3513 2838 3513 2113 
z
" transform="scale(0.015625)"/>
      <path id="DejaVuSans-73" d="M 2834 3397 
L 2834 2853 
Q 2591 2978 2328 3040 
Q 2066 3103 1784 3103 
Q 1356 3103 1142 2972 
Q 928 2841 928 2578 
Q 928 2378 1081 2264 
Q 1234 2150 1697 2047 
L 1894 2003 
Q 2506 1872 2764 1633 
Q 3022 1394 3022 966 
Q 3022 478 2636 193 
Q 2250 -91 1575 -91 
Q 1294 -91 989 -36 
Q 684 19 347 128 
L 347 722 
Q 666 556 975 473 
Q 1284 391 1588 391 
Q 1994 391 2212 530 
Q 2431 669 2431 922 
Q 2431 1156 2273 1281 
Q 2116 1406 1581 1522 
L 1381 1569 
Q 847 1681 609 1914 
Q 372 2147 372 2553 
Q 372 3047 722 3315 
Q 1072 3584 1716 3584 
Q 2034 3584 2315 3537 
Q 2597 3491 2834 3397 
z
" transform="scale(0.015625)"/>
     </defs>
     <use xlink:href="#DejaVuSans-39"/>
     <use xlink:href="#DejaVuSans-20" x="63.623047"/>
     <use xlink:href="#DejaVuSans-72" x="95.410156"/>
     <use xlink:href="#DejaVuSans-75" x="136.523438"/>
     <use xlink:href="#DejaVuSans-6e" x="199.902344"/>
     <use xlink:href="#DejaVuSans-73" x="263.28125"/>
    </g>
    <!-- 2 lifts -->
    <g style="fill: #95a5a6" transform="translate(56.64543 67.81993) scale(0.1 -0.1)">
     <defs>
      <path id="DejaVuSans-32" d="M 1228 531 
L 3431 531 
L 3431 0 
L 469 0 
L 469 531 
Q 828 903 1448 1529 
Q 2069 2156 2228 2338 
Q 2531 2678 2651 2914 
Q 2772 3150 2772 3378 
Q 2772 3750 2511 3984 
Q 2250 4219 1831 4219 
Q 1534 4219 1204 4116 
Q 875 4013 500 3803 
L 500 4441 
Q 881 4594 1212 4672 
Q 1544 4750 1819 4750 
Q 2544 4750 2975 4387 
Q 3406 4025 3406 3419 
Q 3406 3131 3298 2873 
Q 3191 2616 2906 2266 
Q 2828 2175 2409 1742 
Q 1991 1309 1228 531 
z
" transform="scale(0.015625)"/>
      <path id="DejaVuSans-6c" d="M 603 4863 
L 1178 4863 
L 1178 0 
L 603 0 
L 603 4863 
z
" transform="scale(0.015625)"/>
      <path id="DejaVuSans-69" d="M 603 3500 
L 1178 3500 
L 1178 0 
L 603 0 
L 603 3500 
z
M 603 4863 
L 1178 4863 
L 1178 4134 
L 603 4134 
L 603 4863 
z
" transform="scale(0.015625)"/>
      <path id="DejaVuSans-66" d="M 2375 4863 
L 2375 4384 
L 1825 4384 
Q 1516 4384 1395 4259 
Q 1275 4134 1275 3809 
L 1275 3500 
L 2222 3500 
L 2222 3053 
L 1275 3053 
L 1275 0 
L 697 0 
L 697 3053 
L 147 3053 
L 147 3500 
L 697 3500 
L 697 3744 
Q 697 4328 969 4595 
Q 1241 4863 1831 4863 
L 2375 4863 
z
" transform="scale(0.015625)"/>
      <path id="DejaVuSans-74" d="M 1172 4494 
L 1172 3500 
L 2356 3500 
L 2356 3053 
L 1172 3053 
L 1172 1153 
Q 1172 725 1289 603 
Q 1406 481 1766 481 
L 2356 481 
L 2356 0 
L 1766 0 
Q 1100 0 847 248 
Q 594 497 594 1153 
L 594 3053 
L 172 3053 
L 172 3500 
L 594 3500 
L 594 4494 
L 1172 4494 
z
" transform="scale(0.015625)"/>
     </defs>
     <use xlink:href="#DejaVuSans-32"/>
     <use xlink:href="#DejaVuSans-20" x="63.623047"/>
     <use xlink:href="#DejaVuSans-6c" x="95.410156"/>
     <use xlink:href="#DejaVuSans-69" x="123.193359"/>
     <use xlink:href="#DejaVuSans-66" x="150.976562"/>
     <use xlink:href="#DejaVuSans-74" x="184.431641"/>
     <use xlink:href="#DejaVuSans-73" x="223.640625"/>
    </g>
   </g>
   <g id="text_6">
    <!-- 625 m -->
    <g style="fill: #95a5a6" transform="translate(273.57707 56.622118) scale(0.1 -0.1)">
     <defs>
      <path id="DejaVuSans-36" d="M 2113 2584 
Q 1688 2584 1439 2293 
Q 1191 2003 1191 1497 
Q 1191 994 1439 701 
Q 1688 409 2113 409 
Q 2538 409 2786 701 
Q 3034 994 3034 1497 
Q 3034 2003 2786 2293 
Q 2538 2584 2113 2584 
z
M 3366 4563 
L 3366 3988 
Q 3128 4100 2886 4159 
Q 2644 4219 2406 4219 
Q 1781 4219 1451 3797 
Q 1122 3375 1075 2522 
Q 1259 2794 1537 2939 
Q 1816 3084 2150 3084 
Q 2853 3084 3261 2657 
Q 3669 2231 3669 1497 
Q 3669 778 3244 343 
Q 2819 -91 2113 -91 
Q 1303 -91 875 529 
Q 447 1150 447 2328 
Q 447 3434 972 4092 
Q 1497 4750 2381 4750 
Q 2619 4750 2861 4703 
Q 3103 4656 3366 4563 
z
" transform="scale(0.015625)"/>
      <path id="DejaVuSans-35" d="M 691 4666 
L 3169 4666 
L 3169 4134 
L 1269 4134 
L 1269 2991 
Q 1406 3038 1543 3061 
Q 1681 3084 1819 3084 
Q 2600 3084 3056 2656 
Q 3513 2228 3513 1497 
Q 3513 744 3044 326 
Q 2575 -91 1722 -91 
Q 1428 -91 1123 -41 
Q 819 9 494 109 
L 494 744 
Q 775 591 1075 516 
Q 1375 441 1709 441 
Q 2250 441 2565 725 
Q 2881 1009 2881 1497 
Q 2881 1984 2565 2268 
Q 2250 2553 1709 2553 
Q 1456 2553 1204 2497 
Q 953 2441 691 2322 
L 691 4666 
z
" transform="scale(0.015625)"/>
      <path id="DejaVuSans-202f" transform="scale(0.015625)"/>
      <path id="DejaVuSans-6d" d="M 3328 2828 
Q 3544 3216 3844 3400 
Q 4144 3584 4550 3584 
Q 5097 3584 5394 3201 
Q 5691 2819 5691 2113 
L 5691 0 
L 5113 0 
L 5113 2094 
Q 5113 2597 4934 2840 
Q 4756 3084 4391 3084 
Q 3944 3084 3684 2787 
Q 3425 2491 3425 1978 
L 3425 0 
L 2847 0 
L 2847 2094 
Q 2847 2600 2669 2842 
Q 2491 3084 2119 3084 
Q 1678 3084 1418 2786 
Q 1159 2488 1159 1978 
L 1159 0 
L 581 0 
L 581 3500 
L 1159 3500 
L 1159 2956 
Q 1356 3278 1631 3431 
Q 1906 3584 2284 3584 
Q 2666 3584 2933 3390 
Q 3200 3197 3328 2828 
z
" transform="scale(0.015625)"/>
     </defs>
     <use xlink:href="#DejaVuSans-36"/>
     <use xlink:href="#DejaVuSans-32" x="63.623047"/>
     <use xlink:href="#DejaVuSans-35" x="127.246094"/>
     <use xlink:href="#DejaVuSans-202f" x="190.869141"/>
     <use xlink:href="#DejaVuSans-6d" x="210.839844"/>
    </g>
    <!-- skiable -->
    <g style="fill: #95a5a6" transform="translate(269.216132 67.81993) scale(0.1 -0.1)">
     <defs>
      <path id="DejaVuSans-6b" d="M 581 4863 
L 1159 4863 
L 1159 1991 
L 2875 3500 
L 3609 3500 
L 1753 1863 
L 3688 0 
L 2938 0 
L 1159 1709 
L 1159 0 
L 581 0 
L 581 4863 
z
" transform="scale(0.015625)"/>
      <path id="DejaVuSans-61" d="M 2194 1759 
Q 1497 1759 1228 1600 
Q 959 1441 959 1056 
Q 959 750 1161 570 
Q 1363 391 1709 391 
Q 2188 391 2477 730 
Q 2766 1069 2766 1631 
L 2766 1759 
L 2194 1759 
z
M 3341 1997 
L 3341 0 
L 2766 0 
L 2766 531 
Q 2569 213 2275 61 
Q 1981 -91 1556 -91 
Q 1019 -91 701 211 
Q 384 513 384 1019 
Q 384 1609 779 1909 
Q 1175 2209 1959 2209 
L 2766 2209 
L 2766 2266 
Q 2766 2663 2505 2880 
Q 2244 3097 1772 3097 
Q 1472 3097 1187 3025 
Q 903 2953 641 2809 
L 641 3341 
Q 956 3463 1253 3523 
Q 1550 3584 1831 3584 
Q 2591 3584 2966 3190 
Q 3341 2797 3341 1997 
z
" transform="scale(0.015625)"/>
      <path id="DejaVuSans-62" d="M 3116 1747 
Q 3116 2381 2855 2742 
Q 2594 3103 2138 3103 
Q 1681 3103 1420 2742 
Q 1159 2381 1159 1747 
Q 1159 1113 1420 752 
Q 1681 391 2138 391 
Q 2594 391 2855 752 
Q 3116 1113 3116 1747 
z
M 1159 2969 
Q 1341 3281 1617 3432 
Q 1894 3584 2278 3584 
Q 2916 3584 3314 3078 
Q 3713 2572 3713 1747 
Q 3713 922 3314 415 
Q 2916 -91 2278 -91 
Q 1894 -91 1617 61 
Q 1341 213 1159 525 
L 1159 0 
L 581 0 
L 581 4863 
L 1159 4863 
L 1159 2969 
z
" transform="scale(0.015625)"/>
      <path id="DejaVuSans-65" d="M 3597 1894 
L 3597 1613 
L 953 1613 
Q 991 1019 1311 708 
Q 1631 397 2203 397 
Q 2534 397 2845 478 
Q 3156 559 3463 722 
L 3463 178 
Q 3153 47 2828 -22 
Q 2503 -91 2169 -91 
Q 1331 -91 842 396 
Q 353 884 353 1716 
Q 353 2575 817 3079 
Q 1281 3584 2069 3584 
Q 2775 3584 3186 3129 
Q 3597 2675 3597 1894 
z
M 3022 2063 
Q 3016 2534 2758 2815 
Q 2500 3097 2075 3097 
Q 1594 3097 1305 2825 
Q 1016 2553 972 2059 
L 3022 2063 
z
" transform="scale(0.015625)"/>
     </defs>
     <use xlink:href="#DejaVuSans-73"/>
     <use xlink:href="#DejaVuSans-6b" x="52.099609"/>
     <use xlink:href="#DejaVuSans-69" x="110.009766"/>
     <use xlink:href="#DejaVuSans-61" x="137.792969"/>
     <use xlink:href="#DejaVuSans-62" x="199.072266"/>
     <use xlink:href="#DejaVuSans-6c" x="262.548828"/>
     <use xlink:href="#DejaVuSans-65" x="290.332031"/>
    </g>
    <!-- vert -->
    <g style="fill: #95a5a6" transform="translate(284.298945 79.017743) scale(0.1 -0.1)">
     <defs>
      <path id="DejaVuSans-76" d="M 191 3500 
L 800 3500 
L 1894 563 
L 2988 3500 
L 3597 3500 
L 2284 0 
L 1503 0 
L 191 3500 
z
" transform="scale(0.015625)"/>
     </defs>
     <use xlink:href="#DejaVuSans-76"/>
     <use xlink:href="#DejaVuSans-65" x="59.179688"/>
     <use xlink:href="#DejaVuSans-72" x="120.703125"/>
     <use xlink:href="#DejaVuSans-74" x="161.816406"/>
    </g>
   </g>
   <g id="text_7">
    <!-- affinity: -->
    <g style="fill: #95a5a6" transform="translate(56.64543 272.305007) scale(0.1 -0.1)">
     <defs>
      <path id="DejaVuSans-79" d="M 2059 -325 
Q 1816 -950 1584 -1140 
Q 1353 -1331 966 -1331 
L 506 -1331 
L 506 -850 
L 844 -850 
Q 1081 -850 1212 -737 
Q 1344 -625 1503 -206 
L 1606 56 
L 191 3500 
L 800 3500 
L 1894 763 
L 2988 3500 
L 3597 3500 
L 2059 -325 
z
" transform="scale(0.015625)"/>
      <path id="DejaVuSans-3a" d="M 750 794 
L 1409 794 
L 1409 0 
L 750 0 
L 750 794 
z
M 750 3309 
L 1409 3309 
L 1409 2516 
L 750 2516 
L 750 3309 
z
" transform="scale(0.015625)"/>
     </defs>
     <use xlink:href="#DejaVuSans-61"/>
     <use xlink:href="#DejaVuSans-66" x="61.279297"/>
     <use xlink:href="#DejaVuSans-66" x="96.484375"/>
     <use xlink:href="#DejaVuSans-69" x="131.689453"/>
     <use xlink:href="#DejaVuSans-6e" x="159.472656"/>
     <use xlink:href="#DejaVuSans-69" x="222.851562"/>
     <use xlink:href="#DejaVuSans-74" x="250.634766"/>
     <use xlink:href="#DejaVuSans-79" x="289.84375"/>
     <use xlink:href="#DejaVuSans-3a" x="341.773438"/>
    </g>
    <!-- 40% poleward -->
    <g style="fill: #95a5a6" transform="translate(56.64543 283.50282) scale(0.1 -0.1)">
     <defs>
      <path id="DejaVuSans-34" d="M 2419 4116 
L 825 1625 
L 2419 1625 
L 2419 4116 
z
M 2253 4666 
L 3047 4666 
L 3047 1625 
L 3713 1625 
L 3713 1100 
L 3047 1100 
L 3047 0 
L 2419 0 
L 2419 1100 
L 313 1100 
L 313 1709 
L 2253 4666 
z
" transform="scale(0.015625)"/>
      <path id="DejaVuSans-30" d="M 2034 4250 
Q 1547 4250 1301 3770 
Q 1056 3291 1056 2328 
Q 1056 1369 1301 889 
Q 1547 409 2034 409 
Q 2525 409 2770 889 
Q 3016 1369 3016 2328 
Q 3016 3291 2770 3770 
Q 2525 4250 2034 4250 
z
M 2034 4750 
Q 2819 4750 3233 4129 
Q 3647 3509 3647 2328 
Q 3647 1150 3233 529 
Q 2819 -91 2034 -91 
Q 1250 -91 836 529 
Q 422 1150 422 2328 
Q 422 3509 836 4129 
Q 1250 4750 2034 4750 
z
" transform="scale(0.015625)"/>
      <path id="DejaVuSans-25" d="M 4653 2053 
Q 4381 2053 4226 1822 
Q 4072 1591 4072 1178 
Q 4072 772 4226 539 
Q 4381 306 4653 306 
Q 4919 306 5073 539 
Q 5228 772 5228 1178 
Q 5228 1588 5073 1820 
Q 4919 2053 4653 2053 
z
M 4653 2450 
Q 5147 2450 5437 2106 
Q 5728 1763 5728 1178 
Q 5728 594 5436 251 
Q 5144 -91 4653 -91 
Q 4153 -91 3862 251 
Q 3572 594 3572 1178 
Q 3572 1766 3864 2108 
Q 4156 2450 4653 2450 
z
M 1428 4353 
Q 1159 4353 1004 4120 
Q 850 3888 850 3481 
Q 850 3069 1003 2837 
Q 1156 2606 1428 2606 
Q 1700 2606 1854 2837 
Q 2009 3069 2009 3481 
Q 2009 3884 1853 4118 
Q 1697 4353 1428 4353 
z
M 4250 4750 
L 4750 4750 
L 1831 -91 
L 1331 -91 
L 4250 4750 
z
M 1428 4750 
Q 1922 4750 2215 4408 
Q 2509 4066 2509 3481 
Q 2509 2891 2217 2550 
Q 1925 2209 1428 2209 
Q 931 2209 642 2551 
Q 353 2894 353 3481 
Q 353 4063 643 4406 
Q 934 4750 1428 4750 
z
" transform="scale(0.015625)"/>
      <path id="DejaVuSans-70" d="M 1159 525 
L 1159 -1331 
L 581 -1331 
L 581 3500 
L 1159 3500 
L 1159 2969 
Q 1341 3281 1617 3432 
Q 1894 3584 2278 3584 
Q 2916 3584 3314 3078 
Q 3713 2572 3713 1747 
Q 3713 922 3314 415 
Q 2916 -91 2278 -91 
Q 1894 -91 1617 61 
Q 1341 213 1159 525 
z
M 3116 1747 
Q 3116 2381 2855 2742 
Q 2594 3103 2138 3103 
Q 1681 3103 1420 2742 
Q 1159 2381 1159 1747 
Q 1159 1113 1420 752 
Q 1681 391 2138 391 
Q 2594 391 2855 752 
Q 3116 1113 3116 1747 
z
" transform="scale(0.015625)"/>
      <path id="DejaVuSans-6f" d="M 1959 3097 
Q 1497 3097 1228 2736 
Q 959 2375 959 1747 
Q 959 1119 1226 758 
Q 1494 397 1959 397 
Q 2419 397 2687 759 
Q 2956 1122 2956 1747 
Q 2956 2369 2687 2733 
Q 2419 3097 1959 3097 
z
M 1959 3584 
Q 2709 3584 3137 3096 
Q 3566 2609 3566 1747 
Q 3566 888 3137 398 
Q 2709 -91 1959 -91 
Q 1206 -91 779 398 
Q 353 888 353 1747 
Q 353 2609 779 3096 
Q 1206 3584 1959 3584 
z
" transform="scale(0.015625)"/>
      <path id="DejaVuSans-77" d="M 269 3500 
L 844 3500 
L 1563 769 
L 2278 3500 
L 2956 3500 
L 3675 769 
L 4391 3500 
L 4966 3500 
L 4050 0 
L 3372 0 
L 2619 2869 
L 1863 0 
L 1184 0 
L 269 3500 
z
" transform="scale(0.015625)"/>
      <path id="DejaVuSans-64" d="M 2906 2969 
L 2906 4863 
L 3481 4863 
L 3481 0 
L 2906 0 
L 2906 525 
Q 2725 213 2448 61 
Q 2172 -91 1784 -91 
Q 1150 -91 751 415 
Q 353 922 353 1747 
Q 353 2572 751 3078 
Q 1150 3584 1784 3584 
Q 2172 3584 2448 3432 
Q 2725 3281 2906 2969 
z
M 947 1747 
Q 947 1113 1208 752 
Q 1469 391 1925 391 
Q 2381 391 2643 752 
Q 2906 1113 2906 1747 
Q 2906 2381 2643 2742 
Q 2381 3103 1925 3103 
Q 1469 3103 1208 2742 
Q 947 2381 947 1747 
z
" transform="scale(0.015625)"/>
     </defs>
     <use xlink:href="#DejaVuSans-34"/>
     <use xlink:href="#DejaVuSans-30" x="63.623047"/>
     <use xlink:href="#DejaVuSans-25" x="127.246094"/>
     <use xlink:href="#DejaVuSans-20" x="222.265625"/>
     <use xlink:href="#DejaVuSans-70" x="254.052734"/>
     <use xlink:href="#DejaVuSans-6f" x="317.529297"/>
     <use xlink:href="#DejaVuSans-6c" x="378.710938"/>
     <use xlink:href="#DejaVuSans-65" x="406.494141"/>
     <use xlink:href="#DejaVuSans-77" x="468.017578"/>
     <use xlink:href="#DejaVuSans-61" x="549.804688"/>
     <use xlink:href="#DejaVuSans-72" x="611.083984"/>
     <use xlink:href="#DejaVuSans-64" x="650.447266"/>
    </g>
    <!-- 82% eastward -->
    <g style="fill: #95a5a6" transform="translate(56.64543 294.700632) scale(0.1 -0.1)">
     <defs>
      <path id="DejaVuSans-38" d="M 2034 2216 
Q 1584 2216 1326 1975 
Q 1069 1734 1069 1313 
Q 1069 891 1326 650 
Q 1584 409 2034 409 
Q 2484 409 2743 651 
Q 3003 894 3003 1313 
Q 3003 1734 2745 1975 
Q 2488 2216 2034 2216 
z
M 1403 2484 
Q 997 2584 770 2862 
Q 544 3141 544 3541 
Q 544 4100 942 4425 
Q 1341 4750 2034 4750 
Q 2731 4750 3128 4425 
Q 3525 4100 3525 3541 
Q 3525 3141 3298 2862 
Q 3072 2584 2669 2484 
Q 3125 2378 3379 2068 
Q 3634 1759 3634 1313 
Q 3634 634 3220 271 
Q 2806 -91 2034 -91 
Q 1263 -91 848 271 
Q 434 634 434 1313 
Q 434 1759 690 2068 
Q 947 2378 1403 2484 
z
M 1172 3481 
Q 1172 3119 1398 2916 
Q 1625 2713 2034 2713 
Q 2441 2713 2670 2916 
Q 2900 3119 2900 3481 
Q 2900 3844 2670 4047 
Q 2441 4250 2034 4250 
Q 1625 4250 1398 4047 
Q 1172 3844 1172 3481 
z
" transform="scale(0.015625)"/>
     </defs>
     <use xlink:href="#DejaVuSans-38"/>
     <use xlink:href="#DejaVuSans-32" x="63.623047"/>
     <use xlink:href="#DejaVuSans-25" x="127.246094"/>
     <use xlink:href="#DejaVuSans-20" x="222.265625"/>
     <use xlink:href="#DejaVuSans-65" x="254.052734"/>
     <use xlink:href="#DejaVuSans-61" x="315.576172"/>
     <use xlink:href="#DejaVuSans-73" x="376.855469"/>
     <use xlink:href="#DejaVuSans-74" x="428.955078"/>
     <use xlink:href="#DejaVuSans-77" x="468.164062"/>
     <use xlink:href="#DejaVuSans-61" x="549.951172"/>
     <use xlink:href="#DejaVuSans-72" x="611.230469"/>
     <use xlink:href="#DejaVuSans-64" x="650.59375"/>
    </g>
   </g>
   <g id="text_8">
    <!-- elevation: -->
    <g style="fill: #95a5a6" transform="translate(254.747382 272.305007) scale(0.1 -0.1)">
     <use xlink:href="#DejaVuSans-65"/>
     <use xlink:href="#DejaVuSans-6c" x="61.523438"/>
     <use xlink:href="#DejaVuSans-65" x="89.306641"/>
     <use xlink:href="#DejaVuSans-76" x="150.830078"/>
     <use xlink:href="#DejaVuSans-61" x="210.009766"/>
     <use xlink:href="#DejaVuSans-74" x="271.289062"/>
     <use xlink:href="#DejaVuSans-69" x="310.498047"/>
     <use xlink:href="#DejaVuSans-6f" x="338.28125"/>
     <use xlink:href="#DejaVuSans-6e" x="399.462891"/>
     <use xlink:href="#DejaVuSans-3a" x="462.841797"/>
    </g>
    <!-- 104 m base -->
    <g style="fill: #95a5a6" transform="translate(246.559882 283.50282) scale(0.1 -0.1)">
     <defs>
      <path id="DejaVuSans-31" d="M 794 531 
L 1825 531 
L 1825 4091 
L 703 3866 
L 703 4441 
L 1819 4666 
L 2450 4666 
L 2450 531 
L 3481 531 
L 3481 0 
L 794 0 
L 794 531 
z
" transform="scale(0.015625)"/>
     </defs>
     <use xlink:href="#DejaVuSans-31"/>
     <use xlink:href="#DejaVuSans-30" x="63.623047"/>
     <use xlink:href="#DejaVuSans-34" x="127.246094"/>
     <use xlink:href="#DejaVuSans-202f" x="190.869141"/>
     <use xlink:href="#DejaVuSans-6d" x="210.839844"/>
     <use xlink:href="#DejaVuSans-20" x="308.251953"/>
     <use xlink:href="#DejaVuSans-62" x="340.039062"/>
     <use xlink:href="#DejaVuSans-61" x="403.515625"/>
     <use xlink:href="#DejaVuSans-73" x="464.794922"/>
     <use xlink:href="#DejaVuSans-65" x="516.894531"/>
    </g>
    <!-- 303 m peak -->
    <g style="fill: #95a5a6" transform="translate(245.978632 294.700632) scale(0.1 -0.1)">
     <defs>
      <path id="DejaVuSans-33" d="M 2597 2516 
Q 3050 2419 3304 2112 
Q 3559 1806 3559 1356 
Q 3559 666 3084 287 
Q 2609 -91 1734 -91 
Q 1441 -91 1130 -33 
Q 819 25 488 141 
L 488 750 
Q 750 597 1062 519 
Q 1375 441 1716 441 
Q 2309 441 2620 675 
Q 2931 909 2931 1356 
Q 2931 1769 2642 2001 
Q 2353 2234 1838 2234 
L 1294 2234 
L 1294 2753 
L 1863 2753 
Q 2328 2753 2575 2939 
Q 2822 3125 2822 3475 
Q 2822 3834 2567 4026 
Q 2313 4219 1838 4219 
Q 1578 4219 1281 4162 
Q 984 4106 628 3988 
L 628 4550 
Q 988 4650 1302 4700 
Q 1616 4750 1894 4750 
Q 2613 4750 3031 4423 
Q 3450 4097 3450 3541 
Q 3450 3153 3228 2886 
Q 3006 2619 2597 2516 
z
" transform="scale(0.015625)"/>
     </defs>
     <use xlink:href="#DejaVuSans-33"/>
     <use xlink:href="#DejaVuSans-30" x="63.623047"/>
     <use xlink:href="#DejaVuSans-33" x="127.246094"/>
     <use xlink:href="#DejaVuSans-202f" x="190.869141"/>
     <use xlink:href="#DejaVuSans-6d" x="210.839844"/>
     <use xlink:href="#DejaVuSans-20" x="308.251953"/>
     <use xlink:href="#DejaVuSans-70" x="340.039062"/>
     <use xlink:href="#DejaVuSans-65" x="403.515625"/>
     <use xlink:href="#DejaVuSans-61" x="465.039062"/>
     <use xlink:href="#DejaVuSans-6b" x="526.318359"/>
    </g>
   </g>
   <g id="text_9">
    <!-- スノークルーズオーンズ, Snowcruse ONZE, -->
    <g transform="translate(7.2 20.0175) scale(0.16 -0.16)">
     <defs>
      <path id="NotoSansCJKjp-Bold-30b9" d="M 5338 4339 
L 4813 4730 
C 4685 4685 4429 4646 4154 4646 
C 3866 4646 2227 4646 1894 4646 
C 1702 4646 1312 4666 1139 4691 
L 1139 3782 
C 1274 3789 1626 3827 1894 3827 
C 2170 3827 3802 3827 4064 3827 
C 3923 3373 3533 2739 3110 2259 
C 2509 1587 1517 806 486 422 
L 1146 -269 
C 2022 147 2874 813 3552 1523 
C 4154 947 4749 294 5165 -282 
L 5894 352 
C 5517 813 4742 1632 4109 2182 
C 4538 2765 4896 3443 5114 3942 
C 5171 4070 5286 4269 5338 4339 
z
" transform="scale(0.015625)"/>
      <path id="NotoSansCJKjp-Bold-30ce" d="M 5338 4685 
L 4339 4941 
C 4166 4026 3744 2918 3130 2176 
C 2560 1485 1696 851 698 512 
L 1427 -237 
C 2413 160 3309 941 3853 1619 
C 4371 2266 4787 3232 5056 3968 
C 5133 4173 5222 4454 5338 4685 
z
" transform="scale(0.015625)"/>
      <path id="NotoSansCJKjp-Bold-30fc" d="M 589 2963 
L 589 1958 
C 826 1971 1254 1990 1619 1990 
C 2368 1990 4480 1990 5056 1990 
C 5325 1990 5651 1965 5805 1958 
L 5805 2963 
C 5638 2950 5357 2925 5056 2925 
C 4480 2925 2374 2925 1619 2925 
C 1286 2925 819 2944 589 2963 
z
" transform="scale(0.015625)"/>
      <path id="NotoSansCJKjp-Bold-30af" d="M 3667 4992 
L 2733 5299 
C 2675 5082 2541 4787 2445 4627 
C 2125 4077 1568 3251 448 2566 
L 1165 2035 
C 1792 2464 2349 3027 2778 3584 
L 4576 3584 
C 4474 3104 4102 2336 3667 1837 
C 3110 1203 2394 646 1088 256 
L 1843 -422 
C 3046 51 3821 640 4429 1382 
C 5005 2099 5370 2950 5542 3520 
C 5594 3680 5683 3859 5754 3981 
L 5101 4384 
C 4954 4339 4742 4307 4544 4307 
L 3258 4307 
L 3277 4339 
C 3354 4480 3520 4768 3667 4992 
z
" transform="scale(0.015625)"/>
      <path id="NotoSansCJKjp-Bold-30eb" d="M 3219 141 
L 3750 -301 
C 3814 -250 3891 -186 4032 -109 
C 4749 256 5670 947 6202 1638 
L 5709 2342 
C 5280 1722 4646 1216 4128 992 
C 4128 1382 4128 3827 4128 4339 
C 4128 4627 4166 4877 4173 4896 
L 3219 4896 
C 3226 4877 3270 4634 3270 4346 
C 3270 3827 3270 954 3270 614 
C 3270 442 3245 262 3219 141 
z
M 256 237 
L 1037 -282 
C 1581 205 1984 832 2176 1555 
C 2349 2202 2368 3546 2368 4307 
C 2368 4570 2406 4858 2413 4890 
L 1472 4890 
C 1510 4730 1530 4557 1530 4301 
C 1530 3526 1523 2317 1344 1766 
C 1165 1222 819 634 256 237 
z
" transform="scale(0.015625)"/>
      <path id="NotoSansCJKjp-Bold-30ba" d="M 5722 5549 
L 5216 5338 
C 5389 5101 5600 4723 5734 4461 
L 6240 4678 
C 6125 4902 5894 5306 5722 5549 
z
M 5210 4186 
L 5062 4294 
L 5427 4448 
C 5318 4672 5082 5082 4915 5325 
L 4410 5114 
C 4525 4941 4653 4717 4762 4512 
L 4685 4570 
C 4557 4525 4301 4493 4026 4493 
C 3738 4493 2099 4493 1766 4493 
C 1574 4493 1184 4512 1011 4538 
L 1011 3629 
C 1146 3635 1498 3674 1766 3674 
C 2042 3674 3674 3674 3936 3674 
C 3795 3219 3405 2586 2982 2106 
C 2381 1434 1389 653 358 269 
L 1018 -422 
C 1894 -13 2746 659 3424 1370 
C 4026 794 4621 134 5037 -442 
L 5766 198 
C 5389 659 4614 1478 3981 2029 
C 4410 2605 4768 3283 4986 3782 
C 5043 3917 5158 4109 5210 4186 
z
" transform="scale(0.015625)"/>
      <path id="NotoSansCJKjp-Bold-30aa" d="M 384 1018 
L 973 352 
C 1984 890 3021 1779 3584 2522 
L 3597 787 
C 3597 602 3533 518 3373 518 
C 3155 518 2810 544 2522 595 
L 2592 -237 
C 2957 -262 3315 -275 3706 -275 
C 4192 -275 4429 -38 4422 371 
L 4365 3238 
L 5190 3238 
C 5363 3238 5606 3226 5811 3219 
L 5811 4070 
C 5658 4045 5357 4019 5146 4019 
L 4346 4019 
L 4339 4480 
C 4339 4678 4352 4928 4378 5126 
L 3469 5126 
C 3494 4960 3514 4755 3533 4480 
L 3552 4019 
L 1434 4019 
C 1216 4019 909 4038 723 4064 
L 723 3213 
C 947 3226 1222 3238 1453 3238 
L 3200 3238 
C 2688 2509 1626 1606 384 1018 
z
" transform="scale(0.015625)"/>
      <path id="NotoSansCJKjp-Bold-30f3" d="M 1542 4864 
L 941 4224 
C 1408 3898 2208 3200 2541 2842 
L 3194 3507 
C 2822 3898 1990 4563 1542 4864 
z
M 742 602 
L 1280 -243 
C 2182 -90 3008 269 3654 659 
C 4685 1280 5536 2163 6022 3027 
L 5523 3930 
C 5120 3066 4288 2086 3194 1440 
C 2573 1069 1741 742 742 602 
z
" transform="scale(0.015625)"/>
      <path id="DejaVuSans-Bold-2c" d="M 653 1209 
L 1778 1209 
L 1778 256 
L 1006 -909 
L 341 -909 
L 653 256 
L 653 1209 
z
" transform="scale(0.015625)"/>
      <path id="DejaVuSans-Bold-20" transform="scale(0.015625)"/>
      <path id="DejaVuSans-Bold-6e" d="M 4056 2131 
L 4056 0 
L 2931 0 
L 2931 347 
L 2931 1631 
Q 2931 2084 2911 2256 
Q 2891 2428 2841 2509 
Q 2775 2619 2662 2680 
Q 2550 2741 2406 2741 
Q 2056 2741 1856 2470 
Q 1656 2200 1656 1722 
L 1656 0 
L 538 0 
L 538 3500 
L 1656 3500 
L 1656 2988 
Q 1909 3294 2193 3439 
Q 2478 3584 2822 3584 
Q 3428 3584 3742 3212 
Q 4056 2841 4056 2131 
z
" transform="scale(0.015625)"/>
      <path id="DejaVuSans-Bold-6f" d="M 2203 2784 
Q 1831 2784 1636 2517 
Q 1441 2250 1441 1747 
Q 1441 1244 1636 976 
Q 1831 709 2203 709 
Q 2569 709 2762 976 
Q 2956 1244 2956 1747 
Q 2956 2250 2762 2517 
Q 2569 2784 2203 2784 
z
M 2203 3584 
Q 3106 3584 3614 3096 
Q 4122 2609 4122 1747 
Q 4122 884 3614 396 
Q 3106 -91 2203 -91 
Q 1297 -91 786 396 
Q 275 884 275 1747 
Q 275 2609 786 3096 
Q 1297 3584 2203 3584 
z
" transform="scale(0.015625)"/>
      <path id="DejaVuSans-Bold-77" d="M 225 3500 
L 1313 3500 
L 1900 1088 
L 2491 3500 
L 3425 3500 
L 4013 1113 
L 4603 3500 
L 5691 3500 
L 4769 0 
L 3547 0 
L 2956 2406 
L 2369 0 
L 1147 0 
L 225 3500 
z
" transform="scale(0.015625)"/>
      <path id="DejaVuSans-Bold-63" d="M 3366 3391 
L 3366 2478 
Q 3138 2634 2908 2709 
Q 2678 2784 2431 2784 
Q 1963 2784 1702 2511 
Q 1441 2238 1441 1747 
Q 1441 1256 1702 982 
Q 1963 709 2431 709 
Q 2694 709 2930 787 
Q 3166 866 3366 1019 
L 3366 103 
Q 3103 6 2833 -42 
Q 2563 -91 2291 -91 
Q 1344 -91 809 395 
Q 275 881 275 1747 
Q 275 2613 809 3098 
Q 1344 3584 2291 3584 
Q 2566 3584 2833 3536 
Q 3100 3488 3366 3391 
z
" transform="scale(0.015625)"/>
      <path id="DejaVuSans-Bold-72" d="M 3138 2547 
Q 2991 2616 2845 2648 
Q 2700 2681 2553 2681 
Q 2122 2681 1889 2404 
Q 1656 2128 1656 1613 
L 1656 0 
L 538 0 
L 538 3500 
L 1656 3500 
L 1656 2925 
Q 1872 3269 2151 3426 
Q 2431 3584 2822 3584 
Q 2878 3584 2943 3579 
Q 3009 3575 3134 3559 
L 3138 2547 
z
" transform="scale(0.015625)"/>
      <path id="DejaVuSans-Bold-75" d="M 500 1363 
L 500 3500 
L 1625 3500 
L 1625 3150 
Q 1625 2866 1622 2436 
Q 1619 2006 1619 1863 
Q 1619 1441 1641 1255 
Q 1663 1069 1716 984 
Q 1784 875 1895 815 
Q 2006 756 2150 756 
Q 2500 756 2700 1025 
Q 2900 1294 2900 1772 
L 2900 3500 
L 4019 3500 
L 4019 0 
L 2900 0 
L 2900 506 
Q 2647 200 2364 54 
Q 2081 -91 1741 -91 
Q 1134 -91 817 281 
Q 500 653 500 1363 
z
" transform="scale(0.015625)"/>
      <path id="DejaVuSans-Bold-73" d="M 3272 3391 
L 3272 2541 
Q 2913 2691 2578 2766 
Q 2244 2841 1947 2841 
Q 1628 2841 1473 2761 
Q 1319 2681 1319 2516 
Q 1319 2381 1436 2309 
Q 1553 2238 1856 2203 
L 2053 2175 
Q 2913 2066 3209 1816 
Q 3506 1566 3506 1031 
Q 3506 472 3093 190 
Q 2681 -91 1863 -91 
Q 1516 -91 1145 -36 
Q 775 19 384 128 
L 384 978 
Q 719 816 1070 734 
Q 1422 653 1784 653 
Q 2113 653 2278 743 
Q 2444 834 2444 1013 
Q 2444 1163 2330 1236 
Q 2216 1309 1875 1350 
L 1678 1375 
Q 931 1469 631 1722 
Q 331 1975 331 2491 
Q 331 3047 712 3315 
Q 1094 3584 1881 3584 
Q 2191 3584 2531 3537 
Q 2872 3491 3272 3391 
z
" transform="scale(0.015625)"/>
      <path id="DejaVuSans-Bold-65" d="M 4031 1759 
L 4031 1441 
L 1416 1441 
Q 1456 1047 1700 850 
Q 1944 653 2381 653 
Q 2734 653 3104 758 
Q 3475 863 3866 1075 
L 3866 213 
Q 3469 63 3072 -14 
Q 2675 -91 2278 -91 
Q 1328 -91 801 392 
Q 275 875 275 1747 
Q 275 2603 792 3093 
Q 1309 3584 2216 3584 
Q 3041 3584 3536 3087 
Q 4031 2591 4031 1759 
z
M 2881 2131 
Q 2881 2450 2695 2645 
Q 2509 2841 2209 2841 
Q 1884 2841 1681 2658 
Q 1478 2475 1428 2131 
L 2881 2131 
z
" transform="scale(0.015625)"/>
      <path id="DejaVuSans-Bold-4f" d="M 2719 3878 
Q 2169 3878 1866 3472 
Q 1563 3066 1563 2328 
Q 1563 1594 1866 1187 
Q 2169 781 2719 781 
Q 3272 781 3575 1187 
Q 3878 1594 3878 2328 
Q 3878 3066 3575 3472 
Q 3272 3878 2719 3878 
z
M 2719 4750 
Q 3844 4750 4481 4106 
Q 5119 3463 5119 2328 
Q 5119 1197 4481 553 
Q 3844 -91 2719 -91 
Q 1597 -91 958 553 
Q 319 1197 319 2328 
Q 319 3463 958 4106 
Q 1597 4750 2719 4750 
z
" transform="scale(0.015625)"/>
      <path id="DejaVuSans-Bold-5a" d="M 359 4666 
L 4281 4666 
L 4281 3938 
L 1778 909 
L 4353 909 
L 4353 0 
L 288 0 
L 288 728 
L 2791 3756 
L 359 3756 
L 359 4666 
z
" transform="scale(0.015625)"/>
     </defs>
     <use xlink:href="#NotoSansCJKjp-Bold-30b9"/>
     <use xlink:href="#NotoSansCJKjp-Bold-30ce" x="99.999985"/>
     <use xlink:href="#NotoSansCJKjp-Bold-30fc" x="199.999969"/>
     <use xlink:href="#NotoSansCJKjp-Bold-30af" x="299.999954"/>
     <use xlink:href="#NotoSansCJKjp-Bold-30eb" x="399.999939"/>
     <use xlink:href="#NotoSansCJKjp-Bold-30fc" x="499.999924"/>
     <use xlink:href="#NotoSansCJKjp-Bold-30ba" x="599.999908"/>
     <use xlink:href="#NotoSansCJKjp-Bold-30aa" x="699.999893"/>
     <use xlink:href="#NotoSansCJKjp-Bold-30fc" x="799.999878"/>
     <use xlink:href="#NotoSansCJKjp-Bold-30f3" x="899.999863"/>
     <use xlink:href="#NotoSansCJKjp-Bold-30ba" x="999.999847"/>
     <use xlink:href="#DejaVuSans-Bold-2c" x="1099.999832"/>
     <use xlink:href="#DejaVuSans-Bold-20" x="1137.988113"/>
     <use xlink:href="#DejaVuSans-Bold-53" x="1172.802567"/>
     <use xlink:href="#DejaVuSans-Bold-6e" x="1244.824051"/>
     <use xlink:href="#DejaVuSans-Bold-6f" x="1316.015457"/>
     <use xlink:href="#DejaVuSans-Bold-77" x="1384.716629"/>
     <use xlink:href="#DejaVuSans-Bold-63" x="1477.099442"/>
     <use xlink:href="#DejaVuSans-Bold-72" x="1536.376785"/>
     <use xlink:href="#DejaVuSans-Bold-75" x="1585.693192"/>
     <use xlink:href="#DejaVuSans-Bold-73" x="1656.884598"/>
     <use xlink:href="#DejaVuSans-Bold-65" x="1716.406082"/>
     <use xlink:href="#DejaVuSans-Bold-20" x="1784.228348"/>
     <use xlink:href="#DejaVuSans-Bold-4f" x="1819.042801"/>
     <use xlink:href="#DejaVuSans-Bold-4e" x="1904.052567"/>
     <use xlink:href="#DejaVuSans-Bold-5a" x="1987.743973"/>
     <use xlink:href="#DejaVuSans-Bold-45" x="2060.253738"/>
     <use xlink:href="#DejaVuSans-Bold-2c" x="2128.564285"/>
    </g>
    <!-- すのーくるーずおーんず -->
    <g transform="translate(92.52375 37.934) scale(0.16 -0.16)">
     <defs>
      <path id="NotoSansCJKjp-Bold-3059" d="M 3488 2374 
C 3571 1818 3334 1613 3066 1613 
C 2810 1613 2573 1798 2573 2093 
C 2573 2432 2816 2605 3066 2605 
C 3245 2605 3392 2528 3488 2374 
z
M 563 4365 
L 582 3590 
C 1370 3635 2368 3674 3334 3686 
L 3341 3258 
C 3258 3270 3174 3277 3085 3277 
C 2387 3277 1805 2803 1805 2080 
C 1805 1299 2413 902 2906 902 
C 3008 902 3104 915 3194 934 
C 2842 550 2278 339 1632 205 
L 2317 -474 
C 3878 -38 4365 1024 4365 1856 
C 4365 2189 4288 2490 4134 2726 
L 4128 3693 
C 4998 3693 5594 3680 5978 3661 
L 5984 4416 
C 5651 4422 4774 4410 4128 4410 
L 4134 4608 
C 4141 4710 4166 5056 4179 5158 
L 3251 5158 
C 3270 5082 3296 4864 3315 4602 
L 3328 4403 
C 2458 4390 1293 4365 563 4365 
z
" transform="scale(0.015625)"/>
      <path id="NotoSansCJKjp-Bold-306e" d="M 2854 3949 
C 2784 3418 2662 2874 2515 2400 
C 2253 1536 2003 1133 1734 1133 
C 1485 1133 1229 1446 1229 2093 
C 1229 2797 1798 3731 2854 3949 
z
M 3725 3968 
C 4589 3821 5069 3162 5069 2278 
C 5069 1344 4429 755 3610 563 
C 3437 525 3258 486 3014 461 
L 3494 -301 
C 5107 -51 5933 902 5933 2253 
C 5933 3648 4934 4749 3347 4749 
C 1690 4749 410 3488 410 2010 
C 410 928 998 147 1709 147 
C 2406 147 2957 941 3341 2234 
C 3526 2835 3635 3424 3725 3968 
z
" transform="scale(0.015625)"/>
      <path id="NotoSansCJKjp-Bold-304f" d="M 4698 4614 
L 3949 5274 
C 3846 5120 3642 4915 3456 4730 
C 3027 4314 2150 3603 1645 3194 
C 1005 2656 954 2317 1594 1773 
C 2176 1274 3117 474 3507 70 
C 3699 -122 3885 -320 4064 -525 
L 4813 160 
C 4160 794 2944 1754 2464 2157 
C 2118 2458 2112 2528 2451 2822 
C 2880 3187 3725 3840 4141 4173 
C 4288 4294 4499 4461 4698 4614 
z
" transform="scale(0.015625)"/>
      <path id="NotoSansCJKjp-Bold-308b" d="M 3514 378 
C 3398 365 3277 358 3142 358 
C 2752 358 2496 518 2496 755 
C 2496 915 2650 1062 2893 1062 
C 3238 1062 3475 794 3514 378 
z
M 1408 4877 
L 1434 4045 
C 1581 4064 1786 4083 1958 4096 
C 2298 4115 3181 4154 3507 4160 
C 3194 3885 2528 3347 2170 3053 
C 1792 2739 1018 2086 563 1722 
L 1146 1120 
C 1830 1901 2470 2419 3450 2419 
C 4205 2419 4781 2029 4781 1453 
C 4781 1062 4602 768 4250 582 
C 4160 1190 3680 1677 2886 1677 
C 2208 1677 1741 1197 1741 678 
C 1741 38 2413 -371 3302 -371 
C 4851 -371 5619 429 5619 1440 
C 5619 2374 4794 3053 3706 3053 
C 3501 3053 3309 3034 3098 2982 
C 3501 3302 4173 3866 4518 4109 
C 4666 4218 4819 4307 4966 4403 
L 4550 4973 
C 4474 4947 4326 4928 4064 4902 
C 3699 4870 2330 4845 1990 4845 
C 1811 4845 1587 4851 1408 4877 
z
" transform="scale(0.015625)"/>
      <path id="NotoSansCJKjp-Bold-305a" d="M 5677 5440 
L 5146 5222 
C 5312 4992 5466 4723 5594 4467 
L 6131 4691 
C 6010 4928 5837 5210 5677 5440 
z
M 3296 2278 
C 3379 1722 3149 1517 2880 1517 
C 2624 1517 2387 1709 2387 2003 
C 2387 2342 2637 2509 2874 2509 
C 3053 2509 3206 2432 3296 2278 
z
M 4819 5261 
L 4294 5043 
C 4448 4813 4582 4563 4710 4320 
L 3942 4320 
L 3949 4518 
C 3955 4621 3974 4966 3994 5069 
L 3072 5069 
C 3085 4986 3110 4768 3130 4512 
L 3136 4314 
C 2272 4301 1107 4275 378 4269 
L 397 3494 
C 1184 3539 2182 3584 3149 3597 
L 3155 3168 
C 3072 3181 2989 3187 2899 3187 
C 2202 3187 1613 2707 1613 1984 
C 1613 1210 2227 813 2720 813 
C 2829 813 2925 826 3014 845 
C 2662 461 2099 256 1446 115 
L 2125 -570 
C 3693 -128 4186 922 4186 1766 
C 4186 2106 4102 2413 3942 2656 
L 3936 3603 
C 4800 3603 5408 3584 5792 3565 
L 5798 4326 
L 4826 4320 
L 5267 4506 
C 5152 4730 4979 5030 4819 5261 
z
" transform="scale(0.015625)"/>
      <path id="NotoSansCJKjp-Bold-304a" d="M 4614 4506 
L 4262 3885 
C 4659 3693 5498 3213 5805 2950 
L 6189 3603 
C 5850 3846 5107 4269 4614 4506 
z
M 1958 1613 
L 1978 819 
C 1978 602 1888 550 1773 550 
C 1606 550 1306 723 1306 922 
C 1306 1146 1568 1408 1958 1613 
z
M 691 4147 
L 704 3379 
C 922 3354 1171 3347 1600 3347 
L 1939 3360 
L 1939 2822 
L 1946 2368 
C 1158 2029 518 1446 518 890 
C 518 211 1395 -326 2016 -326 
C 2438 -326 2720 -115 2720 678 
L 2694 1901 
C 3085 2016 3501 2080 3898 2080 
C 4454 2080 4838 1824 4838 1389 
C 4838 922 4429 666 3910 570 
C 3686 531 3411 525 3123 525 
L 3418 -301 
C 3674 -282 3962 -262 4256 -198 
C 5274 58 5670 627 5670 1382 
C 5670 2266 4896 2778 3910 2778 
C 3558 2778 3117 2720 2682 2611 
L 2682 2848 
L 2688 3424 
C 3104 3475 3546 3539 3910 3622 
L 3891 4416 
C 3558 4320 3136 4237 2714 4186 
L 2733 4640 
C 2746 4806 2771 5082 2790 5197 
L 1907 5197 
C 1926 5082 1952 4768 1952 4634 
L 1946 4115 
L 1574 4102 
C 1344 4102 1062 4109 691 4147 
z
" transform="scale(0.015625)"/>
      <path id="NotoSansCJKjp-Bold-3093" d="M 3693 4755 
L 2784 5120 
C 2675 4851 2554 4640 2470 4467 
C 2131 3859 819 1248 346 -32 
L 1248 -339 
C 1344 0 1568 717 1734 1088 
C 1965 1606 2323 2054 2758 2054 
C 2989 2054 3117 1920 3136 1696 
C 3155 1434 3149 909 3174 570 
C 3200 102 3533 -320 4243 -320 
C 5222 -320 5818 410 6150 1504 
L 5459 2067 
C 5274 1274 4934 557 4378 557 
C 4166 557 3987 653 3962 902 
C 3930 1171 3949 1683 3936 1971 
C 3910 2502 3622 2803 3142 2803 
C 2899 2803 2643 2746 2406 2611 
C 2726 3174 3174 3994 3488 4454 
C 3558 4557 3629 4666 3693 4755 
z
" transform="scale(0.015625)"/>
     </defs>
     <use xlink:href="#NotoSansCJKjp-Bold-3059"/>
     <use xlink:href="#NotoSansCJKjp-Bold-306e" x="99.999985"/>
     <use xlink:href="#NotoSansCJKjp-Bold-30fc" x="199.999969"/>
     <use xlink:href="#NotoSansCJKjp-Bold-304f" x="299.999954"/>
     <use xlink:href="#NotoSansCJKjp-Bold-308b" x="399.999939"/>
     <use xlink:href="#NotoSansCJKjp-Bold-30fc" x="499.999924"/>
     <use xlink:href="#NotoSansCJKjp-Bold-305a" x="599.999908"/>
     <use xlink:href="#NotoSansCJKjp-Bold-304a" x="699.999893"/>
     <use xlink:href="#NotoSansCJKjp-Bold-30fc" x="799.999878"/>
     <use xlink:href="#NotoSansCJKjp-Bold-3093" x="899.999863"/>
     <use xlink:href="#NotoSansCJKjp-Bold-305a" x="999.999847"/>
    </g>
   </g>
  </g>
 </g>
 <defs>
  <clipPath id="pc0f0b3daa2">
   <path d="M 291.40375 172.902 
C 291.40375 158.341372 288.535624 143.922327 282.963513 130.470061 
C 277.391401 117.017795 269.223669 104.793919 258.92775 94.498 
C 248.631831 84.202081 236.407955 76.034349 222.955689 70.462237 
C 209.503423 64.890126 195.084378 62.022 180.52375 62.022 
C 165.963122 62.022 151.544077 64.890126 138.091811 70.462237 
C 124.639545 76.034349 112.415669 84.202081 102.11975 94.498 
C 91.823831 104.793919 83.656099 117.017795 78.083987 130.470061 
C 72.511876 143.922327 69.64375 158.341372 69.64375 172.902 
C 69.64375 187.462628 72.511876 201.881673 78.083987 215.333939 
C 83.656099 228.786205 91.823831 241.010081 102.11975 251.306 
C 112.415669 261.601919 124.639545 269.769651 138.091811 275.341763 
C 151.544077 280.913874 165.963122 283.782 180.52375 283.782 
C 195.084378 283.782 209.503423 280.913874 222.955689 275.341763 
C 236.407955 269.769651 248.631831 261.601919 258.92775 251.306 
C 269.223669 241.010081 277.391401 228.786205 282.963513 215.333939 
C 288.535624 201.881673 291.40375 187.462628 291.40375 172.902 
M 180.52375 172.902 
C 180.52375 172.902 180.52375 172.902 180.52375 172.902 
C 180.52375 172.902 180.52375 172.902 180.52375 172.902 
C 180.52375 172.902 180.52375 172.902 180.52375 172.902 
C 180.52375 172.902 180.52375 172.902 180.52375 172.902 
C 180.52375 172.902 180.52375 172.902 180.52375 172.902 
C 180.52375 172.902 180.52375 172.902 180.52375 172.902 
C 180.52375 172.902 180.52375 172.902 180.52375 172.902 
C 180.52375 172.902 180.52375 172.902 180.52375 172.902 
C 180.52375 172.902 180.52375 172.902 180.52375 172.902 
C 180.52375 172.902 180.52375 172.902 180.52375 172.902 
C 180.52375 172.902 180.52375 172.902 180.52375 172.902 
C 180.52375 172.902 180.52375 172.902 180.52375 172.902 
C 180.52375 172.902 180.52375 172.902 180.52375 172.902 
C 180.52375 172.902 180.52375 172.902 180.52375 172.902 
C 180.52375 172.902 180.52375 172.902 180.52375 172.902 
C 180.52375 172.902 180.52375 172.902 180.52375 172.902 
z
"/>
  </clipPath>
 </defs>
</svg>
