<?xml version="1.0" encoding="utf-8" standalone="no"?>
<!DOCTYPE svg PUBLIC "-//W3C//DTD SVG 1.1//EN"
  "http://www.w3.org/Graphics/SVG/1.1/DTD/svg11.dtd">
<svg xmlns:xlink="http://www.w3.org/1999/xlink" width="346.9125pt" height="305.228562pt" viewBox="0 0 346.9125 305.228562" xmlns="http://www.w3.org/2000/svg" version="1.1">
 <title>Ski Rose for 氷ノ山国際スキー場, Hyounosen Kokusai Ski Resort</title>
 <metadata>
  <rdf:RDF xmlns:dc="http://purl.org/dc/elements/1.1/" xmlns:cc="http://creativecommons.org/ns#" xmlns:rdf="http://www.w3.org/1999/02/22-rdf-syntax-ns#">
   <cc:Work>
    <dc:type rdf:resource="http://purl.org/dc/dcmitype/StillImage"/>
    <dc:title>Ski Rose for 氷ノ山国際スキー場, Hyounosen Kokusai Ski Resort</dc:title>
    <dc:date>2024-12-20T01:53:56.977260</dc:date>
    <dc:description>A 32-bin histogram of downhill ski trail orientations generated from &lt;https://openskimap.org/?obj=11951ea8764d54d07cd59caa155e1e93a459b041&gt;.</dc:description>
    <dc:format>image/svg+xml</dc:format>
    <dc:creator>
     <cc:Agent>
      <dc:title>https://github.com/dhimmel/openskistats</dc:title>
     </cc:Agent>
    </dc:creator>
   </cc:Work>
  </rdf:RDF>
 </metadata>
 <defs>
  <style type="text/css">*{stroke-linejoin: round; stroke-linecap: butt}</style>
 </defs>
 <g id="figure_1">
  <g id="patch_1">
   <path d="M 0 305.228562 
L 346.9125 305.228562 
L 346.9125 0 
L 0 0 
z
" style="fill: #ffffff"/>
  </g>
  <g id="axes_1">
   <g id="patch_2">
    <path d="M 284.33625 173.8095 
C 284.33625 159.248872 281.468124 144.829827 275.896013 131.377561 
C 270.323901 117.925295 262.156169 105.701419 251.86025 95.4055 
C 241.564331 85.109581 229.340455 76.941849 215.888189 71.369737 
C 202.435923 65.797626 188.016878 62.9295 173.45625 62.9295 
C 158.895622 62.9295 144.476577 65.797626 131.024311 71.369737 
C 117.572045 76.941849 105.348169 85.109581 95.05225 95.4055 
C 84.756331 105.701419 76.588599 117.925295 71.016487 131.377561 
C 65.444376 144.829827 62.57625 159.248872 62.57625 173.8095 
C 62.57625 188.370128 65.444376 202.789173 71.016487 216.241439 
C 76.588599 229.693705 84.756331 241.917581 95.05225 252.2135 
C 105.348169 262.509419 117.572045 270.677151 131.024311 276.249263 
C 144.476577 281.821374 158.895622 284.6895 173.45625 284.6895 
C 188.016878 284.6895 202.435923 281.821374 215.888189 276.249263 
C 229.340455 270.677151 241.564331 262.509419 251.86025 252.2135 
C 262.156169 241.917581 270.323901 229.693705 275.896013 216.241439 
C 281.468124 202.789173 284.33625 188.370128 284.33625 173.8095 
M 173.45625 173.8095 
C 173.45625 173.8095 173.45625 173.8095 173.45625 173.8095 
C 173.45625 173.8095 173.45625 173.8095 173.45625 173.8095 
C 173.45625 173.8095 173.45625 173.8095 173.45625 173.8095 
C 173.45625 173.8095 173.45625 173.8095 173.45625 173.8095 
C 173.45625 173.8095 173.45625 173.8095 173.45625 173.8095 
C 173.45625 173.8095 173.45625 173.8095 173.45625 173.8095 
C 173.45625 173.8095 173.45625 173.8095 173.45625 173.8095 
C 173.45625 173.8095 173.45625 173.8095 173.45625 173.8095 
C 173.45625 173.8095 173.45625 173.8095 173.45625 173.8095 
C 173.45625 173.8095 173.45625 173.8095 173.45625 173.8095 
C 173.45625 173.8095 173.45625 173.8095 173.45625 173.8095 
C 173.45625 173.8095 173.45625 173.8095 173.45625 173.8095 
C 173.45625 173.8095 173.45625 173.8095 173.45625 173.8095 
C 173.45625 173.8095 173.45625 173.8095 173.45625 173.8095 
C 173.45625 173.8095 173.45625 173.8095 173.45625 173.8095 
C 173.45625 173.8095 173.45625 173.8095 173.45625 173.8095 
z
" style="fill: #ffffff"/>
   </g>
   <g id="matplotlib.axis_1">
    <g id="xtick_1">
     <g id="line2d_1">
      <path d="M 173.45625 173.8095 
L 173.45625 62.9295 
" clip-path="url(#p8a0f959efc)" style="fill: none; stroke: #b0b0b0; stroke-width: 0.8; stroke-linecap: square"/>
     </g>
     <g id="text_1">
      <!-- N -->
      <g transform="translate(169.271875 57.188875) scale(0.1 -0.1)">
       <defs>
        <path id="DejaVuSans-Bold-4e" d="M 588 4666 
L 1931 4666 
L 3628 1466 
L 3628 4666 
L 4769 4666 
L 4769 0 
L 3425 0 
L 1728 3200 
L 1728 0 
L 588 0 
L 588 4666 
z
" transform="scale(0.015625)"/>
       </defs>
       <use xlink:href="#DejaVuSans-Bold-4e"/>
      </g>
     </g>
    </g>
    <g id="xtick_2">
     <g id="line2d_2">
      <path d="M 173.45625 173.8095 
L 251.86025 95.4055 
" clip-path="url(#p8a0f959efc)" style="fill: none; stroke: #b0b0b0; stroke-width: 0.8; stroke-linecap: square"/>
     </g>
    </g>
    <g id="xtick_3">
     <g id="line2d_3">
      <path d="M 173.45625 173.8095 
L 284.33625 173.8095 
" clip-path="url(#p8a0f959efc)" style="fill: none; stroke: #b0b0b0; stroke-width: 0.8; stroke-linecap: square"/>
     </g>
     <g id="text_2">
      <!-- E -->
      <g transform="translate(289.420625 176.568875) scale(0.1 -0.1)">
       <defs>
        <path id="DejaVuSans-Bold-45" d="M 588 4666 
L 3834 4666 
L 3834 3756 
L 1791 3756 
L 1791 2888 
L 3713 2888 
L 3713 1978 
L 1791 1978 
L 1791 909 
L 3903 909 
L 3903 0 
L 588 0 
L 588 4666 
z
" transform="scale(0.015625)"/>
       </defs>
       <use xlink:href="#DejaVuSans-Bold-45"/>
      </g>
     </g>
    </g>
    <g id="xtick_4">
     <g id="line2d_4">
      <path d="M 173.45625 173.8095 
L 251.86025 252.2135 
" clip-path="url(#p8a0f959efc)" style="fill: none; stroke: #b0b0b0; stroke-width: 0.8; stroke-linecap: square"/>
     </g>
    </g>
    <g id="xtick_5">
     <g id="line2d_5">
      <path d="M 173.45625 173.8095 
L 173.45625 284.6895 
" clip-path="url(#p8a0f959efc)" style="fill: none; stroke: #b0b0b0; stroke-width: 0.8; stroke-linecap: square"/>
     </g>
     <g id="text_3">
      <!-- S -->
      <g transform="translate(169.855469 295.948875) scale(0.1 -0.1)">
       <defs>
        <path id="DejaVuSans-Bold-53" d="M 3834 4519 
L 3834 3531 
Q 3450 3703 3084 3790 
Q 2719 3878 2394 3878 
Q 1963 3878 1756 3759 
Q 1550 3641 1550 3391 
Q 1550 3203 1689 3098 
Q 1828 2994 2194 2919 
L 2706 2816 
Q 3484 2659 3812 2340 
Q 4141 2022 4141 1434 
Q 4141 663 3683 286 
Q 3225 -91 2284 -91 
Q 1841 -91 1394 -6 
Q 947 78 500 244 
L 500 1259 
Q 947 1022 1364 901 
Q 1781 781 2169 781 
Q 2563 781 2772 912 
Q 2981 1044 2981 1288 
Q 2981 1506 2839 1625 
Q 2697 1744 2272 1838 
L 1806 1941 
Q 1106 2091 782 2419 
Q 459 2747 459 3303 
Q 459 4000 909 4375 
Q 1359 4750 2203 4750 
Q 2588 4750 2994 4692 
Q 3400 4634 3834 4519 
z
" transform="scale(0.015625)"/>
       </defs>
       <use xlink:href="#DejaVuSans-Bold-53"/>
      </g>
     </g>
    </g>
    <g id="xtick_6">
     <g id="line2d_6">
      <path d="M 173.45625 173.8095 
L 95.05225 252.2135 
" clip-path="url(#p8a0f959efc)" style="fill: none; stroke: #b0b0b0; stroke-width: 0.8; stroke-linecap: square"/>
     </g>
    </g>
    <g id="xtick_7">
     <g id="line2d_7">
      <path d="M 173.45625 173.8095 
L 62.57625 173.8095 
" clip-path="url(#p8a0f959efc)" style="fill: none; stroke: #b0b0b0; stroke-width: 0.8; stroke-linecap: square"/>
     </g>
     <g id="text_4">
      <!-- W -->
      <g transform="translate(48.561406 176.568875) scale(0.1 -0.1)">
       <defs>
        <path id="DejaVuSans-Bold-57" d="M 191 4666 
L 1344 4666 
L 2150 1275 
L 2950 4666 
L 4109 4666 
L 4909 1275 
L 5716 4666 
L 6859 4666 
L 5759 0 
L 4372 0 
L 3525 3547 
L 2688 0 
L 1300 0 
L 191 4666 
z
" transform="scale(0.015625)"/>
       </defs>
       <use xlink:href="#DejaVuSans-Bold-57"/>
      </g>
     </g>
    </g>
    <g id="xtick_8">
     <g id="line2d_8">
      <path d="M 173.45625 173.8095 
L 95.05225 95.4055 
" clip-path="url(#p8a0f959efc)" style="fill: none; stroke: #b0b0b0; stroke-width: 0.8; stroke-linecap: square"/>
     </g>
    </g>
   </g>
   <g id="matplotlib.axis_2"/>
   <g id="patch_3">
    <path d="M 173.45625 173.8095 
C 173.45625 173.8095 173.45625 173.8095 173.45625 173.8095 
C 173.45625 173.8095 173.45625 173.8095 173.45625 173.8095 
L 177.843116 129.268903 
C 176.385236 129.125314 174.921184 129.05339 173.45625 129.05339 
C 171.991316 129.05339 170.527264 129.125314 169.069384 129.268903 
z
" clip-path="url(#p8a0f959efc)" style="fill: #d4a0a7; stroke: #000000; stroke-width: 0.5; stroke-linejoin: miter"/>
   </g>
   <g id="patch_4">
    <path d="M 173.45625 173.8095 
C 173.45625 173.8095 173.45625 173.8095 173.45625 173.8095 
C 173.45625 173.8095 173.45625 173.8095 173.45625 173.8095 
L 185.333969 134.653907 
C 184.052348 134.265132 182.752412 133.939515 181.438856 133.678232 
C 180.125299 133.416949 178.799706 133.220316 177.466865 133.089043 
z
" clip-path="url(#p8a0f959efc)" style="fill: #d4a0a7; stroke: #000000; stroke-width: 0.5; stroke-linejoin: miter"/>
   </g>
   <g id="patch_5">
    <path d="M 173.45625 173.8095 
C 173.45625 173.8095 173.45625 173.8095 173.45625 173.8095 
C 173.45625 173.8095 173.45625 173.8095 173.45625 173.8095 
L 205.035944 114.728048 
C 203.10212 113.694397 201.118712 112.756315 199.092884 111.91719 
C 197.067057 111.078064 195.001251 110.338907 192.90293 109.702388 
z
" clip-path="url(#p8a0f959efc)" style="fill: #d4a0a7; stroke: #000000; stroke-width: 0.5; stroke-linejoin: miter"/>
   </g>
   <g id="patch_6">
    <path d="M 173.45625 173.8095 
C 173.45625 173.8095 173.45625 173.8095 173.45625 173.8095 
C 173.45625 173.8095 173.45625 173.8095 173.45625 173.8095 
L 220.565511 116.406699 
C 218.686632 114.864742 216.733179 113.415963 214.712209 112.065594 
C 212.691239 110.715225 210.605187 109.464894 208.461589 108.319117 
z
" clip-path="url(#p8a0f959efc)" style="fill: #d4a0a7; stroke: #000000; stroke-width: 0.5; stroke-linejoin: miter"/>
   </g>
   <g id="patch_7">
    <path d="M 173.45625 173.8095 
C 173.45625 173.8095 173.45625 173.8095 173.45625 173.8095 
C 173.45625 173.8095 173.45625 173.8095 173.45625 173.8095 
L 219.678644 135.875761 
C 218.437016 134.362833 217.121856 132.911778 215.737914 131.527836 
C 214.353972 130.143894 212.902917 128.828734 211.389989 127.587106 
z
" clip-path="url(#p8a0f959efc)" style="fill: #d4a0a7; stroke: #000000; stroke-width: 0.5; stroke-linejoin: miter"/>
   </g>
   <g id="patch_8">
    <path d="M 173.45625 173.8095 
C 173.45625 173.8095 173.45625 173.8095 173.45625 173.8095 
C 173.45625 173.8095 173.45625 173.8095 173.45625 173.8095 
L 211.877215 153.273066 
C 211.205027 152.015491 210.471501 150.791676 209.679285 149.606042 
C 208.88707 148.420408 208.037121 147.274384 207.132508 146.17211 
z
" clip-path="url(#p8a0f959efc)" style="fill: #d4a0a7; stroke: #000000; stroke-width: 0.5; stroke-linejoin: miter"/>
   </g>
   <g id="patch_9">
    <path d="M 173.45625 173.8095 
C 173.45625 173.8095 173.45625 173.8095 173.45625 173.8095 
C 173.45625 173.8095 173.45625 173.8095 173.45625 173.8095 
L 201.8843 165.185945 
C 201.602038 164.255453 201.274262 163.339379 200.902155 162.441034 
C 200.530048 161.542689 200.114059 160.663154 199.655691 159.805607 
z
" clip-path="url(#p8a0f959efc)" style="fill: #d4a0a7; stroke: #000000; stroke-width: 0.5; stroke-linejoin: miter"/>
   </g>
   <g id="patch_10">
    <path d="M 173.45625 173.8095 
C 173.45625 173.8095 173.45625 173.8095 173.45625 173.8095 
C 173.45625 173.8095 173.45625 173.8095 173.45625 173.8095 
L 205.357723 170.667479 
C 205.25488 169.623296 205.100833 168.584792 204.896137 167.555718 
C 204.691441 166.526643 204.436344 165.508239 204.131767 164.504184 
z
" clip-path="url(#p8a0f959efc)" style="fill: #d4a0a7; stroke: #000000; stroke-width: 0.5; stroke-linejoin: miter"/>
   </g>
   <g id="patch_11">
    <path d="M 173.45625 173.8095 
C 173.45625 173.8095 173.45625 173.8095 173.45625 173.8095 
C 173.45625 173.8095 173.45625 173.8095 173.45625 173.8095 
L 230.102858 179.388704 
C 230.285474 177.534576 230.376947 175.672599 230.376947 173.8095 
C 230.376947 171.946401 230.285474 170.084424 230.102858 168.230296 
z
" clip-path="url(#p8a0f959efc)" style="fill: #d4a0a7; stroke: #000000; stroke-width: 0.5; stroke-linejoin: miter"/>
   </g>
   <g id="patch_12">
    <path d="M 173.45625 173.8095 
C 173.45625 173.8095 173.45625 173.8095 173.45625 173.8095 
C 173.45625 173.8095 173.45625 173.8095 173.45625 173.8095 
L 279.561794 205.996265 
C 280.615315 202.523272 281.497687 199.000648 282.205722 195.441115 
C 282.913757 191.881582 283.446602 188.289433 283.802332 184.677641 
z
" clip-path="url(#p8a0f959efc)" style="fill: #d4a0a7; stroke: #000000; stroke-width: 0.5; stroke-linejoin: miter"/>
   </g>
   <g id="patch_13">
    <path d="M 173.45625 173.8095 
C 173.45625 173.8095 173.45625 173.8095 173.45625 173.8095 
C 173.45625 173.8095 173.45625 173.8095 173.45625 173.8095 
L 255.291608 217.55141 
C 256.723346 214.872817 258.02271 212.125543 259.185005 209.319513 
C 260.347301 206.513483 261.371128 203.652079 262.252788 200.745635 
z
" clip-path="url(#p8a0f959efc)" style="fill: #d4a0a7; stroke: #000000; stroke-width: 0.5; stroke-linejoin: miter"/>
   </g>
   <g id="patch_14">
    <path d="M 173.45625 173.8095 
C 173.45625 173.8095 173.45625 173.8095 173.45625 173.8095 
C 173.45625 173.8095 173.45625 173.8095 173.45625 173.8095 
L 231.864591 221.743986 
C 233.433558 219.832194 234.907716 217.844522 236.28174 215.78815 
C 237.655764 213.731778 238.927997 211.609185 240.093845 209.428037 
z
" clip-path="url(#p8a0f959efc)" style="fill: #d4a0a7; stroke: #000000; stroke-width: 0.5; stroke-linejoin: miter"/>
   </g>
   <g id="patch_15">
    <path d="M 173.45625 173.8095 
C 173.45625 173.8095 173.45625 173.8095 173.45625 173.8095 
C 173.45625 173.8095 173.45625 173.8095 173.45625 173.8095 
L 212.329918 221.177201 
C 213.880333 219.904808 215.367344 218.557061 216.785577 217.138827 
C 218.203811 215.720594 219.551558 214.233583 220.823951 212.683168 
z
" clip-path="url(#p8a0f959efc)" style="fill: #d4a0a7; stroke: #000000; stroke-width: 0.5; stroke-linejoin: miter"/>
   </g>
   <g id="patch_16">
    <path d="M 173.45625 173.8095 
C 173.45625 173.8095 173.45625 173.8095 173.45625 173.8095 
C 173.45625 173.8095 173.45625 173.8095 173.45625 173.8095 
L 190.937819 206.515216 
C 192.008326 205.943018 193.050095 205.318606 194.059362 204.644235 
C 195.068628 203.969865 196.044177 203.246348 196.982485 202.4763 
z
" clip-path="url(#p8a0f959efc)" style="fill: #d4a0a7; stroke: #000000; stroke-width: 0.5; stroke-linejoin: miter"/>
   </g>
   <g id="patch_17">
    <path d="M 173.45625 173.8095 
C 173.45625 173.8095 173.45625 173.8095 173.45625 173.8095 
C 173.45625 173.8095 173.45625 173.8095 173.45625 173.8095 
L 173.45625 173.8095 
C 173.45625 173.8095 173.45625 173.8095 173.45625 173.8095 
C 173.45625 173.8095 173.45625 173.8095 173.45625 173.8095 
z
" clip-path="url(#p8a0f959efc)" style="fill: #d4a0a7; stroke: #000000; stroke-width: 0.5; stroke-linejoin: miter"/>
   </g>
   <g id="patch_18">
    <path d="M 173.45625 173.8095 
C 173.45625 173.8095 173.45625 173.8095 173.45625 173.8095 
C 173.45625 173.8095 173.45625 173.8095 173.45625 173.8095 
L 173.45625 173.8095 
C 173.45625 173.8095 173.45625 173.8095 173.45625 173.8095 
C 173.45625 173.8095 173.45625 173.8095 173.45625 173.8095 
z
" clip-path="url(#p8a0f959efc)" style="fill: #d4a0a7; stroke: #000000; stroke-width: 0.5; stroke-linejoin: miter"/>
   </g>
   <g id="patch_19">
    <path d="M 173.45625 173.8095 
C 173.45625 173.8095 173.45625 173.8095 173.45625 173.8095 
C 173.45625 173.8095 173.45625 173.8095 173.45625 173.8095 
L 173.45625 173.8095 
C 173.45625 173.8095 173.45625 173.8095 173.45625 173.8095 
C 173.45625 173.8095 173.45625 173.8095 173.45625 173.8095 
z
" clip-path="url(#p8a0f959efc)" style="fill: #d4a0a7; stroke: #000000; stroke-width: 0.5; stroke-linejoin: miter"/>
   </g>
   <g id="patch_20">
    <path d="M 173.45625 173.8095 
C 173.45625 173.8095 173.45625 173.8095 173.45625 173.8095 
C 173.45625 173.8095 173.45625 173.8095 173.45625 173.8095 
L 166.883492 195.47698 
C 167.592701 195.692116 168.312045 195.872302 169.038926 196.016888 
C 169.765807 196.161474 170.499348 196.270284 171.236901 196.342927 
z
" clip-path="url(#p8a0f959efc)" style="fill: #d4a0a7; stroke: #000000; stroke-width: 0.5; stroke-linejoin: miter"/>
   </g>
   <g id="patch_21">
    <path d="M 173.45625 173.8095 
C 173.45625 173.8095 173.45625 173.8095 173.45625 173.8095 
C 173.45625 173.8095 173.45625 173.8095 173.45625 173.8095 
L 173.45625 173.8095 
C 173.45625 173.8095 173.45625 173.8095 173.45625 173.8095 
C 173.45625 173.8095 173.45625 173.8095 173.45625 173.8095 
z
" clip-path="url(#p8a0f959efc)" style="fill: #d4a0a7; stroke: #000000; stroke-width: 0.5; stroke-linejoin: miter"/>
   </g>
   <g id="patch_22">
    <path d="M 173.45625 173.8095 
C 173.45625 173.8095 173.45625 173.8095 173.45625 173.8095 
C 173.45625 173.8095 173.45625 173.8095 173.45625 173.8095 
L 173.45625 173.8095 
C 173.45625 173.8095 173.45625 173.8095 173.45625 173.8095 
C 173.45625 173.8095 173.45625 173.8095 173.45625 173.8095 
z
" clip-path="url(#p8a0f959efc)" style="fill: #d4a0a7; stroke: #000000; stroke-width: 0.5; stroke-linejoin: miter"/>
   </g>
   <g id="patch_23">
    <path d="M 173.45625 173.8095 
C 173.45625 173.8095 173.45625 173.8095 173.45625 173.8095 
C 173.45625 173.8095 173.45625 173.8095 173.45625 173.8095 
L 173.45625 173.8095 
C 173.45625 173.8095 173.45625 173.8095 173.45625 173.8095 
C 173.45625 173.8095 173.45625 173.8095 173.45625 173.8095 
z
" clip-path="url(#p8a0f959efc)" style="fill: #d4a0a7; stroke: #000000; stroke-width: 0.5; stroke-linejoin: miter"/>
   </g>
   <g id="patch_24">
    <path d="M 173.45625 173.8095 
C 173.45625 173.8095 173.45625 173.8095 173.45625 173.8095 
C 173.45625 173.8095 173.45625 173.8095 173.45625 173.8095 
L 173.45625 173.8095 
C 173.45625 173.8095 173.45625 173.8095 173.45625 173.8095 
C 173.45625 173.8095 173.45625 173.8095 173.45625 173.8095 
z
" clip-path="url(#p8a0f959efc)" style="fill: #d4a0a7; stroke: #000000; stroke-width: 0.5; stroke-linejoin: miter"/>
   </g>
   <g id="patch_25">
    <path d="M 173.45625 173.8095 
C 173.45625 173.8095 173.45625 173.8095 173.45625 173.8095 
C 173.45625 173.8095 173.45625 173.8095 173.45625 173.8095 
L 173.45625 173.8095 
C 173.45625 173.8095 173.45625 173.8095 173.45625 173.8095 
C 173.45625 173.8095 173.45625 173.8095 173.45625 173.8095 
z
" clip-path="url(#p8a0f959efc)" style="fill: #d4a0a7; stroke: #000000; stroke-width: 0.5; stroke-linejoin: miter"/>
   </g>
   <g id="patch_26">
    <path d="M 173.45625 173.8095 
C 173.45625 173.8095 173.45625 173.8095 173.45625 173.8095 
C 173.45625 173.8095 173.45625 173.8095 173.45625 173.8095 
L 173.45625 173.8095 
C 173.45625 173.8095 173.45625 173.8095 173.45625 173.8095 
C 173.45625 173.8095 173.45625 173.8095 173.45625 173.8095 
z
" clip-path="url(#p8a0f959efc)" style="fill: #d4a0a7; stroke: #000000; stroke-width: 0.5; stroke-linejoin: miter"/>
   </g>
   <g id="patch_27">
    <path d="M 173.45625 173.8095 
C 173.45625 173.8095 173.45625 173.8095 173.45625 173.8095 
C 173.45625 173.8095 173.45625 173.8095 173.45625 173.8095 
L 173.45625 173.8095 
C 173.45625 173.8095 173.45625 173.8095 173.45625 173.8095 
C 173.45625 173.8095 173.45625 173.8095 173.45625 173.8095 
z
" clip-path="url(#p8a0f959efc)" style="fill: #d4a0a7; stroke: #000000; stroke-width: 0.5; stroke-linejoin: miter"/>
   </g>
   <g id="patch_28">
    <path d="M 173.45625 173.8095 
C 173.45625 173.8095 173.45625 173.8095 173.45625 173.8095 
C 173.45625 173.8095 173.45625 173.8095 173.45625 173.8095 
L 173.45625 173.8095 
C 173.45625 173.8095 173.45625 173.8095 173.45625 173.8095 
C 173.45625 173.8095 173.45625 173.8095 173.45625 173.8095 
z
" clip-path="url(#p8a0f959efc)" style="fill: #d4a0a7; stroke: #000000; stroke-width: 0.5; stroke-linejoin: miter"/>
   </g>
   <g id="patch_29">
    <path d="M 173.45625 173.8095 
C 173.45625 173.8095 173.45625 173.8095 173.45625 173.8095 
C 173.45625 173.8095 173.45625 173.8095 173.45625 173.8095 
L 173.45625 173.8095 
C 173.45625 173.8095 173.45625 173.8095 173.45625 173.8095 
C 173.45625 173.8095 173.45625 173.8095 173.45625 173.8095 
z
" clip-path="url(#p8a0f959efc)" style="fill: #d4a0a7; stroke: #000000; stroke-width: 0.5; stroke-linejoin: miter"/>
   </g>
   <g id="patch_30">
    <path d="M 173.45625 173.8095 
C 173.45625 173.8095 173.45625 173.8095 173.45625 173.8095 
C 173.45625 173.8095 173.45625 173.8095 173.45625 173.8095 
L 173.45625 173.8095 
C 173.45625 173.8095 173.45625 173.8095 173.45625 173.8095 
C 173.45625 173.8095 173.45625 173.8095 173.45625 173.8095 
z
" clip-path="url(#p8a0f959efc)" style="fill: #d4a0a7; stroke: #000000; stroke-width: 0.5; stroke-linejoin: miter"/>
   </g>
   <g id="patch_31">
    <path d="M 173.45625 173.8095 
C 173.45625 173.8095 173.45625 173.8095 173.45625 173.8095 
C 173.45625 173.8095 173.45625 173.8095 173.45625 173.8095 
L 173.45625 173.8095 
C 173.45625 173.8095 173.45625 173.8095 173.45625 173.8095 
C 173.45625 173.8095 173.45625 173.8095 173.45625 173.8095 
z
" clip-path="url(#p8a0f959efc)" style="fill: #d4a0a7; stroke: #000000; stroke-width: 0.5; stroke-linejoin: miter"/>
   </g>
   <g id="patch_32">
    <path d="M 173.45625 173.8095 
C 173.45625 173.8095 173.45625 173.8095 173.45625 173.8095 
C 173.45625 173.8095 173.45625 173.8095 173.45625 173.8095 
L 173.45625 173.8095 
C 173.45625 173.8095 173.45625 173.8095 173.45625 173.8095 
C 173.45625 173.8095 173.45625 173.8095 173.45625 173.8095 
z
" clip-path="url(#p8a0f959efc)" style="fill: #d4a0a7; stroke: #000000; stroke-width: 0.5; stroke-linejoin: miter"/>
   </g>
   <g id="patch_33">
    <path d="M 173.45625 173.8095 
C 173.45625 173.8095 173.45625 173.8095 173.45625 173.8095 
C 173.45625 173.8095 173.45625 173.8095 173.45625 173.8095 
L 167.278664 153.444728 
C 166.612094 153.646929 165.955854 153.881736 165.312314 154.148299 
C 164.668773 154.414862 164.038708 154.712861 163.424394 155.041218 
z
" clip-path="url(#p8a0f959efc)" style="fill: #d4a0a7; stroke: #000000; stroke-width: 0.5; stroke-linejoin: miter"/>
   </g>
   <g id="patch_34">
    <path d="M 173.45625 173.8095 
C 173.45625 173.8095 173.45625 173.8095 173.45625 173.8095 
C 173.45625 173.8095 173.45625 173.8095 173.45625 173.8095 
L 173.45625 173.8095 
C 173.45625 173.8095 173.45625 173.8095 173.45625 173.8095 
C 173.45625 173.8095 173.45625 173.8095 173.45625 173.8095 
z
" clip-path="url(#p8a0f959efc)" style="fill: #d4a0a7; stroke: #000000; stroke-width: 0.5; stroke-linejoin: miter"/>
   </g>
   <g id="PathCollection_1">
    <defs>
     <path id="m8fe52db247" d="M 0.193618 7.414054 
L 0.193618 7.414054 
C 0.054922 7.414054 -0.078235 7.358899 -0.176308 7.260826 
C -0.274381 7.162753 -0.329536 7.029596 -0.329536 6.890901 
L -0.329536 5.365008 
L -1.528416 6.56393 
L -1.528416 6.56393 
C -1.577018 6.612704 -1.634775 6.651408 -1.698366 6.677814 
C -1.761958 6.704221 -1.830141 6.717815 -1.898997 6.717815 
C -1.967853 6.717815 -2.036037 6.704221 -2.099628 6.677814 
C -2.163219 6.651408 -2.220976 6.612704 -2.269578 6.56393 
L -2.269578 6.56393 
C -2.318353 6.515327 -2.357056 6.457571 -2.383463 6.393979 
C -2.409869 6.330388 -2.423463 6.262205 -2.423463 6.193348 
C -2.423463 6.124492 -2.409869 6.056309 -2.383463 5.992718 
C -2.357056 5.929126 -2.318353 5.87137 -2.269578 5.822767 
L -0.329536 3.884106 
L -0.329536 0.820937 
L -2.98067 2.351538 
L -3.691824 5.001416 
L -3.691824 5.001416 
C -3.727584 5.135411 -3.815199 5.249836 -3.93523 5.319305 
C -4.055261 5.388775 -4.198123 5.407741 -4.332122 5.371997 
L -4.332122 5.371997 
C -4.466126 5.336237 -4.580558 5.248616 -4.650029 5.128576 
C -4.719499 5.008535 -4.73846 4.865662 -4.702703 4.731657 
L -4.262647 3.092721 
L -5.585535 3.855668 
L -5.585535 3.855668 
C -5.645013 3.890144 -5.710708 3.912561 -5.778854 3.921634 
C -5.847001 3.930706 -5.916272 3.926258 -5.982698 3.908543 
C -6.049125 3.890828 -6.111412 3.860192 -6.165991 3.818391 
C -6.220571 3.77659 -6.266379 3.724437 -6.300791 3.664922 
L -6.300791 3.664922 
C -6.335212 3.605364 -6.35755 3.539597 -6.366524 3.471396 
C -6.375498 3.403194 -6.370933 3.333888 -6.35309 3.267452 
C -6.335248 3.201017 -6.304476 3.138749 -6.26254 3.08422 
C -6.220605 3.029692 -6.168323 2.983966 -6.108695 2.949666 
L -4.785807 2.186762 
L -6.424743 1.746706 
L -6.424743 1.746706 
C -6.558747 1.710946 -6.673179 1.623325 -6.74265 1.503284 
C -6.81212 1.383244 -6.831081 1.240371 -6.795324 1.106366 
L -6.795324 1.106366 
C -6.777471 1.039969 -6.746703 0.977739 -6.704784 0.923241 
C -6.662864 0.868744 -6.61061 0.823041 -6.551015 0.788752 
C -6.491421 0.754464 -6.425647 0.732257 -6.357465 0.723406 
C -6.289282 0.714554 -6.220019 0.71923 -6.153645 0.737166 
L -3.505232 1.44698 
L -0.852424 -0.08496 
L -3.503767 -1.615666 
L -6.153645 -0.905851 
L -6.153645 -0.905851 
C -6.22011 -0.887939 -6.289462 -0.883321 -6.357716 -0.892262 
C -6.42597 -0.901202 -6.491793 -0.923527 -6.551403 -0.957953 
C -6.611013 -0.992379 -6.663247 -1.038234 -6.705103 -1.092883 
C -6.746958 -1.147533 -6.777619 -1.209911 -6.795324 -1.276432 
L -6.795324 -1.276432 
C -6.831068 -1.410431 -6.812101 -1.553293 -6.742632 -1.673324 
C -6.673162 -1.793355 -6.558738 -1.88097 -6.424743 -1.91673 
L -4.785807 -2.355447 
L -6.108695 -3.119732 
L -6.108695 -3.119732 
C -6.228699 -3.188976 -6.316415 -3.303132 -6.352417 -3.436921 
C -6.388419 -3.57071 -6.369839 -3.713469 -6.300791 -3.833586 
L -6.300791 -3.833586 
C -6.266491 -3.893214 -6.220765 -3.945496 -6.166237 -3.987431 
C -6.111708 -4.029367 -6.04944 -4.060139 -5.983005 -4.077981 
C -5.91657 -4.095823 -5.847263 -4.100389 -5.779062 -4.091415 
C -5.71086 -4.082441 -5.645094 -4.060102 -5.585535 -4.025682 
L -4.262647 -3.261396 
L -4.702703 -4.900332 
L -4.702703 -4.900332 
C -4.73846 -5.034337 -4.719499 -5.17721 -4.650029 -5.29725 
C -4.580558 -5.417291 -4.466126 -5.504912 -4.332122 -5.540672 
L -4.332122 -5.540672 
C -4.19831 -5.576464 -4.055613 -5.557686 -3.935617 -5.488496 
C -3.81562 -5.419305 -3.727882 -5.305212 -3.691824 -5.171472 
L -2.982009 -2.521594 
L -0.329411 -0.990302 
L -0.329411 -4.051588 
L -2.269453 -5.991589 
L -2.269453 -5.991589 
C -2.318227 -6.040191 -2.356931 -6.097947 -2.383337 -6.161539 
C -2.409744 -6.22513 -2.423338 -6.293314 -2.423338 -6.36217 
C -2.423338 -6.431026 -2.409744 -6.499209 -2.383337 -6.5628 
C -2.356931 -6.626392 -2.318227 -6.684149 -2.269453 -6.732751 
L -2.269453 -6.732751 
C -2.22085 -6.781526 -2.163094 -6.820229 -2.099502 -6.846635 
C -2.035911 -6.873042 -1.967728 -6.886636 -1.898871 -6.886636 
C -1.830015 -6.886636 -1.761832 -6.873042 -1.698241 -6.846635 
C -1.634649 -6.820229 -1.576893 -6.781526 -1.52829 -6.732751 
L -0.329411 -5.533829 
L -0.329411 -7.059722 
L -0.329411 -7.059722 
C -0.329411 -7.198418 -0.274255 -7.331575 -0.176182 -7.429647 
C -0.07811 -7.52772 0.055047 -7.582875 0.193743 -7.582875 
L 0.193743 -7.582875 
C 0.332439 -7.582875 0.465596 -7.52772 0.563669 -7.429647 
C 0.661741 -7.331575 0.716897 -7.198418 0.716897 -7.059722 
L 0.716897 -5.533829 
L 1.915777 -6.732751 
L 1.915777 -6.732751 
C 1.964379 -6.781526 2.022136 -6.820229 2.085727 -6.846635 
C 2.149318 -6.873042 2.217502 -6.886636 2.286358 -6.886636 
C 2.355214 -6.886636 2.423397 -6.873042 2.486989 -6.846635 
C 2.55058 -6.820229 2.608337 -6.781526 2.656939 -6.732751 
L 2.656939 -6.732751 
C 2.705714 -6.684149 2.744417 -6.626392 2.770823 -6.5628 
C 2.79723 -6.499209 2.810824 -6.431026 2.810824 -6.36217 
C 2.810824 -6.293314 2.79723 -6.22513 2.770823 -6.161539 
C 2.744417 -6.097947 2.705714 -6.040191 2.656939 -5.991589 
L 0.716897 -4.051588 
L 0.716897 -0.991139 
L 3.369495 -2.522954 
L 4.07931 -5.171367 
L 4.07931 -5.171367 
C 4.115368 -5.305107 4.203106 -5.4192 4.323103 -5.488391 
C 4.4431 -5.557582 4.585797 -5.576359 4.719608 -5.540567 
L 4.719608 -5.540567 
C 4.853612 -5.504807 4.968045 -5.417186 5.037515 -5.297146 
C 5.106986 -5.177105 5.125946 -5.034232 5.090189 -4.900227 
L 4.650133 -3.262673 
L 5.973022 -4.025577 
L 5.973022 -4.025577 
C 6.03258 -4.059998 6.098346 -4.082336 6.166548 -4.09131 
C 6.234749 -4.100284 6.304056 -4.095719 6.370491 -4.077876 
C 6.436926 -4.060034 6.499194 -4.029262 6.553723 -3.987327 
C 6.608252 -3.945391 6.653978 -3.893109 6.688277 -3.833481 
L 6.688277 -3.833481 
C 6.757325 -3.713365 6.775905 -3.570605 6.739903 -3.436816 
C 6.703901 -3.303027 6.616186 -3.188871 6.496181 -3.119628 
L 5.173293 -2.355342 
L 6.812229 -1.916625 
L 6.812229 -1.916625 
C 6.946224 -1.880865 7.060649 -1.79325 7.130118 -1.67322 
C 7.199588 -1.553189 7.218554 -1.410326 7.18281 -1.276327 
L 7.18281 -1.276327 
C 7.165106 -1.209806 7.134445 -1.147429 7.092589 -1.092779 
C 7.050733 -1.038129 6.998499 -0.992274 6.938889 -0.957848 
C 6.879279 -0.923422 6.813456 -0.901098 6.745202 -0.892157 
C 6.676949 -0.883217 6.607597 -0.887835 6.541131 -0.905746 
L 3.891253 -1.615561 
L 1.239492 -0.084604 
L 3.892718 1.447085 
L 6.541131 0.73727 
L 6.541131 0.73727 
C 6.674948 0.701466 6.817656 0.720237 6.937662 0.789429 
C 7.057669 0.858621 7.145413 0.972721 7.181471 1.10647 
L 7.181471 1.10647 
C 7.217274 1.240293 7.198497 1.383006 7.129297 1.503014 
C 7.060096 1.623021 6.945986 1.710762 6.812229 1.74681 
L 5.173293 2.186866 
L 6.496181 2.949771 
L 6.496181 2.949771 
C 6.555697 2.984183 6.607849 3.029991 6.649651 3.08457 
C 6.691452 3.13915 6.722088 3.201437 6.739803 3.267863 
C 6.757517 3.33429 6.761966 3.403561 6.752893 3.471707 
C 6.743821 3.539854 6.721404 3.605549 6.686927 3.665026 
L 6.686927 3.665026 
C 6.617458 3.784813 6.503196 3.87225 6.369416 3.907994 
C 6.235636 3.943739 6.092989 3.924946 5.973032 3.855772 
L 4.650144 3.091487 
L 5.08886 4.731783 
L 5.08886 4.731783 
C 5.124664 4.865606 5.105887 5.008319 5.036686 5.128326 
C 4.967486 5.248334 4.853376 5.336074 4.719619 5.372123 
L 4.719619 5.372123 
C 4.585619 5.407867 4.442757 5.3889 4.322726 5.319431 
C 4.202695 5.249961 4.115081 5.135537 4.07932 5.001542 
L 3.368166 2.351664 
L 0.717033 0.821063 
L 0.717033 3.884232 
L 2.657075 5.822893 
L 2.657075 5.822893 
C 2.70585 5.871495 2.744553 5.929252 2.770959 5.992843 
C 2.797366 6.056435 2.81096 6.124618 2.81096 6.193474 
C 2.81096 6.26233 2.797366 6.330514 2.770959 6.394105 
C 2.744553 6.457696 2.70585 6.515453 2.657075 6.564055 
L 2.657075 6.564055 
C 2.608473 6.61283 2.550716 6.651533 2.487125 6.67794 
C 2.423533 6.704346 2.35535 6.71794 2.286494 6.71794 
C 2.217638 6.71794 2.149454 6.704346 2.085863 6.67794 
C 2.022272 6.651533 1.964515 6.61283 1.915913 6.564055 
L 0.717033 5.365133 
L 0.717033 6.891026 
L 0.717033 6.891026 
C 0.717033 7.029722 0.661877 7.162879 0.563805 7.260952 
C 0.465732 7.359024 0.332575 7.41418 0.193879 7.41418 
L 0.193618 7.414054 
z
"/>
    </defs>
    <g clip-path="url(#p8a0f959efc)">
     <use xlink:href="#m8fe52db247" x="254.80986" y="167.469277" style="fill: #0000ff; fill-opacity: 0.7"/>
    </g>
   </g>
   <g id="patch_35">
    <path d="M 173.45625 62.9295 
C 158.895622 62.9295 144.476577 65.797626 131.024311 71.369737 
C 117.572045 76.941849 105.348169 85.109581 95.05225 95.4055 
C 84.756331 105.701419 76.588599 117.925295 71.016487 131.377561 
C 65.444376 144.829827 62.57625 159.248872 62.57625 173.8095 
C 62.57625 188.370128 65.444376 202.789173 71.016487 216.241439 
C 76.588599 229.693705 84.756331 241.917581 95.05225 252.2135 
C 105.348169 262.509419 117.572045 270.677151 131.024311 276.249263 
C 144.476577 281.821374 158.895622 284.6895 173.45625 284.6895 
C 188.016878 284.6895 202.435923 281.821374 215.888189 276.249263 
C 229.340455 270.677151 241.564331 262.509419 251.86025 252.2135 
C 262.156169 241.917581 270.323901 229.693705 275.896013 216.241439 
C 281.468124 202.789173 284.33625 188.370128 284.33625 173.8095 
C 284.33625 159.248872 281.468124 144.829827 275.896013 131.377561 
C 270.323901 117.925295 262.156169 105.701419 251.86025 95.4055 
C 241.564331 85.109581 229.340455 76.941849 215.888189 71.369737 
C 202.435923 65.797626 188.016878 62.9295 173.45625 62.9295 
" style="fill: none; stroke: #000000; stroke-width: 0.8; stroke-linejoin: miter; stroke-linecap: square"/>
   </g>
   <g id="text_5">
    <!-- 3 runs -->
    <g style="fill: #95a5a6" transform="translate(49.57793 57.529618) scale(0.1 -0.1)">
     <defs>
      <path id="DejaVuSans-33" d="M 2597 2516 
Q 3050 2419 3304 2112 
Q 3559 1806 3559 1356 
Q 3559 666 3084 287 
Q 2609 -91 1734 -91 
Q 1441 -91 1130 -33 
Q 819 25 488 141 
L 488 750 
Q 750 597 1062 519 
Q 1375 441 1716 441 
Q 2309 441 2620 675 
Q 2931 909 2931 1356 
Q 2931 1769 2642 2001 
Q 2353 2234 1838 2234 
L 1294 2234 
L 1294 2753 
L 1863 2753 
Q 2328 2753 2575 2939 
Q 2822 3125 2822 3475 
Q 2822 3834 2567 4026 
Q 2313 4219 1838 4219 
Q 1578 4219 1281 4162 
Q 984 4106 628 3988 
L 628 4550 
Q 988 4650 1302 4700 
Q 1616 4750 1894 4750 
Q 2613 4750 3031 4423 
Q 3450 4097 3450 3541 
Q 3450 3153 3228 2886 
Q 3006 2619 2597 2516 
z
" transform="scale(0.015625)"/>
      <path id="DejaVuSans-20" transform="scale(0.015625)"/>
      <path id="DejaVuSans-72" d="M 2631 2963 
Q 2534 3019 2420 3045 
Q 2306 3072 2169 3072 
Q 1681 3072 1420 2755 
Q 1159 2438 1159 1844 
L 1159 0 
L 581 0 
L 581 3500 
L 1159 3500 
L 1159 2956 
Q 1341 3275 1631 3429 
Q 1922 3584 2338 3584 
Q 2397 3584 2469 3576 
Q 2541 3569 2628 3553 
L 2631 2963 
z
" transform="scale(0.015625)"/>
      <path id="DejaVuSans-75" d="M 544 1381 
L 544 3500 
L 1119 3500 
L 1119 1403 
Q 1119 906 1312 657 
Q 1506 409 1894 409 
Q 2359 409 2629 706 
Q 2900 1003 2900 1516 
L 2900 3500 
L 3475 3500 
L 3475 0 
L 2900 0 
L 2900 538 
Q 2691 219 2414 64 
Q 2138 -91 1772 -91 
Q 1169 -91 856 284 
Q 544 659 544 1381 
z
M 1991 3584 
L 1991 3584 
z
" transform="scale(0.015625)"/>
      <path id="DejaVuSans-6e" d="M 3513 2113 
L 3513 0 
L 2938 0 
L 2938 2094 
Q 2938 2591 2744 2837 
Q 2550 3084 2163 3084 
Q 1697 3084 1428 2787 
Q 1159 2491 1159 1978 
L 1159 0 
L 581 0 
L 581 3500 
L 1159 3500 
L 1159 2956 
Q 1366 3272 1645 3428 
Q 1925 3584 2291 3584 
Q 2894 3584 3203 3211 
Q 3513 2838 3513 2113 
z
" transform="scale(0.015625)"/>
      <path id="DejaVuSans-73" d="M 2834 3397 
L 2834 2853 
Q 2591 2978 2328 3040 
Q 2066 3103 1784 3103 
Q 1356 3103 1142 2972 
Q 928 2841 928 2578 
Q 928 2378 1081 2264 
Q 1234 2150 1697 2047 
L 1894 2003 
Q 2506 1872 2764 1633 
Q 3022 1394 3022 966 
Q 3022 478 2636 193 
Q 2250 -91 1575 -91 
Q 1294 -91 989 -36 
Q 684 19 347 128 
L 347 722 
Q 666 556 975 473 
Q 1284 391 1588 391 
Q 1994 391 2212 530 
Q 2431 669 2431 922 
Q 2431 1156 2273 1281 
Q 2116 1406 1581 1522 
L 1381 1569 
Q 847 1681 609 1914 
Q 372 2147 372 2553 
Q 372 3047 722 3315 
Q 1072 3584 1716 3584 
Q 2034 3584 2315 3537 
Q 2597 3491 2834 3397 
z
" transform="scale(0.015625)"/>
     </defs>
     <use xlink:href="#DejaVuSans-33"/>
     <use xlink:href="#DejaVuSans-20" x="63.623047"/>
     <use xlink:href="#DejaVuSans-72" x="95.410156"/>
     <use xlink:href="#DejaVuSans-75" x="136.523438"/>
     <use xlink:href="#DejaVuSans-6e" x="199.902344"/>
     <use xlink:href="#DejaVuSans-73" x="263.28125"/>
    </g>
    <!-- 4 lifts -->
    <g style="fill: #95a5a6" transform="translate(49.57793 68.72743) scale(0.1 -0.1)">
     <defs>
      <path id="DejaVuSans-34" d="M 2419 4116 
L 825 1625 
L 2419 1625 
L 2419 4116 
z
M 2253 4666 
L 3047 4666 
L 3047 1625 
L 3713 1625 
L 3713 1100 
L 3047 1100 
L 3047 0 
L 2419 0 
L 2419 1100 
L 313 1100 
L 313 1709 
L 2253 4666 
z
" transform="scale(0.015625)"/>
      <path id="DejaVuSans-6c" d="M 603 4863 
L 1178 4863 
L 1178 0 
L 603 0 
L 603 4863 
z
" transform="scale(0.015625)"/>
      <path id="DejaVuSans-69" d="M 603 3500 
L 1178 3500 
L 1178 0 
L 603 0 
L 603 3500 
z
M 603 4863 
L 1178 4863 
L 1178 4134 
L 603 4134 
L 603 4863 
z
" transform="scale(0.015625)"/>
      <path id="DejaVuSans-66" d="M 2375 4863 
L 2375 4384 
L 1825 4384 
Q 1516 4384 1395 4259 
Q 1275 4134 1275 3809 
L 1275 3500 
L 2222 3500 
L 2222 3053 
L 1275 3053 
L 1275 0 
L 697 0 
L 697 3053 
L 147 3053 
L 147 3500 
L 697 3500 
L 697 3744 
Q 697 4328 969 4595 
Q 1241 4863 1831 4863 
L 2375 4863 
z
" transform="scale(0.015625)"/>
      <path id="DejaVuSans-74" d="M 1172 4494 
L 1172 3500 
L 2356 3500 
L 2356 3053 
L 1172 3053 
L 1172 1153 
Q 1172 725 1289 603 
Q 1406 481 1766 481 
L 2356 481 
L 2356 0 
L 1766 0 
Q 1100 0 847 248 
Q 594 497 594 1153 
L 594 3053 
L 172 3053 
L 172 3500 
L 594 3500 
L 594 4494 
L 1172 4494 
z
" transform="scale(0.015625)"/>
     </defs>
     <use xlink:href="#DejaVuSans-34"/>
     <use xlink:href="#DejaVuSans-20" x="63.623047"/>
     <use xlink:href="#DejaVuSans-6c" x="95.410156"/>
     <use xlink:href="#DejaVuSans-69" x="123.193359"/>
     <use xlink:href="#DejaVuSans-66" x="150.976562"/>
     <use xlink:href="#DejaVuSans-74" x="184.431641"/>
     <use xlink:href="#DejaVuSans-73" x="223.640625"/>
    </g>
   </g>
   <g id="text_6">
    <!-- 515 m -->
    <g style="fill: #95a5a6" transform="translate(266.50957 57.529618) scale(0.1 -0.1)">
     <defs>
      <path id="DejaVuSans-35" d="M 691 4666 
L 3169 4666 
L 3169 4134 
L 1269 4134 
L 1269 2991 
Q 1406 3038 1543 3061 
Q 1681 3084 1819 3084 
Q 2600 3084 3056 2656 
Q 3513 2228 3513 1497 
Q 3513 744 3044 326 
Q 2575 -91 1722 -91 
Q 1428 -91 1123 -41 
Q 819 9 494 109 
L 494 744 
Q 775 591 1075 516 
Q 1375 441 1709 441 
Q 2250 441 2565 725 
Q 2881 1009 2881 1497 
Q 2881 1984 2565 2268 
Q 2250 2553 1709 2553 
Q 1456 2553 1204 2497 
Q 953 2441 691 2322 
L 691 4666 
z
" transform="scale(0.015625)"/>
      <path id="DejaVuSans-31" d="M 794 531 
L 1825 531 
L 1825 4091 
L 703 3866 
L 703 4441 
L 1819 4666 
L 2450 4666 
L 2450 531 
L 3481 531 
L 3481 0 
L 794 0 
L 794 531 
z
" transform="scale(0.015625)"/>
      <path id="DejaVuSans-202f" transform="scale(0.015625)"/>
      <path id="DejaVuSans-6d" d="M 3328 2828 
Q 3544 3216 3844 3400 
Q 4144 3584 4550 3584 
Q 5097 3584 5394 3201 
Q 5691 2819 5691 2113 
L 5691 0 
L 5113 0 
L 5113 2094 
Q 5113 2597 4934 2840 
Q 4756 3084 4391 3084 
Q 3944 3084 3684 2787 
Q 3425 2491 3425 1978 
L 3425 0 
L 2847 0 
L 2847 2094 
Q 2847 2600 2669 2842 
Q 2491 3084 2119 3084 
Q 1678 3084 1418 2786 
Q 1159 2488 1159 1978 
L 1159 0 
L 581 0 
L 581 3500 
L 1159 3500 
L 1159 2956 
Q 1356 3278 1631 3431 
Q 1906 3584 2284 3584 
Q 2666 3584 2933 3390 
Q 3200 3197 3328 2828 
z
" transform="scale(0.015625)"/>
     </defs>
     <use xlink:href="#DejaVuSans-35"/>
     <use xlink:href="#DejaVuSans-31" x="63.623047"/>
     <use xlink:href="#DejaVuSans-35" x="127.246094"/>
     <use xlink:href="#DejaVuSans-202f" x="190.869141"/>
     <use xlink:href="#DejaVuSans-6d" x="210.839844"/>
    </g>
    <!-- skiable -->
    <g style="fill: #95a5a6" transform="translate(262.148632 68.72743) scale(0.1 -0.1)">
     <defs>
      <path id="DejaVuSans-6b" d="M 581 4863 
L 1159 4863 
L 1159 1991 
L 2875 3500 
L 3609 3500 
L 1753 1863 
L 3688 0 
L 2938 0 
L 1159 1709 
L 1159 0 
L 581 0 
L 581 4863 
z
" transform="scale(0.015625)"/>
      <path id="DejaVuSans-61" d="M 2194 1759 
Q 1497 1759 1228 1600 
Q 959 1441 959 1056 
Q 959 750 1161 570 
Q 1363 391 1709 391 
Q 2188 391 2477 730 
Q 2766 1069 2766 1631 
L 2766 1759 
L 2194 1759 
z
M 3341 1997 
L 3341 0 
L 2766 0 
L 2766 531 
Q 2569 213 2275 61 
Q 1981 -91 1556 -91 
Q 1019 -91 701 211 
Q 384 513 384 1019 
Q 384 1609 779 1909 
Q 1175 2209 1959 2209 
L 2766 2209 
L 2766 2266 
Q 2766 2663 2505 2880 
Q 2244 3097 1772 3097 
Q 1472 3097 1187 3025 
Q 903 2953 641 2809 
L 641 3341 
Q 956 3463 1253 3523 
Q 1550 3584 1831 3584 
Q 2591 3584 2966 3190 
Q 3341 2797 3341 1997 
z
" transform="scale(0.015625)"/>
      <path id="DejaVuSans-62" d="M 3116 1747 
Q 3116 2381 2855 2742 
Q 2594 3103 2138 3103 
Q 1681 3103 1420 2742 
Q 1159 2381 1159 1747 
Q 1159 1113 1420 752 
Q 1681 391 2138 391 
Q 2594 391 2855 752 
Q 3116 1113 3116 1747 
z
M 1159 2969 
Q 1341 3281 1617 3432 
Q 1894 3584 2278 3584 
Q 2916 3584 3314 3078 
Q 3713 2572 3713 1747 
Q 3713 922 3314 415 
Q 2916 -91 2278 -91 
Q 1894 -91 1617 61 
Q 1341 213 1159 525 
L 1159 0 
L 581 0 
L 581 4863 
L 1159 4863 
L 1159 2969 
z
" transform="scale(0.015625)"/>
      <path id="DejaVuSans-65" d="M 3597 1894 
L 3597 1613 
L 953 1613 
Q 991 1019 1311 708 
Q 1631 397 2203 397 
Q 2534 397 2845 478 
Q 3156 559 3463 722 
L 3463 178 
Q 3153 47 2828 -22 
Q 2503 -91 2169 -91 
Q 1331 -91 842 396 
Q 353 884 353 1716 
Q 353 2575 817 3079 
Q 1281 3584 2069 3584 
Q 2775 3584 3186 3129 
Q 3597 2675 3597 1894 
z
M 3022 2063 
Q 3016 2534 2758 2815 
Q 2500 3097 2075 3097 
Q 1594 3097 1305 2825 
Q 1016 2553 972 2059 
L 3022 2063 
z
" transform="scale(0.015625)"/>
     </defs>
     <use xlink:href="#DejaVuSans-73"/>
     <use xlink:href="#DejaVuSans-6b" x="52.099609"/>
     <use xlink:href="#DejaVuSans-69" x="110.009766"/>
     <use xlink:href="#DejaVuSans-61" x="137.792969"/>
     <use xlink:href="#DejaVuSans-62" x="199.072266"/>
     <use xlink:href="#DejaVuSans-6c" x="262.548828"/>
     <use xlink:href="#DejaVuSans-65" x="290.332031"/>
    </g>
    <!-- vert -->
    <g style="fill: #95a5a6" transform="translate(277.231445 79.925243) scale(0.1 -0.1)">
     <defs>
      <path id="DejaVuSans-76" d="M 191 3500 
L 800 3500 
L 1894 563 
L 2988 3500 
L 3597 3500 
L 2284 0 
L 1503 0 
L 191 3500 
z
" transform="scale(0.015625)"/>
     </defs>
     <use xlink:href="#DejaVuSans-76"/>
     <use xlink:href="#DejaVuSans-65" x="59.179688"/>
     <use xlink:href="#DejaVuSans-72" x="120.703125"/>
     <use xlink:href="#DejaVuSans-74" x="161.816406"/>
    </g>
   </g>
   <g id="text_7">
    <!-- affinity: -->
    <g style="fill: #95a5a6" transform="translate(49.57793 273.212507) scale(0.1 -0.1)">
     <defs>
      <path id="DejaVuSans-79" d="M 2059 -325 
Q 1816 -950 1584 -1140 
Q 1353 -1331 966 -1331 
L 506 -1331 
L 506 -850 
L 844 -850 
Q 1081 -850 1212 -737 
Q 1344 -625 1503 -206 
L 1606 56 
L 191 3500 
L 800 3500 
L 1894 763 
L 2988 3500 
L 3597 3500 
L 2059 -325 
z
" transform="scale(0.015625)"/>
      <path id="DejaVuSans-3a" d="M 750 794 
L 1409 794 
L 1409 0 
L 750 0 
L 750 794 
z
M 750 3309 
L 1409 3309 
L 1409 2516 
L 750 2516 
L 750 3309 
z
" transform="scale(0.015625)"/>
     </defs>
     <use xlink:href="#DejaVuSans-61"/>
     <use xlink:href="#DejaVuSans-66" x="61.279297"/>
     <use xlink:href="#DejaVuSans-66" x="96.484375"/>
     <use xlink:href="#DejaVuSans-69" x="131.689453"/>
     <use xlink:href="#DejaVuSans-6e" x="159.472656"/>
     <use xlink:href="#DejaVuSans-69" x="222.851562"/>
     <use xlink:href="#DejaVuSans-74" x="250.634766"/>
     <use xlink:href="#DejaVuSans-79" x="289.84375"/>
     <use xlink:href="#DejaVuSans-3a" x="341.773438"/>
    </g>
    <!-- 6% poleward -->
    <g style="fill: #95a5a6" transform="translate(49.57793 284.41032) scale(0.1 -0.1)">
     <defs>
      <path id="DejaVuSans-36" d="M 2113 2584 
Q 1688 2584 1439 2293 
Q 1191 2003 1191 1497 
Q 1191 994 1439 701 
Q 1688 409 2113 409 
Q 2538 409 2786 701 
Q 3034 994 3034 1497 
Q 3034 2003 2786 2293 
Q 2538 2584 2113 2584 
z
M 3366 4563 
L 3366 3988 
Q 3128 4100 2886 4159 
Q 2644 4219 2406 4219 
Q 1781 4219 1451 3797 
Q 1122 3375 1075 2522 
Q 1259 2794 1537 2939 
Q 1816 3084 2150 3084 
Q 2853 3084 3261 2657 
Q 3669 2231 3669 1497 
Q 3669 778 3244 343 
Q 2819 -91 2113 -91 
Q 1303 -91 875 529 
Q 447 1150 447 2328 
Q 447 3434 972 4092 
Q 1497 4750 2381 4750 
Q 2619 4750 2861 4703 
Q 3103 4656 3366 4563 
z
" transform="scale(0.015625)"/>
      <path id="DejaVuSans-25" d="M 4653 2053 
Q 4381 2053 4226 1822 
Q 4072 1591 4072 1178 
Q 4072 772 4226 539 
Q 4381 306 4653 306 
Q 4919 306 5073 539 
Q 5228 772 5228 1178 
Q 5228 1588 5073 1820 
Q 4919 2053 4653 2053 
z
M 4653 2450 
Q 5147 2450 5437 2106 
Q 5728 1763 5728 1178 
Q 5728 594 5436 251 
Q 5144 -91 4653 -91 
Q 4153 -91 3862 251 
Q 3572 594 3572 1178 
Q 3572 1766 3864 2108 
Q 4156 2450 4653 2450 
z
M 1428 4353 
Q 1159 4353 1004 4120 
Q 850 3888 850 3481 
Q 850 3069 1003 2837 
Q 1156 2606 1428 2606 
Q 1700 2606 1854 2837 
Q 2009 3069 2009 3481 
Q 2009 3884 1853 4118 
Q 1697 4353 1428 4353 
z
M 4250 4750 
L 4750 4750 
L 1831 -91 
L 1331 -91 
L 4250 4750 
z
M 1428 4750 
Q 1922 4750 2215 4408 
Q 2509 4066 2509 3481 
Q 2509 2891 2217 2550 
Q 1925 2209 1428 2209 
Q 931 2209 642 2551 
Q 353 2894 353 3481 
Q 353 4063 643 4406 
Q 934 4750 1428 4750 
z
" transform="scale(0.015625)"/>
      <path id="DejaVuSans-70" d="M 1159 525 
L 1159 -1331 
L 581 -1331 
L 581 3500 
L 1159 3500 
L 1159 2969 
Q 1341 3281 1617 3432 
Q 1894 3584 2278 3584 
Q 2916 3584 3314 3078 
Q 3713 2572 3713 1747 
Q 3713 922 3314 415 
Q 2916 -91 2278 -91 
Q 1894 -91 1617 61 
Q 1341 213 1159 525 
z
M 3116 1747 
Q 3116 2381 2855 2742 
Q 2594 3103 2138 3103 
Q 1681 3103 1420 2742 
Q 1159 2381 1159 1747 
Q 1159 1113 1420 752 
Q 1681 391 2138 391 
Q 2594 391 2855 752 
Q 3116 1113 3116 1747 
z
" transform="scale(0.015625)"/>
      <path id="DejaVuSans-6f" d="M 1959 3097 
Q 1497 3097 1228 2736 
Q 959 2375 959 1747 
Q 959 1119 1226 758 
Q 1494 397 1959 397 
Q 2419 397 2687 759 
Q 2956 1122 2956 1747 
Q 2956 2369 2687 2733 
Q 2419 3097 1959 3097 
z
M 1959 3584 
Q 2709 3584 3137 3096 
Q 3566 2609 3566 1747 
Q 3566 888 3137 398 
Q 2709 -91 1959 -91 
Q 1206 -91 779 398 
Q 353 888 353 1747 
Q 353 2609 779 3096 
Q 1206 3584 1959 3584 
z
" transform="scale(0.015625)"/>
      <path id="DejaVuSans-77" d="M 269 3500 
L 844 3500 
L 1563 769 
L 2278 3500 
L 2956 3500 
L 3675 769 
L 4391 3500 
L 4966 3500 
L 4050 0 
L 3372 0 
L 2619 2869 
L 1863 0 
L 1184 0 
L 269 3500 
z
" transform="scale(0.015625)"/>
      <path id="DejaVuSans-64" d="M 2906 2969 
L 2906 4863 
L 3481 4863 
L 3481 0 
L 2906 0 
L 2906 525 
Q 2725 213 2448 61 
Q 2172 -91 1784 -91 
Q 1150 -91 751 415 
Q 353 922 353 1747 
Q 353 2572 751 3078 
Q 1150 3584 1784 3584 
Q 2172 3584 2448 3432 
Q 2725 3281 2906 2969 
z
M 947 1747 
Q 947 1113 1208 752 
Q 1469 391 1925 391 
Q 2381 391 2643 752 
Q 2906 1113 2906 1747 
Q 2906 2381 2643 2742 
Q 2381 3103 1925 3103 
Q 1469 3103 1208 2742 
Q 947 2381 947 1747 
z
" transform="scale(0.015625)"/>
     </defs>
     <use xlink:href="#DejaVuSans-36"/>
     <use xlink:href="#DejaVuSans-25" x="63.623047"/>
     <use xlink:href="#DejaVuSans-20" x="158.642578"/>
     <use xlink:href="#DejaVuSans-70" x="190.429688"/>
     <use xlink:href="#DejaVuSans-6f" x="253.90625"/>
     <use xlink:href="#DejaVuSans-6c" x="315.087891"/>
     <use xlink:href="#DejaVuSans-65" x="342.871094"/>
     <use xlink:href="#DejaVuSans-77" x="404.394531"/>
     <use xlink:href="#DejaVuSans-61" x="486.181641"/>
     <use xlink:href="#DejaVuSans-72" x="547.460938"/>
     <use xlink:href="#DejaVuSans-64" x="586.824219"/>
    </g>
    <!-- 73% eastward -->
    <g style="fill: #95a5a6" transform="translate(49.57793 295.608132) scale(0.1 -0.1)">
     <defs>
      <path id="DejaVuSans-37" d="M 525 4666 
L 3525 4666 
L 3525 4397 
L 1831 0 
L 1172 0 
L 2766 4134 
L 525 4134 
L 525 4666 
z
" transform="scale(0.015625)"/>
     </defs>
     <use xlink:href="#DejaVuSans-37"/>
     <use xlink:href="#DejaVuSans-33" x="63.623047"/>
     <use xlink:href="#DejaVuSans-25" x="127.246094"/>
     <use xlink:href="#DejaVuSans-20" x="222.265625"/>
     <use xlink:href="#DejaVuSans-65" x="254.052734"/>
     <use xlink:href="#DejaVuSans-61" x="315.576172"/>
     <use xlink:href="#DejaVuSans-73" x="376.855469"/>
     <use xlink:href="#DejaVuSans-74" x="428.955078"/>
     <use xlink:href="#DejaVuSans-77" x="468.164062"/>
     <use xlink:href="#DejaVuSans-61" x="549.951172"/>
     <use xlink:href="#DejaVuSans-72" x="611.230469"/>
     <use xlink:href="#DejaVuSans-64" x="650.59375"/>
    </g>
   </g>
   <g id="text_8">
    <!-- elevation: -->
    <g style="fill: #95a5a6" transform="translate(247.679882 273.212507) scale(0.1 -0.1)">
     <use xlink:href="#DejaVuSans-65"/>
     <use xlink:href="#DejaVuSans-6c" x="61.523438"/>
     <use xlink:href="#DejaVuSans-65" x="89.306641"/>
     <use xlink:href="#DejaVuSans-76" x="150.830078"/>
     <use xlink:href="#DejaVuSans-61" x="210.009766"/>
     <use xlink:href="#DejaVuSans-74" x="271.289062"/>
     <use xlink:href="#DejaVuSans-69" x="310.498047"/>
     <use xlink:href="#DejaVuSans-6f" x="338.28125"/>
     <use xlink:href="#DejaVuSans-6e" x="399.462891"/>
     <use xlink:href="#DejaVuSans-3a" x="462.841797"/>
    </g>
    <!-- 606 m base -->
    <g style="fill: #95a5a6" transform="translate(239.492382 284.41032) scale(0.1 -0.1)">
     <defs>
      <path id="DejaVuSans-30" d="M 2034 4250 
Q 1547 4250 1301 3770 
Q 1056 3291 1056 2328 
Q 1056 1369 1301 889 
Q 1547 409 2034 409 
Q 2525 409 2770 889 
Q 3016 1369 3016 2328 
Q 3016 3291 2770 3770 
Q 2525 4250 2034 4250 
z
M 2034 4750 
Q 2819 4750 3233 4129 
Q 3647 3509 3647 2328 
Q 3647 1150 3233 529 
Q 2819 -91 2034 -91 
Q 1250 -91 836 529 
Q 422 1150 422 2328 
Q 422 3509 836 4129 
Q 1250 4750 2034 4750 
z
" transform="scale(0.015625)"/>
     </defs>
     <use xlink:href="#DejaVuSans-36"/>
     <use xlink:href="#DejaVuSans-30" x="63.623047"/>
     <use xlink:href="#DejaVuSans-36" x="127.246094"/>
     <use xlink:href="#DejaVuSans-202f" x="190.869141"/>
     <use xlink:href="#DejaVuSans-6d" x="210.839844"/>
     <use xlink:href="#DejaVuSans-20" x="308.251953"/>
     <use xlink:href="#DejaVuSans-62" x="340.039062"/>
     <use xlink:href="#DejaVuSans-61" x="403.515625"/>
     <use xlink:href="#DejaVuSans-73" x="464.794922"/>
     <use xlink:href="#DejaVuSans-65" x="516.894531"/>
    </g>
    <!-- 950 m peak -->
    <g style="fill: #95a5a6" transform="translate(238.911132 295.608132) scale(0.1 -0.1)">
     <defs>
      <path id="DejaVuSans-39" d="M 703 97 
L 703 672 
Q 941 559 1184 500 
Q 1428 441 1663 441 
Q 2288 441 2617 861 
Q 2947 1281 2994 2138 
Q 2813 1869 2534 1725 
Q 2256 1581 1919 1581 
Q 1219 1581 811 2004 
Q 403 2428 403 3163 
Q 403 3881 828 4315 
Q 1253 4750 1959 4750 
Q 2769 4750 3195 4129 
Q 3622 3509 3622 2328 
Q 3622 1225 3098 567 
Q 2575 -91 1691 -91 
Q 1453 -91 1209 -44 
Q 966 3 703 97 
z
M 1959 2075 
Q 2384 2075 2632 2365 
Q 2881 2656 2881 3163 
Q 2881 3666 2632 3958 
Q 2384 4250 1959 4250 
Q 1534 4250 1286 3958 
Q 1038 3666 1038 3163 
Q 1038 2656 1286 2365 
Q 1534 2075 1959 2075 
z
" transform="scale(0.015625)"/>
     </defs>
     <use xlink:href="#DejaVuSans-39"/>
     <use xlink:href="#DejaVuSans-35" x="63.623047"/>
     <use xlink:href="#DejaVuSans-30" x="127.246094"/>
     <use xlink:href="#DejaVuSans-202f" x="190.869141"/>
     <use xlink:href="#DejaVuSans-6d" x="210.839844"/>
     <use xlink:href="#DejaVuSans-20" x="308.251953"/>
     <use xlink:href="#DejaVuSans-70" x="340.039062"/>
     <use xlink:href="#DejaVuSans-65" x="403.515625"/>
     <use xlink:href="#DejaVuSans-61" x="465.039062"/>
     <use xlink:href="#DejaVuSans-6b" x="526.318359"/>
    </g>
   </g>
   <g id="text_9">
    <!-- 氷ノ山国際スキー場, Hyounosen Kokusai -->
    <g transform="translate(7.2 20.8) scale(0.16 -0.16)">
     <defs>
      <path id="NotoSansCJKjp-Bold-6c37" d="M 704 4640 
C 1165 4326 1760 3872 2022 3565 
L 2605 4134 
C 2304 4435 1696 4864 1242 5139 
L 704 4640 
z
M 384 3264 
L 384 2515 
L 1658 2515 
C 1370 1606 838 902 160 493 
C 339 378 640 64 762 -115 
C 1632 461 2317 1568 2618 3091 
L 2106 3296 
L 1965 3264 
L 384 3264 
z
M 5370 4486 
C 5050 4051 4550 3526 4096 3123 
C 3917 3507 3770 3904 3654 4320 
L 3654 5440 
L 2861 5440 
L 2861 403 
C 2861 288 2816 250 2701 250 
C 2573 243 2176 243 1786 262 
C 1901 26 2022 -352 2048 -582 
C 2618 -582 3040 -550 3309 -416 
C 3565 -288 3654 -58 3654 397 
L 3654 2445 
C 4134 1363 4794 467 5696 -90 
C 5830 134 6099 448 6291 602 
C 5517 1011 4896 1683 4422 2490 
C 4941 2886 5568 3456 6086 3968 
L 5370 4486 
z
" transform="scale(0.015625)"/>
      <path id="NotoSansCJKjp-Bold-30ce" d="M 5338 4685 
L 4339 4941 
C 4166 4026 3744 2918 3130 2176 
C 2560 1485 1696 851 698 512 
L 1427 -237 
C 2413 160 3309 941 3853 1619 
C 4371 2266 4787 3232 5056 3968 
C 5133 4173 5222 4454 5338 4685 
z
" transform="scale(0.015625)"/>
      <path id="NotoSansCJKjp-Bold-5c71" d="M 5030 3891 
L 5030 717 
L 3578 717 
L 3578 5261 
L 2771 5261 
L 2771 717 
L 1382 717 
L 1382 3878 
L 589 3878 
L 589 -499 
L 1382 -499 
L 1382 -70 
L 5030 -70 
L 5030 -480 
L 5830 -480 
L 5830 3891 
L 5030 3891 
z
" transform="scale(0.015625)"/>
      <path id="NotoSansCJKjp-Bold-56fd" d="M 1523 1453 
L 1523 826 
L 4858 826 
L 4858 1453 
L 4403 1453 
L 4736 1638 
C 4634 1798 4429 2035 4256 2214 
L 4608 2214 
L 4608 2861 
L 3520 2861 
L 3520 3469 
L 4749 3469 
L 4749 4134 
L 1587 4134 
L 1587 3469 
L 2810 3469 
L 2810 2861 
L 1760 2861 
L 1760 2214 
L 2810 2214 
L 2810 1453 
L 1523 1453 
z
M 3725 2010 
C 3872 1843 4051 1626 4160 1453 
L 3520 1453 
L 3520 2214 
L 4122 2214 
L 3725 2010 
z
M 486 5184 
L 486 -563 
L 1267 -563 
L 1267 -250 
L 5075 -250 
L 5075 -563 
L 5894 -563 
L 5894 5184 
L 486 5184 
z
M 1267 461 
L 1267 4480 
L 5075 4480 
L 5075 461 
L 1267 461 
z
" transform="scale(0.015625)"/>
      <path id="NotoSansCJKjp-Bold-969b" d="M 4749 755 
C 5037 410 5370 -64 5504 -378 
L 6125 -45 
C 5971 269 5626 730 5331 1056 
L 4749 755 
z
M 2611 1024 
C 2464 640 2195 243 1907 -32 
C 2067 -115 2349 -288 2490 -390 
C 2771 -90 3091 390 3277 851 
L 2611 1024 
z
M 442 5158 
L 442 -576 
L 1107 -576 
L 1107 1293 
C 1197 1114 1229 864 1229 698 
C 1344 698 1459 698 1549 710 
C 1677 736 1786 768 1869 845 
C 2042 986 2118 1267 2118 1683 
C 2118 1926 2093 2189 2010 2477 
C 2138 2349 2285 2150 2362 2016 
C 2598 2157 2822 2323 3021 2522 
L 3021 2246 
L 5126 2246 
L 5126 2586 
C 5338 2381 5568 2202 5837 2054 
C 5939 2227 6144 2490 6291 2618 
C 5939 2784 5645 3021 5395 3315 
C 5696 3699 5965 4256 6138 4774 
L 5722 5018 
L 5600 4986 
L 4749 4986 
L 4749 4454 
C 4646 4730 4563 5018 4499 5325 
L 3891 5210 
L 3968 4890 
L 3776 4960 
L 3661 4934 
L 3232 4934 
C 3283 5050 3322 5171 3360 5293 
L 2771 5414 
C 2611 4870 2342 4358 1984 3974 
L 2202 4928 
L 1747 5184 
L 1651 5158 
L 442 5158 
z
M 3322 2854 
C 3661 3277 3923 3802 4096 4429 
C 4288 3821 4544 3283 4890 2854 
L 3322 2854 
z
M 2438 1856 
L 2438 1235 
L 3738 1235 
L 3738 147 
C 3738 83 3712 70 3635 64 
C 3558 64 3302 64 3066 70 
C 3155 -102 3264 -378 3296 -576 
C 3686 -576 3962 -563 4179 -461 
C 4403 -358 4454 -186 4454 134 
L 4454 1235 
L 5754 1235 
L 5754 1856 
L 2438 1856 
z
M 3437 4435 
C 3398 4307 3354 4186 3302 4064 
C 3200 4141 3059 4224 2931 4294 
L 3008 4435 
L 3437 4435 
z
M 3104 3667 
L 2970 3456 
C 2861 3552 2707 3661 2573 3757 
L 2714 3949 
C 2854 3866 3002 3757 3104 3667 
z
M 2701 3117 
C 2490 2880 2253 2682 1990 2547 
C 1933 2720 1856 2899 1747 3085 
L 1875 3552 
C 1984 3462 2086 3366 2150 3302 
L 2304 3450 
C 2445 3347 2598 3219 2701 3117 
z
M 5325 4442 
C 5242 4230 5146 4019 5037 3834 
C 4928 4026 4832 4224 4755 4442 
L 5325 4442 
z
M 1107 1318 
L 1107 4480 
L 1459 4480 
C 1382 4026 1274 3437 1171 3027 
C 1459 2541 1498 2106 1498 1779 
C 1498 1581 1478 1427 1421 1370 
C 1382 1331 1331 1312 1286 1312 
L 1107 1318 
z
" transform="scale(0.015625)"/>
      <path id="NotoSansCJKjp-Bold-30b9" d="M 5338 4339 
L 4813 4730 
C 4685 4685 4429 4646 4154 4646 
C 3866 4646 2227 4646 1894 4646 
C 1702 4646 1312 4666 1139 4691 
L 1139 3782 
C 1274 3789 1626 3827 1894 3827 
C 2170 3827 3802 3827 4064 3827 
C 3923 3373 3533 2739 3110 2259 
C 2509 1587 1517 806 486 422 
L 1146 -269 
C 2022 147 2874 813 3552 1523 
C 4154 947 4749 294 5165 -282 
L 5894 352 
C 5517 813 4742 1632 4109 2182 
C 4538 2765 4896 3443 5114 3942 
C 5171 4070 5286 4269 5338 4339 
z
" transform="scale(0.015625)"/>
      <path id="NotoSansCJKjp-Bold-30ad" d="M 589 1875 
L 768 1018 
C 915 1056 1133 1101 1408 1152 
L 2938 1414 
L 3155 250 
C 3194 64 3213 -160 3238 -397 
L 4166 -230 
C 4109 -26 4045 205 4000 397 
L 3770 1549 
L 5158 1773 
C 5402 1811 5664 1856 5837 1869 
L 5664 2714 
C 5498 2662 5261 2611 5011 2560 
C 4723 2502 4198 2413 3622 2317 
L 3424 3341 
L 4704 3546 
C 4896 3571 5152 3610 5293 3622 
L 5139 4461 
C 4986 4416 4742 4365 4538 4326 
L 3277 4115 
L 3174 4704 
C 3142 4858 3123 5075 3104 5203 
L 2202 5056 
C 2246 4902 2291 4749 2330 4570 
L 2445 3987 
C 1894 3898 1402 3827 1178 3802 
C 979 3776 787 3763 582 3757 
L 755 2874 
C 973 2931 1139 2963 1344 3008 
L 2598 3213 
L 2790 2182 
L 1254 1946 
C 1050 1920 762 1882 589 1875 
z
" transform="scale(0.015625)"/>
      <path id="NotoSansCJKjp-Bold-30fc" d="M 589 2963 
L 589 1958 
C 826 1971 1254 1990 1619 1990 
C 2368 1990 4480 1990 5056 1990 
C 5325 1990 5651 1965 5805 1958 
L 5805 2963 
C 5638 2950 5357 2925 5056 2925 
C 4480 2925 2374 2925 1619 2925 
C 1286 2925 819 2944 589 2963 
z
" transform="scale(0.015625)"/>
      <path id="NotoSansCJKjp-Bold-5834" d="M 3405 3936 
L 5056 3936 
L 5056 3629 
L 3405 3629 
L 3405 3936 
z
M 3405 4742 
L 5056 4742 
L 5056 4442 
L 3405 4442 
L 3405 4742 
z
M 2720 5274 
L 2720 3098 
L 5766 3098 
L 5766 5274 
L 2720 5274 
z
M 141 1248 
L 429 474 
C 826 666 1286 890 1754 1126 
C 1907 1024 2144 794 2253 672 
C 2509 838 2758 1056 2989 1299 
L 3373 1299 
C 3027 826 2541 384 2067 141 
C 2246 26 2445 -160 2566 -314 
C 3123 45 3731 685 4070 1299 
L 4448 1299 
C 4173 710 3738 134 3251 -173 
C 3443 -275 3674 -454 3802 -602 
C 4320 -192 4826 582 5088 1299 
L 5331 1299 
C 5261 531 5184 198 5094 102 
C 5043 45 4992 32 4909 32 
C 4819 32 4653 32 4448 51 
C 4544 -109 4608 -371 4621 -550 
C 4883 -563 5120 -557 5267 -538 
C 5434 -512 5574 -467 5696 -320 
C 5869 -128 5971 390 6061 1638 
C 6074 1728 6080 1907 6080 1907 
L 3462 1907 
C 3526 2003 3584 2106 3642 2208 
L 6208 2208 
L 6208 2854 
L 2157 2854 
L 2157 2208 
L 2880 2208 
C 2726 1958 2522 1728 2298 1530 
L 2157 2080 
L 1651 1856 
L 1651 3366 
L 2240 3366 
L 2240 4090 
L 1651 4090 
L 1651 5357 
L 934 5357 
L 934 4090 
L 288 4090 
L 288 3366 
L 934 3366 
L 934 1555 
C 634 1434 358 1325 141 1248 
z
" transform="scale(0.015625)"/>
      <path id="DejaVuSans-Bold-2c" d="M 653 1209 
L 1778 1209 
L 1778 256 
L 1006 -909 
L 341 -909 
L 653 256 
L 653 1209 
z
" transform="scale(0.015625)"/>
      <path id="DejaVuSans-Bold-20" transform="scale(0.015625)"/>
      <path id="DejaVuSans-Bold-48" d="M 588 4666 
L 1791 4666 
L 1791 2888 
L 3566 2888 
L 3566 4666 
L 4769 4666 
L 4769 0 
L 3566 0 
L 3566 1978 
L 1791 1978 
L 1791 0 
L 588 0 
L 588 4666 
z
" transform="scale(0.015625)"/>
      <path id="DejaVuSans-Bold-79" d="M 78 3500 
L 1197 3500 
L 2138 1125 
L 2938 3500 
L 4056 3500 
L 2584 -331 
Q 2363 -916 2067 -1148 
Q 1772 -1381 1288 -1381 
L 641 -1381 
L 641 -647 
L 991 -647 
Q 1275 -647 1404 -556 
Q 1534 -466 1606 -231 
L 1638 -134 
L 78 3500 
z
" transform="scale(0.015625)"/>
      <path id="DejaVuSans-Bold-6f" d="M 2203 2784 
Q 1831 2784 1636 2517 
Q 1441 2250 1441 1747 
Q 1441 1244 1636 976 
Q 1831 709 2203 709 
Q 2569 709 2762 976 
Q 2956 1244 2956 1747 
Q 2956 2250 2762 2517 
Q 2569 2784 2203 2784 
z
M 2203 3584 
Q 3106 3584 3614 3096 
Q 4122 2609 4122 1747 
Q 4122 884 3614 396 
Q 3106 -91 2203 -91 
Q 1297 -91 786 396 
Q 275 884 275 1747 
Q 275 2609 786 3096 
Q 1297 3584 2203 3584 
z
" transform="scale(0.015625)"/>
      <path id="DejaVuSans-Bold-75" d="M 500 1363 
L 500 3500 
L 1625 3500 
L 1625 3150 
Q 1625 2866 1622 2436 
Q 1619 2006 1619 1863 
Q 1619 1441 1641 1255 
Q 1663 1069 1716 984 
Q 1784 875 1895 815 
Q 2006 756 2150 756 
Q 2500 756 2700 1025 
Q 2900 1294 2900 1772 
L 2900 3500 
L 4019 3500 
L 4019 0 
L 2900 0 
L 2900 506 
Q 2647 200 2364 54 
Q 2081 -91 1741 -91 
Q 1134 -91 817 281 
Q 500 653 500 1363 
z
" transform="scale(0.015625)"/>
      <path id="DejaVuSans-Bold-6e" d="M 4056 2131 
L 4056 0 
L 2931 0 
L 2931 347 
L 2931 1631 
Q 2931 2084 2911 2256 
Q 2891 2428 2841 2509 
Q 2775 2619 2662 2680 
Q 2550 2741 2406 2741 
Q 2056 2741 1856 2470 
Q 1656 2200 1656 1722 
L 1656 0 
L 538 0 
L 538 3500 
L 1656 3500 
L 1656 2988 
Q 1909 3294 2193 3439 
Q 2478 3584 2822 3584 
Q 3428 3584 3742 3212 
Q 4056 2841 4056 2131 
z
" transform="scale(0.015625)"/>
      <path id="DejaVuSans-Bold-73" d="M 3272 3391 
L 3272 2541 
Q 2913 2691 2578 2766 
Q 2244 2841 1947 2841 
Q 1628 2841 1473 2761 
Q 1319 2681 1319 2516 
Q 1319 2381 1436 2309 
Q 1553 2238 1856 2203 
L 2053 2175 
Q 2913 2066 3209 1816 
Q 3506 1566 3506 1031 
Q 3506 472 3093 190 
Q 2681 -91 1863 -91 
Q 1516 -91 1145 -36 
Q 775 19 384 128 
L 384 978 
Q 719 816 1070 734 
Q 1422 653 1784 653 
Q 2113 653 2278 743 
Q 2444 834 2444 1013 
Q 2444 1163 2330 1236 
Q 2216 1309 1875 1350 
L 1678 1375 
Q 931 1469 631 1722 
Q 331 1975 331 2491 
Q 331 3047 712 3315 
Q 1094 3584 1881 3584 
Q 2191 3584 2531 3537 
Q 2872 3491 3272 3391 
z
" transform="scale(0.015625)"/>
      <path id="DejaVuSans-Bold-65" d="M 4031 1759 
L 4031 1441 
L 1416 1441 
Q 1456 1047 1700 850 
Q 1944 653 2381 653 
Q 2734 653 3104 758 
Q 3475 863 3866 1075 
L 3866 213 
Q 3469 63 3072 -14 
Q 2675 -91 2278 -91 
Q 1328 -91 801 392 
Q 275 875 275 1747 
Q 275 2603 792 3093 
Q 1309 3584 2216 3584 
Q 3041 3584 3536 3087 
Q 4031 2591 4031 1759 
z
M 2881 2131 
Q 2881 2450 2695 2645 
Q 2509 2841 2209 2841 
Q 1884 2841 1681 2658 
Q 1478 2475 1428 2131 
L 2881 2131 
z
" transform="scale(0.015625)"/>
      <path id="DejaVuSans-Bold-4b" d="M 588 4666 
L 1791 4666 
L 1791 2963 
L 3525 4666 
L 4922 4666 
L 2675 2456 
L 5153 0 
L 3647 0 
L 1791 1838 
L 1791 0 
L 588 0 
L 588 4666 
z
" transform="scale(0.015625)"/>
      <path id="DejaVuSans-Bold-6b" d="M 538 4863 
L 1656 4863 
L 1656 2216 
L 2944 3500 
L 4244 3500 
L 2534 1894 
L 4378 0 
L 3022 0 
L 1656 1459 
L 1656 0 
L 538 0 
L 538 4863 
z
" transform="scale(0.015625)"/>
      <path id="DejaVuSans-Bold-61" d="M 2106 1575 
Q 1756 1575 1579 1456 
Q 1403 1338 1403 1106 
Q 1403 894 1545 773 
Q 1688 653 1941 653 
Q 2256 653 2472 879 
Q 2688 1106 2688 1447 
L 2688 1575 
L 2106 1575 
z
M 3816 1997 
L 3816 0 
L 2688 0 
L 2688 519 
Q 2463 200 2181 54 
Q 1900 -91 1497 -91 
Q 953 -91 614 226 
Q 275 544 275 1050 
Q 275 1666 698 1953 
Q 1122 2241 2028 2241 
L 2688 2241 
L 2688 2328 
Q 2688 2594 2478 2717 
Q 2269 2841 1825 2841 
Q 1466 2841 1156 2769 
Q 847 2697 581 2553 
L 581 3406 
Q 941 3494 1303 3539 
Q 1666 3584 2028 3584 
Q 2975 3584 3395 3211 
Q 3816 2838 3816 1997 
z
" transform="scale(0.015625)"/>
      <path id="DejaVuSans-Bold-69" d="M 538 3500 
L 1656 3500 
L 1656 0 
L 538 0 
L 538 3500 
z
M 538 4863 
L 1656 4863 
L 1656 3950 
L 538 3950 
L 538 4863 
z
" transform="scale(0.015625)"/>
     </defs>
     <use xlink:href="#NotoSansCJKjp-Bold-6c37"/>
     <use xlink:href="#NotoSansCJKjp-Bold-30ce" x="99.999985"/>
     <use xlink:href="#NotoSansCJKjp-Bold-5c71" x="199.999969"/>
     <use xlink:href="#NotoSansCJKjp-Bold-56fd" x="299.999954"/>
     <use xlink:href="#NotoSansCJKjp-Bold-969b" x="399.999939"/>
     <use xlink:href="#NotoSansCJKjp-Bold-30b9" x="499.999924"/>
     <use xlink:href="#NotoSansCJKjp-Bold-30ad" x="599.999908"/>
     <use xlink:href="#NotoSansCJKjp-Bold-30fc" x="699.999893"/>
     <use xlink:href="#NotoSansCJKjp-Bold-5834" x="799.999878"/>
     <use xlink:href="#DejaVuSans-Bold-2c" x="899.999863"/>
     <use xlink:href="#DejaVuSans-Bold-20" x="937.988144"/>
     <use xlink:href="#DejaVuSans-Bold-48" x="972.802597"/>
     <use xlink:href="#DejaVuSans-Bold-79" x="1056.494003"/>
     <use xlink:href="#DejaVuSans-Bold-6f" x="1121.67955"/>
     <use xlink:href="#DejaVuSans-Bold-75" x="1190.380722"/>
     <use xlink:href="#DejaVuSans-Bold-6e" x="1261.572128"/>
     <use xlink:href="#DejaVuSans-Bold-6f" x="1332.763535"/>
     <use xlink:href="#DejaVuSans-Bold-73" x="1401.464706"/>
     <use xlink:href="#DejaVuSans-Bold-65" x="1460.986191"/>
     <use xlink:href="#DejaVuSans-Bold-6e" x="1528.808456"/>
     <use xlink:href="#DejaVuSans-Bold-20" x="1599.999863"/>
     <use xlink:href="#DejaVuSans-Bold-4b" x="1634.814316"/>
     <use xlink:href="#DejaVuSans-Bold-6f" x="1710.55455"/>
     <use xlink:href="#DejaVuSans-Bold-6b" x="1779.255722"/>
     <use xlink:href="#DejaVuSans-Bold-75" x="1845.759628"/>
     <use xlink:href="#DejaVuSans-Bold-73" x="1916.951035"/>
     <use xlink:href="#DejaVuSans-Bold-61" x="1976.472519"/>
     <use xlink:href="#DejaVuSans-Bold-69" x="2043.952988"/>
    </g>
    <!-- Ski Resort -->
    <g transform="translate(127.235 38.8415) scale(0.16 -0.16)">
     <defs>
      <path id="DejaVuSans-Bold-52" d="M 2297 2597 
Q 2675 2597 2839 2737 
Q 3003 2878 3003 3200 
Q 3003 3519 2839 3656 
Q 2675 3794 2297 3794 
L 1791 3794 
L 1791 2597 
L 2297 2597 
z
M 1791 1766 
L 1791 0 
L 588 0 
L 588 4666 
L 2425 4666 
Q 3347 4666 3776 4356 
Q 4206 4047 4206 3378 
Q 4206 2916 3982 2619 
Q 3759 2322 3309 2181 
Q 3556 2125 3751 1926 
Q 3947 1728 4147 1325 
L 4800 0 
L 3519 0 
L 2950 1159 
Q 2778 1509 2601 1637 
Q 2425 1766 2131 1766 
L 1791 1766 
z
" transform="scale(0.015625)"/>
      <path id="DejaVuSans-Bold-72" d="M 3138 2547 
Q 2991 2616 2845 2648 
Q 2700 2681 2553 2681 
Q 2122 2681 1889 2404 
Q 1656 2128 1656 1613 
L 1656 0 
L 538 0 
L 538 3500 
L 1656 3500 
L 1656 2925 
Q 1872 3269 2151 3426 
Q 2431 3584 2822 3584 
Q 2878 3584 2943 3579 
Q 3009 3575 3134 3559 
L 3138 2547 
z
" transform="scale(0.015625)"/>
      <path id="DejaVuSans-Bold-74" d="M 1759 4494 
L 1759 3500 
L 2913 3500 
L 2913 2700 
L 1759 2700 
L 1759 1216 
Q 1759 972 1856 886 
Q 1953 800 2241 800 
L 2816 800 
L 2816 0 
L 1856 0 
Q 1194 0 917 276 
Q 641 553 641 1216 
L 641 2700 
L 84 2700 
L 84 3500 
L 641 3500 
L 641 4494 
L 1759 4494 
z
" transform="scale(0.015625)"/>
     </defs>
     <use xlink:href="#DejaVuSans-Bold-53"/>
     <use xlink:href="#DejaVuSans-Bold-6b" x="72.021484"/>
     <use xlink:href="#DejaVuSans-Bold-69" x="138.525391"/>
     <use xlink:href="#DejaVuSans-Bold-20" x="172.802734"/>
     <use xlink:href="#DejaVuSans-Bold-52" x="207.617188"/>
     <use xlink:href="#DejaVuSans-Bold-65" x="284.619141"/>
     <use xlink:href="#DejaVuSans-Bold-73" x="352.441406"/>
     <use xlink:href="#DejaVuSans-Bold-6f" x="411.962891"/>
     <use xlink:href="#DejaVuSans-Bold-72" x="480.664062"/>
     <use xlink:href="#DejaVuSans-Bold-74" x="529.980469"/>
    </g>
   </g>
  </g>
 </g>
 <defs>
  <clipPath id="p8a0f959efc">
   <path d="M 284.33625 173.8095 
C 284.33625 159.248872 281.468124 144.829827 275.896013 131.377561 
C 270.323901 117.925295 262.156169 105.701419 251.86025 95.4055 
C 241.564331 85.109581 229.340455 76.941849 215.888189 71.369737 
C 202.435923 65.797626 188.016878 62.9295 173.45625 62.9295 
C 158.895622 62.9295 144.476577 65.797626 131.024311 71.369737 
C 117.572045 76.941849 105.348169 85.109581 95.05225 95.4055 
C 84.756331 105.701419 76.588599 117.925295 71.016487 131.377561 
C 65.444376 144.829827 62.57625 159.248872 62.57625 173.8095 
C 62.57625 188.370128 65.444376 202.789173 71.016487 216.241439 
C 76.588599 229.693705 84.756331 241.917581 95.05225 252.2135 
C 105.348169 262.509419 117.572045 270.677151 131.024311 276.249263 
C 144.476577 281.821374 158.895622 284.6895 173.45625 284.6895 
C 188.016878 284.6895 202.435923 281.821374 215.888189 276.249263 
C 229.340455 270.677151 241.564331 262.509419 251.86025 252.2135 
C 262.156169 241.917581 270.323901 229.693705 275.896013 216.241439 
C 281.468124 202.789173 284.33625 188.370128 284.33625 173.8095 
M 173.45625 173.8095 
C 173.45625 173.8095 173.45625 173.8095 173.45625 173.8095 
C 173.45625 173.8095 173.45625 173.8095 173.45625 173.8095 
C 173.45625 173.8095 173.45625 173.8095 173.45625 173.8095 
C 173.45625 173.8095 173.45625 173.8095 173.45625 173.8095 
C 173.45625 173.8095 173.45625 173.8095 173.45625 173.8095 
C 173.45625 173.8095 173.45625 173.8095 173.45625 173.8095 
C 173.45625 173.8095 173.45625 173.8095 173.45625 173.8095 
C 173.45625 173.8095 173.45625 173.8095 173.45625 173.8095 
C 173.45625 173.8095 173.45625 173.8095 173.45625 173.8095 
C 173.45625 173.8095 173.45625 173.8095 173.45625 173.8095 
C 173.45625 173.8095 173.45625 173.8095 173.45625 173.8095 
C 173.45625 173.8095 173.45625 173.8095 173.45625 173.8095 
C 173.45625 173.8095 173.45625 173.8095 173.45625 173.8095 
C 173.45625 173.8095 173.45625 173.8095 173.45625 173.8095 
C 173.45625 173.8095 173.45625 173.8095 173.45625 173.8095 
C 173.45625 173.8095 173.45625 173.8095 173.45625 173.8095 
z
"/>
  </clipPath>
 </defs>
</svg>
