<?xml version="1.0" encoding="utf-8" standalone="no"?>
<!DOCTYPE svg PUBLIC "-//W3C//DTD SVG 1.1//EN"
  "http://www.w3.org/Graphics/SVG/1.1/DTD/svg11.dtd">
<svg xmlns:xlink="http://www.w3.org/1999/xlink" width="343.5425pt" height="285.969562pt" viewBox="0 0 343.5425 285.969562" xmlns="http://www.w3.org/2000/svg" version="1.1">
 <title>Ski Rose for Hakodate Nanae (函館七飯スノーパーク)</title>
 <metadata>
  <rdf:RDF xmlns:dc="http://purl.org/dc/elements/1.1/" xmlns:cc="http://creativecommons.org/ns#" xmlns:rdf="http://www.w3.org/1999/02/22-rdf-syntax-ns#">
   <cc:Work>
    <dc:type rdf:resource="http://purl.org/dc/dcmitype/StillImage"/>
    <dc:title>Ski Rose for Hakodate Nanae (函館七飯スノーパーク)</dc:title>
    <dc:date>2024-12-20T01:54:09.443741</dc:date>
    <dc:description>A 32-bin histogram of downhill ski trail orientations generated from &lt;https://openskimap.org/?obj=1d3cfb0df6814018a45ad4b11c6263da93312725&gt;.</dc:description>
    <dc:format>image/svg+xml</dc:format>
    <dc:creator>
     <cc:Agent>
      <dc:title>https://github.com/dhimmel/openskistats</dc:title>
     </cc:Agent>
    </dc:creator>
   </cc:Work>
  </rdf:RDF>
 </metadata>
 <defs>
  <style type="text/css">*{stroke-linejoin: round; stroke-linecap: butt}</style>
 </defs>
 <g id="figure_1">
  <g id="patch_1">
   <path d="M 0 285.969562 
L 343.5425 285.969562 
L 343.5425 0 
L 0 0 
z
" style="fill: #ffffff"/>
  </g>
  <g id="axes_1">
   <g id="patch_2">
    <path d="M 282.65125 154.5505 
C 282.65125 139.989872 279.783124 125.570827 274.211013 112.118561 
C 268.638901 98.666295 260.471169 86.442419 250.17525 76.1465 
C 239.879331 65.850581 227.655455 57.682849 214.203189 52.110737 
C 200.750923 46.538626 186.331878 43.6705 171.77125 43.6705 
C 157.210622 43.6705 142.791577 46.538626 129.339311 52.110737 
C 115.887045 57.682849 103.663169 65.850581 93.36725 76.1465 
C 83.071331 86.442419 74.903599 98.666295 69.331487 112.118561 
C 63.759376 125.570827 60.89125 139.989872 60.89125 154.5505 
C 60.89125 169.111128 63.759376 183.530173 69.331487 196.982439 
C 74.903599 210.434705 83.071331 222.658581 93.36725 232.9545 
C 103.663169 243.250419 115.887045 251.418151 129.339311 256.990263 
C 142.791577 262.562374 157.210622 265.4305 171.77125 265.4305 
C 186.331878 265.4305 200.750923 262.562374 214.203189 256.990263 
C 227.655455 251.418151 239.879331 243.250419 250.17525 232.9545 
C 260.471169 222.658581 268.638901 210.434705 274.211013 196.982439 
C 279.783124 183.530173 282.65125 169.111128 282.65125 154.5505 
M 171.77125 154.5505 
C 171.77125 154.5505 171.77125 154.5505 171.77125 154.5505 
C 171.77125 154.5505 171.77125 154.5505 171.77125 154.5505 
C 171.77125 154.5505 171.77125 154.5505 171.77125 154.5505 
C 171.77125 154.5505 171.77125 154.5505 171.77125 154.5505 
C 171.77125 154.5505 171.77125 154.5505 171.77125 154.5505 
C 171.77125 154.5505 171.77125 154.5505 171.77125 154.5505 
C 171.77125 154.5505 171.77125 154.5505 171.77125 154.5505 
C 171.77125 154.5505 171.77125 154.5505 171.77125 154.5505 
C 171.77125 154.5505 171.77125 154.5505 171.77125 154.5505 
C 171.77125 154.5505 171.77125 154.5505 171.77125 154.5505 
C 171.77125 154.5505 171.77125 154.5505 171.77125 154.5505 
C 171.77125 154.5505 171.77125 154.5505 171.77125 154.5505 
C 171.77125 154.5505 171.77125 154.5505 171.77125 154.5505 
C 171.77125 154.5505 171.77125 154.5505 171.77125 154.5505 
C 171.77125 154.5505 171.77125 154.5505 171.77125 154.5505 
C 171.77125 154.5505 171.77125 154.5505 171.77125 154.5505 
z
" style="fill: #ffffff"/>
   </g>
   <g id="matplotlib.axis_1">
    <g id="xtick_1">
     <g id="line2d_1">
      <path d="M 171.77125 154.5505 
L 171.77125 43.6705 
" clip-path="url(#p66493bd329)" style="fill: none; stroke: #b0b0b0; stroke-width: 0.8; stroke-linecap: square"/>
     </g>
     <g id="text_1">
      <!-- N -->
      <g transform="translate(167.586875 37.929875) scale(0.1 -0.1)">
       <defs>
        <path id="DejaVuSans-Bold-4e" d="M 588 4666 
L 1931 4666 
L 3628 1466 
L 3628 4666 
L 4769 4666 
L 4769 0 
L 3425 0 
L 1728 3200 
L 1728 0 
L 588 0 
L 588 4666 
z
" transform="scale(0.015625)"/>
       </defs>
       <use xlink:href="#DejaVuSans-Bold-4e"/>
      </g>
     </g>
    </g>
    <g id="xtick_2">
     <g id="line2d_2">
      <path d="M 171.77125 154.5505 
L 250.17525 76.1465 
" clip-path="url(#p66493bd329)" style="fill: none; stroke: #b0b0b0; stroke-width: 0.8; stroke-linecap: square"/>
     </g>
    </g>
    <g id="xtick_3">
     <g id="line2d_3">
      <path d="M 171.77125 154.5505 
L 282.65125 154.5505 
" clip-path="url(#p66493bd329)" style="fill: none; stroke: #b0b0b0; stroke-width: 0.8; stroke-linecap: square"/>
     </g>
     <g id="text_2">
      <!-- E -->
      <g transform="translate(287.735625 157.309875) scale(0.1 -0.1)">
       <defs>
        <path id="DejaVuSans-Bold-45" d="M 588 4666 
L 3834 4666 
L 3834 3756 
L 1791 3756 
L 1791 2888 
L 3713 2888 
L 3713 1978 
L 1791 1978 
L 1791 909 
L 3903 909 
L 3903 0 
L 588 0 
L 588 4666 
z
" transform="scale(0.015625)"/>
       </defs>
       <use xlink:href="#DejaVuSans-Bold-45"/>
      </g>
     </g>
    </g>
    <g id="xtick_4">
     <g id="line2d_4">
      <path d="M 171.77125 154.5505 
L 250.17525 232.9545 
" clip-path="url(#p66493bd329)" style="fill: none; stroke: #b0b0b0; stroke-width: 0.8; stroke-linecap: square"/>
     </g>
    </g>
    <g id="xtick_5">
     <g id="line2d_5">
      <path d="M 171.77125 154.5505 
L 171.77125 265.4305 
" clip-path="url(#p66493bd329)" style="fill: none; stroke: #b0b0b0; stroke-width: 0.8; stroke-linecap: square"/>
     </g>
     <g id="text_3">
      <!-- S -->
      <g transform="translate(168.170469 276.689875) scale(0.1 -0.1)">
       <defs>
        <path id="DejaVuSans-Bold-53" d="M 3834 4519 
L 3834 3531 
Q 3450 3703 3084 3790 
Q 2719 3878 2394 3878 
Q 1963 3878 1756 3759 
Q 1550 3641 1550 3391 
Q 1550 3203 1689 3098 
Q 1828 2994 2194 2919 
L 2706 2816 
Q 3484 2659 3812 2340 
Q 4141 2022 4141 1434 
Q 4141 663 3683 286 
Q 3225 -91 2284 -91 
Q 1841 -91 1394 -6 
Q 947 78 500 244 
L 500 1259 
Q 947 1022 1364 901 
Q 1781 781 2169 781 
Q 2563 781 2772 912 
Q 2981 1044 2981 1288 
Q 2981 1506 2839 1625 
Q 2697 1744 2272 1838 
L 1806 1941 
Q 1106 2091 782 2419 
Q 459 2747 459 3303 
Q 459 4000 909 4375 
Q 1359 4750 2203 4750 
Q 2588 4750 2994 4692 
Q 3400 4634 3834 4519 
z
" transform="scale(0.015625)"/>
       </defs>
       <use xlink:href="#DejaVuSans-Bold-53"/>
      </g>
     </g>
    </g>
    <g id="xtick_6">
     <g id="line2d_6">
      <path d="M 171.77125 154.5505 
L 93.36725 232.9545 
" clip-path="url(#p66493bd329)" style="fill: none; stroke: #b0b0b0; stroke-width: 0.8; stroke-linecap: square"/>
     </g>
    </g>
    <g id="xtick_7">
     <g id="line2d_7">
      <path d="M 171.77125 154.5505 
L 60.89125 154.5505 
" clip-path="url(#p66493bd329)" style="fill: none; stroke: #b0b0b0; stroke-width: 0.8; stroke-linecap: square"/>
     </g>
     <g id="text_4">
      <!-- W -->
      <g transform="translate(46.876406 157.309875) scale(0.1 -0.1)">
       <defs>
        <path id="DejaVuSans-Bold-57" d="M 191 4666 
L 1344 4666 
L 2150 1275 
L 2950 4666 
L 4109 4666 
L 4909 1275 
L 5716 4666 
L 6859 4666 
L 5759 0 
L 4372 0 
L 3525 3547 
L 2688 0 
L 1300 0 
L 191 4666 
z
" transform="scale(0.015625)"/>
       </defs>
       <use xlink:href="#DejaVuSans-Bold-57"/>
      </g>
     </g>
    </g>
    <g id="xtick_8">
     <g id="line2d_8">
      <path d="M 171.77125 154.5505 
L 93.36725 76.1465 
" clip-path="url(#p66493bd329)" style="fill: none; stroke: #b0b0b0; stroke-width: 0.8; stroke-linecap: square"/>
     </g>
    </g>
   </g>
   <g id="matplotlib.axis_2"/>
   <g id="patch_3">
    <path d="M 171.77125 154.5505 
C 171.77125 154.5505 171.77125 154.5505 171.77125 154.5505 
C 171.77125 154.5505 171.77125 154.5505 171.77125 154.5505 
L 178.375757 87.493819 
C 176.180891 87.277643 173.976735 87.16936 171.77125 87.16936 
C 169.565765 87.16936 167.361609 87.277643 165.166743 87.493819 
z
" clip-path="url(#p66493bd329)" style="fill: #d4a0a7; stroke: #000000; stroke-width: 0.5; stroke-linejoin: miter"/>
   </g>
   <g id="patch_4">
    <path d="M 171.77125 154.5505 
C 171.77125 154.5505 171.77125 154.5505 171.77125 154.5505 
C 171.77125 154.5505 171.77125 154.5505 171.77125 154.5505 
L 188.413234 99.689232 
C 186.617542 99.144515 184.796189 98.68829 182.955753 98.322205 
C 181.115317 97.956119 179.258017 97.680615 177.39056 97.496686 
z
" clip-path="url(#p66493bd329)" style="fill: #d4a0a7; stroke: #000000; stroke-width: 0.5; stroke-linejoin: miter"/>
   </g>
   <g id="patch_5">
    <path d="M 171.77125 154.5505 
C 171.77125 154.5505 171.77125 154.5505 171.77125 154.5505 
C 171.77125 154.5505 171.77125 154.5505 171.77125 154.5505 
L 189.62493 121.148614 
C 188.531636 120.564236 187.41031 120.033889 186.265002 119.559487 
C 185.119694 119.085084 183.951785 118.6672 182.765492 118.307342 
z
" clip-path="url(#p66493bd329)" style="fill: #d4a0a7; stroke: #000000; stroke-width: 0.5; stroke-linejoin: miter"/>
   </g>
   <g id="patch_6">
    <path d="M 171.77125 154.5505 
C 171.77125 154.5505 171.77125 154.5505 171.77125 154.5505 
C 171.77125 154.5505 171.77125 154.5505 171.77125 154.5505 
L 198.782365 121.637361 
C 197.705069 120.753247 196.585014 119.922558 195.426247 119.148295 
C 194.26748 118.374031 193.071397 117.657127 191.842319 117.000171 
z
" clip-path="url(#p66493bd329)" style="fill: #d4a0a7; stroke: #000000; stroke-width: 0.5; stroke-linejoin: miter"/>
   </g>
   <g id="patch_7">
    <path d="M 171.77125 154.5505 
C 171.77125 154.5505 171.77125 154.5505 171.77125 154.5505 
C 171.77125 154.5505 171.77125 154.5505 171.77125 154.5505 
L 184.567766 144.048671 
C 184.224026 143.629821 183.859928 143.228102 183.476788 142.844962 
C 183.093648 142.461822 182.691929 142.097724 182.273079 141.753984 
z
" clip-path="url(#p66493bd329)" style="fill: #d4a0a7; stroke: #000000; stroke-width: 0.5; stroke-linejoin: miter"/>
   </g>
   <g id="patch_8">
    <path d="M 171.77125 154.5505 
C 171.77125 154.5505 171.77125 154.5505 171.77125 154.5505 
C 171.77125 154.5505 171.77125 154.5505 171.77125 154.5505 
L 176.189242 152.189034 
C 176.111947 152.044427 176.0276 151.903702 175.936504 151.767367 
C 175.845407 151.631032 175.747673 151.499251 175.643652 151.372502 
z
" clip-path="url(#p66493bd329)" style="fill: #d4a0a7; stroke: #000000; stroke-width: 0.5; stroke-linejoin: miter"/>
   </g>
   <g id="patch_9">
    <path d="M 171.77125 154.5505 
C 171.77125 154.5505 171.77125 154.5505 171.77125 154.5505 
C 171.77125 154.5505 171.77125 154.5505 171.77125 154.5505 
L 180.074355 152.03178 
C 179.991914 151.760007 179.896179 151.492446 179.787496 151.230062 
C 179.678813 150.967678 179.557313 150.710789 179.423436 150.460321 
z
" clip-path="url(#p66493bd329)" style="fill: #d4a0a7; stroke: #000000; stroke-width: 0.5; stroke-linejoin: miter"/>
   </g>
   <g id="patch_10">
    <path d="M 171.77125 154.5505 
C 171.77125 154.5505 171.77125 154.5505 171.77125 154.5505 
C 171.77125 154.5505 171.77125 154.5505 171.77125 154.5505 
L 176.756636 154.059482 
C 176.740564 153.896303 176.71649 153.734012 176.684502 153.573193 
C 176.652513 153.412375 176.612648 153.253225 176.56505 153.096317 
z
" clip-path="url(#p66493bd329)" style="fill: #d4a0a7; stroke: #000000; stroke-width: 0.5; stroke-linejoin: miter"/>
   </g>
   <g id="patch_11">
    <path d="M 171.77125 154.5505 
C 171.77125 154.5505 171.77125 154.5505 171.77125 154.5505 
C 171.77125 154.5505 171.77125 154.5505 171.77125 154.5505 
L 171.77125 154.5505 
C 171.77125 154.5505 171.77125 154.5505 171.77125 154.5505 
C 171.77125 154.5505 171.77125 154.5505 171.77125 154.5505 
z
" clip-path="url(#p66493bd329)" style="fill: #d4a0a7; stroke: #000000; stroke-width: 0.5; stroke-linejoin: miter"/>
   </g>
   <g id="patch_12">
    <path d="M 171.77125 154.5505 
C 171.77125 154.5505 171.77125 154.5505 171.77125 154.5505 
C 171.77125 154.5505 171.77125 154.5505 171.77125 154.5505 
L 181.128375 157.388953 
C 181.221281 157.08268 181.299095 156.772031 181.361535 156.458126 
C 181.423974 156.144222 181.470964 155.827441 181.502335 155.508928 
z
" clip-path="url(#p66493bd329)" style="fill: #d4a0a7; stroke: #000000; stroke-width: 0.5; stroke-linejoin: miter"/>
   </g>
   <g id="patch_13">
    <path d="M 171.77125 154.5505 
C 171.77125 154.5505 171.77125 154.5505 171.77125 154.5505 
C 171.77125 154.5505 171.77125 154.5505 171.77125 154.5505 
L 171.77125 154.5505 
C 171.77125 154.5505 171.77125 154.5505 171.77125 154.5505 
C 171.77125 154.5505 171.77125 154.5505 171.77125 154.5505 
z
" clip-path="url(#p66493bd329)" style="fill: #d4a0a7; stroke: #000000; stroke-width: 0.5; stroke-linejoin: miter"/>
   </g>
   <g id="patch_14">
    <path d="M 171.77125 154.5505 
C 171.77125 154.5505 171.77125 154.5505 171.77125 154.5505 
C 171.77125 154.5505 171.77125 154.5505 171.77125 154.5505 
L 171.77125 154.5505 
C 171.77125 154.5505 171.77125 154.5505 171.77125 154.5505 
C 171.77125 154.5505 171.77125 154.5505 171.77125 154.5505 
z
" clip-path="url(#p66493bd329)" style="fill: #d4a0a7; stroke: #000000; stroke-width: 0.5; stroke-linejoin: miter"/>
   </g>
   <g id="patch_15">
    <path d="M 171.77125 154.5505 
C 171.77125 154.5505 171.77125 154.5505 171.77125 154.5505 
C 171.77125 154.5505 171.77125 154.5505 171.77125 154.5505 
L 171.77125 154.5505 
C 171.77125 154.5505 171.77125 154.5505 171.77125 154.5505 
C 171.77125 154.5505 171.77125 154.5505 171.77125 154.5505 
z
" clip-path="url(#p66493bd329)" style="fill: #d4a0a7; stroke: #000000; stroke-width: 0.5; stroke-linejoin: miter"/>
   </g>
   <g id="patch_16">
    <path d="M 171.77125 154.5505 
C 171.77125 154.5505 171.77125 154.5505 171.77125 154.5505 
C 171.77125 154.5505 171.77125 154.5505 171.77125 154.5505 
L 171.77125 154.5505 
C 171.77125 154.5505 171.77125 154.5505 171.77125 154.5505 
C 171.77125 154.5505 171.77125 154.5505 171.77125 154.5505 
z
" clip-path="url(#p66493bd329)" style="fill: #d4a0a7; stroke: #000000; stroke-width: 0.5; stroke-linejoin: miter"/>
   </g>
   <g id="patch_17">
    <path d="M 171.77125 154.5505 
C 171.77125 154.5505 171.77125 154.5505 171.77125 154.5505 
C 171.77125 154.5505 171.77125 154.5505 171.77125 154.5505 
L 175.112709 165.565814 
C 175.473257 165.456443 175.828217 165.329436 176.176309 165.185252 
C 176.5244 165.041068 176.865202 164.87988 177.197485 164.702272 
z
" clip-path="url(#p66493bd329)" style="fill: #d4a0a7; stroke: #000000; stroke-width: 0.5; stroke-linejoin: miter"/>
   </g>
   <g id="patch_18">
    <path d="M 171.77125 154.5505 
C 171.77125 154.5505 171.77125 154.5505 171.77125 154.5505 
C 171.77125 154.5505 171.77125 154.5505 171.77125 154.5505 
L 171.77125 154.5505 
C 171.77125 154.5505 171.77125 154.5505 171.77125 154.5505 
C 171.77125 154.5505 171.77125 154.5505 171.77125 154.5505 
z
" clip-path="url(#p66493bd329)" style="fill: #d4a0a7; stroke: #000000; stroke-width: 0.5; stroke-linejoin: miter"/>
   </g>
   <g id="patch_19">
    <path d="M 171.77125 154.5505 
C 171.77125 154.5505 171.77125 154.5505 171.77125 154.5505 
C 171.77125 154.5505 171.77125 154.5505 171.77125 154.5505 
L 170.42744 168.194436 
C 170.874026 168.238421 171.322503 168.260453 171.77125 168.260453 
C 172.219997 168.260453 172.668474 168.238421 173.11506 168.194436 
z
" clip-path="url(#p66493bd329)" style="fill: #d4a0a7; stroke: #000000; stroke-width: 0.5; stroke-linejoin: miter"/>
   </g>
   <g id="patch_20">
    <path d="M 171.77125 154.5505 
C 171.77125 154.5505 171.77125 154.5505 171.77125 154.5505 
C 171.77125 154.5505 171.77125 154.5505 171.77125 154.5505 
L 171.77125 154.5505 
C 171.77125 154.5505 171.77125 154.5505 171.77125 154.5505 
C 171.77125 154.5505 171.77125 154.5505 171.77125 154.5505 
z
" clip-path="url(#p66493bd329)" style="fill: #d4a0a7; stroke: #000000; stroke-width: 0.5; stroke-linejoin: miter"/>
   </g>
   <g id="patch_21">
    <path d="M 171.77125 154.5505 
C 171.77125 154.5505 171.77125 154.5505 171.77125 154.5505 
C 171.77125 154.5505 171.77125 154.5505 171.77125 154.5505 
L 171.77125 154.5505 
C 171.77125 154.5505 171.77125 154.5505 171.77125 154.5505 
C 171.77125 154.5505 171.77125 154.5505 171.77125 154.5505 
z
" clip-path="url(#p66493bd329)" style="fill: #d4a0a7; stroke: #000000; stroke-width: 0.5; stroke-linejoin: miter"/>
   </g>
   <g id="patch_22">
    <path d="M 171.77125 154.5505 
C 171.77125 154.5505 171.77125 154.5505 171.77125 154.5505 
C 171.77125 154.5505 171.77125 154.5505 171.77125 154.5505 
L 167.122239 160.215336 
C 167.307658 160.367505 167.500436 160.510479 167.699877 160.643741 
C 167.899318 160.777003 168.105181 160.900393 168.316724 161.013464 
z
" clip-path="url(#p66493bd329)" style="fill: #d4a0a7; stroke: #000000; stroke-width: 0.5; stroke-linejoin: miter"/>
   </g>
   <g id="patch_23">
    <path d="M 171.77125 154.5505 
C 171.77125 154.5505 171.77125 154.5505 171.77125 154.5505 
C 171.77125 154.5505 171.77125 154.5505 171.77125 154.5505 
L 166.040618 159.253508 
C 166.194555 159.44108 166.357608 159.620981 166.529188 159.792562 
C 166.700769 159.964142 166.88067 160.127195 167.068242 160.281132 
z
" clip-path="url(#p66493bd329)" style="fill: #d4a0a7; stroke: #000000; stroke-width: 0.5; stroke-linejoin: miter"/>
   </g>
   <g id="patch_24">
    <path d="M 171.77125 154.5505 
C 171.77125 154.5505 171.77125 154.5505 171.77125 154.5505 
C 171.77125 154.5505 171.77125 154.5505 171.77125 154.5505 
L 167.353258 156.911966 
C 167.430553 157.056573 167.5149 157.197298 167.605996 157.333633 
C 167.697093 157.469968 167.794827 157.601749 167.898848 157.728498 
z
" clip-path="url(#p66493bd329)" style="fill: #d4a0a7; stroke: #000000; stroke-width: 0.5; stroke-linejoin: miter"/>
   </g>
   <g id="patch_25">
    <path d="M 171.77125 154.5505 
C 171.77125 154.5505 171.77125 154.5505 171.77125 154.5505 
C 171.77125 154.5505 171.77125 154.5505 171.77125 154.5505 
L 161.556968 157.648969 
C 161.658385 157.983297 161.776156 158.312445 161.909855 158.635223 
C 162.043554 158.958002 162.193021 159.274021 162.357714 159.58214 
z
" clip-path="url(#p66493bd329)" style="fill: #d4a0a7; stroke: #000000; stroke-width: 0.5; stroke-linejoin: miter"/>
   </g>
   <g id="patch_26">
    <path d="M 171.77125 154.5505 
C 171.77125 154.5505 171.77125 154.5505 171.77125 154.5505 
C 171.77125 154.5505 171.77125 154.5505 171.77125 154.5505 
L 147.86218 156.905338 
C 147.939257 157.687917 148.054711 158.466241 148.208123 159.237497 
C 148.361536 160.008754 148.552722 160.772013 148.780992 161.524519 
z
" clip-path="url(#p66493bd329)" style="fill: #d4a0a7; stroke: #000000; stroke-width: 0.5; stroke-linejoin: miter"/>
   </g>
   <g id="patch_27">
    <path d="M 171.77125 154.5505 
C 171.77125 154.5505 171.77125 154.5505 171.77125 154.5505 
C 171.77125 154.5505 171.77125 154.5505 171.77125 154.5505 
L 121.663783 149.615345 
C 121.502248 151.255437 121.421334 152.902472 121.421334 154.5505 
C 121.421334 156.198528 121.502248 157.845563 121.663783 159.485655 
z
" clip-path="url(#p66493bd329)" style="fill: #d4a0a7; stroke: #000000; stroke-width: 0.5; stroke-linejoin: miter"/>
   </g>
   <g id="patch_28">
    <path d="M 171.77125 154.5505 
C 171.77125 154.5505 171.77125 154.5505 171.77125 154.5505 
C 171.77125 154.5505 171.77125 154.5505 171.77125 154.5505 
L 125.913346 140.639657 
C 125.458023 142.140654 125.07667 143.663103 124.770663 145.201502 
C 124.464656 146.739901 124.234365 148.292398 124.080622 149.853383 
z
" clip-path="url(#p66493bd329)" style="fill: #d4a0a7; stroke: #000000; stroke-width: 0.5; stroke-linejoin: miter"/>
   </g>
   <g id="patch_29">
    <path d="M 171.77125 154.5505 
C 171.77125 154.5505 171.77125 154.5505 171.77125 154.5505 
C 171.77125 154.5505 171.77125 154.5505 171.77125 154.5505 
L 103.979909 118.315273 
C 102.793876 120.534185 101.7175 122.80999 100.754669 125.134469 
C 99.791839 127.458948 98.943714 129.829298 98.213358 132.236957 
z
" clip-path="url(#p66493bd329)" style="fill: #d4a0a7; stroke: #000000; stroke-width: 0.5; stroke-linejoin: miter"/>
   </g>
   <g id="patch_30">
    <path d="M 171.77125 154.5505 
C 171.77125 154.5505 171.77125 154.5505 171.77125 154.5505 
C 171.77125 154.5505 171.77125 154.5505 171.77125 154.5505 
L 113.121296 106.417727 
C 111.545839 108.337428 110.065583 110.333322 108.685875 112.3982 
C 107.306168 114.463079 106.028671 116.594453 104.858001 118.784623 
z
" clip-path="url(#p66493bd329)" style="fill: #d4a0a7; stroke: #000000; stroke-width: 0.5; stroke-linejoin: miter"/>
   </g>
   <g id="patch_31">
    <path d="M 171.77125 154.5505 
C 171.77125 154.5505 171.77125 154.5505 171.77125 154.5505 
C 171.77125 154.5505 171.77125 154.5505 171.77125 154.5505 
L 101.429723 68.839101 
C 98.624261 71.141484 95.93353 73.58022 93.36725 76.1465 
C 90.80097 78.71278 88.362234 81.403511 86.059851 84.208973 
z
" clip-path="url(#p66493bd329)" style="fill: #d4a0a7; stroke: #000000; stroke-width: 0.5; stroke-linejoin: miter"/>
   </g>
   <g id="patch_32">
    <path d="M 171.77125 154.5505 
C 171.77125 154.5505 171.77125 154.5505 171.77125 154.5505 
C 171.77125 154.5505 171.77125 154.5505 171.77125 154.5505 
L 120.240952 58.144094 
C 117.085427 59.830757 114.014613 61.671332 111.039604 63.659169 
C 108.064595 65.647007 105.188977 67.779711 102.423136 70.049578 
z
" clip-path="url(#p66493bd329)" style="fill: #d4a0a7; stroke: #000000; stroke-width: 0.5; stroke-linejoin: miter"/>
   </g>
   <g id="patch_33">
    <path d="M 171.77125 154.5505 
C 171.77125 154.5505 171.77125 154.5505 171.77125 154.5505 
C 171.77125 154.5505 171.77125 154.5505 171.77125 154.5505 
L 151.34062 87.19974 
C 149.136129 87.868465 146.9658 88.645022 144.837471 89.526604 
C 142.709141 90.408187 140.625378 91.393734 138.593708 92.479684 
z
" clip-path="url(#p66493bd329)" style="fill: #d4a0a7; stroke: #000000; stroke-width: 0.5; stroke-linejoin: miter"/>
   </g>
   <g id="patch_34">
    <path d="M 171.77125 154.5505 
C 171.77125 154.5505 171.77125 154.5505 171.77125 154.5505 
C 171.77125 154.5505 171.77125 154.5505 171.77125 154.5505 
L 164.956887 85.363116 
C 162.692281 85.58616 160.439991 85.920256 158.208151 86.364197 
C 155.976311 86.808137 153.767613 87.361387 151.590035 88.021949 
z
" clip-path="url(#p66493bd329)" style="fill: #d4a0a7; stroke: #000000; stroke-width: 0.5; stroke-linejoin: miter"/>
   </g>
   <g id="PathCollection_1">
    <defs>
     <path id="m6966d57431" d="M 0.193618 7.414054 
L 0.193618 7.414054 
C 0.054922 7.414054 -0.078235 7.358899 -0.176308 7.260826 
C -0.274381 7.162753 -0.329536 7.029596 -0.329536 6.890901 
L -0.329536 5.365008 
L -1.528416 6.56393 
L -1.528416 6.56393 
C -1.577018 6.612704 -1.634775 6.651408 -1.698366 6.677814 
C -1.761958 6.704221 -1.830141 6.717815 -1.898997 6.717815 
C -1.967853 6.717815 -2.036037 6.704221 -2.099628 6.677814 
C -2.163219 6.651408 -2.220976 6.612704 -2.269578 6.56393 
L -2.269578 6.56393 
C -2.318353 6.515327 -2.357056 6.457571 -2.383463 6.393979 
C -2.409869 6.330388 -2.423463 6.262205 -2.423463 6.193348 
C -2.423463 6.124492 -2.409869 6.056309 -2.383463 5.992718 
C -2.357056 5.929126 -2.318353 5.87137 -2.269578 5.822767 
L -0.329536 3.884106 
L -0.329536 0.820937 
L -2.98067 2.351538 
L -3.691824 5.001416 
L -3.691824 5.001416 
C -3.727584 5.135411 -3.815199 5.249836 -3.93523 5.319305 
C -4.055261 5.388775 -4.198123 5.407741 -4.332122 5.371997 
L -4.332122 5.371997 
C -4.466126 5.336237 -4.580558 5.248616 -4.650029 5.128576 
C -4.719499 5.008535 -4.73846 4.865662 -4.702703 4.731657 
L -4.262647 3.092721 
L -5.585535 3.855668 
L -5.585535 3.855668 
C -5.645013 3.890144 -5.710708 3.912561 -5.778854 3.921634 
C -5.847001 3.930706 -5.916272 3.926258 -5.982698 3.908543 
C -6.049125 3.890828 -6.111412 3.860192 -6.165991 3.818391 
C -6.220571 3.77659 -6.266379 3.724437 -6.300791 3.664922 
L -6.300791 3.664922 
C -6.335212 3.605364 -6.35755 3.539597 -6.366524 3.471396 
C -6.375498 3.403194 -6.370933 3.333888 -6.35309 3.267452 
C -6.335248 3.201017 -6.304476 3.138749 -6.26254 3.08422 
C -6.220605 3.029692 -6.168323 2.983966 -6.108695 2.949666 
L -4.785807 2.186762 
L -6.424743 1.746706 
L -6.424743 1.746706 
C -6.558747 1.710946 -6.673179 1.623325 -6.74265 1.503284 
C -6.81212 1.383244 -6.831081 1.240371 -6.795324 1.106366 
L -6.795324 1.106366 
C -6.777471 1.039969 -6.746703 0.977739 -6.704784 0.923241 
C -6.662864 0.868744 -6.61061 0.823041 -6.551015 0.788752 
C -6.491421 0.754464 -6.425647 0.732257 -6.357465 0.723406 
C -6.289282 0.714554 -6.220019 0.71923 -6.153645 0.737166 
L -3.505232 1.44698 
L -0.852424 -0.08496 
L -3.503767 -1.615666 
L -6.153645 -0.905851 
L -6.153645 -0.905851 
C -6.22011 -0.887939 -6.289462 -0.883321 -6.357716 -0.892262 
C -6.42597 -0.901202 -6.491793 -0.923527 -6.551403 -0.957953 
C -6.611013 -0.992379 -6.663247 -1.038234 -6.705103 -1.092883 
C -6.746958 -1.147533 -6.777619 -1.209911 -6.795324 -1.276432 
L -6.795324 -1.276432 
C -6.831068 -1.410431 -6.812101 -1.553293 -6.742632 -1.673324 
C -6.673162 -1.793355 -6.558738 -1.88097 -6.424743 -1.91673 
L -4.785807 -2.355447 
L -6.108695 -3.119732 
L -6.108695 -3.119732 
C -6.228699 -3.188976 -6.316415 -3.303132 -6.352417 -3.436921 
C -6.388419 -3.57071 -6.369839 -3.713469 -6.300791 -3.833586 
L -6.300791 -3.833586 
C -6.266491 -3.893214 -6.220765 -3.945496 -6.166237 -3.987431 
C -6.111708 -4.029367 -6.04944 -4.060139 -5.983005 -4.077981 
C -5.91657 -4.095823 -5.847263 -4.100389 -5.779062 -4.091415 
C -5.71086 -4.082441 -5.645094 -4.060102 -5.585535 -4.025682 
L -4.262647 -3.261396 
L -4.702703 -4.900332 
L -4.702703 -4.900332 
C -4.73846 -5.034337 -4.719499 -5.17721 -4.650029 -5.29725 
C -4.580558 -5.417291 -4.466126 -5.504912 -4.332122 -5.540672 
L -4.332122 -5.540672 
C -4.19831 -5.576464 -4.055613 -5.557686 -3.935617 -5.488496 
C -3.81562 -5.419305 -3.727882 -5.305212 -3.691824 -5.171472 
L -2.982009 -2.521594 
L -0.329411 -0.990302 
L -0.329411 -4.051588 
L -2.269453 -5.991589 
L -2.269453 -5.991589 
C -2.318227 -6.040191 -2.356931 -6.097947 -2.383337 -6.161539 
C -2.409744 -6.22513 -2.423338 -6.293314 -2.423338 -6.36217 
C -2.423338 -6.431026 -2.409744 -6.499209 -2.383337 -6.5628 
C -2.356931 -6.626392 -2.318227 -6.684149 -2.269453 -6.732751 
L -2.269453 -6.732751 
C -2.22085 -6.781526 -2.163094 -6.820229 -2.099502 -6.846635 
C -2.035911 -6.873042 -1.967728 -6.886636 -1.898871 -6.886636 
C -1.830015 -6.886636 -1.761832 -6.873042 -1.698241 -6.846635 
C -1.634649 -6.820229 -1.576893 -6.781526 -1.52829 -6.732751 
L -0.329411 -5.533829 
L -0.329411 -7.059722 
L -0.329411 -7.059722 
C -0.329411 -7.198418 -0.274255 -7.331575 -0.176182 -7.429647 
C -0.07811 -7.52772 0.055047 -7.582875 0.193743 -7.582875 
L 0.193743 -7.582875 
C 0.332439 -7.582875 0.465596 -7.52772 0.563669 -7.429647 
C 0.661741 -7.331575 0.716897 -7.198418 0.716897 -7.059722 
L 0.716897 -5.533829 
L 1.915777 -6.732751 
L 1.915777 -6.732751 
C 1.964379 -6.781526 2.022136 -6.820229 2.085727 -6.846635 
C 2.149318 -6.873042 2.217502 -6.886636 2.286358 -6.886636 
C 2.355214 -6.886636 2.423397 -6.873042 2.486989 -6.846635 
C 2.55058 -6.820229 2.608337 -6.781526 2.656939 -6.732751 
L 2.656939 -6.732751 
C 2.705714 -6.684149 2.744417 -6.626392 2.770823 -6.5628 
C 2.79723 -6.499209 2.810824 -6.431026 2.810824 -6.36217 
C 2.810824 -6.293314 2.79723 -6.22513 2.770823 -6.161539 
C 2.744417 -6.097947 2.705714 -6.040191 2.656939 -5.991589 
L 0.716897 -4.051588 
L 0.716897 -0.991139 
L 3.369495 -2.522954 
L 4.07931 -5.171367 
L 4.07931 -5.171367 
C 4.115368 -5.305107 4.203106 -5.4192 4.323103 -5.488391 
C 4.4431 -5.557582 4.585797 -5.576359 4.719608 -5.540567 
L 4.719608 -5.540567 
C 4.853612 -5.504807 4.968045 -5.417186 5.037515 -5.297146 
C 5.106986 -5.177105 5.125946 -5.034232 5.090189 -4.900227 
L 4.650133 -3.262673 
L 5.973022 -4.025577 
L 5.973022 -4.025577 
C 6.03258 -4.059998 6.098346 -4.082336 6.166548 -4.09131 
C 6.234749 -4.100284 6.304056 -4.095719 6.370491 -4.077876 
C 6.436926 -4.060034 6.499194 -4.029262 6.553723 -3.987327 
C 6.608252 -3.945391 6.653978 -3.893109 6.688277 -3.833481 
L 6.688277 -3.833481 
C 6.757325 -3.713365 6.775905 -3.570605 6.739903 -3.436816 
C 6.703901 -3.303027 6.616186 -3.188871 6.496181 -3.119628 
L 5.173293 -2.355342 
L 6.812229 -1.916625 
L 6.812229 -1.916625 
C 6.946224 -1.880865 7.060649 -1.79325 7.130118 -1.67322 
C 7.199588 -1.553189 7.218554 -1.410326 7.18281 -1.276327 
L 7.18281 -1.276327 
C 7.165106 -1.209806 7.134445 -1.147429 7.092589 -1.092779 
C 7.050733 -1.038129 6.998499 -0.992274 6.938889 -0.957848 
C 6.879279 -0.923422 6.813456 -0.901098 6.745202 -0.892157 
C 6.676949 -0.883217 6.607597 -0.887835 6.541131 -0.905746 
L 3.891253 -1.615561 
L 1.239492 -0.084604 
L 3.892718 1.447085 
L 6.541131 0.73727 
L 6.541131 0.73727 
C 6.674948 0.701466 6.817656 0.720237 6.937662 0.789429 
C 7.057669 0.858621 7.145413 0.972721 7.181471 1.10647 
L 7.181471 1.10647 
C 7.217274 1.240293 7.198497 1.383006 7.129297 1.503014 
C 7.060096 1.623021 6.945986 1.710762 6.812229 1.74681 
L 5.173293 2.186866 
L 6.496181 2.949771 
L 6.496181 2.949771 
C 6.555697 2.984183 6.607849 3.029991 6.649651 3.08457 
C 6.691452 3.13915 6.722088 3.201437 6.739803 3.267863 
C 6.757517 3.33429 6.761966 3.403561 6.752893 3.471707 
C 6.743821 3.539854 6.721404 3.605549 6.686927 3.665026 
L 6.686927 3.665026 
C 6.617458 3.784813 6.503196 3.87225 6.369416 3.907994 
C 6.235636 3.943739 6.092989 3.924946 5.973032 3.855772 
L 4.650144 3.091487 
L 5.08886 4.731783 
L 5.08886 4.731783 
C 5.124664 4.865606 5.105887 5.008319 5.036686 5.128326 
C 4.967486 5.248334 4.853376 5.336074 4.719619 5.372123 
L 4.719619 5.372123 
C 4.585619 5.407867 4.442757 5.3889 4.322726 5.319431 
C 4.202695 5.249961 4.115081 5.135537 4.07932 5.001542 
L 3.368166 2.351664 
L 0.717033 0.821063 
L 0.717033 3.884232 
L 2.657075 5.822893 
L 2.657075 5.822893 
C 2.70585 5.871495 2.744553 5.929252 2.770959 5.992843 
C 2.797366 6.056435 2.81096 6.124618 2.81096 6.193474 
C 2.81096 6.26233 2.797366 6.330514 2.770959 6.394105 
C 2.744553 6.457696 2.70585 6.515453 2.657075 6.564055 
L 2.657075 6.564055 
C 2.608473 6.61283 2.550716 6.651533 2.487125 6.67794 
C 2.423533 6.704346 2.35535 6.71794 2.286494 6.71794 
C 2.217638 6.71794 2.149454 6.704346 2.085863 6.67794 
C 2.022272 6.651533 1.964515 6.61283 1.915913 6.564055 
L 0.717033 5.365133 
L 0.717033 6.891026 
L 0.717033 6.891026 
C 0.717033 7.029722 0.661877 7.162879 0.563805 7.260952 
C 0.465732 7.359024 0.332575 7.41418 0.193879 7.41418 
L 0.193618 7.414054 
z
"/>
    </defs>
    <g clip-path="url(#p66493bd329)">
     <use xlink:href="#m6966d57431" x="117.283215" y="76.588915" style="fill: #0000ff; fill-opacity: 0.7"/>
    </g>
   </g>
   <g id="patch_35">
    <path d="M 171.77125 43.6705 
C 157.210622 43.6705 142.791577 46.538626 129.339311 52.110737 
C 115.887045 57.682849 103.663169 65.850581 93.36725 76.1465 
C 83.071331 86.442419 74.903599 98.666295 69.331487 112.118561 
C 63.759376 125.570827 60.89125 139.989872 60.89125 154.5505 
C 60.89125 169.111128 63.759376 183.530173 69.331487 196.982439 
C 74.903599 210.434705 83.071331 222.658581 93.36725 232.9545 
C 103.663169 243.250419 115.887045 251.418151 129.339311 256.990263 
C 142.791577 262.562374 157.210622 265.4305 171.77125 265.4305 
C 186.331878 265.4305 200.750923 262.562374 214.203189 256.990263 
C 227.655455 251.418151 239.879331 243.250419 250.17525 232.9545 
C 260.471169 222.658581 268.638901 210.434705 274.211013 196.982439 
C 279.783124 183.530173 282.65125 169.111128 282.65125 154.5505 
C 282.65125 139.989872 279.783124 125.570827 274.211013 112.118561 
C 268.638901 98.666295 260.471169 86.442419 250.17525 76.1465 
C 239.879331 65.850581 227.655455 57.682849 214.203189 52.110737 
C 200.750923 46.538626 186.331878 43.6705 171.77125 43.6705 
" style="fill: none; stroke: #000000; stroke-width: 0.8; stroke-linejoin: miter; stroke-linecap: square"/>
   </g>
   <g id="text_5">
    <!-- 13 runs -->
    <g style="fill: #95a5a6" transform="translate(47.89293 38.270618) scale(0.1 -0.1)">
     <defs>
      <path id="DejaVuSans-31" d="M 794 531 
L 1825 531 
L 1825 4091 
L 703 3866 
L 703 4441 
L 1819 4666 
L 2450 4666 
L 2450 531 
L 3481 531 
L 3481 0 
L 794 0 
L 794 531 
z
" transform="scale(0.015625)"/>
      <path id="DejaVuSans-33" d="M 2597 2516 
Q 3050 2419 3304 2112 
Q 3559 1806 3559 1356 
Q 3559 666 3084 287 
Q 2609 -91 1734 -91 
Q 1441 -91 1130 -33 
Q 819 25 488 141 
L 488 750 
Q 750 597 1062 519 
Q 1375 441 1716 441 
Q 2309 441 2620 675 
Q 2931 909 2931 1356 
Q 2931 1769 2642 2001 
Q 2353 2234 1838 2234 
L 1294 2234 
L 1294 2753 
L 1863 2753 
Q 2328 2753 2575 2939 
Q 2822 3125 2822 3475 
Q 2822 3834 2567 4026 
Q 2313 4219 1838 4219 
Q 1578 4219 1281 4162 
Q 984 4106 628 3988 
L 628 4550 
Q 988 4650 1302 4700 
Q 1616 4750 1894 4750 
Q 2613 4750 3031 4423 
Q 3450 4097 3450 3541 
Q 3450 3153 3228 2886 
Q 3006 2619 2597 2516 
z
" transform="scale(0.015625)"/>
      <path id="DejaVuSans-20" transform="scale(0.015625)"/>
      <path id="DejaVuSans-72" d="M 2631 2963 
Q 2534 3019 2420 3045 
Q 2306 3072 2169 3072 
Q 1681 3072 1420 2755 
Q 1159 2438 1159 1844 
L 1159 0 
L 581 0 
L 581 3500 
L 1159 3500 
L 1159 2956 
Q 1341 3275 1631 3429 
Q 1922 3584 2338 3584 
Q 2397 3584 2469 3576 
Q 2541 3569 2628 3553 
L 2631 2963 
z
" transform="scale(0.015625)"/>
      <path id="DejaVuSans-75" d="M 544 1381 
L 544 3500 
L 1119 3500 
L 1119 1403 
Q 1119 906 1312 657 
Q 1506 409 1894 409 
Q 2359 409 2629 706 
Q 2900 1003 2900 1516 
L 2900 3500 
L 3475 3500 
L 3475 0 
L 2900 0 
L 2900 538 
Q 2691 219 2414 64 
Q 2138 -91 1772 -91 
Q 1169 -91 856 284 
Q 544 659 544 1381 
z
M 1991 3584 
L 1991 3584 
z
" transform="scale(0.015625)"/>
      <path id="DejaVuSans-6e" d="M 3513 2113 
L 3513 0 
L 2938 0 
L 2938 2094 
Q 2938 2591 2744 2837 
Q 2550 3084 2163 3084 
Q 1697 3084 1428 2787 
Q 1159 2491 1159 1978 
L 1159 0 
L 581 0 
L 581 3500 
L 1159 3500 
L 1159 2956 
Q 1366 3272 1645 3428 
Q 1925 3584 2291 3584 
Q 2894 3584 3203 3211 
Q 3513 2838 3513 2113 
z
" transform="scale(0.015625)"/>
      <path id="DejaVuSans-73" d="M 2834 3397 
L 2834 2853 
Q 2591 2978 2328 3040 
Q 2066 3103 1784 3103 
Q 1356 3103 1142 2972 
Q 928 2841 928 2578 
Q 928 2378 1081 2264 
Q 1234 2150 1697 2047 
L 1894 2003 
Q 2506 1872 2764 1633 
Q 3022 1394 3022 966 
Q 3022 478 2636 193 
Q 2250 -91 1575 -91 
Q 1294 -91 989 -36 
Q 684 19 347 128 
L 347 722 
Q 666 556 975 473 
Q 1284 391 1588 391 
Q 1994 391 2212 530 
Q 2431 669 2431 922 
Q 2431 1156 2273 1281 
Q 2116 1406 1581 1522 
L 1381 1569 
Q 847 1681 609 1914 
Q 372 2147 372 2553 
Q 372 3047 722 3315 
Q 1072 3584 1716 3584 
Q 2034 3584 2315 3537 
Q 2597 3491 2834 3397 
z
" transform="scale(0.015625)"/>
     </defs>
     <use xlink:href="#DejaVuSans-31"/>
     <use xlink:href="#DejaVuSans-33" x="63.623047"/>
     <use xlink:href="#DejaVuSans-20" x="127.246094"/>
     <use xlink:href="#DejaVuSans-72" x="159.033203"/>
     <use xlink:href="#DejaVuSans-75" x="200.146484"/>
     <use xlink:href="#DejaVuSans-6e" x="263.525391"/>
     <use xlink:href="#DejaVuSans-73" x="326.904297"/>
    </g>
    <!-- 3 lifts -->
    <g style="fill: #95a5a6" transform="translate(47.89293 49.46843) scale(0.1 -0.1)">
     <defs>
      <path id="DejaVuSans-6c" d="M 603 4863 
L 1178 4863 
L 1178 0 
L 603 0 
L 603 4863 
z
" transform="scale(0.015625)"/>
      <path id="DejaVuSans-69" d="M 603 3500 
L 1178 3500 
L 1178 0 
L 603 0 
L 603 3500 
z
M 603 4863 
L 1178 4863 
L 1178 4134 
L 603 4134 
L 603 4863 
z
" transform="scale(0.015625)"/>
      <path id="DejaVuSans-66" d="M 2375 4863 
L 2375 4384 
L 1825 4384 
Q 1516 4384 1395 4259 
Q 1275 4134 1275 3809 
L 1275 3500 
L 2222 3500 
L 2222 3053 
L 1275 3053 
L 1275 0 
L 697 0 
L 697 3053 
L 147 3053 
L 147 3500 
L 697 3500 
L 697 3744 
Q 697 4328 969 4595 
Q 1241 4863 1831 4863 
L 2375 4863 
z
" transform="scale(0.015625)"/>
      <path id="DejaVuSans-74" d="M 1172 4494 
L 1172 3500 
L 2356 3500 
L 2356 3053 
L 1172 3053 
L 1172 1153 
Q 1172 725 1289 603 
Q 1406 481 1766 481 
L 2356 481 
L 2356 0 
L 1766 0 
Q 1100 0 847 248 
Q 594 497 594 1153 
L 594 3053 
L 172 3053 
L 172 3500 
L 594 3500 
L 594 4494 
L 1172 4494 
z
" transform="scale(0.015625)"/>
     </defs>
     <use xlink:href="#DejaVuSans-33"/>
     <use xlink:href="#DejaVuSans-20" x="63.623047"/>
     <use xlink:href="#DejaVuSans-6c" x="95.410156"/>
     <use xlink:href="#DejaVuSans-69" x="123.193359"/>
     <use xlink:href="#DejaVuSans-66" x="150.976562"/>
     <use xlink:href="#DejaVuSans-74" x="184.431641"/>
     <use xlink:href="#DejaVuSans-73" x="223.640625"/>
    </g>
   </g>
   <g id="text_6">
    <!-- 2,520 m -->
    <g style="fill: #95a5a6" transform="translate(255.283945 38.270618) scale(0.1 -0.1)">
     <defs>
      <path id="DejaVuSans-32" d="M 1228 531 
L 3431 531 
L 3431 0 
L 469 0 
L 469 531 
Q 828 903 1448 1529 
Q 2069 2156 2228 2338 
Q 2531 2678 2651 2914 
Q 2772 3150 2772 3378 
Q 2772 3750 2511 3984 
Q 2250 4219 1831 4219 
Q 1534 4219 1204 4116 
Q 875 4013 500 3803 
L 500 4441 
Q 881 4594 1212 4672 
Q 1544 4750 1819 4750 
Q 2544 4750 2975 4387 
Q 3406 4025 3406 3419 
Q 3406 3131 3298 2873 
Q 3191 2616 2906 2266 
Q 2828 2175 2409 1742 
Q 1991 1309 1228 531 
z
" transform="scale(0.015625)"/>
      <path id="DejaVuSans-2c" d="M 750 794 
L 1409 794 
L 1409 256 
L 897 -744 
L 494 -744 
L 750 256 
L 750 794 
z
" transform="scale(0.015625)"/>
      <path id="DejaVuSans-35" d="M 691 4666 
L 3169 4666 
L 3169 4134 
L 1269 4134 
L 1269 2991 
Q 1406 3038 1543 3061 
Q 1681 3084 1819 3084 
Q 2600 3084 3056 2656 
Q 3513 2228 3513 1497 
Q 3513 744 3044 326 
Q 2575 -91 1722 -91 
Q 1428 -91 1123 -41 
Q 819 9 494 109 
L 494 744 
Q 775 591 1075 516 
Q 1375 441 1709 441 
Q 2250 441 2565 725 
Q 2881 1009 2881 1497 
Q 2881 1984 2565 2268 
Q 2250 2553 1709 2553 
Q 1456 2553 1204 2497 
Q 953 2441 691 2322 
L 691 4666 
z
" transform="scale(0.015625)"/>
      <path id="DejaVuSans-30" d="M 2034 4250 
Q 1547 4250 1301 3770 
Q 1056 3291 1056 2328 
Q 1056 1369 1301 889 
Q 1547 409 2034 409 
Q 2525 409 2770 889 
Q 3016 1369 3016 2328 
Q 3016 3291 2770 3770 
Q 2525 4250 2034 4250 
z
M 2034 4750 
Q 2819 4750 3233 4129 
Q 3647 3509 3647 2328 
Q 3647 1150 3233 529 
Q 2819 -91 2034 -91 
Q 1250 -91 836 529 
Q 422 1150 422 2328 
Q 422 3509 836 4129 
Q 1250 4750 2034 4750 
z
" transform="scale(0.015625)"/>
      <path id="DejaVuSans-202f" transform="scale(0.015625)"/>
      <path id="DejaVuSans-6d" d="M 3328 2828 
Q 3544 3216 3844 3400 
Q 4144 3584 4550 3584 
Q 5097 3584 5394 3201 
Q 5691 2819 5691 2113 
L 5691 0 
L 5113 0 
L 5113 2094 
Q 5113 2597 4934 2840 
Q 4756 3084 4391 3084 
Q 3944 3084 3684 2787 
Q 3425 2491 3425 1978 
L 3425 0 
L 2847 0 
L 2847 2094 
Q 2847 2600 2669 2842 
Q 2491 3084 2119 3084 
Q 1678 3084 1418 2786 
Q 1159 2488 1159 1978 
L 1159 0 
L 581 0 
L 581 3500 
L 1159 3500 
L 1159 2956 
Q 1356 3278 1631 3431 
Q 1906 3584 2284 3584 
Q 2666 3584 2933 3390 
Q 3200 3197 3328 2828 
z
" transform="scale(0.015625)"/>
     </defs>
     <use xlink:href="#DejaVuSans-32"/>
     <use xlink:href="#DejaVuSans-2c" x="63.623047"/>
     <use xlink:href="#DejaVuSans-35" x="95.410156"/>
     <use xlink:href="#DejaVuSans-32" x="159.033203"/>
     <use xlink:href="#DejaVuSans-30" x="222.65625"/>
     <use xlink:href="#DejaVuSans-202f" x="286.279297"/>
     <use xlink:href="#DejaVuSans-6d" x="306.25"/>
    </g>
    <!-- skiable -->
    <g style="fill: #95a5a6" transform="translate(260.463632 49.46843) scale(0.1 -0.1)">
     <defs>
      <path id="DejaVuSans-6b" d="M 581 4863 
L 1159 4863 
L 1159 1991 
L 2875 3500 
L 3609 3500 
L 1753 1863 
L 3688 0 
L 2938 0 
L 1159 1709 
L 1159 0 
L 581 0 
L 581 4863 
z
" transform="scale(0.015625)"/>
      <path id="DejaVuSans-61" d="M 2194 1759 
Q 1497 1759 1228 1600 
Q 959 1441 959 1056 
Q 959 750 1161 570 
Q 1363 391 1709 391 
Q 2188 391 2477 730 
Q 2766 1069 2766 1631 
L 2766 1759 
L 2194 1759 
z
M 3341 1997 
L 3341 0 
L 2766 0 
L 2766 531 
Q 2569 213 2275 61 
Q 1981 -91 1556 -91 
Q 1019 -91 701 211 
Q 384 513 384 1019 
Q 384 1609 779 1909 
Q 1175 2209 1959 2209 
L 2766 2209 
L 2766 2266 
Q 2766 2663 2505 2880 
Q 2244 3097 1772 3097 
Q 1472 3097 1187 3025 
Q 903 2953 641 2809 
L 641 3341 
Q 956 3463 1253 3523 
Q 1550 3584 1831 3584 
Q 2591 3584 2966 3190 
Q 3341 2797 3341 1997 
z
" transform="scale(0.015625)"/>
      <path id="DejaVuSans-62" d="M 3116 1747 
Q 3116 2381 2855 2742 
Q 2594 3103 2138 3103 
Q 1681 3103 1420 2742 
Q 1159 2381 1159 1747 
Q 1159 1113 1420 752 
Q 1681 391 2138 391 
Q 2594 391 2855 752 
Q 3116 1113 3116 1747 
z
M 1159 2969 
Q 1341 3281 1617 3432 
Q 1894 3584 2278 3584 
Q 2916 3584 3314 3078 
Q 3713 2572 3713 1747 
Q 3713 922 3314 415 
Q 2916 -91 2278 -91 
Q 1894 -91 1617 61 
Q 1341 213 1159 525 
L 1159 0 
L 581 0 
L 581 4863 
L 1159 4863 
L 1159 2969 
z
" transform="scale(0.015625)"/>
      <path id="DejaVuSans-65" d="M 3597 1894 
L 3597 1613 
L 953 1613 
Q 991 1019 1311 708 
Q 1631 397 2203 397 
Q 2534 397 2845 478 
Q 3156 559 3463 722 
L 3463 178 
Q 3153 47 2828 -22 
Q 2503 -91 2169 -91 
Q 1331 -91 842 396 
Q 353 884 353 1716 
Q 353 2575 817 3079 
Q 1281 3584 2069 3584 
Q 2775 3584 3186 3129 
Q 3597 2675 3597 1894 
z
M 3022 2063 
Q 3016 2534 2758 2815 
Q 2500 3097 2075 3097 
Q 1594 3097 1305 2825 
Q 1016 2553 972 2059 
L 3022 2063 
z
" transform="scale(0.015625)"/>
     </defs>
     <use xlink:href="#DejaVuSans-73"/>
     <use xlink:href="#DejaVuSans-6b" x="52.099609"/>
     <use xlink:href="#DejaVuSans-69" x="110.009766"/>
     <use xlink:href="#DejaVuSans-61" x="137.792969"/>
     <use xlink:href="#DejaVuSans-62" x="199.072266"/>
     <use xlink:href="#DejaVuSans-6c" x="262.548828"/>
     <use xlink:href="#DejaVuSans-65" x="290.332031"/>
    </g>
    <!-- vert -->
    <g style="fill: #95a5a6" transform="translate(275.546445 60.666243) scale(0.1 -0.1)">
     <defs>
      <path id="DejaVuSans-76" d="M 191 3500 
L 800 3500 
L 1894 563 
L 2988 3500 
L 3597 3500 
L 2284 0 
L 1503 0 
L 191 3500 
z
" transform="scale(0.015625)"/>
     </defs>
     <use xlink:href="#DejaVuSans-76"/>
     <use xlink:href="#DejaVuSans-65" x="59.179688"/>
     <use xlink:href="#DejaVuSans-72" x="120.703125"/>
     <use xlink:href="#DejaVuSans-74" x="161.816406"/>
    </g>
   </g>
   <g id="text_7">
    <!-- affinity: -->
    <g style="fill: #95a5a6" transform="translate(47.89293 253.953507) scale(0.1 -0.1)">
     <defs>
      <path id="DejaVuSans-79" d="M 2059 -325 
Q 1816 -950 1584 -1140 
Q 1353 -1331 966 -1331 
L 506 -1331 
L 506 -850 
L 844 -850 
Q 1081 -850 1212 -737 
Q 1344 -625 1503 -206 
L 1606 56 
L 191 3500 
L 800 3500 
L 1894 763 
L 2988 3500 
L 3597 3500 
L 2059 -325 
z
" transform="scale(0.015625)"/>
      <path id="DejaVuSans-3a" d="M 750 794 
L 1409 794 
L 1409 0 
L 750 0 
L 750 794 
z
M 750 3309 
L 1409 3309 
L 1409 2516 
L 750 2516 
L 750 3309 
z
" transform="scale(0.015625)"/>
     </defs>
     <use xlink:href="#DejaVuSans-61"/>
     <use xlink:href="#DejaVuSans-66" x="61.279297"/>
     <use xlink:href="#DejaVuSans-66" x="96.484375"/>
     <use xlink:href="#DejaVuSans-69" x="131.689453"/>
     <use xlink:href="#DejaVuSans-6e" x="159.472656"/>
     <use xlink:href="#DejaVuSans-69" x="222.851562"/>
     <use xlink:href="#DejaVuSans-74" x="250.634766"/>
     <use xlink:href="#DejaVuSans-79" x="289.84375"/>
     <use xlink:href="#DejaVuSans-3a" x="341.773438"/>
    </g>
    <!-- 70% poleward -->
    <g style="fill: #95a5a6" transform="translate(47.89293 265.15132) scale(0.1 -0.1)">
     <defs>
      <path id="DejaVuSans-37" d="M 525 4666 
L 3525 4666 
L 3525 4397 
L 1831 0 
L 1172 0 
L 2766 4134 
L 525 4134 
L 525 4666 
z
" transform="scale(0.015625)"/>
      <path id="DejaVuSans-25" d="M 4653 2053 
Q 4381 2053 4226 1822 
Q 4072 1591 4072 1178 
Q 4072 772 4226 539 
Q 4381 306 4653 306 
Q 4919 306 5073 539 
Q 5228 772 5228 1178 
Q 5228 1588 5073 1820 
Q 4919 2053 4653 2053 
z
M 4653 2450 
Q 5147 2450 5437 2106 
Q 5728 1763 5728 1178 
Q 5728 594 5436 251 
Q 5144 -91 4653 -91 
Q 4153 -91 3862 251 
Q 3572 594 3572 1178 
Q 3572 1766 3864 2108 
Q 4156 2450 4653 2450 
z
M 1428 4353 
Q 1159 4353 1004 4120 
Q 850 3888 850 3481 
Q 850 3069 1003 2837 
Q 1156 2606 1428 2606 
Q 1700 2606 1854 2837 
Q 2009 3069 2009 3481 
Q 2009 3884 1853 4118 
Q 1697 4353 1428 4353 
z
M 4250 4750 
L 4750 4750 
L 1831 -91 
L 1331 -91 
L 4250 4750 
z
M 1428 4750 
Q 1922 4750 2215 4408 
Q 2509 4066 2509 3481 
Q 2509 2891 2217 2550 
Q 1925 2209 1428 2209 
Q 931 2209 642 2551 
Q 353 2894 353 3481 
Q 353 4063 643 4406 
Q 934 4750 1428 4750 
z
" transform="scale(0.015625)"/>
      <path id="DejaVuSans-70" d="M 1159 525 
L 1159 -1331 
L 581 -1331 
L 581 3500 
L 1159 3500 
L 1159 2969 
Q 1341 3281 1617 3432 
Q 1894 3584 2278 3584 
Q 2916 3584 3314 3078 
Q 3713 2572 3713 1747 
Q 3713 922 3314 415 
Q 2916 -91 2278 -91 
Q 1894 -91 1617 61 
Q 1341 213 1159 525 
z
M 3116 1747 
Q 3116 2381 2855 2742 
Q 2594 3103 2138 3103 
Q 1681 3103 1420 2742 
Q 1159 2381 1159 1747 
Q 1159 1113 1420 752 
Q 1681 391 2138 391 
Q 2594 391 2855 752 
Q 3116 1113 3116 1747 
z
" transform="scale(0.015625)"/>
      <path id="DejaVuSans-6f" d="M 1959 3097 
Q 1497 3097 1228 2736 
Q 959 2375 959 1747 
Q 959 1119 1226 758 
Q 1494 397 1959 397 
Q 2419 397 2687 759 
Q 2956 1122 2956 1747 
Q 2956 2369 2687 2733 
Q 2419 3097 1959 3097 
z
M 1959 3584 
Q 2709 3584 3137 3096 
Q 3566 2609 3566 1747 
Q 3566 888 3137 398 
Q 2709 -91 1959 -91 
Q 1206 -91 779 398 
Q 353 888 353 1747 
Q 353 2609 779 3096 
Q 1206 3584 1959 3584 
z
" transform="scale(0.015625)"/>
      <path id="DejaVuSans-77" d="M 269 3500 
L 844 3500 
L 1563 769 
L 2278 3500 
L 2956 3500 
L 3675 769 
L 4391 3500 
L 4966 3500 
L 4050 0 
L 3372 0 
L 2619 2869 
L 1863 0 
L 1184 0 
L 269 3500 
z
" transform="scale(0.015625)"/>
      <path id="DejaVuSans-64" d="M 2906 2969 
L 2906 4863 
L 3481 4863 
L 3481 0 
L 2906 0 
L 2906 525 
Q 2725 213 2448 61 
Q 2172 -91 1784 -91 
Q 1150 -91 751 415 
Q 353 922 353 1747 
Q 353 2572 751 3078 
Q 1150 3584 1784 3584 
Q 2172 3584 2448 3432 
Q 2725 3281 2906 2969 
z
M 947 1747 
Q 947 1113 1208 752 
Q 1469 391 1925 391 
Q 2381 391 2643 752 
Q 2906 1113 2906 1747 
Q 2906 2381 2643 2742 
Q 2381 3103 1925 3103 
Q 1469 3103 1208 2742 
Q 947 2381 947 1747 
z
" transform="scale(0.015625)"/>
     </defs>
     <use xlink:href="#DejaVuSans-37"/>
     <use xlink:href="#DejaVuSans-30" x="63.623047"/>
     <use xlink:href="#DejaVuSans-25" x="127.246094"/>
     <use xlink:href="#DejaVuSans-20" x="222.265625"/>
     <use xlink:href="#DejaVuSans-70" x="254.052734"/>
     <use xlink:href="#DejaVuSans-6f" x="317.529297"/>
     <use xlink:href="#DejaVuSans-6c" x="378.710938"/>
     <use xlink:href="#DejaVuSans-65" x="406.494141"/>
     <use xlink:href="#DejaVuSans-77" x="468.017578"/>
     <use xlink:href="#DejaVuSans-61" x="549.804688"/>
     <use xlink:href="#DejaVuSans-72" x="611.083984"/>
     <use xlink:href="#DejaVuSans-64" x="650.447266"/>
    </g>
    <!-- -49% eastward -->
    <g style="fill: #95a5a6" transform="translate(47.89293 276.349132) scale(0.1 -0.1)">
     <defs>
      <path id="DejaVuSans-2d" d="M 313 2009 
L 1997 2009 
L 1997 1497 
L 313 1497 
L 313 2009 
z
" transform="scale(0.015625)"/>
      <path id="DejaVuSans-34" d="M 2419 4116 
L 825 1625 
L 2419 1625 
L 2419 4116 
z
M 2253 4666 
L 3047 4666 
L 3047 1625 
L 3713 1625 
L 3713 1100 
L 3047 1100 
L 3047 0 
L 2419 0 
L 2419 1100 
L 313 1100 
L 313 1709 
L 2253 4666 
z
" transform="scale(0.015625)"/>
      <path id="DejaVuSans-39" d="M 703 97 
L 703 672 
Q 941 559 1184 500 
Q 1428 441 1663 441 
Q 2288 441 2617 861 
Q 2947 1281 2994 2138 
Q 2813 1869 2534 1725 
Q 2256 1581 1919 1581 
Q 1219 1581 811 2004 
Q 403 2428 403 3163 
Q 403 3881 828 4315 
Q 1253 4750 1959 4750 
Q 2769 4750 3195 4129 
Q 3622 3509 3622 2328 
Q 3622 1225 3098 567 
Q 2575 -91 1691 -91 
Q 1453 -91 1209 -44 
Q 966 3 703 97 
z
M 1959 2075 
Q 2384 2075 2632 2365 
Q 2881 2656 2881 3163 
Q 2881 3666 2632 3958 
Q 2384 4250 1959 4250 
Q 1534 4250 1286 3958 
Q 1038 3666 1038 3163 
Q 1038 2656 1286 2365 
Q 1534 2075 1959 2075 
z
" transform="scale(0.015625)"/>
     </defs>
     <use xlink:href="#DejaVuSans-2d"/>
     <use xlink:href="#DejaVuSans-34" x="36.083984"/>
     <use xlink:href="#DejaVuSans-39" x="99.707031"/>
     <use xlink:href="#DejaVuSans-25" x="163.330078"/>
     <use xlink:href="#DejaVuSans-20" x="258.349609"/>
     <use xlink:href="#DejaVuSans-65" x="290.136719"/>
     <use xlink:href="#DejaVuSans-61" x="351.660156"/>
     <use xlink:href="#DejaVuSans-73" x="412.939453"/>
     <use xlink:href="#DejaVuSans-74" x="465.039062"/>
     <use xlink:href="#DejaVuSans-77" x="504.248047"/>
     <use xlink:href="#DejaVuSans-61" x="586.035156"/>
     <use xlink:href="#DejaVuSans-72" x="647.314453"/>
     <use xlink:href="#DejaVuSans-64" x="686.677734"/>
    </g>
   </g>
   <g id="text_8">
    <!-- elevation: -->
    <g style="fill: #95a5a6" transform="translate(245.994882 253.953507) scale(0.1 -0.1)">
     <use xlink:href="#DejaVuSans-65"/>
     <use xlink:href="#DejaVuSans-6c" x="61.523438"/>
     <use xlink:href="#DejaVuSans-65" x="89.306641"/>
     <use xlink:href="#DejaVuSans-76" x="150.830078"/>
     <use xlink:href="#DejaVuSans-61" x="210.009766"/>
     <use xlink:href="#DejaVuSans-74" x="271.289062"/>
     <use xlink:href="#DejaVuSans-69" x="310.498047"/>
     <use xlink:href="#DejaVuSans-6f" x="338.28125"/>
     <use xlink:href="#DejaVuSans-6e" x="399.462891"/>
     <use xlink:href="#DejaVuSans-3a" x="462.841797"/>
    </g>
    <!-- 256 m base -->
    <g style="fill: #95a5a6" transform="translate(237.807382 265.15132) scale(0.1 -0.1)">
     <defs>
      <path id="DejaVuSans-36" d="M 2113 2584 
Q 1688 2584 1439 2293 
Q 1191 2003 1191 1497 
Q 1191 994 1439 701 
Q 1688 409 2113 409 
Q 2538 409 2786 701 
Q 3034 994 3034 1497 
Q 3034 2003 2786 2293 
Q 2538 2584 2113 2584 
z
M 3366 4563 
L 3366 3988 
Q 3128 4100 2886 4159 
Q 2644 4219 2406 4219 
Q 1781 4219 1451 3797 
Q 1122 3375 1075 2522 
Q 1259 2794 1537 2939 
Q 1816 3084 2150 3084 
Q 2853 3084 3261 2657 
Q 3669 2231 3669 1497 
Q 3669 778 3244 343 
Q 2819 -91 2113 -91 
Q 1303 -91 875 529 
Q 447 1150 447 2328 
Q 447 3434 972 4092 
Q 1497 4750 2381 4750 
Q 2619 4750 2861 4703 
Q 3103 4656 3366 4563 
z
" transform="scale(0.015625)"/>
     </defs>
     <use xlink:href="#DejaVuSans-32"/>
     <use xlink:href="#DejaVuSans-35" x="63.623047"/>
     <use xlink:href="#DejaVuSans-36" x="127.246094"/>
     <use xlink:href="#DejaVuSans-202f" x="190.869141"/>
     <use xlink:href="#DejaVuSans-6d" x="210.839844"/>
     <use xlink:href="#DejaVuSans-20" x="308.251953"/>
     <use xlink:href="#DejaVuSans-62" x="340.039062"/>
     <use xlink:href="#DejaVuSans-61" x="403.515625"/>
     <use xlink:href="#DejaVuSans-73" x="464.794922"/>
     <use xlink:href="#DejaVuSans-65" x="516.894531"/>
    </g>
    <!-- 949 m peak -->
    <g style="fill: #95a5a6" transform="translate(237.226132 276.349132) scale(0.1 -0.1)">
     <use xlink:href="#DejaVuSans-39"/>
     <use xlink:href="#DejaVuSans-34" x="63.623047"/>
     <use xlink:href="#DejaVuSans-39" x="127.246094"/>
     <use xlink:href="#DejaVuSans-202f" x="190.869141"/>
     <use xlink:href="#DejaVuSans-6d" x="210.839844"/>
     <use xlink:href="#DejaVuSans-20" x="308.251953"/>
     <use xlink:href="#DejaVuSans-70" x="340.039062"/>
     <use xlink:href="#DejaVuSans-65" x="403.515625"/>
     <use xlink:href="#DejaVuSans-61" x="465.039062"/>
     <use xlink:href="#DejaVuSans-6b" x="526.318359"/>
    </g>
   </g>
   <g id="text_9">
    <!-- Hakodate Nanae (函館七飯スノーパーク) -->
    <g transform="translate(7.2 19.5825) scale(0.16 -0.16)">
     <defs>
      <path id="DejaVuSans-Bold-48" d="M 588 4666 
L 1791 4666 
L 1791 2888 
L 3566 2888 
L 3566 4666 
L 4769 4666 
L 4769 0 
L 3566 0 
L 3566 1978 
L 1791 1978 
L 1791 0 
L 588 0 
L 588 4666 
z
" transform="scale(0.015625)"/>
      <path id="DejaVuSans-Bold-61" d="M 2106 1575 
Q 1756 1575 1579 1456 
Q 1403 1338 1403 1106 
Q 1403 894 1545 773 
Q 1688 653 1941 653 
Q 2256 653 2472 879 
Q 2688 1106 2688 1447 
L 2688 1575 
L 2106 1575 
z
M 3816 1997 
L 3816 0 
L 2688 0 
L 2688 519 
Q 2463 200 2181 54 
Q 1900 -91 1497 -91 
Q 953 -91 614 226 
Q 275 544 275 1050 
Q 275 1666 698 1953 
Q 1122 2241 2028 2241 
L 2688 2241 
L 2688 2328 
Q 2688 2594 2478 2717 
Q 2269 2841 1825 2841 
Q 1466 2841 1156 2769 
Q 847 2697 581 2553 
L 581 3406 
Q 941 3494 1303 3539 
Q 1666 3584 2028 3584 
Q 2975 3584 3395 3211 
Q 3816 2838 3816 1997 
z
" transform="scale(0.015625)"/>
      <path id="DejaVuSans-Bold-6b" d="M 538 4863 
L 1656 4863 
L 1656 2216 
L 2944 3500 
L 4244 3500 
L 2534 1894 
L 4378 0 
L 3022 0 
L 1656 1459 
L 1656 0 
L 538 0 
L 538 4863 
z
" transform="scale(0.015625)"/>
      <path id="DejaVuSans-Bold-6f" d="M 2203 2784 
Q 1831 2784 1636 2517 
Q 1441 2250 1441 1747 
Q 1441 1244 1636 976 
Q 1831 709 2203 709 
Q 2569 709 2762 976 
Q 2956 1244 2956 1747 
Q 2956 2250 2762 2517 
Q 2569 2784 2203 2784 
z
M 2203 3584 
Q 3106 3584 3614 3096 
Q 4122 2609 4122 1747 
Q 4122 884 3614 396 
Q 3106 -91 2203 -91 
Q 1297 -91 786 396 
Q 275 884 275 1747 
Q 275 2609 786 3096 
Q 1297 3584 2203 3584 
z
" transform="scale(0.015625)"/>
      <path id="DejaVuSans-Bold-64" d="M 2919 2988 
L 2919 4863 
L 4044 4863 
L 4044 0 
L 2919 0 
L 2919 506 
Q 2688 197 2409 53 
Q 2131 -91 1766 -91 
Q 1119 -91 703 423 
Q 288 938 288 1747 
Q 288 2556 703 3070 
Q 1119 3584 1766 3584 
Q 2128 3584 2408 3439 
Q 2688 3294 2919 2988 
z
M 2181 722 
Q 2541 722 2730 984 
Q 2919 1247 2919 1747 
Q 2919 2247 2730 2509 
Q 2541 2772 2181 2772 
Q 1825 2772 1636 2509 
Q 1447 2247 1447 1747 
Q 1447 1247 1636 984 
Q 1825 722 2181 722 
z
" transform="scale(0.015625)"/>
      <path id="DejaVuSans-Bold-74" d="M 1759 4494 
L 1759 3500 
L 2913 3500 
L 2913 2700 
L 1759 2700 
L 1759 1216 
Q 1759 972 1856 886 
Q 1953 800 2241 800 
L 2816 800 
L 2816 0 
L 1856 0 
Q 1194 0 917 276 
Q 641 553 641 1216 
L 641 2700 
L 84 2700 
L 84 3500 
L 641 3500 
L 641 4494 
L 1759 4494 
z
" transform="scale(0.015625)"/>
      <path id="DejaVuSans-Bold-65" d="M 4031 1759 
L 4031 1441 
L 1416 1441 
Q 1456 1047 1700 850 
Q 1944 653 2381 653 
Q 2734 653 3104 758 
Q 3475 863 3866 1075 
L 3866 213 
Q 3469 63 3072 -14 
Q 2675 -91 2278 -91 
Q 1328 -91 801 392 
Q 275 875 275 1747 
Q 275 2603 792 3093 
Q 1309 3584 2216 3584 
Q 3041 3584 3536 3087 
Q 4031 2591 4031 1759 
z
M 2881 2131 
Q 2881 2450 2695 2645 
Q 2509 2841 2209 2841 
Q 1884 2841 1681 2658 
Q 1478 2475 1428 2131 
L 2881 2131 
z
" transform="scale(0.015625)"/>
      <path id="DejaVuSans-Bold-20" transform="scale(0.015625)"/>
      <path id="DejaVuSans-Bold-6e" d="M 4056 2131 
L 4056 0 
L 2931 0 
L 2931 347 
L 2931 1631 
Q 2931 2084 2911 2256 
Q 2891 2428 2841 2509 
Q 2775 2619 2662 2680 
Q 2550 2741 2406 2741 
Q 2056 2741 1856 2470 
Q 1656 2200 1656 1722 
L 1656 0 
L 538 0 
L 538 3500 
L 1656 3500 
L 1656 2988 
Q 1909 3294 2193 3439 
Q 2478 3584 2822 3584 
Q 3428 3584 3742 3212 
Q 4056 2841 4056 2131 
z
" transform="scale(0.015625)"/>
      <path id="DejaVuSans-Bold-28" d="M 2413 -844 
L 1484 -844 
Q 1006 -72 778 623 
Q 550 1319 550 2003 
Q 550 2688 779 3389 
Q 1009 4091 1484 4856 
L 2413 4856 
Q 2013 4116 1813 3408 
Q 1613 2700 1613 2009 
Q 1613 1319 1811 609 
Q 2009 -100 2413 -844 
z
" transform="scale(0.015625)"/>
      <path id="NotoSansCJKjp-Bold-51fd" d="M 5171 3834 
L 5171 442 
L 1235 442 
L 1235 1472 
L 1581 851 
C 1946 1094 2381 1389 2778 1677 
L 2586 2227 
C 2080 1939 1574 1658 1235 1485 
L 1235 3834 
L 506 3834 
L 506 -563 
L 1235 -563 
L 1235 -243 
L 5171 -243 
L 5171 -557 
L 5914 -557 
L 5914 3834 
L 5171 3834 
z
M 1338 3123 
C 1626 2874 1952 2515 2106 2278 
L 2598 2714 
C 2496 2861 2330 3040 2144 3219 
L 2752 3162 
L 2784 3283 
L 3091 3283 
C 3053 1830 2995 1299 2899 1165 
C 2842 1094 2797 1075 2707 1075 
C 2611 1075 2426 1075 2214 1094 
C 2310 928 2381 672 2394 493 
C 2656 480 2899 480 3059 506 
C 3238 538 3373 595 3494 762 
C 3584 883 3648 1146 3686 1664 
C 4064 1382 4467 1030 4672 794 
L 5120 1344 
C 4870 1600 4384 1978 3955 2253 
L 3712 1990 
L 3744 2637 
L 3776 3590 
C 3782 3680 3789 3878 3789 3878 
L 2938 3878 
L 3046 4352 
L 6074 4352 
L 6074 5075 
L 333 5075 
L 333 4352 
L 2336 4352 
C 2253 3974 2157 3590 2067 3290 
L 1811 3507 
L 1338 3123 
z
M 4422 3584 
C 4269 3296 3968 2886 3744 2637 
L 4224 2349 
C 4467 2566 4768 2918 5062 3238 
L 4422 3584 
z
" transform="scale(0.015625)"/>
      <path id="NotoSansCJKjp-Bold-9928" d="M 1242 5440 
C 1030 4934 646 4326 64 3878 
C 218 3776 442 3533 538 3373 
L 582 3411 
L 582 403 
L 192 326 
L 403 -378 
L 2208 122 
C 2285 -70 2349 -243 2381 -390 
L 3034 -90 
C 2918 320 2605 934 2298 1402 
L 1690 1139 
C 1779 1005 1862 851 1946 698 
L 1261 544 
L 1261 1466 
L 2720 1466 
L 2720 3686 
L 2054 3686 
L 2054 4218 
L 1427 4218 
L 1427 3686 
L 877 3686 
C 1242 4051 1504 4442 1709 4781 
C 2022 4486 2342 4070 2502 3795 
L 2912 4269 
L 2912 3558 
L 3277 3558 
L 3277 -576 
L 3974 -576 
L 3974 -282 
L 5286 -282 
L 5286 -538 
L 5990 -538 
L 5990 1555 
L 3974 1555 
L 3974 1952 
L 5722 1952 
L 5722 3558 
L 6138 3558 
L 6138 4762 
L 4864 4762 
L 4864 5440 
L 4115 5440 
L 4115 4762 
L 2912 4762 
L 2912 4467 
C 2675 4781 2278 5165 1933 5440 
L 1242 5440 
z
M 3974 365 
L 3974 922 
L 5286 922 
L 5286 365 
L 3974 365 
z
M 3974 3085 
L 5018 3085 
L 5018 2566 
L 3974 2566 
L 3974 3085 
z
M 3974 3693 
L 3597 3693 
L 3597 4141 
L 5421 4141 
L 5421 3693 
L 3974 3693 
z
M 1261 2342 
L 2048 2342 
L 2048 2010 
L 1261 2010 
L 1261 2342 
z
M 1261 2829 
L 1261 3142 
L 2048 3142 
L 2048 2829 
L 1261 2829 
z
" transform="scale(0.015625)"/>
      <path id="NotoSansCJKjp-Bold-4e03" d="M 2074 5306 
L 2074 3264 
L 262 2989 
L 390 2214 
L 2074 2464 
L 2074 902 
C 2074 -90 2355 -371 3334 -371 
C 3546 -371 4518 -371 4742 -371 
C 5702 -371 5939 90 6042 1363 
C 5824 1414 5459 1574 5261 1728 
C 5184 627 5120 397 4685 397 
C 4474 397 3603 397 3398 397 
C 2976 397 2912 461 2912 890 
L 2912 2592 
L 6195 3078 
L 6067 3872 
L 2912 3392 
L 2912 5306 
L 2074 5306 
z
" transform="scale(0.015625)"/>
      <path id="NotoSansCJKjp-Bold-98ef" d="M 4320 2803 
L 5318 2803 
C 5210 2323 5050 1894 4851 1523 
C 4627 1914 4454 2349 4320 2803 
z
M 1299 5440 
C 1075 4941 659 4365 51 3923 
C 211 3827 435 3590 544 3437 
L 595 3475 
L 595 429 
L 192 333 
L 435 -378 
L 2227 198 
C 2272 70 2304 -45 2330 -147 
L 2560 -58 
L 2502 -128 
C 2669 -205 2976 -435 3098 -563 
C 3238 -384 3360 -179 3462 38 
C 3610 -90 3834 -371 3930 -531 
C 4269 -333 4582 -64 4864 262 
C 5126 -51 5434 -314 5779 -525 
C 5894 -339 6125 -58 6285 83 
C 5907 275 5581 550 5299 883 
C 5696 1536 5984 2368 6138 3360 
L 5690 3520 
L 5562 3494 
L 3942 3494 
L 3942 4422 
L 6093 4422 
L 6093 5133 
L 3219 5133 
L 3219 2931 
C 3219 2189 3187 1267 2861 493 
C 2739 800 2573 1146 2426 1427 
L 1805 1210 
L 1997 794 
L 1280 602 
L 1280 1491 
L 2810 1491 
L 2810 3686 
L 2106 3686 
L 2106 4218 
L 1459 4218 
L 1459 3686 
L 838 3686 
C 1242 4058 1542 4454 1766 4806 
C 2093 4506 2451 4077 2630 3802 
L 3098 4346 
C 2867 4672 2387 5120 1997 5440 
L 1299 5440 
z
M 3910 2022 
C 4058 1613 4224 1229 4429 883 
C 4160 550 3840 282 3482 83 
C 3744 678 3859 1376 3910 2022 
z
M 1280 2342 
L 2131 2342 
L 2131 2022 
L 1280 2022 
L 1280 2342 
z
M 1280 2854 
L 1280 3155 
L 2131 3155 
L 2131 2854 
L 1280 2854 
z
" transform="scale(0.015625)"/>
      <path id="NotoSansCJKjp-Bold-30b9" d="M 5338 4339 
L 4813 4730 
C 4685 4685 4429 4646 4154 4646 
C 3866 4646 2227 4646 1894 4646 
C 1702 4646 1312 4666 1139 4691 
L 1139 3782 
C 1274 3789 1626 3827 1894 3827 
C 2170 3827 3802 3827 4064 3827 
C 3923 3373 3533 2739 3110 2259 
C 2509 1587 1517 806 486 422 
L 1146 -269 
C 2022 147 2874 813 3552 1523 
C 4154 947 4749 294 5165 -282 
L 5894 352 
C 5517 813 4742 1632 4109 2182 
C 4538 2765 4896 3443 5114 3942 
C 5171 4070 5286 4269 5338 4339 
z
" transform="scale(0.015625)"/>
      <path id="NotoSansCJKjp-Bold-30ce" d="M 5338 4685 
L 4339 4941 
C 4166 4026 3744 2918 3130 2176 
C 2560 1485 1696 851 698 512 
L 1427 -237 
C 2413 160 3309 941 3853 1619 
C 4371 2266 4787 3232 5056 3968 
C 5133 4173 5222 4454 5338 4685 
z
" transform="scale(0.015625)"/>
      <path id="NotoSansCJKjp-Bold-30fc" d="M 589 2963 
L 589 1958 
C 826 1971 1254 1990 1619 1990 
C 2368 1990 4480 1990 5056 1990 
C 5325 1990 5651 1965 5805 1958 
L 5805 2963 
C 5638 2950 5357 2925 5056 2925 
C 4480 2925 2374 2925 1619 2925 
C 1286 2925 819 2944 589 2963 
z
" transform="scale(0.015625)"/>
      <path id="NotoSansCJKjp-Bold-30d1" d="M 5126 4602 
C 5126 4806 5293 4973 5498 4973 
C 5702 4973 5869 4806 5869 4602 
C 5869 4403 5702 4237 5498 4237 
C 5293 4237 5126 4403 5126 4602 
z
M 4730 4602 
C 4730 4186 5075 3840 5498 3840 
C 5920 3840 6266 4186 6266 4602 
C 6266 5024 5920 5370 5498 5370 
C 5075 5370 4730 5024 4730 4602 
z
M 1229 1990 
C 1011 1427 634 736 230 211 
L 1126 -166 
C 1466 314 1843 1043 2074 1664 
C 2298 2259 2528 3142 2618 3590 
C 2643 3731 2714 4045 2771 4230 
L 1837 4422 
C 1760 3610 1517 2707 1229 1990 
z
M 4390 2125 
C 4646 1434 4877 627 5056 -134 
L 6003 173 
C 5824 806 5485 1830 5261 2406 
C 5018 3027 4576 4013 4314 4506 
L 3462 4230 
C 3731 3744 4147 2797 4390 2125 
z
" transform="scale(0.015625)"/>
      <path id="NotoSansCJKjp-Bold-30af" d="M 3667 4992 
L 2733 5299 
C 2675 5082 2541 4787 2445 4627 
C 2125 4077 1568 3251 448 2566 
L 1165 2035 
C 1792 2464 2349 3027 2778 3584 
L 4576 3584 
C 4474 3104 4102 2336 3667 1837 
C 3110 1203 2394 646 1088 256 
L 1843 -422 
C 3046 51 3821 640 4429 1382 
C 5005 2099 5370 2950 5542 3520 
C 5594 3680 5683 3859 5754 3981 
L 5101 4384 
C 4954 4339 4742 4307 4544 4307 
L 3258 4307 
L 3277 4339 
C 3354 4480 3520 4768 3667 4992 
z
" transform="scale(0.015625)"/>
      <path id="DejaVuSans-Bold-29" d="M 513 -844 
Q 913 -100 1113 609 
Q 1313 1319 1313 2009 
Q 1313 2700 1113 3408 
Q 913 4116 513 4856 
L 1441 4856 
Q 1916 4091 2145 3389 
Q 2375 2688 2375 2003 
Q 2375 1319 2147 623 
Q 1919 -72 1441 -844 
L 513 -844 
z
" transform="scale(0.015625)"/>
     </defs>
     <use xlink:href="#DejaVuSans-Bold-48"/>
     <use xlink:href="#DejaVuSans-Bold-61" x="83.691406"/>
     <use xlink:href="#DejaVuSans-Bold-6b" x="151.171875"/>
     <use xlink:href="#DejaVuSans-Bold-6f" x="215.050781"/>
     <use xlink:href="#DejaVuSans-Bold-64" x="283.751953"/>
     <use xlink:href="#DejaVuSans-Bold-61" x="355.333984"/>
     <use xlink:href="#DejaVuSans-Bold-74" x="422.814453"/>
     <use xlink:href="#DejaVuSans-Bold-65" x="470.617188"/>
     <use xlink:href="#DejaVuSans-Bold-20" x="538.439453"/>
     <use xlink:href="#DejaVuSans-Bold-4e" x="573.253906"/>
     <use xlink:href="#DejaVuSans-Bold-61" x="656.945312"/>
     <use xlink:href="#DejaVuSans-Bold-6e" x="724.425781"/>
     <use xlink:href="#DejaVuSans-Bold-61" x="795.617188"/>
     <use xlink:href="#DejaVuSans-Bold-65" x="863.097656"/>
     <use xlink:href="#DejaVuSans-Bold-20" x="930.919922"/>
     <use xlink:href="#DejaVuSans-Bold-28" x="965.734375"/>
     <use xlink:href="#NotoSansCJKjp-Bold-51fd" x="1011.4375"/>
     <use xlink:href="#NotoSansCJKjp-Bold-9928" x="1111.437485"/>
     <use xlink:href="#NotoSansCJKjp-Bold-4e03" x="1211.437469"/>
     <use xlink:href="#NotoSansCJKjp-Bold-98ef" x="1311.437454"/>
     <use xlink:href="#NotoSansCJKjp-Bold-30b9" x="1411.437439"/>
     <use xlink:href="#NotoSansCJKjp-Bold-30ce" x="1511.437424"/>
     <use xlink:href="#NotoSansCJKjp-Bold-30fc" x="1611.437408"/>
     <use xlink:href="#NotoSansCJKjp-Bold-30d1" x="1711.437393"/>
     <use xlink:href="#NotoSansCJKjp-Bold-30fc" x="1811.437378"/>
     <use xlink:href="#NotoSansCJKjp-Bold-30af" x="1911.437363"/>
     <use xlink:href="#DejaVuSans-Bold-29" x="2011.437347"/>
    </g>
   </g>
  </g>
 </g>
 <defs>
  <clipPath id="p66493bd329">
   <path d="M 282.65125 154.5505 
C 282.65125 139.989872 279.783124 125.570827 274.211013 112.118561 
C 268.638901 98.666295 260.471169 86.442419 250.17525 76.1465 
C 239.879331 65.850581 227.655455 57.682849 214.203189 52.110737 
C 200.750923 46.538626 186.331878 43.6705 171.77125 43.6705 
C 157.210622 43.6705 142.791577 46.538626 129.339311 52.110737 
C 115.887045 57.682849 103.663169 65.850581 93.36725 76.1465 
C 83.071331 86.442419 74.903599 98.666295 69.331487 112.118561 
C 63.759376 125.570827 60.89125 139.989872 60.89125 154.5505 
C 60.89125 169.111128 63.759376 183.530173 69.331487 196.982439 
C 74.903599 210.434705 83.071331 222.658581 93.36725 232.9545 
C 103.663169 243.250419 115.887045 251.418151 129.339311 256.990263 
C 142.791577 262.562374 157.210622 265.4305 171.77125 265.4305 
C 186.331878 265.4305 200.750923 262.562374 214.203189 256.990263 
C 227.655455 251.418151 239.879331 243.250419 250.17525 232.9545 
C 260.471169 222.658581 268.638901 210.434705 274.211013 196.982439 
C 279.783124 183.530173 282.65125 169.111128 282.65125 154.5505 
M 171.77125 154.5505 
C 171.77125 154.5505 171.77125 154.5505 171.77125 154.5505 
C 171.77125 154.5505 171.77125 154.5505 171.77125 154.5505 
C 171.77125 154.5505 171.77125 154.5505 171.77125 154.5505 
C 171.77125 154.5505 171.77125 154.5505 171.77125 154.5505 
C 171.77125 154.5505 171.77125 154.5505 171.77125 154.5505 
C 171.77125 154.5505 171.77125 154.5505 171.77125 154.5505 
C 171.77125 154.5505 171.77125 154.5505 171.77125 154.5505 
C 171.77125 154.5505 171.77125 154.5505 171.77125 154.5505 
C 171.77125 154.5505 171.77125 154.5505 171.77125 154.5505 
C 171.77125 154.5505 171.77125 154.5505 171.77125 154.5505 
C 171.77125 154.5505 171.77125 154.5505 171.77125 154.5505 
C 171.77125 154.5505 171.77125 154.5505 171.77125 154.5505 
C 171.77125 154.5505 171.77125 154.5505 171.77125 154.5505 
C 171.77125 154.5505 171.77125 154.5505 171.77125 154.5505 
C 171.77125 154.5505 171.77125 154.5505 171.77125 154.5505 
C 171.77125 154.5505 171.77125 154.5505 171.77125 154.5505 
z
"/>
  </clipPath>
 </defs>
</svg>
