<?xml version="1.0" encoding="utf-8" standalone="no"?>
<!DOCTYPE svg PUBLIC "-//W3C//DTD SVG 1.1//EN"
  "http://www.w3.org/Graphics/SVG/1.1/DTD/svg11.dtd">
<svg xmlns:xlink="http://www.w3.org/1999/xlink" width="281.045pt" height="287.282062pt" viewBox="0 0 281.045 287.282062" xmlns="http://www.w3.org/2000/svg" version="1.1">
 <title>Ski Rose for Hotaka Farm Bokujo (武尊牧場)</title>
 <metadata>
  <rdf:RDF xmlns:dc="http://purl.org/dc/elements/1.1/" xmlns:cc="http://creativecommons.org/ns#" xmlns:rdf="http://www.w3.org/1999/02/22-rdf-syntax-ns#">
   <cc:Work>
    <dc:type rdf:resource="http://purl.org/dc/dcmitype/StillImage"/>
    <dc:title>Ski Rose for Hotaka Farm Bokujo (武尊牧場)</dc:title>
    <dc:date>2024-12-20T01:53:30.615816</dc:date>
    <dc:description>A 32-bin histogram of downhill ski trail orientations generated from &lt;https://openskimap.org/?obj=4010b8a2cae002d5a4f918e305bd5ae0066a98fe&gt;.</dc:description>
    <dc:format>image/svg+xml</dc:format>
    <dc:creator>
     <cc:Agent>
      <dc:title>https://github.com/dhimmel/openskistats</dc:title>
     </cc:Agent>
    </dc:creator>
   </cc:Work>
  </rdf:RDF>
 </metadata>
 <defs>
  <style type="text/css">*{stroke-linejoin: round; stroke-linecap: butt}</style>
 </defs>
 <g id="figure_1">
  <g id="patch_1">
   <path d="M 0 287.282062 
L 281.045 287.282062 
L 281.045 0 
L 0 0 
z
" style="fill: #ffffff"/>
  </g>
  <g id="axes_1">
   <g id="patch_2">
    <path d="M 251.4025 155.863 
C 251.4025 141.302372 248.534374 126.883327 242.962263 113.431061 
C 237.390151 99.978795 229.222419 87.754919 218.9265 77.459 
C 208.630581 67.163081 196.406705 58.995349 182.954439 53.423237 
C 169.502173 47.851126 155.083128 44.983 140.5225 44.983 
C 125.961872 44.983 111.542827 47.851126 98.090561 53.423237 
C 84.638295 58.995349 72.414419 67.163081 62.1185 77.459 
C 51.822581 87.754919 43.654849 99.978795 38.082737 113.431061 
C 32.510626 126.883327 29.6425 141.302372 29.6425 155.863 
C 29.6425 170.423628 32.510626 184.842673 38.082737 198.294939 
C 43.654849 211.747205 51.822581 223.971081 62.1185 234.267 
C 72.414419 244.562919 84.638295 252.730651 98.090561 258.302763 
C 111.542827 263.874874 125.961872 266.743 140.5225 266.743 
C 155.083128 266.743 169.502173 263.874874 182.954439 258.302763 
C 196.406705 252.730651 208.630581 244.562919 218.9265 234.267 
C 229.222419 223.971081 237.390151 211.747205 242.962263 198.294939 
C 248.534374 184.842673 251.4025 170.423628 251.4025 155.863 
M 140.5225 155.863 
C 140.5225 155.863 140.5225 155.863 140.5225 155.863 
C 140.5225 155.863 140.5225 155.863 140.5225 155.863 
C 140.5225 155.863 140.5225 155.863 140.5225 155.863 
C 140.5225 155.863 140.5225 155.863 140.5225 155.863 
C 140.5225 155.863 140.5225 155.863 140.5225 155.863 
C 140.5225 155.863 140.5225 155.863 140.5225 155.863 
C 140.5225 155.863 140.5225 155.863 140.5225 155.863 
C 140.5225 155.863 140.5225 155.863 140.5225 155.863 
C 140.5225 155.863 140.5225 155.863 140.5225 155.863 
C 140.5225 155.863 140.5225 155.863 140.5225 155.863 
C 140.5225 155.863 140.5225 155.863 140.5225 155.863 
C 140.5225 155.863 140.5225 155.863 140.5225 155.863 
C 140.5225 155.863 140.5225 155.863 140.5225 155.863 
C 140.5225 155.863 140.5225 155.863 140.5225 155.863 
C 140.5225 155.863 140.5225 155.863 140.5225 155.863 
C 140.5225 155.863 140.5225 155.863 140.5225 155.863 
z
" style="fill: #ffffff"/>
   </g>
   <g id="matplotlib.axis_1">
    <g id="xtick_1">
     <g id="line2d_1">
      <path d="M 140.5225 155.863 
L 140.5225 44.983 
" clip-path="url(#p2fc1ecd84c)" style="fill: none; stroke: #b0b0b0; stroke-width: 0.8; stroke-linecap: square"/>
     </g>
     <g id="text_1">
      <!-- N -->
      <g transform="translate(136.338125 39.242375) scale(0.1 -0.1)">
       <defs>
        <path id="DejaVuSans-Bold-4e" d="M 588 4666 
L 1931 4666 
L 3628 1466 
L 3628 4666 
L 4769 4666 
L 4769 0 
L 3425 0 
L 1728 3200 
L 1728 0 
L 588 0 
L 588 4666 
z
" transform="scale(0.015625)"/>
       </defs>
       <use xlink:href="#DejaVuSans-Bold-4e"/>
      </g>
     </g>
    </g>
    <g id="xtick_2">
     <g id="line2d_2">
      <path d="M 140.5225 155.863 
L 218.9265 77.459 
" clip-path="url(#p2fc1ecd84c)" style="fill: none; stroke: #b0b0b0; stroke-width: 0.8; stroke-linecap: square"/>
     </g>
    </g>
    <g id="xtick_3">
     <g id="line2d_3">
      <path d="M 140.5225 155.863 
L 251.4025 155.863 
" clip-path="url(#p2fc1ecd84c)" style="fill: none; stroke: #b0b0b0; stroke-width: 0.8; stroke-linecap: square"/>
     </g>
     <g id="text_2">
      <!-- E -->
      <g transform="translate(256.486875 158.622375) scale(0.1 -0.1)">
       <defs>
        <path id="DejaVuSans-Bold-45" d="M 588 4666 
L 3834 4666 
L 3834 3756 
L 1791 3756 
L 1791 2888 
L 3713 2888 
L 3713 1978 
L 1791 1978 
L 1791 909 
L 3903 909 
L 3903 0 
L 588 0 
L 588 4666 
z
" transform="scale(0.015625)"/>
       </defs>
       <use xlink:href="#DejaVuSans-Bold-45"/>
      </g>
     </g>
    </g>
    <g id="xtick_4">
     <g id="line2d_4">
      <path d="M 140.5225 155.863 
L 218.9265 234.267 
" clip-path="url(#p2fc1ecd84c)" style="fill: none; stroke: #b0b0b0; stroke-width: 0.8; stroke-linecap: square"/>
     </g>
    </g>
    <g id="xtick_5">
     <g id="line2d_5">
      <path d="M 140.5225 155.863 
L 140.5225 266.743 
" clip-path="url(#p2fc1ecd84c)" style="fill: none; stroke: #b0b0b0; stroke-width: 0.8; stroke-linecap: square"/>
     </g>
     <g id="text_3">
      <!-- S -->
      <g transform="translate(136.921719 278.002375) scale(0.1 -0.1)">
       <defs>
        <path id="DejaVuSans-Bold-53" d="M 3834 4519 
L 3834 3531 
Q 3450 3703 3084 3790 
Q 2719 3878 2394 3878 
Q 1963 3878 1756 3759 
Q 1550 3641 1550 3391 
Q 1550 3203 1689 3098 
Q 1828 2994 2194 2919 
L 2706 2816 
Q 3484 2659 3812 2340 
Q 4141 2022 4141 1434 
Q 4141 663 3683 286 
Q 3225 -91 2284 -91 
Q 1841 -91 1394 -6 
Q 947 78 500 244 
L 500 1259 
Q 947 1022 1364 901 
Q 1781 781 2169 781 
Q 2563 781 2772 912 
Q 2981 1044 2981 1288 
Q 2981 1506 2839 1625 
Q 2697 1744 2272 1838 
L 1806 1941 
Q 1106 2091 782 2419 
Q 459 2747 459 3303 
Q 459 4000 909 4375 
Q 1359 4750 2203 4750 
Q 2588 4750 2994 4692 
Q 3400 4634 3834 4519 
z
" transform="scale(0.015625)"/>
       </defs>
       <use xlink:href="#DejaVuSans-Bold-53"/>
      </g>
     </g>
    </g>
    <g id="xtick_6">
     <g id="line2d_6">
      <path d="M 140.5225 155.863 
L 62.1185 234.267 
" clip-path="url(#p2fc1ecd84c)" style="fill: none; stroke: #b0b0b0; stroke-width: 0.8; stroke-linecap: square"/>
     </g>
    </g>
    <g id="xtick_7">
     <g id="line2d_7">
      <path d="M 140.5225 155.863 
L 29.6425 155.863 
" clip-path="url(#p2fc1ecd84c)" style="fill: none; stroke: #b0b0b0; stroke-width: 0.8; stroke-linecap: square"/>
     </g>
     <g id="text_4">
      <!-- W -->
      <g transform="translate(15.627656 158.622375) scale(0.1 -0.1)">
       <defs>
        <path id="DejaVuSans-Bold-57" d="M 191 4666 
L 1344 4666 
L 2150 1275 
L 2950 4666 
L 4109 4666 
L 4909 1275 
L 5716 4666 
L 6859 4666 
L 5759 0 
L 4372 0 
L 3525 3547 
L 2688 0 
L 1300 0 
L 191 4666 
z
" transform="scale(0.015625)"/>
       </defs>
       <use xlink:href="#DejaVuSans-Bold-57"/>
      </g>
     </g>
    </g>
    <g id="xtick_8">
     <g id="line2d_8">
      <path d="M 140.5225 155.863 
L 62.1185 77.459 
" clip-path="url(#p2fc1ecd84c)" style="fill: none; stroke: #b0b0b0; stroke-width: 0.8; stroke-linecap: square"/>
     </g>
    </g>
   </g>
   <g id="matplotlib.axis_2"/>
   <g id="patch_3">
    <path d="M 140.5225 155.863 
C 140.5225 155.863 140.5225 155.863 140.5225 155.863 
C 140.5225 155.863 140.5225 155.863 140.5225 155.863 
L 140.5225 155.863 
C 140.5225 155.863 140.5225 155.863 140.5225 155.863 
C 140.5225 155.863 140.5225 155.863 140.5225 155.863 
z
" clip-path="url(#p2fc1ecd84c)" style="fill: #d4a0a7; stroke: #000000; stroke-width: 0.5; stroke-linejoin: miter"/>
   </g>
   <g id="patch_4">
    <path d="M 140.5225 155.863 
C 140.5225 155.863 140.5225 155.863 140.5225 155.863 
C 140.5225 155.863 140.5225 155.863 140.5225 155.863 
L 140.5225 155.863 
C 140.5225 155.863 140.5225 155.863 140.5225 155.863 
C 140.5225 155.863 140.5225 155.863 140.5225 155.863 
z
" clip-path="url(#p2fc1ecd84c)" style="fill: #d4a0a7; stroke: #000000; stroke-width: 0.5; stroke-linejoin: miter"/>
   </g>
   <g id="patch_5">
    <path d="M 140.5225 155.863 
C 140.5225 155.863 140.5225 155.863 140.5225 155.863 
C 140.5225 155.863 140.5225 155.863 140.5225 155.863 
L 144.712433 148.024187 
C 144.455857 147.887044 144.192702 147.762581 143.923919 147.651247 
C 143.655136 147.539914 143.381049 147.441844 143.102648 147.357392 
z
" clip-path="url(#p2fc1ecd84c)" style="fill: #d4a0a7; stroke: #000000; stroke-width: 0.5; stroke-linejoin: miter"/>
   </g>
   <g id="patch_6">
    <path d="M 140.5225 155.863 
C 140.5225 155.863 140.5225 155.863 140.5225 155.863 
C 140.5225 155.863 140.5225 155.863 140.5225 155.863 
L 149.366457 145.086607 
C 149.01373 144.797131 148.647003 144.525147 148.2676 144.271639 
C 147.888198 144.01813 147.496577 143.783402 147.094153 143.568302 
z
" clip-path="url(#p2fc1ecd84c)" style="fill: #d4a0a7; stroke: #000000; stroke-width: 0.5; stroke-linejoin: miter"/>
   </g>
   <g id="patch_7">
    <path d="M 140.5225 155.863 
C 140.5225 155.863 140.5225 155.863 140.5225 155.863 
C 140.5225 155.863 140.5225 155.863 140.5225 155.863 
L 140.5225 155.863 
C 140.5225 155.863 140.5225 155.863 140.5225 155.863 
C 140.5225 155.863 140.5225 155.863 140.5225 155.863 
z
" clip-path="url(#p2fc1ecd84c)" style="fill: #d4a0a7; stroke: #000000; stroke-width: 0.5; stroke-linejoin: miter"/>
   </g>
   <g id="patch_8">
    <path d="M 140.5225 155.863 
C 140.5225 155.863 140.5225 155.863 140.5225 155.863 
C 140.5225 155.863 140.5225 155.863 140.5225 155.863 
L 145.093274 153.41987 
C 145.013307 153.270262 144.926043 153.12467 144.831796 152.98362 
C 144.73755 152.842571 144.636435 152.706233 144.528817 152.5751 
z
" clip-path="url(#p2fc1ecd84c)" style="fill: #d4a0a7; stroke: #000000; stroke-width: 0.5; stroke-linejoin: miter"/>
   </g>
   <g id="patch_9">
    <path d="M 140.5225 155.863 
C 140.5225 155.863 140.5225 155.863 140.5225 155.863 
C 140.5225 155.863 140.5225 155.863 140.5225 155.863 
L 152.551246 152.21412 
C 152.431813 151.820401 152.293121 151.432783 152.135672 151.052667 
C 151.978223 150.67255 151.802205 150.300393 151.608256 149.93754 
z
" clip-path="url(#p2fc1ecd84c)" style="fill: #d4a0a7; stroke: #000000; stroke-width: 0.5; stroke-linejoin: miter"/>
   </g>
   <g id="patch_10">
    <path d="M 140.5225 155.863 
C 140.5225 155.863 140.5225 155.863 140.5225 155.863 
C 140.5225 155.863 140.5225 155.863 140.5225 155.863 
L 171.228111 152.838761 
C 171.129123 151.833721 170.98085 150.834146 170.783827 149.843648 
C 170.586805 148.853149 170.341271 147.872921 170.048111 146.906504 
z
" clip-path="url(#p2fc1ecd84c)" style="fill: #d4a0a7; stroke: #000000; stroke-width: 0.5; stroke-linejoin: miter"/>
   </g>
   <g id="patch_11">
    <path d="M 140.5225 155.863 
C 140.5225 155.863 140.5225 155.863 140.5225 155.863 
C 140.5225 155.863 140.5225 155.863 140.5225 155.863 
L 163.435686 158.119752 
C 163.509553 157.369769 163.546553 156.616612 163.546553 155.863 
C 163.546553 155.109388 163.509553 154.356231 163.435686 153.606248 
z
" clip-path="url(#p2fc1ecd84c)" style="fill: #d4a0a7; stroke: #000000; stroke-width: 0.5; stroke-linejoin: miter"/>
   </g>
   <g id="patch_12">
    <path d="M 140.5225 155.863 
C 140.5225 155.863 140.5225 155.863 140.5225 155.863 
C 140.5225 155.863 140.5225 155.863 140.5225 155.863 
L 170.304277 164.897203 
C 170.59998 163.922401 170.847645 162.933669 171.046376 161.934577 
C 171.245108 160.935484 171.394667 159.927237 171.494514 158.913477 
z
" clip-path="url(#p2fc1ecd84c)" style="fill: #d4a0a7; stroke: #000000; stroke-width: 0.5; stroke-linejoin: miter"/>
   </g>
   <g id="patch_13">
    <path d="M 140.5225 155.863 
C 140.5225 155.863 140.5225 155.863 140.5225 155.863 
C 140.5225 155.863 140.5225 155.863 140.5225 155.863 
L 185.791223 180.059637 
C 186.583215 178.577924 187.301982 177.058219 187.944927 175.506012 
C 188.587872 173.953806 189.154221 172.370967 189.641927 170.763215 
z
" clip-path="url(#p2fc1ecd84c)" style="fill: #d4a0a7; stroke: #000000; stroke-width: 0.5; stroke-linejoin: miter"/>
   </g>
   <g id="patch_14">
    <path d="M 140.5225 155.863 
C 140.5225 155.863 140.5225 155.863 140.5225 155.863 
C 140.5225 155.863 140.5225 155.863 140.5225 155.863 
L 181.332836 189.355177 
C 182.429085 188.019394 183.45909 186.630593 184.41913 185.193791 
C 185.379171 183.756988 186.26809 182.273917 187.082676 180.749933 
z
" clip-path="url(#p2fc1ecd84c)" style="fill: #d4a0a7; stroke: #000000; stroke-width: 0.5; stroke-linejoin: miter"/>
   </g>
   <g id="patch_15">
    <path d="M 140.5225 155.863 
C 140.5225 155.863 140.5225 155.863 140.5225 155.863 
C 140.5225 155.863 140.5225 155.863 140.5225 155.863 
L 176.689396 199.93249 
C 178.131856 198.748693 179.515325 197.494789 180.834807 196.175307 
C 182.154289 194.855825 183.408193 193.472356 184.59199 192.029896 
z
" clip-path="url(#p2fc1ecd84c)" style="fill: #d4a0a7; stroke: #000000; stroke-width: 0.5; stroke-linejoin: miter"/>
   </g>
   <g id="patch_16">
    <path d="M 140.5225 155.863 
C 140.5225 155.863 140.5225 155.863 140.5225 155.863 
C 140.5225 155.863 140.5225 155.863 140.5225 155.863 
L 172.692346 216.04855 
C 174.662309 214.995582 176.579387 213.84653 178.436655 212.605543 
C 180.293924 211.364556 182.089143 210.033131 183.81583 208.616075 
z
" clip-path="url(#p2fc1ecd84c)" style="fill: #d4a0a7; stroke: #000000; stroke-width: 0.5; stroke-linejoin: miter"/>
   </g>
   <g id="patch_17">
    <path d="M 140.5225 155.863 
C 140.5225 155.863 140.5225 155.863 140.5225 155.863 
C 140.5225 155.863 140.5225 155.863 140.5225 155.863 
L 171.756148 258.82654 
C 175.126299 257.804216 178.444225 256.617043 181.697942 255.26931 
C 184.951659 253.921576 188.137244 252.414906 191.243193 250.754742 
z
" clip-path="url(#p2fc1ecd84c)" style="fill: #d4a0a7; stroke: #000000; stroke-width: 0.5; stroke-linejoin: miter"/>
   </g>
   <g id="patch_18">
    <path d="M 140.5225 155.863 
C 140.5225 155.863 140.5225 155.863 140.5225 155.863 
C 140.5225 155.863 140.5225 155.863 140.5225 155.863 
L 150.348645 255.629524 
C 153.614152 255.307899 156.8619 254.826141 160.080159 254.18599 
C 163.298417 253.545839 166.483306 252.748066 169.623322 251.795552 
z
" clip-path="url(#p2fc1ecd84c)" style="fill: #d4a0a7; stroke: #000000; stroke-width: 0.5; stroke-linejoin: miter"/>
   </g>
   <g id="patch_19">
    <path d="M 140.5225 155.863 
C 140.5225 155.863 140.5225 155.863 140.5225 155.863 
C 140.5225 155.863 140.5225 155.863 140.5225 155.863 
L 129.654359 266.209082 
C 133.266152 266.564813 136.893232 266.743 140.5225 266.743 
C 144.151768 266.743 147.778848 266.564813 151.390641 266.209082 
z
" clip-path="url(#p2fc1ecd84c)" style="fill: #d4a0a7; stroke: #000000; stroke-width: 0.5; stroke-linejoin: miter"/>
   </g>
   <g id="patch_20">
    <path d="M 140.5225 155.863 
C 140.5225 155.863 140.5225 155.863 140.5225 155.863 
C 140.5225 155.863 140.5225 155.863 140.5225 155.863 
L 112.271352 248.994555 
C 115.319687 249.919257 118.411584 250.693737 121.535877 251.315198 
C 124.66017 251.936658 127.813092 252.40435 130.983255 252.716584 
z
" clip-path="url(#p2fc1ecd84c)" style="fill: #d4a0a7; stroke: #000000; stroke-width: 0.5; stroke-linejoin: miter"/>
   </g>
   <g id="patch_21">
    <path d="M 140.5225 155.863 
C 140.5225 155.863 140.5225 155.863 140.5225 155.863 
C 140.5225 155.863 140.5225 155.863 140.5225 155.863 
L 104.04601 224.105712 
C 106.279696 225.299642 108.570654 226.383185 110.91061 227.352426 
C 113.250566 228.321668 115.636698 229.175439 118.060389 229.910658 
z
" clip-path="url(#p2fc1ecd84c)" style="fill: #d4a0a7; stroke: #000000; stroke-width: 0.5; stroke-linejoin: miter"/>
   </g>
   <g id="patch_22">
    <path d="M 140.5225 155.863 
C 140.5225 155.863 140.5225 155.863 140.5225 155.863 
C 140.5225 155.863 140.5225 155.863 140.5225 155.863 
L 88.89527 218.770961 
C 90.954342 220.460798 93.095139 222.048521 95.309928 223.528396 
C 97.524717 225.008271 99.81083 226.378514 102.160007 227.634175 
z
" clip-path="url(#p2fc1ecd84c)" style="fill: #d4a0a7; stroke: #000000; stroke-width: 0.5; stroke-linejoin: miter"/>
   </g>
   <g id="patch_23">
    <path d="M 140.5225 155.863 
C 140.5225 155.863 140.5225 155.863 140.5225 155.863 
C 140.5225 155.863 140.5225 155.863 140.5225 155.863 
L 75.279051 209.406915 
C 77.031623 211.542431 78.887987 213.590613 80.841437 215.544063 
C 82.794887 217.497513 84.843069 219.353877 86.978585 221.106449 
z
" clip-path="url(#p2fc1ecd84c)" style="fill: #d4a0a7; stroke: #000000; stroke-width: 0.5; stroke-linejoin: miter"/>
   </g>
   <g id="patch_24">
    <path d="M 140.5225 155.863 
C 140.5225 155.863 140.5225 155.863 140.5225 155.863 
C 140.5225 155.863 140.5225 155.863 140.5225 155.863 
L 83.336758 186.429416 
C 84.337242 188.301191 85.429023 190.122716 86.608156 191.887413 
C 87.787288 193.65211 89.052352 195.357851 90.398778 196.998476 
z
" clip-path="url(#p2fc1ecd84c)" style="fill: #d4a0a7; stroke: #000000; stroke-width: 0.5; stroke-linejoin: miter"/>
   </g>
   <g id="patch_25">
    <path d="M 140.5225 155.863 
C 140.5225 155.863 140.5225 155.863 140.5225 155.863 
C 140.5225 155.863 140.5225 155.863 140.5225 155.863 
L 106.574573 166.160991 
C 106.911642 167.272157 107.303062 168.366105 107.747421 169.438882 
C 108.19178 170.511659 108.688541 171.561973 109.235911 172.58603 
z
" clip-path="url(#p2fc1ecd84c)" style="fill: #d4a0a7; stroke: #000000; stroke-width: 0.5; stroke-linejoin: miter"/>
   </g>
   <g id="patch_26">
    <path d="M 140.5225 155.863 
C 140.5225 155.863 140.5225 155.863 140.5225 155.863 
C 140.5225 155.863 140.5225 155.863 140.5225 155.863 
L 118.855447 157.997018 
C 118.925297 158.706213 119.029924 159.411552 119.16895 160.110485 
C 119.307977 160.809419 119.481235 161.501105 119.6881 162.183046 
z
" clip-path="url(#p2fc1ecd84c)" style="fill: #d4a0a7; stroke: #000000; stroke-width: 0.5; stroke-linejoin: miter"/>
   </g>
   <g id="patch_27">
    <path d="M 140.5225 155.863 
C 140.5225 155.863 140.5225 155.863 140.5225 155.863 
C 140.5225 155.863 140.5225 155.863 140.5225 155.863 
L 140.5225 155.863 
C 140.5225 155.863 140.5225 155.863 140.5225 155.863 
C 140.5225 155.863 140.5225 155.863 140.5225 155.863 
z
" clip-path="url(#p2fc1ecd84c)" style="fill: #d4a0a7; stroke: #000000; stroke-width: 0.5; stroke-linejoin: miter"/>
   </g>
   <g id="patch_28">
    <path d="M 140.5225 155.863 
C 140.5225 155.863 140.5225 155.863 140.5225 155.863 
C 140.5225 155.863 140.5225 155.863 140.5225 155.863 
L 121.503382 150.093614 
C 121.314541 150.716138 121.156379 151.347558 121.029465 151.985594 
C 120.902552 152.62363 120.807041 153.267513 120.743277 153.914917 
z
" clip-path="url(#p2fc1ecd84c)" style="fill: #d4a0a7; stroke: #000000; stroke-width: 0.5; stroke-linejoin: miter"/>
   </g>
   <g id="patch_29">
    <path d="M 140.5225 155.863 
C 140.5225 155.863 140.5225 155.863 140.5225 155.863 
C 140.5225 155.863 140.5225 155.863 140.5225 155.863 
L 140.5225 155.863 
C 140.5225 155.863 140.5225 155.863 140.5225 155.863 
C 140.5225 155.863 140.5225 155.863 140.5225 155.863 
z
" clip-path="url(#p2fc1ecd84c)" style="fill: #d4a0a7; stroke: #000000; stroke-width: 0.5; stroke-linejoin: miter"/>
   </g>
   <g id="patch_30">
    <path d="M 140.5225 155.863 
C 140.5225 155.863 140.5225 155.863 140.5225 155.863 
C 140.5225 155.863 140.5225 155.863 140.5225 155.863 
L 128.621964 146.096483 
C 128.302292 146.486005 128.001936 146.890988 127.721983 147.309968 
C 127.442029 147.728948 127.182815 148.16142 126.945277 148.605823 
z
" clip-path="url(#p2fc1ecd84c)" style="fill: #d4a0a7; stroke: #000000; stroke-width: 0.5; stroke-linejoin: miter"/>
   </g>
   <g id="patch_31">
    <path d="M 140.5225 155.863 
C 140.5225 155.863 140.5225 155.863 140.5225 155.863 
C 140.5225 155.863 140.5225 155.863 140.5225 155.863 
L 140.5225 155.863 
C 140.5225 155.863 140.5225 155.863 140.5225 155.863 
C 140.5225 155.863 140.5225 155.863 140.5225 155.863 
z
" clip-path="url(#p2fc1ecd84c)" style="fill: #d4a0a7; stroke: #000000; stroke-width: 0.5; stroke-linejoin: miter"/>
   </g>
   <g id="patch_32">
    <path d="M 140.5225 155.863 
C 140.5225 155.863 140.5225 155.863 140.5225 155.863 
C 140.5225 155.863 140.5225 155.863 140.5225 155.863 
L 130.014201 136.203356 
C 129.370712 136.547308 128.744497 136.922647 128.13782 137.328016 
C 127.531142 137.733385 126.944732 138.168296 126.380709 138.631178 
z
" clip-path="url(#p2fc1ecd84c)" style="fill: #d4a0a7; stroke: #000000; stroke-width: 0.5; stroke-linejoin: miter"/>
   </g>
   <g id="patch_33">
    <path d="M 140.5225 155.863 
C 140.5225 155.863 140.5225 155.863 140.5225 155.863 
C 140.5225 155.863 140.5225 155.863 140.5225 155.863 
L 132.453605 129.263419 
C 131.582961 129.527526 130.725809 129.83422 129.885244 130.182393 
C 129.04468 130.530566 128.221716 130.919799 127.419326 131.348686 
z
" clip-path="url(#p2fc1ecd84c)" style="fill: #d4a0a7; stroke: #000000; stroke-width: 0.5; stroke-linejoin: miter"/>
   </g>
   <g id="patch_34">
    <path d="M 140.5225 155.863 
C 140.5225 155.863 140.5225 155.863 140.5225 155.863 
C 140.5225 155.863 140.5225 155.863 140.5225 155.863 
L 138.876398 139.14985 
C 138.329352 139.203729 137.785281 139.284434 137.24615 139.391674 
C 136.707018 139.498914 136.173478 139.632559 135.647454 139.792127 
z
" clip-path="url(#p2fc1ecd84c)" style="fill: #d4a0a7; stroke: #000000; stroke-width: 0.5; stroke-linejoin: miter"/>
   </g>
   <g id="PathCollection_1">
    <defs>
     <path id="m0ea6f4ce7d" d="M 0.193618 7.414054 
L 0.193618 7.414054 
C 0.054922 7.414054 -0.078235 7.358899 -0.176308 7.260826 
C -0.274381 7.162753 -0.329536 7.029596 -0.329536 6.890901 
L -0.329536 5.365008 
L -1.528416 6.56393 
L -1.528416 6.56393 
C -1.577018 6.612704 -1.634775 6.651408 -1.698366 6.677814 
C -1.761958 6.704221 -1.830141 6.717815 -1.898997 6.717815 
C -1.967853 6.717815 -2.036037 6.704221 -2.099628 6.677814 
C -2.163219 6.651408 -2.220976 6.612704 -2.269578 6.56393 
L -2.269578 6.56393 
C -2.318353 6.515327 -2.357056 6.457571 -2.383463 6.393979 
C -2.409869 6.330388 -2.423463 6.262205 -2.423463 6.193348 
C -2.423463 6.124492 -2.409869 6.056309 -2.383463 5.992718 
C -2.357056 5.929126 -2.318353 5.87137 -2.269578 5.822767 
L -0.329536 3.884106 
L -0.329536 0.820937 
L -2.98067 2.351538 
L -3.691824 5.001416 
L -3.691824 5.001416 
C -3.727584 5.135411 -3.815199 5.249836 -3.93523 5.319305 
C -4.055261 5.388775 -4.198123 5.407741 -4.332122 5.371997 
L -4.332122 5.371997 
C -4.466126 5.336237 -4.580558 5.248616 -4.650029 5.128576 
C -4.719499 5.008535 -4.73846 4.865662 -4.702703 4.731657 
L -4.262647 3.092721 
L -5.585535 3.855668 
L -5.585535 3.855668 
C -5.645013 3.890144 -5.710708 3.912561 -5.778854 3.921634 
C -5.847001 3.930706 -5.916272 3.926258 -5.982698 3.908543 
C -6.049125 3.890828 -6.111412 3.860192 -6.165991 3.818391 
C -6.220571 3.77659 -6.266379 3.724437 -6.300791 3.664922 
L -6.300791 3.664922 
C -6.335212 3.605364 -6.35755 3.539597 -6.366524 3.471396 
C -6.375498 3.403194 -6.370933 3.333888 -6.35309 3.267452 
C -6.335248 3.201017 -6.304476 3.138749 -6.26254 3.08422 
C -6.220605 3.029692 -6.168323 2.983966 -6.108695 2.949666 
L -4.785807 2.186762 
L -6.424743 1.746706 
L -6.424743 1.746706 
C -6.558747 1.710946 -6.673179 1.623325 -6.74265 1.503284 
C -6.81212 1.383244 -6.831081 1.240371 -6.795324 1.106366 
L -6.795324 1.106366 
C -6.777471 1.039969 -6.746703 0.977739 -6.704784 0.923241 
C -6.662864 0.868744 -6.61061 0.823041 -6.551015 0.788752 
C -6.491421 0.754464 -6.425647 0.732257 -6.357465 0.723406 
C -6.289282 0.714554 -6.220019 0.71923 -6.153645 0.737166 
L -3.505232 1.44698 
L -0.852424 -0.08496 
L -3.503767 -1.615666 
L -6.153645 -0.905851 
L -6.153645 -0.905851 
C -6.22011 -0.887939 -6.289462 -0.883321 -6.357716 -0.892262 
C -6.42597 -0.901202 -6.491793 -0.923527 -6.551403 -0.957953 
C -6.611013 -0.992379 -6.663247 -1.038234 -6.705103 -1.092883 
C -6.746958 -1.147533 -6.777619 -1.209911 -6.795324 -1.276432 
L -6.795324 -1.276432 
C -6.831068 -1.410431 -6.812101 -1.553293 -6.742632 -1.673324 
C -6.673162 -1.793355 -6.558738 -1.88097 -6.424743 -1.91673 
L -4.785807 -2.355447 
L -6.108695 -3.119732 
L -6.108695 -3.119732 
C -6.228699 -3.188976 -6.316415 -3.303132 -6.352417 -3.436921 
C -6.388419 -3.57071 -6.369839 -3.713469 -6.300791 -3.833586 
L -6.300791 -3.833586 
C -6.266491 -3.893214 -6.220765 -3.945496 -6.166237 -3.987431 
C -6.111708 -4.029367 -6.04944 -4.060139 -5.983005 -4.077981 
C -5.91657 -4.095823 -5.847263 -4.100389 -5.779062 -4.091415 
C -5.71086 -4.082441 -5.645094 -4.060102 -5.585535 -4.025682 
L -4.262647 -3.261396 
L -4.702703 -4.900332 
L -4.702703 -4.900332 
C -4.73846 -5.034337 -4.719499 -5.17721 -4.650029 -5.29725 
C -4.580558 -5.417291 -4.466126 -5.504912 -4.332122 -5.540672 
L -4.332122 -5.540672 
C -4.19831 -5.576464 -4.055613 -5.557686 -3.935617 -5.488496 
C -3.81562 -5.419305 -3.727882 -5.305212 -3.691824 -5.171472 
L -2.982009 -2.521594 
L -0.329411 -0.990302 
L -0.329411 -4.051588 
L -2.269453 -5.991589 
L -2.269453 -5.991589 
C -2.318227 -6.040191 -2.356931 -6.097947 -2.383337 -6.161539 
C -2.409744 -6.22513 -2.423338 -6.293314 -2.423338 -6.36217 
C -2.423338 -6.431026 -2.409744 -6.499209 -2.383337 -6.5628 
C -2.356931 -6.626392 -2.318227 -6.684149 -2.269453 -6.732751 
L -2.269453 -6.732751 
C -2.22085 -6.781526 -2.163094 -6.820229 -2.099502 -6.846635 
C -2.035911 -6.873042 -1.967728 -6.886636 -1.898871 -6.886636 
C -1.830015 -6.886636 -1.761832 -6.873042 -1.698241 -6.846635 
C -1.634649 -6.820229 -1.576893 -6.781526 -1.52829 -6.732751 
L -0.329411 -5.533829 
L -0.329411 -7.059722 
L -0.329411 -7.059722 
C -0.329411 -7.198418 -0.274255 -7.331575 -0.176182 -7.429647 
C -0.07811 -7.52772 0.055047 -7.582875 0.193743 -7.582875 
L 0.193743 -7.582875 
C 0.332439 -7.582875 0.465596 -7.52772 0.563669 -7.429647 
C 0.661741 -7.331575 0.716897 -7.198418 0.716897 -7.059722 
L 0.716897 -5.533829 
L 1.915777 -6.732751 
L 1.915777 -6.732751 
C 1.964379 -6.781526 2.022136 -6.820229 2.085727 -6.846635 
C 2.149318 -6.873042 2.217502 -6.886636 2.286358 -6.886636 
C 2.355214 -6.886636 2.423397 -6.873042 2.486989 -6.846635 
C 2.55058 -6.820229 2.608337 -6.781526 2.656939 -6.732751 
L 2.656939 -6.732751 
C 2.705714 -6.684149 2.744417 -6.626392 2.770823 -6.5628 
C 2.79723 -6.499209 2.810824 -6.431026 2.810824 -6.36217 
C 2.810824 -6.293314 2.79723 -6.22513 2.770823 -6.161539 
C 2.744417 -6.097947 2.705714 -6.040191 2.656939 -5.991589 
L 0.716897 -4.051588 
L 0.716897 -0.991139 
L 3.369495 -2.522954 
L 4.07931 -5.171367 
L 4.07931 -5.171367 
C 4.115368 -5.305107 4.203106 -5.4192 4.323103 -5.488391 
C 4.4431 -5.557582 4.585797 -5.576359 4.719608 -5.540567 
L 4.719608 -5.540567 
C 4.853612 -5.504807 4.968045 -5.417186 5.037515 -5.297146 
C 5.106986 -5.177105 5.125946 -5.034232 5.090189 -4.900227 
L 4.650133 -3.262673 
L 5.973022 -4.025577 
L 5.973022 -4.025577 
C 6.03258 -4.059998 6.098346 -4.082336 6.166548 -4.09131 
C 6.234749 -4.100284 6.304056 -4.095719 6.370491 -4.077876 
C 6.436926 -4.060034 6.499194 -4.029262 6.553723 -3.987327 
C 6.608252 -3.945391 6.653978 -3.893109 6.688277 -3.833481 
L 6.688277 -3.833481 
C 6.757325 -3.713365 6.775905 -3.570605 6.739903 -3.436816 
C 6.703901 -3.303027 6.616186 -3.188871 6.496181 -3.119628 
L 5.173293 -2.355342 
L 6.812229 -1.916625 
L 6.812229 -1.916625 
C 6.946224 -1.880865 7.060649 -1.79325 7.130118 -1.67322 
C 7.199588 -1.553189 7.218554 -1.410326 7.18281 -1.276327 
L 7.18281 -1.276327 
C 7.165106 -1.209806 7.134445 -1.147429 7.092589 -1.092779 
C 7.050733 -1.038129 6.998499 -0.992274 6.938889 -0.957848 
C 6.879279 -0.923422 6.813456 -0.901098 6.745202 -0.892157 
C 6.676949 -0.883217 6.607597 -0.887835 6.541131 -0.905746 
L 3.891253 -1.615561 
L 1.239492 -0.084604 
L 3.892718 1.447085 
L 6.541131 0.73727 
L 6.541131 0.73727 
C 6.674948 0.701466 6.817656 0.720237 6.937662 0.789429 
C 7.057669 0.858621 7.145413 0.972721 7.181471 1.10647 
L 7.181471 1.10647 
C 7.217274 1.240293 7.198497 1.383006 7.129297 1.503014 
C 7.060096 1.623021 6.945986 1.710762 6.812229 1.74681 
L 5.173293 2.186866 
L 6.496181 2.949771 
L 6.496181 2.949771 
C 6.555697 2.984183 6.607849 3.029991 6.649651 3.08457 
C 6.691452 3.13915 6.722088 3.201437 6.739803 3.267863 
C 6.757517 3.33429 6.761966 3.403561 6.752893 3.471707 
C 6.743821 3.539854 6.721404 3.605549 6.686927 3.665026 
L 6.686927 3.665026 
C 6.617458 3.784813 6.503196 3.87225 6.369416 3.907994 
C 6.235636 3.943739 6.092989 3.924946 5.973032 3.855772 
L 4.650144 3.091487 
L 5.08886 4.731783 
L 5.08886 4.731783 
C 5.124664 4.865606 5.105887 5.008319 5.036686 5.128326 
C 4.967486 5.248334 4.853376 5.336074 4.719619 5.372123 
L 4.719619 5.372123 
C 4.585619 5.407867 4.442757 5.3889 4.322726 5.319431 
C 4.202695 5.249961 4.115081 5.135537 4.07932 5.001542 
L 3.368166 2.351664 
L 0.717033 0.821063 
L 0.717033 3.884232 
L 2.657075 5.822893 
L 2.657075 5.822893 
C 2.70585 5.871495 2.744553 5.929252 2.770959 5.992843 
C 2.797366 6.056435 2.81096 6.124618 2.81096 6.193474 
C 2.81096 6.26233 2.797366 6.330514 2.770959 6.394105 
C 2.744553 6.457696 2.70585 6.515453 2.657075 6.564055 
L 2.657075 6.564055 
C 2.608473 6.61283 2.550716 6.651533 2.487125 6.67794 
C 2.423533 6.704346 2.35535 6.71794 2.286494 6.71794 
C 2.217638 6.71794 2.149454 6.704346 2.085863 6.67794 
C 2.022272 6.651533 1.964515 6.61283 1.915913 6.564055 
L 0.717033 5.365133 
L 0.717033 6.891026 
L 0.717033 6.891026 
C 0.717033 7.029722 0.661877 7.162879 0.563805 7.260952 
C 0.465732 7.359024 0.332575 7.41418 0.193879 7.41418 
L 0.193618 7.414054 
z
"/>
    </defs>
    <g clip-path="url(#p2fc1ecd84c)">
     <use xlink:href="#m0ea6f4ce7d" x="140.393864" y="241.751927" style="fill: #0000ff; fill-opacity: 0.7"/>
    </g>
   </g>
   <g id="patch_35">
    <path d="M 140.5225 44.983 
C 125.961872 44.983 111.542827 47.851126 98.090561 53.423237 
C 84.638295 58.995349 72.414419 67.163081 62.1185 77.459 
C 51.822581 87.754919 43.654849 99.978795 38.082737 113.431061 
C 32.510626 126.883327 29.6425 141.302372 29.6425 155.863 
C 29.6425 170.423628 32.510626 184.842673 38.082737 198.294939 
C 43.654849 211.747205 51.822581 223.971081 62.1185 234.267 
C 72.414419 244.562919 84.638295 252.730651 98.090561 258.302763 
C 111.542827 263.874874 125.961872 266.743 140.5225 266.743 
C 155.083128 266.743 169.502173 263.874874 182.954439 258.302763 
C 196.406705 252.730651 208.630581 244.562919 218.9265 234.267 
C 229.222419 223.971081 237.390151 211.747205 242.962263 198.294939 
C 248.534374 184.842673 251.4025 170.423628 251.4025 155.863 
C 251.4025 141.302372 248.534374 126.883327 242.962263 113.431061 
C 237.390151 99.978795 229.222419 87.754919 218.9265 77.459 
C 208.630581 67.163081 196.406705 58.995349 182.954439 53.423237 
C 169.502173 47.851126 155.083128 44.983 140.5225 44.983 
" style="fill: none; stroke: #000000; stroke-width: 0.8; stroke-linejoin: miter; stroke-linecap: square"/>
   </g>
   <g id="text_5">
    <!-- 10 runs -->
    <g style="fill: #95a5a6" transform="translate(16.64418 39.583118) scale(0.1 -0.1)">
     <defs>
      <path id="DejaVuSans-31" d="M 794 531 
L 1825 531 
L 1825 4091 
L 703 3866 
L 703 4441 
L 1819 4666 
L 2450 4666 
L 2450 531 
L 3481 531 
L 3481 0 
L 794 0 
L 794 531 
z
" transform="scale(0.015625)"/>
      <path id="DejaVuSans-30" d="M 2034 4250 
Q 1547 4250 1301 3770 
Q 1056 3291 1056 2328 
Q 1056 1369 1301 889 
Q 1547 409 2034 409 
Q 2525 409 2770 889 
Q 3016 1369 3016 2328 
Q 3016 3291 2770 3770 
Q 2525 4250 2034 4250 
z
M 2034 4750 
Q 2819 4750 3233 4129 
Q 3647 3509 3647 2328 
Q 3647 1150 3233 529 
Q 2819 -91 2034 -91 
Q 1250 -91 836 529 
Q 422 1150 422 2328 
Q 422 3509 836 4129 
Q 1250 4750 2034 4750 
z
" transform="scale(0.015625)"/>
      <path id="DejaVuSans-20" transform="scale(0.015625)"/>
      <path id="DejaVuSans-72" d="M 2631 2963 
Q 2534 3019 2420 3045 
Q 2306 3072 2169 3072 
Q 1681 3072 1420 2755 
Q 1159 2438 1159 1844 
L 1159 0 
L 581 0 
L 581 3500 
L 1159 3500 
L 1159 2956 
Q 1341 3275 1631 3429 
Q 1922 3584 2338 3584 
Q 2397 3584 2469 3576 
Q 2541 3569 2628 3553 
L 2631 2963 
z
" transform="scale(0.015625)"/>
      <path id="DejaVuSans-75" d="M 544 1381 
L 544 3500 
L 1119 3500 
L 1119 1403 
Q 1119 906 1312 657 
Q 1506 409 1894 409 
Q 2359 409 2629 706 
Q 2900 1003 2900 1516 
L 2900 3500 
L 3475 3500 
L 3475 0 
L 2900 0 
L 2900 538 
Q 2691 219 2414 64 
Q 2138 -91 1772 -91 
Q 1169 -91 856 284 
Q 544 659 544 1381 
z
M 1991 3584 
L 1991 3584 
z
" transform="scale(0.015625)"/>
      <path id="DejaVuSans-6e" d="M 3513 2113 
L 3513 0 
L 2938 0 
L 2938 2094 
Q 2938 2591 2744 2837 
Q 2550 3084 2163 3084 
Q 1697 3084 1428 2787 
Q 1159 2491 1159 1978 
L 1159 0 
L 581 0 
L 581 3500 
L 1159 3500 
L 1159 2956 
Q 1366 3272 1645 3428 
Q 1925 3584 2291 3584 
Q 2894 3584 3203 3211 
Q 3513 2838 3513 2113 
z
" transform="scale(0.015625)"/>
      <path id="DejaVuSans-73" d="M 2834 3397 
L 2834 2853 
Q 2591 2978 2328 3040 
Q 2066 3103 1784 3103 
Q 1356 3103 1142 2972 
Q 928 2841 928 2578 
Q 928 2378 1081 2264 
Q 1234 2150 1697 2047 
L 1894 2003 
Q 2506 1872 2764 1633 
Q 3022 1394 3022 966 
Q 3022 478 2636 193 
Q 2250 -91 1575 -91 
Q 1294 -91 989 -36 
Q 684 19 347 128 
L 347 722 
Q 666 556 975 473 
Q 1284 391 1588 391 
Q 1994 391 2212 530 
Q 2431 669 2431 922 
Q 2431 1156 2273 1281 
Q 2116 1406 1581 1522 
L 1381 1569 
Q 847 1681 609 1914 
Q 372 2147 372 2553 
Q 372 3047 722 3315 
Q 1072 3584 1716 3584 
Q 2034 3584 2315 3537 
Q 2597 3491 2834 3397 
z
" transform="scale(0.015625)"/>
     </defs>
     <use xlink:href="#DejaVuSans-31"/>
     <use xlink:href="#DejaVuSans-30" x="63.623047"/>
     <use xlink:href="#DejaVuSans-20" x="127.246094"/>
     <use xlink:href="#DejaVuSans-72" x="159.033203"/>
     <use xlink:href="#DejaVuSans-75" x="200.146484"/>
     <use xlink:href="#DejaVuSans-6e" x="263.525391"/>
     <use xlink:href="#DejaVuSans-73" x="326.904297"/>
    </g>
    <!-- 4 lifts -->
    <g style="fill: #95a5a6" transform="translate(16.64418 50.78093) scale(0.1 -0.1)">
     <defs>
      <path id="DejaVuSans-34" d="M 2419 4116 
L 825 1625 
L 2419 1625 
L 2419 4116 
z
M 2253 4666 
L 3047 4666 
L 3047 1625 
L 3713 1625 
L 3713 1100 
L 3047 1100 
L 3047 0 
L 2419 0 
L 2419 1100 
L 313 1100 
L 313 1709 
L 2253 4666 
z
" transform="scale(0.015625)"/>
      <path id="DejaVuSans-6c" d="M 603 4863 
L 1178 4863 
L 1178 0 
L 603 0 
L 603 4863 
z
" transform="scale(0.015625)"/>
      <path id="DejaVuSans-69" d="M 603 3500 
L 1178 3500 
L 1178 0 
L 603 0 
L 603 3500 
z
M 603 4863 
L 1178 4863 
L 1178 4134 
L 603 4134 
L 603 4863 
z
" transform="scale(0.015625)"/>
      <path id="DejaVuSans-66" d="M 2375 4863 
L 2375 4384 
L 1825 4384 
Q 1516 4384 1395 4259 
Q 1275 4134 1275 3809 
L 1275 3500 
L 2222 3500 
L 2222 3053 
L 1275 3053 
L 1275 0 
L 697 0 
L 697 3053 
L 147 3053 
L 147 3500 
L 697 3500 
L 697 3744 
Q 697 4328 969 4595 
Q 1241 4863 1831 4863 
L 2375 4863 
z
" transform="scale(0.015625)"/>
      <path id="DejaVuSans-74" d="M 1172 4494 
L 1172 3500 
L 2356 3500 
L 2356 3053 
L 1172 3053 
L 1172 1153 
Q 1172 725 1289 603 
Q 1406 481 1766 481 
L 2356 481 
L 2356 0 
L 1766 0 
Q 1100 0 847 248 
Q 594 497 594 1153 
L 594 3053 
L 172 3053 
L 172 3500 
L 594 3500 
L 594 4494 
L 1172 4494 
z
" transform="scale(0.015625)"/>
     </defs>
     <use xlink:href="#DejaVuSans-34"/>
     <use xlink:href="#DejaVuSans-20" x="63.623047"/>
     <use xlink:href="#DejaVuSans-6c" x="95.410156"/>
     <use xlink:href="#DejaVuSans-69" x="123.193359"/>
     <use xlink:href="#DejaVuSans-66" x="150.976562"/>
     <use xlink:href="#DejaVuSans-74" x="184.431641"/>
     <use xlink:href="#DejaVuSans-73" x="223.640625"/>
    </g>
   </g>
   <g id="text_6">
    <!-- 1,107 m -->
    <g style="fill: #95a5a6" transform="translate(224.035195 39.583118) scale(0.1 -0.1)">
     <defs>
      <path id="DejaVuSans-2c" d="M 750 794 
L 1409 794 
L 1409 256 
L 897 -744 
L 494 -744 
L 750 256 
L 750 794 
z
" transform="scale(0.015625)"/>
      <path id="DejaVuSans-37" d="M 525 4666 
L 3525 4666 
L 3525 4397 
L 1831 0 
L 1172 0 
L 2766 4134 
L 525 4134 
L 525 4666 
z
" transform="scale(0.015625)"/>
      <path id="DejaVuSans-202f" transform="scale(0.015625)"/>
      <path id="DejaVuSans-6d" d="M 3328 2828 
Q 3544 3216 3844 3400 
Q 4144 3584 4550 3584 
Q 5097 3584 5394 3201 
Q 5691 2819 5691 2113 
L 5691 0 
L 5113 0 
L 5113 2094 
Q 5113 2597 4934 2840 
Q 4756 3084 4391 3084 
Q 3944 3084 3684 2787 
Q 3425 2491 3425 1978 
L 3425 0 
L 2847 0 
L 2847 2094 
Q 2847 2600 2669 2842 
Q 2491 3084 2119 3084 
Q 1678 3084 1418 2786 
Q 1159 2488 1159 1978 
L 1159 0 
L 581 0 
L 581 3500 
L 1159 3500 
L 1159 2956 
Q 1356 3278 1631 3431 
Q 1906 3584 2284 3584 
Q 2666 3584 2933 3390 
Q 3200 3197 3328 2828 
z
" transform="scale(0.015625)"/>
     </defs>
     <use xlink:href="#DejaVuSans-31"/>
     <use xlink:href="#DejaVuSans-2c" x="63.623047"/>
     <use xlink:href="#DejaVuSans-31" x="95.410156"/>
     <use xlink:href="#DejaVuSans-30" x="159.033203"/>
     <use xlink:href="#DejaVuSans-37" x="222.65625"/>
     <use xlink:href="#DejaVuSans-202f" x="286.279297"/>
     <use xlink:href="#DejaVuSans-6d" x="306.25"/>
    </g>
    <!-- skiable -->
    <g style="fill: #95a5a6" transform="translate(229.214882 50.78093) scale(0.1 -0.1)">
     <defs>
      <path id="DejaVuSans-6b" d="M 581 4863 
L 1159 4863 
L 1159 1991 
L 2875 3500 
L 3609 3500 
L 1753 1863 
L 3688 0 
L 2938 0 
L 1159 1709 
L 1159 0 
L 581 0 
L 581 4863 
z
" transform="scale(0.015625)"/>
      <path id="DejaVuSans-61" d="M 2194 1759 
Q 1497 1759 1228 1600 
Q 959 1441 959 1056 
Q 959 750 1161 570 
Q 1363 391 1709 391 
Q 2188 391 2477 730 
Q 2766 1069 2766 1631 
L 2766 1759 
L 2194 1759 
z
M 3341 1997 
L 3341 0 
L 2766 0 
L 2766 531 
Q 2569 213 2275 61 
Q 1981 -91 1556 -91 
Q 1019 -91 701 211 
Q 384 513 384 1019 
Q 384 1609 779 1909 
Q 1175 2209 1959 2209 
L 2766 2209 
L 2766 2266 
Q 2766 2663 2505 2880 
Q 2244 3097 1772 3097 
Q 1472 3097 1187 3025 
Q 903 2953 641 2809 
L 641 3341 
Q 956 3463 1253 3523 
Q 1550 3584 1831 3584 
Q 2591 3584 2966 3190 
Q 3341 2797 3341 1997 
z
" transform="scale(0.015625)"/>
      <path id="DejaVuSans-62" d="M 3116 1747 
Q 3116 2381 2855 2742 
Q 2594 3103 2138 3103 
Q 1681 3103 1420 2742 
Q 1159 2381 1159 1747 
Q 1159 1113 1420 752 
Q 1681 391 2138 391 
Q 2594 391 2855 752 
Q 3116 1113 3116 1747 
z
M 1159 2969 
Q 1341 3281 1617 3432 
Q 1894 3584 2278 3584 
Q 2916 3584 3314 3078 
Q 3713 2572 3713 1747 
Q 3713 922 3314 415 
Q 2916 -91 2278 -91 
Q 1894 -91 1617 61 
Q 1341 213 1159 525 
L 1159 0 
L 581 0 
L 581 4863 
L 1159 4863 
L 1159 2969 
z
" transform="scale(0.015625)"/>
      <path id="DejaVuSans-65" d="M 3597 1894 
L 3597 1613 
L 953 1613 
Q 991 1019 1311 708 
Q 1631 397 2203 397 
Q 2534 397 2845 478 
Q 3156 559 3463 722 
L 3463 178 
Q 3153 47 2828 -22 
Q 2503 -91 2169 -91 
Q 1331 -91 842 396 
Q 353 884 353 1716 
Q 353 2575 817 3079 
Q 1281 3584 2069 3584 
Q 2775 3584 3186 3129 
Q 3597 2675 3597 1894 
z
M 3022 2063 
Q 3016 2534 2758 2815 
Q 2500 3097 2075 3097 
Q 1594 3097 1305 2825 
Q 1016 2553 972 2059 
L 3022 2063 
z
" transform="scale(0.015625)"/>
     </defs>
     <use xlink:href="#DejaVuSans-73"/>
     <use xlink:href="#DejaVuSans-6b" x="52.099609"/>
     <use xlink:href="#DejaVuSans-69" x="110.009766"/>
     <use xlink:href="#DejaVuSans-61" x="137.792969"/>
     <use xlink:href="#DejaVuSans-62" x="199.072266"/>
     <use xlink:href="#DejaVuSans-6c" x="262.548828"/>
     <use xlink:href="#DejaVuSans-65" x="290.332031"/>
    </g>
    <!-- vert -->
    <g style="fill: #95a5a6" transform="translate(244.297695 61.978743) scale(0.1 -0.1)">
     <defs>
      <path id="DejaVuSans-76" d="M 191 3500 
L 800 3500 
L 1894 563 
L 2988 3500 
L 3597 3500 
L 2284 0 
L 1503 0 
L 191 3500 
z
" transform="scale(0.015625)"/>
     </defs>
     <use xlink:href="#DejaVuSans-76"/>
     <use xlink:href="#DejaVuSans-65" x="59.179688"/>
     <use xlink:href="#DejaVuSans-72" x="120.703125"/>
     <use xlink:href="#DejaVuSans-74" x="161.816406"/>
    </g>
   </g>
   <g id="text_7">
    <!-- affinity: -->
    <g style="fill: #95a5a6" transform="translate(16.64418 255.266007) scale(0.1 -0.1)">
     <defs>
      <path id="DejaVuSans-79" d="M 2059 -325 
Q 1816 -950 1584 -1140 
Q 1353 -1331 966 -1331 
L 506 -1331 
L 506 -850 
L 844 -850 
Q 1081 -850 1212 -737 
Q 1344 -625 1503 -206 
L 1606 56 
L 191 3500 
L 800 3500 
L 1894 763 
L 2988 3500 
L 3597 3500 
L 2059 -325 
z
" transform="scale(0.015625)"/>
      <path id="DejaVuSans-3a" d="M 750 794 
L 1409 794 
L 1409 0 
L 750 0 
L 750 794 
z
M 750 3309 
L 1409 3309 
L 1409 2516 
L 750 2516 
L 750 3309 
z
" transform="scale(0.015625)"/>
     </defs>
     <use xlink:href="#DejaVuSans-61"/>
     <use xlink:href="#DejaVuSans-66" x="61.279297"/>
     <use xlink:href="#DejaVuSans-66" x="96.484375"/>
     <use xlink:href="#DejaVuSans-69" x="131.689453"/>
     <use xlink:href="#DejaVuSans-6e" x="159.472656"/>
     <use xlink:href="#DejaVuSans-69" x="222.851562"/>
     <use xlink:href="#DejaVuSans-74" x="250.634766"/>
     <use xlink:href="#DejaVuSans-79" x="289.84375"/>
     <use xlink:href="#DejaVuSans-3a" x="341.773438"/>
    </g>
    <!-- -77% poleward -->
    <g style="fill: #95a5a6" transform="translate(16.64418 266.46382) scale(0.1 -0.1)">
     <defs>
      <path id="DejaVuSans-2d" d="M 313 2009 
L 1997 2009 
L 1997 1497 
L 313 1497 
L 313 2009 
z
" transform="scale(0.015625)"/>
      <path id="DejaVuSans-25" d="M 4653 2053 
Q 4381 2053 4226 1822 
Q 4072 1591 4072 1178 
Q 4072 772 4226 539 
Q 4381 306 4653 306 
Q 4919 306 5073 539 
Q 5228 772 5228 1178 
Q 5228 1588 5073 1820 
Q 4919 2053 4653 2053 
z
M 4653 2450 
Q 5147 2450 5437 2106 
Q 5728 1763 5728 1178 
Q 5728 594 5436 251 
Q 5144 -91 4653 -91 
Q 4153 -91 3862 251 
Q 3572 594 3572 1178 
Q 3572 1766 3864 2108 
Q 4156 2450 4653 2450 
z
M 1428 4353 
Q 1159 4353 1004 4120 
Q 850 3888 850 3481 
Q 850 3069 1003 2837 
Q 1156 2606 1428 2606 
Q 1700 2606 1854 2837 
Q 2009 3069 2009 3481 
Q 2009 3884 1853 4118 
Q 1697 4353 1428 4353 
z
M 4250 4750 
L 4750 4750 
L 1831 -91 
L 1331 -91 
L 4250 4750 
z
M 1428 4750 
Q 1922 4750 2215 4408 
Q 2509 4066 2509 3481 
Q 2509 2891 2217 2550 
Q 1925 2209 1428 2209 
Q 931 2209 642 2551 
Q 353 2894 353 3481 
Q 353 4063 643 4406 
Q 934 4750 1428 4750 
z
" transform="scale(0.015625)"/>
      <path id="DejaVuSans-70" d="M 1159 525 
L 1159 -1331 
L 581 -1331 
L 581 3500 
L 1159 3500 
L 1159 2969 
Q 1341 3281 1617 3432 
Q 1894 3584 2278 3584 
Q 2916 3584 3314 3078 
Q 3713 2572 3713 1747 
Q 3713 922 3314 415 
Q 2916 -91 2278 -91 
Q 1894 -91 1617 61 
Q 1341 213 1159 525 
z
M 3116 1747 
Q 3116 2381 2855 2742 
Q 2594 3103 2138 3103 
Q 1681 3103 1420 2742 
Q 1159 2381 1159 1747 
Q 1159 1113 1420 752 
Q 1681 391 2138 391 
Q 2594 391 2855 752 
Q 3116 1113 3116 1747 
z
" transform="scale(0.015625)"/>
      <path id="DejaVuSans-6f" d="M 1959 3097 
Q 1497 3097 1228 2736 
Q 959 2375 959 1747 
Q 959 1119 1226 758 
Q 1494 397 1959 397 
Q 2419 397 2687 759 
Q 2956 1122 2956 1747 
Q 2956 2369 2687 2733 
Q 2419 3097 1959 3097 
z
M 1959 3584 
Q 2709 3584 3137 3096 
Q 3566 2609 3566 1747 
Q 3566 888 3137 398 
Q 2709 -91 1959 -91 
Q 1206 -91 779 398 
Q 353 888 353 1747 
Q 353 2609 779 3096 
Q 1206 3584 1959 3584 
z
" transform="scale(0.015625)"/>
      <path id="DejaVuSans-77" d="M 269 3500 
L 844 3500 
L 1563 769 
L 2278 3500 
L 2956 3500 
L 3675 769 
L 4391 3500 
L 4966 3500 
L 4050 0 
L 3372 0 
L 2619 2869 
L 1863 0 
L 1184 0 
L 269 3500 
z
" transform="scale(0.015625)"/>
      <path id="DejaVuSans-64" d="M 2906 2969 
L 2906 4863 
L 3481 4863 
L 3481 0 
L 2906 0 
L 2906 525 
Q 2725 213 2448 61 
Q 2172 -91 1784 -91 
Q 1150 -91 751 415 
Q 353 922 353 1747 
Q 353 2572 751 3078 
Q 1150 3584 1784 3584 
Q 2172 3584 2448 3432 
Q 2725 3281 2906 2969 
z
M 947 1747 
Q 947 1113 1208 752 
Q 1469 391 1925 391 
Q 2381 391 2643 752 
Q 2906 1113 2906 1747 
Q 2906 2381 2643 2742 
Q 2381 3103 1925 3103 
Q 1469 3103 1208 2742 
Q 947 2381 947 1747 
z
" transform="scale(0.015625)"/>
     </defs>
     <use xlink:href="#DejaVuSans-2d"/>
     <use xlink:href="#DejaVuSans-37" x="36.083984"/>
     <use xlink:href="#DejaVuSans-37" x="99.707031"/>
     <use xlink:href="#DejaVuSans-25" x="163.330078"/>
     <use xlink:href="#DejaVuSans-20" x="258.349609"/>
     <use xlink:href="#DejaVuSans-70" x="290.136719"/>
     <use xlink:href="#DejaVuSans-6f" x="353.613281"/>
     <use xlink:href="#DejaVuSans-6c" x="414.794922"/>
     <use xlink:href="#DejaVuSans-65" x="442.578125"/>
     <use xlink:href="#DejaVuSans-77" x="504.101562"/>
     <use xlink:href="#DejaVuSans-61" x="585.888672"/>
     <use xlink:href="#DejaVuSans-72" x="647.167969"/>
     <use xlink:href="#DejaVuSans-64" x="686.53125"/>
    </g>
    <!-- -0% eastward -->
    <g style="fill: #95a5a6" transform="translate(16.64418 277.661632) scale(0.1 -0.1)">
     <use xlink:href="#DejaVuSans-2d"/>
     <use xlink:href="#DejaVuSans-30" x="36.083984"/>
     <use xlink:href="#DejaVuSans-25" x="99.707031"/>
     <use xlink:href="#DejaVuSans-20" x="194.726562"/>
     <use xlink:href="#DejaVuSans-65" x="226.513672"/>
     <use xlink:href="#DejaVuSans-61" x="288.037109"/>
     <use xlink:href="#DejaVuSans-73" x="349.316406"/>
     <use xlink:href="#DejaVuSans-74" x="401.416016"/>
     <use xlink:href="#DejaVuSans-77" x="440.625"/>
     <use xlink:href="#DejaVuSans-61" x="522.412109"/>
     <use xlink:href="#DejaVuSans-72" x="583.691406"/>
     <use xlink:href="#DejaVuSans-64" x="623.054688"/>
    </g>
   </g>
   <g id="text_8">
    <!-- elevation: -->
    <g style="fill: #95a5a6" transform="translate(214.746132 255.266007) scale(0.1 -0.1)">
     <use xlink:href="#DejaVuSans-65"/>
     <use xlink:href="#DejaVuSans-6c" x="61.523438"/>
     <use xlink:href="#DejaVuSans-65" x="89.306641"/>
     <use xlink:href="#DejaVuSans-76" x="150.830078"/>
     <use xlink:href="#DejaVuSans-61" x="210.009766"/>
     <use xlink:href="#DejaVuSans-74" x="271.289062"/>
     <use xlink:href="#DejaVuSans-69" x="310.498047"/>
     <use xlink:href="#DejaVuSans-6f" x="338.28125"/>
     <use xlink:href="#DejaVuSans-6e" x="399.462891"/>
     <use xlink:href="#DejaVuSans-3a" x="462.841797"/>
    </g>
    <!-- 1,101 m base -->
    <g style="fill: #95a5a6" transform="translate(197.018007 266.46382) scale(0.1 -0.1)">
     <use xlink:href="#DejaVuSans-31"/>
     <use xlink:href="#DejaVuSans-2c" x="63.623047"/>
     <use xlink:href="#DejaVuSans-31" x="95.410156"/>
     <use xlink:href="#DejaVuSans-30" x="159.033203"/>
     <use xlink:href="#DejaVuSans-31" x="222.65625"/>
     <use xlink:href="#DejaVuSans-202f" x="286.279297"/>
     <use xlink:href="#DejaVuSans-6d" x="306.25"/>
     <use xlink:href="#DejaVuSans-20" x="403.662109"/>
     <use xlink:href="#DejaVuSans-62" x="435.449219"/>
     <use xlink:href="#DejaVuSans-61" x="498.925781"/>
     <use xlink:href="#DejaVuSans-73" x="560.205078"/>
     <use xlink:href="#DejaVuSans-65" x="612.304688"/>
    </g>
    <!-- 1,459 m peak -->
    <g style="fill: #95a5a6" transform="translate(196.436757 277.661632) scale(0.1 -0.1)">
     <defs>
      <path id="DejaVuSans-35" d="M 691 4666 
L 3169 4666 
L 3169 4134 
L 1269 4134 
L 1269 2991 
Q 1406 3038 1543 3061 
Q 1681 3084 1819 3084 
Q 2600 3084 3056 2656 
Q 3513 2228 3513 1497 
Q 3513 744 3044 326 
Q 2575 -91 1722 -91 
Q 1428 -91 1123 -41 
Q 819 9 494 109 
L 494 744 
Q 775 591 1075 516 
Q 1375 441 1709 441 
Q 2250 441 2565 725 
Q 2881 1009 2881 1497 
Q 2881 1984 2565 2268 
Q 2250 2553 1709 2553 
Q 1456 2553 1204 2497 
Q 953 2441 691 2322 
L 691 4666 
z
" transform="scale(0.015625)"/>
      <path id="DejaVuSans-39" d="M 703 97 
L 703 672 
Q 941 559 1184 500 
Q 1428 441 1663 441 
Q 2288 441 2617 861 
Q 2947 1281 2994 2138 
Q 2813 1869 2534 1725 
Q 2256 1581 1919 1581 
Q 1219 1581 811 2004 
Q 403 2428 403 3163 
Q 403 3881 828 4315 
Q 1253 4750 1959 4750 
Q 2769 4750 3195 4129 
Q 3622 3509 3622 2328 
Q 3622 1225 3098 567 
Q 2575 -91 1691 -91 
Q 1453 -91 1209 -44 
Q 966 3 703 97 
z
M 1959 2075 
Q 2384 2075 2632 2365 
Q 2881 2656 2881 3163 
Q 2881 3666 2632 3958 
Q 2384 4250 1959 4250 
Q 1534 4250 1286 3958 
Q 1038 3666 1038 3163 
Q 1038 2656 1286 2365 
Q 1534 2075 1959 2075 
z
" transform="scale(0.015625)"/>
     </defs>
     <use xlink:href="#DejaVuSans-31"/>
     <use xlink:href="#DejaVuSans-2c" x="63.623047"/>
     <use xlink:href="#DejaVuSans-34" x="95.410156"/>
     <use xlink:href="#DejaVuSans-35" x="159.033203"/>
     <use xlink:href="#DejaVuSans-39" x="222.65625"/>
     <use xlink:href="#DejaVuSans-202f" x="286.279297"/>
     <use xlink:href="#DejaVuSans-6d" x="306.25"/>
     <use xlink:href="#DejaVuSans-20" x="403.662109"/>
     <use xlink:href="#DejaVuSans-70" x="435.449219"/>
     <use xlink:href="#DejaVuSans-65" x="498.925781"/>
     <use xlink:href="#DejaVuSans-61" x="560.449219"/>
     <use xlink:href="#DejaVuSans-6b" x="621.728516"/>
    </g>
   </g>
   <g id="text_9">
    <!-- Hotaka Farm Bokujo (武尊牧場) -->
    <g transform="translate(7.2 20.895) scale(0.16 -0.16)">
     <defs>
      <path id="DejaVuSans-Bold-48" d="M 588 4666 
L 1791 4666 
L 1791 2888 
L 3566 2888 
L 3566 4666 
L 4769 4666 
L 4769 0 
L 3566 0 
L 3566 1978 
L 1791 1978 
L 1791 0 
L 588 0 
L 588 4666 
z
" transform="scale(0.015625)"/>
      <path id="DejaVuSans-Bold-6f" d="M 2203 2784 
Q 1831 2784 1636 2517 
Q 1441 2250 1441 1747 
Q 1441 1244 1636 976 
Q 1831 709 2203 709 
Q 2569 709 2762 976 
Q 2956 1244 2956 1747 
Q 2956 2250 2762 2517 
Q 2569 2784 2203 2784 
z
M 2203 3584 
Q 3106 3584 3614 3096 
Q 4122 2609 4122 1747 
Q 4122 884 3614 396 
Q 3106 -91 2203 -91 
Q 1297 -91 786 396 
Q 275 884 275 1747 
Q 275 2609 786 3096 
Q 1297 3584 2203 3584 
z
" transform="scale(0.015625)"/>
      <path id="DejaVuSans-Bold-74" d="M 1759 4494 
L 1759 3500 
L 2913 3500 
L 2913 2700 
L 1759 2700 
L 1759 1216 
Q 1759 972 1856 886 
Q 1953 800 2241 800 
L 2816 800 
L 2816 0 
L 1856 0 
Q 1194 0 917 276 
Q 641 553 641 1216 
L 641 2700 
L 84 2700 
L 84 3500 
L 641 3500 
L 641 4494 
L 1759 4494 
z
" transform="scale(0.015625)"/>
      <path id="DejaVuSans-Bold-61" d="M 2106 1575 
Q 1756 1575 1579 1456 
Q 1403 1338 1403 1106 
Q 1403 894 1545 773 
Q 1688 653 1941 653 
Q 2256 653 2472 879 
Q 2688 1106 2688 1447 
L 2688 1575 
L 2106 1575 
z
M 3816 1997 
L 3816 0 
L 2688 0 
L 2688 519 
Q 2463 200 2181 54 
Q 1900 -91 1497 -91 
Q 953 -91 614 226 
Q 275 544 275 1050 
Q 275 1666 698 1953 
Q 1122 2241 2028 2241 
L 2688 2241 
L 2688 2328 
Q 2688 2594 2478 2717 
Q 2269 2841 1825 2841 
Q 1466 2841 1156 2769 
Q 847 2697 581 2553 
L 581 3406 
Q 941 3494 1303 3539 
Q 1666 3584 2028 3584 
Q 2975 3584 3395 3211 
Q 3816 2838 3816 1997 
z
" transform="scale(0.015625)"/>
      <path id="DejaVuSans-Bold-6b" d="M 538 4863 
L 1656 4863 
L 1656 2216 
L 2944 3500 
L 4244 3500 
L 2534 1894 
L 4378 0 
L 3022 0 
L 1656 1459 
L 1656 0 
L 538 0 
L 538 4863 
z
" transform="scale(0.015625)"/>
      <path id="DejaVuSans-Bold-20" transform="scale(0.015625)"/>
      <path id="DejaVuSans-Bold-46" d="M 588 4666 
L 3834 4666 
L 3834 3756 
L 1791 3756 
L 1791 2888 
L 3713 2888 
L 3713 1978 
L 1791 1978 
L 1791 0 
L 588 0 
L 588 4666 
z
" transform="scale(0.015625)"/>
      <path id="DejaVuSans-Bold-72" d="M 3138 2547 
Q 2991 2616 2845 2648 
Q 2700 2681 2553 2681 
Q 2122 2681 1889 2404 
Q 1656 2128 1656 1613 
L 1656 0 
L 538 0 
L 538 3500 
L 1656 3500 
L 1656 2925 
Q 1872 3269 2151 3426 
Q 2431 3584 2822 3584 
Q 2878 3584 2943 3579 
Q 3009 3575 3134 3559 
L 3138 2547 
z
" transform="scale(0.015625)"/>
      <path id="DejaVuSans-Bold-6d" d="M 3781 2919 
Q 3994 3244 4286 3414 
Q 4578 3584 4928 3584 
Q 5531 3584 5847 3212 
Q 6163 2841 6163 2131 
L 6163 0 
L 5038 0 
L 5038 1825 
Q 5041 1866 5042 1909 
Q 5044 1953 5044 2034 
Q 5044 2406 4934 2573 
Q 4825 2741 4581 2741 
Q 4263 2741 4089 2478 
Q 3916 2216 3909 1719 
L 3909 0 
L 2784 0 
L 2784 1825 
Q 2784 2406 2684 2573 
Q 2584 2741 2328 2741 
Q 2006 2741 1831 2477 
Q 1656 2213 1656 1722 
L 1656 0 
L 531 0 
L 531 3500 
L 1656 3500 
L 1656 2988 
Q 1863 3284 2130 3434 
Q 2397 3584 2719 3584 
Q 3081 3584 3359 3409 
Q 3638 3234 3781 2919 
z
" transform="scale(0.015625)"/>
      <path id="DejaVuSans-Bold-42" d="M 2456 2859 
Q 2741 2859 2887 2984 
Q 3034 3109 3034 3353 
Q 3034 3594 2887 3720 
Q 2741 3847 2456 3847 
L 1791 3847 
L 1791 2859 
L 2456 2859 
z
M 2497 819 
Q 2859 819 3042 972 
Q 3225 1125 3225 1434 
Q 3225 1738 3044 1889 
Q 2863 2041 2497 2041 
L 1791 2041 
L 1791 819 
L 2497 819 
z
M 3616 2497 
Q 4003 2384 4215 2081 
Q 4428 1778 4428 1338 
Q 4428 663 3972 331 
Q 3516 0 2584 0 
L 588 0 
L 588 4666 
L 2394 4666 
Q 3366 4666 3802 4372 
Q 4238 4078 4238 3431 
Q 4238 3091 4078 2852 
Q 3919 2613 3616 2497 
z
" transform="scale(0.015625)"/>
      <path id="DejaVuSans-Bold-75" d="M 500 1363 
L 500 3500 
L 1625 3500 
L 1625 3150 
Q 1625 2866 1622 2436 
Q 1619 2006 1619 1863 
Q 1619 1441 1641 1255 
Q 1663 1069 1716 984 
Q 1784 875 1895 815 
Q 2006 756 2150 756 
Q 2500 756 2700 1025 
Q 2900 1294 2900 1772 
L 2900 3500 
L 4019 3500 
L 4019 0 
L 2900 0 
L 2900 506 
Q 2647 200 2364 54 
Q 2081 -91 1741 -91 
Q 1134 -91 817 281 
Q 500 653 500 1363 
z
" transform="scale(0.015625)"/>
      <path id="DejaVuSans-Bold-6a" d="M 538 3500 
L 1656 3500 
L 1656 63 
Q 1656 -641 1318 -1011 
Q 981 -1381 341 -1381 
L -213 -1381 
L -213 -647 
L -19 -647 
Q 300 -647 419 -503 
Q 538 -359 538 63 
L 538 3500 
z
M 538 4863 
L 1656 4863 
L 1656 3950 
L 538 3950 
L 538 4863 
z
" transform="scale(0.015625)"/>
      <path id="DejaVuSans-Bold-28" d="M 2413 -844 
L 1484 -844 
Q 1006 -72 778 623 
Q 550 1319 550 2003 
Q 550 2688 779 3389 
Q 1009 4091 1484 4856 
L 2413 4856 
Q 2013 4116 1813 3408 
Q 1613 2700 1613 2009 
Q 1613 1319 1811 609 
Q 2009 -100 2413 -844 
z
" transform="scale(0.015625)"/>
      <path id="NotoSansCJKjp-Bold-6b66" d="M 4608 4966 
C 4934 4698 5299 4307 5459 4045 
L 6022 4480 
C 5850 4742 5466 5107 5139 5357 
L 4608 4966 
z
M 813 5146 
L 813 4467 
L 3245 4467 
L 3245 5146 
L 813 5146 
z
M 3667 5408 
C 3667 4915 3680 4429 3699 3949 
L 320 3949 
L 320 3245 
L 3738 3245 
C 3891 1126 4314 -582 5286 -582 
C 5862 -582 6106 -288 6208 915 
C 6010 998 5741 1171 5581 1344 
C 5549 538 5485 179 5357 179 
C 4960 179 4634 1504 4506 3245 
L 6080 3245 
L 6080 3949 
L 4461 3949 
C 4442 4422 4435 4915 4448 5408 
L 3667 5408 
z
M 730 2650 
L 730 333 
L 198 256 
L 390 -493 
C 1312 -326 2605 -96 3789 134 
L 3731 851 
L 2650 659 
L 2650 1670 
L 3578 1670 
L 3578 2342 
L 2650 2342 
L 2650 3066 
L 1914 3066 
L 1914 531 
L 1434 448 
L 1434 2650 
L 730 2650 
z
" transform="scale(0.015625)"/>
      <path id="NotoSansCJKjp-Bold-5c0a" d="M 4224 5440 
C 4147 5254 4006 4998 3885 4800 
L 2362 4800 
L 2560 4883 
C 2464 5056 2259 5306 2093 5478 
L 1472 5229 
C 1581 5101 1702 4941 1792 4800 
L 390 4800 
L 390 4211 
L 2323 4211 
L 2323 3968 
L 896 3968 
L 896 1581 
L 4026 1581 
L 4026 1286 
L 282 1286 
L 282 678 
L 1626 678 
L 1370 435 
C 1741 205 2202 -147 2406 -390 
L 2899 102 
C 2739 275 2445 493 2157 678 
L 4026 678 
L 4026 198 
C 4026 115 4000 102 3898 96 
C 3795 90 3437 90 3123 102 
C 3226 -83 3334 -371 3366 -576 
C 3840 -576 4192 -570 4454 -467 
C 4717 -365 4787 -179 4787 179 
L 4787 678 
L 6138 678 
L 6138 1286 
L 4787 1286 
L 4787 1581 
L 5574 1581 
L 5574 3968 
L 4032 3968 
L 4032 4211 
L 5990 4211 
L 5990 4800 
L 4659 4800 
L 5030 5242 
L 4224 5440 
z
M 3386 4211 
L 3386 3968 
L 2963 3968 
L 2963 4211 
L 3386 4211 
z
M 4845 2246 
L 4845 2029 
L 1587 2029 
L 1587 2246 
L 4845 2246 
z
M 4845 2656 
L 2067 2656 
C 2650 2848 2893 3162 2950 3520 
L 3386 3520 
L 3386 3424 
C 3386 2976 3526 2861 4102 2861 
C 4230 2861 4653 2861 4774 2861 
L 4845 2861 
L 4845 2656 
z
M 1587 2656 
L 1587 3078 
C 1690 2970 1843 2790 1920 2656 
L 1587 2656 
z
M 4032 3520 
L 4845 3520 
L 4845 3302 
C 4826 3264 4794 3251 4691 3251 
C 4608 3251 4275 3251 4211 3251 
C 4064 3251 4032 3277 4032 3418 
L 4032 3520 
z
M 1587 3520 
L 2304 3520 
C 2253 3322 2080 3162 1587 3085 
L 1587 3520 
z
" transform="scale(0.015625)"/>
      <path id="NotoSansCJKjp-Bold-7267" d="M 3411 5440 
C 3219 4461 2867 3501 2368 2912 
C 2534 2790 2829 2509 2950 2368 
C 3053 2502 3155 2650 3251 2816 
C 3418 2176 3629 1613 3910 1120 
C 3520 666 3008 314 2342 58 
C 2496 -96 2752 -429 2842 -589 
C 3456 -314 3955 38 4358 474 
C 4730 32 5190 -326 5766 -582 
C 5882 -378 6106 -70 6278 77 
C 5690 301 5216 653 4845 1101 
C 5261 1754 5536 2547 5722 3520 
L 6144 3520 
L 6144 4250 
L 3878 4250 
C 3994 4589 4083 4941 4160 5299 
L 3411 5440 
z
M 4934 3520 
C 4813 2861 4634 2291 4378 1805 
C 4115 2310 3923 2886 3789 3520 
L 4934 3520 
z
M 499 5107 
C 448 4275 339 3392 122 2829 
C 275 2746 550 2560 666 2464 
C 774 2746 864 3110 941 3501 
L 1350 3501 
L 1350 2131 
C 909 2016 499 1907 179 1837 
L 326 1094 
L 1350 1395 
L 1350 -576 
L 2086 -576 
L 2086 1619 
L 2739 1818 
L 2643 2496 
L 2086 2336 
L 2086 3501 
L 2675 3501 
L 2675 4230 
L 2086 4230 
L 2086 5434 
L 1350 5434 
L 1350 4230 
L 1056 4230 
C 1088 4486 1114 4749 1139 5005 
L 499 5107 
z
" transform="scale(0.015625)"/>
      <path id="NotoSansCJKjp-Bold-5834" d="M 3405 3936 
L 5056 3936 
L 5056 3629 
L 3405 3629 
L 3405 3936 
z
M 3405 4742 
L 5056 4742 
L 5056 4442 
L 3405 4442 
L 3405 4742 
z
M 2720 5274 
L 2720 3098 
L 5766 3098 
L 5766 5274 
L 2720 5274 
z
M 141 1248 
L 429 474 
C 826 666 1286 890 1754 1126 
C 1907 1024 2144 794 2253 672 
C 2509 838 2758 1056 2989 1299 
L 3373 1299 
C 3027 826 2541 384 2067 141 
C 2246 26 2445 -160 2566 -314 
C 3123 45 3731 685 4070 1299 
L 4448 1299 
C 4173 710 3738 134 3251 -173 
C 3443 -275 3674 -454 3802 -602 
C 4320 -192 4826 582 5088 1299 
L 5331 1299 
C 5261 531 5184 198 5094 102 
C 5043 45 4992 32 4909 32 
C 4819 32 4653 32 4448 51 
C 4544 -109 4608 -371 4621 -550 
C 4883 -563 5120 -557 5267 -538 
C 5434 -512 5574 -467 5696 -320 
C 5869 -128 5971 390 6061 1638 
C 6074 1728 6080 1907 6080 1907 
L 3462 1907 
C 3526 2003 3584 2106 3642 2208 
L 6208 2208 
L 6208 2854 
L 2157 2854 
L 2157 2208 
L 2880 2208 
C 2726 1958 2522 1728 2298 1530 
L 2157 2080 
L 1651 1856 
L 1651 3366 
L 2240 3366 
L 2240 4090 
L 1651 4090 
L 1651 5357 
L 934 5357 
L 934 4090 
L 288 4090 
L 288 3366 
L 934 3366 
L 934 1555 
C 634 1434 358 1325 141 1248 
z
" transform="scale(0.015625)"/>
      <path id="DejaVuSans-Bold-29" d="M 513 -844 
Q 913 -100 1113 609 
Q 1313 1319 1313 2009 
Q 1313 2700 1113 3408 
Q 913 4116 513 4856 
L 1441 4856 
Q 1916 4091 2145 3389 
Q 2375 2688 2375 2003 
Q 2375 1319 2147 623 
Q 1919 -72 1441 -844 
L 513 -844 
z
" transform="scale(0.015625)"/>
     </defs>
     <use xlink:href="#DejaVuSans-Bold-48"/>
     <use xlink:href="#DejaVuSans-Bold-6f" x="83.691406"/>
     <use xlink:href="#DejaVuSans-Bold-74" x="152.392578"/>
     <use xlink:href="#DejaVuSans-Bold-61" x="200.195312"/>
     <use xlink:href="#DejaVuSans-Bold-6b" x="267.675781"/>
     <use xlink:href="#DejaVuSans-Bold-61" x="334.179688"/>
     <use xlink:href="#DejaVuSans-Bold-20" x="401.660156"/>
     <use xlink:href="#DejaVuSans-Bold-46" x="436.474609"/>
     <use xlink:href="#DejaVuSans-Bold-61" x="498.910156"/>
     <use xlink:href="#DejaVuSans-Bold-72" x="566.390625"/>
     <use xlink:href="#DejaVuSans-Bold-6d" x="615.707031"/>
     <use xlink:href="#DejaVuSans-Bold-20" x="719.90625"/>
     <use xlink:href="#DejaVuSans-Bold-42" x="754.720703"/>
     <use xlink:href="#DejaVuSans-Bold-6f" x="830.941406"/>
     <use xlink:href="#DejaVuSans-Bold-6b" x="899.642578"/>
     <use xlink:href="#DejaVuSans-Bold-75" x="966.146484"/>
     <use xlink:href="#DejaVuSans-Bold-6a" x="1037.337891"/>
     <use xlink:href="#DejaVuSans-Bold-6f" x="1071.615234"/>
     <use xlink:href="#DejaVuSans-Bold-20" x="1140.316406"/>
     <use xlink:href="#DejaVuSans-Bold-28" x="1175.130859"/>
     <use xlink:href="#NotoSansCJKjp-Bold-6b66" x="1220.833984"/>
     <use xlink:href="#NotoSansCJKjp-Bold-5c0a" x="1320.833969"/>
     <use xlink:href="#NotoSansCJKjp-Bold-7267" x="1420.833954"/>
     <use xlink:href="#NotoSansCJKjp-Bold-5834" x="1520.833939"/>
     <use xlink:href="#DejaVuSans-Bold-29" x="1620.833923"/>
    </g>
   </g>
  </g>
 </g>
 <defs>
  <clipPath id="p2fc1ecd84c">
   <path d="M 251.4025 155.863 
C 251.4025 141.302372 248.534374 126.883327 242.962263 113.431061 
C 237.390151 99.978795 229.222419 87.754919 218.9265 77.459 
C 208.630581 67.163081 196.406705 58.995349 182.954439 53.423237 
C 169.502173 47.851126 155.083128 44.983 140.5225 44.983 
C 125.961872 44.983 111.542827 47.851126 98.090561 53.423237 
C 84.638295 58.995349 72.414419 67.163081 62.1185 77.459 
C 51.822581 87.754919 43.654849 99.978795 38.082737 113.431061 
C 32.510626 126.883327 29.6425 141.302372 29.6425 155.863 
C 29.6425 170.423628 32.510626 184.842673 38.082737 198.294939 
C 43.654849 211.747205 51.822581 223.971081 62.1185 234.267 
C 72.414419 244.562919 84.638295 252.730651 98.090561 258.302763 
C 111.542827 263.874874 125.961872 266.743 140.5225 266.743 
C 155.083128 266.743 169.502173 263.874874 182.954439 258.302763 
C 196.406705 252.730651 208.630581 244.562919 218.9265 234.267 
C 229.222419 223.971081 237.390151 211.747205 242.962263 198.294939 
C 248.534374 184.842673 251.4025 170.423628 251.4025 155.863 
M 140.5225 155.863 
C 140.5225 155.863 140.5225 155.863 140.5225 155.863 
C 140.5225 155.863 140.5225 155.863 140.5225 155.863 
C 140.5225 155.863 140.5225 155.863 140.5225 155.863 
C 140.5225 155.863 140.5225 155.863 140.5225 155.863 
C 140.5225 155.863 140.5225 155.863 140.5225 155.863 
C 140.5225 155.863 140.5225 155.863 140.5225 155.863 
C 140.5225 155.863 140.5225 155.863 140.5225 155.863 
C 140.5225 155.863 140.5225 155.863 140.5225 155.863 
C 140.5225 155.863 140.5225 155.863 140.5225 155.863 
C 140.5225 155.863 140.5225 155.863 140.5225 155.863 
C 140.5225 155.863 140.5225 155.863 140.5225 155.863 
C 140.5225 155.863 140.5225 155.863 140.5225 155.863 
C 140.5225 155.863 140.5225 155.863 140.5225 155.863 
C 140.5225 155.863 140.5225 155.863 140.5225 155.863 
C 140.5225 155.863 140.5225 155.863 140.5225 155.863 
C 140.5225 155.863 140.5225 155.863 140.5225 155.863 
z
"/>
  </clipPath>
 </defs>
</svg>
