<?xml version="1.0" encoding="utf-8" standalone="no"?>
<!DOCTYPE svg PUBLIC "-//W3C//DTD SVG 1.1//EN"
  "http://www.w3.org/Graphics/SVG/1.1/DTD/svg11.dtd">
<svg xmlns:xlink="http://www.w3.org/1999/xlink" width="304.3425pt" height="285.744562pt" viewBox="0 0 304.3425 285.744562" xmlns="http://www.w3.org/2000/svg" version="1.1">
 <title>Ski Rose for Skigebiet Stuhleck - Semmering</title>
 <metadata>
  <rdf:RDF xmlns:dc="http://purl.org/dc/elements/1.1/" xmlns:cc="http://creativecommons.org/ns#" xmlns:rdf="http://www.w3.org/1999/02/22-rdf-syntax-ns#">
   <cc:Work>
    <dc:type rdf:resource="http://purl.org/dc/dcmitype/StillImage"/>
    <dc:title>Ski Rose for Skigebiet Stuhleck - Semmering</dc:title>
    <dc:date>2024-12-20T01:50:18.531182</dc:date>
    <dc:description>A 32-bin histogram of downhill ski trail orientations generated from &lt;https://openskimap.org/?obj=7322051c91f99e6553bf33c99c38c73ed0e604a6&gt;.</dc:description>
    <dc:format>image/svg+xml</dc:format>
    <dc:creator>
     <cc:Agent>
      <dc:title>https://github.com/dhimmel/openskistats</dc:title>
     </cc:Agent>
    </dc:creator>
   </cc:Work>
  </rdf:RDF>
 </metadata>
 <defs>
  <style type="text/css">*{stroke-linejoin: round; stroke-linecap: butt}</style>
 </defs>
 <g id="figure_1">
  <g id="patch_1">
   <path d="M 0 285.744562 
L 304.3425 285.744562 
L 304.3425 0 
L 0 0 
z
" style="fill: #ffffff"/>
  </g>
  <g id="axes_1">
   <g id="patch_2">
    <path d="M 263.05125 154.3255 
C 263.05125 139.764872 260.183124 125.345827 254.611013 111.893561 
C 249.038901 98.441295 240.871169 86.217419 230.57525 75.9215 
C 220.279331 65.625581 208.055455 57.457849 194.603189 51.885737 
C 181.150923 46.313626 166.731878 43.4455 152.17125 43.4455 
C 137.610622 43.4455 123.191577 46.313626 109.739311 51.885737 
C 96.287045 57.457849 84.063169 65.625581 73.76725 75.9215 
C 63.471331 86.217419 55.303599 98.441295 49.731487 111.893561 
C 44.159376 125.345827 41.29125 139.764872 41.29125 154.3255 
C 41.29125 168.886128 44.159376 183.305173 49.731487 196.757439 
C 55.303599 210.209705 63.471331 222.433581 73.76725 232.7295 
C 84.063169 243.025419 96.287045 251.193151 109.739311 256.765263 
C 123.191577 262.337374 137.610622 265.2055 152.17125 265.2055 
C 166.731878 265.2055 181.150923 262.337374 194.603189 256.765263 
C 208.055455 251.193151 220.279331 243.025419 230.57525 232.7295 
C 240.871169 222.433581 249.038901 210.209705 254.611013 196.757439 
C 260.183124 183.305173 263.05125 168.886128 263.05125 154.3255 
M 152.17125 154.3255 
C 152.17125 154.3255 152.17125 154.3255 152.17125 154.3255 
C 152.17125 154.3255 152.17125 154.3255 152.17125 154.3255 
C 152.17125 154.3255 152.17125 154.3255 152.17125 154.3255 
C 152.17125 154.3255 152.17125 154.3255 152.17125 154.3255 
C 152.17125 154.3255 152.17125 154.3255 152.17125 154.3255 
C 152.17125 154.3255 152.17125 154.3255 152.17125 154.3255 
C 152.17125 154.3255 152.17125 154.3255 152.17125 154.3255 
C 152.17125 154.3255 152.17125 154.3255 152.17125 154.3255 
C 152.17125 154.3255 152.17125 154.3255 152.17125 154.3255 
C 152.17125 154.3255 152.17125 154.3255 152.17125 154.3255 
C 152.17125 154.3255 152.17125 154.3255 152.17125 154.3255 
C 152.17125 154.3255 152.17125 154.3255 152.17125 154.3255 
C 152.17125 154.3255 152.17125 154.3255 152.17125 154.3255 
C 152.17125 154.3255 152.17125 154.3255 152.17125 154.3255 
C 152.17125 154.3255 152.17125 154.3255 152.17125 154.3255 
C 152.17125 154.3255 152.17125 154.3255 152.17125 154.3255 
z
" style="fill: #ffffff"/>
   </g>
   <g id="matplotlib.axis_1">
    <g id="xtick_1">
     <g id="line2d_1">
      <path d="M 152.17125 154.3255 
L 152.17125 43.4455 
" clip-path="url(#p760d4ca930)" style="fill: none; stroke: #b0b0b0; stroke-width: 0.8; stroke-linecap: square"/>
     </g>
     <g id="text_1">
      <!-- N -->
      <g transform="translate(147.986875 37.704875) scale(0.1 -0.1)">
       <defs>
        <path id="DejaVuSans-Bold-4e" d="M 588 4666 
L 1931 4666 
L 3628 1466 
L 3628 4666 
L 4769 4666 
L 4769 0 
L 3425 0 
L 1728 3200 
L 1728 0 
L 588 0 
L 588 4666 
z
" transform="scale(0.015625)"/>
       </defs>
       <use xlink:href="#DejaVuSans-Bold-4e"/>
      </g>
     </g>
    </g>
    <g id="xtick_2">
     <g id="line2d_2">
      <path d="M 152.17125 154.3255 
L 230.57525 75.9215 
" clip-path="url(#p760d4ca930)" style="fill: none; stroke: #b0b0b0; stroke-width: 0.8; stroke-linecap: square"/>
     </g>
    </g>
    <g id="xtick_3">
     <g id="line2d_3">
      <path d="M 152.17125 154.3255 
L 263.05125 154.3255 
" clip-path="url(#p760d4ca930)" style="fill: none; stroke: #b0b0b0; stroke-width: 0.8; stroke-linecap: square"/>
     </g>
     <g id="text_2">
      <!-- E -->
      <g transform="translate(268.135625 157.084875) scale(0.1 -0.1)">
       <defs>
        <path id="DejaVuSans-Bold-45" d="M 588 4666 
L 3834 4666 
L 3834 3756 
L 1791 3756 
L 1791 2888 
L 3713 2888 
L 3713 1978 
L 1791 1978 
L 1791 909 
L 3903 909 
L 3903 0 
L 588 0 
L 588 4666 
z
" transform="scale(0.015625)"/>
       </defs>
       <use xlink:href="#DejaVuSans-Bold-45"/>
      </g>
     </g>
    </g>
    <g id="xtick_4">
     <g id="line2d_4">
      <path d="M 152.17125 154.3255 
L 230.57525 232.7295 
" clip-path="url(#p760d4ca930)" style="fill: none; stroke: #b0b0b0; stroke-width: 0.8; stroke-linecap: square"/>
     </g>
    </g>
    <g id="xtick_5">
     <g id="line2d_5">
      <path d="M 152.17125 154.3255 
L 152.17125 265.2055 
" clip-path="url(#p760d4ca930)" style="fill: none; stroke: #b0b0b0; stroke-width: 0.8; stroke-linecap: square"/>
     </g>
     <g id="text_3">
      <!-- S -->
      <g transform="translate(148.570469 276.464875) scale(0.1 -0.1)">
       <defs>
        <path id="DejaVuSans-Bold-53" d="M 3834 4519 
L 3834 3531 
Q 3450 3703 3084 3790 
Q 2719 3878 2394 3878 
Q 1963 3878 1756 3759 
Q 1550 3641 1550 3391 
Q 1550 3203 1689 3098 
Q 1828 2994 2194 2919 
L 2706 2816 
Q 3484 2659 3812 2340 
Q 4141 2022 4141 1434 
Q 4141 663 3683 286 
Q 3225 -91 2284 -91 
Q 1841 -91 1394 -6 
Q 947 78 500 244 
L 500 1259 
Q 947 1022 1364 901 
Q 1781 781 2169 781 
Q 2563 781 2772 912 
Q 2981 1044 2981 1288 
Q 2981 1506 2839 1625 
Q 2697 1744 2272 1838 
L 1806 1941 
Q 1106 2091 782 2419 
Q 459 2747 459 3303 
Q 459 4000 909 4375 
Q 1359 4750 2203 4750 
Q 2588 4750 2994 4692 
Q 3400 4634 3834 4519 
z
" transform="scale(0.015625)"/>
       </defs>
       <use xlink:href="#DejaVuSans-Bold-53"/>
      </g>
     </g>
    </g>
    <g id="xtick_6">
     <g id="line2d_6">
      <path d="M 152.17125 154.3255 
L 73.76725 232.7295 
" clip-path="url(#p760d4ca930)" style="fill: none; stroke: #b0b0b0; stroke-width: 0.8; stroke-linecap: square"/>
     </g>
    </g>
    <g id="xtick_7">
     <g id="line2d_7">
      <path d="M 152.17125 154.3255 
L 41.29125 154.3255 
" clip-path="url(#p760d4ca930)" style="fill: none; stroke: #b0b0b0; stroke-width: 0.8; stroke-linecap: square"/>
     </g>
     <g id="text_4">
      <!-- W -->
      <g transform="translate(27.276406 157.084875) scale(0.1 -0.1)">
       <defs>
        <path id="DejaVuSans-Bold-57" d="M 191 4666 
L 1344 4666 
L 2150 1275 
L 2950 4666 
L 4109 4666 
L 4909 1275 
L 5716 4666 
L 6859 4666 
L 5759 0 
L 4372 0 
L 3525 3547 
L 2688 0 
L 1300 0 
L 191 4666 
z
" transform="scale(0.015625)"/>
       </defs>
       <use xlink:href="#DejaVuSans-Bold-57"/>
      </g>
     </g>
    </g>
    <g id="xtick_8">
     <g id="line2d_8">
      <path d="M 152.17125 154.3255 
L 73.76725 75.9215 
" clip-path="url(#p760d4ca930)" style="fill: none; stroke: #b0b0b0; stroke-width: 0.8; stroke-linecap: square"/>
     </g>
    </g>
   </g>
   <g id="matplotlib.axis_2"/>
   <g id="patch_3">
    <path d="M 152.17125 154.3255 
C 152.17125 154.3255 152.17125 154.3255 152.17125 154.3255 
C 152.17125 154.3255 152.17125 154.3255 152.17125 154.3255 
L 161.50965 59.511137 
C 158.406234 59.205477 155.289682 59.052371 152.17125 59.052371 
C 149.052818 59.052371 145.936266 59.205477 142.83285 59.511137 
z
" clip-path="url(#p760d4ca930)" style="fill: #d4a0a7; stroke: #000000; stroke-width: 0.5; stroke-linejoin: miter"/>
   </g>
   <g id="patch_4">
    <path d="M 152.17125 154.3255 
C 152.17125 154.3255 152.17125 154.3255 152.17125 154.3255 
C 152.17125 154.3255 152.17125 154.3255 152.17125 154.3255 
L 184.358015 48.219956 
C 180.885022 47.166435 177.362398 46.284063 173.802865 45.576028 
C 170.243332 44.867993 166.651183 44.335148 163.039391 43.979418 
z
" clip-path="url(#p760d4ca930)" style="fill: #d4a0a7; stroke: #000000; stroke-width: 0.5; stroke-linejoin: miter"/>
   </g>
   <g id="patch_5">
    <path d="M 152.17125 154.3255 
C 152.17125 154.3255 152.17125 154.3255 152.17125 154.3255 
C 152.17125 154.3255 152.17125 154.3255 152.17125 154.3255 
L 178.143027 105.735722 
C 176.552611 104.885627 174.921417 104.114129 173.255335 103.424016 
C 171.589254 102.733902 169.890293 102.126005 168.164592 101.602519 
z
" clip-path="url(#p760d4ca930)" style="fill: #d4a0a7; stroke: #000000; stroke-width: 0.5; stroke-linejoin: miter"/>
   </g>
   <g id="patch_6">
    <path d="M 152.17125 154.3255 
C 152.17125 154.3255 152.17125 154.3255 152.17125 154.3255 
C 152.17125 154.3255 152.17125 154.3255 152.17125 154.3255 
L 182.693202 117.134394 
C 181.475881 116.135365 180.210245 115.196705 178.900864 114.321805 
C 177.591484 113.446905 176.239937 112.636819 174.851106 111.894474 
z
" clip-path="url(#p760d4ca930)" style="fill: #d4a0a7; stroke: #000000; stroke-width: 0.5; stroke-linejoin: miter"/>
   </g>
   <g id="patch_7">
    <path d="M 152.17125 154.3255 
C 152.17125 154.3255 152.17125 154.3255 152.17125 154.3255 
C 152.17125 154.3255 152.17125 154.3255 152.17125 154.3255 
L 182.790992 129.196527 
C 181.968483 128.194297 181.097263 127.233055 180.180479 126.316271 
C 179.263695 125.399487 178.302453 124.528267 177.300223 123.705758 
z
" clip-path="url(#p760d4ca930)" style="fill: #d4a0a7; stroke: #000000; stroke-width: 0.5; stroke-linejoin: miter"/>
   </g>
   <g id="patch_8">
    <path d="M 152.17125 154.3255 
C 152.17125 154.3255 152.17125 154.3255 152.17125 154.3255 
C 152.17125 154.3255 152.17125 154.3255 152.17125 154.3255 
L 207.489558 124.757248 
C 206.521745 122.946598 205.465617 121.184555 204.32499 119.477485 
C 203.184362 117.770416 201.96061 116.120376 200.658152 114.533328 
z
" clip-path="url(#p760d4ca930)" style="fill: #d4a0a7; stroke: #000000; stroke-width: 0.5; stroke-linejoin: miter"/>
   </g>
   <g id="patch_9">
    <path d="M 152.17125 154.3255 
C 152.17125 154.3255 152.17125 154.3255 152.17125 154.3255 
C 152.17125 154.3255 152.17125 154.3255 152.17125 154.3255 
L 177.372854 146.680677 
C 177.122627 145.855791 176.832052 145.043687 176.502177 144.2473 
C 176.172303 143.450912 175.803527 142.671201 175.397181 141.910981 
z
" clip-path="url(#p760d4ca930)" style="fill: #d4a0a7; stroke: #000000; stroke-width: 0.5; stroke-linejoin: miter"/>
   </g>
   <g id="patch_10">
    <path d="M 152.17125 154.3255 
C 152.17125 154.3255 152.17125 154.3255 152.17125 154.3255 
C 152.17125 154.3255 152.17125 154.3255 152.17125 154.3255 
L 174.451492 152.131088 
C 174.379665 151.401822 174.272077 150.676523 174.129116 149.957809 
C 173.986155 149.239095 173.807993 148.527834 173.595275 147.826593 
z
" clip-path="url(#p760d4ca930)" style="fill: #d4a0a7; stroke: #000000; stroke-width: 0.5; stroke-linejoin: miter"/>
   </g>
   <g id="patch_11">
    <path d="M 152.17125 154.3255 
C 152.17125 154.3255 152.17125 154.3255 152.17125 154.3255 
C 152.17125 154.3255 152.17125 154.3255 152.17125 154.3255 
L 178.088285 156.878105 
C 178.171835 156.029802 178.213686 155.177908 178.213686 154.3255 
C 178.213686 153.473092 178.171835 152.621198 178.088285 151.772895 
z
" clip-path="url(#p760d4ca930)" style="fill: #d4a0a7; stroke: #000000; stroke-width: 0.5; stroke-linejoin: miter"/>
   </g>
   <g id="patch_12">
    <path d="M 152.17125 154.3255 
C 152.17125 154.3255 152.17125 154.3255 152.17125 154.3255 
C 152.17125 154.3255 152.17125 154.3255 152.17125 154.3255 
L 173.670874 160.84734 
C 173.884344 160.143625 174.063134 159.429853 174.2066 158.708604 
C 174.350065 157.987354 174.458033 157.259495 174.530113 156.527656 
z
" clip-path="url(#p760d4ca930)" style="fill: #d4a0a7; stroke: #000000; stroke-width: 0.5; stroke-linejoin: miter"/>
   </g>
   <g id="patch_13">
    <path d="M 152.17125 154.3255 
C 152.17125 154.3255 152.17125 154.3255 152.17125 154.3255 
C 152.17125 154.3255 152.17125 154.3255 152.17125 154.3255 
L 167.020279 162.262471 
C 167.280068 161.77644 167.515838 161.277948 167.726736 160.768793 
C 167.937635 160.259639 168.123408 159.740437 168.283385 159.213063 
z
" clip-path="url(#p760d4ca930)" style="fill: #d4a0a7; stroke: #000000; stroke-width: 0.5; stroke-linejoin: miter"/>
   </g>
   <g id="patch_14">
    <path d="M 152.17125 154.3255 
C 152.17125 154.3255 152.17125 154.3255 152.17125 154.3255 
C 152.17125 154.3255 152.17125 154.3255 152.17125 154.3255 
L 158.022099 159.127167 
C 158.179264 158.93566 158.326933 158.736552 158.464571 158.530563 
C 158.602209 158.324573 158.72965 158.111949 158.846435 157.893461 
z
" clip-path="url(#p760d4ca930)" style="fill: #d4a0a7; stroke: #000000; stroke-width: 0.5; stroke-linejoin: miter"/>
   </g>
   <g id="patch_15">
    <path d="M 152.17125 154.3255 
C 152.17125 154.3255 152.17125 154.3255 152.17125 154.3255 
C 152.17125 154.3255 152.17125 154.3255 152.17125 154.3255 
L 158.772511 162.36916 
C 159.035792 162.153091 159.288306 161.924226 159.529141 161.683391 
C 159.769976 161.442556 159.998841 161.190042 160.21491 160.926761 
z
" clip-path="url(#p760d4ca930)" style="fill: #d4a0a7; stroke: #000000; stroke-width: 0.5; stroke-linejoin: miter"/>
   </g>
   <g id="patch_16">
    <path d="M 152.17125 154.3255 
C 152.17125 154.3255 152.17125 154.3255 152.17125 154.3255 
C 152.17125 154.3255 152.17125 154.3255 152.17125 154.3255 
L 152.17125 154.3255 
C 152.17125 154.3255 152.17125 154.3255 152.17125 154.3255 
C 152.17125 154.3255 152.17125 154.3255 152.17125 154.3255 
z
" clip-path="url(#p760d4ca930)" style="fill: #d4a0a7; stroke: #000000; stroke-width: 0.5; stroke-linejoin: miter"/>
   </g>
   <g id="patch_17">
    <path d="M 152.17125 154.3255 
C 152.17125 154.3255 152.17125 154.3255 152.17125 154.3255 
C 152.17125 154.3255 152.17125 154.3255 152.17125 154.3255 
L 157.112821 170.615675 
C 157.646022 170.45393 158.170962 170.266104 158.685742 170.052875 
C 159.200523 169.839646 159.704524 169.601271 160.195925 169.338612 
z
" clip-path="url(#p760d4ca930)" style="fill: #d4a0a7; stroke: #000000; stroke-width: 0.5; stroke-linejoin: miter"/>
   </g>
   <g id="patch_18">
    <path d="M 152.17125 154.3255 
C 152.17125 154.3255 152.17125 154.3255 152.17125 154.3255 
C 152.17125 154.3255 152.17125 154.3255 152.17125 154.3255 
L 154.249233 175.423615 
C 154.939806 175.355599 155.626623 175.25372 156.307204 175.118344 
C 156.987785 174.982968 157.661309 174.814259 158.325343 174.612826 
z
" clip-path="url(#p760d4ca930)" style="fill: #d4a0a7; stroke: #000000; stroke-width: 0.5; stroke-linejoin: miter"/>
   </g>
   <g id="patch_19">
    <path d="M 152.17125 154.3255 
C 152.17125 154.3255 152.17125 154.3255 152.17125 154.3255 
C 152.17125 154.3255 152.17125 154.3255 152.17125 154.3255 
L 150.366024 172.654271 
C 150.965952 172.713358 151.568419 172.742956 152.17125 172.742956 
C 152.774081 172.742956 153.376548 172.713358 153.976476 172.654271 
z
" clip-path="url(#p760d4ca930)" style="fill: #d4a0a7; stroke: #000000; stroke-width: 0.5; stroke-linejoin: miter"/>
   </g>
   <g id="patch_20">
    <path d="M 152.17125 154.3255 
C 152.17125 154.3255 152.17125 154.3255 152.17125 154.3255 
C 152.17125 154.3255 152.17125 154.3255 152.17125 154.3255 
L 142.661936 185.673508 
C 143.688003 185.984762 144.728733 186.245451 145.780368 186.454634 
C 146.832002 186.663818 147.893273 186.821242 148.960348 186.92634 
z
" clip-path="url(#p760d4ca930)" style="fill: #d4a0a7; stroke: #000000; stroke-width: 0.5; stroke-linejoin: miter"/>
   </g>
   <g id="patch_21">
    <path d="M 152.17125 154.3255 
C 152.17125 154.3255 152.17125 154.3255 152.17125 154.3255 
C 152.17125 154.3255 152.17125 154.3255 152.17125 154.3255 
L 139.914546 177.256181 
C 140.665101 177.657361 141.434901 178.02145 142.221165 178.347131 
C 143.007429 178.672812 143.809209 178.959693 144.623609 179.206739 
z
" clip-path="url(#p760d4ca930)" style="fill: #d4a0a7; stroke: #000000; stroke-width: 0.5; stroke-linejoin: miter"/>
   </g>
   <g id="patch_22">
    <path d="M 152.17125 154.3255 
C 152.17125 154.3255 152.17125 154.3255 152.17125 154.3255 
C 152.17125 154.3255 152.17125 154.3255 152.17125 154.3255 
L 139.940684 169.228488 
C 140.428481 169.628813 140.935639 170.004947 141.460325 170.355531 
C 141.985012 170.706116 142.526596 171.030729 143.083119 171.328197 
z
" clip-path="url(#p760d4ca930)" style="fill: #d4a0a7; stroke: #000000; stroke-width: 0.5; stroke-linejoin: miter"/>
   </g>
   <g id="patch_23">
    <path d="M 152.17125 154.3255 
C 152.17125 154.3255 152.17125 154.3255 152.17125 154.3255 
C 152.17125 154.3255 152.17125 154.3255 152.17125 154.3255 
L 128.150207 174.039061 
C 128.795461 174.825306 129.478929 175.579396 130.198141 176.298609 
C 130.917354 177.017821 131.671444 177.701289 132.457689 178.346543 
z
" clip-path="url(#p760d4ca930)" style="fill: #d4a0a7; stroke: #000000; stroke-width: 0.5; stroke-linejoin: miter"/>
   </g>
   <g id="patch_24">
    <path d="M 152.17125 154.3255 
C 152.17125 154.3255 152.17125 154.3255 152.17125 154.3255 
C 152.17125 154.3255 152.17125 154.3255 152.17125 154.3255 
L 121.676965 170.625035 
C 122.210473 171.623158 122.792665 172.594486 123.421437 173.535511 
C 124.05021 174.476535 124.724805 175.386121 125.442786 176.260984 
z
" clip-path="url(#p760d4ca930)" style="fill: #d4a0a7; stroke: #000000; stroke-width: 0.5; stroke-linejoin: miter"/>
   </g>
   <g id="patch_25">
    <path d="M 152.17125 154.3255 
C 152.17125 154.3255 152.17125 154.3255 152.17125 154.3255 
C 152.17125 154.3255 152.17125 154.3255 152.17125 154.3255 
L 137.213794 158.862795 
C 137.362306 159.352375 137.534766 159.834368 137.73055 160.307034 
C 137.926335 160.779699 138.145208 161.242468 138.386379 161.693667 
z
" clip-path="url(#p760d4ca930)" style="fill: #d4a0a7; stroke: #000000; stroke-width: 0.5; stroke-linejoin: miter"/>
   </g>
   <g id="patch_26">
    <path d="M 152.17125 154.3255 
C 152.17125 154.3255 152.17125 154.3255 152.17125 154.3255 
C 152.17125 154.3255 152.17125 154.3255 152.17125 154.3255 
L 59.149534 163.487339 
C 59.449415 166.532079 59.898603 169.56026 60.495476 172.560945 
C 61.09235 175.56163 61.836189 178.531202 62.724306 181.458934 
z
" clip-path="url(#p760d4ca930)" style="fill: #d4a0a7; stroke: #000000; stroke-width: 0.5; stroke-linejoin: miter"/>
   </g>
   <g id="patch_27">
    <path d="M 152.17125 154.3255 
C 152.17125 154.3255 152.17125 154.3255 152.17125 154.3255 
C 152.17125 154.3255 152.17125 154.3255 152.17125 154.3255 
L 139.998254 153.126564 
C 139.959011 153.525005 139.939354 153.925132 139.939354 154.3255 
C 139.939354 154.725868 139.959011 155.125995 139.998254 155.524436 
z
" clip-path="url(#p760d4ca930)" style="fill: #d4a0a7; stroke: #000000; stroke-width: 0.5; stroke-linejoin: miter"/>
   </g>
   <g id="patch_28">
    <path d="M 152.17125 154.3255 
C 152.17125 154.3255 152.17125 154.3255 152.17125 154.3255 
C 152.17125 154.3255 152.17125 154.3255 152.17125 154.3255 
L 112.945287 142.426434 
C 112.555812 143.710358 112.22961 145.012631 111.967858 146.328548 
C 111.706106 147.644465 111.509119 148.97244 111.37761 150.307677 
z
" clip-path="url(#p760d4ca930)" style="fill: #d4a0a7; stroke: #000000; stroke-width: 0.5; stroke-linejoin: miter"/>
   </g>
   <g id="patch_29">
    <path d="M 152.17125 154.3255 
C 152.17125 154.3255 152.17125 154.3255 152.17125 154.3255 
C 152.17125 154.3255 152.17125 154.3255 152.17125 154.3255 
L 99.123626 125.970954 
C 98.19554 127.707282 97.353261 129.48813 96.599834 131.307066 
C 95.846406 133.126001 95.182737 134.980831 94.611224 136.864857 
z
" clip-path="url(#p760d4ca930)" style="fill: #d4a0a7; stroke: #000000; stroke-width: 0.5; stroke-linejoin: miter"/>
   </g>
   <g id="patch_30">
    <path d="M 152.17125 154.3255 
C 152.17125 154.3255 152.17125 154.3255 152.17125 154.3255 
C 152.17125 154.3255 152.17125 154.3255 152.17125 154.3255 
L 105.481474 116.008191 
C 104.227291 117.536417 103.048896 119.125299 101.950545 120.769098 
C 100.852194 122.412896 99.835211 124.10963 98.903269 125.853171 
z
" clip-path="url(#p760d4ca930)" style="fill: #d4a0a7; stroke: #000000; stroke-width: 0.5; stroke-linejoin: miter"/>
   </g>
   <g id="patch_31">
    <path d="M 152.17125 154.3255 
C 152.17125 154.3255 152.17125 154.3255 152.17125 154.3255 
C 152.17125 154.3255 152.17125 154.3255 152.17125 154.3255 
L 114.452051 108.364523 
C 112.947679 109.599128 111.50483 110.906851 110.128715 112.282965 
C 108.752601 113.65908 107.444878 115.101929 106.210273 116.606301 
z
" clip-path="url(#p760d4ca930)" style="fill: #d4a0a7; stroke: #000000; stroke-width: 0.5; stroke-linejoin: miter"/>
   </g>
   <g id="patch_32">
    <path d="M 152.17125 154.3255 
C 152.17125 154.3255 152.17125 154.3255 152.17125 154.3255 
C 152.17125 154.3255 152.17125 154.3255 152.17125 154.3255 
L 118.195537 90.761412 
C 116.11499 91.873488 114.090296 93.087043 112.128769 94.397693 
C 110.167243 95.708343 108.271248 97.114509 106.447633 98.611111 
z
" clip-path="url(#p760d4ca930)" style="fill: #d4a0a7; stroke: #000000; stroke-width: 0.5; stroke-linejoin: miter"/>
   </g>
   <g id="patch_33">
    <path d="M 152.17125 154.3255 
C 152.17125 154.3255 152.17125 154.3255 152.17125 154.3255 
C 152.17125 154.3255 152.17125 154.3255 152.17125 154.3255 
L 129.681231 80.185844 
C 127.254529 80.921976 124.865432 81.776808 122.52257 82.747254 
C 120.179707 83.717699 117.885902 84.802588 115.649441 85.998001 
z
" clip-path="url(#p760d4ca930)" style="fill: #d4a0a7; stroke: #000000; stroke-width: 0.5; stroke-linejoin: miter"/>
   </g>
   <g id="patch_34">
    <path d="M 152.17125 154.3255 
C 152.17125 154.3255 152.17125 154.3255 152.17125 154.3255 
C 152.17125 154.3255 152.17125 154.3255 152.17125 154.3255 
L 142.774701 58.920733 
C 139.65196 59.228296 136.546202 59.688991 133.468645 60.301156 
C 130.391088 60.91332 127.345441 61.676215 124.342706 62.587084 
z
" clip-path="url(#p760d4ca930)" style="fill: #d4a0a7; stroke: #000000; stroke-width: 0.5; stroke-linejoin: miter"/>
   </g>
   <g id="PathCollection_1">
    <defs>
     <path id="m7fdd779c0b" d="M 0.193618 7.414054 
L 0.193618 7.414054 
C 0.054922 7.414054 -0.078235 7.358899 -0.176308 7.260826 
C -0.274381 7.162753 -0.329536 7.029596 -0.329536 6.890901 
L -0.329536 5.365008 
L -1.528416 6.56393 
L -1.528416 6.56393 
C -1.577018 6.612704 -1.634775 6.651408 -1.698366 6.677814 
C -1.761958 6.704221 -1.830141 6.717815 -1.898997 6.717815 
C -1.967853 6.717815 -2.036037 6.704221 -2.099628 6.677814 
C -2.163219 6.651408 -2.220976 6.612704 -2.269578 6.56393 
L -2.269578 6.56393 
C -2.318353 6.515327 -2.357056 6.457571 -2.383463 6.393979 
C -2.409869 6.330388 -2.423463 6.262205 -2.423463 6.193348 
C -2.423463 6.124492 -2.409869 6.056309 -2.383463 5.992718 
C -2.357056 5.929126 -2.318353 5.87137 -2.269578 5.822767 
L -0.329536 3.884106 
L -0.329536 0.820937 
L -2.98067 2.351538 
L -3.691824 5.001416 
L -3.691824 5.001416 
C -3.727584 5.135411 -3.815199 5.249836 -3.93523 5.319305 
C -4.055261 5.388775 -4.198123 5.407741 -4.332122 5.371997 
L -4.332122 5.371997 
C -4.466126 5.336237 -4.580558 5.248616 -4.650029 5.128576 
C -4.719499 5.008535 -4.73846 4.865662 -4.702703 4.731657 
L -4.262647 3.092721 
L -5.585535 3.855668 
L -5.585535 3.855668 
C -5.645013 3.890144 -5.710708 3.912561 -5.778854 3.921634 
C -5.847001 3.930706 -5.916272 3.926258 -5.982698 3.908543 
C -6.049125 3.890828 -6.111412 3.860192 -6.165991 3.818391 
C -6.220571 3.77659 -6.266379 3.724437 -6.300791 3.664922 
L -6.300791 3.664922 
C -6.335212 3.605364 -6.35755 3.539597 -6.366524 3.471396 
C -6.375498 3.403194 -6.370933 3.333888 -6.35309 3.267452 
C -6.335248 3.201017 -6.304476 3.138749 -6.26254 3.08422 
C -6.220605 3.029692 -6.168323 2.983966 -6.108695 2.949666 
L -4.785807 2.186762 
L -6.424743 1.746706 
L -6.424743 1.746706 
C -6.558747 1.710946 -6.673179 1.623325 -6.74265 1.503284 
C -6.81212 1.383244 -6.831081 1.240371 -6.795324 1.106366 
L -6.795324 1.106366 
C -6.777471 1.039969 -6.746703 0.977739 -6.704784 0.923241 
C -6.662864 0.868744 -6.61061 0.823041 -6.551015 0.788752 
C -6.491421 0.754464 -6.425647 0.732257 -6.357465 0.723406 
C -6.289282 0.714554 -6.220019 0.71923 -6.153645 0.737166 
L -3.505232 1.44698 
L -0.852424 -0.08496 
L -3.503767 -1.615666 
L -6.153645 -0.905851 
L -6.153645 -0.905851 
C -6.22011 -0.887939 -6.289462 -0.883321 -6.357716 -0.892262 
C -6.42597 -0.901202 -6.491793 -0.923527 -6.551403 -0.957953 
C -6.611013 -0.992379 -6.663247 -1.038234 -6.705103 -1.092883 
C -6.746958 -1.147533 -6.777619 -1.209911 -6.795324 -1.276432 
L -6.795324 -1.276432 
C -6.831068 -1.410431 -6.812101 -1.553293 -6.742632 -1.673324 
C -6.673162 -1.793355 -6.558738 -1.88097 -6.424743 -1.91673 
L -4.785807 -2.355447 
L -6.108695 -3.119732 
L -6.108695 -3.119732 
C -6.228699 -3.188976 -6.316415 -3.303132 -6.352417 -3.436921 
C -6.388419 -3.57071 -6.369839 -3.713469 -6.300791 -3.833586 
L -6.300791 -3.833586 
C -6.266491 -3.893214 -6.220765 -3.945496 -6.166237 -3.987431 
C -6.111708 -4.029367 -6.04944 -4.060139 -5.983005 -4.077981 
C -5.91657 -4.095823 -5.847263 -4.100389 -5.779062 -4.091415 
C -5.71086 -4.082441 -5.645094 -4.060102 -5.585535 -4.025682 
L -4.262647 -3.261396 
L -4.702703 -4.900332 
L -4.702703 -4.900332 
C -4.73846 -5.034337 -4.719499 -5.17721 -4.650029 -5.29725 
C -4.580558 -5.417291 -4.466126 -5.504912 -4.332122 -5.540672 
L -4.332122 -5.540672 
C -4.19831 -5.576464 -4.055613 -5.557686 -3.935617 -5.488496 
C -3.81562 -5.419305 -3.727882 -5.305212 -3.691824 -5.171472 
L -2.982009 -2.521594 
L -0.329411 -0.990302 
L -0.329411 -4.051588 
L -2.269453 -5.991589 
L -2.269453 -5.991589 
C -2.318227 -6.040191 -2.356931 -6.097947 -2.383337 -6.161539 
C -2.409744 -6.22513 -2.423338 -6.293314 -2.423338 -6.36217 
C -2.423338 -6.431026 -2.409744 -6.499209 -2.383337 -6.5628 
C -2.356931 -6.626392 -2.318227 -6.684149 -2.269453 -6.732751 
L -2.269453 -6.732751 
C -2.22085 -6.781526 -2.163094 -6.820229 -2.099502 -6.846635 
C -2.035911 -6.873042 -1.967728 -6.886636 -1.898871 -6.886636 
C -1.830015 -6.886636 -1.761832 -6.873042 -1.698241 -6.846635 
C -1.634649 -6.820229 -1.576893 -6.781526 -1.52829 -6.732751 
L -0.329411 -5.533829 
L -0.329411 -7.059722 
L -0.329411 -7.059722 
C -0.329411 -7.198418 -0.274255 -7.331575 -0.176182 -7.429647 
C -0.07811 -7.52772 0.055047 -7.582875 0.193743 -7.582875 
L 0.193743 -7.582875 
C 0.332439 -7.582875 0.465596 -7.52772 0.563669 -7.429647 
C 0.661741 -7.331575 0.716897 -7.198418 0.716897 -7.059722 
L 0.716897 -5.533829 
L 1.915777 -6.732751 
L 1.915777 -6.732751 
C 1.964379 -6.781526 2.022136 -6.820229 2.085727 -6.846635 
C 2.149318 -6.873042 2.217502 -6.886636 2.286358 -6.886636 
C 2.355214 -6.886636 2.423397 -6.873042 2.486989 -6.846635 
C 2.55058 -6.820229 2.608337 -6.781526 2.656939 -6.732751 
L 2.656939 -6.732751 
C 2.705714 -6.684149 2.744417 -6.626392 2.770823 -6.5628 
C 2.79723 -6.499209 2.810824 -6.431026 2.810824 -6.36217 
C 2.810824 -6.293314 2.79723 -6.22513 2.770823 -6.161539 
C 2.744417 -6.097947 2.705714 -6.040191 2.656939 -5.991589 
L 0.716897 -4.051588 
L 0.716897 -0.991139 
L 3.369495 -2.522954 
L 4.07931 -5.171367 
L 4.07931 -5.171367 
C 4.115368 -5.305107 4.203106 -5.4192 4.323103 -5.488391 
C 4.4431 -5.557582 4.585797 -5.576359 4.719608 -5.540567 
L 4.719608 -5.540567 
C 4.853612 -5.504807 4.968045 -5.417186 5.037515 -5.297146 
C 5.106986 -5.177105 5.125946 -5.034232 5.090189 -4.900227 
L 4.650133 -3.262673 
L 5.973022 -4.025577 
L 5.973022 -4.025577 
C 6.03258 -4.059998 6.098346 -4.082336 6.166548 -4.09131 
C 6.234749 -4.100284 6.304056 -4.095719 6.370491 -4.077876 
C 6.436926 -4.060034 6.499194 -4.029262 6.553723 -3.987327 
C 6.608252 -3.945391 6.653978 -3.893109 6.688277 -3.833481 
L 6.688277 -3.833481 
C 6.757325 -3.713365 6.775905 -3.570605 6.739903 -3.436816 
C 6.703901 -3.303027 6.616186 -3.188871 6.496181 -3.119628 
L 5.173293 -2.355342 
L 6.812229 -1.916625 
L 6.812229 -1.916625 
C 6.946224 -1.880865 7.060649 -1.79325 7.130118 -1.67322 
C 7.199588 -1.553189 7.218554 -1.410326 7.18281 -1.276327 
L 7.18281 -1.276327 
C 7.165106 -1.209806 7.134445 -1.147429 7.092589 -1.092779 
C 7.050733 -1.038129 6.998499 -0.992274 6.938889 -0.957848 
C 6.879279 -0.923422 6.813456 -0.901098 6.745202 -0.892157 
C 6.676949 -0.883217 6.607597 -0.887835 6.541131 -0.905746 
L 3.891253 -1.615561 
L 1.239492 -0.084604 
L 3.892718 1.447085 
L 6.541131 0.73727 
L 6.541131 0.73727 
C 6.674948 0.701466 6.817656 0.720237 6.937662 0.789429 
C 7.057669 0.858621 7.145413 0.972721 7.181471 1.10647 
L 7.181471 1.10647 
C 7.217274 1.240293 7.198497 1.383006 7.129297 1.503014 
C 7.060096 1.623021 6.945986 1.710762 6.812229 1.74681 
L 5.173293 2.186866 
L 6.496181 2.949771 
L 6.496181 2.949771 
C 6.555697 2.984183 6.607849 3.029991 6.649651 3.08457 
C 6.691452 3.13915 6.722088 3.201437 6.739803 3.267863 
C 6.757517 3.33429 6.761966 3.403561 6.752893 3.471707 
C 6.743821 3.539854 6.721404 3.605549 6.686927 3.665026 
L 6.686927 3.665026 
C 6.617458 3.784813 6.503196 3.87225 6.369416 3.907994 
C 6.235636 3.943739 6.092989 3.924946 5.973032 3.855772 
L 4.650144 3.091487 
L 5.08886 4.731783 
L 5.08886 4.731783 
C 5.124664 4.865606 5.105887 5.008319 5.036686 5.128326 
C 4.967486 5.248334 4.853376 5.336074 4.719619 5.372123 
L 4.719619 5.372123 
C 4.585619 5.407867 4.442757 5.3889 4.322726 5.319431 
C 4.202695 5.249961 4.115081 5.135537 4.07932 5.001542 
L 3.368166 2.351664 
L 0.717033 0.821063 
L 0.717033 3.884232 
L 2.657075 5.822893 
L 2.657075 5.822893 
C 2.70585 5.871495 2.744553 5.929252 2.770959 5.992843 
C 2.797366 6.056435 2.81096 6.124618 2.81096 6.193474 
C 2.81096 6.26233 2.797366 6.330514 2.770959 6.394105 
C 2.744553 6.457696 2.70585 6.515453 2.657075 6.564055 
L 2.657075 6.564055 
C 2.608473 6.61283 2.550716 6.651533 2.487125 6.67794 
C 2.423533 6.704346 2.35535 6.71794 2.286494 6.71794 
C 2.217638 6.71794 2.149454 6.704346 2.085863 6.67794 
C 2.022272 6.651533 1.964515 6.61283 1.915913 6.564055 
L 0.717033 5.365133 
L 0.717033 6.891026 
L 0.717033 6.891026 
C 0.717033 7.029722 0.661877 7.162879 0.563805 7.260952 
C 0.465732 7.359024 0.332575 7.41418 0.193879 7.41418 
L 0.193618 7.414054 
z
"/>
    </defs>
    <g clip-path="url(#p760d4ca930)">
     <use xlink:href="#m7fdd779c0b" x="129.823913" y="90.056437" style="fill: #0000ff; fill-opacity: 0.7"/>
    </g>
   </g>
   <g id="patch_35">
    <path d="M 152.17125 43.4455 
C 137.610622 43.4455 123.191577 46.313626 109.739311 51.885737 
C 96.287045 57.457849 84.063169 65.625581 73.76725 75.9215 
C 63.471331 86.217419 55.303599 98.441295 49.731487 111.893561 
C 44.159376 125.345827 41.29125 139.764872 41.29125 154.3255 
C 41.29125 168.886128 44.159376 183.305173 49.731487 196.757439 
C 55.303599 210.209705 63.471331 222.433581 73.76725 232.7295 
C 84.063169 243.025419 96.287045 251.193151 109.739311 256.765263 
C 123.191577 262.337374 137.610622 265.2055 152.17125 265.2055 
C 166.731878 265.2055 181.150923 262.337374 194.603189 256.765263 
C 208.055455 251.193151 220.279331 243.025419 230.57525 232.7295 
C 240.871169 222.433581 249.038901 210.209705 254.611013 196.757439 
C 260.183124 183.305173 263.05125 168.886128 263.05125 154.3255 
C 263.05125 139.764872 260.183124 125.345827 254.611013 111.893561 
C 249.038901 98.441295 240.871169 86.217419 230.57525 75.9215 
C 220.279331 65.625581 208.055455 57.457849 194.603189 51.885737 
C 181.150923 46.313626 166.731878 43.4455 152.17125 43.4455 
" style="fill: none; stroke: #000000; stroke-width: 0.8; stroke-linejoin: miter; stroke-linecap: square"/>
   </g>
   <g id="text_5">
    <!-- 30 runs -->
    <g style="fill: #95a5a6" transform="translate(28.29293 38.045618) scale(0.1 -0.1)">
     <defs>
      <path id="DejaVuSans-33" d="M 2597 2516 
Q 3050 2419 3304 2112 
Q 3559 1806 3559 1356 
Q 3559 666 3084 287 
Q 2609 -91 1734 -91 
Q 1441 -91 1130 -33 
Q 819 25 488 141 
L 488 750 
Q 750 597 1062 519 
Q 1375 441 1716 441 
Q 2309 441 2620 675 
Q 2931 909 2931 1356 
Q 2931 1769 2642 2001 
Q 2353 2234 1838 2234 
L 1294 2234 
L 1294 2753 
L 1863 2753 
Q 2328 2753 2575 2939 
Q 2822 3125 2822 3475 
Q 2822 3834 2567 4026 
Q 2313 4219 1838 4219 
Q 1578 4219 1281 4162 
Q 984 4106 628 3988 
L 628 4550 
Q 988 4650 1302 4700 
Q 1616 4750 1894 4750 
Q 2613 4750 3031 4423 
Q 3450 4097 3450 3541 
Q 3450 3153 3228 2886 
Q 3006 2619 2597 2516 
z
" transform="scale(0.015625)"/>
      <path id="DejaVuSans-30" d="M 2034 4250 
Q 1547 4250 1301 3770 
Q 1056 3291 1056 2328 
Q 1056 1369 1301 889 
Q 1547 409 2034 409 
Q 2525 409 2770 889 
Q 3016 1369 3016 2328 
Q 3016 3291 2770 3770 
Q 2525 4250 2034 4250 
z
M 2034 4750 
Q 2819 4750 3233 4129 
Q 3647 3509 3647 2328 
Q 3647 1150 3233 529 
Q 2819 -91 2034 -91 
Q 1250 -91 836 529 
Q 422 1150 422 2328 
Q 422 3509 836 4129 
Q 1250 4750 2034 4750 
z
" transform="scale(0.015625)"/>
      <path id="DejaVuSans-20" transform="scale(0.015625)"/>
      <path id="DejaVuSans-72" d="M 2631 2963 
Q 2534 3019 2420 3045 
Q 2306 3072 2169 3072 
Q 1681 3072 1420 2755 
Q 1159 2438 1159 1844 
L 1159 0 
L 581 0 
L 581 3500 
L 1159 3500 
L 1159 2956 
Q 1341 3275 1631 3429 
Q 1922 3584 2338 3584 
Q 2397 3584 2469 3576 
Q 2541 3569 2628 3553 
L 2631 2963 
z
" transform="scale(0.015625)"/>
      <path id="DejaVuSans-75" d="M 544 1381 
L 544 3500 
L 1119 3500 
L 1119 1403 
Q 1119 906 1312 657 
Q 1506 409 1894 409 
Q 2359 409 2629 706 
Q 2900 1003 2900 1516 
L 2900 3500 
L 3475 3500 
L 3475 0 
L 2900 0 
L 2900 538 
Q 2691 219 2414 64 
Q 2138 -91 1772 -91 
Q 1169 -91 856 284 
Q 544 659 544 1381 
z
M 1991 3584 
L 1991 3584 
z
" transform="scale(0.015625)"/>
      <path id="DejaVuSans-6e" d="M 3513 2113 
L 3513 0 
L 2938 0 
L 2938 2094 
Q 2938 2591 2744 2837 
Q 2550 3084 2163 3084 
Q 1697 3084 1428 2787 
Q 1159 2491 1159 1978 
L 1159 0 
L 581 0 
L 581 3500 
L 1159 3500 
L 1159 2956 
Q 1366 3272 1645 3428 
Q 1925 3584 2291 3584 
Q 2894 3584 3203 3211 
Q 3513 2838 3513 2113 
z
" transform="scale(0.015625)"/>
      <path id="DejaVuSans-73" d="M 2834 3397 
L 2834 2853 
Q 2591 2978 2328 3040 
Q 2066 3103 1784 3103 
Q 1356 3103 1142 2972 
Q 928 2841 928 2578 
Q 928 2378 1081 2264 
Q 1234 2150 1697 2047 
L 1894 2003 
Q 2506 1872 2764 1633 
Q 3022 1394 3022 966 
Q 3022 478 2636 193 
Q 2250 -91 1575 -91 
Q 1294 -91 989 -36 
Q 684 19 347 128 
L 347 722 
Q 666 556 975 473 
Q 1284 391 1588 391 
Q 1994 391 2212 530 
Q 2431 669 2431 922 
Q 2431 1156 2273 1281 
Q 2116 1406 1581 1522 
L 1381 1569 
Q 847 1681 609 1914 
Q 372 2147 372 2553 
Q 372 3047 722 3315 
Q 1072 3584 1716 3584 
Q 2034 3584 2315 3537 
Q 2597 3491 2834 3397 
z
" transform="scale(0.015625)"/>
     </defs>
     <use xlink:href="#DejaVuSans-33"/>
     <use xlink:href="#DejaVuSans-30" x="63.623047"/>
     <use xlink:href="#DejaVuSans-20" x="127.246094"/>
     <use xlink:href="#DejaVuSans-72" x="159.033203"/>
     <use xlink:href="#DejaVuSans-75" x="200.146484"/>
     <use xlink:href="#DejaVuSans-6e" x="263.525391"/>
     <use xlink:href="#DejaVuSans-73" x="326.904297"/>
    </g>
    <!-- 11 lifts -->
    <g style="fill: #95a5a6" transform="translate(28.29293 49.24343) scale(0.1 -0.1)">
     <defs>
      <path id="DejaVuSans-31" d="M 794 531 
L 1825 531 
L 1825 4091 
L 703 3866 
L 703 4441 
L 1819 4666 
L 2450 4666 
L 2450 531 
L 3481 531 
L 3481 0 
L 794 0 
L 794 531 
z
" transform="scale(0.015625)"/>
      <path id="DejaVuSans-6c" d="M 603 4863 
L 1178 4863 
L 1178 0 
L 603 0 
L 603 4863 
z
" transform="scale(0.015625)"/>
      <path id="DejaVuSans-69" d="M 603 3500 
L 1178 3500 
L 1178 0 
L 603 0 
L 603 3500 
z
M 603 4863 
L 1178 4863 
L 1178 4134 
L 603 4134 
L 603 4863 
z
" transform="scale(0.015625)"/>
      <path id="DejaVuSans-66" d="M 2375 4863 
L 2375 4384 
L 1825 4384 
Q 1516 4384 1395 4259 
Q 1275 4134 1275 3809 
L 1275 3500 
L 2222 3500 
L 2222 3053 
L 1275 3053 
L 1275 0 
L 697 0 
L 697 3053 
L 147 3053 
L 147 3500 
L 697 3500 
L 697 3744 
Q 697 4328 969 4595 
Q 1241 4863 1831 4863 
L 2375 4863 
z
" transform="scale(0.015625)"/>
      <path id="DejaVuSans-74" d="M 1172 4494 
L 1172 3500 
L 2356 3500 
L 2356 3053 
L 1172 3053 
L 1172 1153 
Q 1172 725 1289 603 
Q 1406 481 1766 481 
L 2356 481 
L 2356 0 
L 1766 0 
Q 1100 0 847 248 
Q 594 497 594 1153 
L 594 3053 
L 172 3053 
L 172 3500 
L 594 3500 
L 594 4494 
L 1172 4494 
z
" transform="scale(0.015625)"/>
     </defs>
     <use xlink:href="#DejaVuSans-31"/>
     <use xlink:href="#DejaVuSans-31" x="63.623047"/>
     <use xlink:href="#DejaVuSans-20" x="127.246094"/>
     <use xlink:href="#DejaVuSans-6c" x="159.033203"/>
     <use xlink:href="#DejaVuSans-69" x="186.816406"/>
     <use xlink:href="#DejaVuSans-66" x="214.599609"/>
     <use xlink:href="#DejaVuSans-74" x="248.054688"/>
     <use xlink:href="#DejaVuSans-73" x="287.263672"/>
    </g>
   </g>
   <g id="text_6">
    <!-- 4,186 m -->
    <g style="fill: #95a5a6" transform="translate(235.683945 38.045618) scale(0.1 -0.1)">
     <defs>
      <path id="DejaVuSans-34" d="M 2419 4116 
L 825 1625 
L 2419 1625 
L 2419 4116 
z
M 2253 4666 
L 3047 4666 
L 3047 1625 
L 3713 1625 
L 3713 1100 
L 3047 1100 
L 3047 0 
L 2419 0 
L 2419 1100 
L 313 1100 
L 313 1709 
L 2253 4666 
z
" transform="scale(0.015625)"/>
      <path id="DejaVuSans-2c" d="M 750 794 
L 1409 794 
L 1409 256 
L 897 -744 
L 494 -744 
L 750 256 
L 750 794 
z
" transform="scale(0.015625)"/>
      <path id="DejaVuSans-38" d="M 2034 2216 
Q 1584 2216 1326 1975 
Q 1069 1734 1069 1313 
Q 1069 891 1326 650 
Q 1584 409 2034 409 
Q 2484 409 2743 651 
Q 3003 894 3003 1313 
Q 3003 1734 2745 1975 
Q 2488 2216 2034 2216 
z
M 1403 2484 
Q 997 2584 770 2862 
Q 544 3141 544 3541 
Q 544 4100 942 4425 
Q 1341 4750 2034 4750 
Q 2731 4750 3128 4425 
Q 3525 4100 3525 3541 
Q 3525 3141 3298 2862 
Q 3072 2584 2669 2484 
Q 3125 2378 3379 2068 
Q 3634 1759 3634 1313 
Q 3634 634 3220 271 
Q 2806 -91 2034 -91 
Q 1263 -91 848 271 
Q 434 634 434 1313 
Q 434 1759 690 2068 
Q 947 2378 1403 2484 
z
M 1172 3481 
Q 1172 3119 1398 2916 
Q 1625 2713 2034 2713 
Q 2441 2713 2670 2916 
Q 2900 3119 2900 3481 
Q 2900 3844 2670 4047 
Q 2441 4250 2034 4250 
Q 1625 4250 1398 4047 
Q 1172 3844 1172 3481 
z
" transform="scale(0.015625)"/>
      <path id="DejaVuSans-36" d="M 2113 2584 
Q 1688 2584 1439 2293 
Q 1191 2003 1191 1497 
Q 1191 994 1439 701 
Q 1688 409 2113 409 
Q 2538 409 2786 701 
Q 3034 994 3034 1497 
Q 3034 2003 2786 2293 
Q 2538 2584 2113 2584 
z
M 3366 4563 
L 3366 3988 
Q 3128 4100 2886 4159 
Q 2644 4219 2406 4219 
Q 1781 4219 1451 3797 
Q 1122 3375 1075 2522 
Q 1259 2794 1537 2939 
Q 1816 3084 2150 3084 
Q 2853 3084 3261 2657 
Q 3669 2231 3669 1497 
Q 3669 778 3244 343 
Q 2819 -91 2113 -91 
Q 1303 -91 875 529 
Q 447 1150 447 2328 
Q 447 3434 972 4092 
Q 1497 4750 2381 4750 
Q 2619 4750 2861 4703 
Q 3103 4656 3366 4563 
z
" transform="scale(0.015625)"/>
      <path id="DejaVuSans-202f" transform="scale(0.015625)"/>
      <path id="DejaVuSans-6d" d="M 3328 2828 
Q 3544 3216 3844 3400 
Q 4144 3584 4550 3584 
Q 5097 3584 5394 3201 
Q 5691 2819 5691 2113 
L 5691 0 
L 5113 0 
L 5113 2094 
Q 5113 2597 4934 2840 
Q 4756 3084 4391 3084 
Q 3944 3084 3684 2787 
Q 3425 2491 3425 1978 
L 3425 0 
L 2847 0 
L 2847 2094 
Q 2847 2600 2669 2842 
Q 2491 3084 2119 3084 
Q 1678 3084 1418 2786 
Q 1159 2488 1159 1978 
L 1159 0 
L 581 0 
L 581 3500 
L 1159 3500 
L 1159 2956 
Q 1356 3278 1631 3431 
Q 1906 3584 2284 3584 
Q 2666 3584 2933 3390 
Q 3200 3197 3328 2828 
z
" transform="scale(0.015625)"/>
     </defs>
     <use xlink:href="#DejaVuSans-34"/>
     <use xlink:href="#DejaVuSans-2c" x="63.623047"/>
     <use xlink:href="#DejaVuSans-31" x="95.410156"/>
     <use xlink:href="#DejaVuSans-38" x="159.033203"/>
     <use xlink:href="#DejaVuSans-36" x="222.65625"/>
     <use xlink:href="#DejaVuSans-202f" x="286.279297"/>
     <use xlink:href="#DejaVuSans-6d" x="306.25"/>
    </g>
    <!-- skiable -->
    <g style="fill: #95a5a6" transform="translate(240.863632 49.24343) scale(0.1 -0.1)">
     <defs>
      <path id="DejaVuSans-6b" d="M 581 4863 
L 1159 4863 
L 1159 1991 
L 2875 3500 
L 3609 3500 
L 1753 1863 
L 3688 0 
L 2938 0 
L 1159 1709 
L 1159 0 
L 581 0 
L 581 4863 
z
" transform="scale(0.015625)"/>
      <path id="DejaVuSans-61" d="M 2194 1759 
Q 1497 1759 1228 1600 
Q 959 1441 959 1056 
Q 959 750 1161 570 
Q 1363 391 1709 391 
Q 2188 391 2477 730 
Q 2766 1069 2766 1631 
L 2766 1759 
L 2194 1759 
z
M 3341 1997 
L 3341 0 
L 2766 0 
L 2766 531 
Q 2569 213 2275 61 
Q 1981 -91 1556 -91 
Q 1019 -91 701 211 
Q 384 513 384 1019 
Q 384 1609 779 1909 
Q 1175 2209 1959 2209 
L 2766 2209 
L 2766 2266 
Q 2766 2663 2505 2880 
Q 2244 3097 1772 3097 
Q 1472 3097 1187 3025 
Q 903 2953 641 2809 
L 641 3341 
Q 956 3463 1253 3523 
Q 1550 3584 1831 3584 
Q 2591 3584 2966 3190 
Q 3341 2797 3341 1997 
z
" transform="scale(0.015625)"/>
      <path id="DejaVuSans-62" d="M 3116 1747 
Q 3116 2381 2855 2742 
Q 2594 3103 2138 3103 
Q 1681 3103 1420 2742 
Q 1159 2381 1159 1747 
Q 1159 1113 1420 752 
Q 1681 391 2138 391 
Q 2594 391 2855 752 
Q 3116 1113 3116 1747 
z
M 1159 2969 
Q 1341 3281 1617 3432 
Q 1894 3584 2278 3584 
Q 2916 3584 3314 3078 
Q 3713 2572 3713 1747 
Q 3713 922 3314 415 
Q 2916 -91 2278 -91 
Q 1894 -91 1617 61 
Q 1341 213 1159 525 
L 1159 0 
L 581 0 
L 581 4863 
L 1159 4863 
L 1159 2969 
z
" transform="scale(0.015625)"/>
      <path id="DejaVuSans-65" d="M 3597 1894 
L 3597 1613 
L 953 1613 
Q 991 1019 1311 708 
Q 1631 397 2203 397 
Q 2534 397 2845 478 
Q 3156 559 3463 722 
L 3463 178 
Q 3153 47 2828 -22 
Q 2503 -91 2169 -91 
Q 1331 -91 842 396 
Q 353 884 353 1716 
Q 353 2575 817 3079 
Q 1281 3584 2069 3584 
Q 2775 3584 3186 3129 
Q 3597 2675 3597 1894 
z
M 3022 2063 
Q 3016 2534 2758 2815 
Q 2500 3097 2075 3097 
Q 1594 3097 1305 2825 
Q 1016 2553 972 2059 
L 3022 2063 
z
" transform="scale(0.015625)"/>
     </defs>
     <use xlink:href="#DejaVuSans-73"/>
     <use xlink:href="#DejaVuSans-6b" x="52.099609"/>
     <use xlink:href="#DejaVuSans-69" x="110.009766"/>
     <use xlink:href="#DejaVuSans-61" x="137.792969"/>
     <use xlink:href="#DejaVuSans-62" x="199.072266"/>
     <use xlink:href="#DejaVuSans-6c" x="262.548828"/>
     <use xlink:href="#DejaVuSans-65" x="290.332031"/>
    </g>
    <!-- vert -->
    <g style="fill: #95a5a6" transform="translate(255.946445 60.441243) scale(0.1 -0.1)">
     <defs>
      <path id="DejaVuSans-76" d="M 191 3500 
L 800 3500 
L 1894 563 
L 2988 3500 
L 3597 3500 
L 2284 0 
L 1503 0 
L 191 3500 
z
" transform="scale(0.015625)"/>
     </defs>
     <use xlink:href="#DejaVuSans-76"/>
     <use xlink:href="#DejaVuSans-65" x="59.179688"/>
     <use xlink:href="#DejaVuSans-72" x="120.703125"/>
     <use xlink:href="#DejaVuSans-74" x="161.816406"/>
    </g>
   </g>
   <g id="text_7">
    <!-- affinity: -->
    <g style="fill: #95a5a6" transform="translate(28.29293 253.728507) scale(0.1 -0.1)">
     <defs>
      <path id="DejaVuSans-79" d="M 2059 -325 
Q 1816 -950 1584 -1140 
Q 1353 -1331 966 -1331 
L 506 -1331 
L 506 -850 
L 844 -850 
Q 1081 -850 1212 -737 
Q 1344 -625 1503 -206 
L 1606 56 
L 191 3500 
L 800 3500 
L 1894 763 
L 2988 3500 
L 3597 3500 
L 2059 -325 
z
" transform="scale(0.015625)"/>
      <path id="DejaVuSans-3a" d="M 750 794 
L 1409 794 
L 1409 0 
L 750 0 
L 750 794 
z
M 750 3309 
L 1409 3309 
L 1409 2516 
L 750 2516 
L 750 3309 
z
" transform="scale(0.015625)"/>
     </defs>
     <use xlink:href="#DejaVuSans-61"/>
     <use xlink:href="#DejaVuSans-66" x="61.279297"/>
     <use xlink:href="#DejaVuSans-66" x="96.484375"/>
     <use xlink:href="#DejaVuSans-69" x="131.689453"/>
     <use xlink:href="#DejaVuSans-6e" x="159.472656"/>
     <use xlink:href="#DejaVuSans-69" x="222.851562"/>
     <use xlink:href="#DejaVuSans-74" x="250.634766"/>
     <use xlink:href="#DejaVuSans-79" x="289.84375"/>
     <use xlink:href="#DejaVuSans-3a" x="341.773438"/>
    </g>
    <!-- 58% poleward -->
    <g style="fill: #95a5a6" transform="translate(28.29293 264.92632) scale(0.1 -0.1)">
     <defs>
      <path id="DejaVuSans-35" d="M 691 4666 
L 3169 4666 
L 3169 4134 
L 1269 4134 
L 1269 2991 
Q 1406 3038 1543 3061 
Q 1681 3084 1819 3084 
Q 2600 3084 3056 2656 
Q 3513 2228 3513 1497 
Q 3513 744 3044 326 
Q 2575 -91 1722 -91 
Q 1428 -91 1123 -41 
Q 819 9 494 109 
L 494 744 
Q 775 591 1075 516 
Q 1375 441 1709 441 
Q 2250 441 2565 725 
Q 2881 1009 2881 1497 
Q 2881 1984 2565 2268 
Q 2250 2553 1709 2553 
Q 1456 2553 1204 2497 
Q 953 2441 691 2322 
L 691 4666 
z
" transform="scale(0.015625)"/>
      <path id="DejaVuSans-25" d="M 4653 2053 
Q 4381 2053 4226 1822 
Q 4072 1591 4072 1178 
Q 4072 772 4226 539 
Q 4381 306 4653 306 
Q 4919 306 5073 539 
Q 5228 772 5228 1178 
Q 5228 1588 5073 1820 
Q 4919 2053 4653 2053 
z
M 4653 2450 
Q 5147 2450 5437 2106 
Q 5728 1763 5728 1178 
Q 5728 594 5436 251 
Q 5144 -91 4653 -91 
Q 4153 -91 3862 251 
Q 3572 594 3572 1178 
Q 3572 1766 3864 2108 
Q 4156 2450 4653 2450 
z
M 1428 4353 
Q 1159 4353 1004 4120 
Q 850 3888 850 3481 
Q 850 3069 1003 2837 
Q 1156 2606 1428 2606 
Q 1700 2606 1854 2837 
Q 2009 3069 2009 3481 
Q 2009 3884 1853 4118 
Q 1697 4353 1428 4353 
z
M 4250 4750 
L 4750 4750 
L 1831 -91 
L 1331 -91 
L 4250 4750 
z
M 1428 4750 
Q 1922 4750 2215 4408 
Q 2509 4066 2509 3481 
Q 2509 2891 2217 2550 
Q 1925 2209 1428 2209 
Q 931 2209 642 2551 
Q 353 2894 353 3481 
Q 353 4063 643 4406 
Q 934 4750 1428 4750 
z
" transform="scale(0.015625)"/>
      <path id="DejaVuSans-70" d="M 1159 525 
L 1159 -1331 
L 581 -1331 
L 581 3500 
L 1159 3500 
L 1159 2969 
Q 1341 3281 1617 3432 
Q 1894 3584 2278 3584 
Q 2916 3584 3314 3078 
Q 3713 2572 3713 1747 
Q 3713 922 3314 415 
Q 2916 -91 2278 -91 
Q 1894 -91 1617 61 
Q 1341 213 1159 525 
z
M 3116 1747 
Q 3116 2381 2855 2742 
Q 2594 3103 2138 3103 
Q 1681 3103 1420 2742 
Q 1159 2381 1159 1747 
Q 1159 1113 1420 752 
Q 1681 391 2138 391 
Q 2594 391 2855 752 
Q 3116 1113 3116 1747 
z
" transform="scale(0.015625)"/>
      <path id="DejaVuSans-6f" d="M 1959 3097 
Q 1497 3097 1228 2736 
Q 959 2375 959 1747 
Q 959 1119 1226 758 
Q 1494 397 1959 397 
Q 2419 397 2687 759 
Q 2956 1122 2956 1747 
Q 2956 2369 2687 2733 
Q 2419 3097 1959 3097 
z
M 1959 3584 
Q 2709 3584 3137 3096 
Q 3566 2609 3566 1747 
Q 3566 888 3137 398 
Q 2709 -91 1959 -91 
Q 1206 -91 779 398 
Q 353 888 353 1747 
Q 353 2609 779 3096 
Q 1206 3584 1959 3584 
z
" transform="scale(0.015625)"/>
      <path id="DejaVuSans-77" d="M 269 3500 
L 844 3500 
L 1563 769 
L 2278 3500 
L 2956 3500 
L 3675 769 
L 4391 3500 
L 4966 3500 
L 4050 0 
L 3372 0 
L 2619 2869 
L 1863 0 
L 1184 0 
L 269 3500 
z
" transform="scale(0.015625)"/>
      <path id="DejaVuSans-64" d="M 2906 2969 
L 2906 4863 
L 3481 4863 
L 3481 0 
L 2906 0 
L 2906 525 
Q 2725 213 2448 61 
Q 2172 -91 1784 -91 
Q 1150 -91 751 415 
Q 353 922 353 1747 
Q 353 2572 751 3078 
Q 1150 3584 1784 3584 
Q 2172 3584 2448 3432 
Q 2725 3281 2906 2969 
z
M 947 1747 
Q 947 1113 1208 752 
Q 1469 391 1925 391 
Q 2381 391 2643 752 
Q 2906 1113 2906 1747 
Q 2906 2381 2643 2742 
Q 2381 3103 1925 3103 
Q 1469 3103 1208 2742 
Q 947 2381 947 1747 
z
" transform="scale(0.015625)"/>
     </defs>
     <use xlink:href="#DejaVuSans-35"/>
     <use xlink:href="#DejaVuSans-38" x="63.623047"/>
     <use xlink:href="#DejaVuSans-25" x="127.246094"/>
     <use xlink:href="#DejaVuSans-20" x="222.265625"/>
     <use xlink:href="#DejaVuSans-70" x="254.052734"/>
     <use xlink:href="#DejaVuSans-6f" x="317.529297"/>
     <use xlink:href="#DejaVuSans-6c" x="378.710938"/>
     <use xlink:href="#DejaVuSans-65" x="406.494141"/>
     <use xlink:href="#DejaVuSans-77" x="468.017578"/>
     <use xlink:href="#DejaVuSans-61" x="549.804688"/>
     <use xlink:href="#DejaVuSans-72" x="611.083984"/>
     <use xlink:href="#DejaVuSans-64" x="650.447266"/>
    </g>
    <!-- -20% eastward -->
    <g style="fill: #95a5a6" transform="translate(28.29293 276.124132) scale(0.1 -0.1)">
     <defs>
      <path id="DejaVuSans-2d" d="M 313 2009 
L 1997 2009 
L 1997 1497 
L 313 1497 
L 313 2009 
z
" transform="scale(0.015625)"/>
      <path id="DejaVuSans-32" d="M 1228 531 
L 3431 531 
L 3431 0 
L 469 0 
L 469 531 
Q 828 903 1448 1529 
Q 2069 2156 2228 2338 
Q 2531 2678 2651 2914 
Q 2772 3150 2772 3378 
Q 2772 3750 2511 3984 
Q 2250 4219 1831 4219 
Q 1534 4219 1204 4116 
Q 875 4013 500 3803 
L 500 4441 
Q 881 4594 1212 4672 
Q 1544 4750 1819 4750 
Q 2544 4750 2975 4387 
Q 3406 4025 3406 3419 
Q 3406 3131 3298 2873 
Q 3191 2616 2906 2266 
Q 2828 2175 2409 1742 
Q 1991 1309 1228 531 
z
" transform="scale(0.015625)"/>
     </defs>
     <use xlink:href="#DejaVuSans-2d"/>
     <use xlink:href="#DejaVuSans-32" x="36.083984"/>
     <use xlink:href="#DejaVuSans-30" x="99.707031"/>
     <use xlink:href="#DejaVuSans-25" x="163.330078"/>
     <use xlink:href="#DejaVuSans-20" x="258.349609"/>
     <use xlink:href="#DejaVuSans-65" x="290.136719"/>
     <use xlink:href="#DejaVuSans-61" x="351.660156"/>
     <use xlink:href="#DejaVuSans-73" x="412.939453"/>
     <use xlink:href="#DejaVuSans-74" x="465.039062"/>
     <use xlink:href="#DejaVuSans-77" x="504.248047"/>
     <use xlink:href="#DejaVuSans-61" x="586.035156"/>
     <use xlink:href="#DejaVuSans-72" x="647.314453"/>
     <use xlink:href="#DejaVuSans-64" x="686.677734"/>
    </g>
   </g>
   <g id="text_8">
    <!-- elevation: -->
    <g style="fill: #95a5a6" transform="translate(226.394882 253.728507) scale(0.1 -0.1)">
     <use xlink:href="#DejaVuSans-65"/>
     <use xlink:href="#DejaVuSans-6c" x="61.523438"/>
     <use xlink:href="#DejaVuSans-65" x="89.306641"/>
     <use xlink:href="#DejaVuSans-76" x="150.830078"/>
     <use xlink:href="#DejaVuSans-61" x="210.009766"/>
     <use xlink:href="#DejaVuSans-74" x="271.289062"/>
     <use xlink:href="#DejaVuSans-69" x="310.498047"/>
     <use xlink:href="#DejaVuSans-6f" x="338.28125"/>
     <use xlink:href="#DejaVuSans-6e" x="399.462891"/>
     <use xlink:href="#DejaVuSans-3a" x="462.841797"/>
    </g>
    <!-- 802 m base -->
    <g style="fill: #95a5a6" transform="translate(218.207382 264.92632) scale(0.1 -0.1)">
     <use xlink:href="#DejaVuSans-38"/>
     <use xlink:href="#DejaVuSans-30" x="63.623047"/>
     <use xlink:href="#DejaVuSans-32" x="127.246094"/>
     <use xlink:href="#DejaVuSans-202f" x="190.869141"/>
     <use xlink:href="#DejaVuSans-6d" x="210.839844"/>
     <use xlink:href="#DejaVuSans-20" x="308.251953"/>
     <use xlink:href="#DejaVuSans-62" x="340.039062"/>
     <use xlink:href="#DejaVuSans-61" x="403.515625"/>
     <use xlink:href="#DejaVuSans-73" x="464.794922"/>
     <use xlink:href="#DejaVuSans-65" x="516.894531"/>
    </g>
    <!-- 1,769 m peak -->
    <g style="fill: #95a5a6" transform="translate(208.085507 276.124132) scale(0.1 -0.1)">
     <defs>
      <path id="DejaVuSans-37" d="M 525 4666 
L 3525 4666 
L 3525 4397 
L 1831 0 
L 1172 0 
L 2766 4134 
L 525 4134 
L 525 4666 
z
" transform="scale(0.015625)"/>
      <path id="DejaVuSans-39" d="M 703 97 
L 703 672 
Q 941 559 1184 500 
Q 1428 441 1663 441 
Q 2288 441 2617 861 
Q 2947 1281 2994 2138 
Q 2813 1869 2534 1725 
Q 2256 1581 1919 1581 
Q 1219 1581 811 2004 
Q 403 2428 403 3163 
Q 403 3881 828 4315 
Q 1253 4750 1959 4750 
Q 2769 4750 3195 4129 
Q 3622 3509 3622 2328 
Q 3622 1225 3098 567 
Q 2575 -91 1691 -91 
Q 1453 -91 1209 -44 
Q 966 3 703 97 
z
M 1959 2075 
Q 2384 2075 2632 2365 
Q 2881 2656 2881 3163 
Q 2881 3666 2632 3958 
Q 2384 4250 1959 4250 
Q 1534 4250 1286 3958 
Q 1038 3666 1038 3163 
Q 1038 2656 1286 2365 
Q 1534 2075 1959 2075 
z
" transform="scale(0.015625)"/>
     </defs>
     <use xlink:href="#DejaVuSans-31"/>
     <use xlink:href="#DejaVuSans-2c" x="63.623047"/>
     <use xlink:href="#DejaVuSans-37" x="95.410156"/>
     <use xlink:href="#DejaVuSans-36" x="159.033203"/>
     <use xlink:href="#DejaVuSans-39" x="222.65625"/>
     <use xlink:href="#DejaVuSans-202f" x="286.279297"/>
     <use xlink:href="#DejaVuSans-6d" x="306.25"/>
     <use xlink:href="#DejaVuSans-20" x="403.662109"/>
     <use xlink:href="#DejaVuSans-70" x="435.449219"/>
     <use xlink:href="#DejaVuSans-65" x="498.925781"/>
     <use xlink:href="#DejaVuSans-61" x="560.449219"/>
     <use xlink:href="#DejaVuSans-6b" x="621.728516"/>
    </g>
   </g>
   <g id="text_9">
    <!-- Skigebiet Stuhleck - Semmering -->
    <g transform="translate(7.2 19.3575) scale(0.16 -0.16)">
     <defs>
      <path id="DejaVuSans-Bold-6b" d="M 538 4863 
L 1656 4863 
L 1656 2216 
L 2944 3500 
L 4244 3500 
L 2534 1894 
L 4378 0 
L 3022 0 
L 1656 1459 
L 1656 0 
L 538 0 
L 538 4863 
z
" transform="scale(0.015625)"/>
      <path id="DejaVuSans-Bold-69" d="M 538 3500 
L 1656 3500 
L 1656 0 
L 538 0 
L 538 3500 
z
M 538 4863 
L 1656 4863 
L 1656 3950 
L 538 3950 
L 538 4863 
z
" transform="scale(0.015625)"/>
      <path id="DejaVuSans-Bold-67" d="M 2919 594 
Q 2688 288 2409 144 
Q 2131 0 1766 0 
Q 1125 0 706 504 
Q 288 1009 288 1791 
Q 288 2575 706 3076 
Q 1125 3578 1766 3578 
Q 2131 3578 2409 3434 
Q 2688 3291 2919 2981 
L 2919 3500 
L 4044 3500 
L 4044 353 
Q 4044 -491 3511 -936 
Q 2978 -1381 1966 -1381 
Q 1638 -1381 1331 -1331 
Q 1025 -1281 716 -1178 
L 716 -306 
Q 1009 -475 1290 -558 
Q 1572 -641 1856 -641 
Q 2406 -641 2662 -400 
Q 2919 -159 2919 353 
L 2919 594 
z
M 2181 2772 
Q 1834 2772 1640 2515 
Q 1447 2259 1447 1791 
Q 1447 1309 1634 1061 
Q 1822 813 2181 813 
Q 2531 813 2725 1069 
Q 2919 1325 2919 1791 
Q 2919 2259 2725 2515 
Q 2531 2772 2181 2772 
z
" transform="scale(0.015625)"/>
      <path id="DejaVuSans-Bold-65" d="M 4031 1759 
L 4031 1441 
L 1416 1441 
Q 1456 1047 1700 850 
Q 1944 653 2381 653 
Q 2734 653 3104 758 
Q 3475 863 3866 1075 
L 3866 213 
Q 3469 63 3072 -14 
Q 2675 -91 2278 -91 
Q 1328 -91 801 392 
Q 275 875 275 1747 
Q 275 2603 792 3093 
Q 1309 3584 2216 3584 
Q 3041 3584 3536 3087 
Q 4031 2591 4031 1759 
z
M 2881 2131 
Q 2881 2450 2695 2645 
Q 2509 2841 2209 2841 
Q 1884 2841 1681 2658 
Q 1478 2475 1428 2131 
L 2881 2131 
z
" transform="scale(0.015625)"/>
      <path id="DejaVuSans-Bold-62" d="M 2400 722 
Q 2759 722 2948 984 
Q 3138 1247 3138 1747 
Q 3138 2247 2948 2509 
Q 2759 2772 2400 2772 
Q 2041 2772 1848 2508 
Q 1656 2244 1656 1747 
Q 1656 1250 1848 986 
Q 2041 722 2400 722 
z
M 1656 2988 
Q 1888 3294 2169 3439 
Q 2450 3584 2816 3584 
Q 3463 3584 3878 3070 
Q 4294 2556 4294 1747 
Q 4294 938 3878 423 
Q 3463 -91 2816 -91 
Q 2450 -91 2169 54 
Q 1888 200 1656 506 
L 1656 0 
L 538 0 
L 538 4863 
L 1656 4863 
L 1656 2988 
z
" transform="scale(0.015625)"/>
      <path id="DejaVuSans-Bold-74" d="M 1759 4494 
L 1759 3500 
L 2913 3500 
L 2913 2700 
L 1759 2700 
L 1759 1216 
Q 1759 972 1856 886 
Q 1953 800 2241 800 
L 2816 800 
L 2816 0 
L 1856 0 
Q 1194 0 917 276 
Q 641 553 641 1216 
L 641 2700 
L 84 2700 
L 84 3500 
L 641 3500 
L 641 4494 
L 1759 4494 
z
" transform="scale(0.015625)"/>
      <path id="DejaVuSans-Bold-20" transform="scale(0.015625)"/>
      <path id="DejaVuSans-Bold-75" d="M 500 1363 
L 500 3500 
L 1625 3500 
L 1625 3150 
Q 1625 2866 1622 2436 
Q 1619 2006 1619 1863 
Q 1619 1441 1641 1255 
Q 1663 1069 1716 984 
Q 1784 875 1895 815 
Q 2006 756 2150 756 
Q 2500 756 2700 1025 
Q 2900 1294 2900 1772 
L 2900 3500 
L 4019 3500 
L 4019 0 
L 2900 0 
L 2900 506 
Q 2647 200 2364 54 
Q 2081 -91 1741 -91 
Q 1134 -91 817 281 
Q 500 653 500 1363 
z
" transform="scale(0.015625)"/>
      <path id="DejaVuSans-Bold-68" d="M 4056 2131 
L 4056 0 
L 2931 0 
L 2931 347 
L 2931 1625 
Q 2931 2084 2911 2256 
Q 2891 2428 2841 2509 
Q 2775 2619 2662 2680 
Q 2550 2741 2406 2741 
Q 2056 2741 1856 2470 
Q 1656 2200 1656 1722 
L 1656 0 
L 538 0 
L 538 4863 
L 1656 4863 
L 1656 2988 
Q 1909 3294 2193 3439 
Q 2478 3584 2822 3584 
Q 3428 3584 3742 3212 
Q 4056 2841 4056 2131 
z
" transform="scale(0.015625)"/>
      <path id="DejaVuSans-Bold-6c" d="M 538 4863 
L 1656 4863 
L 1656 0 
L 538 0 
L 538 4863 
z
" transform="scale(0.015625)"/>
      <path id="DejaVuSans-Bold-63" d="M 3366 3391 
L 3366 2478 
Q 3138 2634 2908 2709 
Q 2678 2784 2431 2784 
Q 1963 2784 1702 2511 
Q 1441 2238 1441 1747 
Q 1441 1256 1702 982 
Q 1963 709 2431 709 
Q 2694 709 2930 787 
Q 3166 866 3366 1019 
L 3366 103 
Q 3103 6 2833 -42 
Q 2563 -91 2291 -91 
Q 1344 -91 809 395 
Q 275 881 275 1747 
Q 275 2613 809 3098 
Q 1344 3584 2291 3584 
Q 2566 3584 2833 3536 
Q 3100 3488 3366 3391 
z
" transform="scale(0.015625)"/>
      <path id="DejaVuSans-Bold-2d" d="M 347 2297 
L 2309 2297 
L 2309 1388 
L 347 1388 
L 347 2297 
z
" transform="scale(0.015625)"/>
      <path id="DejaVuSans-Bold-6d" d="M 3781 2919 
Q 3994 3244 4286 3414 
Q 4578 3584 4928 3584 
Q 5531 3584 5847 3212 
Q 6163 2841 6163 2131 
L 6163 0 
L 5038 0 
L 5038 1825 
Q 5041 1866 5042 1909 
Q 5044 1953 5044 2034 
Q 5044 2406 4934 2573 
Q 4825 2741 4581 2741 
Q 4263 2741 4089 2478 
Q 3916 2216 3909 1719 
L 3909 0 
L 2784 0 
L 2784 1825 
Q 2784 2406 2684 2573 
Q 2584 2741 2328 2741 
Q 2006 2741 1831 2477 
Q 1656 2213 1656 1722 
L 1656 0 
L 531 0 
L 531 3500 
L 1656 3500 
L 1656 2988 
Q 1863 3284 2130 3434 
Q 2397 3584 2719 3584 
Q 3081 3584 3359 3409 
Q 3638 3234 3781 2919 
z
" transform="scale(0.015625)"/>
      <path id="DejaVuSans-Bold-72" d="M 3138 2547 
Q 2991 2616 2845 2648 
Q 2700 2681 2553 2681 
Q 2122 2681 1889 2404 
Q 1656 2128 1656 1613 
L 1656 0 
L 538 0 
L 538 3500 
L 1656 3500 
L 1656 2925 
Q 1872 3269 2151 3426 
Q 2431 3584 2822 3584 
Q 2878 3584 2943 3579 
Q 3009 3575 3134 3559 
L 3138 2547 
z
" transform="scale(0.015625)"/>
      <path id="DejaVuSans-Bold-6e" d="M 4056 2131 
L 4056 0 
L 2931 0 
L 2931 347 
L 2931 1631 
Q 2931 2084 2911 2256 
Q 2891 2428 2841 2509 
Q 2775 2619 2662 2680 
Q 2550 2741 2406 2741 
Q 2056 2741 1856 2470 
Q 1656 2200 1656 1722 
L 1656 0 
L 538 0 
L 538 3500 
L 1656 3500 
L 1656 2988 
Q 1909 3294 2193 3439 
Q 2478 3584 2822 3584 
Q 3428 3584 3742 3212 
Q 4056 2841 4056 2131 
z
" transform="scale(0.015625)"/>
     </defs>
     <use xlink:href="#DejaVuSans-Bold-53"/>
     <use xlink:href="#DejaVuSans-Bold-6b" x="72.021484"/>
     <use xlink:href="#DejaVuSans-Bold-69" x="138.525391"/>
     <use xlink:href="#DejaVuSans-Bold-67" x="172.802734"/>
     <use xlink:href="#DejaVuSans-Bold-65" x="244.384766"/>
     <use xlink:href="#DejaVuSans-Bold-62" x="312.207031"/>
     <use xlink:href="#DejaVuSans-Bold-69" x="383.789062"/>
     <use xlink:href="#DejaVuSans-Bold-65" x="418.066406"/>
     <use xlink:href="#DejaVuSans-Bold-74" x="485.888672"/>
     <use xlink:href="#DejaVuSans-Bold-20" x="533.691406"/>
     <use xlink:href="#DejaVuSans-Bold-53" x="568.505859"/>
     <use xlink:href="#DejaVuSans-Bold-74" x="640.527344"/>
     <use xlink:href="#DejaVuSans-Bold-75" x="688.330078"/>
     <use xlink:href="#DejaVuSans-Bold-68" x="759.521484"/>
     <use xlink:href="#DejaVuSans-Bold-6c" x="830.712891"/>
     <use xlink:href="#DejaVuSans-Bold-65" x="864.990234"/>
     <use xlink:href="#DejaVuSans-Bold-63" x="932.8125"/>
     <use xlink:href="#DejaVuSans-Bold-6b" x="992.089844"/>
     <use xlink:href="#DejaVuSans-Bold-20" x="1058.59375"/>
     <use xlink:href="#DejaVuSans-Bold-2d" x="1093.408203"/>
     <use xlink:href="#DejaVuSans-Bold-20" x="1134.912109"/>
     <use xlink:href="#DejaVuSans-Bold-53" x="1169.726562"/>
     <use xlink:href="#DejaVuSans-Bold-65" x="1241.748047"/>
     <use xlink:href="#DejaVuSans-Bold-6d" x="1309.570312"/>
     <use xlink:href="#DejaVuSans-Bold-6d" x="1413.769531"/>
     <use xlink:href="#DejaVuSans-Bold-65" x="1517.96875"/>
     <use xlink:href="#DejaVuSans-Bold-72" x="1585.791016"/>
     <use xlink:href="#DejaVuSans-Bold-69" x="1635.107422"/>
     <use xlink:href="#DejaVuSans-Bold-6e" x="1669.384766"/>
     <use xlink:href="#DejaVuSans-Bold-67" x="1740.576172"/>
    </g>
   </g>
  </g>
 </g>
 <defs>
  <clipPath id="p760d4ca930">
   <path d="M 263.05125 154.3255 
C 263.05125 139.764872 260.183124 125.345827 254.611013 111.893561 
C 249.038901 98.441295 240.871169 86.217419 230.57525 75.9215 
C 220.279331 65.625581 208.055455 57.457849 194.603189 51.885737 
C 181.150923 46.313626 166.731878 43.4455 152.17125 43.4455 
C 137.610622 43.4455 123.191577 46.313626 109.739311 51.885737 
C 96.287045 57.457849 84.063169 65.625581 73.76725 75.9215 
C 63.471331 86.217419 55.303599 98.441295 49.731487 111.893561 
C 44.159376 125.345827 41.29125 139.764872 41.29125 154.3255 
C 41.29125 168.886128 44.159376 183.305173 49.731487 196.757439 
C 55.303599 210.209705 63.471331 222.433581 73.76725 232.7295 
C 84.063169 243.025419 96.287045 251.193151 109.739311 256.765263 
C 123.191577 262.337374 137.610622 265.2055 152.17125 265.2055 
C 166.731878 265.2055 181.150923 262.337374 194.603189 256.765263 
C 208.055455 251.193151 220.279331 243.025419 230.57525 232.7295 
C 240.871169 222.433581 249.038901 210.209705 254.611013 196.757439 
C 260.183124 183.305173 263.05125 168.886128 263.05125 154.3255 
M 152.17125 154.3255 
C 152.17125 154.3255 152.17125 154.3255 152.17125 154.3255 
C 152.17125 154.3255 152.17125 154.3255 152.17125 154.3255 
C 152.17125 154.3255 152.17125 154.3255 152.17125 154.3255 
C 152.17125 154.3255 152.17125 154.3255 152.17125 154.3255 
C 152.17125 154.3255 152.17125 154.3255 152.17125 154.3255 
C 152.17125 154.3255 152.17125 154.3255 152.17125 154.3255 
C 152.17125 154.3255 152.17125 154.3255 152.17125 154.3255 
C 152.17125 154.3255 152.17125 154.3255 152.17125 154.3255 
C 152.17125 154.3255 152.17125 154.3255 152.17125 154.3255 
C 152.17125 154.3255 152.17125 154.3255 152.17125 154.3255 
C 152.17125 154.3255 152.17125 154.3255 152.17125 154.3255 
C 152.17125 154.3255 152.17125 154.3255 152.17125 154.3255 
C 152.17125 154.3255 152.17125 154.3255 152.17125 154.3255 
C 152.17125 154.3255 152.17125 154.3255 152.17125 154.3255 
C 152.17125 154.3255 152.17125 154.3255 152.17125 154.3255 
C 152.17125 154.3255 152.17125 154.3255 152.17125 154.3255 
z
"/>
  </clipPath>
 </defs>
</svg>
