<?xml version="1.0" encoding="utf-8" standalone="no"?>
<!DOCTYPE svg PUBLIC "-//W3C//DTD SVG 1.1//EN"
  "http://www.w3.org/Graphics/SVG/1.1/DTD/svg11.dtd">
<svg xmlns:xlink="http://www.w3.org/1999/xlink" width="288.9525pt" height="287.187062pt" viewBox="0 0 288.9525 287.187062" xmlns="http://www.w3.org/2000/svg" version="1.1">
 <title>Ski Rose for 瑞穂ハイランド, Mizuho Highland</title>
 <metadata>
  <rdf:RDF xmlns:dc="http://purl.org/dc/elements/1.1/" xmlns:cc="http://creativecommons.org/ns#" xmlns:rdf="http://www.w3.org/1999/02/22-rdf-syntax-ns#">
   <cc:Work>
    <dc:type rdf:resource="http://purl.org/dc/dcmitype/StillImage"/>
    <dc:title>Ski Rose for 瑞穂ハイランド, Mizuho Highland</dc:title>
    <dc:date>2024-12-20T01:53:56.592823</dc:date>
    <dc:description>A 32-bin histogram of downhill ski trail orientations generated from &lt;https://openskimap.org/?obj=73789e9333a6272b692ee9ae2d7b8173d39e41a1&gt;.</dc:description>
    <dc:format>image/svg+xml</dc:format>
    <dc:creator>
     <cc:Agent>
      <dc:title>https://github.com/dhimmel/openskistats</dc:title>
     </cc:Agent>
    </dc:creator>
   </cc:Work>
  </rdf:RDF>
 </metadata>
 <defs>
  <style type="text/css">*{stroke-linejoin: round; stroke-linecap: butt}</style>
 </defs>
 <g id="figure_1">
  <g id="patch_1">
   <path d="M 0 287.187062 
L 288.9525 287.187062 
L 288.9525 0 
L 0 0 
z
" style="fill: #ffffff"/>
  </g>
  <g id="axes_1">
   <g id="patch_2">
    <path d="M 255.35625 155.768 
C 255.35625 141.207372 252.488124 126.788327 246.916013 113.336061 
C 241.343901 99.883795 233.176169 87.659919 222.88025 77.364 
C 212.584331 67.068081 200.360455 58.900349 186.908189 53.328237 
C 173.455923 47.756126 159.036878 44.888 144.47625 44.888 
C 129.915622 44.888 115.496577 47.756126 102.044311 53.328237 
C 88.592045 58.900349 76.368169 67.068081 66.07225 77.364 
C 55.776331 87.659919 47.608599 99.883795 42.036487 113.336061 
C 36.464376 126.788327 33.59625 141.207372 33.59625 155.768 
C 33.59625 170.328628 36.464376 184.747673 42.036487 198.199939 
C 47.608599 211.652205 55.776331 223.876081 66.07225 234.172 
C 76.368169 244.467919 88.592045 252.635651 102.044311 258.207763 
C 115.496577 263.779874 129.915622 266.648 144.47625 266.648 
C 159.036878 266.648 173.455923 263.779874 186.908189 258.207763 
C 200.360455 252.635651 212.584331 244.467919 222.88025 234.172 
C 233.176169 223.876081 241.343901 211.652205 246.916013 198.199939 
C 252.488124 184.747673 255.35625 170.328628 255.35625 155.768 
M 144.47625 155.768 
C 144.47625 155.768 144.47625 155.768 144.47625 155.768 
C 144.47625 155.768 144.47625 155.768 144.47625 155.768 
C 144.47625 155.768 144.47625 155.768 144.47625 155.768 
C 144.47625 155.768 144.47625 155.768 144.47625 155.768 
C 144.47625 155.768 144.47625 155.768 144.47625 155.768 
C 144.47625 155.768 144.47625 155.768 144.47625 155.768 
C 144.47625 155.768 144.47625 155.768 144.47625 155.768 
C 144.47625 155.768 144.47625 155.768 144.47625 155.768 
C 144.47625 155.768 144.47625 155.768 144.47625 155.768 
C 144.47625 155.768 144.47625 155.768 144.47625 155.768 
C 144.47625 155.768 144.47625 155.768 144.47625 155.768 
C 144.47625 155.768 144.47625 155.768 144.47625 155.768 
C 144.47625 155.768 144.47625 155.768 144.47625 155.768 
C 144.47625 155.768 144.47625 155.768 144.47625 155.768 
C 144.47625 155.768 144.47625 155.768 144.47625 155.768 
C 144.47625 155.768 144.47625 155.768 144.47625 155.768 
z
" style="fill: #ffffff"/>
   </g>
   <g id="matplotlib.axis_1">
    <g id="xtick_1">
     <g id="line2d_1">
      <path d="M 144.47625 155.768 
L 144.47625 44.888 
" clip-path="url(#p0c2ef4e92e)" style="fill: none; stroke: #b0b0b0; stroke-width: 0.8; stroke-linecap: square"/>
     </g>
     <g id="text_1">
      <!-- N -->
      <g transform="translate(140.291875 39.147375) scale(0.1 -0.1)">
       <defs>
        <path id="DejaVuSans-Bold-4e" d="M 588 4666 
L 1931 4666 
L 3628 1466 
L 3628 4666 
L 4769 4666 
L 4769 0 
L 3425 0 
L 1728 3200 
L 1728 0 
L 588 0 
L 588 4666 
z
" transform="scale(0.015625)"/>
       </defs>
       <use xlink:href="#DejaVuSans-Bold-4e"/>
      </g>
     </g>
    </g>
    <g id="xtick_2">
     <g id="line2d_2">
      <path d="M 144.47625 155.768 
L 222.88025 77.364 
" clip-path="url(#p0c2ef4e92e)" style="fill: none; stroke: #b0b0b0; stroke-width: 0.8; stroke-linecap: square"/>
     </g>
    </g>
    <g id="xtick_3">
     <g id="line2d_3">
      <path d="M 144.47625 155.768 
L 255.35625 155.768 
" clip-path="url(#p0c2ef4e92e)" style="fill: none; stroke: #b0b0b0; stroke-width: 0.8; stroke-linecap: square"/>
     </g>
     <g id="text_2">
      <!-- E -->
      <g transform="translate(260.440625 158.527375) scale(0.1 -0.1)">
       <defs>
        <path id="DejaVuSans-Bold-45" d="M 588 4666 
L 3834 4666 
L 3834 3756 
L 1791 3756 
L 1791 2888 
L 3713 2888 
L 3713 1978 
L 1791 1978 
L 1791 909 
L 3903 909 
L 3903 0 
L 588 0 
L 588 4666 
z
" transform="scale(0.015625)"/>
       </defs>
       <use xlink:href="#DejaVuSans-Bold-45"/>
      </g>
     </g>
    </g>
    <g id="xtick_4">
     <g id="line2d_4">
      <path d="M 144.47625 155.768 
L 222.88025 234.172 
" clip-path="url(#p0c2ef4e92e)" style="fill: none; stroke: #b0b0b0; stroke-width: 0.8; stroke-linecap: square"/>
     </g>
    </g>
    <g id="xtick_5">
     <g id="line2d_5">
      <path d="M 144.47625 155.768 
L 144.47625 266.648 
" clip-path="url(#p0c2ef4e92e)" style="fill: none; stroke: #b0b0b0; stroke-width: 0.8; stroke-linecap: square"/>
     </g>
     <g id="text_3">
      <!-- S -->
      <g transform="translate(140.875469 277.907375) scale(0.1 -0.1)">
       <defs>
        <path id="DejaVuSans-Bold-53" d="M 3834 4519 
L 3834 3531 
Q 3450 3703 3084 3790 
Q 2719 3878 2394 3878 
Q 1963 3878 1756 3759 
Q 1550 3641 1550 3391 
Q 1550 3203 1689 3098 
Q 1828 2994 2194 2919 
L 2706 2816 
Q 3484 2659 3812 2340 
Q 4141 2022 4141 1434 
Q 4141 663 3683 286 
Q 3225 -91 2284 -91 
Q 1841 -91 1394 -6 
Q 947 78 500 244 
L 500 1259 
Q 947 1022 1364 901 
Q 1781 781 2169 781 
Q 2563 781 2772 912 
Q 2981 1044 2981 1288 
Q 2981 1506 2839 1625 
Q 2697 1744 2272 1838 
L 1806 1941 
Q 1106 2091 782 2419 
Q 459 2747 459 3303 
Q 459 4000 909 4375 
Q 1359 4750 2203 4750 
Q 2588 4750 2994 4692 
Q 3400 4634 3834 4519 
z
" transform="scale(0.015625)"/>
       </defs>
       <use xlink:href="#DejaVuSans-Bold-53"/>
      </g>
     </g>
    </g>
    <g id="xtick_6">
     <g id="line2d_6">
      <path d="M 144.47625 155.768 
L 66.07225 234.172 
" clip-path="url(#p0c2ef4e92e)" style="fill: none; stroke: #b0b0b0; stroke-width: 0.8; stroke-linecap: square"/>
     </g>
    </g>
    <g id="xtick_7">
     <g id="line2d_7">
      <path d="M 144.47625 155.768 
L 33.59625 155.768 
" clip-path="url(#p0c2ef4e92e)" style="fill: none; stroke: #b0b0b0; stroke-width: 0.8; stroke-linecap: square"/>
     </g>
     <g id="text_4">
      <!-- W -->
      <g transform="translate(19.581406 158.527375) scale(0.1 -0.1)">
       <defs>
        <path id="DejaVuSans-Bold-57" d="M 191 4666 
L 1344 4666 
L 2150 1275 
L 2950 4666 
L 4109 4666 
L 4909 1275 
L 5716 4666 
L 6859 4666 
L 5759 0 
L 4372 0 
L 3525 3547 
L 2688 0 
L 1300 0 
L 191 4666 
z
" transform="scale(0.015625)"/>
       </defs>
       <use xlink:href="#DejaVuSans-Bold-57"/>
      </g>
     </g>
    </g>
    <g id="xtick_8">
     <g id="line2d_8">
      <path d="M 144.47625 155.768 
L 66.07225 77.364 
" clip-path="url(#p0c2ef4e92e)" style="fill: none; stroke: #b0b0b0; stroke-width: 0.8; stroke-linecap: square"/>
     </g>
    </g>
   </g>
   <g id="matplotlib.axis_2"/>
   <g id="patch_3">
    <path d="M 144.47625 155.768 
C 144.47625 155.768 144.47625 155.768 144.47625 155.768 
C 144.47625 155.768 144.47625 155.768 144.47625 155.768 
L 154.957923 49.345787 
C 151.474565 49.002706 147.976462 48.830855 144.47625 48.830855 
C 140.976038 48.830855 137.477935 49.002706 133.994577 49.345787 
z
" clip-path="url(#p0c2ef4e92e)" style="fill: #d4a0a7; stroke: #000000; stroke-width: 0.5; stroke-linejoin: miter"/>
   </g>
   <g id="patch_4">
    <path d="M 144.47625 155.768 
C 144.47625 155.768 144.47625 155.768 144.47625 155.768 
C 144.47625 155.768 144.47625 155.768 144.47625 155.768 
L 168.347738 77.074251 
C 165.771974 76.292902 163.1594 75.638486 160.519454 75.113368 
C 157.879507 74.58825 155.21537 74.193063 152.536665 73.929233 
z
" clip-path="url(#p0c2ef4e92e)" style="fill: #d4a0a7; stroke: #000000; stroke-width: 0.5; stroke-linejoin: miter"/>
   </g>
   <g id="patch_5">
    <path d="M 144.47625 155.768 
C 144.47625 155.768 144.47625 155.768 144.47625 155.768 
C 144.47625 155.768 144.47625 155.768 144.47625 155.768 
L 184.308902 81.24635 
C 181.869697 79.942568 179.36795 78.75933 176.812697 77.70091 
C 174.257445 76.64249 171.651767 75.710163 169.005076 74.907298 
z
" clip-path="url(#p0c2ef4e92e)" style="fill: #d4a0a7; stroke: #000000; stroke-width: 0.5; stroke-linejoin: miter"/>
   </g>
   <g id="patch_6">
    <path d="M 144.47625 155.768 
C 144.47625 155.768 144.47625 155.768 144.47625 155.768 
C 144.47625 155.768 144.47625 155.768 144.47625 155.768 
L 197.649806 90.975835 
C 195.529062 89.235385 193.324144 87.600106 191.043018 86.075907 
C 188.761892 84.551707 186.407306 83.140423 183.987767 81.847152 
z
" clip-path="url(#p0c2ef4e92e)" style="fill: #d4a0a7; stroke: #000000; stroke-width: 0.5; stroke-linejoin: miter"/>
   </g>
   <g id="patch_7">
    <path d="M 144.47625 155.768 
C 144.47625 155.768 144.47625 155.768 144.47625 155.768 
C 144.47625 155.768 144.47625 155.768 144.47625 155.768 
L 215.729545 97.291932 
C 213.815536 94.959705 211.788175 92.722857 209.654784 90.589466 
C 207.521393 88.456075 205.284545 86.428714 202.952318 84.514705 
z
" clip-path="url(#p0c2ef4e92e)" style="fill: #d4a0a7; stroke: #000000; stroke-width: 0.5; stroke-linejoin: miter"/>
   </g>
   <g id="patch_8">
    <path d="M 144.47625 155.768 
C 144.47625 155.768 144.47625 155.768 144.47625 155.768 
C 144.47625 155.768 144.47625 155.768 144.47625 155.768 
L 222.160313 114.245003 
C 220.801204 111.702288 219.318073 109.227833 217.716278 106.830578 
C 216.114483 104.433322 214.395955 102.116155 212.566901 99.887447 
z
" clip-path="url(#p0c2ef4e92e)" style="fill: #d4a0a7; stroke: #000000; stroke-width: 0.5; stroke-linejoin: miter"/>
   </g>
   <g id="patch_9">
    <path d="M 144.47625 155.768 
C 144.47625 155.768 144.47625 155.768 144.47625 155.768 
C 144.47625 155.768 144.47625 155.768 144.47625 155.768 
L 215.106829 134.342448 
C 214.405539 132.030604 213.591166 129.754584 212.666652 127.522611 
C 211.742138 125.290637 210.708598 123.1054 209.569765 120.974792 
z
" clip-path="url(#p0c2ef4e92e)" style="fill: #d4a0a7; stroke: #000000; stroke-width: 0.5; stroke-linejoin: miter"/>
   </g>
   <g id="patch_10">
    <path d="M 144.47625 155.768 
C 144.47625 155.768 144.47625 155.768 144.47625 155.768 
C 144.47625 155.768 144.47625 155.768 144.47625 155.768 
L 211.093399 149.206783 
C 210.878641 147.026305 210.556957 144.857684 210.129508 142.708755 
C 209.702059 140.559826 209.169362 138.433178 208.53334 136.336494 
z
" clip-path="url(#p0c2ef4e92e)" style="fill: #d4a0a7; stroke: #000000; stroke-width: 0.5; stroke-linejoin: miter"/>
   </g>
   <g id="patch_11">
    <path d="M 144.47625 155.768 
C 144.47625 155.768 144.47625 155.768 144.47625 155.768 
C 144.47625 155.768 144.47625 155.768 144.47625 155.768 
L 219.49483 163.156685 
C 219.736673 160.701215 219.857813 158.235351 219.857813 155.768 
C 219.857813 153.300649 219.736673 150.834785 219.49483 148.379315 
z
" clip-path="url(#p0c2ef4e92e)" style="fill: #d4a0a7; stroke: #000000; stroke-width: 0.5; stroke-linejoin: miter"/>
   </g>
   <g id="patch_12">
    <path d="M 144.47625 155.768 
C 144.47625 155.768 144.47625 155.768 144.47625 155.768 
C 144.47625 155.768 144.47625 155.768 144.47625 155.768 
L 212.84941 176.508771 
C 213.528286 174.270816 214.096876 172.000878 214.553125 169.707157 
C 215.009375 167.413436 215.352734 165.098698 215.581962 162.771301 
z
" clip-path="url(#p0c2ef4e92e)" style="fill: #d4a0a7; stroke: #000000; stroke-width: 0.5; stroke-linejoin: miter"/>
   </g>
   <g id="patch_13">
    <path d="M 144.47625 155.768 
C 144.47625 155.768 144.47625 155.768 144.47625 155.768 
C 144.47625 155.768 144.47625 155.768 144.47625 155.768 
L 230.248107 201.614013 
C 231.748716 198.806572 233.110582 195.927147 234.328787 192.98614 
C 235.546992 190.045132 236.620068 187.046086 237.544138 183.999835 
z
" clip-path="url(#p0c2ef4e92e)" style="fill: #d4a0a7; stroke: #000000; stroke-width: 0.5; stroke-linejoin: miter"/>
   </g>
   <g id="patch_14">
    <path d="M 144.47625 155.768 
C 144.47625 155.768 144.47625 155.768 144.47625 155.768 
C 144.47625 155.768 144.47625 155.768 144.47625 155.768 
L 230.187649 226.109527 
C 232.490032 223.304065 234.653287 220.387253 236.669601 217.369627 
C 238.685914 214.352001 240.552855 211.237199 242.26368 208.03647 
z
" clip-path="url(#p0c2ef4e92e)" style="fill: #d4a0a7; stroke: #000000; stroke-width: 0.5; stroke-linejoin: miter"/>
   </g>
   <g id="patch_15">
    <path d="M 144.47625 155.768 
C 144.47625 155.768 144.47625 155.768 144.47625 155.768 
C 144.47625 155.768 144.47625 155.768 144.47625 155.768 
L 198.540397 221.645354 
C 200.696661 219.875753 202.764743 218.001353 204.737173 216.028923 
C 206.709603 214.056493 208.584003 211.988411 210.353604 209.832147 
z
" clip-path="url(#p0c2ef4e92e)" style="fill: #d4a0a7; stroke: #000000; stroke-width: 0.5; stroke-linejoin: miter"/>
   </g>
   <g id="patch_16">
    <path d="M 144.47625 155.768 
C 144.47625 155.768 144.47625 155.768 144.47625 155.768 
C 144.47625 155.768 144.47625 155.768 144.47625 155.768 
L 190.27794 241.456935 
C 193.082667 239.957778 195.812099 238.321819 198.456377 236.554969 
C 201.100655 234.788119 203.656592 232.892507 206.114956 230.87498 
z
" clip-path="url(#p0c2ef4e92e)" style="fill: #d4a0a7; stroke: #000000; stroke-width: 0.5; stroke-linejoin: miter"/>
   </g>
   <g id="patch_17">
    <path d="M 144.47625 155.768 
C 144.47625 155.768 144.47625 155.768 144.47625 155.768 
C 144.47625 155.768 144.47625 155.768 144.47625 155.768 
L 156.13573 194.204154 
C 157.393803 193.822522 158.63238 193.379352 159.846988 192.876245 
C 161.061597 192.373138 162.250772 191.8107 163.410218 191.190963 
z
" clip-path="url(#p0c2ef4e92e)" style="fill: #d4a0a7; stroke: #000000; stroke-width: 0.5; stroke-linejoin: miter"/>
   </g>
   <g id="patch_18">
    <path d="M 144.47625 155.768 
C 144.47625 155.768 144.47625 155.768 144.47625 155.768 
C 144.47625 155.768 144.47625 155.768 144.47625 155.768 
L 147.645216 187.943048 
C 148.698353 187.839323 149.745763 187.683955 150.783662 187.477504 
C 151.821562 187.271053 152.8487 187.013768 153.861365 186.706579 
z
" clip-path="url(#p0c2ef4e92e)" style="fill: #d4a0a7; stroke: #000000; stroke-width: 0.5; stroke-linejoin: miter"/>
   </g>
   <g id="patch_19">
    <path d="M 144.47625 155.768 
C 144.47625 155.768 144.47625 155.768 144.47625 155.768 
C 144.47625 155.768 144.47625 155.768 144.47625 155.768 
L 139.617578 205.098922 
C 141.232253 205.257954 142.853763 205.337614 144.47625 205.337614 
C 146.098737 205.337614 147.720247 205.257954 149.334922 205.098922 
z
" clip-path="url(#p0c2ef4e92e)" style="fill: #d4a0a7; stroke: #000000; stroke-width: 0.5; stroke-linejoin: miter"/>
   </g>
   <g id="patch_20">
    <path d="M 144.47625 155.768 
C 144.47625 155.768 144.47625 155.768 144.47625 155.768 
C 144.47625 155.768 144.47625 155.768 144.47625 155.768 
L 133.865592 190.746652 
C 135.010495 191.093955 136.17176 191.384836 137.345193 191.618247 
C 138.518625 191.851657 139.702809 192.027314 140.893469 192.144584 
z
" clip-path="url(#p0c2ef4e92e)" style="fill: #d4a0a7; stroke: #000000; stroke-width: 0.5; stroke-linejoin: miter"/>
   </g>
   <g id="patch_21">
    <path d="M 144.47625 155.768 
C 144.47625 155.768 144.47625 155.768 144.47625 155.768 
C 144.47625 155.768 144.47625 155.768 144.47625 155.768 
L 129.221119 184.308344 
C 130.155287 184.807667 131.113407 185.260824 132.092019 185.666178 
C 133.070631 186.071533 134.068555 186.428596 135.082186 186.736077 
z
" clip-path="url(#p0c2ef4e92e)" style="fill: #d4a0a7; stroke: #000000; stroke-width: 0.5; stroke-linejoin: miter"/>
   </g>
   <g id="patch_22">
    <path d="M 144.47625 155.768 
C 144.47625 155.768 144.47625 155.768 144.47625 155.768 
C 144.47625 155.768 144.47625 155.768 144.47625 155.768 
L 138.141574 163.486825 
C 138.394223 163.694168 138.656899 163.888982 138.928655 164.070563 
C 139.20041 164.252144 139.480917 164.420273 139.769161 164.574344 
z
" clip-path="url(#p0c2ef4e92e)" style="fill: #d4a0a7; stroke: #000000; stroke-width: 0.5; stroke-linejoin: miter"/>
   </g>
   <g id="patch_23">
    <path d="M 144.47625 155.768 
C 144.47625 155.768 144.47625 155.768 144.47625 155.768 
C 144.47625 155.768 144.47625 155.768 144.47625 155.768 
L 144.47625 155.768 
C 144.47625 155.768 144.47625 155.768 144.47625 155.768 
C 144.47625 155.768 144.47625 155.768 144.47625 155.768 
z
" clip-path="url(#p0c2ef4e92e)" style="fill: #d4a0a7; stroke: #000000; stroke-width: 0.5; stroke-linejoin: miter"/>
   </g>
   <g id="patch_24">
    <path d="M 144.47625 155.768 
C 144.47625 155.768 144.47625 155.768 144.47625 155.768 
C 144.47625 155.768 144.47625 155.768 144.47625 155.768 
L 144.47625 155.768 
C 144.47625 155.768 144.47625 155.768 144.47625 155.768 
C 144.47625 155.768 144.47625 155.768 144.47625 155.768 
z
" clip-path="url(#p0c2ef4e92e)" style="fill: #d4a0a7; stroke: #000000; stroke-width: 0.5; stroke-linejoin: miter"/>
   </g>
   <g id="patch_25">
    <path d="M 144.47625 155.768 
C 144.47625 155.768 144.47625 155.768 144.47625 155.768 
C 144.47625 155.768 144.47625 155.768 144.47625 155.768 
L 144.47625 155.768 
C 144.47625 155.768 144.47625 155.768 144.47625 155.768 
C 144.47625 155.768 144.47625 155.768 144.47625 155.768 
z
" clip-path="url(#p0c2ef4e92e)" style="fill: #d4a0a7; stroke: #000000; stroke-width: 0.5; stroke-linejoin: miter"/>
   </g>
   <g id="patch_26">
    <path d="M 144.47625 155.768 
C 144.47625 155.768 144.47625 155.768 144.47625 155.768 
C 144.47625 155.768 144.47625 155.768 144.47625 155.768 
L 144.47625 155.768 
C 144.47625 155.768 144.47625 155.768 144.47625 155.768 
C 144.47625 155.768 144.47625 155.768 144.47625 155.768 
z
" clip-path="url(#p0c2ef4e92e)" style="fill: #d4a0a7; stroke: #000000; stroke-width: 0.5; stroke-linejoin: miter"/>
   </g>
   <g id="patch_27">
    <path d="M 144.47625 155.768 
C 144.47625 155.768 144.47625 155.768 144.47625 155.768 
C 144.47625 155.768 144.47625 155.768 144.47625 155.768 
L 134.538925 154.789259 
C 134.506889 155.114522 134.490842 155.441163 134.490842 155.768 
C 134.490842 156.094837 134.506889 156.421478 134.538925 156.746741 
z
" clip-path="url(#p0c2ef4e92e)" style="fill: #d4a0a7; stroke: #000000; stroke-width: 0.5; stroke-linejoin: miter"/>
   </g>
   <g id="patch_28">
    <path d="M 144.47625 155.768 
C 144.47625 155.768 144.47625 155.768 144.47625 155.768 
C 144.47625 155.768 144.47625 155.768 144.47625 155.768 
L 144.47625 155.768 
C 144.47625 155.768 144.47625 155.768 144.47625 155.768 
C 144.47625 155.768 144.47625 155.768 144.47625 155.768 
z
" clip-path="url(#p0c2ef4e92e)" style="fill: #d4a0a7; stroke: #000000; stroke-width: 0.5; stroke-linejoin: miter"/>
   </g>
   <g id="patch_29">
    <path d="M 144.47625 155.768 
C 144.47625 155.768 144.47625 155.768 144.47625 155.768 
C 144.47625 155.768 144.47625 155.768 144.47625 155.768 
L 132.727122 149.48796 
C 132.521567 149.872527 132.335017 150.266954 132.168146 150.669816 
C 132.001275 151.072679 131.854284 151.483492 131.727704 151.900771 
z
" clip-path="url(#p0c2ef4e92e)" style="fill: #d4a0a7; stroke: #000000; stroke-width: 0.5; stroke-linejoin: miter"/>
   </g>
   <g id="patch_30">
    <path d="M 144.47625 155.768 
C 144.47625 155.768 144.47625 155.768 144.47625 155.768 
C 144.47625 155.768 144.47625 155.768 144.47625 155.768 
L 116.542351 132.843241 
C 115.791989 133.75756 115.08697 134.708167 114.429841 135.691631 
C 113.772711 136.675095 113.164263 137.690229 112.606694 138.733368 
z
" clip-path="url(#p0c2ef4e92e)" style="fill: #d4a0a7; stroke: #000000; stroke-width: 0.5; stroke-linejoin: miter"/>
   </g>
   <g id="patch_31">
    <path d="M 144.47625 155.768 
C 144.47625 155.768 144.47625 155.768 144.47625 155.768 
C 144.47625 155.768 144.47625 155.768 144.47625 155.768 
L 128.014217 135.708954 
C 127.357654 136.247781 126.727942 136.818519 126.127355 137.419105 
C 125.526769 138.019692 124.956031 138.649404 124.417204 139.305967 
z
" clip-path="url(#p0c2ef4e92e)" style="fill: #d4a0a7; stroke: #000000; stroke-width: 0.5; stroke-linejoin: miter"/>
   </g>
   <g id="patch_32">
    <path d="M 144.47625 155.768 
C 144.47625 155.768 144.47625 155.768 144.47625 155.768 
C 144.47625 155.768 144.47625 155.768 144.47625 155.768 
L 127.286244 123.607761 
C 126.233591 124.170415 125.209198 124.784413 124.216764 125.447536 
C 123.22433 126.11066 122.265051 126.822109 121.342394 127.579315 
z
" clip-path="url(#p0c2ef4e92e)" style="fill: #d4a0a7; stroke: #000000; stroke-width: 0.5; stroke-linejoin: miter"/>
   </g>
   <g id="patch_33">
    <path d="M 144.47625 155.768 
C 144.47625 155.768 144.47625 155.768 144.47625 155.768 
C 144.47625 155.768 144.47625 155.768 144.47625 155.768 
L 125.193769 92.202179 
C 123.113165 92.833323 121.064802 93.566239 119.056079 94.398279 
C 117.047357 95.230319 115.080696 96.160481 113.1632 97.185403 
z
" clip-path="url(#p0c2ef4e92e)" style="fill: #d4a0a7; stroke: #000000; stroke-width: 0.5; stroke-linejoin: miter"/>
   </g>
   <g id="patch_34">
    <path d="M 144.47625 155.768 
C 144.47625 155.768 144.47625 155.768 144.47625 155.768 
C 144.47625 155.768 144.47625 155.768 144.47625 155.768 
L 139.740046 107.680517 
C 138.166071 107.83554 136.600656 108.067747 135.049455 108.3763 
C 133.498254 108.684853 131.963137 109.06938 130.449649 109.528492 
z
" clip-path="url(#p0c2ef4e92e)" style="fill: #d4a0a7; stroke: #000000; stroke-width: 0.5; stroke-linejoin: miter"/>
   </g>
   <g id="PathCollection_1">
    <defs>
     <path id="m63871e313f" d="M 0.193618 7.414054 
L 0.193618 7.414054 
C 0.054922 7.414054 -0.078235 7.358899 -0.176308 7.260826 
C -0.274381 7.162753 -0.329536 7.029596 -0.329536 6.890901 
L -0.329536 5.365008 
L -1.528416 6.56393 
L -1.528416 6.56393 
C -1.577018 6.612704 -1.634775 6.651408 -1.698366 6.677814 
C -1.761958 6.704221 -1.830141 6.717815 -1.898997 6.717815 
C -1.967853 6.717815 -2.036037 6.704221 -2.099628 6.677814 
C -2.163219 6.651408 -2.220976 6.612704 -2.269578 6.56393 
L -2.269578 6.56393 
C -2.318353 6.515327 -2.357056 6.457571 -2.383463 6.393979 
C -2.409869 6.330388 -2.423463 6.262205 -2.423463 6.193348 
C -2.423463 6.124492 -2.409869 6.056309 -2.383463 5.992718 
C -2.357056 5.929126 -2.318353 5.87137 -2.269578 5.822767 
L -0.329536 3.884106 
L -0.329536 0.820937 
L -2.98067 2.351538 
L -3.691824 5.001416 
L -3.691824 5.001416 
C -3.727584 5.135411 -3.815199 5.249836 -3.93523 5.319305 
C -4.055261 5.388775 -4.198123 5.407741 -4.332122 5.371997 
L -4.332122 5.371997 
C -4.466126 5.336237 -4.580558 5.248616 -4.650029 5.128576 
C -4.719499 5.008535 -4.73846 4.865662 -4.702703 4.731657 
L -4.262647 3.092721 
L -5.585535 3.855668 
L -5.585535 3.855668 
C -5.645013 3.890144 -5.710708 3.912561 -5.778854 3.921634 
C -5.847001 3.930706 -5.916272 3.926258 -5.982698 3.908543 
C -6.049125 3.890828 -6.111412 3.860192 -6.165991 3.818391 
C -6.220571 3.77659 -6.266379 3.724437 -6.300791 3.664922 
L -6.300791 3.664922 
C -6.335212 3.605364 -6.35755 3.539597 -6.366524 3.471396 
C -6.375498 3.403194 -6.370933 3.333888 -6.35309 3.267452 
C -6.335248 3.201017 -6.304476 3.138749 -6.26254 3.08422 
C -6.220605 3.029692 -6.168323 2.983966 -6.108695 2.949666 
L -4.785807 2.186762 
L -6.424743 1.746706 
L -6.424743 1.746706 
C -6.558747 1.710946 -6.673179 1.623325 -6.74265 1.503284 
C -6.81212 1.383244 -6.831081 1.240371 -6.795324 1.106366 
L -6.795324 1.106366 
C -6.777471 1.039969 -6.746703 0.977739 -6.704784 0.923241 
C -6.662864 0.868744 -6.61061 0.823041 -6.551015 0.788752 
C -6.491421 0.754464 -6.425647 0.732257 -6.357465 0.723406 
C -6.289282 0.714554 -6.220019 0.71923 -6.153645 0.737166 
L -3.505232 1.44698 
L -0.852424 -0.08496 
L -3.503767 -1.615666 
L -6.153645 -0.905851 
L -6.153645 -0.905851 
C -6.22011 -0.887939 -6.289462 -0.883321 -6.357716 -0.892262 
C -6.42597 -0.901202 -6.491793 -0.923527 -6.551403 -0.957953 
C -6.611013 -0.992379 -6.663247 -1.038234 -6.705103 -1.092883 
C -6.746958 -1.147533 -6.777619 -1.209911 -6.795324 -1.276432 
L -6.795324 -1.276432 
C -6.831068 -1.410431 -6.812101 -1.553293 -6.742632 -1.673324 
C -6.673162 -1.793355 -6.558738 -1.88097 -6.424743 -1.91673 
L -4.785807 -2.355447 
L -6.108695 -3.119732 
L -6.108695 -3.119732 
C -6.228699 -3.188976 -6.316415 -3.303132 -6.352417 -3.436921 
C -6.388419 -3.57071 -6.369839 -3.713469 -6.300791 -3.833586 
L -6.300791 -3.833586 
C -6.266491 -3.893214 -6.220765 -3.945496 -6.166237 -3.987431 
C -6.111708 -4.029367 -6.04944 -4.060139 -5.983005 -4.077981 
C -5.91657 -4.095823 -5.847263 -4.100389 -5.779062 -4.091415 
C -5.71086 -4.082441 -5.645094 -4.060102 -5.585535 -4.025682 
L -4.262647 -3.261396 
L -4.702703 -4.900332 
L -4.702703 -4.900332 
C -4.73846 -5.034337 -4.719499 -5.17721 -4.650029 -5.29725 
C -4.580558 -5.417291 -4.466126 -5.504912 -4.332122 -5.540672 
L -4.332122 -5.540672 
C -4.19831 -5.576464 -4.055613 -5.557686 -3.935617 -5.488496 
C -3.81562 -5.419305 -3.727882 -5.305212 -3.691824 -5.171472 
L -2.982009 -2.521594 
L -0.329411 -0.990302 
L -0.329411 -4.051588 
L -2.269453 -5.991589 
L -2.269453 -5.991589 
C -2.318227 -6.040191 -2.356931 -6.097947 -2.383337 -6.161539 
C -2.409744 -6.22513 -2.423338 -6.293314 -2.423338 -6.36217 
C -2.423338 -6.431026 -2.409744 -6.499209 -2.383337 -6.5628 
C -2.356931 -6.626392 -2.318227 -6.684149 -2.269453 -6.732751 
L -2.269453 -6.732751 
C -2.22085 -6.781526 -2.163094 -6.820229 -2.099502 -6.846635 
C -2.035911 -6.873042 -1.967728 -6.886636 -1.898871 -6.886636 
C -1.830015 -6.886636 -1.761832 -6.873042 -1.698241 -6.846635 
C -1.634649 -6.820229 -1.576893 -6.781526 -1.52829 -6.732751 
L -0.329411 -5.533829 
L -0.329411 -7.059722 
L -0.329411 -7.059722 
C -0.329411 -7.198418 -0.274255 -7.331575 -0.176182 -7.429647 
C -0.07811 -7.52772 0.055047 -7.582875 0.193743 -7.582875 
L 0.193743 -7.582875 
C 0.332439 -7.582875 0.465596 -7.52772 0.563669 -7.429647 
C 0.661741 -7.331575 0.716897 -7.198418 0.716897 -7.059722 
L 0.716897 -5.533829 
L 1.915777 -6.732751 
L 1.915777 -6.732751 
C 1.964379 -6.781526 2.022136 -6.820229 2.085727 -6.846635 
C 2.149318 -6.873042 2.217502 -6.886636 2.286358 -6.886636 
C 2.355214 -6.886636 2.423397 -6.873042 2.486989 -6.846635 
C 2.55058 -6.820229 2.608337 -6.781526 2.656939 -6.732751 
L 2.656939 -6.732751 
C 2.705714 -6.684149 2.744417 -6.626392 2.770823 -6.5628 
C 2.79723 -6.499209 2.810824 -6.431026 2.810824 -6.36217 
C 2.810824 -6.293314 2.79723 -6.22513 2.770823 -6.161539 
C 2.744417 -6.097947 2.705714 -6.040191 2.656939 -5.991589 
L 0.716897 -4.051588 
L 0.716897 -0.991139 
L 3.369495 -2.522954 
L 4.07931 -5.171367 
L 4.07931 -5.171367 
C 4.115368 -5.305107 4.203106 -5.4192 4.323103 -5.488391 
C 4.4431 -5.557582 4.585797 -5.576359 4.719608 -5.540567 
L 4.719608 -5.540567 
C 4.853612 -5.504807 4.968045 -5.417186 5.037515 -5.297146 
C 5.106986 -5.177105 5.125946 -5.034232 5.090189 -4.900227 
L 4.650133 -3.262673 
L 5.973022 -4.025577 
L 5.973022 -4.025577 
C 6.03258 -4.059998 6.098346 -4.082336 6.166548 -4.09131 
C 6.234749 -4.100284 6.304056 -4.095719 6.370491 -4.077876 
C 6.436926 -4.060034 6.499194 -4.029262 6.553723 -3.987327 
C 6.608252 -3.945391 6.653978 -3.893109 6.688277 -3.833481 
L 6.688277 -3.833481 
C 6.757325 -3.713365 6.775905 -3.570605 6.739903 -3.436816 
C 6.703901 -3.303027 6.616186 -3.188871 6.496181 -3.119628 
L 5.173293 -2.355342 
L 6.812229 -1.916625 
L 6.812229 -1.916625 
C 6.946224 -1.880865 7.060649 -1.79325 7.130118 -1.67322 
C 7.199588 -1.553189 7.218554 -1.410326 7.18281 -1.276327 
L 7.18281 -1.276327 
C 7.165106 -1.209806 7.134445 -1.147429 7.092589 -1.092779 
C 7.050733 -1.038129 6.998499 -0.992274 6.938889 -0.957848 
C 6.879279 -0.923422 6.813456 -0.901098 6.745202 -0.892157 
C 6.676949 -0.883217 6.607597 -0.887835 6.541131 -0.905746 
L 3.891253 -1.615561 
L 1.239492 -0.084604 
L 3.892718 1.447085 
L 6.541131 0.73727 
L 6.541131 0.73727 
C 6.674948 0.701466 6.817656 0.720237 6.937662 0.789429 
C 7.057669 0.858621 7.145413 0.972721 7.181471 1.10647 
L 7.181471 1.10647 
C 7.217274 1.240293 7.198497 1.383006 7.129297 1.503014 
C 7.060096 1.623021 6.945986 1.710762 6.812229 1.74681 
L 5.173293 2.186866 
L 6.496181 2.949771 
L 6.496181 2.949771 
C 6.555697 2.984183 6.607849 3.029991 6.649651 3.08457 
C 6.691452 3.13915 6.722088 3.201437 6.739803 3.267863 
C 6.757517 3.33429 6.761966 3.403561 6.752893 3.471707 
C 6.743821 3.539854 6.721404 3.605549 6.686927 3.665026 
L 6.686927 3.665026 
C 6.617458 3.784813 6.503196 3.87225 6.369416 3.907994 
C 6.235636 3.943739 6.092989 3.924946 5.973032 3.855772 
L 4.650144 3.091487 
L 5.08886 4.731783 
L 5.08886 4.731783 
C 5.124664 4.865606 5.105887 5.008319 5.036686 5.128326 
C 4.967486 5.248334 4.853376 5.336074 4.719619 5.372123 
L 4.719619 5.372123 
C 4.585619 5.407867 4.442757 5.3889 4.322726 5.319431 
C 4.202695 5.249961 4.115081 5.135537 4.07932 5.001542 
L 3.368166 2.351664 
L 0.717033 0.821063 
L 0.717033 3.884232 
L 2.657075 5.822893 
L 2.657075 5.822893 
C 2.70585 5.871495 2.744553 5.929252 2.770959 5.992843 
C 2.797366 6.056435 2.81096 6.124618 2.81096 6.193474 
C 2.81096 6.26233 2.797366 6.330514 2.770959 6.394105 
C 2.744553 6.457696 2.70585 6.515453 2.657075 6.564055 
L 2.657075 6.564055 
C 2.608473 6.61283 2.550716 6.651533 2.487125 6.67794 
C 2.423533 6.704346 2.35535 6.71794 2.286494 6.71794 
C 2.217638 6.71794 2.149454 6.704346 2.085863 6.67794 
C 2.022272 6.651533 1.964515 6.61283 1.915913 6.564055 
L 0.717033 5.365133 
L 0.717033 6.891026 
L 0.717033 6.891026 
C 0.717033 7.029722 0.661877 7.162879 0.563805 7.260952 
C 0.465732 7.359024 0.332575 7.41418 0.193879 7.41418 
L 0.193618 7.414054 
z
"/>
    </defs>
    <g clip-path="url(#p0c2ef4e92e)">
     <use xlink:href="#m63871e313f" x="202.216473" y="137.910542" style="fill: #0000ff; fill-opacity: 0.7"/>
    </g>
   </g>
   <g id="patch_35">
    <path d="M 144.47625 44.888 
C 129.915622 44.888 115.496577 47.756126 102.044311 53.328237 
C 88.592045 58.900349 76.368169 67.068081 66.07225 77.364 
C 55.776331 87.659919 47.608599 99.883795 42.036487 113.336061 
C 36.464376 126.788327 33.59625 141.207372 33.59625 155.768 
C 33.59625 170.328628 36.464376 184.747673 42.036487 198.199939 
C 47.608599 211.652205 55.776331 223.876081 66.07225 234.172 
C 76.368169 244.467919 88.592045 252.635651 102.044311 258.207763 
C 115.496577 263.779874 129.915622 266.648 144.47625 266.648 
C 159.036878 266.648 173.455923 263.779874 186.908189 258.207763 
C 200.360455 252.635651 212.584331 244.467919 222.88025 234.172 
C 233.176169 223.876081 241.343901 211.652205 246.916013 198.199939 
C 252.488124 184.747673 255.35625 170.328628 255.35625 155.768 
C 255.35625 141.207372 252.488124 126.788327 246.916013 113.336061 
C 241.343901 99.883795 233.176169 87.659919 222.88025 77.364 
C 212.584331 67.068081 200.360455 58.900349 186.908189 53.328237 
C 173.455923 47.756126 159.036878 44.888 144.47625 44.888 
" style="fill: none; stroke: #000000; stroke-width: 0.8; stroke-linejoin: miter; stroke-linecap: square"/>
   </g>
   <g id="text_5">
    <!-- 13 runs -->
    <g style="fill: #95a5a6" transform="translate(20.59793 39.488118) scale(0.1 -0.1)">
     <defs>
      <path id="DejaVuSans-31" d="M 794 531 
L 1825 531 
L 1825 4091 
L 703 3866 
L 703 4441 
L 1819 4666 
L 2450 4666 
L 2450 531 
L 3481 531 
L 3481 0 
L 794 0 
L 794 531 
z
" transform="scale(0.015625)"/>
      <path id="DejaVuSans-33" d="M 2597 2516 
Q 3050 2419 3304 2112 
Q 3559 1806 3559 1356 
Q 3559 666 3084 287 
Q 2609 -91 1734 -91 
Q 1441 -91 1130 -33 
Q 819 25 488 141 
L 488 750 
Q 750 597 1062 519 
Q 1375 441 1716 441 
Q 2309 441 2620 675 
Q 2931 909 2931 1356 
Q 2931 1769 2642 2001 
Q 2353 2234 1838 2234 
L 1294 2234 
L 1294 2753 
L 1863 2753 
Q 2328 2753 2575 2939 
Q 2822 3125 2822 3475 
Q 2822 3834 2567 4026 
Q 2313 4219 1838 4219 
Q 1578 4219 1281 4162 
Q 984 4106 628 3988 
L 628 4550 
Q 988 4650 1302 4700 
Q 1616 4750 1894 4750 
Q 2613 4750 3031 4423 
Q 3450 4097 3450 3541 
Q 3450 3153 3228 2886 
Q 3006 2619 2597 2516 
z
" transform="scale(0.015625)"/>
      <path id="DejaVuSans-20" transform="scale(0.015625)"/>
      <path id="DejaVuSans-72" d="M 2631 2963 
Q 2534 3019 2420 3045 
Q 2306 3072 2169 3072 
Q 1681 3072 1420 2755 
Q 1159 2438 1159 1844 
L 1159 0 
L 581 0 
L 581 3500 
L 1159 3500 
L 1159 2956 
Q 1341 3275 1631 3429 
Q 1922 3584 2338 3584 
Q 2397 3584 2469 3576 
Q 2541 3569 2628 3553 
L 2631 2963 
z
" transform="scale(0.015625)"/>
      <path id="DejaVuSans-75" d="M 544 1381 
L 544 3500 
L 1119 3500 
L 1119 1403 
Q 1119 906 1312 657 
Q 1506 409 1894 409 
Q 2359 409 2629 706 
Q 2900 1003 2900 1516 
L 2900 3500 
L 3475 3500 
L 3475 0 
L 2900 0 
L 2900 538 
Q 2691 219 2414 64 
Q 2138 -91 1772 -91 
Q 1169 -91 856 284 
Q 544 659 544 1381 
z
M 1991 3584 
L 1991 3584 
z
" transform="scale(0.015625)"/>
      <path id="DejaVuSans-6e" d="M 3513 2113 
L 3513 0 
L 2938 0 
L 2938 2094 
Q 2938 2591 2744 2837 
Q 2550 3084 2163 3084 
Q 1697 3084 1428 2787 
Q 1159 2491 1159 1978 
L 1159 0 
L 581 0 
L 581 3500 
L 1159 3500 
L 1159 2956 
Q 1366 3272 1645 3428 
Q 1925 3584 2291 3584 
Q 2894 3584 3203 3211 
Q 3513 2838 3513 2113 
z
" transform="scale(0.015625)"/>
      <path id="DejaVuSans-73" d="M 2834 3397 
L 2834 2853 
Q 2591 2978 2328 3040 
Q 2066 3103 1784 3103 
Q 1356 3103 1142 2972 
Q 928 2841 928 2578 
Q 928 2378 1081 2264 
Q 1234 2150 1697 2047 
L 1894 2003 
Q 2506 1872 2764 1633 
Q 3022 1394 3022 966 
Q 3022 478 2636 193 
Q 2250 -91 1575 -91 
Q 1294 -91 989 -36 
Q 684 19 347 128 
L 347 722 
Q 666 556 975 473 
Q 1284 391 1588 391 
Q 1994 391 2212 530 
Q 2431 669 2431 922 
Q 2431 1156 2273 1281 
Q 2116 1406 1581 1522 
L 1381 1569 
Q 847 1681 609 1914 
Q 372 2147 372 2553 
Q 372 3047 722 3315 
Q 1072 3584 1716 3584 
Q 2034 3584 2315 3537 
Q 2597 3491 2834 3397 
z
" transform="scale(0.015625)"/>
     </defs>
     <use xlink:href="#DejaVuSans-31"/>
     <use xlink:href="#DejaVuSans-33" x="63.623047"/>
     <use xlink:href="#DejaVuSans-20" x="127.246094"/>
     <use xlink:href="#DejaVuSans-72" x="159.033203"/>
     <use xlink:href="#DejaVuSans-75" x="200.146484"/>
     <use xlink:href="#DejaVuSans-6e" x="263.525391"/>
     <use xlink:href="#DejaVuSans-73" x="326.904297"/>
    </g>
    <!-- 5 lifts -->
    <g style="fill: #95a5a6" transform="translate(20.59793 50.68593) scale(0.1 -0.1)">
     <defs>
      <path id="DejaVuSans-35" d="M 691 4666 
L 3169 4666 
L 3169 4134 
L 1269 4134 
L 1269 2991 
Q 1406 3038 1543 3061 
Q 1681 3084 1819 3084 
Q 2600 3084 3056 2656 
Q 3513 2228 3513 1497 
Q 3513 744 3044 326 
Q 2575 -91 1722 -91 
Q 1428 -91 1123 -41 
Q 819 9 494 109 
L 494 744 
Q 775 591 1075 516 
Q 1375 441 1709 441 
Q 2250 441 2565 725 
Q 2881 1009 2881 1497 
Q 2881 1984 2565 2268 
Q 2250 2553 1709 2553 
Q 1456 2553 1204 2497 
Q 953 2441 691 2322 
L 691 4666 
z
" transform="scale(0.015625)"/>
      <path id="DejaVuSans-6c" d="M 603 4863 
L 1178 4863 
L 1178 0 
L 603 0 
L 603 4863 
z
" transform="scale(0.015625)"/>
      <path id="DejaVuSans-69" d="M 603 3500 
L 1178 3500 
L 1178 0 
L 603 0 
L 603 3500 
z
M 603 4863 
L 1178 4863 
L 1178 4134 
L 603 4134 
L 603 4863 
z
" transform="scale(0.015625)"/>
      <path id="DejaVuSans-66" d="M 2375 4863 
L 2375 4384 
L 1825 4384 
Q 1516 4384 1395 4259 
Q 1275 4134 1275 3809 
L 1275 3500 
L 2222 3500 
L 2222 3053 
L 1275 3053 
L 1275 0 
L 697 0 
L 697 3053 
L 147 3053 
L 147 3500 
L 697 3500 
L 697 3744 
Q 697 4328 969 4595 
Q 1241 4863 1831 4863 
L 2375 4863 
z
" transform="scale(0.015625)"/>
      <path id="DejaVuSans-74" d="M 1172 4494 
L 1172 3500 
L 2356 3500 
L 2356 3053 
L 1172 3053 
L 1172 1153 
Q 1172 725 1289 603 
Q 1406 481 1766 481 
L 2356 481 
L 2356 0 
L 1766 0 
Q 1100 0 847 248 
Q 594 497 594 1153 
L 594 3053 
L 172 3053 
L 172 3500 
L 594 3500 
L 594 4494 
L 1172 4494 
z
" transform="scale(0.015625)"/>
     </defs>
     <use xlink:href="#DejaVuSans-35"/>
     <use xlink:href="#DejaVuSans-20" x="63.623047"/>
     <use xlink:href="#DejaVuSans-6c" x="95.410156"/>
     <use xlink:href="#DejaVuSans-69" x="123.193359"/>
     <use xlink:href="#DejaVuSans-66" x="150.976562"/>
     <use xlink:href="#DejaVuSans-74" x="184.431641"/>
     <use xlink:href="#DejaVuSans-73" x="223.640625"/>
    </g>
   </g>
   <g id="text_6">
    <!-- 3,783 m -->
    <g style="fill: #95a5a6" transform="translate(227.988945 39.488118) scale(0.1 -0.1)">
     <defs>
      <path id="DejaVuSans-2c" d="M 750 794 
L 1409 794 
L 1409 256 
L 897 -744 
L 494 -744 
L 750 256 
L 750 794 
z
" transform="scale(0.015625)"/>
      <path id="DejaVuSans-37" d="M 525 4666 
L 3525 4666 
L 3525 4397 
L 1831 0 
L 1172 0 
L 2766 4134 
L 525 4134 
L 525 4666 
z
" transform="scale(0.015625)"/>
      <path id="DejaVuSans-38" d="M 2034 2216 
Q 1584 2216 1326 1975 
Q 1069 1734 1069 1313 
Q 1069 891 1326 650 
Q 1584 409 2034 409 
Q 2484 409 2743 651 
Q 3003 894 3003 1313 
Q 3003 1734 2745 1975 
Q 2488 2216 2034 2216 
z
M 1403 2484 
Q 997 2584 770 2862 
Q 544 3141 544 3541 
Q 544 4100 942 4425 
Q 1341 4750 2034 4750 
Q 2731 4750 3128 4425 
Q 3525 4100 3525 3541 
Q 3525 3141 3298 2862 
Q 3072 2584 2669 2484 
Q 3125 2378 3379 2068 
Q 3634 1759 3634 1313 
Q 3634 634 3220 271 
Q 2806 -91 2034 -91 
Q 1263 -91 848 271 
Q 434 634 434 1313 
Q 434 1759 690 2068 
Q 947 2378 1403 2484 
z
M 1172 3481 
Q 1172 3119 1398 2916 
Q 1625 2713 2034 2713 
Q 2441 2713 2670 2916 
Q 2900 3119 2900 3481 
Q 2900 3844 2670 4047 
Q 2441 4250 2034 4250 
Q 1625 4250 1398 4047 
Q 1172 3844 1172 3481 
z
" transform="scale(0.015625)"/>
      <path id="DejaVuSans-202f" transform="scale(0.015625)"/>
      <path id="DejaVuSans-6d" d="M 3328 2828 
Q 3544 3216 3844 3400 
Q 4144 3584 4550 3584 
Q 5097 3584 5394 3201 
Q 5691 2819 5691 2113 
L 5691 0 
L 5113 0 
L 5113 2094 
Q 5113 2597 4934 2840 
Q 4756 3084 4391 3084 
Q 3944 3084 3684 2787 
Q 3425 2491 3425 1978 
L 3425 0 
L 2847 0 
L 2847 2094 
Q 2847 2600 2669 2842 
Q 2491 3084 2119 3084 
Q 1678 3084 1418 2786 
Q 1159 2488 1159 1978 
L 1159 0 
L 581 0 
L 581 3500 
L 1159 3500 
L 1159 2956 
Q 1356 3278 1631 3431 
Q 1906 3584 2284 3584 
Q 2666 3584 2933 3390 
Q 3200 3197 3328 2828 
z
" transform="scale(0.015625)"/>
     </defs>
     <use xlink:href="#DejaVuSans-33"/>
     <use xlink:href="#DejaVuSans-2c" x="63.623047"/>
     <use xlink:href="#DejaVuSans-37" x="95.410156"/>
     <use xlink:href="#DejaVuSans-38" x="159.033203"/>
     <use xlink:href="#DejaVuSans-33" x="222.65625"/>
     <use xlink:href="#DejaVuSans-202f" x="286.279297"/>
     <use xlink:href="#DejaVuSans-6d" x="306.25"/>
    </g>
    <!-- skiable -->
    <g style="fill: #95a5a6" transform="translate(233.168632 50.68593) scale(0.1 -0.1)">
     <defs>
      <path id="DejaVuSans-6b" d="M 581 4863 
L 1159 4863 
L 1159 1991 
L 2875 3500 
L 3609 3500 
L 1753 1863 
L 3688 0 
L 2938 0 
L 1159 1709 
L 1159 0 
L 581 0 
L 581 4863 
z
" transform="scale(0.015625)"/>
      <path id="DejaVuSans-61" d="M 2194 1759 
Q 1497 1759 1228 1600 
Q 959 1441 959 1056 
Q 959 750 1161 570 
Q 1363 391 1709 391 
Q 2188 391 2477 730 
Q 2766 1069 2766 1631 
L 2766 1759 
L 2194 1759 
z
M 3341 1997 
L 3341 0 
L 2766 0 
L 2766 531 
Q 2569 213 2275 61 
Q 1981 -91 1556 -91 
Q 1019 -91 701 211 
Q 384 513 384 1019 
Q 384 1609 779 1909 
Q 1175 2209 1959 2209 
L 2766 2209 
L 2766 2266 
Q 2766 2663 2505 2880 
Q 2244 3097 1772 3097 
Q 1472 3097 1187 3025 
Q 903 2953 641 2809 
L 641 3341 
Q 956 3463 1253 3523 
Q 1550 3584 1831 3584 
Q 2591 3584 2966 3190 
Q 3341 2797 3341 1997 
z
" transform="scale(0.015625)"/>
      <path id="DejaVuSans-62" d="M 3116 1747 
Q 3116 2381 2855 2742 
Q 2594 3103 2138 3103 
Q 1681 3103 1420 2742 
Q 1159 2381 1159 1747 
Q 1159 1113 1420 752 
Q 1681 391 2138 391 
Q 2594 391 2855 752 
Q 3116 1113 3116 1747 
z
M 1159 2969 
Q 1341 3281 1617 3432 
Q 1894 3584 2278 3584 
Q 2916 3584 3314 3078 
Q 3713 2572 3713 1747 
Q 3713 922 3314 415 
Q 2916 -91 2278 -91 
Q 1894 -91 1617 61 
Q 1341 213 1159 525 
L 1159 0 
L 581 0 
L 581 4863 
L 1159 4863 
L 1159 2969 
z
" transform="scale(0.015625)"/>
      <path id="DejaVuSans-65" d="M 3597 1894 
L 3597 1613 
L 953 1613 
Q 991 1019 1311 708 
Q 1631 397 2203 397 
Q 2534 397 2845 478 
Q 3156 559 3463 722 
L 3463 178 
Q 3153 47 2828 -22 
Q 2503 -91 2169 -91 
Q 1331 -91 842 396 
Q 353 884 353 1716 
Q 353 2575 817 3079 
Q 1281 3584 2069 3584 
Q 2775 3584 3186 3129 
Q 3597 2675 3597 1894 
z
M 3022 2063 
Q 3016 2534 2758 2815 
Q 2500 3097 2075 3097 
Q 1594 3097 1305 2825 
Q 1016 2553 972 2059 
L 3022 2063 
z
" transform="scale(0.015625)"/>
     </defs>
     <use xlink:href="#DejaVuSans-73"/>
     <use xlink:href="#DejaVuSans-6b" x="52.099609"/>
     <use xlink:href="#DejaVuSans-69" x="110.009766"/>
     <use xlink:href="#DejaVuSans-61" x="137.792969"/>
     <use xlink:href="#DejaVuSans-62" x="199.072266"/>
     <use xlink:href="#DejaVuSans-6c" x="262.548828"/>
     <use xlink:href="#DejaVuSans-65" x="290.332031"/>
    </g>
    <!-- vert -->
    <g style="fill: #95a5a6" transform="translate(248.251445 61.883743) scale(0.1 -0.1)">
     <defs>
      <path id="DejaVuSans-76" d="M 191 3500 
L 800 3500 
L 1894 563 
L 2988 3500 
L 3597 3500 
L 2284 0 
L 1503 0 
L 191 3500 
z
" transform="scale(0.015625)"/>
     </defs>
     <use xlink:href="#DejaVuSans-76"/>
     <use xlink:href="#DejaVuSans-65" x="59.179688"/>
     <use xlink:href="#DejaVuSans-72" x="120.703125"/>
     <use xlink:href="#DejaVuSans-74" x="161.816406"/>
    </g>
   </g>
   <g id="text_7">
    <!-- affinity: -->
    <g style="fill: #95a5a6" transform="translate(20.59793 255.171007) scale(0.1 -0.1)">
     <defs>
      <path id="DejaVuSans-79" d="M 2059 -325 
Q 1816 -950 1584 -1140 
Q 1353 -1331 966 -1331 
L 506 -1331 
L 506 -850 
L 844 -850 
Q 1081 -850 1212 -737 
Q 1344 -625 1503 -206 
L 1606 56 
L 191 3500 
L 800 3500 
L 1894 763 
L 2988 3500 
L 3597 3500 
L 2059 -325 
z
" transform="scale(0.015625)"/>
      <path id="DejaVuSans-3a" d="M 750 794 
L 1409 794 
L 1409 0 
L 750 0 
L 750 794 
z
M 750 3309 
L 1409 3309 
L 1409 2516 
L 750 2516 
L 750 3309 
z
" transform="scale(0.015625)"/>
     </defs>
     <use xlink:href="#DejaVuSans-61"/>
     <use xlink:href="#DejaVuSans-66" x="61.279297"/>
     <use xlink:href="#DejaVuSans-66" x="96.484375"/>
     <use xlink:href="#DejaVuSans-69" x="131.689453"/>
     <use xlink:href="#DejaVuSans-6e" x="159.472656"/>
     <use xlink:href="#DejaVuSans-69" x="222.851562"/>
     <use xlink:href="#DejaVuSans-74" x="250.634766"/>
     <use xlink:href="#DejaVuSans-79" x="289.84375"/>
     <use xlink:href="#DejaVuSans-3a" x="341.773438"/>
    </g>
    <!-- 16% poleward -->
    <g style="fill: #95a5a6" transform="translate(20.59793 266.36882) scale(0.1 -0.1)">
     <defs>
      <path id="DejaVuSans-36" d="M 2113 2584 
Q 1688 2584 1439 2293 
Q 1191 2003 1191 1497 
Q 1191 994 1439 701 
Q 1688 409 2113 409 
Q 2538 409 2786 701 
Q 3034 994 3034 1497 
Q 3034 2003 2786 2293 
Q 2538 2584 2113 2584 
z
M 3366 4563 
L 3366 3988 
Q 3128 4100 2886 4159 
Q 2644 4219 2406 4219 
Q 1781 4219 1451 3797 
Q 1122 3375 1075 2522 
Q 1259 2794 1537 2939 
Q 1816 3084 2150 3084 
Q 2853 3084 3261 2657 
Q 3669 2231 3669 1497 
Q 3669 778 3244 343 
Q 2819 -91 2113 -91 
Q 1303 -91 875 529 
Q 447 1150 447 2328 
Q 447 3434 972 4092 
Q 1497 4750 2381 4750 
Q 2619 4750 2861 4703 
Q 3103 4656 3366 4563 
z
" transform="scale(0.015625)"/>
      <path id="DejaVuSans-25" d="M 4653 2053 
Q 4381 2053 4226 1822 
Q 4072 1591 4072 1178 
Q 4072 772 4226 539 
Q 4381 306 4653 306 
Q 4919 306 5073 539 
Q 5228 772 5228 1178 
Q 5228 1588 5073 1820 
Q 4919 2053 4653 2053 
z
M 4653 2450 
Q 5147 2450 5437 2106 
Q 5728 1763 5728 1178 
Q 5728 594 5436 251 
Q 5144 -91 4653 -91 
Q 4153 -91 3862 251 
Q 3572 594 3572 1178 
Q 3572 1766 3864 2108 
Q 4156 2450 4653 2450 
z
M 1428 4353 
Q 1159 4353 1004 4120 
Q 850 3888 850 3481 
Q 850 3069 1003 2837 
Q 1156 2606 1428 2606 
Q 1700 2606 1854 2837 
Q 2009 3069 2009 3481 
Q 2009 3884 1853 4118 
Q 1697 4353 1428 4353 
z
M 4250 4750 
L 4750 4750 
L 1831 -91 
L 1331 -91 
L 4250 4750 
z
M 1428 4750 
Q 1922 4750 2215 4408 
Q 2509 4066 2509 3481 
Q 2509 2891 2217 2550 
Q 1925 2209 1428 2209 
Q 931 2209 642 2551 
Q 353 2894 353 3481 
Q 353 4063 643 4406 
Q 934 4750 1428 4750 
z
" transform="scale(0.015625)"/>
      <path id="DejaVuSans-70" d="M 1159 525 
L 1159 -1331 
L 581 -1331 
L 581 3500 
L 1159 3500 
L 1159 2969 
Q 1341 3281 1617 3432 
Q 1894 3584 2278 3584 
Q 2916 3584 3314 3078 
Q 3713 2572 3713 1747 
Q 3713 922 3314 415 
Q 2916 -91 2278 -91 
Q 1894 -91 1617 61 
Q 1341 213 1159 525 
z
M 3116 1747 
Q 3116 2381 2855 2742 
Q 2594 3103 2138 3103 
Q 1681 3103 1420 2742 
Q 1159 2381 1159 1747 
Q 1159 1113 1420 752 
Q 1681 391 2138 391 
Q 2594 391 2855 752 
Q 3116 1113 3116 1747 
z
" transform="scale(0.015625)"/>
      <path id="DejaVuSans-6f" d="M 1959 3097 
Q 1497 3097 1228 2736 
Q 959 2375 959 1747 
Q 959 1119 1226 758 
Q 1494 397 1959 397 
Q 2419 397 2687 759 
Q 2956 1122 2956 1747 
Q 2956 2369 2687 2733 
Q 2419 3097 1959 3097 
z
M 1959 3584 
Q 2709 3584 3137 3096 
Q 3566 2609 3566 1747 
Q 3566 888 3137 398 
Q 2709 -91 1959 -91 
Q 1206 -91 779 398 
Q 353 888 353 1747 
Q 353 2609 779 3096 
Q 1206 3584 1959 3584 
z
" transform="scale(0.015625)"/>
      <path id="DejaVuSans-77" d="M 269 3500 
L 844 3500 
L 1563 769 
L 2278 3500 
L 2956 3500 
L 3675 769 
L 4391 3500 
L 4966 3500 
L 4050 0 
L 3372 0 
L 2619 2869 
L 1863 0 
L 1184 0 
L 269 3500 
z
" transform="scale(0.015625)"/>
      <path id="DejaVuSans-64" d="M 2906 2969 
L 2906 4863 
L 3481 4863 
L 3481 0 
L 2906 0 
L 2906 525 
Q 2725 213 2448 61 
Q 2172 -91 1784 -91 
Q 1150 -91 751 415 
Q 353 922 353 1747 
Q 353 2572 751 3078 
Q 1150 3584 1784 3584 
Q 2172 3584 2448 3432 
Q 2725 3281 2906 2969 
z
M 947 1747 
Q 947 1113 1208 752 
Q 1469 391 1925 391 
Q 2381 391 2643 752 
Q 2906 1113 2906 1747 
Q 2906 2381 2643 2742 
Q 2381 3103 1925 3103 
Q 1469 3103 1208 2742 
Q 947 2381 947 1747 
z
" transform="scale(0.015625)"/>
     </defs>
     <use xlink:href="#DejaVuSans-31"/>
     <use xlink:href="#DejaVuSans-36" x="63.623047"/>
     <use xlink:href="#DejaVuSans-25" x="127.246094"/>
     <use xlink:href="#DejaVuSans-20" x="222.265625"/>
     <use xlink:href="#DejaVuSans-70" x="254.052734"/>
     <use xlink:href="#DejaVuSans-6f" x="317.529297"/>
     <use xlink:href="#DejaVuSans-6c" x="378.710938"/>
     <use xlink:href="#DejaVuSans-65" x="406.494141"/>
     <use xlink:href="#DejaVuSans-77" x="468.017578"/>
     <use xlink:href="#DejaVuSans-61" x="549.804688"/>
     <use xlink:href="#DejaVuSans-72" x="611.083984"/>
     <use xlink:href="#DejaVuSans-64" x="650.447266"/>
    </g>
    <!-- 52% eastward -->
    <g style="fill: #95a5a6" transform="translate(20.59793 277.566632) scale(0.1 -0.1)">
     <defs>
      <path id="DejaVuSans-32" d="M 1228 531 
L 3431 531 
L 3431 0 
L 469 0 
L 469 531 
Q 828 903 1448 1529 
Q 2069 2156 2228 2338 
Q 2531 2678 2651 2914 
Q 2772 3150 2772 3378 
Q 2772 3750 2511 3984 
Q 2250 4219 1831 4219 
Q 1534 4219 1204 4116 
Q 875 4013 500 3803 
L 500 4441 
Q 881 4594 1212 4672 
Q 1544 4750 1819 4750 
Q 2544 4750 2975 4387 
Q 3406 4025 3406 3419 
Q 3406 3131 3298 2873 
Q 3191 2616 2906 2266 
Q 2828 2175 2409 1742 
Q 1991 1309 1228 531 
z
" transform="scale(0.015625)"/>
     </defs>
     <use xlink:href="#DejaVuSans-35"/>
     <use xlink:href="#DejaVuSans-32" x="63.623047"/>
     <use xlink:href="#DejaVuSans-25" x="127.246094"/>
     <use xlink:href="#DejaVuSans-20" x="222.265625"/>
     <use xlink:href="#DejaVuSans-65" x="254.052734"/>
     <use xlink:href="#DejaVuSans-61" x="315.576172"/>
     <use xlink:href="#DejaVuSans-73" x="376.855469"/>
     <use xlink:href="#DejaVuSans-74" x="428.955078"/>
     <use xlink:href="#DejaVuSans-77" x="468.164062"/>
     <use xlink:href="#DejaVuSans-61" x="549.951172"/>
     <use xlink:href="#DejaVuSans-72" x="611.230469"/>
     <use xlink:href="#DejaVuSans-64" x="650.59375"/>
    </g>
   </g>
   <g id="text_8">
    <!-- elevation: -->
    <g style="fill: #95a5a6" transform="translate(218.699882 255.171007) scale(0.1 -0.1)">
     <use xlink:href="#DejaVuSans-65"/>
     <use xlink:href="#DejaVuSans-6c" x="61.523438"/>
     <use xlink:href="#DejaVuSans-65" x="89.306641"/>
     <use xlink:href="#DejaVuSans-76" x="150.830078"/>
     <use xlink:href="#DejaVuSans-61" x="210.009766"/>
     <use xlink:href="#DejaVuSans-74" x="271.289062"/>
     <use xlink:href="#DejaVuSans-69" x="310.498047"/>
     <use xlink:href="#DejaVuSans-6f" x="338.28125"/>
     <use xlink:href="#DejaVuSans-6e" x="399.462891"/>
     <use xlink:href="#DejaVuSans-3a" x="462.841797"/>
    </g>
    <!-- 494 m base -->
    <g style="fill: #95a5a6" transform="translate(210.512382 266.36882) scale(0.1 -0.1)">
     <defs>
      <path id="DejaVuSans-34" d="M 2419 4116 
L 825 1625 
L 2419 1625 
L 2419 4116 
z
M 2253 4666 
L 3047 4666 
L 3047 1625 
L 3713 1625 
L 3713 1100 
L 3047 1100 
L 3047 0 
L 2419 0 
L 2419 1100 
L 313 1100 
L 313 1709 
L 2253 4666 
z
" transform="scale(0.015625)"/>
      <path id="DejaVuSans-39" d="M 703 97 
L 703 672 
Q 941 559 1184 500 
Q 1428 441 1663 441 
Q 2288 441 2617 861 
Q 2947 1281 2994 2138 
Q 2813 1869 2534 1725 
Q 2256 1581 1919 1581 
Q 1219 1581 811 2004 
Q 403 2428 403 3163 
Q 403 3881 828 4315 
Q 1253 4750 1959 4750 
Q 2769 4750 3195 4129 
Q 3622 3509 3622 2328 
Q 3622 1225 3098 567 
Q 2575 -91 1691 -91 
Q 1453 -91 1209 -44 
Q 966 3 703 97 
z
M 1959 2075 
Q 2384 2075 2632 2365 
Q 2881 2656 2881 3163 
Q 2881 3666 2632 3958 
Q 2384 4250 1959 4250 
Q 1534 4250 1286 3958 
Q 1038 3666 1038 3163 
Q 1038 2656 1286 2365 
Q 1534 2075 1959 2075 
z
" transform="scale(0.015625)"/>
     </defs>
     <use xlink:href="#DejaVuSans-34"/>
     <use xlink:href="#DejaVuSans-39" x="63.623047"/>
     <use xlink:href="#DejaVuSans-34" x="127.246094"/>
     <use xlink:href="#DejaVuSans-202f" x="190.869141"/>
     <use xlink:href="#DejaVuSans-6d" x="210.839844"/>
     <use xlink:href="#DejaVuSans-20" x="308.251953"/>
     <use xlink:href="#DejaVuSans-62" x="340.039062"/>
     <use xlink:href="#DejaVuSans-61" x="403.515625"/>
     <use xlink:href="#DejaVuSans-73" x="464.794922"/>
     <use xlink:href="#DejaVuSans-65" x="516.894531"/>
    </g>
    <!-- 1,218 m peak -->
    <g style="fill: #95a5a6" transform="translate(200.390507 277.566632) scale(0.1 -0.1)">
     <use xlink:href="#DejaVuSans-31"/>
     <use xlink:href="#DejaVuSans-2c" x="63.623047"/>
     <use xlink:href="#DejaVuSans-32" x="95.410156"/>
     <use xlink:href="#DejaVuSans-31" x="159.033203"/>
     <use xlink:href="#DejaVuSans-38" x="222.65625"/>
     <use xlink:href="#DejaVuSans-202f" x="286.279297"/>
     <use xlink:href="#DejaVuSans-6d" x="306.25"/>
     <use xlink:href="#DejaVuSans-20" x="403.662109"/>
     <use xlink:href="#DejaVuSans-70" x="435.449219"/>
     <use xlink:href="#DejaVuSans-65" x="498.925781"/>
     <use xlink:href="#DejaVuSans-61" x="560.449219"/>
     <use xlink:href="#DejaVuSans-6b" x="621.728516"/>
    </g>
   </g>
   <g id="text_9">
    <!-- 瑞穂ハイランド, Mizuho Highland -->
    <g transform="translate(7.2 20.8) scale(0.16 -0.16)">
     <defs>
      <path id="NotoSansCJKjp-Bold-745e" d="M 205 794 
L 352 64 
C 902 211 1574 403 2202 589 
L 2106 1280 
L 1536 1126 
L 1536 2522 
L 2010 2522 
L 2010 3226 
L 1536 3226 
L 1536 4358 
L 2144 4358 
L 2144 5069 
L 243 5069 
L 243 4358 
L 838 4358 
L 838 3226 
L 288 3226 
L 288 2522 
L 838 2522 
L 838 941 
L 205 794 
z
M 3808 5440 
L 3808 4192 
L 3136 4192 
L 3136 5165 
L 2445 5165 
L 2445 3520 
L 5946 3520 
L 5946 5165 
L 5222 5165 
L 5222 4192 
L 4518 4192 
L 4518 5440 
L 3808 5440 
z
M 2355 2093 
L 2355 -576 
L 3046 -576 
L 3046 1446 
L 3398 1446 
L 3398 -518 
L 4013 -518 
L 4013 1446 
L 4390 1446 
L 4390 -518 
L 5005 -518 
L 5005 1446 
L 5389 1446 
L 5389 147 
C 5389 96 5370 83 5318 77 
C 5274 77 5146 77 5005 83 
C 5107 -96 5222 -390 5248 -595 
C 5510 -595 5702 -576 5869 -454 
C 6042 -339 6080 -141 6080 128 
L 6080 2093 
L 4384 2093 
L 4518 2502 
L 6157 2502 
L 6157 3187 
L 2208 3187 
L 2208 2502 
L 3757 2502 
L 3680 2093 
L 2355 2093 
z
" transform="scale(0.015625)"/>
      <path id="NotoSansCJKjp-Bold-7a42" d="M 2618 1267 
C 2528 819 2349 307 2106 -13 
L 2682 -326 
C 2938 32 3098 595 3206 1069 
L 2618 1267 
z
M 5030 1126 
C 5325 698 5587 102 5664 -294 
L 6298 -13 
C 6202 384 5926 960 5619 1376 
L 5030 1126 
z
M 2061 5344 
C 1606 5152 870 4979 198 4877 
C 288 4723 384 4461 416 4294 
C 627 4320 851 4352 1082 4390 
L 1082 3629 
L 237 3629 
L 237 2918 
L 998 2918 
C 794 2298 467 1606 134 1190 
C 250 998 422 678 493 454 
C 704 749 902 1152 1082 1594 
L 1082 -576 
L 1811 -576 
L 1811 1990 
C 1946 1760 2080 1523 2150 1357 
L 2592 1952 
C 2483 2099 1990 2669 1811 2835 
L 1811 2918 
L 2509 2918 
L 2509 3629 
L 1811 3629 
L 1811 4538 
C 2061 4595 2304 4666 2522 4742 
L 2522 4333 
L 3949 4333 
L 3949 3994 
L 2650 3994 
L 2650 1728 
L 3782 1728 
L 3520 1498 
C 3629 1440 3738 1363 3846 1286 
L 3258 1286 
L 3258 282 
C 3258 -326 3398 -531 4045 -531 
C 4166 -531 4544 -531 4672 -531 
C 5158 -531 5338 -339 5414 422 
C 5222 474 4928 576 4794 685 
C 4774 179 4736 109 4595 109 
C 4512 109 4218 109 4147 109 
C 3994 109 3968 128 3968 294 
L 3968 1197 
C 4160 1056 4333 896 4442 762 
L 4922 1216 
C 4774 1376 4525 1568 4269 1728 
L 6010 1728 
L 6010 3994 
L 4666 3994 
L 4666 4333 
L 6086 4333 
L 6086 4960 
L 4666 4960 
L 4666 5440 
L 3949 5440 
L 3949 4960 
L 2522 4960 
L 2522 4858 
L 2061 5344 
z
M 3322 2611 
L 3949 2611 
L 3949 2266 
L 3322 2266 
L 3322 2611 
z
M 4666 2611 
L 5306 2611 
L 5306 2266 
L 4666 2266 
L 4666 2611 
z
M 3322 3456 
L 3949 3456 
L 3949 3117 
L 3322 3117 
L 3322 3456 
z
M 4666 3456 
L 5306 3456 
L 5306 3117 
L 4666 3117 
L 4666 3456 
z
" transform="scale(0.015625)"/>
      <path id="NotoSansCJKjp-Bold-30cf" d="M 1312 2112 
C 1094 1549 717 858 320 333 
L 1216 -45 
C 1549 435 1926 1165 2157 1786 
C 2381 2381 2611 3258 2701 3712 
C 2726 3853 2803 4166 2854 4352 
L 1920 4544 
C 1843 3725 1600 2822 1312 2112 
z
M 4474 2246 
C 4730 1555 4960 742 5139 -13 
L 6086 294 
C 5907 928 5568 1946 5344 2528 
C 5101 3142 4659 4128 4397 4627 
L 3546 4352 
C 3814 3859 4230 2918 4474 2246 
z
" transform="scale(0.015625)"/>
      <path id="NotoSansCJKjp-Bold-30a4" d="M 397 2490 
L 800 1683 
C 1587 1914 2400 2259 3059 2605 
L 3059 557 
C 3059 275 3034 -128 3014 -282 
L 4026 -282 
C 3981 -122 3968 275 3968 557 
L 3968 3142 
C 4589 3552 5203 4051 5690 4531 
L 4998 5190 
C 4582 4685 3853 4045 3194 3635 
C 2483 3200 1542 2784 397 2490 
z
" transform="scale(0.015625)"/>
      <path id="NotoSansCJKjp-Bold-30e9" d="M 1427 4909 
L 1427 4083 
C 1613 4096 1888 4102 2093 4102 
C 2477 4102 4186 4102 4544 4102 
C 4774 4102 5075 4096 5248 4083 
L 5248 4909 
C 5069 4883 4755 4877 4557 4877 
C 4186 4877 2496 4877 2093 4877 
C 1875 4877 1606 4883 1427 4909 
z
M 5786 3053 
L 5216 3405 
C 5126 3366 4954 3341 4749 3341 
C 4307 3341 2022 3341 1581 3341 
C 1382 3341 1107 3360 838 3379 
L 838 2547 
C 1107 2573 1427 2579 1581 2579 
C 2157 2579 4346 2579 4672 2579 
C 4557 2221 4358 1824 4013 1472 
C 3526 973 2758 550 1798 352 
L 2432 -371 
C 3251 -141 4070 294 4717 1011 
C 5197 1542 5472 2163 5664 2784 
C 5690 2854 5741 2970 5786 3053 
z
" transform="scale(0.015625)"/>
      <path id="NotoSansCJKjp-Bold-30f3" d="M 1542 4864 
L 941 4224 
C 1408 3898 2208 3200 2541 2842 
L 3194 3507 
C 2822 3898 1990 4563 1542 4864 
z
M 742 602 
L 1280 -243 
C 2182 -90 3008 269 3654 659 
C 4685 1280 5536 2163 6022 3027 
L 5523 3930 
C 5120 3066 4288 2086 3194 1440 
C 2573 1069 1741 742 742 602 
z
" transform="scale(0.015625)"/>
      <path id="NotoSansCJKjp-Bold-30c9" d="M 4365 4762 
L 3827 4538 
C 4064 4205 4205 3949 4390 3546 
L 4947 3795 
C 4800 4083 4544 4493 4365 4762 
z
M 5203 5114 
L 4672 4864 
C 4909 4544 5062 4307 5267 3904 
L 5805 4166 
C 5658 4454 5389 4858 5203 5114 
z
M 1811 518 
C 1811 269 1786 -122 1747 -371 
L 2752 -371 
C 2720 -109 2688 339 2688 518 
L 2688 2330 
C 3379 2099 4339 1728 5005 1376 
L 5363 2266 
C 4774 2554 3539 3008 2688 3264 
L 2688 4198 
C 2688 4467 2720 4749 2746 4973 
L 1747 4973 
C 1792 4742 1811 4429 1811 4198 
C 1811 3661 1811 1011 1811 518 
z
" transform="scale(0.015625)"/>
      <path id="DejaVuSans-Bold-2c" d="M 653 1209 
L 1778 1209 
L 1778 256 
L 1006 -909 
L 341 -909 
L 653 256 
L 653 1209 
z
" transform="scale(0.015625)"/>
      <path id="DejaVuSans-Bold-20" transform="scale(0.015625)"/>
      <path id="DejaVuSans-Bold-4d" d="M 588 4666 
L 2119 4666 
L 3181 2169 
L 4250 4666 
L 5778 4666 
L 5778 0 
L 4641 0 
L 4641 3413 
L 3566 897 
L 2803 897 
L 1728 3413 
L 1728 0 
L 588 0 
L 588 4666 
z
" transform="scale(0.015625)"/>
      <path id="DejaVuSans-Bold-69" d="M 538 3500 
L 1656 3500 
L 1656 0 
L 538 0 
L 538 3500 
z
M 538 4863 
L 1656 4863 
L 1656 3950 
L 538 3950 
L 538 4863 
z
" transform="scale(0.015625)"/>
      <path id="DejaVuSans-Bold-7a" d="M 366 3500 
L 3419 3500 
L 3419 2719 
L 1575 800 
L 3419 800 
L 3419 0 
L 288 0 
L 288 781 
L 2131 2700 
L 366 2700 
L 366 3500 
z
" transform="scale(0.015625)"/>
      <path id="DejaVuSans-Bold-75" d="M 500 1363 
L 500 3500 
L 1625 3500 
L 1625 3150 
Q 1625 2866 1622 2436 
Q 1619 2006 1619 1863 
Q 1619 1441 1641 1255 
Q 1663 1069 1716 984 
Q 1784 875 1895 815 
Q 2006 756 2150 756 
Q 2500 756 2700 1025 
Q 2900 1294 2900 1772 
L 2900 3500 
L 4019 3500 
L 4019 0 
L 2900 0 
L 2900 506 
Q 2647 200 2364 54 
Q 2081 -91 1741 -91 
Q 1134 -91 817 281 
Q 500 653 500 1363 
z
" transform="scale(0.015625)"/>
      <path id="DejaVuSans-Bold-68" d="M 4056 2131 
L 4056 0 
L 2931 0 
L 2931 347 
L 2931 1625 
Q 2931 2084 2911 2256 
Q 2891 2428 2841 2509 
Q 2775 2619 2662 2680 
Q 2550 2741 2406 2741 
Q 2056 2741 1856 2470 
Q 1656 2200 1656 1722 
L 1656 0 
L 538 0 
L 538 4863 
L 1656 4863 
L 1656 2988 
Q 1909 3294 2193 3439 
Q 2478 3584 2822 3584 
Q 3428 3584 3742 3212 
Q 4056 2841 4056 2131 
z
" transform="scale(0.015625)"/>
      <path id="DejaVuSans-Bold-6f" d="M 2203 2784 
Q 1831 2784 1636 2517 
Q 1441 2250 1441 1747 
Q 1441 1244 1636 976 
Q 1831 709 2203 709 
Q 2569 709 2762 976 
Q 2956 1244 2956 1747 
Q 2956 2250 2762 2517 
Q 2569 2784 2203 2784 
z
M 2203 3584 
Q 3106 3584 3614 3096 
Q 4122 2609 4122 1747 
Q 4122 884 3614 396 
Q 3106 -91 2203 -91 
Q 1297 -91 786 396 
Q 275 884 275 1747 
Q 275 2609 786 3096 
Q 1297 3584 2203 3584 
z
" transform="scale(0.015625)"/>
      <path id="DejaVuSans-Bold-48" d="M 588 4666 
L 1791 4666 
L 1791 2888 
L 3566 2888 
L 3566 4666 
L 4769 4666 
L 4769 0 
L 3566 0 
L 3566 1978 
L 1791 1978 
L 1791 0 
L 588 0 
L 588 4666 
z
" transform="scale(0.015625)"/>
      <path id="DejaVuSans-Bold-67" d="M 2919 594 
Q 2688 288 2409 144 
Q 2131 0 1766 0 
Q 1125 0 706 504 
Q 288 1009 288 1791 
Q 288 2575 706 3076 
Q 1125 3578 1766 3578 
Q 2131 3578 2409 3434 
Q 2688 3291 2919 2981 
L 2919 3500 
L 4044 3500 
L 4044 353 
Q 4044 -491 3511 -936 
Q 2978 -1381 1966 -1381 
Q 1638 -1381 1331 -1331 
Q 1025 -1281 716 -1178 
L 716 -306 
Q 1009 -475 1290 -558 
Q 1572 -641 1856 -641 
Q 2406 -641 2662 -400 
Q 2919 -159 2919 353 
L 2919 594 
z
M 2181 2772 
Q 1834 2772 1640 2515 
Q 1447 2259 1447 1791 
Q 1447 1309 1634 1061 
Q 1822 813 2181 813 
Q 2531 813 2725 1069 
Q 2919 1325 2919 1791 
Q 2919 2259 2725 2515 
Q 2531 2772 2181 2772 
z
" transform="scale(0.015625)"/>
      <path id="DejaVuSans-Bold-6c" d="M 538 4863 
L 1656 4863 
L 1656 0 
L 538 0 
L 538 4863 
z
" transform="scale(0.015625)"/>
      <path id="DejaVuSans-Bold-61" d="M 2106 1575 
Q 1756 1575 1579 1456 
Q 1403 1338 1403 1106 
Q 1403 894 1545 773 
Q 1688 653 1941 653 
Q 2256 653 2472 879 
Q 2688 1106 2688 1447 
L 2688 1575 
L 2106 1575 
z
M 3816 1997 
L 3816 0 
L 2688 0 
L 2688 519 
Q 2463 200 2181 54 
Q 1900 -91 1497 -91 
Q 953 -91 614 226 
Q 275 544 275 1050 
Q 275 1666 698 1953 
Q 1122 2241 2028 2241 
L 2688 2241 
L 2688 2328 
Q 2688 2594 2478 2717 
Q 2269 2841 1825 2841 
Q 1466 2841 1156 2769 
Q 847 2697 581 2553 
L 581 3406 
Q 941 3494 1303 3539 
Q 1666 3584 2028 3584 
Q 2975 3584 3395 3211 
Q 3816 2838 3816 1997 
z
" transform="scale(0.015625)"/>
      <path id="DejaVuSans-Bold-6e" d="M 4056 2131 
L 4056 0 
L 2931 0 
L 2931 347 
L 2931 1631 
Q 2931 2084 2911 2256 
Q 2891 2428 2841 2509 
Q 2775 2619 2662 2680 
Q 2550 2741 2406 2741 
Q 2056 2741 1856 2470 
Q 1656 2200 1656 1722 
L 1656 0 
L 538 0 
L 538 3500 
L 1656 3500 
L 1656 2988 
Q 1909 3294 2193 3439 
Q 2478 3584 2822 3584 
Q 3428 3584 3742 3212 
Q 4056 2841 4056 2131 
z
" transform="scale(0.015625)"/>
      <path id="DejaVuSans-Bold-64" d="M 2919 2988 
L 2919 4863 
L 4044 4863 
L 4044 0 
L 2919 0 
L 2919 506 
Q 2688 197 2409 53 
Q 2131 -91 1766 -91 
Q 1119 -91 703 423 
Q 288 938 288 1747 
Q 288 2556 703 3070 
Q 1119 3584 1766 3584 
Q 2128 3584 2408 3439 
Q 2688 3294 2919 2988 
z
M 2181 722 
Q 2541 722 2730 984 
Q 2919 1247 2919 1747 
Q 2919 2247 2730 2509 
Q 2541 2772 2181 2772 
Q 1825 2772 1636 2509 
Q 1447 2247 1447 1747 
Q 1447 1247 1636 984 
Q 1825 722 2181 722 
z
" transform="scale(0.015625)"/>
     </defs>
     <use xlink:href="#NotoSansCJKjp-Bold-745e"/>
     <use xlink:href="#NotoSansCJKjp-Bold-7a42" x="99.999985"/>
     <use xlink:href="#NotoSansCJKjp-Bold-30cf" x="199.999969"/>
     <use xlink:href="#NotoSansCJKjp-Bold-30a4" x="299.999954"/>
     <use xlink:href="#NotoSansCJKjp-Bold-30e9" x="399.999939"/>
     <use xlink:href="#NotoSansCJKjp-Bold-30f3" x="499.999924"/>
     <use xlink:href="#NotoSansCJKjp-Bold-30c9" x="599.999908"/>
     <use xlink:href="#DejaVuSans-Bold-2c" x="699.999893"/>
     <use xlink:href="#DejaVuSans-Bold-20" x="737.988174"/>
     <use xlink:href="#DejaVuSans-Bold-4d" x="772.802628"/>
     <use xlink:href="#DejaVuSans-Bold-69" x="872.314346"/>
     <use xlink:href="#DejaVuSans-Bold-7a" x="906.59169"/>
     <use xlink:href="#DejaVuSans-Bold-75" x="964.794815"/>
     <use xlink:href="#DejaVuSans-Bold-68" x="1035.986221"/>
     <use xlink:href="#DejaVuSans-Bold-6f" x="1107.177628"/>
     <use xlink:href="#DejaVuSans-Bold-20" x="1175.878799"/>
     <use xlink:href="#DejaVuSans-Bold-48" x="1210.693253"/>
     <use xlink:href="#DejaVuSans-Bold-69" x="1294.384659"/>
     <use xlink:href="#DejaVuSans-Bold-67" x="1328.662003"/>
     <use xlink:href="#DejaVuSans-Bold-68" x="1400.244034"/>
     <use xlink:href="#DejaVuSans-Bold-6c" x="1471.43544"/>
     <use xlink:href="#DejaVuSans-Bold-61" x="1505.712784"/>
     <use xlink:href="#DejaVuSans-Bold-6e" x="1573.193253"/>
     <use xlink:href="#DejaVuSans-Bold-64" x="1644.384659"/>
    </g>
   </g>
  </g>
 </g>
 <defs>
  <clipPath id="p0c2ef4e92e">
   <path d="M 255.35625 155.768 
C 255.35625 141.207372 252.488124 126.788327 246.916013 113.336061 
C 241.343901 99.883795 233.176169 87.659919 222.88025 77.364 
C 212.584331 67.068081 200.360455 58.900349 186.908189 53.328237 
C 173.455923 47.756126 159.036878 44.888 144.47625 44.888 
C 129.915622 44.888 115.496577 47.756126 102.044311 53.328237 
C 88.592045 58.900349 76.368169 67.068081 66.07225 77.364 
C 55.776331 87.659919 47.608599 99.883795 42.036487 113.336061 
C 36.464376 126.788327 33.59625 141.207372 33.59625 155.768 
C 33.59625 170.328628 36.464376 184.747673 42.036487 198.199939 
C 47.608599 211.652205 55.776331 223.876081 66.07225 234.172 
C 76.368169 244.467919 88.592045 252.635651 102.044311 258.207763 
C 115.496577 263.779874 129.915622 266.648 144.47625 266.648 
C 159.036878 266.648 173.455923 263.779874 186.908189 258.207763 
C 200.360455 252.635651 212.584331 244.467919 222.88025 234.172 
C 233.176169 223.876081 241.343901 211.652205 246.916013 198.199939 
C 252.488124 184.747673 255.35625 170.328628 255.35625 155.768 
M 144.47625 155.768 
C 144.47625 155.768 144.47625 155.768 144.47625 155.768 
C 144.47625 155.768 144.47625 155.768 144.47625 155.768 
C 144.47625 155.768 144.47625 155.768 144.47625 155.768 
C 144.47625 155.768 144.47625 155.768 144.47625 155.768 
C 144.47625 155.768 144.47625 155.768 144.47625 155.768 
C 144.47625 155.768 144.47625 155.768 144.47625 155.768 
C 144.47625 155.768 144.47625 155.768 144.47625 155.768 
C 144.47625 155.768 144.47625 155.768 144.47625 155.768 
C 144.47625 155.768 144.47625 155.768 144.47625 155.768 
C 144.47625 155.768 144.47625 155.768 144.47625 155.768 
C 144.47625 155.768 144.47625 155.768 144.47625 155.768 
C 144.47625 155.768 144.47625 155.768 144.47625 155.768 
C 144.47625 155.768 144.47625 155.768 144.47625 155.768 
C 144.47625 155.768 144.47625 155.768 144.47625 155.768 
C 144.47625 155.768 144.47625 155.768 144.47625 155.768 
C 144.47625 155.768 144.47625 155.768 144.47625 155.768 
z
"/>
  </clipPath>
 </defs>
</svg>
