<?xml version="1.0" encoding="utf-8" standalone="no"?>
<!DOCTYPE svg PUBLIC "-//W3C//DTD SVG 1.1//EN"
  "http://www.w3.org/Graphics/SVG/1.1/DTD/svg11.dtd">
<svg xmlns:xlink="http://www.w3.org/1999/xlink" width="277.205pt" height="285.762063pt" viewBox="0 0 277.205 285.762063" xmlns="http://www.w3.org/2000/svg" version="1.1">
 <title>Ski Rose for Ontake 2240 (長野県のスキー場)</title>
 <metadata>
  <rdf:RDF xmlns:dc="http://purl.org/dc/elements/1.1/" xmlns:cc="http://creativecommons.org/ns#" xmlns:rdf="http://www.w3.org/1999/02/22-rdf-syntax-ns#">
   <cc:Work>
    <dc:type rdf:resource="http://purl.org/dc/dcmitype/StillImage"/>
    <dc:title>Ski Rose for Ontake 2240 (長野県のスキー場)</dc:title>
    <dc:date>2024-12-20T01:54:10.372011</dc:date>
    <dc:description>A 32-bin histogram of downhill ski trail orientations generated from &lt;https://openskimap.org/?obj=86191ba2e1b2733884ffadda5f032a628b5032d7&gt;.</dc:description>
    <dc:format>image/svg+xml</dc:format>
    <dc:creator>
     <cc:Agent>
      <dc:title>https://github.com/dhimmel/openskistats</dc:title>
     </cc:Agent>
    </dc:creator>
   </cc:Work>
  </rdf:RDF>
 </metadata>
 <defs>
  <style type="text/css">*{stroke-linejoin: round; stroke-linecap: butt}</style>
 </defs>
 <g id="figure_1">
  <g id="patch_1">
   <path d="M 0 285.762063 
L 277.205 285.762063 
L 277.205 0 
L 0 0 
z
" style="fill: #ffffff"/>
  </g>
  <g id="axes_1">
   <g id="patch_2">
    <path d="M 249.4825 154.343 
C 249.4825 139.782372 246.614374 125.363327 241.042263 111.911061 
C 235.470151 98.458795 227.302419 86.234919 217.0065 75.939 
C 206.710581 65.643081 194.486705 57.475349 181.034439 51.903237 
C 167.582173 46.331126 153.163128 43.463 138.6025 43.463 
C 124.041872 43.463 109.622827 46.331126 96.170561 51.903237 
C 82.718295 57.475349 70.494419 65.643081 60.1985 75.939 
C 49.902581 86.234919 41.734849 98.458795 36.162737 111.911061 
C 30.590626 125.363327 27.7225 139.782372 27.7225 154.343 
C 27.7225 168.903628 30.590626 183.322673 36.162737 196.774939 
C 41.734849 210.227205 49.902581 222.451081 60.1985 232.747 
C 70.494419 243.042919 82.718295 251.210651 96.170561 256.782763 
C 109.622827 262.354874 124.041872 265.223 138.6025 265.223 
C 153.163128 265.223 167.582173 262.354874 181.034439 256.782763 
C 194.486705 251.210651 206.710581 243.042919 217.0065 232.747 
C 227.302419 222.451081 235.470151 210.227205 241.042263 196.774939 
C 246.614374 183.322673 249.4825 168.903628 249.4825 154.343 
M 138.6025 154.343 
C 138.6025 154.343 138.6025 154.343 138.6025 154.343 
C 138.6025 154.343 138.6025 154.343 138.6025 154.343 
C 138.6025 154.343 138.6025 154.343 138.6025 154.343 
C 138.6025 154.343 138.6025 154.343 138.6025 154.343 
C 138.6025 154.343 138.6025 154.343 138.6025 154.343 
C 138.6025 154.343 138.6025 154.343 138.6025 154.343 
C 138.6025 154.343 138.6025 154.343 138.6025 154.343 
C 138.6025 154.343 138.6025 154.343 138.6025 154.343 
C 138.6025 154.343 138.6025 154.343 138.6025 154.343 
C 138.6025 154.343 138.6025 154.343 138.6025 154.343 
C 138.6025 154.343 138.6025 154.343 138.6025 154.343 
C 138.6025 154.343 138.6025 154.343 138.6025 154.343 
C 138.6025 154.343 138.6025 154.343 138.6025 154.343 
C 138.6025 154.343 138.6025 154.343 138.6025 154.343 
C 138.6025 154.343 138.6025 154.343 138.6025 154.343 
C 138.6025 154.343 138.6025 154.343 138.6025 154.343 
z
" style="fill: #ffffff"/>
   </g>
   <g id="matplotlib.axis_1">
    <g id="xtick_1">
     <g id="line2d_1">
      <path d="M 138.6025 154.343 
L 138.6025 43.463 
" clip-path="url(#p9ef7503e6e)" style="fill: none; stroke: #b0b0b0; stroke-width: 0.8; stroke-linecap: square"/>
     </g>
     <g id="text_1">
      <!-- N -->
      <g transform="translate(134.418125 37.722375) scale(0.1 -0.1)">
       <defs>
        <path id="DejaVuSans-Bold-4e" d="M 588 4666 
L 1931 4666 
L 3628 1466 
L 3628 4666 
L 4769 4666 
L 4769 0 
L 3425 0 
L 1728 3200 
L 1728 0 
L 588 0 
L 588 4666 
z
" transform="scale(0.015625)"/>
       </defs>
       <use xlink:href="#DejaVuSans-Bold-4e"/>
      </g>
     </g>
    </g>
    <g id="xtick_2">
     <g id="line2d_2">
      <path d="M 138.6025 154.343 
L 217.0065 75.939 
" clip-path="url(#p9ef7503e6e)" style="fill: none; stroke: #b0b0b0; stroke-width: 0.8; stroke-linecap: square"/>
     </g>
    </g>
    <g id="xtick_3">
     <g id="line2d_3">
      <path d="M 138.6025 154.343 
L 249.4825 154.343 
" clip-path="url(#p9ef7503e6e)" style="fill: none; stroke: #b0b0b0; stroke-width: 0.8; stroke-linecap: square"/>
     </g>
     <g id="text_2">
      <!-- E -->
      <g transform="translate(254.566875 157.102375) scale(0.1 -0.1)">
       <defs>
        <path id="DejaVuSans-Bold-45" d="M 588 4666 
L 3834 4666 
L 3834 3756 
L 1791 3756 
L 1791 2888 
L 3713 2888 
L 3713 1978 
L 1791 1978 
L 1791 909 
L 3903 909 
L 3903 0 
L 588 0 
L 588 4666 
z
" transform="scale(0.015625)"/>
       </defs>
       <use xlink:href="#DejaVuSans-Bold-45"/>
      </g>
     </g>
    </g>
    <g id="xtick_4">
     <g id="line2d_4">
      <path d="M 138.6025 154.343 
L 217.0065 232.747 
" clip-path="url(#p9ef7503e6e)" style="fill: none; stroke: #b0b0b0; stroke-width: 0.8; stroke-linecap: square"/>
     </g>
    </g>
    <g id="xtick_5">
     <g id="line2d_5">
      <path d="M 138.6025 154.343 
L 138.6025 265.223 
" clip-path="url(#p9ef7503e6e)" style="fill: none; stroke: #b0b0b0; stroke-width: 0.8; stroke-linecap: square"/>
     </g>
     <g id="text_3">
      <!-- S -->
      <g transform="translate(135.001719 276.482375) scale(0.1 -0.1)">
       <defs>
        <path id="DejaVuSans-Bold-53" d="M 3834 4519 
L 3834 3531 
Q 3450 3703 3084 3790 
Q 2719 3878 2394 3878 
Q 1963 3878 1756 3759 
Q 1550 3641 1550 3391 
Q 1550 3203 1689 3098 
Q 1828 2994 2194 2919 
L 2706 2816 
Q 3484 2659 3812 2340 
Q 4141 2022 4141 1434 
Q 4141 663 3683 286 
Q 3225 -91 2284 -91 
Q 1841 -91 1394 -6 
Q 947 78 500 244 
L 500 1259 
Q 947 1022 1364 901 
Q 1781 781 2169 781 
Q 2563 781 2772 912 
Q 2981 1044 2981 1288 
Q 2981 1506 2839 1625 
Q 2697 1744 2272 1838 
L 1806 1941 
Q 1106 2091 782 2419 
Q 459 2747 459 3303 
Q 459 4000 909 4375 
Q 1359 4750 2203 4750 
Q 2588 4750 2994 4692 
Q 3400 4634 3834 4519 
z
" transform="scale(0.015625)"/>
       </defs>
       <use xlink:href="#DejaVuSans-Bold-53"/>
      </g>
     </g>
    </g>
    <g id="xtick_6">
     <g id="line2d_6">
      <path d="M 138.6025 154.343 
L 60.1985 232.747 
" clip-path="url(#p9ef7503e6e)" style="fill: none; stroke: #b0b0b0; stroke-width: 0.8; stroke-linecap: square"/>
     </g>
    </g>
    <g id="xtick_7">
     <g id="line2d_7">
      <path d="M 138.6025 154.343 
L 27.7225 154.343 
" clip-path="url(#p9ef7503e6e)" style="fill: none; stroke: #b0b0b0; stroke-width: 0.8; stroke-linecap: square"/>
     </g>
     <g id="text_4">
      <!-- W -->
      <g transform="translate(13.707656 157.102375) scale(0.1 -0.1)">
       <defs>
        <path id="DejaVuSans-Bold-57" d="M 191 4666 
L 1344 4666 
L 2150 1275 
L 2950 4666 
L 4109 4666 
L 4909 1275 
L 5716 4666 
L 6859 4666 
L 5759 0 
L 4372 0 
L 3525 3547 
L 2688 0 
L 1300 0 
L 191 4666 
z
" transform="scale(0.015625)"/>
       </defs>
       <use xlink:href="#DejaVuSans-Bold-57"/>
      </g>
     </g>
    </g>
    <g id="xtick_8">
     <g id="line2d_8">
      <path d="M 138.6025 154.343 
L 60.1985 75.939 
" clip-path="url(#p9ef7503e6e)" style="fill: none; stroke: #b0b0b0; stroke-width: 0.8; stroke-linecap: square"/>
     </g>
    </g>
   </g>
   <g id="matplotlib.axis_2"/>
   <g id="patch_3">
    <path d="M 138.6025 154.343 
C 138.6025 154.343 138.6025 154.343 138.6025 154.343 
C 138.6025 154.343 138.6025 154.343 138.6025 154.343 
L 138.6025 154.343 
C 138.6025 154.343 138.6025 154.343 138.6025 154.343 
C 138.6025 154.343 138.6025 154.343 138.6025 154.343 
z
" clip-path="url(#p9ef7503e6e)" style="fill: #d4a0a7; stroke: #000000; stroke-width: 0.5; stroke-linejoin: miter"/>
   </g>
   <g id="patch_4">
    <path d="M 138.6025 154.343 
C 138.6025 154.343 138.6025 154.343 138.6025 154.343 
C 138.6025 154.343 138.6025 154.343 138.6025 154.343 
L 143.755038 137.35736 
C 143.199072 137.18871 142.635162 137.047457 142.065343 136.934113 
C 141.495524 136.820769 140.920484 136.73547 140.342299 136.678524 
z
" clip-path="url(#p9ef7503e6e)" style="fill: #d4a0a7; stroke: #000000; stroke-width: 0.5; stroke-linejoin: miter"/>
   </g>
   <g id="patch_5">
    <path d="M 138.6025 154.343 
C 138.6025 154.343 138.6025 154.343 138.6025 154.343 
C 138.6025 154.343 138.6025 154.343 138.6025 154.343 
L 148.15609 136.469489 
C 147.571064 136.156786 146.971037 135.872995 146.358177 135.61914 
C 145.745317 135.365285 145.120363 135.141673 144.485572 134.949111 
z
" clip-path="url(#p9ef7503e6e)" style="fill: #d4a0a7; stroke: #000000; stroke-width: 0.5; stroke-linejoin: miter"/>
   </g>
   <g id="patch_6">
    <path d="M 138.6025 154.343 
C 138.6025 154.343 138.6025 154.343 138.6025 154.343 
C 138.6025 154.343 138.6025 154.343 138.6025 154.343 
L 152.852371 136.979482 
C 152.284037 136.513062 151.693146 136.074827 151.081832 135.66636 
C 150.470518 135.257893 149.839517 134.879686 149.19111 134.533105 
z
" clip-path="url(#p9ef7503e6e)" style="fill: #d4a0a7; stroke: #000000; stroke-width: 0.5; stroke-linejoin: miter"/>
   </g>
   <g id="patch_7">
    <path d="M 138.6025 154.343 
C 138.6025 154.343 138.6025 154.343 138.6025 154.343 
C 138.6025 154.343 138.6025 154.343 138.6025 154.343 
L 154.138455 141.592971 
C 153.721128 141.084456 153.279085 140.596737 152.813924 140.131576 
C 152.348763 139.666415 151.861044 139.224372 151.352529 138.807045 
z
" clip-path="url(#p9ef7503e6e)" style="fill: #d4a0a7; stroke: #000000; stroke-width: 0.5; stroke-linejoin: miter"/>
   </g>
   <g id="patch_8">
    <path d="M 138.6025 154.343 
C 138.6025 154.343 138.6025 154.343 138.6025 154.343 
C 138.6025 154.343 138.6025 154.343 138.6025 154.343 
L 157.619345 144.178285 
C 157.286639 143.555835 156.923572 142.950095 156.531457 142.363254 
C 156.139342 141.776412 155.718651 141.209176 155.270904 140.663594 
z
" clip-path="url(#p9ef7503e6e)" style="fill: #d4a0a7; stroke: #000000; stroke-width: 0.5; stroke-linejoin: miter"/>
   </g>
   <g id="patch_9">
    <path d="M 138.6025 154.343 
C 138.6025 154.343 138.6025 154.343 138.6025 154.343 
C 138.6025 154.343 138.6025 154.343 138.6025 154.343 
L 173.55993 143.73878 
C 173.212838 142.594571 172.809778 141.468093 172.352205 140.363415 
C 171.894632 139.258736 171.383099 138.177189 170.819452 137.12268 
z
" clip-path="url(#p9ef7503e6e)" style="fill: #d4a0a7; stroke: #000000; stroke-width: 0.5; stroke-linejoin: miter"/>
   </g>
   <g id="patch_10">
    <path d="M 138.6025 154.343 
C 138.6025 154.343 138.6025 154.343 138.6025 154.343 
C 138.6025 154.343 138.6025 154.343 138.6025 154.343 
L 190.67856 149.213956 
C 190.510679 147.509429 190.259211 145.814171 189.925065 144.134307 
C 189.59092 142.454443 189.174499 140.791997 188.677306 139.152974 
z
" clip-path="url(#p9ef7503e6e)" style="fill: #d4a0a7; stroke: #000000; stroke-width: 0.5; stroke-linejoin: miter"/>
   </g>
   <g id="patch_11">
    <path d="M 138.6025 154.343 
C 138.6025 154.343 138.6025 154.343 138.6025 154.343 
C 138.6025 154.343 138.6025 154.343 138.6025 154.343 
L 223.376184 162.692479 
C 223.649475 159.91771 223.786367 157.131195 223.786367 154.343 
C 223.786367 151.554805 223.649475 148.76829 223.376184 145.993521 
z
" clip-path="url(#p9ef7503e6e)" style="fill: #d4a0a7; stroke: #000000; stroke-width: 0.5; stroke-linejoin: miter"/>
   </g>
   <g id="patch_12">
    <path d="M 138.6025 154.343 
C 138.6025 154.343 138.6025 154.343 138.6025 154.343 
C 138.6025 154.343 138.6025 154.343 138.6025 154.343 
L 244.708044 186.529765 
C 245.761565 183.056772 246.643937 179.534148 247.351972 175.974615 
C 248.060007 172.415082 248.592852 168.822933 248.948582 165.211141 
z
" clip-path="url(#p9ef7503e6e)" style="fill: #d4a0a7; stroke: #000000; stroke-width: 0.5; stroke-linejoin: miter"/>
   </g>
   <g id="patch_13">
    <path d="M 138.6025 154.343 
C 138.6025 154.343 138.6025 154.343 138.6025 154.343 
C 138.6025 154.343 138.6025 154.343 138.6025 154.343 
L 232.513173 204.5393 
C 234.156172 201.465464 235.647265 198.312813 236.981065 195.092736 
C 238.314865 191.872658 239.489763 188.589036 240.501518 185.253729 
z
" clip-path="url(#p9ef7503e6e)" style="fill: #d4a0a7; stroke: #000000; stroke-width: 0.5; stroke-linejoin: miter"/>
   </g>
   <g id="patch_14">
    <path d="M 138.6025 154.343 
C 138.6025 154.343 138.6025 154.343 138.6025 154.343 
C 138.6025 154.343 138.6025 154.343 138.6025 154.343 
L 200.705664 205.30975 
C 202.373882 203.27702 203.941293 201.163611 205.402235 198.977156 
C 206.863178 196.790701 208.215891 194.533836 209.455489 192.214711 
z
" clip-path="url(#p9ef7503e6e)" style="fill: #d4a0a7; stroke: #000000; stroke-width: 0.5; stroke-linejoin: miter"/>
   </g>
   <g id="patch_15">
    <path d="M 138.6025 154.343 
C 138.6025 154.343 138.6025 154.343 138.6025 154.343 
C 138.6025 154.343 138.6025 154.343 138.6025 154.343 
L 181.124394 206.156078 
C 182.820314 204.764273 184.446877 203.290042 185.99821 201.73871 
C 187.549542 200.187377 189.023773 198.560814 190.415578 196.864894 
z
" clip-path="url(#p9ef7503e6e)" style="fill: #d4a0a7; stroke: #000000; stroke-width: 0.5; stroke-linejoin: miter"/>
   </g>
   <g id="patch_16">
    <path d="M 138.6025 154.343 
C 138.6025 154.343 138.6025 154.343 138.6025 154.343 
C 138.6025 154.343 138.6025 154.343 138.6025 154.343 
L 164.236222 202.300321 
C 165.805937 201.461291 167.333511 200.545698 168.813428 199.556849 
C 170.293345 198.568 171.72382 197.507088 173.099686 196.377943 
z
" clip-path="url(#p9ef7503e6e)" style="fill: #d4a0a7; stroke: #000000; stroke-width: 0.5; stroke-linejoin: miter"/>
   </g>
   <g id="patch_17">
    <path d="M 138.6025 154.343 
C 138.6025 154.343 138.6025 154.343 138.6025 154.343 
C 138.6025 154.343 138.6025 154.343 138.6025 154.343 
L 152.648513 200.646499 
C 154.164095 200.186752 155.656192 199.652871 157.119414 199.046785 
C 158.582636 198.440699 160.015218 197.763138 161.411987 197.016549 
z
" clip-path="url(#p9ef7503e6e)" style="fill: #d4a0a7; stroke: #000000; stroke-width: 0.5; stroke-linejoin: miter"/>
   </g>
   <g id="patch_18">
    <path d="M 138.6025 154.343 
C 138.6025 154.343 138.6025 154.343 138.6025 154.343 
C 138.6025 154.343 138.6025 154.343 138.6025 154.343 
L 143.320131 202.241909 
C 144.887934 202.087494 146.44721 201.856197 147.992328 201.548854 
C 149.537446 201.241511 151.066543 200.858492 152.574096 200.401181 
z
" clip-path="url(#p9ef7503e6e)" style="fill: #d4a0a7; stroke: #000000; stroke-width: 0.5; stroke-linejoin: miter"/>
   </g>
   <g id="patch_19">
    <path d="M 138.6025 154.343 
C 138.6025 154.343 138.6025 154.343 138.6025 154.343 
C 138.6025 154.343 138.6025 154.343 138.6025 154.343 
L 135.875867 182.02697 
C 136.782005 182.116216 137.691978 182.16092 138.6025 182.16092 
C 139.513022 182.16092 140.422995 182.116216 141.329133 182.02697 
z
" clip-path="url(#p9ef7503e6e)" style="fill: #d4a0a7; stroke: #000000; stroke-width: 0.5; stroke-linejoin: miter"/>
   </g>
   <g id="patch_20">
    <path d="M 138.6025 154.343 
C 138.6025 154.343 138.6025 154.343 138.6025 154.343 
C 138.6025 154.343 138.6025 154.343 138.6025 154.343 
L 129.013586 185.953412 
C 130.048242 186.267272 131.097684 186.530143 132.158122 186.741077 
C 133.218559 186.952011 134.288714 187.110754 135.36472 187.216731 
z
" clip-path="url(#p9ef7503e6e)" style="fill: #d4a0a7; stroke: #000000; stroke-width: 0.5; stroke-linejoin: miter"/>
   </g>
   <g id="patch_21">
    <path d="M 138.6025 154.343 
C 138.6025 154.343 138.6025 154.343 138.6025 154.343 
C 138.6025 154.343 138.6025 154.343 138.6025 154.343 
L 127.506772 175.101646 
C 128.186234 175.464826 128.883117 175.794427 129.594905 176.089259 
C 130.306692 176.384091 131.032526 176.643799 131.769785 176.867444 
z
" clip-path="url(#p9ef7503e6e)" style="fill: #d4a0a7; stroke: #000000; stroke-width: 0.5; stroke-linejoin: miter"/>
   </g>
   <g id="patch_22">
    <path d="M 138.6025 154.343 
C 138.6025 154.343 138.6025 154.343 138.6025 154.343 
C 138.6025 154.343 138.6025 154.343 138.6025 154.343 
L 129.429467 165.520372 
C 129.79532 165.82062 130.175692 166.102723 130.569212 166.365665 
C 130.962732 166.628606 131.368924 166.872069 131.786322 167.095172 
z
" clip-path="url(#p9ef7503e6e)" style="fill: #d4a0a7; stroke: #000000; stroke-width: 0.5; stroke-linejoin: miter"/>
   </g>
   <g id="patch_23">
    <path d="M 138.6025 154.343 
C 138.6025 154.343 138.6025 154.343 138.6025 154.343 
C 138.6025 154.343 138.6025 154.343 138.6025 154.343 
L 125.61035 165.005382 
C 125.959346 165.430635 126.32901 165.838496 126.718007 166.227493 
C 127.107004 166.61649 127.514865 166.986154 127.940118 167.33515 
z
" clip-path="url(#p9ef7503e6e)" style="fill: #d4a0a7; stroke: #000000; stroke-width: 0.5; stroke-linejoin: miter"/>
   </g>
   <g id="patch_24">
    <path d="M 138.6025 154.343 
C 138.6025 154.343 138.6025 154.343 138.6025 154.343 
C 138.6025 154.343 138.6025 154.343 138.6025 154.343 
L 122.608926 162.891744 
C 122.888739 163.415237 123.194085 163.924677 123.523862 164.418224 
C 123.853639 164.91177 124.20745 165.388828 124.584015 165.847674 
z
" clip-path="url(#p9ef7503e6e)" style="fill: #d4a0a7; stroke: #000000; stroke-width: 0.5; stroke-linejoin: miter"/>
   </g>
   <g id="patch_25">
    <path d="M 138.6025 154.343 
C 138.6025 154.343 138.6025 154.343 138.6025 154.343 
C 138.6025 154.343 138.6025 154.343 138.6025 154.343 
L 123.969723 158.781805 
C 124.115011 159.260757 124.283728 159.732288 124.475262 160.194693 
C 124.666797 160.657099 124.880919 161.109822 125.116855 161.551227 
z
" clip-path="url(#p9ef7503e6e)" style="fill: #d4a0a7; stroke: #000000; stroke-width: 0.5; stroke-linejoin: miter"/>
   </g>
   <g id="patch_26">
    <path d="M 138.6025 154.343 
C 138.6025 154.343 138.6025 154.343 138.6025 154.343 
C 138.6025 154.343 138.6025 154.343 138.6025 154.343 
L 131.749149 155.017996 
C 131.771242 155.242317 131.804336 155.465417 131.848311 155.686492 
C 131.892285 155.907567 131.947087 156.126349 132.012519 156.342049 
z
" clip-path="url(#p9ef7503e6e)" style="fill: #d4a0a7; stroke: #000000; stroke-width: 0.5; stroke-linejoin: miter"/>
   </g>
   <g id="patch_27">
    <path d="M 138.6025 154.343 
C 138.6025 154.343 138.6025 154.343 138.6025 154.343 
C 138.6025 154.343 138.6025 154.343 138.6025 154.343 
L 138.6025 154.343 
C 138.6025 154.343 138.6025 154.343 138.6025 154.343 
C 138.6025 154.343 138.6025 154.343 138.6025 154.343 
z
" clip-path="url(#p9ef7503e6e)" style="fill: #d4a0a7; stroke: #000000; stroke-width: 0.5; stroke-linejoin: miter"/>
   </g>
   <g id="patch_28">
    <path d="M 138.6025 154.343 
C 138.6025 154.343 138.6025 154.343 138.6025 154.343 
C 138.6025 154.343 138.6025 154.343 138.6025 154.343 
L 138.6025 154.343 
C 138.6025 154.343 138.6025 154.343 138.6025 154.343 
C 138.6025 154.343 138.6025 154.343 138.6025 154.343 
z
" clip-path="url(#p9ef7503e6e)" style="fill: #d4a0a7; stroke: #000000; stroke-width: 0.5; stroke-linejoin: miter"/>
   </g>
   <g id="patch_29">
    <path d="M 138.6025 154.343 
C 138.6025 154.343 138.6025 154.343 138.6025 154.343 
C 138.6025 154.343 138.6025 154.343 138.6025 154.343 
L 132.939061 151.315829 
C 132.839978 151.501202 132.750055 151.691328 132.669618 151.88552 
C 132.589181 152.079712 132.518327 152.277736 132.457311 152.478877 
z
" clip-path="url(#p9ef7503e6e)" style="fill: #d4a0a7; stroke: #000000; stroke-width: 0.5; stroke-linejoin: miter"/>
   </g>
   <g id="patch_30">
    <path d="M 138.6025 154.343 
C 138.6025 154.343 138.6025 154.343 138.6025 154.343 
C 138.6025 154.343 138.6025 154.343 138.6025 154.343 
L 128.837073 146.328721 
C 128.574754 146.648358 128.328286 146.980682 128.09856 147.324492 
C 127.868834 147.668301 127.656126 148.023183 127.461205 148.387854 
z
" clip-path="url(#p9ef7503e6e)" style="fill: #d4a0a7; stroke: #000000; stroke-width: 0.5; stroke-linejoin: miter"/>
   </g>
   <g id="patch_31">
    <path d="M 138.6025 154.343 
C 138.6025 154.343 138.6025 154.343 138.6025 154.343 
C 138.6025 154.343 138.6025 154.343 138.6025 154.343 
L 138.6025 154.343 
C 138.6025 154.343 138.6025 154.343 138.6025 154.343 
C 138.6025 154.343 138.6025 154.343 138.6025 154.343 
z
" clip-path="url(#p9ef7503e6e)" style="fill: #d4a0a7; stroke: #000000; stroke-width: 0.5; stroke-linejoin: miter"/>
   </g>
   <g id="patch_32">
    <path d="M 138.6025 154.343 
C 138.6025 154.343 138.6025 154.343 138.6025 154.343 
C 138.6025 154.343 138.6025 154.343 138.6025 154.343 
L 136.461967 150.338344 
C 136.330889 150.408407 136.203329 150.484863 136.079749 150.567437 
C 135.956169 150.65001 135.836718 150.738601 135.721827 150.83289 
z
" clip-path="url(#p9ef7503e6e)" style="fill: #d4a0a7; stroke: #000000; stroke-width: 0.5; stroke-linejoin: miter"/>
   </g>
   <g id="patch_33">
    <path d="M 138.6025 154.343 
C 138.6025 154.343 138.6025 154.343 138.6025 154.343 
C 138.6025 154.343 138.6025 154.343 138.6025 154.343 
L 138.6025 154.343 
C 138.6025 154.343 138.6025 154.343 138.6025 154.343 
C 138.6025 154.343 138.6025 154.343 138.6025 154.343 
z
" clip-path="url(#p9ef7503e6e)" style="fill: #d4a0a7; stroke: #000000; stroke-width: 0.5; stroke-linejoin: miter"/>
   </g>
   <g id="patch_34">
    <path d="M 138.6025 154.343 
C 138.6025 154.343 138.6025 154.343 138.6025 154.343 
C 138.6025 154.343 138.6025 154.343 138.6025 154.343 
L 138.6025 154.343 
C 138.6025 154.343 138.6025 154.343 138.6025 154.343 
C 138.6025 154.343 138.6025 154.343 138.6025 154.343 
z
" clip-path="url(#p9ef7503e6e)" style="fill: #d4a0a7; stroke: #000000; stroke-width: 0.5; stroke-linejoin: miter"/>
   </g>
   <g id="PathCollection_1">
    <defs>
     <path id="m0b389d26cd" d="M 0.193618 7.414054 
L 0.193618 7.414054 
C 0.054922 7.414054 -0.078235 7.358899 -0.176308 7.260826 
C -0.274381 7.162753 -0.329536 7.029596 -0.329536 6.890901 
L -0.329536 5.365008 
L -1.528416 6.56393 
L -1.528416 6.56393 
C -1.577018 6.612704 -1.634775 6.651408 -1.698366 6.677814 
C -1.761958 6.704221 -1.830141 6.717815 -1.898997 6.717815 
C -1.967853 6.717815 -2.036037 6.704221 -2.099628 6.677814 
C -2.163219 6.651408 -2.220976 6.612704 -2.269578 6.56393 
L -2.269578 6.56393 
C -2.318353 6.515327 -2.357056 6.457571 -2.383463 6.393979 
C -2.409869 6.330388 -2.423463 6.262205 -2.423463 6.193348 
C -2.423463 6.124492 -2.409869 6.056309 -2.383463 5.992718 
C -2.357056 5.929126 -2.318353 5.87137 -2.269578 5.822767 
L -0.329536 3.884106 
L -0.329536 0.820937 
L -2.98067 2.351538 
L -3.691824 5.001416 
L -3.691824 5.001416 
C -3.727584 5.135411 -3.815199 5.249836 -3.93523 5.319305 
C -4.055261 5.388775 -4.198123 5.407741 -4.332122 5.371997 
L -4.332122 5.371997 
C -4.466126 5.336237 -4.580558 5.248616 -4.650029 5.128576 
C -4.719499 5.008535 -4.73846 4.865662 -4.702703 4.731657 
L -4.262647 3.092721 
L -5.585535 3.855668 
L -5.585535 3.855668 
C -5.645013 3.890144 -5.710708 3.912561 -5.778854 3.921634 
C -5.847001 3.930706 -5.916272 3.926258 -5.982698 3.908543 
C -6.049125 3.890828 -6.111412 3.860192 -6.165991 3.818391 
C -6.220571 3.77659 -6.266379 3.724437 -6.300791 3.664922 
L -6.300791 3.664922 
C -6.335212 3.605364 -6.35755 3.539597 -6.366524 3.471396 
C -6.375498 3.403194 -6.370933 3.333888 -6.35309 3.267452 
C -6.335248 3.201017 -6.304476 3.138749 -6.26254 3.08422 
C -6.220605 3.029692 -6.168323 2.983966 -6.108695 2.949666 
L -4.785807 2.186762 
L -6.424743 1.746706 
L -6.424743 1.746706 
C -6.558747 1.710946 -6.673179 1.623325 -6.74265 1.503284 
C -6.81212 1.383244 -6.831081 1.240371 -6.795324 1.106366 
L -6.795324 1.106366 
C -6.777471 1.039969 -6.746703 0.977739 -6.704784 0.923241 
C -6.662864 0.868744 -6.61061 0.823041 -6.551015 0.788752 
C -6.491421 0.754464 -6.425647 0.732257 -6.357465 0.723406 
C -6.289282 0.714554 -6.220019 0.71923 -6.153645 0.737166 
L -3.505232 1.44698 
L -0.852424 -0.08496 
L -3.503767 -1.615666 
L -6.153645 -0.905851 
L -6.153645 -0.905851 
C -6.22011 -0.887939 -6.289462 -0.883321 -6.357716 -0.892262 
C -6.42597 -0.901202 -6.491793 -0.923527 -6.551403 -0.957953 
C -6.611013 -0.992379 -6.663247 -1.038234 -6.705103 -1.092883 
C -6.746958 -1.147533 -6.777619 -1.209911 -6.795324 -1.276432 
L -6.795324 -1.276432 
C -6.831068 -1.410431 -6.812101 -1.553293 -6.742632 -1.673324 
C -6.673162 -1.793355 -6.558738 -1.88097 -6.424743 -1.91673 
L -4.785807 -2.355447 
L -6.108695 -3.119732 
L -6.108695 -3.119732 
C -6.228699 -3.188976 -6.316415 -3.303132 -6.352417 -3.436921 
C -6.388419 -3.57071 -6.369839 -3.713469 -6.300791 -3.833586 
L -6.300791 -3.833586 
C -6.266491 -3.893214 -6.220765 -3.945496 -6.166237 -3.987431 
C -6.111708 -4.029367 -6.04944 -4.060139 -5.983005 -4.077981 
C -5.91657 -4.095823 -5.847263 -4.100389 -5.779062 -4.091415 
C -5.71086 -4.082441 -5.645094 -4.060102 -5.585535 -4.025682 
L -4.262647 -3.261396 
L -4.702703 -4.900332 
L -4.702703 -4.900332 
C -4.73846 -5.034337 -4.719499 -5.17721 -4.650029 -5.29725 
C -4.580558 -5.417291 -4.466126 -5.504912 -4.332122 -5.540672 
L -4.332122 -5.540672 
C -4.19831 -5.576464 -4.055613 -5.557686 -3.935617 -5.488496 
C -3.81562 -5.419305 -3.727882 -5.305212 -3.691824 -5.171472 
L -2.982009 -2.521594 
L -0.329411 -0.990302 
L -0.329411 -4.051588 
L -2.269453 -5.991589 
L -2.269453 -5.991589 
C -2.318227 -6.040191 -2.356931 -6.097947 -2.383337 -6.161539 
C -2.409744 -6.22513 -2.423338 -6.293314 -2.423338 -6.36217 
C -2.423338 -6.431026 -2.409744 -6.499209 -2.383337 -6.5628 
C -2.356931 -6.626392 -2.318227 -6.684149 -2.269453 -6.732751 
L -2.269453 -6.732751 
C -2.22085 -6.781526 -2.163094 -6.820229 -2.099502 -6.846635 
C -2.035911 -6.873042 -1.967728 -6.886636 -1.898871 -6.886636 
C -1.830015 -6.886636 -1.761832 -6.873042 -1.698241 -6.846635 
C -1.634649 -6.820229 -1.576893 -6.781526 -1.52829 -6.732751 
L -0.329411 -5.533829 
L -0.329411 -7.059722 
L -0.329411 -7.059722 
C -0.329411 -7.198418 -0.274255 -7.331575 -0.176182 -7.429647 
C -0.07811 -7.52772 0.055047 -7.582875 0.193743 -7.582875 
L 0.193743 -7.582875 
C 0.332439 -7.582875 0.465596 -7.52772 0.563669 -7.429647 
C 0.661741 -7.331575 0.716897 -7.198418 0.716897 -7.059722 
L 0.716897 -5.533829 
L 1.915777 -6.732751 
L 1.915777 -6.732751 
C 1.964379 -6.781526 2.022136 -6.820229 2.085727 -6.846635 
C 2.149318 -6.873042 2.217502 -6.886636 2.286358 -6.886636 
C 2.355214 -6.886636 2.423397 -6.873042 2.486989 -6.846635 
C 2.55058 -6.820229 2.608337 -6.781526 2.656939 -6.732751 
L 2.656939 -6.732751 
C 2.705714 -6.684149 2.744417 -6.626392 2.770823 -6.5628 
C 2.79723 -6.499209 2.810824 -6.431026 2.810824 -6.36217 
C 2.810824 -6.293314 2.79723 -6.22513 2.770823 -6.161539 
C 2.744417 -6.097947 2.705714 -6.040191 2.656939 -5.991589 
L 0.716897 -4.051588 
L 0.716897 -0.991139 
L 3.369495 -2.522954 
L 4.07931 -5.171367 
L 4.07931 -5.171367 
C 4.115368 -5.305107 4.203106 -5.4192 4.323103 -5.488391 
C 4.4431 -5.557582 4.585797 -5.576359 4.719608 -5.540567 
L 4.719608 -5.540567 
C 4.853612 -5.504807 4.968045 -5.417186 5.037515 -5.297146 
C 5.106986 -5.177105 5.125946 -5.034232 5.090189 -4.900227 
L 4.650133 -3.262673 
L 5.973022 -4.025577 
L 5.973022 -4.025577 
C 6.03258 -4.059998 6.098346 -4.082336 6.166548 -4.09131 
C 6.234749 -4.100284 6.304056 -4.095719 6.370491 -4.077876 
C 6.436926 -4.060034 6.499194 -4.029262 6.553723 -3.987327 
C 6.608252 -3.945391 6.653978 -3.893109 6.688277 -3.833481 
L 6.688277 -3.833481 
C 6.757325 -3.713365 6.775905 -3.570605 6.739903 -3.436816 
C 6.703901 -3.303027 6.616186 -3.188871 6.496181 -3.119628 
L 5.173293 -2.355342 
L 6.812229 -1.916625 
L 6.812229 -1.916625 
C 6.946224 -1.880865 7.060649 -1.79325 7.130118 -1.67322 
C 7.199588 -1.553189 7.218554 -1.410326 7.18281 -1.276327 
L 7.18281 -1.276327 
C 7.165106 -1.209806 7.134445 -1.147429 7.092589 -1.092779 
C 7.050733 -1.038129 6.998499 -0.992274 6.938889 -0.957848 
C 6.879279 -0.923422 6.813456 -0.901098 6.745202 -0.892157 
C 6.676949 -0.883217 6.607597 -0.887835 6.541131 -0.905746 
L 3.891253 -1.615561 
L 1.239492 -0.084604 
L 3.892718 1.447085 
L 6.541131 0.73727 
L 6.541131 0.73727 
C 6.674948 0.701466 6.817656 0.720237 6.937662 0.789429 
C 7.057669 0.858621 7.145413 0.972721 7.181471 1.10647 
L 7.181471 1.10647 
C 7.217274 1.240293 7.198497 1.383006 7.129297 1.503014 
C 7.060096 1.623021 6.945986 1.710762 6.812229 1.74681 
L 5.173293 2.186866 
L 6.496181 2.949771 
L 6.496181 2.949771 
C 6.555697 2.984183 6.607849 3.029991 6.649651 3.08457 
C 6.691452 3.13915 6.722088 3.201437 6.739803 3.267863 
C 6.757517 3.33429 6.761966 3.403561 6.752893 3.471707 
C 6.743821 3.539854 6.721404 3.605549 6.686927 3.665026 
L 6.686927 3.665026 
C 6.617458 3.784813 6.503196 3.87225 6.369416 3.907994 
C 6.235636 3.943739 6.092989 3.924946 5.973032 3.855772 
L 4.650144 3.091487 
L 5.08886 4.731783 
L 5.08886 4.731783 
C 5.124664 4.865606 5.105887 5.008319 5.036686 5.128326 
C 4.967486 5.248334 4.853376 5.336074 4.719619 5.372123 
L 4.719619 5.372123 
C 4.585619 5.407867 4.442757 5.3889 4.322726 5.319431 
C 4.202695 5.249961 4.115081 5.135537 4.07932 5.001542 
L 3.368166 2.351664 
L 0.717033 0.821063 
L 0.717033 3.884232 
L 2.657075 5.822893 
L 2.657075 5.822893 
C 2.70585 5.871495 2.744553 5.929252 2.770959 5.992843 
C 2.797366 6.056435 2.81096 6.124618 2.81096 6.193474 
C 2.81096 6.26233 2.797366 6.330514 2.770959 6.394105 
C 2.744553 6.457696 2.70585 6.515453 2.657075 6.564055 
L 2.657075 6.564055 
C 2.608473 6.61283 2.550716 6.651533 2.487125 6.67794 
C 2.423533 6.704346 2.35535 6.71794 2.286494 6.71794 
C 2.217638 6.71794 2.149454 6.704346 2.085863 6.67794 
C 2.022272 6.651533 1.964515 6.61283 1.915913 6.564055 
L 0.717033 5.365133 
L 0.717033 6.891026 
L 0.717033 6.891026 
C 0.717033 7.029722 0.661877 7.162879 0.563805 7.260952 
C 0.465732 7.359024 0.332575 7.41418 0.193879 7.41418 
L 0.193618 7.414054 
z
"/>
    </defs>
    <g clip-path="url(#p9ef7503e6e)">
     <use xlink:href="#m0b389d26cd" x="222.377178" y="193.24676" style="fill: #0000ff; fill-opacity: 0.7"/>
    </g>
   </g>
   <g id="patch_35">
    <path d="M 138.6025 43.463 
C 124.041872 43.463 109.622827 46.331126 96.170561 51.903237 
C 82.718295 57.475349 70.494419 65.643081 60.1985 75.939 
C 49.902581 86.234919 41.734849 98.458795 36.162737 111.911061 
C 30.590626 125.363327 27.7225 139.782372 27.7225 154.343 
C 27.7225 168.903628 30.590626 183.322673 36.162737 196.774939 
C 41.734849 210.227205 49.902581 222.451081 60.1985 232.747 
C 70.494419 243.042919 82.718295 251.210651 96.170561 256.782763 
C 109.622827 262.354874 124.041872 265.223 138.6025 265.223 
C 153.163128 265.223 167.582173 262.354874 181.034439 256.782763 
C 194.486705 251.210651 206.710581 243.042919 217.0065 232.747 
C 227.302419 222.451081 235.470151 210.227205 241.042263 196.774939 
C 246.614374 183.322673 249.4825 168.903628 249.4825 154.343 
C 249.4825 139.782372 246.614374 125.363327 241.042263 111.911061 
C 235.470151 98.458795 227.302419 86.234919 217.0065 75.939 
C 206.710581 65.643081 194.486705 57.475349 181.034439 51.903237 
C 167.582173 46.331126 153.163128 43.463 138.6025 43.463 
" style="fill: none; stroke: #000000; stroke-width: 0.8; stroke-linejoin: miter; stroke-linecap: square"/>
   </g>
   <g id="text_5">
    <!-- 16 runs -->
    <g style="fill: #95a5a6" transform="translate(14.72418 38.063118) scale(0.1 -0.1)">
     <defs>
      <path id="DejaVuSans-31" d="M 794 531 
L 1825 531 
L 1825 4091 
L 703 3866 
L 703 4441 
L 1819 4666 
L 2450 4666 
L 2450 531 
L 3481 531 
L 3481 0 
L 794 0 
L 794 531 
z
" transform="scale(0.015625)"/>
      <path id="DejaVuSans-36" d="M 2113 2584 
Q 1688 2584 1439 2293 
Q 1191 2003 1191 1497 
Q 1191 994 1439 701 
Q 1688 409 2113 409 
Q 2538 409 2786 701 
Q 3034 994 3034 1497 
Q 3034 2003 2786 2293 
Q 2538 2584 2113 2584 
z
M 3366 4563 
L 3366 3988 
Q 3128 4100 2886 4159 
Q 2644 4219 2406 4219 
Q 1781 4219 1451 3797 
Q 1122 3375 1075 2522 
Q 1259 2794 1537 2939 
Q 1816 3084 2150 3084 
Q 2853 3084 3261 2657 
Q 3669 2231 3669 1497 
Q 3669 778 3244 343 
Q 2819 -91 2113 -91 
Q 1303 -91 875 529 
Q 447 1150 447 2328 
Q 447 3434 972 4092 
Q 1497 4750 2381 4750 
Q 2619 4750 2861 4703 
Q 3103 4656 3366 4563 
z
" transform="scale(0.015625)"/>
      <path id="DejaVuSans-20" transform="scale(0.015625)"/>
      <path id="DejaVuSans-72" d="M 2631 2963 
Q 2534 3019 2420 3045 
Q 2306 3072 2169 3072 
Q 1681 3072 1420 2755 
Q 1159 2438 1159 1844 
L 1159 0 
L 581 0 
L 581 3500 
L 1159 3500 
L 1159 2956 
Q 1341 3275 1631 3429 
Q 1922 3584 2338 3584 
Q 2397 3584 2469 3576 
Q 2541 3569 2628 3553 
L 2631 2963 
z
" transform="scale(0.015625)"/>
      <path id="DejaVuSans-75" d="M 544 1381 
L 544 3500 
L 1119 3500 
L 1119 1403 
Q 1119 906 1312 657 
Q 1506 409 1894 409 
Q 2359 409 2629 706 
Q 2900 1003 2900 1516 
L 2900 3500 
L 3475 3500 
L 3475 0 
L 2900 0 
L 2900 538 
Q 2691 219 2414 64 
Q 2138 -91 1772 -91 
Q 1169 -91 856 284 
Q 544 659 544 1381 
z
M 1991 3584 
L 1991 3584 
z
" transform="scale(0.015625)"/>
      <path id="DejaVuSans-6e" d="M 3513 2113 
L 3513 0 
L 2938 0 
L 2938 2094 
Q 2938 2591 2744 2837 
Q 2550 3084 2163 3084 
Q 1697 3084 1428 2787 
Q 1159 2491 1159 1978 
L 1159 0 
L 581 0 
L 581 3500 
L 1159 3500 
L 1159 2956 
Q 1366 3272 1645 3428 
Q 1925 3584 2291 3584 
Q 2894 3584 3203 3211 
Q 3513 2838 3513 2113 
z
" transform="scale(0.015625)"/>
      <path id="DejaVuSans-73" d="M 2834 3397 
L 2834 2853 
Q 2591 2978 2328 3040 
Q 2066 3103 1784 3103 
Q 1356 3103 1142 2972 
Q 928 2841 928 2578 
Q 928 2378 1081 2264 
Q 1234 2150 1697 2047 
L 1894 2003 
Q 2506 1872 2764 1633 
Q 3022 1394 3022 966 
Q 3022 478 2636 193 
Q 2250 -91 1575 -91 
Q 1294 -91 989 -36 
Q 684 19 347 128 
L 347 722 
Q 666 556 975 473 
Q 1284 391 1588 391 
Q 1994 391 2212 530 
Q 2431 669 2431 922 
Q 2431 1156 2273 1281 
Q 2116 1406 1581 1522 
L 1381 1569 
Q 847 1681 609 1914 
Q 372 2147 372 2553 
Q 372 3047 722 3315 
Q 1072 3584 1716 3584 
Q 2034 3584 2315 3537 
Q 2597 3491 2834 3397 
z
" transform="scale(0.015625)"/>
     </defs>
     <use xlink:href="#DejaVuSans-31"/>
     <use xlink:href="#DejaVuSans-36" x="63.623047"/>
     <use xlink:href="#DejaVuSans-20" x="127.246094"/>
     <use xlink:href="#DejaVuSans-72" x="159.033203"/>
     <use xlink:href="#DejaVuSans-75" x="200.146484"/>
     <use xlink:href="#DejaVuSans-6e" x="263.525391"/>
     <use xlink:href="#DejaVuSans-73" x="326.904297"/>
    </g>
    <!-- 3 lifts -->
    <g style="fill: #95a5a6" transform="translate(14.72418 49.26093) scale(0.1 -0.1)">
     <defs>
      <path id="DejaVuSans-33" d="M 2597 2516 
Q 3050 2419 3304 2112 
Q 3559 1806 3559 1356 
Q 3559 666 3084 287 
Q 2609 -91 1734 -91 
Q 1441 -91 1130 -33 
Q 819 25 488 141 
L 488 750 
Q 750 597 1062 519 
Q 1375 441 1716 441 
Q 2309 441 2620 675 
Q 2931 909 2931 1356 
Q 2931 1769 2642 2001 
Q 2353 2234 1838 2234 
L 1294 2234 
L 1294 2753 
L 1863 2753 
Q 2328 2753 2575 2939 
Q 2822 3125 2822 3475 
Q 2822 3834 2567 4026 
Q 2313 4219 1838 4219 
Q 1578 4219 1281 4162 
Q 984 4106 628 3988 
L 628 4550 
Q 988 4650 1302 4700 
Q 1616 4750 1894 4750 
Q 2613 4750 3031 4423 
Q 3450 4097 3450 3541 
Q 3450 3153 3228 2886 
Q 3006 2619 2597 2516 
z
" transform="scale(0.015625)"/>
      <path id="DejaVuSans-6c" d="M 603 4863 
L 1178 4863 
L 1178 0 
L 603 0 
L 603 4863 
z
" transform="scale(0.015625)"/>
      <path id="DejaVuSans-69" d="M 603 3500 
L 1178 3500 
L 1178 0 
L 603 0 
L 603 3500 
z
M 603 4863 
L 1178 4863 
L 1178 4134 
L 603 4134 
L 603 4863 
z
" transform="scale(0.015625)"/>
      <path id="DejaVuSans-66" d="M 2375 4863 
L 2375 4384 
L 1825 4384 
Q 1516 4384 1395 4259 
Q 1275 4134 1275 3809 
L 1275 3500 
L 2222 3500 
L 2222 3053 
L 1275 3053 
L 1275 0 
L 697 0 
L 697 3053 
L 147 3053 
L 147 3500 
L 697 3500 
L 697 3744 
Q 697 4328 969 4595 
Q 1241 4863 1831 4863 
L 2375 4863 
z
" transform="scale(0.015625)"/>
      <path id="DejaVuSans-74" d="M 1172 4494 
L 1172 3500 
L 2356 3500 
L 2356 3053 
L 1172 3053 
L 1172 1153 
Q 1172 725 1289 603 
Q 1406 481 1766 481 
L 2356 481 
L 2356 0 
L 1766 0 
Q 1100 0 847 248 
Q 594 497 594 1153 
L 594 3053 
L 172 3053 
L 172 3500 
L 594 3500 
L 594 4494 
L 1172 4494 
z
" transform="scale(0.015625)"/>
     </defs>
     <use xlink:href="#DejaVuSans-33"/>
     <use xlink:href="#DejaVuSans-20" x="63.623047"/>
     <use xlink:href="#DejaVuSans-6c" x="95.410156"/>
     <use xlink:href="#DejaVuSans-69" x="123.193359"/>
     <use xlink:href="#DejaVuSans-66" x="150.976562"/>
     <use xlink:href="#DejaVuSans-74" x="184.431641"/>
     <use xlink:href="#DejaVuSans-73" x="223.640625"/>
    </g>
   </g>
   <g id="text_6">
    <!-- 2,879 m -->
    <g style="fill: #95a5a6" transform="translate(222.115195 38.063118) scale(0.1 -0.1)">
     <defs>
      <path id="DejaVuSans-32" d="M 1228 531 
L 3431 531 
L 3431 0 
L 469 0 
L 469 531 
Q 828 903 1448 1529 
Q 2069 2156 2228 2338 
Q 2531 2678 2651 2914 
Q 2772 3150 2772 3378 
Q 2772 3750 2511 3984 
Q 2250 4219 1831 4219 
Q 1534 4219 1204 4116 
Q 875 4013 500 3803 
L 500 4441 
Q 881 4594 1212 4672 
Q 1544 4750 1819 4750 
Q 2544 4750 2975 4387 
Q 3406 4025 3406 3419 
Q 3406 3131 3298 2873 
Q 3191 2616 2906 2266 
Q 2828 2175 2409 1742 
Q 1991 1309 1228 531 
z
" transform="scale(0.015625)"/>
      <path id="DejaVuSans-2c" d="M 750 794 
L 1409 794 
L 1409 256 
L 897 -744 
L 494 -744 
L 750 256 
L 750 794 
z
" transform="scale(0.015625)"/>
      <path id="DejaVuSans-38" d="M 2034 2216 
Q 1584 2216 1326 1975 
Q 1069 1734 1069 1313 
Q 1069 891 1326 650 
Q 1584 409 2034 409 
Q 2484 409 2743 651 
Q 3003 894 3003 1313 
Q 3003 1734 2745 1975 
Q 2488 2216 2034 2216 
z
M 1403 2484 
Q 997 2584 770 2862 
Q 544 3141 544 3541 
Q 544 4100 942 4425 
Q 1341 4750 2034 4750 
Q 2731 4750 3128 4425 
Q 3525 4100 3525 3541 
Q 3525 3141 3298 2862 
Q 3072 2584 2669 2484 
Q 3125 2378 3379 2068 
Q 3634 1759 3634 1313 
Q 3634 634 3220 271 
Q 2806 -91 2034 -91 
Q 1263 -91 848 271 
Q 434 634 434 1313 
Q 434 1759 690 2068 
Q 947 2378 1403 2484 
z
M 1172 3481 
Q 1172 3119 1398 2916 
Q 1625 2713 2034 2713 
Q 2441 2713 2670 2916 
Q 2900 3119 2900 3481 
Q 2900 3844 2670 4047 
Q 2441 4250 2034 4250 
Q 1625 4250 1398 4047 
Q 1172 3844 1172 3481 
z
" transform="scale(0.015625)"/>
      <path id="DejaVuSans-37" d="M 525 4666 
L 3525 4666 
L 3525 4397 
L 1831 0 
L 1172 0 
L 2766 4134 
L 525 4134 
L 525 4666 
z
" transform="scale(0.015625)"/>
      <path id="DejaVuSans-39" d="M 703 97 
L 703 672 
Q 941 559 1184 500 
Q 1428 441 1663 441 
Q 2288 441 2617 861 
Q 2947 1281 2994 2138 
Q 2813 1869 2534 1725 
Q 2256 1581 1919 1581 
Q 1219 1581 811 2004 
Q 403 2428 403 3163 
Q 403 3881 828 4315 
Q 1253 4750 1959 4750 
Q 2769 4750 3195 4129 
Q 3622 3509 3622 2328 
Q 3622 1225 3098 567 
Q 2575 -91 1691 -91 
Q 1453 -91 1209 -44 
Q 966 3 703 97 
z
M 1959 2075 
Q 2384 2075 2632 2365 
Q 2881 2656 2881 3163 
Q 2881 3666 2632 3958 
Q 2384 4250 1959 4250 
Q 1534 4250 1286 3958 
Q 1038 3666 1038 3163 
Q 1038 2656 1286 2365 
Q 1534 2075 1959 2075 
z
" transform="scale(0.015625)"/>
      <path id="DejaVuSans-202f" transform="scale(0.015625)"/>
      <path id="DejaVuSans-6d" d="M 3328 2828 
Q 3544 3216 3844 3400 
Q 4144 3584 4550 3584 
Q 5097 3584 5394 3201 
Q 5691 2819 5691 2113 
L 5691 0 
L 5113 0 
L 5113 2094 
Q 5113 2597 4934 2840 
Q 4756 3084 4391 3084 
Q 3944 3084 3684 2787 
Q 3425 2491 3425 1978 
L 3425 0 
L 2847 0 
L 2847 2094 
Q 2847 2600 2669 2842 
Q 2491 3084 2119 3084 
Q 1678 3084 1418 2786 
Q 1159 2488 1159 1978 
L 1159 0 
L 581 0 
L 581 3500 
L 1159 3500 
L 1159 2956 
Q 1356 3278 1631 3431 
Q 1906 3584 2284 3584 
Q 2666 3584 2933 3390 
Q 3200 3197 3328 2828 
z
" transform="scale(0.015625)"/>
     </defs>
     <use xlink:href="#DejaVuSans-32"/>
     <use xlink:href="#DejaVuSans-2c" x="63.623047"/>
     <use xlink:href="#DejaVuSans-38" x="95.410156"/>
     <use xlink:href="#DejaVuSans-37" x="159.033203"/>
     <use xlink:href="#DejaVuSans-39" x="222.65625"/>
     <use xlink:href="#DejaVuSans-202f" x="286.279297"/>
     <use xlink:href="#DejaVuSans-6d" x="306.25"/>
    </g>
    <!-- skiable -->
    <g style="fill: #95a5a6" transform="translate(227.294882 49.26093) scale(0.1 -0.1)">
     <defs>
      <path id="DejaVuSans-6b" d="M 581 4863 
L 1159 4863 
L 1159 1991 
L 2875 3500 
L 3609 3500 
L 1753 1863 
L 3688 0 
L 2938 0 
L 1159 1709 
L 1159 0 
L 581 0 
L 581 4863 
z
" transform="scale(0.015625)"/>
      <path id="DejaVuSans-61" d="M 2194 1759 
Q 1497 1759 1228 1600 
Q 959 1441 959 1056 
Q 959 750 1161 570 
Q 1363 391 1709 391 
Q 2188 391 2477 730 
Q 2766 1069 2766 1631 
L 2766 1759 
L 2194 1759 
z
M 3341 1997 
L 3341 0 
L 2766 0 
L 2766 531 
Q 2569 213 2275 61 
Q 1981 -91 1556 -91 
Q 1019 -91 701 211 
Q 384 513 384 1019 
Q 384 1609 779 1909 
Q 1175 2209 1959 2209 
L 2766 2209 
L 2766 2266 
Q 2766 2663 2505 2880 
Q 2244 3097 1772 3097 
Q 1472 3097 1187 3025 
Q 903 2953 641 2809 
L 641 3341 
Q 956 3463 1253 3523 
Q 1550 3584 1831 3584 
Q 2591 3584 2966 3190 
Q 3341 2797 3341 1997 
z
" transform="scale(0.015625)"/>
      <path id="DejaVuSans-62" d="M 3116 1747 
Q 3116 2381 2855 2742 
Q 2594 3103 2138 3103 
Q 1681 3103 1420 2742 
Q 1159 2381 1159 1747 
Q 1159 1113 1420 752 
Q 1681 391 2138 391 
Q 2594 391 2855 752 
Q 3116 1113 3116 1747 
z
M 1159 2969 
Q 1341 3281 1617 3432 
Q 1894 3584 2278 3584 
Q 2916 3584 3314 3078 
Q 3713 2572 3713 1747 
Q 3713 922 3314 415 
Q 2916 -91 2278 -91 
Q 1894 -91 1617 61 
Q 1341 213 1159 525 
L 1159 0 
L 581 0 
L 581 4863 
L 1159 4863 
L 1159 2969 
z
" transform="scale(0.015625)"/>
      <path id="DejaVuSans-65" d="M 3597 1894 
L 3597 1613 
L 953 1613 
Q 991 1019 1311 708 
Q 1631 397 2203 397 
Q 2534 397 2845 478 
Q 3156 559 3463 722 
L 3463 178 
Q 3153 47 2828 -22 
Q 2503 -91 2169 -91 
Q 1331 -91 842 396 
Q 353 884 353 1716 
Q 353 2575 817 3079 
Q 1281 3584 2069 3584 
Q 2775 3584 3186 3129 
Q 3597 2675 3597 1894 
z
M 3022 2063 
Q 3016 2534 2758 2815 
Q 2500 3097 2075 3097 
Q 1594 3097 1305 2825 
Q 1016 2553 972 2059 
L 3022 2063 
z
" transform="scale(0.015625)"/>
     </defs>
     <use xlink:href="#DejaVuSans-73"/>
     <use xlink:href="#DejaVuSans-6b" x="52.099609"/>
     <use xlink:href="#DejaVuSans-69" x="110.009766"/>
     <use xlink:href="#DejaVuSans-61" x="137.792969"/>
     <use xlink:href="#DejaVuSans-62" x="199.072266"/>
     <use xlink:href="#DejaVuSans-6c" x="262.548828"/>
     <use xlink:href="#DejaVuSans-65" x="290.332031"/>
    </g>
    <!-- vert -->
    <g style="fill: #95a5a6" transform="translate(242.377695 60.458743) scale(0.1 -0.1)">
     <defs>
      <path id="DejaVuSans-76" d="M 191 3500 
L 800 3500 
L 1894 563 
L 2988 3500 
L 3597 3500 
L 2284 0 
L 1503 0 
L 191 3500 
z
" transform="scale(0.015625)"/>
     </defs>
     <use xlink:href="#DejaVuSans-76"/>
     <use xlink:href="#DejaVuSans-65" x="59.179688"/>
     <use xlink:href="#DejaVuSans-72" x="120.703125"/>
     <use xlink:href="#DejaVuSans-74" x="161.816406"/>
    </g>
   </g>
   <g id="text_7">
    <!-- affinity: -->
    <g style="fill: #95a5a6" transform="translate(14.72418 253.746007) scale(0.1 -0.1)">
     <defs>
      <path id="DejaVuSans-79" d="M 2059 -325 
Q 1816 -950 1584 -1140 
Q 1353 -1331 966 -1331 
L 506 -1331 
L 506 -850 
L 844 -850 
Q 1081 -850 1212 -737 
Q 1344 -625 1503 -206 
L 1606 56 
L 191 3500 
L 800 3500 
L 1894 763 
L 2988 3500 
L 3597 3500 
L 2059 -325 
z
" transform="scale(0.015625)"/>
      <path id="DejaVuSans-3a" d="M 750 794 
L 1409 794 
L 1409 0 
L 750 0 
L 750 794 
z
M 750 3309 
L 1409 3309 
L 1409 2516 
L 750 2516 
L 750 3309 
z
" transform="scale(0.015625)"/>
     </defs>
     <use xlink:href="#DejaVuSans-61"/>
     <use xlink:href="#DejaVuSans-66" x="61.279297"/>
     <use xlink:href="#DejaVuSans-66" x="96.484375"/>
     <use xlink:href="#DejaVuSans-69" x="131.689453"/>
     <use xlink:href="#DejaVuSans-6e" x="159.472656"/>
     <use xlink:href="#DejaVuSans-69" x="222.851562"/>
     <use xlink:href="#DejaVuSans-74" x="250.634766"/>
     <use xlink:href="#DejaVuSans-79" x="289.84375"/>
     <use xlink:href="#DejaVuSans-3a" x="341.773438"/>
    </g>
    <!-- -35% poleward -->
    <g style="fill: #95a5a6" transform="translate(14.72418 264.94382) scale(0.1 -0.1)">
     <defs>
      <path id="DejaVuSans-2d" d="M 313 2009 
L 1997 2009 
L 1997 1497 
L 313 1497 
L 313 2009 
z
" transform="scale(0.015625)"/>
      <path id="DejaVuSans-35" d="M 691 4666 
L 3169 4666 
L 3169 4134 
L 1269 4134 
L 1269 2991 
Q 1406 3038 1543 3061 
Q 1681 3084 1819 3084 
Q 2600 3084 3056 2656 
Q 3513 2228 3513 1497 
Q 3513 744 3044 326 
Q 2575 -91 1722 -91 
Q 1428 -91 1123 -41 
Q 819 9 494 109 
L 494 744 
Q 775 591 1075 516 
Q 1375 441 1709 441 
Q 2250 441 2565 725 
Q 2881 1009 2881 1497 
Q 2881 1984 2565 2268 
Q 2250 2553 1709 2553 
Q 1456 2553 1204 2497 
Q 953 2441 691 2322 
L 691 4666 
z
" transform="scale(0.015625)"/>
      <path id="DejaVuSans-25" d="M 4653 2053 
Q 4381 2053 4226 1822 
Q 4072 1591 4072 1178 
Q 4072 772 4226 539 
Q 4381 306 4653 306 
Q 4919 306 5073 539 
Q 5228 772 5228 1178 
Q 5228 1588 5073 1820 
Q 4919 2053 4653 2053 
z
M 4653 2450 
Q 5147 2450 5437 2106 
Q 5728 1763 5728 1178 
Q 5728 594 5436 251 
Q 5144 -91 4653 -91 
Q 4153 -91 3862 251 
Q 3572 594 3572 1178 
Q 3572 1766 3864 2108 
Q 4156 2450 4653 2450 
z
M 1428 4353 
Q 1159 4353 1004 4120 
Q 850 3888 850 3481 
Q 850 3069 1003 2837 
Q 1156 2606 1428 2606 
Q 1700 2606 1854 2837 
Q 2009 3069 2009 3481 
Q 2009 3884 1853 4118 
Q 1697 4353 1428 4353 
z
M 4250 4750 
L 4750 4750 
L 1831 -91 
L 1331 -91 
L 4250 4750 
z
M 1428 4750 
Q 1922 4750 2215 4408 
Q 2509 4066 2509 3481 
Q 2509 2891 2217 2550 
Q 1925 2209 1428 2209 
Q 931 2209 642 2551 
Q 353 2894 353 3481 
Q 353 4063 643 4406 
Q 934 4750 1428 4750 
z
" transform="scale(0.015625)"/>
      <path id="DejaVuSans-70" d="M 1159 525 
L 1159 -1331 
L 581 -1331 
L 581 3500 
L 1159 3500 
L 1159 2969 
Q 1341 3281 1617 3432 
Q 1894 3584 2278 3584 
Q 2916 3584 3314 3078 
Q 3713 2572 3713 1747 
Q 3713 922 3314 415 
Q 2916 -91 2278 -91 
Q 1894 -91 1617 61 
Q 1341 213 1159 525 
z
M 3116 1747 
Q 3116 2381 2855 2742 
Q 2594 3103 2138 3103 
Q 1681 3103 1420 2742 
Q 1159 2381 1159 1747 
Q 1159 1113 1420 752 
Q 1681 391 2138 391 
Q 2594 391 2855 752 
Q 3116 1113 3116 1747 
z
" transform="scale(0.015625)"/>
      <path id="DejaVuSans-6f" d="M 1959 3097 
Q 1497 3097 1228 2736 
Q 959 2375 959 1747 
Q 959 1119 1226 758 
Q 1494 397 1959 397 
Q 2419 397 2687 759 
Q 2956 1122 2956 1747 
Q 2956 2369 2687 2733 
Q 2419 3097 1959 3097 
z
M 1959 3584 
Q 2709 3584 3137 3096 
Q 3566 2609 3566 1747 
Q 3566 888 3137 398 
Q 2709 -91 1959 -91 
Q 1206 -91 779 398 
Q 353 888 353 1747 
Q 353 2609 779 3096 
Q 1206 3584 1959 3584 
z
" transform="scale(0.015625)"/>
      <path id="DejaVuSans-77" d="M 269 3500 
L 844 3500 
L 1563 769 
L 2278 3500 
L 2956 3500 
L 3675 769 
L 4391 3500 
L 4966 3500 
L 4050 0 
L 3372 0 
L 2619 2869 
L 1863 0 
L 1184 0 
L 269 3500 
z
" transform="scale(0.015625)"/>
      <path id="DejaVuSans-64" d="M 2906 2969 
L 2906 4863 
L 3481 4863 
L 3481 0 
L 2906 0 
L 2906 525 
Q 2725 213 2448 61 
Q 2172 -91 1784 -91 
Q 1150 -91 751 415 
Q 353 922 353 1747 
Q 353 2572 751 3078 
Q 1150 3584 1784 3584 
Q 2172 3584 2448 3432 
Q 2725 3281 2906 2969 
z
M 947 1747 
Q 947 1113 1208 752 
Q 1469 391 1925 391 
Q 2381 391 2643 752 
Q 2906 1113 2906 1747 
Q 2906 2381 2643 2742 
Q 2381 3103 1925 3103 
Q 1469 3103 1208 2742 
Q 947 2381 947 1747 
z
" transform="scale(0.015625)"/>
     </defs>
     <use xlink:href="#DejaVuSans-2d"/>
     <use xlink:href="#DejaVuSans-33" x="36.083984"/>
     <use xlink:href="#DejaVuSans-35" x="99.707031"/>
     <use xlink:href="#DejaVuSans-25" x="163.330078"/>
     <use xlink:href="#DejaVuSans-20" x="258.349609"/>
     <use xlink:href="#DejaVuSans-70" x="290.136719"/>
     <use xlink:href="#DejaVuSans-6f" x="353.613281"/>
     <use xlink:href="#DejaVuSans-6c" x="414.794922"/>
     <use xlink:href="#DejaVuSans-65" x="442.578125"/>
     <use xlink:href="#DejaVuSans-77" x="504.101562"/>
     <use xlink:href="#DejaVuSans-61" x="585.888672"/>
     <use xlink:href="#DejaVuSans-72" x="647.167969"/>
     <use xlink:href="#DejaVuSans-64" x="686.53125"/>
    </g>
    <!-- 76% eastward -->
    <g style="fill: #95a5a6" transform="translate(14.72418 276.141632) scale(0.1 -0.1)">
     <use xlink:href="#DejaVuSans-37"/>
     <use xlink:href="#DejaVuSans-36" x="63.623047"/>
     <use xlink:href="#DejaVuSans-25" x="127.246094"/>
     <use xlink:href="#DejaVuSans-20" x="222.265625"/>
     <use xlink:href="#DejaVuSans-65" x="254.052734"/>
     <use xlink:href="#DejaVuSans-61" x="315.576172"/>
     <use xlink:href="#DejaVuSans-73" x="376.855469"/>
     <use xlink:href="#DejaVuSans-74" x="428.955078"/>
     <use xlink:href="#DejaVuSans-77" x="468.164062"/>
     <use xlink:href="#DejaVuSans-61" x="549.951172"/>
     <use xlink:href="#DejaVuSans-72" x="611.230469"/>
     <use xlink:href="#DejaVuSans-64" x="650.59375"/>
    </g>
   </g>
   <g id="text_8">
    <!-- elevation: -->
    <g style="fill: #95a5a6" transform="translate(212.826132 253.746007) scale(0.1 -0.1)">
     <use xlink:href="#DejaVuSans-65"/>
     <use xlink:href="#DejaVuSans-6c" x="61.523438"/>
     <use xlink:href="#DejaVuSans-65" x="89.306641"/>
     <use xlink:href="#DejaVuSans-76" x="150.830078"/>
     <use xlink:href="#DejaVuSans-61" x="210.009766"/>
     <use xlink:href="#DejaVuSans-74" x="271.289062"/>
     <use xlink:href="#DejaVuSans-69" x="310.498047"/>
     <use xlink:href="#DejaVuSans-6f" x="338.28125"/>
     <use xlink:href="#DejaVuSans-6e" x="399.462891"/>
     <use xlink:href="#DejaVuSans-3a" x="462.841797"/>
    </g>
    <!-- 1,426 m base -->
    <g style="fill: #95a5a6" transform="translate(195.098007 264.94382) scale(0.1 -0.1)">
     <defs>
      <path id="DejaVuSans-34" d="M 2419 4116 
L 825 1625 
L 2419 1625 
L 2419 4116 
z
M 2253 4666 
L 3047 4666 
L 3047 1625 
L 3713 1625 
L 3713 1100 
L 3047 1100 
L 3047 0 
L 2419 0 
L 2419 1100 
L 313 1100 
L 313 1709 
L 2253 4666 
z
" transform="scale(0.015625)"/>
     </defs>
     <use xlink:href="#DejaVuSans-31"/>
     <use xlink:href="#DejaVuSans-2c" x="63.623047"/>
     <use xlink:href="#DejaVuSans-34" x="95.410156"/>
     <use xlink:href="#DejaVuSans-32" x="159.033203"/>
     <use xlink:href="#DejaVuSans-36" x="222.65625"/>
     <use xlink:href="#DejaVuSans-202f" x="286.279297"/>
     <use xlink:href="#DejaVuSans-6d" x="306.25"/>
     <use xlink:href="#DejaVuSans-20" x="403.662109"/>
     <use xlink:href="#DejaVuSans-62" x="435.449219"/>
     <use xlink:href="#DejaVuSans-61" x="498.925781"/>
     <use xlink:href="#DejaVuSans-73" x="560.205078"/>
     <use xlink:href="#DejaVuSans-65" x="612.304688"/>
    </g>
    <!-- 2,216 m peak -->
    <g style="fill: #95a5a6" transform="translate(194.516757 276.141632) scale(0.1 -0.1)">
     <use xlink:href="#DejaVuSans-32"/>
     <use xlink:href="#DejaVuSans-2c" x="63.623047"/>
     <use xlink:href="#DejaVuSans-32" x="95.410156"/>
     <use xlink:href="#DejaVuSans-31" x="159.033203"/>
     <use xlink:href="#DejaVuSans-36" x="222.65625"/>
     <use xlink:href="#DejaVuSans-202f" x="286.279297"/>
     <use xlink:href="#DejaVuSans-6d" x="306.25"/>
     <use xlink:href="#DejaVuSans-20" x="403.662109"/>
     <use xlink:href="#DejaVuSans-70" x="435.449219"/>
     <use xlink:href="#DejaVuSans-65" x="498.925781"/>
     <use xlink:href="#DejaVuSans-61" x="560.449219"/>
     <use xlink:href="#DejaVuSans-6b" x="621.728516"/>
    </g>
   </g>
   <g id="text_9">
    <!-- Ontake 2240 (長野県のスキー場) -->
    <g transform="translate(7.2 19.375) scale(0.16 -0.16)">
     <defs>
      <path id="DejaVuSans-Bold-4f" d="M 2719 3878 
Q 2169 3878 1866 3472 
Q 1563 3066 1563 2328 
Q 1563 1594 1866 1187 
Q 2169 781 2719 781 
Q 3272 781 3575 1187 
Q 3878 1594 3878 2328 
Q 3878 3066 3575 3472 
Q 3272 3878 2719 3878 
z
M 2719 4750 
Q 3844 4750 4481 4106 
Q 5119 3463 5119 2328 
Q 5119 1197 4481 553 
Q 3844 -91 2719 -91 
Q 1597 -91 958 553 
Q 319 1197 319 2328 
Q 319 3463 958 4106 
Q 1597 4750 2719 4750 
z
" transform="scale(0.015625)"/>
      <path id="DejaVuSans-Bold-6e" d="M 4056 2131 
L 4056 0 
L 2931 0 
L 2931 347 
L 2931 1631 
Q 2931 2084 2911 2256 
Q 2891 2428 2841 2509 
Q 2775 2619 2662 2680 
Q 2550 2741 2406 2741 
Q 2056 2741 1856 2470 
Q 1656 2200 1656 1722 
L 1656 0 
L 538 0 
L 538 3500 
L 1656 3500 
L 1656 2988 
Q 1909 3294 2193 3439 
Q 2478 3584 2822 3584 
Q 3428 3584 3742 3212 
Q 4056 2841 4056 2131 
z
" transform="scale(0.015625)"/>
      <path id="DejaVuSans-Bold-74" d="M 1759 4494 
L 1759 3500 
L 2913 3500 
L 2913 2700 
L 1759 2700 
L 1759 1216 
Q 1759 972 1856 886 
Q 1953 800 2241 800 
L 2816 800 
L 2816 0 
L 1856 0 
Q 1194 0 917 276 
Q 641 553 641 1216 
L 641 2700 
L 84 2700 
L 84 3500 
L 641 3500 
L 641 4494 
L 1759 4494 
z
" transform="scale(0.015625)"/>
      <path id="DejaVuSans-Bold-61" d="M 2106 1575 
Q 1756 1575 1579 1456 
Q 1403 1338 1403 1106 
Q 1403 894 1545 773 
Q 1688 653 1941 653 
Q 2256 653 2472 879 
Q 2688 1106 2688 1447 
L 2688 1575 
L 2106 1575 
z
M 3816 1997 
L 3816 0 
L 2688 0 
L 2688 519 
Q 2463 200 2181 54 
Q 1900 -91 1497 -91 
Q 953 -91 614 226 
Q 275 544 275 1050 
Q 275 1666 698 1953 
Q 1122 2241 2028 2241 
L 2688 2241 
L 2688 2328 
Q 2688 2594 2478 2717 
Q 2269 2841 1825 2841 
Q 1466 2841 1156 2769 
Q 847 2697 581 2553 
L 581 3406 
Q 941 3494 1303 3539 
Q 1666 3584 2028 3584 
Q 2975 3584 3395 3211 
Q 3816 2838 3816 1997 
z
" transform="scale(0.015625)"/>
      <path id="DejaVuSans-Bold-6b" d="M 538 4863 
L 1656 4863 
L 1656 2216 
L 2944 3500 
L 4244 3500 
L 2534 1894 
L 4378 0 
L 3022 0 
L 1656 1459 
L 1656 0 
L 538 0 
L 538 4863 
z
" transform="scale(0.015625)"/>
      <path id="DejaVuSans-Bold-65" d="M 4031 1759 
L 4031 1441 
L 1416 1441 
Q 1456 1047 1700 850 
Q 1944 653 2381 653 
Q 2734 653 3104 758 
Q 3475 863 3866 1075 
L 3866 213 
Q 3469 63 3072 -14 
Q 2675 -91 2278 -91 
Q 1328 -91 801 392 
Q 275 875 275 1747 
Q 275 2603 792 3093 
Q 1309 3584 2216 3584 
Q 3041 3584 3536 3087 
Q 4031 2591 4031 1759 
z
M 2881 2131 
Q 2881 2450 2695 2645 
Q 2509 2841 2209 2841 
Q 1884 2841 1681 2658 
Q 1478 2475 1428 2131 
L 2881 2131 
z
" transform="scale(0.015625)"/>
      <path id="DejaVuSans-Bold-20" transform="scale(0.015625)"/>
      <path id="DejaVuSans-Bold-32" d="M 1844 884 
L 3897 884 
L 3897 0 
L 506 0 
L 506 884 
L 2209 2388 
Q 2438 2594 2547 2791 
Q 2656 2988 2656 3200 
Q 2656 3528 2436 3728 
Q 2216 3928 1850 3928 
Q 1569 3928 1234 3808 
Q 900 3688 519 3450 
L 519 4475 
Q 925 4609 1322 4679 
Q 1719 4750 2100 4750 
Q 2938 4750 3402 4381 
Q 3866 4013 3866 3353 
Q 3866 2972 3669 2642 
Q 3472 2313 2841 1759 
L 1844 884 
z
" transform="scale(0.015625)"/>
      <path id="DejaVuSans-Bold-34" d="M 2356 3675 
L 1038 1722 
L 2356 1722 
L 2356 3675 
z
M 2156 4666 
L 3494 4666 
L 3494 1722 
L 4159 1722 
L 4159 850 
L 3494 850 
L 3494 0 
L 2356 0 
L 2356 850 
L 288 850 
L 288 1881 
L 2156 4666 
z
" transform="scale(0.015625)"/>
      <path id="DejaVuSans-Bold-30" d="M 2944 2338 
Q 2944 3213 2780 3570 
Q 2616 3928 2228 3928 
Q 1841 3928 1675 3570 
Q 1509 3213 1509 2338 
Q 1509 1453 1675 1090 
Q 1841 728 2228 728 
Q 2613 728 2778 1090 
Q 2944 1453 2944 2338 
z
M 4147 2328 
Q 4147 1169 3647 539 
Q 3147 -91 2228 -91 
Q 1306 -91 806 539 
Q 306 1169 306 2328 
Q 306 3491 806 4120 
Q 1306 4750 2228 4750 
Q 3147 4750 3647 4120 
Q 4147 3491 4147 2328 
z
" transform="scale(0.015625)"/>
      <path id="DejaVuSans-Bold-28" d="M 2413 -844 
L 1484 -844 
Q 1006 -72 778 623 
Q 550 1319 550 2003 
Q 550 2688 779 3389 
Q 1009 4091 1484 4856 
L 2413 4856 
Q 2013 4116 1813 3408 
Q 1613 2700 1613 2009 
Q 1613 1319 1811 609 
Q 2009 -100 2413 -844 
z
" transform="scale(0.015625)"/>
      <path id="NotoSansCJKjp-Bold-9577" d="M 1370 5216 
L 1370 2413 
L 301 2413 
L 301 1734 
L 1370 1734 
L 1370 269 
L 582 166 
L 755 -538 
C 1530 -422 2598 -262 3584 -96 
L 3546 576 
L 2157 378 
L 2157 1734 
L 2893 1734 
C 3430 518 4288 -243 5741 -582 
C 5843 -378 6061 -58 6227 109 
C 5632 218 5133 403 4723 659 
C 5107 864 5542 1126 5907 1389 
L 5408 1734 
L 6106 1734 
L 6106 2413 
L 2157 2413 
L 2157 2739 
L 5254 2739 
L 5254 3334 
L 2157 3334 
L 2157 3661 
L 5254 3661 
L 5254 4256 
L 2157 4256 
L 2157 4589 
L 5427 4589 
L 5427 5216 
L 1370 5216 
z
M 3693 1734 
L 5184 1734 
C 4915 1517 4544 1267 4205 1069 
C 4006 1267 3834 1485 3693 1734 
z
" transform="scale(0.015625)"/>
      <path id="NotoSansCJKjp-Bold-91ce" d="M 1018 3488 
L 1491 3488 
L 1491 3008 
L 1018 3008 
L 1018 3488 
z
M 2131 3488 
L 2592 3488 
L 2592 3008 
L 2131 3008 
L 2131 3488 
z
M 1018 4525 
L 1491 4525 
L 1491 4058 
L 1018 4058 
L 1018 4525 
z
M 2131 4525 
L 2592 4525 
L 2592 4058 
L 2131 4058 
L 2131 4525 
z
M 192 365 
L 282 -384 
C 1114 -282 2278 -134 3373 13 
L 3354 691 
L 2182 563 
L 2182 1184 
L 3251 1184 
L 3251 1875 
L 2182 1875 
L 2182 2400 
L 3245 2400 
L 3245 5139 
L 390 5139 
L 390 2400 
L 1440 2400 
L 1440 1875 
L 403 1875 
L 403 1184 
L 1440 1184 
L 1440 486 
L 192 365 
z
M 3552 3738 
C 3942 3552 4378 3290 4730 3040 
L 3386 3040 
L 3386 2310 
L 4230 2310 
L 4230 275 
C 4230 192 4198 173 4109 173 
C 4013 166 3680 166 3392 186 
C 3494 -26 3597 -352 3616 -570 
C 4083 -570 4429 -563 4678 -442 
C 4928 -326 4992 -109 4992 256 
L 4992 2310 
L 5421 2310 
C 5350 1984 5274 1670 5210 1446 
L 5830 1312 
C 5984 1728 6150 2374 6272 2950 
L 5747 3059 
L 5638 3040 
L 5491 3040 
L 5658 3226 
C 5517 3341 5338 3469 5133 3603 
C 5523 3955 5894 4416 6157 4832 
L 5670 5178 
L 5504 5139 
L 3456 5139 
L 3456 4454 
L 4992 4454 
C 4864 4275 4717 4090 4570 3936 
C 4384 4038 4198 4134 4026 4211 
L 3552 3738 
z
" transform="scale(0.015625)"/>
      <path id="NotoSansCJKjp-Bold-770c" d="M 2541 3878 
L 4659 3878 
L 4659 3546 
L 2541 3546 
L 2541 3878 
z
M 2541 3059 
L 4659 3059 
L 4659 2733 
L 2541 2733 
L 2541 3059 
z
M 2541 4691 
L 4659 4691 
L 4659 4365 
L 2541 4365 
L 2541 4691 
z
M 1818 5210 
L 1818 2208 
L 5408 2208 
L 5408 5210 
L 1818 5210 
z
M 4013 659 
C 4506 301 5165 -218 5466 -538 
L 6176 -58 
C 5830 269 5146 749 4672 1075 
L 4013 659 
z
M 1606 1024 
C 1325 666 749 237 237 -13 
C 416 -134 698 -371 864 -531 
C 1395 -230 1997 250 2413 723 
L 1606 1024 
z
M 602 4832 
L 602 1069 
L 1370 1069 
L 1370 1203 
L 2803 1203 
L 2803 -576 
L 3616 -576 
L 3616 1203 
L 6099 1203 
L 6099 1882 
L 1370 1882 
L 1370 4832 
L 602 4832 
z
" transform="scale(0.015625)"/>
      <path id="NotoSansCJKjp-Bold-306e" d="M 2854 3949 
C 2784 3418 2662 2874 2515 2400 
C 2253 1536 2003 1133 1734 1133 
C 1485 1133 1229 1446 1229 2093 
C 1229 2797 1798 3731 2854 3949 
z
M 3725 3968 
C 4589 3821 5069 3162 5069 2278 
C 5069 1344 4429 755 3610 563 
C 3437 525 3258 486 3014 461 
L 3494 -301 
C 5107 -51 5933 902 5933 2253 
C 5933 3648 4934 4749 3347 4749 
C 1690 4749 410 3488 410 2010 
C 410 928 998 147 1709 147 
C 2406 147 2957 941 3341 2234 
C 3526 2835 3635 3424 3725 3968 
z
" transform="scale(0.015625)"/>
      <path id="NotoSansCJKjp-Bold-30b9" d="M 5338 4339 
L 4813 4730 
C 4685 4685 4429 4646 4154 4646 
C 3866 4646 2227 4646 1894 4646 
C 1702 4646 1312 4666 1139 4691 
L 1139 3782 
C 1274 3789 1626 3827 1894 3827 
C 2170 3827 3802 3827 4064 3827 
C 3923 3373 3533 2739 3110 2259 
C 2509 1587 1517 806 486 422 
L 1146 -269 
C 2022 147 2874 813 3552 1523 
C 4154 947 4749 294 5165 -282 
L 5894 352 
C 5517 813 4742 1632 4109 2182 
C 4538 2765 4896 3443 5114 3942 
C 5171 4070 5286 4269 5338 4339 
z
" transform="scale(0.015625)"/>
      <path id="NotoSansCJKjp-Bold-30ad" d="M 589 1875 
L 768 1018 
C 915 1056 1133 1101 1408 1152 
L 2938 1414 
L 3155 250 
C 3194 64 3213 -160 3238 -397 
L 4166 -230 
C 4109 -26 4045 205 4000 397 
L 3770 1549 
L 5158 1773 
C 5402 1811 5664 1856 5837 1869 
L 5664 2714 
C 5498 2662 5261 2611 5011 2560 
C 4723 2502 4198 2413 3622 2317 
L 3424 3341 
L 4704 3546 
C 4896 3571 5152 3610 5293 3622 
L 5139 4461 
C 4986 4416 4742 4365 4538 4326 
L 3277 4115 
L 3174 4704 
C 3142 4858 3123 5075 3104 5203 
L 2202 5056 
C 2246 4902 2291 4749 2330 4570 
L 2445 3987 
C 1894 3898 1402 3827 1178 3802 
C 979 3776 787 3763 582 3757 
L 755 2874 
C 973 2931 1139 2963 1344 3008 
L 2598 3213 
L 2790 2182 
L 1254 1946 
C 1050 1920 762 1882 589 1875 
z
" transform="scale(0.015625)"/>
      <path id="NotoSansCJKjp-Bold-30fc" d="M 589 2963 
L 589 1958 
C 826 1971 1254 1990 1619 1990 
C 2368 1990 4480 1990 5056 1990 
C 5325 1990 5651 1965 5805 1958 
L 5805 2963 
C 5638 2950 5357 2925 5056 2925 
C 4480 2925 2374 2925 1619 2925 
C 1286 2925 819 2944 589 2963 
z
" transform="scale(0.015625)"/>
      <path id="NotoSansCJKjp-Bold-5834" d="M 3405 3936 
L 5056 3936 
L 5056 3629 
L 3405 3629 
L 3405 3936 
z
M 3405 4742 
L 5056 4742 
L 5056 4442 
L 3405 4442 
L 3405 4742 
z
M 2720 5274 
L 2720 3098 
L 5766 3098 
L 5766 5274 
L 2720 5274 
z
M 141 1248 
L 429 474 
C 826 666 1286 890 1754 1126 
C 1907 1024 2144 794 2253 672 
C 2509 838 2758 1056 2989 1299 
L 3373 1299 
C 3027 826 2541 384 2067 141 
C 2246 26 2445 -160 2566 -314 
C 3123 45 3731 685 4070 1299 
L 4448 1299 
C 4173 710 3738 134 3251 -173 
C 3443 -275 3674 -454 3802 -602 
C 4320 -192 4826 582 5088 1299 
L 5331 1299 
C 5261 531 5184 198 5094 102 
C 5043 45 4992 32 4909 32 
C 4819 32 4653 32 4448 51 
C 4544 -109 4608 -371 4621 -550 
C 4883 -563 5120 -557 5267 -538 
C 5434 -512 5574 -467 5696 -320 
C 5869 -128 5971 390 6061 1638 
C 6074 1728 6080 1907 6080 1907 
L 3462 1907 
C 3526 2003 3584 2106 3642 2208 
L 6208 2208 
L 6208 2854 
L 2157 2854 
L 2157 2208 
L 2880 2208 
C 2726 1958 2522 1728 2298 1530 
L 2157 2080 
L 1651 1856 
L 1651 3366 
L 2240 3366 
L 2240 4090 
L 1651 4090 
L 1651 5357 
L 934 5357 
L 934 4090 
L 288 4090 
L 288 3366 
L 934 3366 
L 934 1555 
C 634 1434 358 1325 141 1248 
z
" transform="scale(0.015625)"/>
      <path id="DejaVuSans-Bold-29" d="M 513 -844 
Q 913 -100 1113 609 
Q 1313 1319 1313 2009 
Q 1313 2700 1113 3408 
Q 913 4116 513 4856 
L 1441 4856 
Q 1916 4091 2145 3389 
Q 2375 2688 2375 2003 
Q 2375 1319 2147 623 
Q 1919 -72 1441 -844 
L 513 -844 
z
" transform="scale(0.015625)"/>
     </defs>
     <use xlink:href="#DejaVuSans-Bold-4f"/>
     <use xlink:href="#DejaVuSans-Bold-6e" x="85.009766"/>
     <use xlink:href="#DejaVuSans-Bold-74" x="156.201172"/>
     <use xlink:href="#DejaVuSans-Bold-61" x="204.003906"/>
     <use xlink:href="#DejaVuSans-Bold-6b" x="271.484375"/>
     <use xlink:href="#DejaVuSans-Bold-65" x="335.363281"/>
     <use xlink:href="#DejaVuSans-Bold-20" x="403.185547"/>
     <use xlink:href="#DejaVuSans-Bold-32" x="438"/>
     <use xlink:href="#DejaVuSans-Bold-32" x="507.580078"/>
     <use xlink:href="#DejaVuSans-Bold-34" x="577.160156"/>
     <use xlink:href="#DejaVuSans-Bold-30" x="646.740234"/>
     <use xlink:href="#DejaVuSans-Bold-20" x="716.320312"/>
     <use xlink:href="#DejaVuSans-Bold-28" x="751.134766"/>
     <use xlink:href="#NotoSansCJKjp-Bold-9577" x="796.837891"/>
     <use xlink:href="#NotoSansCJKjp-Bold-91ce" x="896.837875"/>
     <use xlink:href="#NotoSansCJKjp-Bold-770c" x="996.83786"/>
     <use xlink:href="#NotoSansCJKjp-Bold-306e" x="1096.837845"/>
     <use xlink:href="#NotoSansCJKjp-Bold-30b9" x="1196.83783"/>
     <use xlink:href="#NotoSansCJKjp-Bold-30ad" x="1296.837814"/>
     <use xlink:href="#NotoSansCJKjp-Bold-30fc" x="1396.837799"/>
     <use xlink:href="#NotoSansCJKjp-Bold-5834" x="1496.837784"/>
     <use xlink:href="#DejaVuSans-Bold-29" x="1596.837769"/>
    </g>
   </g>
  </g>
 </g>
 <defs>
  <clipPath id="p9ef7503e6e">
   <path d="M 249.4825 154.343 
C 249.4825 139.782372 246.614374 125.363327 241.042263 111.911061 
C 235.470151 98.458795 227.302419 86.234919 217.0065 75.939 
C 206.710581 65.643081 194.486705 57.475349 181.034439 51.903237 
C 167.582173 46.331126 153.163128 43.463 138.6025 43.463 
C 124.041872 43.463 109.622827 46.331126 96.170561 51.903237 
C 82.718295 57.475349 70.494419 65.643081 60.1985 75.939 
C 49.902581 86.234919 41.734849 98.458795 36.162737 111.911061 
C 30.590626 125.363327 27.7225 139.782372 27.7225 154.343 
C 27.7225 168.903628 30.590626 183.322673 36.162737 196.774939 
C 41.734849 210.227205 49.902581 222.451081 60.1985 232.747 
C 70.494419 243.042919 82.718295 251.210651 96.170561 256.782763 
C 109.622827 262.354874 124.041872 265.223 138.6025 265.223 
C 153.163128 265.223 167.582173 262.354874 181.034439 256.782763 
C 194.486705 251.210651 206.710581 243.042919 217.0065 232.747 
C 227.302419 222.451081 235.470151 210.227205 241.042263 196.774939 
C 246.614374 183.322673 249.4825 168.903628 249.4825 154.343 
M 138.6025 154.343 
C 138.6025 154.343 138.6025 154.343 138.6025 154.343 
C 138.6025 154.343 138.6025 154.343 138.6025 154.343 
C 138.6025 154.343 138.6025 154.343 138.6025 154.343 
C 138.6025 154.343 138.6025 154.343 138.6025 154.343 
C 138.6025 154.343 138.6025 154.343 138.6025 154.343 
C 138.6025 154.343 138.6025 154.343 138.6025 154.343 
C 138.6025 154.343 138.6025 154.343 138.6025 154.343 
C 138.6025 154.343 138.6025 154.343 138.6025 154.343 
C 138.6025 154.343 138.6025 154.343 138.6025 154.343 
C 138.6025 154.343 138.6025 154.343 138.6025 154.343 
C 138.6025 154.343 138.6025 154.343 138.6025 154.343 
C 138.6025 154.343 138.6025 154.343 138.6025 154.343 
C 138.6025 154.343 138.6025 154.343 138.6025 154.343 
C 138.6025 154.343 138.6025 154.343 138.6025 154.343 
C 138.6025 154.343 138.6025 154.343 138.6025 154.343 
C 138.6025 154.343 138.6025 154.343 138.6025 154.343 
z
"/>
  </clipPath>
 </defs>
</svg>
