<?xml version="1.0" encoding="utf-8" standalone="no"?>
<!DOCTYPE svg PUBLIC "-//W3C//DTD SVG 1.1//EN"
  "http://www.w3.org/Graphics/SVG/1.1/DTD/svg11.dtd">
<svg xmlns:xlink="http://www.w3.org/1999/xlink" width="362.6175pt" height="304.353563pt" viewBox="0 0 362.6175 304.353563" xmlns="http://www.w3.org/2000/svg" version="1.1">
 <title>Ski Rose for モンデウス飛騨位山スノーパーク, Mont Deus Hida-kuraiyama Snow Park</title>
 <metadata>
  <rdf:RDF xmlns:dc="http://purl.org/dc/elements/1.1/" xmlns:cc="http://creativecommons.org/ns#" xmlns:rdf="http://www.w3.org/1999/02/22-rdf-syntax-ns#">
   <cc:Work>
    <dc:type rdf:resource="http://purl.org/dc/dcmitype/StillImage"/>
    <dc:title>Ski Rose for モンデウス飛騨位山スノーパーク, Mont Deus Hida-kuraiyama Snow Park</dc:title>
    <dc:date>2024-12-20T01:54:05.749631</dc:date>
    <dc:description>A 32-bin histogram of downhill ski trail orientations generated from &lt;https://openskimap.org/?obj=9ccdeda99d8967666ae5df3f0096c304385616a6&gt;.</dc:description>
    <dc:format>image/svg+xml</dc:format>
    <dc:creator>
     <cc:Agent>
      <dc:title>https://github.com/dhimmel/openskistats</dc:title>
     </cc:Agent>
    </dc:creator>
   </cc:Work>
  </rdf:RDF>
 </metadata>
 <defs>
  <style type="text/css">*{stroke-linejoin: round; stroke-linecap: butt}</style>
 </defs>
 <g id="figure_1">
  <g id="patch_1">
   <path d="M 0 304.353563 
L 362.6175 304.353563 
L 362.6175 0 
L 0 0 
z
" style="fill: #ffffff"/>
  </g>
  <g id="axes_1">
   <g id="patch_2">
    <path d="M 292.18875 172.9345 
C 292.18875 158.373872 289.320624 143.954827 283.748513 130.502561 
C 278.176401 117.050295 270.008669 104.826419 259.71275 94.5305 
C 249.416831 84.234581 237.192955 76.066849 223.740689 70.494737 
C 210.288423 64.922626 195.869378 62.0545 181.30875 62.0545 
C 166.748122 62.0545 152.329077 64.922626 138.876811 70.494737 
C 125.424545 76.066849 113.200669 84.234581 102.90475 94.5305 
C 92.608831 104.826419 84.441099 117.050295 78.868987 130.502561 
C 73.296876 143.954827 70.42875 158.373872 70.42875 172.9345 
C 70.42875 187.495128 73.296876 201.914173 78.868987 215.366439 
C 84.441099 228.818705 92.608831 241.042581 102.90475 251.3385 
C 113.200669 261.634419 125.424545 269.802151 138.876811 275.374263 
C 152.329077 280.946374 166.748122 283.8145 181.30875 283.8145 
C 195.869378 283.8145 210.288423 280.946374 223.740689 275.374263 
C 237.192955 269.802151 249.416831 261.634419 259.71275 251.3385 
C 270.008669 241.042581 278.176401 228.818705 283.748513 215.366439 
C 289.320624 201.914173 292.18875 187.495128 292.18875 172.9345 
M 181.30875 172.9345 
C 181.30875 172.9345 181.30875 172.9345 181.30875 172.9345 
C 181.30875 172.9345 181.30875 172.9345 181.30875 172.9345 
C 181.30875 172.9345 181.30875 172.9345 181.30875 172.9345 
C 181.30875 172.9345 181.30875 172.9345 181.30875 172.9345 
C 181.30875 172.9345 181.30875 172.9345 181.30875 172.9345 
C 181.30875 172.9345 181.30875 172.9345 181.30875 172.9345 
C 181.30875 172.9345 181.30875 172.9345 181.30875 172.9345 
C 181.30875 172.9345 181.30875 172.9345 181.30875 172.9345 
C 181.30875 172.9345 181.30875 172.9345 181.30875 172.9345 
C 181.30875 172.9345 181.30875 172.9345 181.30875 172.9345 
C 181.30875 172.9345 181.30875 172.9345 181.30875 172.9345 
C 181.30875 172.9345 181.30875 172.9345 181.30875 172.9345 
C 181.30875 172.9345 181.30875 172.9345 181.30875 172.9345 
C 181.30875 172.9345 181.30875 172.9345 181.30875 172.9345 
C 181.30875 172.9345 181.30875 172.9345 181.30875 172.9345 
C 181.30875 172.9345 181.30875 172.9345 181.30875 172.9345 
z
" style="fill: #ffffff"/>
   </g>
   <g id="matplotlib.axis_1">
    <g id="xtick_1">
     <g id="line2d_1">
      <path d="M 181.30875 172.9345 
L 181.30875 62.0545 
" clip-path="url(#pb4839e9cee)" style="fill: none; stroke: #b0b0b0; stroke-width: 0.8; stroke-linecap: square"/>
     </g>
     <g id="text_1">
      <!-- N -->
      <g transform="translate(177.124375 56.313875) scale(0.1 -0.1)">
       <defs>
        <path id="DejaVuSans-Bold-4e" d="M 588 4666 
L 1931 4666 
L 3628 1466 
L 3628 4666 
L 4769 4666 
L 4769 0 
L 3425 0 
L 1728 3200 
L 1728 0 
L 588 0 
L 588 4666 
z
" transform="scale(0.015625)"/>
       </defs>
       <use xlink:href="#DejaVuSans-Bold-4e"/>
      </g>
     </g>
    </g>
    <g id="xtick_2">
     <g id="line2d_2">
      <path d="M 181.30875 172.9345 
L 259.71275 94.5305 
" clip-path="url(#pb4839e9cee)" style="fill: none; stroke: #b0b0b0; stroke-width: 0.8; stroke-linecap: square"/>
     </g>
    </g>
    <g id="xtick_3">
     <g id="line2d_3">
      <path d="M 181.30875 172.9345 
L 292.18875 172.9345 
" clip-path="url(#pb4839e9cee)" style="fill: none; stroke: #b0b0b0; stroke-width: 0.8; stroke-linecap: square"/>
     </g>
     <g id="text_2">
      <!-- E -->
      <g transform="translate(297.273125 175.693875) scale(0.1 -0.1)">
       <defs>
        <path id="DejaVuSans-Bold-45" d="M 588 4666 
L 3834 4666 
L 3834 3756 
L 1791 3756 
L 1791 2888 
L 3713 2888 
L 3713 1978 
L 1791 1978 
L 1791 909 
L 3903 909 
L 3903 0 
L 588 0 
L 588 4666 
z
" transform="scale(0.015625)"/>
       </defs>
       <use xlink:href="#DejaVuSans-Bold-45"/>
      </g>
     </g>
    </g>
    <g id="xtick_4">
     <g id="line2d_4">
      <path d="M 181.30875 172.9345 
L 259.71275 251.3385 
" clip-path="url(#pb4839e9cee)" style="fill: none; stroke: #b0b0b0; stroke-width: 0.8; stroke-linecap: square"/>
     </g>
    </g>
    <g id="xtick_5">
     <g id="line2d_5">
      <path d="M 181.30875 172.9345 
L 181.30875 283.8145 
" clip-path="url(#pb4839e9cee)" style="fill: none; stroke: #b0b0b0; stroke-width: 0.8; stroke-linecap: square"/>
     </g>
     <g id="text_3">
      <!-- S -->
      <g transform="translate(177.707969 295.073875) scale(0.1 -0.1)">
       <defs>
        <path id="DejaVuSans-Bold-53" d="M 3834 4519 
L 3834 3531 
Q 3450 3703 3084 3790 
Q 2719 3878 2394 3878 
Q 1963 3878 1756 3759 
Q 1550 3641 1550 3391 
Q 1550 3203 1689 3098 
Q 1828 2994 2194 2919 
L 2706 2816 
Q 3484 2659 3812 2340 
Q 4141 2022 4141 1434 
Q 4141 663 3683 286 
Q 3225 -91 2284 -91 
Q 1841 -91 1394 -6 
Q 947 78 500 244 
L 500 1259 
Q 947 1022 1364 901 
Q 1781 781 2169 781 
Q 2563 781 2772 912 
Q 2981 1044 2981 1288 
Q 2981 1506 2839 1625 
Q 2697 1744 2272 1838 
L 1806 1941 
Q 1106 2091 782 2419 
Q 459 2747 459 3303 
Q 459 4000 909 4375 
Q 1359 4750 2203 4750 
Q 2588 4750 2994 4692 
Q 3400 4634 3834 4519 
z
" transform="scale(0.015625)"/>
       </defs>
       <use xlink:href="#DejaVuSans-Bold-53"/>
      </g>
     </g>
    </g>
    <g id="xtick_6">
     <g id="line2d_6">
      <path d="M 181.30875 172.9345 
L 102.90475 251.3385 
" clip-path="url(#pb4839e9cee)" style="fill: none; stroke: #b0b0b0; stroke-width: 0.8; stroke-linecap: square"/>
     </g>
    </g>
    <g id="xtick_7">
     <g id="line2d_7">
      <path d="M 181.30875 172.9345 
L 70.42875 172.9345 
" clip-path="url(#pb4839e9cee)" style="fill: none; stroke: #b0b0b0; stroke-width: 0.8; stroke-linecap: square"/>
     </g>
     <g id="text_4">
      <!-- W -->
      <g transform="translate(56.413906 175.693875) scale(0.1 -0.1)">
       <defs>
        <path id="DejaVuSans-Bold-57" d="M 191 4666 
L 1344 4666 
L 2150 1275 
L 2950 4666 
L 4109 4666 
L 4909 1275 
L 5716 4666 
L 6859 4666 
L 5759 0 
L 4372 0 
L 3525 3547 
L 2688 0 
L 1300 0 
L 191 4666 
z
" transform="scale(0.015625)"/>
       </defs>
       <use xlink:href="#DejaVuSans-Bold-57"/>
      </g>
     </g>
    </g>
    <g id="xtick_8">
     <g id="line2d_8">
      <path d="M 181.30875 172.9345 
L 102.90475 94.5305 
" clip-path="url(#pb4839e9cee)" style="fill: none; stroke: #b0b0b0; stroke-width: 0.8; stroke-linecap: square"/>
     </g>
    </g>
   </g>
   <g id="matplotlib.axis_2"/>
   <g id="patch_3">
    <path d="M 181.30875 172.9345 
C 181.30875 172.9345 181.30875 172.9345 181.30875 172.9345 
C 181.30875 172.9345 181.30875 172.9345 181.30875 172.9345 
L 184.237478 143.198621 
C 183.264179 143.102759 182.286759 143.054741 181.30875 143.054741 
C 180.330741 143.054741 179.353321 143.102759 178.380022 143.198621 
z
" clip-path="url(#pb4839e9cee)" style="fill: #d4a0a7; stroke: #000000; stroke-width: 0.5; stroke-linejoin: miter"/>
   </g>
   <g id="patch_4">
    <path d="M 181.30875 172.9345 
C 181.30875 172.9345 181.30875 172.9345 181.30875 172.9345 
C 181.30875 172.9345 181.30875 172.9345 181.30875 172.9345 
L 186.080538 157.204022 
C 185.565656 157.047834 185.043416 156.91702 184.515704 156.812051 
C 183.987993 156.707083 183.455445 156.628087 182.919986 156.575349 
z
" clip-path="url(#pb4839e9cee)" style="fill: #d4a0a7; stroke: #000000; stroke-width: 0.5; stroke-linejoin: miter"/>
   </g>
   <g id="patch_5">
    <path d="M 181.30875 172.9345 
C 181.30875 172.9345 181.30875 172.9345 181.30875 172.9345 
C 181.30875 172.9345 181.30875 172.9345 181.30875 172.9345 
L 208.716431 121.658335 
C 207.038086 120.761241 205.316707 119.94709 203.558512 119.218822 
C 201.800318 118.490554 200.007428 117.849047 198.186317 117.296619 
z
" clip-path="url(#pb4839e9cee)" style="fill: #d4a0a7; stroke: #000000; stroke-width: 0.5; stroke-linejoin: miter"/>
   </g>
   <g id="patch_6">
    <path d="M 181.30875 172.9345 
C 181.30875 172.9345 181.30875 172.9345 181.30875 172.9345 
C 181.30875 172.9345 181.30875 172.9345 181.30875 172.9345 
L 203.694512 145.65737 
C 202.801691 144.924651 201.873433 144.236208 200.913092 143.594529 
C 199.952751 142.95285 198.961484 142.358707 197.942872 141.814247 
z
" clip-path="url(#pb4839e9cee)" style="fill: #d4a0a7; stroke: #000000; stroke-width: 0.5; stroke-linejoin: miter"/>
   </g>
   <g id="patch_7">
    <path d="M 181.30875 172.9345 
C 181.30875 172.9345 181.30875 172.9345 181.30875 172.9345 
C 181.30875 172.9345 181.30875 172.9345 181.30875 172.9345 
L 255.081511 112.390759 
C 253.099824 109.976067 251.000777 107.660125 248.791951 105.451299 
C 246.583125 103.242473 244.267183 101.143426 241.852491 99.161739 
z
" clip-path="url(#pb4839e9cee)" style="fill: #d4a0a7; stroke: #000000; stroke-width: 0.5; stroke-linejoin: miter"/>
   </g>
   <g id="patch_8">
    <path d="M 181.30875 172.9345 
C 181.30875 172.9345 181.30875 172.9345 181.30875 172.9345 
C 181.30875 172.9345 181.30875 172.9345 181.30875 172.9345 
L 279.09618 120.66603 
C 277.385355 117.465301 275.518414 114.350499 273.502101 111.332873 
C 271.485787 108.315247 269.322532 105.398435 267.020149 102.592973 
z
" clip-path="url(#pb4839e9cee)" style="fill: #d4a0a7; stroke: #000000; stroke-width: 0.5; stroke-linejoin: miter"/>
   </g>
   <g id="patch_9">
    <path d="M 181.30875 172.9345 
C 181.30875 172.9345 181.30875 172.9345 181.30875 172.9345 
C 181.30875 172.9345 181.30875 172.9345 181.30875 172.9345 
L 260.71573 148.846656 
C 259.927299 146.247547 259.011734 143.688714 257.972342 141.1794 
C 256.93295 138.670086 255.770985 136.213316 254.490642 133.817964 
z
" clip-path="url(#pb4839e9cee)" style="fill: #d4a0a7; stroke: #000000; stroke-width: 0.5; stroke-linejoin: miter"/>
   </g>
   <g id="patch_10">
    <path d="M 181.30875 172.9345 
C 181.30875 172.9345 181.30875 172.9345 181.30875 172.9345 
C 181.30875 172.9345 181.30875 172.9345 181.30875 172.9345 
L 266.231497 164.570339 
C 265.957726 161.790691 265.547646 159.02616 265.00274 156.28673 
C 264.457834 153.547301 263.778757 150.836276 262.967964 148.163448 
z
" clip-path="url(#pb4839e9cee)" style="fill: #d4a0a7; stroke: #000000; stroke-width: 0.5; stroke-linejoin: miter"/>
   </g>
   <g id="patch_11">
    <path d="M 181.30875 172.9345 
C 181.30875 172.9345 181.30875 172.9345 181.30875 172.9345 
C 181.30875 172.9345 181.30875 172.9345 181.30875 172.9345 
L 231.656679 177.893338 
C 231.818989 176.245375 231.900291 174.590437 231.900291 172.9345 
C 231.900291 171.278563 231.818989 169.623625 231.656679 167.975662 
z
" clip-path="url(#pb4839e9cee)" style="fill: #d4a0a7; stroke: #000000; stroke-width: 0.5; stroke-linejoin: miter"/>
   </g>
   <g id="patch_12">
    <path d="M 181.30875 172.9345 
C 181.30875 172.9345 181.30875 172.9345 181.30875 172.9345 
C 181.30875 172.9345 181.30875 172.9345 181.30875 172.9345 
L 201.612648 179.09362 
C 201.814245 178.429043 201.983092 177.754969 202.118579 177.073832 
C 202.254065 176.392695 202.356028 175.705317 202.424099 175.01418 
z
" clip-path="url(#pb4839e9cee)" style="fill: #d4a0a7; stroke: #000000; stroke-width: 0.5; stroke-linejoin: miter"/>
   </g>
   <g id="patch_13">
    <path d="M 181.30875 172.9345 
C 181.30875 172.9345 181.30875 172.9345 181.30875 172.9345 
C 181.30875 172.9345 181.30875 172.9345 181.30875 172.9345 
L 187.792136 176.399942 
C 187.905565 176.187731 188.008507 175.970079 188.100589 175.747772 
C 188.192672 175.525465 188.273784 175.298771 188.343634 175.068509 
z
" clip-path="url(#pb4839e9cee)" style="fill: #d4a0a7; stroke: #000000; stroke-width: 0.5; stroke-linejoin: miter"/>
   </g>
   <g id="patch_14">
    <path d="M 181.30875 172.9345 
C 181.30875 172.9345 181.30875 172.9345 181.30875 172.9345 
C 181.30875 172.9345 181.30875 172.9345 181.30875 172.9345 
L 201.52843 189.528363 
C 202.071572 188.866542 202.581893 188.178454 203.05755 187.466583 
C 203.533207 186.754713 203.973626 186.019918 204.377217 185.264852 
z
" clip-path="url(#pb4839e9cee)" style="fill: #d4a0a7; stroke: #000000; stroke-width: 0.5; stroke-linejoin: miter"/>
   </g>
   <g id="patch_15">
    <path d="M 181.30875 172.9345 
C 181.30875 172.9345 181.30875 172.9345 181.30875 172.9345 
C 181.30875 172.9345 181.30875 172.9345 181.30875 172.9345 
L 195.23753 189.906767 
C 195.793057 189.450857 196.325866 188.967947 196.834032 188.459782 
C 197.342197 187.951616 197.825107 187.418807 198.281017 186.86328 
z
" clip-path="url(#pb4839e9cee)" style="fill: #d4a0a7; stroke: #000000; stroke-width: 0.5; stroke-linejoin: miter"/>
   </g>
   <g id="patch_16">
    <path d="M 181.30875 172.9345 
C 181.30875 172.9345 181.30875 172.9345 181.30875 172.9345 
C 181.30875 172.9345 181.30875 172.9345 181.30875 172.9345 
L 189.057714 187.431792 
C 189.532232 187.178157 189.994011 186.901377 190.441384 186.602452 
C 190.888756 186.303527 191.321183 185.982818 191.737101 185.641482 
z
" clip-path="url(#pb4839e9cee)" style="fill: #d4a0a7; stroke: #000000; stroke-width: 0.5; stroke-linejoin: miter"/>
   </g>
   <g id="patch_17">
    <path d="M 181.30875 172.9345 
C 181.30875 172.9345 181.30875 172.9345 181.30875 172.9345 
C 181.30875 172.9345 181.30875 172.9345 181.30875 172.9345 
L 186.966892 191.586894 
C 187.577413 191.401695 188.178473 191.186632 188.767901 190.942483 
C 189.357329 190.698334 189.934415 190.425393 190.497074 190.124645 
z
" clip-path="url(#pb4839e9cee)" style="fill: #d4a0a7; stroke: #000000; stroke-width: 0.5; stroke-linejoin: miter"/>
   </g>
   <g id="patch_18">
    <path d="M 181.30875 172.9345 
C 181.30875 172.9345 181.30875 172.9345 181.30875 172.9345 
C 181.30875 172.9345 181.30875 172.9345 181.30875 172.9345 
L 182.77134 187.784429 
C 183.257401 187.736556 183.740818 187.664848 184.219845 187.569563 
C 184.698873 187.474279 185.172933 187.355533 185.640314 187.213754 
z
" clip-path="url(#pb4839e9cee)" style="fill: #d4a0a7; stroke: #000000; stroke-width: 0.5; stroke-linejoin: miter"/>
   </g>
   <g id="patch_19">
    <path d="M 181.30875 172.9345 
C 181.30875 172.9345 181.30875 172.9345 181.30875 172.9345 
C 181.30875 172.9345 181.30875 172.9345 181.30875 172.9345 
L 179.319673 193.129937 
C 179.9807 193.195042 180.644525 193.227654 181.30875 193.227654 
C 181.972975 193.227654 182.6368 193.195042 183.297827 193.129937 
z
" clip-path="url(#pb4839e9cee)" style="fill: #d4a0a7; stroke: #000000; stroke-width: 0.5; stroke-linejoin: miter"/>
   </g>
   <g id="patch_20">
    <path d="M 181.30875 172.9345 
C 181.30875 172.9345 181.30875 172.9345 181.30875 172.9345 
C 181.30875 172.9345 181.30875 172.9345 181.30875 172.9345 
L 180.539322 175.470963 
C 180.622344 175.496148 180.706553 175.517241 180.791644 175.534167 
C 180.876735 175.551092 180.962606 175.56383 181.048946 175.572334 
z
" clip-path="url(#pb4839e9cee)" style="fill: #d4a0a7; stroke: #000000; stroke-width: 0.5; stroke-linejoin: miter"/>
   </g>
   <g id="patch_21">
    <path d="M 181.30875 172.9345 
C 181.30875 172.9345 181.30875 172.9345 181.30875 172.9345 
C 181.30875 172.9345 181.30875 172.9345 181.30875 172.9345 
L 181.30875 172.9345 
C 181.30875 172.9345 181.30875 172.9345 181.30875 172.9345 
C 181.30875 172.9345 181.30875 172.9345 181.30875 172.9345 
z
" clip-path="url(#pb4839e9cee)" style="fill: #d4a0a7; stroke: #000000; stroke-width: 0.5; stroke-linejoin: miter"/>
   </g>
   <g id="patch_22">
    <path d="M 181.30875 172.9345 
C 181.30875 172.9345 181.30875 172.9345 181.30875 172.9345 
C 181.30875 172.9345 181.30875 172.9345 181.30875 172.9345 
L 181.30875 172.9345 
C 181.30875 172.9345 181.30875 172.9345 181.30875 172.9345 
C 181.30875 172.9345 181.30875 172.9345 181.30875 172.9345 
z
" clip-path="url(#pb4839e9cee)" style="fill: #d4a0a7; stroke: #000000; stroke-width: 0.5; stroke-linejoin: miter"/>
   </g>
   <g id="patch_23">
    <path d="M 181.30875 172.9345 
C 181.30875 172.9345 181.30875 172.9345 181.30875 172.9345 
C 181.30875 172.9345 181.30875 172.9345 181.30875 172.9345 
L 181.30875 172.9345 
C 181.30875 172.9345 181.30875 172.9345 181.30875 172.9345 
C 181.30875 172.9345 181.30875 172.9345 181.30875 172.9345 
z
" clip-path="url(#pb4839e9cee)" style="fill: #d4a0a7; stroke: #000000; stroke-width: 0.5; stroke-linejoin: miter"/>
   </g>
   <g id="patch_24">
    <path d="M 181.30875 172.9345 
C 181.30875 172.9345 181.30875 172.9345 181.30875 172.9345 
C 181.30875 172.9345 181.30875 172.9345 181.30875 172.9345 
L 181.30875 172.9345 
C 181.30875 172.9345 181.30875 172.9345 181.30875 172.9345 
C 181.30875 172.9345 181.30875 172.9345 181.30875 172.9345 
z
" clip-path="url(#pb4839e9cee)" style="fill: #d4a0a7; stroke: #000000; stroke-width: 0.5; stroke-linejoin: miter"/>
   </g>
   <g id="patch_25">
    <path d="M 181.30875 172.9345 
C 181.30875 172.9345 181.30875 172.9345 181.30875 172.9345 
C 181.30875 172.9345 181.30875 172.9345 181.30875 172.9345 
L 181.30875 172.9345 
C 181.30875 172.9345 181.30875 172.9345 181.30875 172.9345 
C 181.30875 172.9345 181.30875 172.9345 181.30875 172.9345 
z
" clip-path="url(#pb4839e9cee)" style="fill: #d4a0a7; stroke: #000000; stroke-width: 0.5; stroke-linejoin: miter"/>
   </g>
   <g id="patch_26">
    <path d="M 181.30875 172.9345 
C 181.30875 172.9345 181.30875 172.9345 181.30875 172.9345 
C 181.30875 172.9345 181.30875 172.9345 181.30875 172.9345 
L 181.30875 172.9345 
C 181.30875 172.9345 181.30875 172.9345 181.30875 172.9345 
C 181.30875 172.9345 181.30875 172.9345 181.30875 172.9345 
z
" clip-path="url(#pb4839e9cee)" style="fill: #d4a0a7; stroke: #000000; stroke-width: 0.5; stroke-linejoin: miter"/>
   </g>
   <g id="patch_27">
    <path d="M 181.30875 172.9345 
C 181.30875 172.9345 181.30875 172.9345 181.30875 172.9345 
C 181.30875 172.9345 181.30875 172.9345 181.30875 172.9345 
L 181.30875 172.9345 
C 181.30875 172.9345 181.30875 172.9345 181.30875 172.9345 
C 181.30875 172.9345 181.30875 172.9345 181.30875 172.9345 
z
" clip-path="url(#pb4839e9cee)" style="fill: #d4a0a7; stroke: #000000; stroke-width: 0.5; stroke-linejoin: miter"/>
   </g>
   <g id="patch_28">
    <path d="M 181.30875 172.9345 
C 181.30875 172.9345 181.30875 172.9345 181.30875 172.9345 
C 181.30875 172.9345 181.30875 172.9345 181.30875 172.9345 
L 181.30875 172.9345 
C 181.30875 172.9345 181.30875 172.9345 181.30875 172.9345 
C 181.30875 172.9345 181.30875 172.9345 181.30875 172.9345 
z
" clip-path="url(#pb4839e9cee)" style="fill: #d4a0a7; stroke: #000000; stroke-width: 0.5; stroke-linejoin: miter"/>
   </g>
   <g id="patch_29">
    <path d="M 181.30875 172.9345 
C 181.30875 172.9345 181.30875 172.9345 181.30875 172.9345 
C 181.30875 172.9345 181.30875 172.9345 181.30875 172.9345 
L 181.30875 172.9345 
C 181.30875 172.9345 181.30875 172.9345 181.30875 172.9345 
C 181.30875 172.9345 181.30875 172.9345 181.30875 172.9345 
z
" clip-path="url(#pb4839e9cee)" style="fill: #d4a0a7; stroke: #000000; stroke-width: 0.5; stroke-linejoin: miter"/>
   </g>
   <g id="patch_30">
    <path d="M 181.30875 172.9345 
C 181.30875 172.9345 181.30875 172.9345 181.30875 172.9345 
C 181.30875 172.9345 181.30875 172.9345 181.30875 172.9345 
L 181.30875 172.9345 
C 181.30875 172.9345 181.30875 172.9345 181.30875 172.9345 
C 181.30875 172.9345 181.30875 172.9345 181.30875 172.9345 
z
" clip-path="url(#pb4839e9cee)" style="fill: #d4a0a7; stroke: #000000; stroke-width: 0.5; stroke-linejoin: miter"/>
   </g>
   <g id="patch_31">
    <path d="M 181.30875 172.9345 
C 181.30875 172.9345 181.30875 172.9345 181.30875 172.9345 
C 181.30875 172.9345 181.30875 172.9345 181.30875 172.9345 
L 181.30875 172.9345 
C 181.30875 172.9345 181.30875 172.9345 181.30875 172.9345 
C 181.30875 172.9345 181.30875 172.9345 181.30875 172.9345 
z
" clip-path="url(#pb4839e9cee)" style="fill: #d4a0a7; stroke: #000000; stroke-width: 0.5; stroke-linejoin: miter"/>
   </g>
   <g id="patch_32">
    <path d="M 181.30875 172.9345 
C 181.30875 172.9345 181.30875 172.9345 181.30875 172.9345 
C 181.30875 172.9345 181.30875 172.9345 181.30875 172.9345 
L 181.30875 172.9345 
C 181.30875 172.9345 181.30875 172.9345 181.30875 172.9345 
C 181.30875 172.9345 181.30875 172.9345 181.30875 172.9345 
z
" clip-path="url(#pb4839e9cee)" style="fill: #d4a0a7; stroke: #000000; stroke-width: 0.5; stroke-linejoin: miter"/>
   </g>
   <g id="patch_33">
    <path d="M 181.30875 172.9345 
C 181.30875 172.9345 181.30875 172.9345 181.30875 172.9345 
C 181.30875 172.9345 181.30875 172.9345 181.30875 172.9345 
L 175.025191 152.220381 
C 174.347187 152.426051 173.679689 152.664886 173.025109 152.936021 
C 172.370529 153.207157 171.729655 153.510268 171.104803 153.844258 
z
" clip-path="url(#pb4839e9cee)" style="fill: #d4a0a7; stroke: #000000; stroke-width: 0.5; stroke-linejoin: miter"/>
   </g>
   <g id="patch_34">
    <path d="M 181.30875 172.9345 
C 181.30875 172.9345 181.30875 172.9345 181.30875 172.9345 
C 181.30875 172.9345 181.30875 172.9345 181.30875 172.9345 
L 181.30875 172.9345 
C 181.30875 172.9345 181.30875 172.9345 181.30875 172.9345 
C 181.30875 172.9345 181.30875 172.9345 181.30875 172.9345 
z
" clip-path="url(#pb4839e9cee)" style="fill: #d4a0a7; stroke: #000000; stroke-width: 0.5; stroke-linejoin: miter"/>
   </g>
   <g id="PathCollection_1">
    <defs>
     <path id="mf9722e2bed" d="M 0.193618 7.414054 
L 0.193618 7.414054 
C 0.054922 7.414054 -0.078235 7.358899 -0.176308 7.260826 
C -0.274381 7.162753 -0.329536 7.029596 -0.329536 6.890901 
L -0.329536 5.365008 
L -1.528416 6.56393 
L -1.528416 6.56393 
C -1.577018 6.612704 -1.634775 6.651408 -1.698366 6.677814 
C -1.761958 6.704221 -1.830141 6.717815 -1.898997 6.717815 
C -1.967853 6.717815 -2.036037 6.704221 -2.099628 6.677814 
C -2.163219 6.651408 -2.220976 6.612704 -2.269578 6.56393 
L -2.269578 6.56393 
C -2.318353 6.515327 -2.357056 6.457571 -2.383463 6.393979 
C -2.409869 6.330388 -2.423463 6.262205 -2.423463 6.193348 
C -2.423463 6.124492 -2.409869 6.056309 -2.383463 5.992718 
C -2.357056 5.929126 -2.318353 5.87137 -2.269578 5.822767 
L -0.329536 3.884106 
L -0.329536 0.820937 
L -2.98067 2.351538 
L -3.691824 5.001416 
L -3.691824 5.001416 
C -3.727584 5.135411 -3.815199 5.249836 -3.93523 5.319305 
C -4.055261 5.388775 -4.198123 5.407741 -4.332122 5.371997 
L -4.332122 5.371997 
C -4.466126 5.336237 -4.580558 5.248616 -4.650029 5.128576 
C -4.719499 5.008535 -4.73846 4.865662 -4.702703 4.731657 
L -4.262647 3.092721 
L -5.585535 3.855668 
L -5.585535 3.855668 
C -5.645013 3.890144 -5.710708 3.912561 -5.778854 3.921634 
C -5.847001 3.930706 -5.916272 3.926258 -5.982698 3.908543 
C -6.049125 3.890828 -6.111412 3.860192 -6.165991 3.818391 
C -6.220571 3.77659 -6.266379 3.724437 -6.300791 3.664922 
L -6.300791 3.664922 
C -6.335212 3.605364 -6.35755 3.539597 -6.366524 3.471396 
C -6.375498 3.403194 -6.370933 3.333888 -6.35309 3.267452 
C -6.335248 3.201017 -6.304476 3.138749 -6.26254 3.08422 
C -6.220605 3.029692 -6.168323 2.983966 -6.108695 2.949666 
L -4.785807 2.186762 
L -6.424743 1.746706 
L -6.424743 1.746706 
C -6.558747 1.710946 -6.673179 1.623325 -6.74265 1.503284 
C -6.81212 1.383244 -6.831081 1.240371 -6.795324 1.106366 
L -6.795324 1.106366 
C -6.777471 1.039969 -6.746703 0.977739 -6.704784 0.923241 
C -6.662864 0.868744 -6.61061 0.823041 -6.551015 0.788752 
C -6.491421 0.754464 -6.425647 0.732257 -6.357465 0.723406 
C -6.289282 0.714554 -6.220019 0.71923 -6.153645 0.737166 
L -3.505232 1.44698 
L -0.852424 -0.08496 
L -3.503767 -1.615666 
L -6.153645 -0.905851 
L -6.153645 -0.905851 
C -6.22011 -0.887939 -6.289462 -0.883321 -6.357716 -0.892262 
C -6.42597 -0.901202 -6.491793 -0.923527 -6.551403 -0.957953 
C -6.611013 -0.992379 -6.663247 -1.038234 -6.705103 -1.092883 
C -6.746958 -1.147533 -6.777619 -1.209911 -6.795324 -1.276432 
L -6.795324 -1.276432 
C -6.831068 -1.410431 -6.812101 -1.553293 -6.742632 -1.673324 
C -6.673162 -1.793355 -6.558738 -1.88097 -6.424743 -1.91673 
L -4.785807 -2.355447 
L -6.108695 -3.119732 
L -6.108695 -3.119732 
C -6.228699 -3.188976 -6.316415 -3.303132 -6.352417 -3.436921 
C -6.388419 -3.57071 -6.369839 -3.713469 -6.300791 -3.833586 
L -6.300791 -3.833586 
C -6.266491 -3.893214 -6.220765 -3.945496 -6.166237 -3.987431 
C -6.111708 -4.029367 -6.04944 -4.060139 -5.983005 -4.077981 
C -5.91657 -4.095823 -5.847263 -4.100389 -5.779062 -4.091415 
C -5.71086 -4.082441 -5.645094 -4.060102 -5.585535 -4.025682 
L -4.262647 -3.261396 
L -4.702703 -4.900332 
L -4.702703 -4.900332 
C -4.73846 -5.034337 -4.719499 -5.17721 -4.650029 -5.29725 
C -4.580558 -5.417291 -4.466126 -5.504912 -4.332122 -5.540672 
L -4.332122 -5.540672 
C -4.19831 -5.576464 -4.055613 -5.557686 -3.935617 -5.488496 
C -3.81562 -5.419305 -3.727882 -5.305212 -3.691824 -5.171472 
L -2.982009 -2.521594 
L -0.329411 -0.990302 
L -0.329411 -4.051588 
L -2.269453 -5.991589 
L -2.269453 -5.991589 
C -2.318227 -6.040191 -2.356931 -6.097947 -2.383337 -6.161539 
C -2.409744 -6.22513 -2.423338 -6.293314 -2.423338 -6.36217 
C -2.423338 -6.431026 -2.409744 -6.499209 -2.383337 -6.5628 
C -2.356931 -6.626392 -2.318227 -6.684149 -2.269453 -6.732751 
L -2.269453 -6.732751 
C -2.22085 -6.781526 -2.163094 -6.820229 -2.099502 -6.846635 
C -2.035911 -6.873042 -1.967728 -6.886636 -1.898871 -6.886636 
C -1.830015 -6.886636 -1.761832 -6.873042 -1.698241 -6.846635 
C -1.634649 -6.820229 -1.576893 -6.781526 -1.52829 -6.732751 
L -0.329411 -5.533829 
L -0.329411 -7.059722 
L -0.329411 -7.059722 
C -0.329411 -7.198418 -0.274255 -7.331575 -0.176182 -7.429647 
C -0.07811 -7.52772 0.055047 -7.582875 0.193743 -7.582875 
L 0.193743 -7.582875 
C 0.332439 -7.582875 0.465596 -7.52772 0.563669 -7.429647 
C 0.661741 -7.331575 0.716897 -7.198418 0.716897 -7.059722 
L 0.716897 -5.533829 
L 1.915777 -6.732751 
L 1.915777 -6.732751 
C 1.964379 -6.781526 2.022136 -6.820229 2.085727 -6.846635 
C 2.149318 -6.873042 2.217502 -6.886636 2.286358 -6.886636 
C 2.355214 -6.886636 2.423397 -6.873042 2.486989 -6.846635 
C 2.55058 -6.820229 2.608337 -6.781526 2.656939 -6.732751 
L 2.656939 -6.732751 
C 2.705714 -6.684149 2.744417 -6.626392 2.770823 -6.5628 
C 2.79723 -6.499209 2.810824 -6.431026 2.810824 -6.36217 
C 2.810824 -6.293314 2.79723 -6.22513 2.770823 -6.161539 
C 2.744417 -6.097947 2.705714 -6.040191 2.656939 -5.991589 
L 0.716897 -4.051588 
L 0.716897 -0.991139 
L 3.369495 -2.522954 
L 4.07931 -5.171367 
L 4.07931 -5.171367 
C 4.115368 -5.305107 4.203106 -5.4192 4.323103 -5.488391 
C 4.4431 -5.557582 4.585797 -5.576359 4.719608 -5.540567 
L 4.719608 -5.540567 
C 4.853612 -5.504807 4.968045 -5.417186 5.037515 -5.297146 
C 5.106986 -5.177105 5.125946 -5.034232 5.090189 -4.900227 
L 4.650133 -3.262673 
L 5.973022 -4.025577 
L 5.973022 -4.025577 
C 6.03258 -4.059998 6.098346 -4.082336 6.166548 -4.09131 
C 6.234749 -4.100284 6.304056 -4.095719 6.370491 -4.077876 
C 6.436926 -4.060034 6.499194 -4.029262 6.553723 -3.987327 
C 6.608252 -3.945391 6.653978 -3.893109 6.688277 -3.833481 
L 6.688277 -3.833481 
C 6.757325 -3.713365 6.775905 -3.570605 6.739903 -3.436816 
C 6.703901 -3.303027 6.616186 -3.188871 6.496181 -3.119628 
L 5.173293 -2.355342 
L 6.812229 -1.916625 
L 6.812229 -1.916625 
C 6.946224 -1.880865 7.060649 -1.79325 7.130118 -1.67322 
C 7.199588 -1.553189 7.218554 -1.410326 7.18281 -1.276327 
L 7.18281 -1.276327 
C 7.165106 -1.209806 7.134445 -1.147429 7.092589 -1.092779 
C 7.050733 -1.038129 6.998499 -0.992274 6.938889 -0.957848 
C 6.879279 -0.923422 6.813456 -0.901098 6.745202 -0.892157 
C 6.676949 -0.883217 6.607597 -0.887835 6.541131 -0.905746 
L 3.891253 -1.615561 
L 1.239492 -0.084604 
L 3.892718 1.447085 
L 6.541131 0.73727 
L 6.541131 0.73727 
C 6.674948 0.701466 6.817656 0.720237 6.937662 0.789429 
C 7.057669 0.858621 7.145413 0.972721 7.181471 1.10647 
L 7.181471 1.10647 
C 7.217274 1.240293 7.198497 1.383006 7.129297 1.503014 
C 7.060096 1.623021 6.945986 1.710762 6.812229 1.74681 
L 5.173293 2.186866 
L 6.496181 2.949771 
L 6.496181 2.949771 
C 6.555697 2.984183 6.607849 3.029991 6.649651 3.08457 
C 6.691452 3.13915 6.722088 3.201437 6.739803 3.267863 
C 6.757517 3.33429 6.761966 3.403561 6.752893 3.471707 
C 6.743821 3.539854 6.721404 3.605549 6.686927 3.665026 
L 6.686927 3.665026 
C 6.617458 3.784813 6.503196 3.87225 6.369416 3.907994 
C 6.235636 3.943739 6.092989 3.924946 5.973032 3.855772 
L 4.650144 3.091487 
L 5.08886 4.731783 
L 5.08886 4.731783 
C 5.124664 4.865606 5.105887 5.008319 5.036686 5.128326 
C 4.967486 5.248334 4.853376 5.336074 4.719619 5.372123 
L 4.719619 5.372123 
C 4.585619 5.407867 4.442757 5.3889 4.322726 5.319431 
C 4.202695 5.249961 4.115081 5.135537 4.07932 5.001542 
L 3.368166 2.351664 
L 0.717033 0.821063 
L 0.717033 3.884232 
L 2.657075 5.822893 
L 2.657075 5.822893 
C 2.70585 5.871495 2.744553 5.929252 2.770959 5.992843 
C 2.797366 6.056435 2.81096 6.124618 2.81096 6.193474 
C 2.81096 6.26233 2.797366 6.330514 2.770959 6.394105 
C 2.744553 6.457696 2.70585 6.515453 2.657075 6.564055 
L 2.657075 6.564055 
C 2.608473 6.61283 2.550716 6.651533 2.487125 6.67794 
C 2.423533 6.704346 2.35535 6.71794 2.286494 6.71794 
C 2.217638 6.71794 2.149454 6.704346 2.085863 6.67794 
C 2.022272 6.651533 1.964515 6.61283 1.915913 6.564055 
L 0.717033 5.365133 
L 0.717033 6.891026 
L 0.717033 6.891026 
C 0.717033 7.029722 0.661877 7.162879 0.563805 7.260952 
C 0.465732 7.359024 0.332575 7.41418 0.193879 7.41418 
L 0.193618 7.414054 
z
"/>
    </defs>
    <g clip-path="url(#pb4839e9cee)">
     <use xlink:href="#mf9722e2bed" x="266.436611" y="123.358005" style="fill: #0000ff; fill-opacity: 0.7"/>
    </g>
   </g>
   <g id="patch_35">
    <path d="M 181.30875 62.0545 
C 166.748122 62.0545 152.329077 64.922626 138.876811 70.494737 
C 125.424545 76.066849 113.200669 84.234581 102.90475 94.5305 
C 92.608831 104.826419 84.441099 117.050295 78.868987 130.502561 
C 73.296876 143.954827 70.42875 158.373872 70.42875 172.9345 
C 70.42875 187.495128 73.296876 201.914173 78.868987 215.366439 
C 84.441099 228.818705 92.608831 241.042581 102.90475 251.3385 
C 113.200669 261.634419 125.424545 269.802151 138.876811 275.374263 
C 152.329077 280.946374 166.748122 283.8145 181.30875 283.8145 
C 195.869378 283.8145 210.288423 280.946374 223.740689 275.374263 
C 237.192955 269.802151 249.416831 261.634419 259.71275 251.3385 
C 270.008669 241.042581 278.176401 228.818705 283.748513 215.366439 
C 289.320624 201.914173 292.18875 187.495128 292.18875 172.9345 
C 292.18875 158.373872 289.320624 143.954827 283.748513 130.502561 
C 278.176401 117.050295 270.008669 104.826419 259.71275 94.5305 
C 249.416831 84.234581 237.192955 76.066849 223.740689 70.494737 
C 210.288423 64.922626 195.869378 62.0545 181.30875 62.0545 
" style="fill: none; stroke: #000000; stroke-width: 0.8; stroke-linejoin: miter; stroke-linecap: square"/>
   </g>
   <g id="text_5">
    <!-- 6 runs -->
    <g style="fill: #95a5a6" transform="translate(57.43043 56.654618) scale(0.1 -0.1)">
     <defs>
      <path id="DejaVuSans-36" d="M 2113 2584 
Q 1688 2584 1439 2293 
Q 1191 2003 1191 1497 
Q 1191 994 1439 701 
Q 1688 409 2113 409 
Q 2538 409 2786 701 
Q 3034 994 3034 1497 
Q 3034 2003 2786 2293 
Q 2538 2584 2113 2584 
z
M 3366 4563 
L 3366 3988 
Q 3128 4100 2886 4159 
Q 2644 4219 2406 4219 
Q 1781 4219 1451 3797 
Q 1122 3375 1075 2522 
Q 1259 2794 1537 2939 
Q 1816 3084 2150 3084 
Q 2853 3084 3261 2657 
Q 3669 2231 3669 1497 
Q 3669 778 3244 343 
Q 2819 -91 2113 -91 
Q 1303 -91 875 529 
Q 447 1150 447 2328 
Q 447 3434 972 4092 
Q 1497 4750 2381 4750 
Q 2619 4750 2861 4703 
Q 3103 4656 3366 4563 
z
" transform="scale(0.015625)"/>
      <path id="DejaVuSans-20" transform="scale(0.015625)"/>
      <path id="DejaVuSans-72" d="M 2631 2963 
Q 2534 3019 2420 3045 
Q 2306 3072 2169 3072 
Q 1681 3072 1420 2755 
Q 1159 2438 1159 1844 
L 1159 0 
L 581 0 
L 581 3500 
L 1159 3500 
L 1159 2956 
Q 1341 3275 1631 3429 
Q 1922 3584 2338 3584 
Q 2397 3584 2469 3576 
Q 2541 3569 2628 3553 
L 2631 2963 
z
" transform="scale(0.015625)"/>
      <path id="DejaVuSans-75" d="M 544 1381 
L 544 3500 
L 1119 3500 
L 1119 1403 
Q 1119 906 1312 657 
Q 1506 409 1894 409 
Q 2359 409 2629 706 
Q 2900 1003 2900 1516 
L 2900 3500 
L 3475 3500 
L 3475 0 
L 2900 0 
L 2900 538 
Q 2691 219 2414 64 
Q 2138 -91 1772 -91 
Q 1169 -91 856 284 
Q 544 659 544 1381 
z
M 1991 3584 
L 1991 3584 
z
" transform="scale(0.015625)"/>
      <path id="DejaVuSans-6e" d="M 3513 2113 
L 3513 0 
L 2938 0 
L 2938 2094 
Q 2938 2591 2744 2837 
Q 2550 3084 2163 3084 
Q 1697 3084 1428 2787 
Q 1159 2491 1159 1978 
L 1159 0 
L 581 0 
L 581 3500 
L 1159 3500 
L 1159 2956 
Q 1366 3272 1645 3428 
Q 1925 3584 2291 3584 
Q 2894 3584 3203 3211 
Q 3513 2838 3513 2113 
z
" transform="scale(0.015625)"/>
      <path id="DejaVuSans-73" d="M 2834 3397 
L 2834 2853 
Q 2591 2978 2328 3040 
Q 2066 3103 1784 3103 
Q 1356 3103 1142 2972 
Q 928 2841 928 2578 
Q 928 2378 1081 2264 
Q 1234 2150 1697 2047 
L 1894 2003 
Q 2506 1872 2764 1633 
Q 3022 1394 3022 966 
Q 3022 478 2636 193 
Q 2250 -91 1575 -91 
Q 1294 -91 989 -36 
Q 684 19 347 128 
L 347 722 
Q 666 556 975 473 
Q 1284 391 1588 391 
Q 1994 391 2212 530 
Q 2431 669 2431 922 
Q 2431 1156 2273 1281 
Q 2116 1406 1581 1522 
L 1381 1569 
Q 847 1681 609 1914 
Q 372 2147 372 2553 
Q 372 3047 722 3315 
Q 1072 3584 1716 3584 
Q 2034 3584 2315 3537 
Q 2597 3491 2834 3397 
z
" transform="scale(0.015625)"/>
     </defs>
     <use xlink:href="#DejaVuSans-36"/>
     <use xlink:href="#DejaVuSans-20" x="63.623047"/>
     <use xlink:href="#DejaVuSans-72" x="95.410156"/>
     <use xlink:href="#DejaVuSans-75" x="136.523438"/>
     <use xlink:href="#DejaVuSans-6e" x="199.902344"/>
     <use xlink:href="#DejaVuSans-73" x="263.28125"/>
    </g>
    <!-- 3 lifts -->
    <g style="fill: #95a5a6" transform="translate(57.43043 67.85243) scale(0.1 -0.1)">
     <defs>
      <path id="DejaVuSans-33" d="M 2597 2516 
Q 3050 2419 3304 2112 
Q 3559 1806 3559 1356 
Q 3559 666 3084 287 
Q 2609 -91 1734 -91 
Q 1441 -91 1130 -33 
Q 819 25 488 141 
L 488 750 
Q 750 597 1062 519 
Q 1375 441 1716 441 
Q 2309 441 2620 675 
Q 2931 909 2931 1356 
Q 2931 1769 2642 2001 
Q 2353 2234 1838 2234 
L 1294 2234 
L 1294 2753 
L 1863 2753 
Q 2328 2753 2575 2939 
Q 2822 3125 2822 3475 
Q 2822 3834 2567 4026 
Q 2313 4219 1838 4219 
Q 1578 4219 1281 4162 
Q 984 4106 628 3988 
L 628 4550 
Q 988 4650 1302 4700 
Q 1616 4750 1894 4750 
Q 2613 4750 3031 4423 
Q 3450 4097 3450 3541 
Q 3450 3153 3228 2886 
Q 3006 2619 2597 2516 
z
" transform="scale(0.015625)"/>
      <path id="DejaVuSans-6c" d="M 603 4863 
L 1178 4863 
L 1178 0 
L 603 0 
L 603 4863 
z
" transform="scale(0.015625)"/>
      <path id="DejaVuSans-69" d="M 603 3500 
L 1178 3500 
L 1178 0 
L 603 0 
L 603 3500 
z
M 603 4863 
L 1178 4863 
L 1178 4134 
L 603 4134 
L 603 4863 
z
" transform="scale(0.015625)"/>
      <path id="DejaVuSans-66" d="M 2375 4863 
L 2375 4384 
L 1825 4384 
Q 1516 4384 1395 4259 
Q 1275 4134 1275 3809 
L 1275 3500 
L 2222 3500 
L 2222 3053 
L 1275 3053 
L 1275 0 
L 697 0 
L 697 3053 
L 147 3053 
L 147 3500 
L 697 3500 
L 697 3744 
Q 697 4328 969 4595 
Q 1241 4863 1831 4863 
L 2375 4863 
z
" transform="scale(0.015625)"/>
      <path id="DejaVuSans-74" d="M 1172 4494 
L 1172 3500 
L 2356 3500 
L 2356 3053 
L 1172 3053 
L 1172 1153 
Q 1172 725 1289 603 
Q 1406 481 1766 481 
L 2356 481 
L 2356 0 
L 1766 0 
Q 1100 0 847 248 
Q 594 497 594 1153 
L 594 3053 
L 172 3053 
L 172 3500 
L 594 3500 
L 594 4494 
L 1172 4494 
z
" transform="scale(0.015625)"/>
     </defs>
     <use xlink:href="#DejaVuSans-33"/>
     <use xlink:href="#DejaVuSans-20" x="63.623047"/>
     <use xlink:href="#DejaVuSans-6c" x="95.410156"/>
     <use xlink:href="#DejaVuSans-69" x="123.193359"/>
     <use xlink:href="#DejaVuSans-66" x="150.976562"/>
     <use xlink:href="#DejaVuSans-74" x="184.431641"/>
     <use xlink:href="#DejaVuSans-73" x="223.640625"/>
    </g>
   </g>
   <g id="text_6">
    <!-- 876 m -->
    <g style="fill: #95a5a6" transform="translate(274.36207 56.654618) scale(0.1 -0.1)">
     <defs>
      <path id="DejaVuSans-38" d="M 2034 2216 
Q 1584 2216 1326 1975 
Q 1069 1734 1069 1313 
Q 1069 891 1326 650 
Q 1584 409 2034 409 
Q 2484 409 2743 651 
Q 3003 894 3003 1313 
Q 3003 1734 2745 1975 
Q 2488 2216 2034 2216 
z
M 1403 2484 
Q 997 2584 770 2862 
Q 544 3141 544 3541 
Q 544 4100 942 4425 
Q 1341 4750 2034 4750 
Q 2731 4750 3128 4425 
Q 3525 4100 3525 3541 
Q 3525 3141 3298 2862 
Q 3072 2584 2669 2484 
Q 3125 2378 3379 2068 
Q 3634 1759 3634 1313 
Q 3634 634 3220 271 
Q 2806 -91 2034 -91 
Q 1263 -91 848 271 
Q 434 634 434 1313 
Q 434 1759 690 2068 
Q 947 2378 1403 2484 
z
M 1172 3481 
Q 1172 3119 1398 2916 
Q 1625 2713 2034 2713 
Q 2441 2713 2670 2916 
Q 2900 3119 2900 3481 
Q 2900 3844 2670 4047 
Q 2441 4250 2034 4250 
Q 1625 4250 1398 4047 
Q 1172 3844 1172 3481 
z
" transform="scale(0.015625)"/>
      <path id="DejaVuSans-37" d="M 525 4666 
L 3525 4666 
L 3525 4397 
L 1831 0 
L 1172 0 
L 2766 4134 
L 525 4134 
L 525 4666 
z
" transform="scale(0.015625)"/>
      <path id="DejaVuSans-202f" transform="scale(0.015625)"/>
      <path id="DejaVuSans-6d" d="M 3328 2828 
Q 3544 3216 3844 3400 
Q 4144 3584 4550 3584 
Q 5097 3584 5394 3201 
Q 5691 2819 5691 2113 
L 5691 0 
L 5113 0 
L 5113 2094 
Q 5113 2597 4934 2840 
Q 4756 3084 4391 3084 
Q 3944 3084 3684 2787 
Q 3425 2491 3425 1978 
L 3425 0 
L 2847 0 
L 2847 2094 
Q 2847 2600 2669 2842 
Q 2491 3084 2119 3084 
Q 1678 3084 1418 2786 
Q 1159 2488 1159 1978 
L 1159 0 
L 581 0 
L 581 3500 
L 1159 3500 
L 1159 2956 
Q 1356 3278 1631 3431 
Q 1906 3584 2284 3584 
Q 2666 3584 2933 3390 
Q 3200 3197 3328 2828 
z
" transform="scale(0.015625)"/>
     </defs>
     <use xlink:href="#DejaVuSans-38"/>
     <use xlink:href="#DejaVuSans-37" x="63.623047"/>
     <use xlink:href="#DejaVuSans-36" x="127.246094"/>
     <use xlink:href="#DejaVuSans-202f" x="190.869141"/>
     <use xlink:href="#DejaVuSans-6d" x="210.839844"/>
    </g>
    <!-- skiable -->
    <g style="fill: #95a5a6" transform="translate(270.001132 67.85243) scale(0.1 -0.1)">
     <defs>
      <path id="DejaVuSans-6b" d="M 581 4863 
L 1159 4863 
L 1159 1991 
L 2875 3500 
L 3609 3500 
L 1753 1863 
L 3688 0 
L 2938 0 
L 1159 1709 
L 1159 0 
L 581 0 
L 581 4863 
z
" transform="scale(0.015625)"/>
      <path id="DejaVuSans-61" d="M 2194 1759 
Q 1497 1759 1228 1600 
Q 959 1441 959 1056 
Q 959 750 1161 570 
Q 1363 391 1709 391 
Q 2188 391 2477 730 
Q 2766 1069 2766 1631 
L 2766 1759 
L 2194 1759 
z
M 3341 1997 
L 3341 0 
L 2766 0 
L 2766 531 
Q 2569 213 2275 61 
Q 1981 -91 1556 -91 
Q 1019 -91 701 211 
Q 384 513 384 1019 
Q 384 1609 779 1909 
Q 1175 2209 1959 2209 
L 2766 2209 
L 2766 2266 
Q 2766 2663 2505 2880 
Q 2244 3097 1772 3097 
Q 1472 3097 1187 3025 
Q 903 2953 641 2809 
L 641 3341 
Q 956 3463 1253 3523 
Q 1550 3584 1831 3584 
Q 2591 3584 2966 3190 
Q 3341 2797 3341 1997 
z
" transform="scale(0.015625)"/>
      <path id="DejaVuSans-62" d="M 3116 1747 
Q 3116 2381 2855 2742 
Q 2594 3103 2138 3103 
Q 1681 3103 1420 2742 
Q 1159 2381 1159 1747 
Q 1159 1113 1420 752 
Q 1681 391 2138 391 
Q 2594 391 2855 752 
Q 3116 1113 3116 1747 
z
M 1159 2969 
Q 1341 3281 1617 3432 
Q 1894 3584 2278 3584 
Q 2916 3584 3314 3078 
Q 3713 2572 3713 1747 
Q 3713 922 3314 415 
Q 2916 -91 2278 -91 
Q 1894 -91 1617 61 
Q 1341 213 1159 525 
L 1159 0 
L 581 0 
L 581 4863 
L 1159 4863 
L 1159 2969 
z
" transform="scale(0.015625)"/>
      <path id="DejaVuSans-65" d="M 3597 1894 
L 3597 1613 
L 953 1613 
Q 991 1019 1311 708 
Q 1631 397 2203 397 
Q 2534 397 2845 478 
Q 3156 559 3463 722 
L 3463 178 
Q 3153 47 2828 -22 
Q 2503 -91 2169 -91 
Q 1331 -91 842 396 
Q 353 884 353 1716 
Q 353 2575 817 3079 
Q 1281 3584 2069 3584 
Q 2775 3584 3186 3129 
Q 3597 2675 3597 1894 
z
M 3022 2063 
Q 3016 2534 2758 2815 
Q 2500 3097 2075 3097 
Q 1594 3097 1305 2825 
Q 1016 2553 972 2059 
L 3022 2063 
z
" transform="scale(0.015625)"/>
     </defs>
     <use xlink:href="#DejaVuSans-73"/>
     <use xlink:href="#DejaVuSans-6b" x="52.099609"/>
     <use xlink:href="#DejaVuSans-69" x="110.009766"/>
     <use xlink:href="#DejaVuSans-61" x="137.792969"/>
     <use xlink:href="#DejaVuSans-62" x="199.072266"/>
     <use xlink:href="#DejaVuSans-6c" x="262.548828"/>
     <use xlink:href="#DejaVuSans-65" x="290.332031"/>
    </g>
    <!-- vert -->
    <g style="fill: #95a5a6" transform="translate(285.083945 79.050243) scale(0.1 -0.1)">
     <defs>
      <path id="DejaVuSans-76" d="M 191 3500 
L 800 3500 
L 1894 563 
L 2988 3500 
L 3597 3500 
L 2284 0 
L 1503 0 
L 191 3500 
z
" transform="scale(0.015625)"/>
     </defs>
     <use xlink:href="#DejaVuSans-76"/>
     <use xlink:href="#DejaVuSans-65" x="59.179688"/>
     <use xlink:href="#DejaVuSans-72" x="120.703125"/>
     <use xlink:href="#DejaVuSans-74" x="161.816406"/>
    </g>
   </g>
   <g id="text_7">
    <!-- affinity: -->
    <g style="fill: #95a5a6" transform="translate(57.43043 272.337507) scale(0.1 -0.1)">
     <defs>
      <path id="DejaVuSans-79" d="M 2059 -325 
Q 1816 -950 1584 -1140 
Q 1353 -1331 966 -1331 
L 506 -1331 
L 506 -850 
L 844 -850 
Q 1081 -850 1212 -737 
Q 1344 -625 1503 -206 
L 1606 56 
L 191 3500 
L 800 3500 
L 1894 763 
L 2988 3500 
L 3597 3500 
L 2059 -325 
z
" transform="scale(0.015625)"/>
      <path id="DejaVuSans-3a" d="M 750 794 
L 1409 794 
L 1409 0 
L 750 0 
L 750 794 
z
M 750 3309 
L 1409 3309 
L 1409 2516 
L 750 2516 
L 750 3309 
z
" transform="scale(0.015625)"/>
     </defs>
     <use xlink:href="#DejaVuSans-61"/>
     <use xlink:href="#DejaVuSans-66" x="61.279297"/>
     <use xlink:href="#DejaVuSans-66" x="96.484375"/>
     <use xlink:href="#DejaVuSans-69" x="131.689453"/>
     <use xlink:href="#DejaVuSans-6e" x="159.472656"/>
     <use xlink:href="#DejaVuSans-69" x="222.851562"/>
     <use xlink:href="#DejaVuSans-74" x="250.634766"/>
     <use xlink:href="#DejaVuSans-79" x="289.84375"/>
     <use xlink:href="#DejaVuSans-3a" x="341.773438"/>
    </g>
    <!-- 45% poleward -->
    <g style="fill: #95a5a6" transform="translate(57.43043 283.53532) scale(0.1 -0.1)">
     <defs>
      <path id="DejaVuSans-34" d="M 2419 4116 
L 825 1625 
L 2419 1625 
L 2419 4116 
z
M 2253 4666 
L 3047 4666 
L 3047 1625 
L 3713 1625 
L 3713 1100 
L 3047 1100 
L 3047 0 
L 2419 0 
L 2419 1100 
L 313 1100 
L 313 1709 
L 2253 4666 
z
" transform="scale(0.015625)"/>
      <path id="DejaVuSans-35" d="M 691 4666 
L 3169 4666 
L 3169 4134 
L 1269 4134 
L 1269 2991 
Q 1406 3038 1543 3061 
Q 1681 3084 1819 3084 
Q 2600 3084 3056 2656 
Q 3513 2228 3513 1497 
Q 3513 744 3044 326 
Q 2575 -91 1722 -91 
Q 1428 -91 1123 -41 
Q 819 9 494 109 
L 494 744 
Q 775 591 1075 516 
Q 1375 441 1709 441 
Q 2250 441 2565 725 
Q 2881 1009 2881 1497 
Q 2881 1984 2565 2268 
Q 2250 2553 1709 2553 
Q 1456 2553 1204 2497 
Q 953 2441 691 2322 
L 691 4666 
z
" transform="scale(0.015625)"/>
      <path id="DejaVuSans-25" d="M 4653 2053 
Q 4381 2053 4226 1822 
Q 4072 1591 4072 1178 
Q 4072 772 4226 539 
Q 4381 306 4653 306 
Q 4919 306 5073 539 
Q 5228 772 5228 1178 
Q 5228 1588 5073 1820 
Q 4919 2053 4653 2053 
z
M 4653 2450 
Q 5147 2450 5437 2106 
Q 5728 1763 5728 1178 
Q 5728 594 5436 251 
Q 5144 -91 4653 -91 
Q 4153 -91 3862 251 
Q 3572 594 3572 1178 
Q 3572 1766 3864 2108 
Q 4156 2450 4653 2450 
z
M 1428 4353 
Q 1159 4353 1004 4120 
Q 850 3888 850 3481 
Q 850 3069 1003 2837 
Q 1156 2606 1428 2606 
Q 1700 2606 1854 2837 
Q 2009 3069 2009 3481 
Q 2009 3884 1853 4118 
Q 1697 4353 1428 4353 
z
M 4250 4750 
L 4750 4750 
L 1831 -91 
L 1331 -91 
L 4250 4750 
z
M 1428 4750 
Q 1922 4750 2215 4408 
Q 2509 4066 2509 3481 
Q 2509 2891 2217 2550 
Q 1925 2209 1428 2209 
Q 931 2209 642 2551 
Q 353 2894 353 3481 
Q 353 4063 643 4406 
Q 934 4750 1428 4750 
z
" transform="scale(0.015625)"/>
      <path id="DejaVuSans-70" d="M 1159 525 
L 1159 -1331 
L 581 -1331 
L 581 3500 
L 1159 3500 
L 1159 2969 
Q 1341 3281 1617 3432 
Q 1894 3584 2278 3584 
Q 2916 3584 3314 3078 
Q 3713 2572 3713 1747 
Q 3713 922 3314 415 
Q 2916 -91 2278 -91 
Q 1894 -91 1617 61 
Q 1341 213 1159 525 
z
M 3116 1747 
Q 3116 2381 2855 2742 
Q 2594 3103 2138 3103 
Q 1681 3103 1420 2742 
Q 1159 2381 1159 1747 
Q 1159 1113 1420 752 
Q 1681 391 2138 391 
Q 2594 391 2855 752 
Q 3116 1113 3116 1747 
z
" transform="scale(0.015625)"/>
      <path id="DejaVuSans-6f" d="M 1959 3097 
Q 1497 3097 1228 2736 
Q 959 2375 959 1747 
Q 959 1119 1226 758 
Q 1494 397 1959 397 
Q 2419 397 2687 759 
Q 2956 1122 2956 1747 
Q 2956 2369 2687 2733 
Q 2419 3097 1959 3097 
z
M 1959 3584 
Q 2709 3584 3137 3096 
Q 3566 2609 3566 1747 
Q 3566 888 3137 398 
Q 2709 -91 1959 -91 
Q 1206 -91 779 398 
Q 353 888 353 1747 
Q 353 2609 779 3096 
Q 1206 3584 1959 3584 
z
" transform="scale(0.015625)"/>
      <path id="DejaVuSans-77" d="M 269 3500 
L 844 3500 
L 1563 769 
L 2278 3500 
L 2956 3500 
L 3675 769 
L 4391 3500 
L 4966 3500 
L 4050 0 
L 3372 0 
L 2619 2869 
L 1863 0 
L 1184 0 
L 269 3500 
z
" transform="scale(0.015625)"/>
      <path id="DejaVuSans-64" d="M 2906 2969 
L 2906 4863 
L 3481 4863 
L 3481 0 
L 2906 0 
L 2906 525 
Q 2725 213 2448 61 
Q 2172 -91 1784 -91 
Q 1150 -91 751 415 
Q 353 922 353 1747 
Q 353 2572 751 3078 
Q 1150 3584 1784 3584 
Q 2172 3584 2448 3432 
Q 2725 3281 2906 2969 
z
M 947 1747 
Q 947 1113 1208 752 
Q 1469 391 1925 391 
Q 2381 391 2643 752 
Q 2906 1113 2906 1747 
Q 2906 2381 2643 2742 
Q 2381 3103 1925 3103 
Q 1469 3103 1208 2742 
Q 947 2381 947 1747 
z
" transform="scale(0.015625)"/>
     </defs>
     <use xlink:href="#DejaVuSans-34"/>
     <use xlink:href="#DejaVuSans-35" x="63.623047"/>
     <use xlink:href="#DejaVuSans-25" x="127.246094"/>
     <use xlink:href="#DejaVuSans-20" x="222.265625"/>
     <use xlink:href="#DejaVuSans-70" x="254.052734"/>
     <use xlink:href="#DejaVuSans-6f" x="317.529297"/>
     <use xlink:href="#DejaVuSans-6c" x="378.710938"/>
     <use xlink:href="#DejaVuSans-65" x="406.494141"/>
     <use xlink:href="#DejaVuSans-77" x="468.017578"/>
     <use xlink:href="#DejaVuSans-61" x="549.804688"/>
     <use xlink:href="#DejaVuSans-72" x="611.083984"/>
     <use xlink:href="#DejaVuSans-64" x="650.447266"/>
    </g>
    <!-- 77% eastward -->
    <g style="fill: #95a5a6" transform="translate(57.43043 294.733132) scale(0.1 -0.1)">
     <use xlink:href="#DejaVuSans-37"/>
     <use xlink:href="#DejaVuSans-37" x="63.623047"/>
     <use xlink:href="#DejaVuSans-25" x="127.246094"/>
     <use xlink:href="#DejaVuSans-20" x="222.265625"/>
     <use xlink:href="#DejaVuSans-65" x="254.052734"/>
     <use xlink:href="#DejaVuSans-61" x="315.576172"/>
     <use xlink:href="#DejaVuSans-73" x="376.855469"/>
     <use xlink:href="#DejaVuSans-74" x="428.955078"/>
     <use xlink:href="#DejaVuSans-77" x="468.164062"/>
     <use xlink:href="#DejaVuSans-61" x="549.951172"/>
     <use xlink:href="#DejaVuSans-72" x="611.230469"/>
     <use xlink:href="#DejaVuSans-64" x="650.59375"/>
    </g>
   </g>
   <g id="text_8">
    <!-- elevation: -->
    <g style="fill: #95a5a6" transform="translate(255.532382 272.337507) scale(0.1 -0.1)">
     <use xlink:href="#DejaVuSans-65"/>
     <use xlink:href="#DejaVuSans-6c" x="61.523438"/>
     <use xlink:href="#DejaVuSans-65" x="89.306641"/>
     <use xlink:href="#DejaVuSans-76" x="150.830078"/>
     <use xlink:href="#DejaVuSans-61" x="210.009766"/>
     <use xlink:href="#DejaVuSans-74" x="271.289062"/>
     <use xlink:href="#DejaVuSans-69" x="310.498047"/>
     <use xlink:href="#DejaVuSans-6f" x="338.28125"/>
     <use xlink:href="#DejaVuSans-6e" x="399.462891"/>
     <use xlink:href="#DejaVuSans-3a" x="462.841797"/>
    </g>
    <!-- 901 m base -->
    <g style="fill: #95a5a6" transform="translate(247.344882 283.53532) scale(0.1 -0.1)">
     <defs>
      <path id="DejaVuSans-39" d="M 703 97 
L 703 672 
Q 941 559 1184 500 
Q 1428 441 1663 441 
Q 2288 441 2617 861 
Q 2947 1281 2994 2138 
Q 2813 1869 2534 1725 
Q 2256 1581 1919 1581 
Q 1219 1581 811 2004 
Q 403 2428 403 3163 
Q 403 3881 828 4315 
Q 1253 4750 1959 4750 
Q 2769 4750 3195 4129 
Q 3622 3509 3622 2328 
Q 3622 1225 3098 567 
Q 2575 -91 1691 -91 
Q 1453 -91 1209 -44 
Q 966 3 703 97 
z
M 1959 2075 
Q 2384 2075 2632 2365 
Q 2881 2656 2881 3163 
Q 2881 3666 2632 3958 
Q 2384 4250 1959 4250 
Q 1534 4250 1286 3958 
Q 1038 3666 1038 3163 
Q 1038 2656 1286 2365 
Q 1534 2075 1959 2075 
z
" transform="scale(0.015625)"/>
      <path id="DejaVuSans-30" d="M 2034 4250 
Q 1547 4250 1301 3770 
Q 1056 3291 1056 2328 
Q 1056 1369 1301 889 
Q 1547 409 2034 409 
Q 2525 409 2770 889 
Q 3016 1369 3016 2328 
Q 3016 3291 2770 3770 
Q 2525 4250 2034 4250 
z
M 2034 4750 
Q 2819 4750 3233 4129 
Q 3647 3509 3647 2328 
Q 3647 1150 3233 529 
Q 2819 -91 2034 -91 
Q 1250 -91 836 529 
Q 422 1150 422 2328 
Q 422 3509 836 4129 
Q 1250 4750 2034 4750 
z
" transform="scale(0.015625)"/>
      <path id="DejaVuSans-31" d="M 794 531 
L 1825 531 
L 1825 4091 
L 703 3866 
L 703 4441 
L 1819 4666 
L 2450 4666 
L 2450 531 
L 3481 531 
L 3481 0 
L 794 0 
L 794 531 
z
" transform="scale(0.015625)"/>
     </defs>
     <use xlink:href="#DejaVuSans-39"/>
     <use xlink:href="#DejaVuSans-30" x="63.623047"/>
     <use xlink:href="#DejaVuSans-31" x="127.246094"/>
     <use xlink:href="#DejaVuSans-202f" x="190.869141"/>
     <use xlink:href="#DejaVuSans-6d" x="210.839844"/>
     <use xlink:href="#DejaVuSans-20" x="308.251953"/>
     <use xlink:href="#DejaVuSans-62" x="340.039062"/>
     <use xlink:href="#DejaVuSans-61" x="403.515625"/>
     <use xlink:href="#DejaVuSans-73" x="464.794922"/>
     <use xlink:href="#DejaVuSans-65" x="516.894531"/>
    </g>
    <!-- 1,166 m peak -->
    <g style="fill: #95a5a6" transform="translate(237.223007 294.733132) scale(0.1 -0.1)">
     <defs>
      <path id="DejaVuSans-2c" d="M 750 794 
L 1409 794 
L 1409 256 
L 897 -744 
L 494 -744 
L 750 256 
L 750 794 
z
" transform="scale(0.015625)"/>
     </defs>
     <use xlink:href="#DejaVuSans-31"/>
     <use xlink:href="#DejaVuSans-2c" x="63.623047"/>
     <use xlink:href="#DejaVuSans-31" x="95.410156"/>
     <use xlink:href="#DejaVuSans-36" x="159.033203"/>
     <use xlink:href="#DejaVuSans-36" x="222.65625"/>
     <use xlink:href="#DejaVuSans-202f" x="286.279297"/>
     <use xlink:href="#DejaVuSans-6d" x="306.25"/>
     <use xlink:href="#DejaVuSans-20" x="403.662109"/>
     <use xlink:href="#DejaVuSans-70" x="435.449219"/>
     <use xlink:href="#DejaVuSans-65" x="498.925781"/>
     <use xlink:href="#DejaVuSans-61" x="560.449219"/>
     <use xlink:href="#DejaVuSans-6b" x="621.728516"/>
    </g>
   </g>
   <g id="text_9">
    <!-- モンデウス飛騨位山スノーパーク, Mont Deus -->
    <g transform="translate(7.2 20.05) scale(0.16 -0.16)">
     <defs>
      <path id="NotoSansCJKjp-Bold-30e2" d="M 678 2867 
L 678 2029 
C 870 2042 1190 2061 1376 2061 
L 2419 2061 
L 2419 826 
C 2419 179 2707 -224 3878 -224 
C 4480 -224 5203 -198 5619 -173 
L 5677 691 
C 5165 640 4595 602 4026 602 
C 3514 602 3296 730 3296 1082 
L 3296 2061 
L 5248 2061 
C 5389 2061 5677 2061 5856 2042 
L 5850 2861 
C 5683 2848 5363 2835 5229 2835 
L 3296 2835 
L 3296 3923 
L 4800 3923 
C 5030 3923 5210 3910 5376 3904 
L 5376 4704 
C 5222 4685 5018 4672 4800 4672 
C 4237 4672 2266 4672 1722 4672 
C 1491 4672 1286 4691 1101 4704 
L 1101 3904 
C 1286 3917 1491 3923 1722 3923 
L 2419 3923 
L 2419 2835 
L 1376 2835 
C 1178 2835 858 2854 678 2867 
z
" transform="scale(0.015625)"/>
      <path id="NotoSansCJKjp-Bold-30f3" d="M 1542 4864 
L 941 4224 
C 1408 3898 2208 3200 2541 2842 
L 3194 3507 
C 2822 3898 1990 4563 1542 4864 
z
M 742 602 
L 1280 -243 
C 2182 -90 3008 269 3654 659 
C 4685 1280 5536 2163 6022 3027 
L 5523 3930 
C 5120 3066 4288 2086 3194 1440 
C 2573 1069 1741 742 742 602 
z
" transform="scale(0.015625)"/>
      <path id="NotoSansCJKjp-Bold-30c7" d="M 1203 4832 
L 1203 4006 
C 1395 4019 1670 4026 1888 4026 
C 2291 4026 3610 4026 3981 4026 
C 4205 4026 4454 4019 4672 4006 
L 4672 4832 
C 4454 4800 4198 4781 3981 4781 
C 3610 4781 2291 4781 1888 4781 
C 1670 4781 1408 4800 1203 4832 
z
M 5056 5274 
L 4544 5062 
C 4717 4819 4915 4435 5050 4173 
L 5562 4397 
C 5440 4634 5216 5037 5056 5274 
z
M 5811 5562 
L 5306 5350 
C 5478 5107 5683 4736 5818 4467 
L 6323 4691 
C 6214 4915 5978 5318 5811 5562 
z
M 461 3194 
L 461 2355 
C 640 2368 890 2381 1075 2381 
L 2835 2381 
C 2810 1843 2701 1363 2438 966 
C 2182 589 1734 224 1280 51 
L 2029 -493 
C 2598 -205 3091 288 3315 736 
C 3546 1184 3686 1722 3725 2381 
L 5267 2381 
C 5446 2381 5690 2374 5850 2362 
L 5850 3194 
C 5683 3168 5402 3155 5267 3155 
C 4883 3155 1472 3155 1075 3155 
C 877 3155 653 3168 461 3194 
z
" transform="scale(0.015625)"/>
      <path id="NotoSansCJKjp-Bold-30a6" d="M 5818 3878 
L 5261 4218 
C 5152 4179 4998 4147 4730 4147 
L 3616 4147 
L 3616 4640 
C 3616 4819 3629 4954 3661 5229 
L 2675 5229 
C 2720 4954 2726 4819 2726 4640 
L 2726 4147 
L 1357 4147 
C 1114 4147 922 4154 704 4179 
C 730 4026 736 3770 736 3629 
C 736 3392 736 2726 736 2522 
C 736 2349 723 2144 704 1984 
L 1587 1984 
C 1574 2112 1568 2310 1568 2458 
C 1568 2656 1568 3168 1568 3392 
L 4742 3392 
C 4666 2822 4499 2214 4173 1747 
C 3814 1229 3251 851 2720 653 
C 2458 550 2106 454 1818 403 
L 2483 -365 
C 3622 -70 4582 608 5094 1555 
C 5408 2138 5581 2752 5690 3366 
C 5715 3494 5766 3738 5818 3878 
z
" transform="scale(0.015625)"/>
      <path id="NotoSansCJKjp-Bold-30b9" d="M 5338 4339 
L 4813 4730 
C 4685 4685 4429 4646 4154 4646 
C 3866 4646 2227 4646 1894 4646 
C 1702 4646 1312 4666 1139 4691 
L 1139 3782 
C 1274 3789 1626 3827 1894 3827 
C 2170 3827 3802 3827 4064 3827 
C 3923 3373 3533 2739 3110 2259 
C 2509 1587 1517 806 486 422 
L 1146 -269 
C 2022 147 2874 813 3552 1523 
C 4154 947 4749 294 5165 -282 
L 5894 352 
C 5517 813 4742 1632 4109 2182 
C 4538 2765 4896 3443 5114 3942 
C 5171 4070 5286 4269 5338 4339 
z
" transform="scale(0.015625)"/>
      <path id="NotoSansCJKjp-Bold-98db" d="M 5478 5293 
C 5370 5101 5158 4813 5005 4634 
L 5459 4384 
C 5645 4531 5875 4749 6138 4986 
L 5478 5293 
z
M 1798 4384 
C 1434 4077 762 3821 154 3674 
C 288 3533 499 3226 589 3085 
C 768 3142 947 3219 1133 3302 
L 1133 2739 
L 282 2739 
L 282 2042 
L 1120 2042 
C 1075 1325 877 557 147 -58 
C 320 -166 595 -410 717 -570 
C 1594 166 1805 1146 1850 2042 
L 2598 2042 
L 2598 -486 
L 3341 -486 
L 3341 2042 
L 4032 2042 
C 4115 710 4371 -422 5472 -570 
C 5894 -653 6150 -410 6259 262 
C 6118 358 5952 544 5824 710 
L 6163 1069 
C 6003 1197 5747 1363 5478 1510 
C 5664 1658 5888 1875 6144 2106 
L 5485 2413 
C 5376 2227 5165 1946 5011 1760 
L 4877 1824 
L 4768 1715 
C 4730 2042 4717 2394 4710 2739 
L 3341 2739 
L 3341 4288 
L 2598 4288 
L 2598 2739 
L 1856 2739 
L 1856 3661 
L 1824 3661 
C 2061 3808 2272 3962 2445 4128 
L 1798 4384 
z
M 602 5146 
L 602 4461 
L 3968 4461 
C 4115 3456 4454 2598 5485 2470 
C 5875 2394 6138 2605 6246 3174 
C 6106 3264 5933 3443 5811 3590 
C 5773 3302 5722 3123 5638 3136 
C 5165 3174 4896 3578 4749 4115 
C 5088 3910 5440 3674 5632 3494 
L 6086 3955 
C 5811 4179 5267 4499 4870 4698 
L 4666 4499 
C 4627 4710 4608 4928 4595 5146 
L 602 5146 
z
M 4851 1190 
C 5184 998 5530 768 5722 602 
L 5818 704 
C 5779 352 5728 109 5645 122 
C 5210 160 4973 595 4851 1190 
z
" transform="scale(0.015625)"/>
      <path id="NotoSansCJKjp-Bold-9a28" d="M 3917 5235 
C 4096 4896 4262 4435 4314 4141 
L 4909 4384 
C 4845 4678 4666 5120 4474 5446 
L 3917 5235 
z
M 1357 1318 
C 1453 986 1536 557 1549 275 
L 1888 346 
C 1875 621 1786 1050 1683 1376 
L 1357 1318 
z
M 922 1280 
C 973 896 992 410 973 90 
L 1325 134 
C 1338 448 1318 934 1254 1312 
L 922 1280 
z
M 435 1402 
C 410 858 339 314 109 -13 
L 499 -224 
C 762 134 826 730 858 1318 
L 435 1402 
z
M 5485 5370 
C 5389 4992 5190 4461 5030 4115 
L 5299 4019 
L 3443 4019 
L 3987 4262 
C 3904 4557 3693 4992 3469 5306 
L 2912 5069 
C 3117 4749 3302 4314 3379 4019 
L 3104 4019 
L 3104 1574 
L 4218 1574 
L 4218 1178 
L 3008 1178 
L 3008 499 
L 4218 499 
L 4218 -576 
L 4928 -576 
L 4928 499 
L 6202 499 
L 6202 1178 
L 4928 1178 
L 4928 1574 
L 6093 1574 
L 6093 4019 
L 5638 4019 
C 5818 4333 6029 4762 6227 5158 
L 5485 5370 
z
M 3750 2528 
L 4269 2528 
L 4269 2157 
L 3750 2157 
L 3750 2528 
z
M 4883 2528 
L 5408 2528 
L 5408 2157 
L 4883 2157 
L 4883 2528 
z
M 3750 3437 
L 4269 3437 
L 4269 3072 
L 3750 3072 
L 3750 3437 
z
M 4883 3437 
L 5408 3437 
L 5408 3072 
L 4883 3072 
L 4883 3437 
z
M 1523 3642 
L 1523 3258 
L 1120 3258 
L 1120 3642 
L 1523 3642 
z
M 486 5203 
L 486 1696 
L 2330 1696 
L 2291 1011 
C 2240 1178 2163 1350 2086 1498 
L 1786 1402 
C 1907 1146 2035 800 2074 570 
L 2266 640 
C 2234 314 2195 154 2150 90 
C 2099 26 2054 13 1978 13 
C 1901 13 1760 13 1587 32 
C 1677 -128 1734 -378 1747 -563 
C 1971 -570 2182 -570 2317 -538 
C 2470 -518 2586 -461 2694 -320 
C 2848 -122 2912 480 2976 2029 
C 2982 2112 2982 2291 2982 2291 
L 2138 2291 
L 2138 2675 
L 2726 2675 
L 2726 3258 
L 2138 3258 
L 2138 3642 
L 2726 3642 
L 2726 4218 
L 2138 4218 
L 2138 4582 
L 2848 4582 
L 2848 5203 
L 486 5203 
z
M 1523 4218 
L 1120 4218 
L 1120 4582 
L 1523 4582 
L 1523 4218 
z
M 1523 2675 
L 1523 2291 
L 1120 2291 
L 1120 2675 
L 1523 2675 
z
" transform="scale(0.015625)"/>
      <path id="NotoSansCJKjp-Bold-4f4d" d="M 2650 3142 
C 2848 2317 3014 1254 3034 621 
L 3789 781 
C 3750 1414 3558 2451 3341 3258 
L 2650 3142 
z
M 2202 4282 
L 2202 3552 
L 6099 3552 
L 6099 4282 
L 4486 4282 
L 4486 5350 
L 3712 5350 
L 3712 4282 
L 2202 4282 
z
M 2074 422 
L 2074 -301 
L 6234 -301 
L 6234 422 
L 4934 422 
C 5178 1171 5446 2227 5638 3168 
L 4806 3302 
C 4691 2394 4435 1203 4186 422 
L 2074 422 
z
M 1632 5421 
C 1280 4512 685 3616 77 3046 
C 205 2854 416 2432 486 2246 
C 666 2426 838 2624 1011 2848 
L 1011 -557 
L 1741 -557 
L 1741 3942 
C 1971 4346 2182 4768 2349 5184 
L 1632 5421 
z
" transform="scale(0.015625)"/>
      <path id="NotoSansCJKjp-Bold-5c71" d="M 5030 3891 
L 5030 717 
L 3578 717 
L 3578 5261 
L 2771 5261 
L 2771 717 
L 1382 717 
L 1382 3878 
L 589 3878 
L 589 -499 
L 1382 -499 
L 1382 -70 
L 5030 -70 
L 5030 -480 
L 5830 -480 
L 5830 3891 
L 5030 3891 
z
" transform="scale(0.015625)"/>
      <path id="NotoSansCJKjp-Bold-30ce" d="M 5338 4685 
L 4339 4941 
C 4166 4026 3744 2918 3130 2176 
C 2560 1485 1696 851 698 512 
L 1427 -237 
C 2413 160 3309 941 3853 1619 
C 4371 2266 4787 3232 5056 3968 
C 5133 4173 5222 4454 5338 4685 
z
" transform="scale(0.015625)"/>
      <path id="NotoSansCJKjp-Bold-30fc" d="M 589 2963 
L 589 1958 
C 826 1971 1254 1990 1619 1990 
C 2368 1990 4480 1990 5056 1990 
C 5325 1990 5651 1965 5805 1958 
L 5805 2963 
C 5638 2950 5357 2925 5056 2925 
C 4480 2925 2374 2925 1619 2925 
C 1286 2925 819 2944 589 2963 
z
" transform="scale(0.015625)"/>
      <path id="NotoSansCJKjp-Bold-30d1" d="M 5126 4602 
C 5126 4806 5293 4973 5498 4973 
C 5702 4973 5869 4806 5869 4602 
C 5869 4403 5702 4237 5498 4237 
C 5293 4237 5126 4403 5126 4602 
z
M 4730 4602 
C 4730 4186 5075 3840 5498 3840 
C 5920 3840 6266 4186 6266 4602 
C 6266 5024 5920 5370 5498 5370 
C 5075 5370 4730 5024 4730 4602 
z
M 1229 1990 
C 1011 1427 634 736 230 211 
L 1126 -166 
C 1466 314 1843 1043 2074 1664 
C 2298 2259 2528 3142 2618 3590 
C 2643 3731 2714 4045 2771 4230 
L 1837 4422 
C 1760 3610 1517 2707 1229 1990 
z
M 4390 2125 
C 4646 1434 4877 627 5056 -134 
L 6003 173 
C 5824 806 5485 1830 5261 2406 
C 5018 3027 4576 4013 4314 4506 
L 3462 4230 
C 3731 3744 4147 2797 4390 2125 
z
" transform="scale(0.015625)"/>
      <path id="NotoSansCJKjp-Bold-30af" d="M 3667 4992 
L 2733 5299 
C 2675 5082 2541 4787 2445 4627 
C 2125 4077 1568 3251 448 2566 
L 1165 2035 
C 1792 2464 2349 3027 2778 3584 
L 4576 3584 
C 4474 3104 4102 2336 3667 1837 
C 3110 1203 2394 646 1088 256 
L 1843 -422 
C 3046 51 3821 640 4429 1382 
C 5005 2099 5370 2950 5542 3520 
C 5594 3680 5683 3859 5754 3981 
L 5101 4384 
C 4954 4339 4742 4307 4544 4307 
L 3258 4307 
L 3277 4339 
C 3354 4480 3520 4768 3667 4992 
z
" transform="scale(0.015625)"/>
      <path id="DejaVuSans-Bold-2c" d="M 653 1209 
L 1778 1209 
L 1778 256 
L 1006 -909 
L 341 -909 
L 653 256 
L 653 1209 
z
" transform="scale(0.015625)"/>
      <path id="DejaVuSans-Bold-20" transform="scale(0.015625)"/>
      <path id="DejaVuSans-Bold-4d" d="M 588 4666 
L 2119 4666 
L 3181 2169 
L 4250 4666 
L 5778 4666 
L 5778 0 
L 4641 0 
L 4641 3413 
L 3566 897 
L 2803 897 
L 1728 3413 
L 1728 0 
L 588 0 
L 588 4666 
z
" transform="scale(0.015625)"/>
      <path id="DejaVuSans-Bold-6f" d="M 2203 2784 
Q 1831 2784 1636 2517 
Q 1441 2250 1441 1747 
Q 1441 1244 1636 976 
Q 1831 709 2203 709 
Q 2569 709 2762 976 
Q 2956 1244 2956 1747 
Q 2956 2250 2762 2517 
Q 2569 2784 2203 2784 
z
M 2203 3584 
Q 3106 3584 3614 3096 
Q 4122 2609 4122 1747 
Q 4122 884 3614 396 
Q 3106 -91 2203 -91 
Q 1297 -91 786 396 
Q 275 884 275 1747 
Q 275 2609 786 3096 
Q 1297 3584 2203 3584 
z
" transform="scale(0.015625)"/>
      <path id="DejaVuSans-Bold-6e" d="M 4056 2131 
L 4056 0 
L 2931 0 
L 2931 347 
L 2931 1631 
Q 2931 2084 2911 2256 
Q 2891 2428 2841 2509 
Q 2775 2619 2662 2680 
Q 2550 2741 2406 2741 
Q 2056 2741 1856 2470 
Q 1656 2200 1656 1722 
L 1656 0 
L 538 0 
L 538 3500 
L 1656 3500 
L 1656 2988 
Q 1909 3294 2193 3439 
Q 2478 3584 2822 3584 
Q 3428 3584 3742 3212 
Q 4056 2841 4056 2131 
z
" transform="scale(0.015625)"/>
      <path id="DejaVuSans-Bold-74" d="M 1759 4494 
L 1759 3500 
L 2913 3500 
L 2913 2700 
L 1759 2700 
L 1759 1216 
Q 1759 972 1856 886 
Q 1953 800 2241 800 
L 2816 800 
L 2816 0 
L 1856 0 
Q 1194 0 917 276 
Q 641 553 641 1216 
L 641 2700 
L 84 2700 
L 84 3500 
L 641 3500 
L 641 4494 
L 1759 4494 
z
" transform="scale(0.015625)"/>
      <path id="DejaVuSans-Bold-44" d="M 1791 3756 
L 1791 909 
L 2222 909 
Q 2959 909 3348 1275 
Q 3738 1641 3738 2338 
Q 3738 3031 3350 3393 
Q 2963 3756 2222 3756 
L 1791 3756 
z
M 588 4666 
L 1856 4666 
Q 2919 4666 3439 4514 
Q 3959 4363 4331 4000 
Q 4659 3684 4818 3271 
Q 4978 2859 4978 2338 
Q 4978 1809 4818 1395 
Q 4659 981 4331 666 
Q 3956 303 3431 151 
Q 2906 0 1856 0 
L 588 0 
L 588 4666 
z
" transform="scale(0.015625)"/>
      <path id="DejaVuSans-Bold-65" d="M 4031 1759 
L 4031 1441 
L 1416 1441 
Q 1456 1047 1700 850 
Q 1944 653 2381 653 
Q 2734 653 3104 758 
Q 3475 863 3866 1075 
L 3866 213 
Q 3469 63 3072 -14 
Q 2675 -91 2278 -91 
Q 1328 -91 801 392 
Q 275 875 275 1747 
Q 275 2603 792 3093 
Q 1309 3584 2216 3584 
Q 3041 3584 3536 3087 
Q 4031 2591 4031 1759 
z
M 2881 2131 
Q 2881 2450 2695 2645 
Q 2509 2841 2209 2841 
Q 1884 2841 1681 2658 
Q 1478 2475 1428 2131 
L 2881 2131 
z
" transform="scale(0.015625)"/>
      <path id="DejaVuSans-Bold-75" d="M 500 1363 
L 500 3500 
L 1625 3500 
L 1625 3150 
Q 1625 2866 1622 2436 
Q 1619 2006 1619 1863 
Q 1619 1441 1641 1255 
Q 1663 1069 1716 984 
Q 1784 875 1895 815 
Q 2006 756 2150 756 
Q 2500 756 2700 1025 
Q 2900 1294 2900 1772 
L 2900 3500 
L 4019 3500 
L 4019 0 
L 2900 0 
L 2900 506 
Q 2647 200 2364 54 
Q 2081 -91 1741 -91 
Q 1134 -91 817 281 
Q 500 653 500 1363 
z
" transform="scale(0.015625)"/>
      <path id="DejaVuSans-Bold-73" d="M 3272 3391 
L 3272 2541 
Q 2913 2691 2578 2766 
Q 2244 2841 1947 2841 
Q 1628 2841 1473 2761 
Q 1319 2681 1319 2516 
Q 1319 2381 1436 2309 
Q 1553 2238 1856 2203 
L 2053 2175 
Q 2913 2066 3209 1816 
Q 3506 1566 3506 1031 
Q 3506 472 3093 190 
Q 2681 -91 1863 -91 
Q 1516 -91 1145 -36 
Q 775 19 384 128 
L 384 978 
Q 719 816 1070 734 
Q 1422 653 1784 653 
Q 2113 653 2278 743 
Q 2444 834 2444 1013 
Q 2444 1163 2330 1236 
Q 2216 1309 1875 1350 
L 1678 1375 
Q 931 1469 631 1722 
Q 331 1975 331 2491 
Q 331 3047 712 3315 
Q 1094 3584 1881 3584 
Q 2191 3584 2531 3537 
Q 2872 3491 3272 3391 
z
" transform="scale(0.015625)"/>
     </defs>
     <use xlink:href="#NotoSansCJKjp-Bold-30e2"/>
     <use xlink:href="#NotoSansCJKjp-Bold-30f3" x="99.999985"/>
     <use xlink:href="#NotoSansCJKjp-Bold-30c7" x="199.999969"/>
     <use xlink:href="#NotoSansCJKjp-Bold-30a6" x="299.999954"/>
     <use xlink:href="#NotoSansCJKjp-Bold-30b9" x="399.999939"/>
     <use xlink:href="#NotoSansCJKjp-Bold-98db" x="499.999924"/>
     <use xlink:href="#NotoSansCJKjp-Bold-9a28" x="599.999908"/>
     <use xlink:href="#NotoSansCJKjp-Bold-4f4d" x="699.999893"/>
     <use xlink:href="#NotoSansCJKjp-Bold-5c71" x="799.999878"/>
     <use xlink:href="#NotoSansCJKjp-Bold-30b9" x="899.999863"/>
     <use xlink:href="#NotoSansCJKjp-Bold-30ce" x="999.999847"/>
     <use xlink:href="#NotoSansCJKjp-Bold-30fc" x="1099.999832"/>
     <use xlink:href="#NotoSansCJKjp-Bold-30d1" x="1199.999817"/>
     <use xlink:href="#NotoSansCJKjp-Bold-30fc" x="1299.999802"/>
     <use xlink:href="#NotoSansCJKjp-Bold-30af" x="1399.999786"/>
     <use xlink:href="#DejaVuSans-Bold-2c" x="1499.999771"/>
     <use xlink:href="#DejaVuSans-Bold-20" x="1537.988052"/>
     <use xlink:href="#DejaVuSans-Bold-4d" x="1572.802505"/>
     <use xlink:href="#DejaVuSans-Bold-6f" x="1672.314224"/>
     <use xlink:href="#DejaVuSans-Bold-6e" x="1741.015396"/>
     <use xlink:href="#DejaVuSans-Bold-74" x="1812.206802"/>
     <use xlink:href="#DejaVuSans-Bold-20" x="1860.009537"/>
     <use xlink:href="#DejaVuSans-Bold-44" x="1894.82399"/>
     <use xlink:href="#DejaVuSans-Bold-65" x="1977.831802"/>
     <use xlink:href="#DejaVuSans-Bold-75" x="2045.654068"/>
     <use xlink:href="#DejaVuSans-Bold-73" x="2116.845474"/>
    </g>
    <!-- Hida-kuraiyama Snow Park -->
    <g transform="translate(59.745 37.9665) scale(0.16 -0.16)">
     <defs>
      <path id="DejaVuSans-Bold-48" d="M 588 4666 
L 1791 4666 
L 1791 2888 
L 3566 2888 
L 3566 4666 
L 4769 4666 
L 4769 0 
L 3566 0 
L 3566 1978 
L 1791 1978 
L 1791 0 
L 588 0 
L 588 4666 
z
" transform="scale(0.015625)"/>
      <path id="DejaVuSans-Bold-69" d="M 538 3500 
L 1656 3500 
L 1656 0 
L 538 0 
L 538 3500 
z
M 538 4863 
L 1656 4863 
L 1656 3950 
L 538 3950 
L 538 4863 
z
" transform="scale(0.015625)"/>
      <path id="DejaVuSans-Bold-64" d="M 2919 2988 
L 2919 4863 
L 4044 4863 
L 4044 0 
L 2919 0 
L 2919 506 
Q 2688 197 2409 53 
Q 2131 -91 1766 -91 
Q 1119 -91 703 423 
Q 288 938 288 1747 
Q 288 2556 703 3070 
Q 1119 3584 1766 3584 
Q 2128 3584 2408 3439 
Q 2688 3294 2919 2988 
z
M 2181 722 
Q 2541 722 2730 984 
Q 2919 1247 2919 1747 
Q 2919 2247 2730 2509 
Q 2541 2772 2181 2772 
Q 1825 2772 1636 2509 
Q 1447 2247 1447 1747 
Q 1447 1247 1636 984 
Q 1825 722 2181 722 
z
" transform="scale(0.015625)"/>
      <path id="DejaVuSans-Bold-61" d="M 2106 1575 
Q 1756 1575 1579 1456 
Q 1403 1338 1403 1106 
Q 1403 894 1545 773 
Q 1688 653 1941 653 
Q 2256 653 2472 879 
Q 2688 1106 2688 1447 
L 2688 1575 
L 2106 1575 
z
M 3816 1997 
L 3816 0 
L 2688 0 
L 2688 519 
Q 2463 200 2181 54 
Q 1900 -91 1497 -91 
Q 953 -91 614 226 
Q 275 544 275 1050 
Q 275 1666 698 1953 
Q 1122 2241 2028 2241 
L 2688 2241 
L 2688 2328 
Q 2688 2594 2478 2717 
Q 2269 2841 1825 2841 
Q 1466 2841 1156 2769 
Q 847 2697 581 2553 
L 581 3406 
Q 941 3494 1303 3539 
Q 1666 3584 2028 3584 
Q 2975 3584 3395 3211 
Q 3816 2838 3816 1997 
z
" transform="scale(0.015625)"/>
      <path id="DejaVuSans-Bold-2d" d="M 347 2297 
L 2309 2297 
L 2309 1388 
L 347 1388 
L 347 2297 
z
" transform="scale(0.015625)"/>
      <path id="DejaVuSans-Bold-6b" d="M 538 4863 
L 1656 4863 
L 1656 2216 
L 2944 3500 
L 4244 3500 
L 2534 1894 
L 4378 0 
L 3022 0 
L 1656 1459 
L 1656 0 
L 538 0 
L 538 4863 
z
" transform="scale(0.015625)"/>
      <path id="DejaVuSans-Bold-72" d="M 3138 2547 
Q 2991 2616 2845 2648 
Q 2700 2681 2553 2681 
Q 2122 2681 1889 2404 
Q 1656 2128 1656 1613 
L 1656 0 
L 538 0 
L 538 3500 
L 1656 3500 
L 1656 2925 
Q 1872 3269 2151 3426 
Q 2431 3584 2822 3584 
Q 2878 3584 2943 3579 
Q 3009 3575 3134 3559 
L 3138 2547 
z
" transform="scale(0.015625)"/>
      <path id="DejaVuSans-Bold-79" d="M 78 3500 
L 1197 3500 
L 2138 1125 
L 2938 3500 
L 4056 3500 
L 2584 -331 
Q 2363 -916 2067 -1148 
Q 1772 -1381 1288 -1381 
L 641 -1381 
L 641 -647 
L 991 -647 
Q 1275 -647 1404 -556 
Q 1534 -466 1606 -231 
L 1638 -134 
L 78 3500 
z
" transform="scale(0.015625)"/>
      <path id="DejaVuSans-Bold-6d" d="M 3781 2919 
Q 3994 3244 4286 3414 
Q 4578 3584 4928 3584 
Q 5531 3584 5847 3212 
Q 6163 2841 6163 2131 
L 6163 0 
L 5038 0 
L 5038 1825 
Q 5041 1866 5042 1909 
Q 5044 1953 5044 2034 
Q 5044 2406 4934 2573 
Q 4825 2741 4581 2741 
Q 4263 2741 4089 2478 
Q 3916 2216 3909 1719 
L 3909 0 
L 2784 0 
L 2784 1825 
Q 2784 2406 2684 2573 
Q 2584 2741 2328 2741 
Q 2006 2741 1831 2477 
Q 1656 2213 1656 1722 
L 1656 0 
L 531 0 
L 531 3500 
L 1656 3500 
L 1656 2988 
Q 1863 3284 2130 3434 
Q 2397 3584 2719 3584 
Q 3081 3584 3359 3409 
Q 3638 3234 3781 2919 
z
" transform="scale(0.015625)"/>
      <path id="DejaVuSans-Bold-77" d="M 225 3500 
L 1313 3500 
L 1900 1088 
L 2491 3500 
L 3425 3500 
L 4013 1113 
L 4603 3500 
L 5691 3500 
L 4769 0 
L 3547 0 
L 2956 2406 
L 2369 0 
L 1147 0 
L 225 3500 
z
" transform="scale(0.015625)"/>
      <path id="DejaVuSans-Bold-50" d="M 588 4666 
L 2584 4666 
Q 3475 4666 3951 4270 
Q 4428 3875 4428 3144 
Q 4428 2409 3951 2014 
Q 3475 1619 2584 1619 
L 1791 1619 
L 1791 0 
L 588 0 
L 588 4666 
z
M 1791 3794 
L 1791 2491 
L 2456 2491 
Q 2806 2491 2997 2661 
Q 3188 2831 3188 3144 
Q 3188 3456 2997 3625 
Q 2806 3794 2456 3794 
L 1791 3794 
z
" transform="scale(0.015625)"/>
     </defs>
     <use xlink:href="#DejaVuSans-Bold-48"/>
     <use xlink:href="#DejaVuSans-Bold-69" x="83.691406"/>
     <use xlink:href="#DejaVuSans-Bold-64" x="117.96875"/>
     <use xlink:href="#DejaVuSans-Bold-61" x="189.550781"/>
     <use xlink:href="#DejaVuSans-Bold-2d" x="257.03125"/>
     <use xlink:href="#DejaVuSans-Bold-6b" x="298.535156"/>
     <use xlink:href="#DejaVuSans-Bold-75" x="365.039062"/>
     <use xlink:href="#DejaVuSans-Bold-72" x="436.230469"/>
     <use xlink:href="#DejaVuSans-Bold-61" x="485.546875"/>
     <use xlink:href="#DejaVuSans-Bold-69" x="553.027344"/>
     <use xlink:href="#DejaVuSans-Bold-79" x="587.304688"/>
     <use xlink:href="#DejaVuSans-Bold-61" x="652.490234"/>
     <use xlink:href="#DejaVuSans-Bold-6d" x="719.970703"/>
     <use xlink:href="#DejaVuSans-Bold-61" x="824.169922"/>
     <use xlink:href="#DejaVuSans-Bold-20" x="891.650391"/>
     <use xlink:href="#DejaVuSans-Bold-53" x="926.464844"/>
     <use xlink:href="#DejaVuSans-Bold-6e" x="998.486328"/>
     <use xlink:href="#DejaVuSans-Bold-6f" x="1069.677734"/>
     <use xlink:href="#DejaVuSans-Bold-77" x="1138.378906"/>
     <use xlink:href="#DejaVuSans-Bold-20" x="1230.761719"/>
     <use xlink:href="#DejaVuSans-Bold-50" x="1265.576172"/>
     <use xlink:href="#DejaVuSans-Bold-61" x="1336.242188"/>
     <use xlink:href="#DejaVuSans-Bold-72" x="1403.722656"/>
     <use xlink:href="#DejaVuSans-Bold-6b" x="1453.039062"/>
    </g>
   </g>
  </g>
 </g>
 <defs>
  <clipPath id="pb4839e9cee">
   <path d="M 292.18875 172.9345 
C 292.18875 158.373872 289.320624 143.954827 283.748513 130.502561 
C 278.176401 117.050295 270.008669 104.826419 259.71275 94.5305 
C 249.416831 84.234581 237.192955 76.066849 223.740689 70.494737 
C 210.288423 64.922626 195.869378 62.0545 181.30875 62.0545 
C 166.748122 62.0545 152.329077 64.922626 138.876811 70.494737 
C 125.424545 76.066849 113.200669 84.234581 102.90475 94.5305 
C 92.608831 104.826419 84.441099 117.050295 78.868987 130.502561 
C 73.296876 143.954827 70.42875 158.373872 70.42875 172.9345 
C 70.42875 187.495128 73.296876 201.914173 78.868987 215.366439 
C 84.441099 228.818705 92.608831 241.042581 102.90475 251.3385 
C 113.200669 261.634419 125.424545 269.802151 138.876811 275.374263 
C 152.329077 280.946374 166.748122 283.8145 181.30875 283.8145 
C 195.869378 283.8145 210.288423 280.946374 223.740689 275.374263 
C 237.192955 269.802151 249.416831 261.634419 259.71275 251.3385 
C 270.008669 241.042581 278.176401 228.818705 283.748513 215.366439 
C 289.320624 201.914173 292.18875 187.495128 292.18875 172.9345 
M 181.30875 172.9345 
C 181.30875 172.9345 181.30875 172.9345 181.30875 172.9345 
C 181.30875 172.9345 181.30875 172.9345 181.30875 172.9345 
C 181.30875 172.9345 181.30875 172.9345 181.30875 172.9345 
C 181.30875 172.9345 181.30875 172.9345 181.30875 172.9345 
C 181.30875 172.9345 181.30875 172.9345 181.30875 172.9345 
C 181.30875 172.9345 181.30875 172.9345 181.30875 172.9345 
C 181.30875 172.9345 181.30875 172.9345 181.30875 172.9345 
C 181.30875 172.9345 181.30875 172.9345 181.30875 172.9345 
C 181.30875 172.9345 181.30875 172.9345 181.30875 172.9345 
C 181.30875 172.9345 181.30875 172.9345 181.30875 172.9345 
C 181.30875 172.9345 181.30875 172.9345 181.30875 172.9345 
C 181.30875 172.9345 181.30875 172.9345 181.30875 172.9345 
C 181.30875 172.9345 181.30875 172.9345 181.30875 172.9345 
C 181.30875 172.9345 181.30875 172.9345 181.30875 172.9345 
C 181.30875 172.9345 181.30875 172.9345 181.30875 172.9345 
C 181.30875 172.9345 181.30875 172.9345 181.30875 172.9345 
z
"/>
  </clipPath>
 </defs>
</svg>
