<?xml version="1.0" encoding="utf-8" standalone="no"?>
<!DOCTYPE svg PUBLIC "-//W3C//DTD SVG 1.1//EN"
  "http://www.w3.org/Graphics/SVG/1.1/DTD/svg11.dtd">
<svg xmlns:xlink="http://www.w3.org/1999/xlink" width="319.515pt" height="304.048563pt" viewBox="0 0 319.515 304.048563" xmlns="http://www.w3.org/2000/svg" version="1.1">
 <title>Ski Rose for さかえ倶楽部スキー場, Sakae Club Ski Area</title>
 <metadata>
  <rdf:RDF xmlns:dc="http://purl.org/dc/elements/1.1/" xmlns:cc="http://creativecommons.org/ns#" xmlns:rdf="http://www.w3.org/1999/02/22-rdf-syntax-ns#">
   <cc:Work>
    <dc:type rdf:resource="http://purl.org/dc/dcmitype/StillImage"/>
    <dc:title>Ski Rose for さかえ倶楽部スキー場, Sakae Club Ski Area</dc:title>
    <dc:date>2024-12-20T01:53:53.205492</dc:date>
    <dc:description>A 32-bin histogram of downhill ski trail orientations generated from &lt;https://openskimap.org/?obj=9fdba5a08b913a31f2db5a77e9cb6da1a0dbe8fd&gt;.</dc:description>
    <dc:format>image/svg+xml</dc:format>
    <dc:creator>
     <cc:Agent>
      <dc:title>https://github.com/dhimmel/openskistats</dc:title>
     </cc:Agent>
    </dc:creator>
   </cc:Work>
  </rdf:RDF>
 </metadata>
 <defs>
  <style type="text/css">*{stroke-linejoin: round; stroke-linecap: butt}</style>
 </defs>
 <g id="figure_1">
  <g id="patch_1">
   <path d="M 0 304.048563 
L 319.515 304.048563 
L 319.515 0 
L 0 0 
z
" style="fill: #ffffff"/>
  </g>
  <g id="axes_1">
   <g id="patch_2">
    <path d="M 270.6375 172.6295 
C 270.6375 158.068872 267.769374 143.649827 262.197263 130.197561 
C 256.625151 116.745295 248.457419 104.521419 238.1615 94.2255 
C 227.865581 83.929581 215.641705 75.761849 202.189439 70.189737 
C 188.737173 64.617626 174.318128 61.7495 159.7575 61.7495 
C 145.196872 61.7495 130.777827 64.617626 117.325561 70.189737 
C 103.873295 75.761849 91.649419 83.929581 81.3535 94.2255 
C 71.057581 104.521419 62.889849 116.745295 57.317737 130.197561 
C 51.745626 143.649827 48.8775 158.068872 48.8775 172.6295 
C 48.8775 187.190128 51.745626 201.609173 57.317737 215.061439 
C 62.889849 228.513705 71.057581 240.737581 81.3535 251.0335 
C 91.649419 261.329419 103.873295 269.497151 117.325561 275.069263 
C 130.777827 280.641374 145.196872 283.5095 159.7575 283.5095 
C 174.318128 283.5095 188.737173 280.641374 202.189439 275.069263 
C 215.641705 269.497151 227.865581 261.329419 238.1615 251.0335 
C 248.457419 240.737581 256.625151 228.513705 262.197263 215.061439 
C 267.769374 201.609173 270.6375 187.190128 270.6375 172.6295 
M 159.7575 172.6295 
C 159.7575 172.6295 159.7575 172.6295 159.7575 172.6295 
C 159.7575 172.6295 159.7575 172.6295 159.7575 172.6295 
C 159.7575 172.6295 159.7575 172.6295 159.7575 172.6295 
C 159.7575 172.6295 159.7575 172.6295 159.7575 172.6295 
C 159.7575 172.6295 159.7575 172.6295 159.7575 172.6295 
C 159.7575 172.6295 159.7575 172.6295 159.7575 172.6295 
C 159.7575 172.6295 159.7575 172.6295 159.7575 172.6295 
C 159.7575 172.6295 159.7575 172.6295 159.7575 172.6295 
C 159.7575 172.6295 159.7575 172.6295 159.7575 172.6295 
C 159.7575 172.6295 159.7575 172.6295 159.7575 172.6295 
C 159.7575 172.6295 159.7575 172.6295 159.7575 172.6295 
C 159.7575 172.6295 159.7575 172.6295 159.7575 172.6295 
C 159.7575 172.6295 159.7575 172.6295 159.7575 172.6295 
C 159.7575 172.6295 159.7575 172.6295 159.7575 172.6295 
C 159.7575 172.6295 159.7575 172.6295 159.7575 172.6295 
C 159.7575 172.6295 159.7575 172.6295 159.7575 172.6295 
z
" style="fill: #ffffff"/>
   </g>
   <g id="matplotlib.axis_1">
    <g id="xtick_1">
     <g id="line2d_1">
      <path d="M 159.7575 172.6295 
L 159.7575 61.7495 
" clip-path="url(#p7597b7cc13)" style="fill: none; stroke: #b0b0b0; stroke-width: 0.8; stroke-linecap: square"/>
     </g>
     <g id="text_1">
      <!-- N -->
      <g transform="translate(155.573125 56.008875) scale(0.1 -0.1)">
       <defs>
        <path id="DejaVuSans-Bold-4e" d="M 588 4666 
L 1931 4666 
L 3628 1466 
L 3628 4666 
L 4769 4666 
L 4769 0 
L 3425 0 
L 1728 3200 
L 1728 0 
L 588 0 
L 588 4666 
z
" transform="scale(0.015625)"/>
       </defs>
       <use xlink:href="#DejaVuSans-Bold-4e"/>
      </g>
     </g>
    </g>
    <g id="xtick_2">
     <g id="line2d_2">
      <path d="M 159.7575 172.6295 
L 238.1615 94.2255 
" clip-path="url(#p7597b7cc13)" style="fill: none; stroke: #b0b0b0; stroke-width: 0.8; stroke-linecap: square"/>
     </g>
    </g>
    <g id="xtick_3">
     <g id="line2d_3">
      <path d="M 159.7575 172.6295 
L 270.6375 172.6295 
" clip-path="url(#p7597b7cc13)" style="fill: none; stroke: #b0b0b0; stroke-width: 0.8; stroke-linecap: square"/>
     </g>
     <g id="text_2">
      <!-- E -->
      <g transform="translate(275.721875 175.388875) scale(0.1 -0.1)">
       <defs>
        <path id="DejaVuSans-Bold-45" d="M 588 4666 
L 3834 4666 
L 3834 3756 
L 1791 3756 
L 1791 2888 
L 3713 2888 
L 3713 1978 
L 1791 1978 
L 1791 909 
L 3903 909 
L 3903 0 
L 588 0 
L 588 4666 
z
" transform="scale(0.015625)"/>
       </defs>
       <use xlink:href="#DejaVuSans-Bold-45"/>
      </g>
     </g>
    </g>
    <g id="xtick_4">
     <g id="line2d_4">
      <path d="M 159.7575 172.6295 
L 238.1615 251.0335 
" clip-path="url(#p7597b7cc13)" style="fill: none; stroke: #b0b0b0; stroke-width: 0.8; stroke-linecap: square"/>
     </g>
    </g>
    <g id="xtick_5">
     <g id="line2d_5">
      <path d="M 159.7575 172.6295 
L 159.7575 283.5095 
" clip-path="url(#p7597b7cc13)" style="fill: none; stroke: #b0b0b0; stroke-width: 0.8; stroke-linecap: square"/>
     </g>
     <g id="text_3">
      <!-- S -->
      <g transform="translate(156.156719 294.768875) scale(0.1 -0.1)">
       <defs>
        <path id="DejaVuSans-Bold-53" d="M 3834 4519 
L 3834 3531 
Q 3450 3703 3084 3790 
Q 2719 3878 2394 3878 
Q 1963 3878 1756 3759 
Q 1550 3641 1550 3391 
Q 1550 3203 1689 3098 
Q 1828 2994 2194 2919 
L 2706 2816 
Q 3484 2659 3812 2340 
Q 4141 2022 4141 1434 
Q 4141 663 3683 286 
Q 3225 -91 2284 -91 
Q 1841 -91 1394 -6 
Q 947 78 500 244 
L 500 1259 
Q 947 1022 1364 901 
Q 1781 781 2169 781 
Q 2563 781 2772 912 
Q 2981 1044 2981 1288 
Q 2981 1506 2839 1625 
Q 2697 1744 2272 1838 
L 1806 1941 
Q 1106 2091 782 2419 
Q 459 2747 459 3303 
Q 459 4000 909 4375 
Q 1359 4750 2203 4750 
Q 2588 4750 2994 4692 
Q 3400 4634 3834 4519 
z
" transform="scale(0.015625)"/>
       </defs>
       <use xlink:href="#DejaVuSans-Bold-53"/>
      </g>
     </g>
    </g>
    <g id="xtick_6">
     <g id="line2d_6">
      <path d="M 159.7575 172.6295 
L 81.3535 251.0335 
" clip-path="url(#p7597b7cc13)" style="fill: none; stroke: #b0b0b0; stroke-width: 0.8; stroke-linecap: square"/>
     </g>
    </g>
    <g id="xtick_7">
     <g id="line2d_7">
      <path d="M 159.7575 172.6295 
L 48.8775 172.6295 
" clip-path="url(#p7597b7cc13)" style="fill: none; stroke: #b0b0b0; stroke-width: 0.8; stroke-linecap: square"/>
     </g>
     <g id="text_4">
      <!-- W -->
      <g transform="translate(34.862656 175.388875) scale(0.1 -0.1)">
       <defs>
        <path id="DejaVuSans-Bold-57" d="M 191 4666 
L 1344 4666 
L 2150 1275 
L 2950 4666 
L 4109 4666 
L 4909 1275 
L 5716 4666 
L 6859 4666 
L 5759 0 
L 4372 0 
L 3525 3547 
L 2688 0 
L 1300 0 
L 191 4666 
z
" transform="scale(0.015625)"/>
       </defs>
       <use xlink:href="#DejaVuSans-Bold-57"/>
      </g>
     </g>
    </g>
    <g id="xtick_8">
     <g id="line2d_8">
      <path d="M 159.7575 172.6295 
L 81.3535 94.2255 
" clip-path="url(#p7597b7cc13)" style="fill: none; stroke: #b0b0b0; stroke-width: 0.8; stroke-linecap: square"/>
     </g>
    </g>
   </g>
   <g id="matplotlib.axis_2"/>
   <g id="patch_3">
    <path d="M 159.7575 172.6295 
C 159.7575 172.6295 159.7575 172.6295 159.7575 172.6295 
C 159.7575 172.6295 159.7575 172.6295 159.7575 172.6295 
L 159.7575 172.6295 
C 159.7575 172.6295 159.7575 172.6295 159.7575 172.6295 
C 159.7575 172.6295 159.7575 172.6295 159.7575 172.6295 
z
" clip-path="url(#p7597b7cc13)" style="fill: #d4a0a7; stroke: #000000; stroke-width: 0.5; stroke-linejoin: miter"/>
   </g>
   <g id="patch_4">
    <path d="M 159.7575 172.6295 
C 159.7575 172.6295 159.7575 172.6295 159.7575 172.6295 
C 159.7575 172.6295 159.7575 172.6295 159.7575 172.6295 
L 159.7575 172.6295 
C 159.7575 172.6295 159.7575 172.6295 159.7575 172.6295 
C 159.7575 172.6295 159.7575 172.6295 159.7575 172.6295 
z
" clip-path="url(#p7597b7cc13)" style="fill: #d4a0a7; stroke: #000000; stroke-width: 0.5; stroke-linejoin: miter"/>
   </g>
   <g id="patch_5">
    <path d="M 159.7575 172.6295 
C 159.7575 172.6295 159.7575 172.6295 159.7575 172.6295 
C 159.7575 172.6295 159.7575 172.6295 159.7575 172.6295 
L 159.7575 172.6295 
C 159.7575 172.6295 159.7575 172.6295 159.7575 172.6295 
C 159.7575 172.6295 159.7575 172.6295 159.7575 172.6295 
z
" clip-path="url(#p7597b7cc13)" style="fill: #d4a0a7; stroke: #000000; stroke-width: 0.5; stroke-linejoin: miter"/>
   </g>
   <g id="patch_6">
    <path d="M 159.7575 172.6295 
C 159.7575 172.6295 159.7575 172.6295 159.7575 172.6295 
C 159.7575 172.6295 159.7575 172.6295 159.7575 172.6295 
L 159.7575 172.6295 
C 159.7575 172.6295 159.7575 172.6295 159.7575 172.6295 
C 159.7575 172.6295 159.7575 172.6295 159.7575 172.6295 
z
" clip-path="url(#p7597b7cc13)" style="fill: #d4a0a7; stroke: #000000; stroke-width: 0.5; stroke-linejoin: miter"/>
   </g>
   <g id="patch_7">
    <path d="M 159.7575 172.6295 
C 159.7575 172.6295 159.7575 172.6295 159.7575 172.6295 
C 159.7575 172.6295 159.7575 172.6295 159.7575 172.6295 
L 163.991304 169.154907 
C 163.877575 169.016328 163.757111 168.883417 163.630347 168.756653 
C 163.503583 168.629889 163.370672 168.509425 163.232093 168.395696 
z
" clip-path="url(#p7597b7cc13)" style="fill: #d4a0a7; stroke: #000000; stroke-width: 0.5; stroke-linejoin: miter"/>
   </g>
   <g id="patch_8">
    <path d="M 159.7575 172.6295 
C 159.7575 172.6295 159.7575 172.6295 159.7575 172.6295 
C 159.7575 172.6295 159.7575 172.6295 159.7575 172.6295 
L 176.970236 163.429101 
C 176.669093 162.865702 176.340471 162.317429 175.985555 161.78626 
C 175.63064 161.255092 175.249859 160.741669 174.844589 160.247846 
z
" clip-path="url(#p7597b7cc13)" style="fill: #d4a0a7; stroke: #000000; stroke-width: 0.5; stroke-linejoin: miter"/>
   </g>
   <g id="patch_9">
    <path d="M 159.7575 172.6295 
C 159.7575 172.6295 159.7575 172.6295 159.7575 172.6295 
C 159.7575 172.6295 159.7575 172.6295 159.7575 172.6295 
L 191.473891 163.008438 
C 191.158979 161.970313 190.793288 160.948275 190.378138 159.946016 
C 189.962989 158.943757 189.498882 157.962485 188.987493 157.005743 
z
" clip-path="url(#p7597b7cc13)" style="fill: #d4a0a7; stroke: #000000; stroke-width: 0.5; stroke-linejoin: miter"/>
   </g>
   <g id="patch_10">
    <path d="M 159.7575 172.6295 
C 159.7575 172.6295 159.7575 172.6295 159.7575 172.6295 
C 159.7575 172.6295 159.7575 172.6295 159.7575 172.6295 
L 191.532615 169.499924 
C 191.43018 168.459877 191.276742 167.425487 191.072857 166.400488 
C 190.868972 165.37549 190.614886 164.361119 190.311515 163.361041 
z
" clip-path="url(#p7597b7cc13)" style="fill: #d4a0a7; stroke: #000000; stroke-width: 0.5; stroke-linejoin: miter"/>
   </g>
   <g id="patch_11">
    <path d="M 159.7575 172.6295 
C 159.7575 172.6295 159.7575 172.6295 159.7575 172.6295 
C 159.7575 172.6295 159.7575 172.6295 159.7575 172.6295 
L 203.734306 176.960837 
C 203.876077 175.521411 203.947091 174.075891 203.947091 172.6295 
C 203.947091 171.183109 203.876077 169.737589 203.734306 168.298163 
z
" clip-path="url(#p7597b7cc13)" style="fill: #d4a0a7; stroke: #000000; stroke-width: 0.5; stroke-linejoin: miter"/>
   </g>
   <g id="patch_12">
    <path d="M 159.7575 172.6295 
C 159.7575 172.6295 159.7575 172.6295 159.7575 172.6295 
C 159.7575 172.6295 159.7575 172.6295 159.7575 172.6295 
L 200.767029 185.069605 
C 201.174212 183.727301 201.515246 182.365816 201.7889 180.990065 
C 202.062554 179.614315 202.268497 178.225958 202.405986 176.830009 
z
" clip-path="url(#p7597b7cc13)" style="fill: #d4a0a7; stroke: #000000; stroke-width: 0.5; stroke-linejoin: miter"/>
   </g>
   <g id="patch_13">
    <path d="M 159.7575 172.6295 
C 159.7575 172.6295 159.7575 172.6295 159.7575 172.6295 
C 159.7575 172.6295 159.7575 172.6295 159.7575 172.6295 
L 217.256154 203.363171 
C 218.262113 201.481154 219.175064 199.550882 219.991709 197.579326 
C 220.808354 195.607771 221.527709 193.597308 222.147175 191.555201 
z
" clip-path="url(#p7597b7cc13)" style="fill: #d4a0a7; stroke: #000000; stroke-width: 0.5; stroke-linejoin: miter"/>
   </g>
   <g id="patch_14">
    <path d="M 159.7575 172.6295 
C 159.7575 172.6295 159.7575 172.6295 159.7575 172.6295 
C 159.7575 172.6295 159.7575 172.6295 159.7575 172.6295 
L 227.422717 228.160908 
C 229.240343 225.946125 230.948133 223.643436 232.53992 221.261158 
C 234.131707 218.878881 235.605571 216.419887 236.956189 213.893059 
z
" clip-path="url(#p7597b7cc13)" style="fill: #d4a0a7; stroke: #000000; stroke-width: 0.5; stroke-linejoin: miter"/>
   </g>
   <g id="patch_15">
    <path d="M 159.7575 172.6295 
C 159.7575 172.6295 159.7575 172.6295 159.7575 172.6295 
C 159.7575 172.6295 159.7575 172.6295 159.7575 172.6295 
L 230.099027 258.340899 
C 232.904489 256.038516 235.59522 253.59978 238.1615 251.0335 
C 240.72778 248.46722 243.166516 245.776489 245.468899 242.971027 
z
" clip-path="url(#p7597b7cc13)" style="fill: #d4a0a7; stroke: #000000; stroke-width: 0.5; stroke-linejoin: miter"/>
   </g>
   <g id="patch_16">
    <path d="M 159.7575 172.6295 
C 159.7575 172.6295 159.7575 172.6295 159.7575 172.6295 
C 159.7575 172.6295 159.7575 172.6295 159.7575 172.6295 
L 203.670736 254.785386 
C 206.35982 253.34804 208.976715 251.779534 211.511966 250.085533 
C 214.047218 248.391532 216.497771 246.574078 218.854773 244.639736 
z
" clip-path="url(#p7597b7cc13)" style="fill: #d4a0a7; stroke: #000000; stroke-width: 0.5; stroke-linejoin: miter"/>
   </g>
   <g id="patch_17">
    <path d="M 159.7575 172.6295 
C 159.7575 172.6295 159.7575 172.6295 159.7575 172.6295 
C 159.7575 172.6295 159.7575 172.6295 159.7575 172.6295 
L 184.652219 254.69639 
C 187.338391 253.881548 189.982937 252.935315 192.576306 251.861106 
C 195.169675 250.786898 197.70874 249.586009 200.18433 248.262779 
z
" clip-path="url(#p7597b7cc13)" style="fill: #d4a0a7; stroke: #000000; stroke-width: 0.5; stroke-linejoin: miter"/>
   </g>
   <g id="patch_18">
    <path d="M 159.7575 172.6295 
C 159.7575 172.6295 159.7575 172.6295 159.7575 172.6295 
C 159.7575 172.6295 159.7575 172.6295 159.7575 172.6295 
L 168.266997 259.027868 
C 171.094944 258.74934 173.907512 258.332135 176.694542 257.77776 
C 179.481572 257.223385 182.239703 256.532509 184.958974 255.707627 
z
" clip-path="url(#p7597b7cc13)" style="fill: #d4a0a7; stroke: #000000; stroke-width: 0.5; stroke-linejoin: miter"/>
   </g>
   <g id="patch_19">
    <path d="M 159.7575 172.6295 
C 159.7575 172.6295 159.7575 172.6295 159.7575 172.6295 
C 159.7575 172.6295 159.7575 172.6295 159.7575 172.6295 
L 155.359607 217.282053 
C 156.821152 217.426002 158.288883 217.498107 159.7575 217.498107 
C 161.226117 217.498107 162.693848 217.426002 164.155393 217.282053 
z
" clip-path="url(#p7597b7cc13)" style="fill: #d4a0a7; stroke: #000000; stroke-width: 0.5; stroke-linejoin: miter"/>
   </g>
   <g id="patch_20">
    <path d="M 159.7575 172.6295 
C 159.7575 172.6295 159.7575 172.6295 159.7575 172.6295 
C 159.7575 172.6295 159.7575 172.6295 159.7575 172.6295 
L 144.834859 221.822856 
C 146.445031 222.311296 148.078213 222.720387 149.728507 223.048651 
C 151.378801 223.376915 153.044218 223.623956 154.718741 223.788882 
z
" clip-path="url(#p7597b7cc13)" style="fill: #d4a0a7; stroke: #000000; stroke-width: 0.5; stroke-linejoin: miter"/>
   </g>
   <g id="patch_21">
    <path d="M 159.7575 172.6295 
C 159.7575 172.6295 159.7575 172.6295 159.7575 172.6295 
C 159.7575 172.6295 159.7575 172.6295 159.7575 172.6295 
L 136.493495 216.153393 
C 137.918097 216.914858 139.379226 217.605921 140.871605 218.224085 
C 142.363984 218.842248 143.885813 219.386767 145.431596 219.855676 
z
" clip-path="url(#p7597b7cc13)" style="fill: #d4a0a7; stroke: #000000; stroke-width: 0.5; stroke-linejoin: miter"/>
   </g>
   <g id="patch_22">
    <path d="M 159.7575 172.6295 
C 159.7575 172.6295 159.7575 172.6295 159.7575 172.6295 
C 159.7575 172.6295 159.7575 172.6295 159.7575 172.6295 
L 133.557791 204.553938 
C 134.602726 205.411493 135.689134 206.217229 136.813092 206.968233 
C 137.93705 207.719238 139.097203 208.414607 140.28936 209.051828 
z
" clip-path="url(#p7597b7cc13)" style="fill: #d4a0a7; stroke: #000000; stroke-width: 0.5; stroke-linejoin: miter"/>
   </g>
   <g id="patch_23">
    <path d="M 159.7575 172.6295 
C 159.7575 172.6295 159.7575 172.6295 159.7575 172.6295 
C 159.7575 172.6295 159.7575 172.6295 159.7575 172.6295 
L 140.68113 188.285072 
C 141.19356 188.90947 141.736338 189.508333 142.307502 190.079498 
C 142.878667 190.650662 143.47753 191.19344 144.101928 191.70587 
z
" clip-path="url(#p7597b7cc13)" style="fill: #d4a0a7; stroke: #000000; stroke-width: 0.5; stroke-linejoin: miter"/>
   </g>
   <g id="patch_24">
    <path d="M 159.7575 172.6295 
C 159.7575 172.6295 159.7575 172.6295 159.7575 172.6295 
C 159.7575 172.6295 159.7575 172.6295 159.7575 172.6295 
L 129.36593 188.874133 
C 129.897641 189.868894 130.477872 190.83695 131.104526 191.774805 
C 131.73118 192.71266 132.403503 193.619182 133.119066 194.491098 
z
" clip-path="url(#p7597b7cc13)" style="fill: #d4a0a7; stroke: #000000; stroke-width: 0.5; stroke-linejoin: miter"/>
   </g>
   <g id="patch_25">
    <path d="M 159.7575 172.6295 
C 159.7575 172.6295 159.7575 172.6295 159.7575 172.6295 
C 159.7575 172.6295 159.7575 172.6295 159.7575 172.6295 
L 139.59855 178.744651 
C 139.798708 179.404483 140.031141 180.054091 140.29501 180.691127 
C 140.558879 181.328164 140.853866 181.951861 141.178905 182.559966 
z
" clip-path="url(#p7597b7cc13)" style="fill: #d4a0a7; stroke: #000000; stroke-width: 0.5; stroke-linejoin: miter"/>
   </g>
   <g id="patch_26">
    <path d="M 159.7575 172.6295 
C 159.7575 172.6295 159.7575 172.6295 159.7575 172.6295 
C 159.7575 172.6295 159.7575 172.6295 159.7575 172.6295 
L 150.045833 173.586016 
C 150.077141 173.903893 150.124037 174.220042 150.186352 174.53332 
C 150.248667 174.846598 150.326325 175.156627 150.419047 175.462289 
z
" clip-path="url(#p7597b7cc13)" style="fill: #d4a0a7; stroke: #000000; stroke-width: 0.5; stroke-linejoin: miter"/>
   </g>
   <g id="patch_27">
    <path d="M 159.7575 172.6295 
C 159.7575 172.6295 159.7575 172.6295 159.7575 172.6295 
C 159.7575 172.6295 159.7575 172.6295 159.7575 172.6295 
L 159.7575 172.6295 
C 159.7575 172.6295 159.7575 172.6295 159.7575 172.6295 
C 159.7575 172.6295 159.7575 172.6295 159.7575 172.6295 
z
" clip-path="url(#p7597b7cc13)" style="fill: #d4a0a7; stroke: #000000; stroke-width: 0.5; stroke-linejoin: miter"/>
   </g>
   <g id="patch_28">
    <path d="M 159.7575 172.6295 
C 159.7575 172.6295 159.7575 172.6295 159.7575 172.6295 
C 159.7575 172.6295 159.7575 172.6295 159.7575 172.6295 
L 159.7575 172.6295 
C 159.7575 172.6295 159.7575 172.6295 159.7575 172.6295 
C 159.7575 172.6295 159.7575 172.6295 159.7575 172.6295 
z
" clip-path="url(#p7597b7cc13)" style="fill: #d4a0a7; stroke: #000000; stroke-width: 0.5; stroke-linejoin: miter"/>
   </g>
   <g id="patch_29">
    <path d="M 159.7575 172.6295 
C 159.7575 172.6295 159.7575 172.6295 159.7575 172.6295 
C 159.7575 172.6295 159.7575 172.6295 159.7575 172.6295 
L 159.7575 172.6295 
C 159.7575 172.6295 159.7575 172.6295 159.7575 172.6295 
C 159.7575 172.6295 159.7575 172.6295 159.7575 172.6295 
z
" clip-path="url(#p7597b7cc13)" style="fill: #d4a0a7; stroke: #000000; stroke-width: 0.5; stroke-linejoin: miter"/>
   </g>
   <g id="patch_30">
    <path d="M 159.7575 172.6295 
C 159.7575 172.6295 159.7575 172.6295 159.7575 172.6295 
C 159.7575 172.6295 159.7575 172.6295 159.7575 172.6295 
L 159.7575 172.6295 
C 159.7575 172.6295 159.7575 172.6295 159.7575 172.6295 
C 159.7575 172.6295 159.7575 172.6295 159.7575 172.6295 
z
" clip-path="url(#p7597b7cc13)" style="fill: #d4a0a7; stroke: #000000; stroke-width: 0.5; stroke-linejoin: miter"/>
   </g>
   <g id="patch_31">
    <path d="M 159.7575 172.6295 
C 159.7575 172.6295 159.7575 172.6295 159.7575 172.6295 
C 159.7575 172.6295 159.7575 172.6295 159.7575 172.6295 
L 159.7575 172.6295 
C 159.7575 172.6295 159.7575 172.6295 159.7575 172.6295 
C 159.7575 172.6295 159.7575 172.6295 159.7575 172.6295 
z
" clip-path="url(#p7597b7cc13)" style="fill: #d4a0a7; stroke: #000000; stroke-width: 0.5; stroke-linejoin: miter"/>
   </g>
   <g id="patch_32">
    <path d="M 159.7575 172.6295 
C 159.7575 172.6295 159.7575 172.6295 159.7575 172.6295 
C 159.7575 172.6295 159.7575 172.6295 159.7575 172.6295 
L 159.7575 172.6295 
C 159.7575 172.6295 159.7575 172.6295 159.7575 172.6295 
C 159.7575 172.6295 159.7575 172.6295 159.7575 172.6295 
z
" clip-path="url(#p7597b7cc13)" style="fill: #d4a0a7; stroke: #000000; stroke-width: 0.5; stroke-linejoin: miter"/>
   </g>
   <g id="patch_33">
    <path d="M 159.7575 172.6295 
C 159.7575 172.6295 159.7575 172.6295 159.7575 172.6295 
C 159.7575 172.6295 159.7575 172.6295 159.7575 172.6295 
L 159.7575 172.6295 
C 159.7575 172.6295 159.7575 172.6295 159.7575 172.6295 
C 159.7575 172.6295 159.7575 172.6295 159.7575 172.6295 
z
" clip-path="url(#p7597b7cc13)" style="fill: #d4a0a7; stroke: #000000; stroke-width: 0.5; stroke-linejoin: miter"/>
   </g>
   <g id="patch_34">
    <path d="M 159.7575 172.6295 
C 159.7575 172.6295 159.7575 172.6295 159.7575 172.6295 
C 159.7575 172.6295 159.7575 172.6295 159.7575 172.6295 
L 159.7575 172.6295 
C 159.7575 172.6295 159.7575 172.6295 159.7575 172.6295 
C 159.7575 172.6295 159.7575 172.6295 159.7575 172.6295 
z
" clip-path="url(#p7597b7cc13)" style="fill: #d4a0a7; stroke: #000000; stroke-width: 0.5; stroke-linejoin: miter"/>
   </g>
   <g id="PathCollection_1">
    <defs>
     <path id="mde6a22c461" d="M 0.193618 7.414054 
L 0.193618 7.414054 
C 0.054922 7.414054 -0.078235 7.358899 -0.176308 7.260826 
C -0.274381 7.162753 -0.329536 7.029596 -0.329536 6.890901 
L -0.329536 5.365008 
L -1.528416 6.56393 
L -1.528416 6.56393 
C -1.577018 6.612704 -1.634775 6.651408 -1.698366 6.677814 
C -1.761958 6.704221 -1.830141 6.717815 -1.898997 6.717815 
C -1.967853 6.717815 -2.036037 6.704221 -2.099628 6.677814 
C -2.163219 6.651408 -2.220976 6.612704 -2.269578 6.56393 
L -2.269578 6.56393 
C -2.318353 6.515327 -2.357056 6.457571 -2.383463 6.393979 
C -2.409869 6.330388 -2.423463 6.262205 -2.423463 6.193348 
C -2.423463 6.124492 -2.409869 6.056309 -2.383463 5.992718 
C -2.357056 5.929126 -2.318353 5.87137 -2.269578 5.822767 
L -0.329536 3.884106 
L -0.329536 0.820937 
L -2.98067 2.351538 
L -3.691824 5.001416 
L -3.691824 5.001416 
C -3.727584 5.135411 -3.815199 5.249836 -3.93523 5.319305 
C -4.055261 5.388775 -4.198123 5.407741 -4.332122 5.371997 
L -4.332122 5.371997 
C -4.466126 5.336237 -4.580558 5.248616 -4.650029 5.128576 
C -4.719499 5.008535 -4.73846 4.865662 -4.702703 4.731657 
L -4.262647 3.092721 
L -5.585535 3.855668 
L -5.585535 3.855668 
C -5.645013 3.890144 -5.710708 3.912561 -5.778854 3.921634 
C -5.847001 3.930706 -5.916272 3.926258 -5.982698 3.908543 
C -6.049125 3.890828 -6.111412 3.860192 -6.165991 3.818391 
C -6.220571 3.77659 -6.266379 3.724437 -6.300791 3.664922 
L -6.300791 3.664922 
C -6.335212 3.605364 -6.35755 3.539597 -6.366524 3.471396 
C -6.375498 3.403194 -6.370933 3.333888 -6.35309 3.267452 
C -6.335248 3.201017 -6.304476 3.138749 -6.26254 3.08422 
C -6.220605 3.029692 -6.168323 2.983966 -6.108695 2.949666 
L -4.785807 2.186762 
L -6.424743 1.746706 
L -6.424743 1.746706 
C -6.558747 1.710946 -6.673179 1.623325 -6.74265 1.503284 
C -6.81212 1.383244 -6.831081 1.240371 -6.795324 1.106366 
L -6.795324 1.106366 
C -6.777471 1.039969 -6.746703 0.977739 -6.704784 0.923241 
C -6.662864 0.868744 -6.61061 0.823041 -6.551015 0.788752 
C -6.491421 0.754464 -6.425647 0.732257 -6.357465 0.723406 
C -6.289282 0.714554 -6.220019 0.71923 -6.153645 0.737166 
L -3.505232 1.44698 
L -0.852424 -0.08496 
L -3.503767 -1.615666 
L -6.153645 -0.905851 
L -6.153645 -0.905851 
C -6.22011 -0.887939 -6.289462 -0.883321 -6.357716 -0.892262 
C -6.42597 -0.901202 -6.491793 -0.923527 -6.551403 -0.957953 
C -6.611013 -0.992379 -6.663247 -1.038234 -6.705103 -1.092883 
C -6.746958 -1.147533 -6.777619 -1.209911 -6.795324 -1.276432 
L -6.795324 -1.276432 
C -6.831068 -1.410431 -6.812101 -1.553293 -6.742632 -1.673324 
C -6.673162 -1.793355 -6.558738 -1.88097 -6.424743 -1.91673 
L -4.785807 -2.355447 
L -6.108695 -3.119732 
L -6.108695 -3.119732 
C -6.228699 -3.188976 -6.316415 -3.303132 -6.352417 -3.436921 
C -6.388419 -3.57071 -6.369839 -3.713469 -6.300791 -3.833586 
L -6.300791 -3.833586 
C -6.266491 -3.893214 -6.220765 -3.945496 -6.166237 -3.987431 
C -6.111708 -4.029367 -6.04944 -4.060139 -5.983005 -4.077981 
C -5.91657 -4.095823 -5.847263 -4.100389 -5.779062 -4.091415 
C -5.71086 -4.082441 -5.645094 -4.060102 -5.585535 -4.025682 
L -4.262647 -3.261396 
L -4.702703 -4.900332 
L -4.702703 -4.900332 
C -4.73846 -5.034337 -4.719499 -5.17721 -4.650029 -5.29725 
C -4.580558 -5.417291 -4.466126 -5.504912 -4.332122 -5.540672 
L -4.332122 -5.540672 
C -4.19831 -5.576464 -4.055613 -5.557686 -3.935617 -5.488496 
C -3.81562 -5.419305 -3.727882 -5.305212 -3.691824 -5.171472 
L -2.982009 -2.521594 
L -0.329411 -0.990302 
L -0.329411 -4.051588 
L -2.269453 -5.991589 
L -2.269453 -5.991589 
C -2.318227 -6.040191 -2.356931 -6.097947 -2.383337 -6.161539 
C -2.409744 -6.22513 -2.423338 -6.293314 -2.423338 -6.36217 
C -2.423338 -6.431026 -2.409744 -6.499209 -2.383337 -6.5628 
C -2.356931 -6.626392 -2.318227 -6.684149 -2.269453 -6.732751 
L -2.269453 -6.732751 
C -2.22085 -6.781526 -2.163094 -6.820229 -2.099502 -6.846635 
C -2.035911 -6.873042 -1.967728 -6.886636 -1.898871 -6.886636 
C -1.830015 -6.886636 -1.761832 -6.873042 -1.698241 -6.846635 
C -1.634649 -6.820229 -1.576893 -6.781526 -1.52829 -6.732751 
L -0.329411 -5.533829 
L -0.329411 -7.059722 
L -0.329411 -7.059722 
C -0.329411 -7.198418 -0.274255 -7.331575 -0.176182 -7.429647 
C -0.07811 -7.52772 0.055047 -7.582875 0.193743 -7.582875 
L 0.193743 -7.582875 
C 0.332439 -7.582875 0.465596 -7.52772 0.563669 -7.429647 
C 0.661741 -7.331575 0.716897 -7.198418 0.716897 -7.059722 
L 0.716897 -5.533829 
L 1.915777 -6.732751 
L 1.915777 -6.732751 
C 1.964379 -6.781526 2.022136 -6.820229 2.085727 -6.846635 
C 2.149318 -6.873042 2.217502 -6.886636 2.286358 -6.886636 
C 2.355214 -6.886636 2.423397 -6.873042 2.486989 -6.846635 
C 2.55058 -6.820229 2.608337 -6.781526 2.656939 -6.732751 
L 2.656939 -6.732751 
C 2.705714 -6.684149 2.744417 -6.626392 2.770823 -6.5628 
C 2.79723 -6.499209 2.810824 -6.431026 2.810824 -6.36217 
C 2.810824 -6.293314 2.79723 -6.22513 2.770823 -6.161539 
C 2.744417 -6.097947 2.705714 -6.040191 2.656939 -5.991589 
L 0.716897 -4.051588 
L 0.716897 -0.991139 
L 3.369495 -2.522954 
L 4.07931 -5.171367 
L 4.07931 -5.171367 
C 4.115368 -5.305107 4.203106 -5.4192 4.323103 -5.488391 
C 4.4431 -5.557582 4.585797 -5.576359 4.719608 -5.540567 
L 4.719608 -5.540567 
C 4.853612 -5.504807 4.968045 -5.417186 5.037515 -5.297146 
C 5.106986 -5.177105 5.125946 -5.034232 5.090189 -4.900227 
L 4.650133 -3.262673 
L 5.973022 -4.025577 
L 5.973022 -4.025577 
C 6.03258 -4.059998 6.098346 -4.082336 6.166548 -4.09131 
C 6.234749 -4.100284 6.304056 -4.095719 6.370491 -4.077876 
C 6.436926 -4.060034 6.499194 -4.029262 6.553723 -3.987327 
C 6.608252 -3.945391 6.653978 -3.893109 6.688277 -3.833481 
L 6.688277 -3.833481 
C 6.757325 -3.713365 6.775905 -3.570605 6.739903 -3.436816 
C 6.703901 -3.303027 6.616186 -3.188871 6.496181 -3.119628 
L 5.173293 -2.355342 
L 6.812229 -1.916625 
L 6.812229 -1.916625 
C 6.946224 -1.880865 7.060649 -1.79325 7.130118 -1.67322 
C 7.199588 -1.553189 7.218554 -1.410326 7.18281 -1.276327 
L 7.18281 -1.276327 
C 7.165106 -1.209806 7.134445 -1.147429 7.092589 -1.092779 
C 7.050733 -1.038129 6.998499 -0.992274 6.938889 -0.957848 
C 6.879279 -0.923422 6.813456 -0.901098 6.745202 -0.892157 
C 6.676949 -0.883217 6.607597 -0.887835 6.541131 -0.905746 
L 3.891253 -1.615561 
L 1.239492 -0.084604 
L 3.892718 1.447085 
L 6.541131 0.73727 
L 6.541131 0.73727 
C 6.674948 0.701466 6.817656 0.720237 6.937662 0.789429 
C 7.057669 0.858621 7.145413 0.972721 7.181471 1.10647 
L 7.181471 1.10647 
C 7.217274 1.240293 7.198497 1.383006 7.129297 1.503014 
C 7.060096 1.623021 6.945986 1.710762 6.812229 1.74681 
L 5.173293 2.186866 
L 6.496181 2.949771 
L 6.496181 2.949771 
C 6.555697 2.984183 6.607849 3.029991 6.649651 3.08457 
C 6.691452 3.13915 6.722088 3.201437 6.739803 3.267863 
C 6.757517 3.33429 6.761966 3.403561 6.752893 3.471707 
C 6.743821 3.539854 6.721404 3.605549 6.686927 3.665026 
L 6.686927 3.665026 
C 6.617458 3.784813 6.503196 3.87225 6.369416 3.907994 
C 6.235636 3.943739 6.092989 3.924946 5.973032 3.855772 
L 4.650144 3.091487 
L 5.08886 4.731783 
L 5.08886 4.731783 
C 5.124664 4.865606 5.105887 5.008319 5.036686 5.128326 
C 4.967486 5.248334 4.853376 5.336074 4.719619 5.372123 
L 4.719619 5.372123 
C 4.585619 5.407867 4.442757 5.3889 4.322726 5.319431 
C 4.202695 5.249961 4.115081 5.135537 4.07932 5.001542 
L 3.368166 2.351664 
L 0.717033 0.821063 
L 0.717033 3.884232 
L 2.657075 5.822893 
L 2.657075 5.822893 
C 2.70585 5.871495 2.744553 5.929252 2.770959 5.992843 
C 2.797366 6.056435 2.81096 6.124618 2.81096 6.193474 
C 2.81096 6.26233 2.797366 6.330514 2.770959 6.394105 
C 2.744553 6.457696 2.70585 6.515453 2.657075 6.564055 
L 2.657075 6.564055 
C 2.608473 6.61283 2.550716 6.651533 2.487125 6.67794 
C 2.423533 6.704346 2.35535 6.71794 2.286494 6.71794 
C 2.217638 6.71794 2.149454 6.704346 2.085863 6.67794 
C 2.022272 6.651533 1.964515 6.61283 1.915913 6.564055 
L 0.717033 5.365133 
L 0.717033 6.891026 
L 0.717033 6.891026 
C 0.717033 7.029722 0.661877 7.162879 0.563805 7.260952 
C 0.465732 7.359024 0.332575 7.41418 0.193879 7.41418 
L 0.193618 7.414054 
z
"/>
    </defs>
    <g clip-path="url(#p7597b7cc13)">
     <use xlink:href="#mde6a22c461" x="209.857617" y="249.801979" style="fill: #0000ff; fill-opacity: 0.7"/>
    </g>
   </g>
   <g id="patch_35">
    <path d="M 159.7575 61.7495 
C 145.196872 61.7495 130.777827 64.617626 117.325561 70.189737 
C 103.873295 75.761849 91.649419 83.929581 81.3535 94.2255 
C 71.057581 104.521419 62.889849 116.745295 57.317737 130.197561 
C 51.745626 143.649827 48.8775 158.068872 48.8775 172.6295 
C 48.8775 187.190128 51.745626 201.609173 57.317737 215.061439 
C 62.889849 228.513705 71.057581 240.737581 81.3535 251.0335 
C 91.649419 261.329419 103.873295 269.497151 117.325561 275.069263 
C 130.777827 280.641374 145.196872 283.5095 159.7575 283.5095 
C 174.318128 283.5095 188.737173 280.641374 202.189439 275.069263 
C 215.641705 269.497151 227.865581 261.329419 238.1615 251.0335 
C 248.457419 240.737581 256.625151 228.513705 262.197263 215.061439 
C 267.769374 201.609173 270.6375 187.190128 270.6375 172.6295 
C 270.6375 158.068872 267.769374 143.649827 262.197263 130.197561 
C 256.625151 116.745295 248.457419 104.521419 238.1615 94.2255 
C 227.865581 83.929581 215.641705 75.761849 202.189439 70.189737 
C 188.737173 64.617626 174.318128 61.7495 159.7575 61.7495 
" style="fill: none; stroke: #000000; stroke-width: 0.8; stroke-linejoin: miter; stroke-linecap: square"/>
   </g>
   <g id="text_5">
    <!-- 9 runs -->
    <g style="fill: #95a5a6" transform="translate(35.87918 56.349618) scale(0.1 -0.1)">
     <defs>
      <path id="DejaVuSans-39" d="M 703 97 
L 703 672 
Q 941 559 1184 500 
Q 1428 441 1663 441 
Q 2288 441 2617 861 
Q 2947 1281 2994 2138 
Q 2813 1869 2534 1725 
Q 2256 1581 1919 1581 
Q 1219 1581 811 2004 
Q 403 2428 403 3163 
Q 403 3881 828 4315 
Q 1253 4750 1959 4750 
Q 2769 4750 3195 4129 
Q 3622 3509 3622 2328 
Q 3622 1225 3098 567 
Q 2575 -91 1691 -91 
Q 1453 -91 1209 -44 
Q 966 3 703 97 
z
M 1959 2075 
Q 2384 2075 2632 2365 
Q 2881 2656 2881 3163 
Q 2881 3666 2632 3958 
Q 2384 4250 1959 4250 
Q 1534 4250 1286 3958 
Q 1038 3666 1038 3163 
Q 1038 2656 1286 2365 
Q 1534 2075 1959 2075 
z
" transform="scale(0.015625)"/>
      <path id="DejaVuSans-20" transform="scale(0.015625)"/>
      <path id="DejaVuSans-72" d="M 2631 2963 
Q 2534 3019 2420 3045 
Q 2306 3072 2169 3072 
Q 1681 3072 1420 2755 
Q 1159 2438 1159 1844 
L 1159 0 
L 581 0 
L 581 3500 
L 1159 3500 
L 1159 2956 
Q 1341 3275 1631 3429 
Q 1922 3584 2338 3584 
Q 2397 3584 2469 3576 
Q 2541 3569 2628 3553 
L 2631 2963 
z
" transform="scale(0.015625)"/>
      <path id="DejaVuSans-75" d="M 544 1381 
L 544 3500 
L 1119 3500 
L 1119 1403 
Q 1119 906 1312 657 
Q 1506 409 1894 409 
Q 2359 409 2629 706 
Q 2900 1003 2900 1516 
L 2900 3500 
L 3475 3500 
L 3475 0 
L 2900 0 
L 2900 538 
Q 2691 219 2414 64 
Q 2138 -91 1772 -91 
Q 1169 -91 856 284 
Q 544 659 544 1381 
z
M 1991 3584 
L 1991 3584 
z
" transform="scale(0.015625)"/>
      <path id="DejaVuSans-6e" d="M 3513 2113 
L 3513 0 
L 2938 0 
L 2938 2094 
Q 2938 2591 2744 2837 
Q 2550 3084 2163 3084 
Q 1697 3084 1428 2787 
Q 1159 2491 1159 1978 
L 1159 0 
L 581 0 
L 581 3500 
L 1159 3500 
L 1159 2956 
Q 1366 3272 1645 3428 
Q 1925 3584 2291 3584 
Q 2894 3584 3203 3211 
Q 3513 2838 3513 2113 
z
" transform="scale(0.015625)"/>
      <path id="DejaVuSans-73" d="M 2834 3397 
L 2834 2853 
Q 2591 2978 2328 3040 
Q 2066 3103 1784 3103 
Q 1356 3103 1142 2972 
Q 928 2841 928 2578 
Q 928 2378 1081 2264 
Q 1234 2150 1697 2047 
L 1894 2003 
Q 2506 1872 2764 1633 
Q 3022 1394 3022 966 
Q 3022 478 2636 193 
Q 2250 -91 1575 -91 
Q 1294 -91 989 -36 
Q 684 19 347 128 
L 347 722 
Q 666 556 975 473 
Q 1284 391 1588 391 
Q 1994 391 2212 530 
Q 2431 669 2431 922 
Q 2431 1156 2273 1281 
Q 2116 1406 1581 1522 
L 1381 1569 
Q 847 1681 609 1914 
Q 372 2147 372 2553 
Q 372 3047 722 3315 
Q 1072 3584 1716 3584 
Q 2034 3584 2315 3537 
Q 2597 3491 2834 3397 
z
" transform="scale(0.015625)"/>
     </defs>
     <use xlink:href="#DejaVuSans-39"/>
     <use xlink:href="#DejaVuSans-20" x="63.623047"/>
     <use xlink:href="#DejaVuSans-72" x="95.410156"/>
     <use xlink:href="#DejaVuSans-75" x="136.523438"/>
     <use xlink:href="#DejaVuSans-6e" x="199.902344"/>
     <use xlink:href="#DejaVuSans-73" x="263.28125"/>
    </g>
    <!-- 3 lifts -->
    <g style="fill: #95a5a6" transform="translate(35.87918 67.54743) scale(0.1 -0.1)">
     <defs>
      <path id="DejaVuSans-33" d="M 2597 2516 
Q 3050 2419 3304 2112 
Q 3559 1806 3559 1356 
Q 3559 666 3084 287 
Q 2609 -91 1734 -91 
Q 1441 -91 1130 -33 
Q 819 25 488 141 
L 488 750 
Q 750 597 1062 519 
Q 1375 441 1716 441 
Q 2309 441 2620 675 
Q 2931 909 2931 1356 
Q 2931 1769 2642 2001 
Q 2353 2234 1838 2234 
L 1294 2234 
L 1294 2753 
L 1863 2753 
Q 2328 2753 2575 2939 
Q 2822 3125 2822 3475 
Q 2822 3834 2567 4026 
Q 2313 4219 1838 4219 
Q 1578 4219 1281 4162 
Q 984 4106 628 3988 
L 628 4550 
Q 988 4650 1302 4700 
Q 1616 4750 1894 4750 
Q 2613 4750 3031 4423 
Q 3450 4097 3450 3541 
Q 3450 3153 3228 2886 
Q 3006 2619 2597 2516 
z
" transform="scale(0.015625)"/>
      <path id="DejaVuSans-6c" d="M 603 4863 
L 1178 4863 
L 1178 0 
L 603 0 
L 603 4863 
z
" transform="scale(0.015625)"/>
      <path id="DejaVuSans-69" d="M 603 3500 
L 1178 3500 
L 1178 0 
L 603 0 
L 603 3500 
z
M 603 4863 
L 1178 4863 
L 1178 4134 
L 603 4134 
L 603 4863 
z
" transform="scale(0.015625)"/>
      <path id="DejaVuSans-66" d="M 2375 4863 
L 2375 4384 
L 1825 4384 
Q 1516 4384 1395 4259 
Q 1275 4134 1275 3809 
L 1275 3500 
L 2222 3500 
L 2222 3053 
L 1275 3053 
L 1275 0 
L 697 0 
L 697 3053 
L 147 3053 
L 147 3500 
L 697 3500 
L 697 3744 
Q 697 4328 969 4595 
Q 1241 4863 1831 4863 
L 2375 4863 
z
" transform="scale(0.015625)"/>
      <path id="DejaVuSans-74" d="M 1172 4494 
L 1172 3500 
L 2356 3500 
L 2356 3053 
L 1172 3053 
L 1172 1153 
Q 1172 725 1289 603 
Q 1406 481 1766 481 
L 2356 481 
L 2356 0 
L 1766 0 
Q 1100 0 847 248 
Q 594 497 594 1153 
L 594 3053 
L 172 3053 
L 172 3500 
L 594 3500 
L 594 4494 
L 1172 4494 
z
" transform="scale(0.015625)"/>
     </defs>
     <use xlink:href="#DejaVuSans-33"/>
     <use xlink:href="#DejaVuSans-20" x="63.623047"/>
     <use xlink:href="#DejaVuSans-6c" x="95.410156"/>
     <use xlink:href="#DejaVuSans-69" x="123.193359"/>
     <use xlink:href="#DejaVuSans-66" x="150.976562"/>
     <use xlink:href="#DejaVuSans-74" x="184.431641"/>
     <use xlink:href="#DejaVuSans-73" x="223.640625"/>
    </g>
   </g>
   <g id="text_6">
    <!-- 1,370 m -->
    <g style="fill: #95a5a6" transform="translate(243.270195 56.349618) scale(0.1 -0.1)">
     <defs>
      <path id="DejaVuSans-31" d="M 794 531 
L 1825 531 
L 1825 4091 
L 703 3866 
L 703 4441 
L 1819 4666 
L 2450 4666 
L 2450 531 
L 3481 531 
L 3481 0 
L 794 0 
L 794 531 
z
" transform="scale(0.015625)"/>
      <path id="DejaVuSans-2c" d="M 750 794 
L 1409 794 
L 1409 256 
L 897 -744 
L 494 -744 
L 750 256 
L 750 794 
z
" transform="scale(0.015625)"/>
      <path id="DejaVuSans-37" d="M 525 4666 
L 3525 4666 
L 3525 4397 
L 1831 0 
L 1172 0 
L 2766 4134 
L 525 4134 
L 525 4666 
z
" transform="scale(0.015625)"/>
      <path id="DejaVuSans-30" d="M 2034 4250 
Q 1547 4250 1301 3770 
Q 1056 3291 1056 2328 
Q 1056 1369 1301 889 
Q 1547 409 2034 409 
Q 2525 409 2770 889 
Q 3016 1369 3016 2328 
Q 3016 3291 2770 3770 
Q 2525 4250 2034 4250 
z
M 2034 4750 
Q 2819 4750 3233 4129 
Q 3647 3509 3647 2328 
Q 3647 1150 3233 529 
Q 2819 -91 2034 -91 
Q 1250 -91 836 529 
Q 422 1150 422 2328 
Q 422 3509 836 4129 
Q 1250 4750 2034 4750 
z
" transform="scale(0.015625)"/>
      <path id="DejaVuSans-202f" transform="scale(0.015625)"/>
      <path id="DejaVuSans-6d" d="M 3328 2828 
Q 3544 3216 3844 3400 
Q 4144 3584 4550 3584 
Q 5097 3584 5394 3201 
Q 5691 2819 5691 2113 
L 5691 0 
L 5113 0 
L 5113 2094 
Q 5113 2597 4934 2840 
Q 4756 3084 4391 3084 
Q 3944 3084 3684 2787 
Q 3425 2491 3425 1978 
L 3425 0 
L 2847 0 
L 2847 2094 
Q 2847 2600 2669 2842 
Q 2491 3084 2119 3084 
Q 1678 3084 1418 2786 
Q 1159 2488 1159 1978 
L 1159 0 
L 581 0 
L 581 3500 
L 1159 3500 
L 1159 2956 
Q 1356 3278 1631 3431 
Q 1906 3584 2284 3584 
Q 2666 3584 2933 3390 
Q 3200 3197 3328 2828 
z
" transform="scale(0.015625)"/>
     </defs>
     <use xlink:href="#DejaVuSans-31"/>
     <use xlink:href="#DejaVuSans-2c" x="63.623047"/>
     <use xlink:href="#DejaVuSans-33" x="95.410156"/>
     <use xlink:href="#DejaVuSans-37" x="159.033203"/>
     <use xlink:href="#DejaVuSans-30" x="222.65625"/>
     <use xlink:href="#DejaVuSans-202f" x="286.279297"/>
     <use xlink:href="#DejaVuSans-6d" x="306.25"/>
    </g>
    <!-- skiable -->
    <g style="fill: #95a5a6" transform="translate(248.449882 67.54743) scale(0.1 -0.1)">
     <defs>
      <path id="DejaVuSans-6b" d="M 581 4863 
L 1159 4863 
L 1159 1991 
L 2875 3500 
L 3609 3500 
L 1753 1863 
L 3688 0 
L 2938 0 
L 1159 1709 
L 1159 0 
L 581 0 
L 581 4863 
z
" transform="scale(0.015625)"/>
      <path id="DejaVuSans-61" d="M 2194 1759 
Q 1497 1759 1228 1600 
Q 959 1441 959 1056 
Q 959 750 1161 570 
Q 1363 391 1709 391 
Q 2188 391 2477 730 
Q 2766 1069 2766 1631 
L 2766 1759 
L 2194 1759 
z
M 3341 1997 
L 3341 0 
L 2766 0 
L 2766 531 
Q 2569 213 2275 61 
Q 1981 -91 1556 -91 
Q 1019 -91 701 211 
Q 384 513 384 1019 
Q 384 1609 779 1909 
Q 1175 2209 1959 2209 
L 2766 2209 
L 2766 2266 
Q 2766 2663 2505 2880 
Q 2244 3097 1772 3097 
Q 1472 3097 1187 3025 
Q 903 2953 641 2809 
L 641 3341 
Q 956 3463 1253 3523 
Q 1550 3584 1831 3584 
Q 2591 3584 2966 3190 
Q 3341 2797 3341 1997 
z
" transform="scale(0.015625)"/>
      <path id="DejaVuSans-62" d="M 3116 1747 
Q 3116 2381 2855 2742 
Q 2594 3103 2138 3103 
Q 1681 3103 1420 2742 
Q 1159 2381 1159 1747 
Q 1159 1113 1420 752 
Q 1681 391 2138 391 
Q 2594 391 2855 752 
Q 3116 1113 3116 1747 
z
M 1159 2969 
Q 1341 3281 1617 3432 
Q 1894 3584 2278 3584 
Q 2916 3584 3314 3078 
Q 3713 2572 3713 1747 
Q 3713 922 3314 415 
Q 2916 -91 2278 -91 
Q 1894 -91 1617 61 
Q 1341 213 1159 525 
L 1159 0 
L 581 0 
L 581 4863 
L 1159 4863 
L 1159 2969 
z
" transform="scale(0.015625)"/>
      <path id="DejaVuSans-65" d="M 3597 1894 
L 3597 1613 
L 953 1613 
Q 991 1019 1311 708 
Q 1631 397 2203 397 
Q 2534 397 2845 478 
Q 3156 559 3463 722 
L 3463 178 
Q 3153 47 2828 -22 
Q 2503 -91 2169 -91 
Q 1331 -91 842 396 
Q 353 884 353 1716 
Q 353 2575 817 3079 
Q 1281 3584 2069 3584 
Q 2775 3584 3186 3129 
Q 3597 2675 3597 1894 
z
M 3022 2063 
Q 3016 2534 2758 2815 
Q 2500 3097 2075 3097 
Q 1594 3097 1305 2825 
Q 1016 2553 972 2059 
L 3022 2063 
z
" transform="scale(0.015625)"/>
     </defs>
     <use xlink:href="#DejaVuSans-73"/>
     <use xlink:href="#DejaVuSans-6b" x="52.099609"/>
     <use xlink:href="#DejaVuSans-69" x="110.009766"/>
     <use xlink:href="#DejaVuSans-61" x="137.792969"/>
     <use xlink:href="#DejaVuSans-62" x="199.072266"/>
     <use xlink:href="#DejaVuSans-6c" x="262.548828"/>
     <use xlink:href="#DejaVuSans-65" x="290.332031"/>
    </g>
    <!-- vert -->
    <g style="fill: #95a5a6" transform="translate(263.532695 78.745243) scale(0.1 -0.1)">
     <defs>
      <path id="DejaVuSans-76" d="M 191 3500 
L 800 3500 
L 1894 563 
L 2988 3500 
L 3597 3500 
L 2284 0 
L 1503 0 
L 191 3500 
z
" transform="scale(0.015625)"/>
     </defs>
     <use xlink:href="#DejaVuSans-76"/>
     <use xlink:href="#DejaVuSans-65" x="59.179688"/>
     <use xlink:href="#DejaVuSans-72" x="120.703125"/>
     <use xlink:href="#DejaVuSans-74" x="161.816406"/>
    </g>
   </g>
   <g id="text_7">
    <!-- affinity: -->
    <g style="fill: #95a5a6" transform="translate(35.87918 272.032507) scale(0.1 -0.1)">
     <defs>
      <path id="DejaVuSans-79" d="M 2059 -325 
Q 1816 -950 1584 -1140 
Q 1353 -1331 966 -1331 
L 506 -1331 
L 506 -850 
L 844 -850 
Q 1081 -850 1212 -737 
Q 1344 -625 1503 -206 
L 1606 56 
L 191 3500 
L 800 3500 
L 1894 763 
L 2988 3500 
L 3597 3500 
L 2059 -325 
z
" transform="scale(0.015625)"/>
      <path id="DejaVuSans-3a" d="M 750 794 
L 1409 794 
L 1409 0 
L 750 0 
L 750 794 
z
M 750 3309 
L 1409 3309 
L 1409 2516 
L 750 2516 
L 750 3309 
z
" transform="scale(0.015625)"/>
     </defs>
     <use xlink:href="#DejaVuSans-61"/>
     <use xlink:href="#DejaVuSans-66" x="61.279297"/>
     <use xlink:href="#DejaVuSans-66" x="96.484375"/>
     <use xlink:href="#DejaVuSans-69" x="131.689453"/>
     <use xlink:href="#DejaVuSans-6e" x="159.472656"/>
     <use xlink:href="#DejaVuSans-69" x="222.851562"/>
     <use xlink:href="#DejaVuSans-74" x="250.634766"/>
     <use xlink:href="#DejaVuSans-79" x="289.84375"/>
     <use xlink:href="#DejaVuSans-3a" x="341.773438"/>
    </g>
    <!-- -70% poleward -->
    <g style="fill: #95a5a6" transform="translate(35.87918 283.23032) scale(0.1 -0.1)">
     <defs>
      <path id="DejaVuSans-2d" d="M 313 2009 
L 1997 2009 
L 1997 1497 
L 313 1497 
L 313 2009 
z
" transform="scale(0.015625)"/>
      <path id="DejaVuSans-25" d="M 4653 2053 
Q 4381 2053 4226 1822 
Q 4072 1591 4072 1178 
Q 4072 772 4226 539 
Q 4381 306 4653 306 
Q 4919 306 5073 539 
Q 5228 772 5228 1178 
Q 5228 1588 5073 1820 
Q 4919 2053 4653 2053 
z
M 4653 2450 
Q 5147 2450 5437 2106 
Q 5728 1763 5728 1178 
Q 5728 594 5436 251 
Q 5144 -91 4653 -91 
Q 4153 -91 3862 251 
Q 3572 594 3572 1178 
Q 3572 1766 3864 2108 
Q 4156 2450 4653 2450 
z
M 1428 4353 
Q 1159 4353 1004 4120 
Q 850 3888 850 3481 
Q 850 3069 1003 2837 
Q 1156 2606 1428 2606 
Q 1700 2606 1854 2837 
Q 2009 3069 2009 3481 
Q 2009 3884 1853 4118 
Q 1697 4353 1428 4353 
z
M 4250 4750 
L 4750 4750 
L 1831 -91 
L 1331 -91 
L 4250 4750 
z
M 1428 4750 
Q 1922 4750 2215 4408 
Q 2509 4066 2509 3481 
Q 2509 2891 2217 2550 
Q 1925 2209 1428 2209 
Q 931 2209 642 2551 
Q 353 2894 353 3481 
Q 353 4063 643 4406 
Q 934 4750 1428 4750 
z
" transform="scale(0.015625)"/>
      <path id="DejaVuSans-70" d="M 1159 525 
L 1159 -1331 
L 581 -1331 
L 581 3500 
L 1159 3500 
L 1159 2969 
Q 1341 3281 1617 3432 
Q 1894 3584 2278 3584 
Q 2916 3584 3314 3078 
Q 3713 2572 3713 1747 
Q 3713 922 3314 415 
Q 2916 -91 2278 -91 
Q 1894 -91 1617 61 
Q 1341 213 1159 525 
z
M 3116 1747 
Q 3116 2381 2855 2742 
Q 2594 3103 2138 3103 
Q 1681 3103 1420 2742 
Q 1159 2381 1159 1747 
Q 1159 1113 1420 752 
Q 1681 391 2138 391 
Q 2594 391 2855 752 
Q 3116 1113 3116 1747 
z
" transform="scale(0.015625)"/>
      <path id="DejaVuSans-6f" d="M 1959 3097 
Q 1497 3097 1228 2736 
Q 959 2375 959 1747 
Q 959 1119 1226 758 
Q 1494 397 1959 397 
Q 2419 397 2687 759 
Q 2956 1122 2956 1747 
Q 2956 2369 2687 2733 
Q 2419 3097 1959 3097 
z
M 1959 3584 
Q 2709 3584 3137 3096 
Q 3566 2609 3566 1747 
Q 3566 888 3137 398 
Q 2709 -91 1959 -91 
Q 1206 -91 779 398 
Q 353 888 353 1747 
Q 353 2609 779 3096 
Q 1206 3584 1959 3584 
z
" transform="scale(0.015625)"/>
      <path id="DejaVuSans-77" d="M 269 3500 
L 844 3500 
L 1563 769 
L 2278 3500 
L 2956 3500 
L 3675 769 
L 4391 3500 
L 4966 3500 
L 4050 0 
L 3372 0 
L 2619 2869 
L 1863 0 
L 1184 0 
L 269 3500 
z
" transform="scale(0.015625)"/>
      <path id="DejaVuSans-64" d="M 2906 2969 
L 2906 4863 
L 3481 4863 
L 3481 0 
L 2906 0 
L 2906 525 
Q 2725 213 2448 61 
Q 2172 -91 1784 -91 
Q 1150 -91 751 415 
Q 353 922 353 1747 
Q 353 2572 751 3078 
Q 1150 3584 1784 3584 
Q 2172 3584 2448 3432 
Q 2725 3281 2906 2969 
z
M 947 1747 
Q 947 1113 1208 752 
Q 1469 391 1925 391 
Q 2381 391 2643 752 
Q 2906 1113 2906 1747 
Q 2906 2381 2643 2742 
Q 2381 3103 1925 3103 
Q 1469 3103 1208 2742 
Q 947 2381 947 1747 
z
" transform="scale(0.015625)"/>
     </defs>
     <use xlink:href="#DejaVuSans-2d"/>
     <use xlink:href="#DejaVuSans-37" x="36.083984"/>
     <use xlink:href="#DejaVuSans-30" x="99.707031"/>
     <use xlink:href="#DejaVuSans-25" x="163.330078"/>
     <use xlink:href="#DejaVuSans-20" x="258.349609"/>
     <use xlink:href="#DejaVuSans-70" x="290.136719"/>
     <use xlink:href="#DejaVuSans-6f" x="353.613281"/>
     <use xlink:href="#DejaVuSans-6c" x="414.794922"/>
     <use xlink:href="#DejaVuSans-65" x="442.578125"/>
     <use xlink:href="#DejaVuSans-77" x="504.101562"/>
     <use xlink:href="#DejaVuSans-61" x="585.888672"/>
     <use xlink:href="#DejaVuSans-72" x="647.167969"/>
     <use xlink:href="#DejaVuSans-64" x="686.53125"/>
    </g>
    <!-- 45% eastward -->
    <g style="fill: #95a5a6" transform="translate(35.87918 294.428132) scale(0.1 -0.1)">
     <defs>
      <path id="DejaVuSans-34" d="M 2419 4116 
L 825 1625 
L 2419 1625 
L 2419 4116 
z
M 2253 4666 
L 3047 4666 
L 3047 1625 
L 3713 1625 
L 3713 1100 
L 3047 1100 
L 3047 0 
L 2419 0 
L 2419 1100 
L 313 1100 
L 313 1709 
L 2253 4666 
z
" transform="scale(0.015625)"/>
      <path id="DejaVuSans-35" d="M 691 4666 
L 3169 4666 
L 3169 4134 
L 1269 4134 
L 1269 2991 
Q 1406 3038 1543 3061 
Q 1681 3084 1819 3084 
Q 2600 3084 3056 2656 
Q 3513 2228 3513 1497 
Q 3513 744 3044 326 
Q 2575 -91 1722 -91 
Q 1428 -91 1123 -41 
Q 819 9 494 109 
L 494 744 
Q 775 591 1075 516 
Q 1375 441 1709 441 
Q 2250 441 2565 725 
Q 2881 1009 2881 1497 
Q 2881 1984 2565 2268 
Q 2250 2553 1709 2553 
Q 1456 2553 1204 2497 
Q 953 2441 691 2322 
L 691 4666 
z
" transform="scale(0.015625)"/>
     </defs>
     <use xlink:href="#DejaVuSans-34"/>
     <use xlink:href="#DejaVuSans-35" x="63.623047"/>
     <use xlink:href="#DejaVuSans-25" x="127.246094"/>
     <use xlink:href="#DejaVuSans-20" x="222.265625"/>
     <use xlink:href="#DejaVuSans-65" x="254.052734"/>
     <use xlink:href="#DejaVuSans-61" x="315.576172"/>
     <use xlink:href="#DejaVuSans-73" x="376.855469"/>
     <use xlink:href="#DejaVuSans-74" x="428.955078"/>
     <use xlink:href="#DejaVuSans-77" x="468.164062"/>
     <use xlink:href="#DejaVuSans-61" x="549.951172"/>
     <use xlink:href="#DejaVuSans-72" x="611.230469"/>
     <use xlink:href="#DejaVuSans-64" x="650.59375"/>
    </g>
   </g>
   <g id="text_8">
    <!-- elevation: -->
    <g style="fill: #95a5a6" transform="translate(233.981132 272.032507) scale(0.1 -0.1)">
     <use xlink:href="#DejaVuSans-65"/>
     <use xlink:href="#DejaVuSans-6c" x="61.523438"/>
     <use xlink:href="#DejaVuSans-65" x="89.306641"/>
     <use xlink:href="#DejaVuSans-76" x="150.830078"/>
     <use xlink:href="#DejaVuSans-61" x="210.009766"/>
     <use xlink:href="#DejaVuSans-74" x="271.289062"/>
     <use xlink:href="#DejaVuSans-69" x="310.498047"/>
     <use xlink:href="#DejaVuSans-6f" x="338.28125"/>
     <use xlink:href="#DejaVuSans-6e" x="399.462891"/>
     <use xlink:href="#DejaVuSans-3a" x="462.841797"/>
    </g>
    <!-- 398 m base -->
    <g style="fill: #95a5a6" transform="translate(225.793632 283.23032) scale(0.1 -0.1)">
     <defs>
      <path id="DejaVuSans-38" d="M 2034 2216 
Q 1584 2216 1326 1975 
Q 1069 1734 1069 1313 
Q 1069 891 1326 650 
Q 1584 409 2034 409 
Q 2484 409 2743 651 
Q 3003 894 3003 1313 
Q 3003 1734 2745 1975 
Q 2488 2216 2034 2216 
z
M 1403 2484 
Q 997 2584 770 2862 
Q 544 3141 544 3541 
Q 544 4100 942 4425 
Q 1341 4750 2034 4750 
Q 2731 4750 3128 4425 
Q 3525 4100 3525 3541 
Q 3525 3141 3298 2862 
Q 3072 2584 2669 2484 
Q 3125 2378 3379 2068 
Q 3634 1759 3634 1313 
Q 3634 634 3220 271 
Q 2806 -91 2034 -91 
Q 1263 -91 848 271 
Q 434 634 434 1313 
Q 434 1759 690 2068 
Q 947 2378 1403 2484 
z
M 1172 3481 
Q 1172 3119 1398 2916 
Q 1625 2713 2034 2713 
Q 2441 2713 2670 2916 
Q 2900 3119 2900 3481 
Q 2900 3844 2670 4047 
Q 2441 4250 2034 4250 
Q 1625 4250 1398 4047 
Q 1172 3844 1172 3481 
z
" transform="scale(0.015625)"/>
     </defs>
     <use xlink:href="#DejaVuSans-33"/>
     <use xlink:href="#DejaVuSans-39" x="63.623047"/>
     <use xlink:href="#DejaVuSans-38" x="127.246094"/>
     <use xlink:href="#DejaVuSans-202f" x="190.869141"/>
     <use xlink:href="#DejaVuSans-6d" x="210.839844"/>
     <use xlink:href="#DejaVuSans-20" x="308.251953"/>
     <use xlink:href="#DejaVuSans-62" x="340.039062"/>
     <use xlink:href="#DejaVuSans-61" x="403.515625"/>
     <use xlink:href="#DejaVuSans-73" x="464.794922"/>
     <use xlink:href="#DejaVuSans-65" x="516.894531"/>
    </g>
    <!-- 798 m peak -->
    <g style="fill: #95a5a6" transform="translate(225.212382 294.428132) scale(0.1 -0.1)">
     <use xlink:href="#DejaVuSans-37"/>
     <use xlink:href="#DejaVuSans-39" x="63.623047"/>
     <use xlink:href="#DejaVuSans-38" x="127.246094"/>
     <use xlink:href="#DejaVuSans-202f" x="190.869141"/>
     <use xlink:href="#DejaVuSans-6d" x="210.839844"/>
     <use xlink:href="#DejaVuSans-20" x="308.251953"/>
     <use xlink:href="#DejaVuSans-70" x="340.039062"/>
     <use xlink:href="#DejaVuSans-65" x="403.515625"/>
     <use xlink:href="#DejaVuSans-61" x="465.039062"/>
     <use xlink:href="#DejaVuSans-6b" x="526.318359"/>
    </g>
   </g>
   <g id="text_9">
    <!-- さかえ倶楽部スキー場, Sakae Club Ski -->
    <g transform="translate(7.2 19.745) scale(0.16 -0.16)">
     <defs>
      <path id="NotoSansCJKjp-Bold-3055" d="M 2195 2061 
L 1395 2246 
C 1178 1811 1056 1446 1056 1056 
C 1056 134 1882 -371 3187 -378 
C 3968 -378 4544 -294 4909 -224 
L 4954 582 
C 4499 493 3936 429 3238 429 
C 2362 429 1882 659 1882 1197 
C 1882 1472 1990 1760 2195 2061 
z
M 915 4243 
L 928 3424 
C 2022 3334 2899 3341 3661 3398 
C 3840 2970 4070 2547 4262 2240 
C 4064 2253 3642 2291 3328 2317 
L 3264 1638 
C 3802 1594 4608 1510 4966 1440 
L 5363 2016 
C 5248 2144 5126 2285 5018 2445 
C 4858 2675 4634 3072 4448 3488 
C 4851 3546 5261 3622 5587 3718 
L 5485 4525 
C 5082 4403 4634 4301 4173 4230 
C 4064 4550 3968 4896 3904 5235 
L 3040 5133 
C 3123 4922 3194 4691 3245 4544 
L 3373 4154 
C 2694 4109 1875 4122 915 4243 
z
" transform="scale(0.015625)"/>
      <path id="NotoSansCJKjp-Bold-304b" d="M 5158 4454 
L 4397 4128 
C 4851 3565 5306 2406 5472 1696 
L 6285 2074 
C 6093 2682 5555 3904 5158 4454 
z
M 358 3744 
L 435 2874 
C 627 2906 966 2950 1146 2982 
L 1696 3046 
C 1466 2170 1024 877 403 38 
L 1235 -294 
C 1824 646 2298 2163 2541 3136 
C 2720 3149 2880 3162 2982 3162 
C 3386 3162 3603 3091 3603 2579 
C 3603 1946 3520 1171 3347 806 
C 3245 595 3078 531 2867 531 
C 2694 531 2330 595 2080 666 
L 2221 -179 
C 2438 -224 2739 -269 2989 -269 
C 3469 -269 3827 -128 4038 320 
C 4314 877 4403 1914 4403 2669 
C 4403 3590 3923 3891 3245 3891 
C 3110 3891 2918 3878 2707 3866 
L 2842 4525 
C 2874 4685 2918 4890 2957 5056 
L 2003 5152 
C 2010 4749 1958 4282 1869 3802 
C 1542 3770 1242 3750 1043 3744 
C 806 3738 589 3725 358 3744 
z
" transform="scale(0.015625)"/>
      <path id="NotoSansCJKjp-Bold-3048" d="M 1997 5190 
L 1875 4448 
C 2637 4320 3834 4179 4506 4128 
L 4608 4877 
C 3942 4922 2714 5056 1997 5190 
z
M 4832 3155 
L 4365 3686 
C 4294 3661 4122 3629 4000 3616 
C 3469 3546 2016 3482 1715 3482 
C 1478 3475 1248 3488 1101 3501 
L 1178 2618 
C 1312 2637 1504 2669 1728 2688 
C 2093 2720 2861 2790 3309 2803 
C 2726 2189 1414 883 1088 550 
C 915 384 755 250 646 154 
L 1402 -378 
C 1843 186 2323 710 2541 934 
C 2694 1088 2829 1190 2963 1190 
C 3091 1190 3232 1107 3302 883 
C 3347 723 3424 422 3488 230 
C 3648 -186 3974 -320 4582 -320 
C 4915 -320 5568 -275 5837 -224 
L 5888 614 
C 5568 550 5126 499 4634 499 
C 4384 499 4243 602 4186 800 
C 4128 966 4058 1210 4000 1382 
C 3917 1619 3802 1760 3616 1818 
C 3546 1843 3430 1869 3373 1862 
C 3520 2029 4122 2579 4416 2829 
C 4531 2925 4666 3040 4832 3155 
z
" transform="scale(0.015625)"/>
      <path id="NotoSansCJKjp-Bold-5036" d="M 4416 397 
C 4826 96 5376 -333 5638 -608 
L 6291 -179 
C 5997 90 5427 506 5030 774 
L 4416 397 
z
M 3290 3667 
L 4941 3667 
L 4941 3302 
L 3290 3302 
L 3290 3667 
z
M 3290 2771 
L 4941 2771 
L 4941 2406 
L 3290 2406 
L 3290 2771 
z
M 3290 4563 
L 4941 4563 
L 4941 4205 
L 3290 4205 
L 3290 4563 
z
M 2560 5133 
L 2560 1830 
L 5709 1830 
L 5709 5133 
L 2560 5133 
z
M 1926 1504 
L 1926 813 
L 3155 813 
C 2861 486 2349 141 1856 -64 
C 2016 -205 2227 -442 2336 -602 
C 2854 -365 3424 19 3802 454 
L 3174 813 
L 6234 813 
L 6234 1504 
L 1926 1504 
z
M 1472 5414 
C 1158 4506 621 3610 51 3040 
C 186 2848 397 2426 467 2240 
C 621 2406 781 2592 928 2797 
L 928 -563 
L 1658 -563 
L 1658 3974 
C 1869 4371 2048 4781 2202 5184 
L 1472 5414 
z
" transform="scale(0.015625)"/>
      <path id="NotoSansCJKjp-Bold-697d" d="M 2656 3238 
L 3712 3238 
L 3712 2803 
L 2656 2803 
L 2656 3238 
z
M 2656 4218 
L 3712 4218 
L 3712 3789 
L 2656 3789 
L 2656 4218 
z
M 301 4602 
C 678 4314 1114 3898 1299 3603 
L 1862 4096 
C 1658 4390 1210 4781 832 5043 
L 301 4602 
z
M 192 2733 
L 576 2099 
C 986 2330 1478 2630 1926 2906 
L 1722 3526 
C 1152 3219 582 2912 192 2733 
z
M 5376 5120 
C 5152 4813 4762 4422 4454 4154 
L 4454 4800 
L 3475 4800 
L 3693 5344 
L 2835 5440 
C 2810 5254 2758 5018 2701 4800 
L 1946 4800 
L 1946 2221 
L 2803 2221 
L 2803 1798 
L 346 1798 
L 346 1133 
L 2176 1133 
C 1645 704 896 333 173 128 
C 339 -26 570 -320 691 -518 
C 1453 -243 2227 230 2803 794 
L 2803 -563 
L 3584 -563 
L 3584 781 
C 4179 243 4960 -211 5715 -467 
C 5830 -275 6061 26 6234 179 
C 5504 378 4736 723 4205 1133 
L 6061 1133 
L 6061 1798 
L 3584 1798 
L 3584 2221 
L 4454 2221 
L 4454 2982 
C 4915 2720 5466 2362 5741 2118 
L 6221 2694 
C 5888 2963 5210 3341 4736 3584 
L 4454 3258 
L 4454 4051 
L 4960 3718 
C 5286 3968 5696 4352 6035 4723 
L 5376 5120 
z
" transform="scale(0.015625)"/>
      <path id="NotoSansCJKjp-Bold-90e8" d="M 3725 5069 
L 3725 -576 
L 4474 -576 
L 4474 4352 
L 5254 4352 
C 5101 3859 4890 3200 4704 2746 
C 5222 2246 5357 1786 5357 1434 
C 5357 1216 5318 1069 5203 1005 
C 5139 960 5056 947 4973 941 
C 4870 934 4749 941 4608 954 
C 4723 736 4794 410 4800 198 
C 4979 198 5165 198 5306 218 
C 5478 237 5626 294 5747 378 
C 5990 550 6099 864 6099 1338 
C 6099 1760 5997 2266 5459 2842 
C 5709 3386 5997 4122 6221 4749 
L 5658 5101 
L 5542 5069 
L 3725 5069 
z
M 1530 5389 
L 1530 4819 
L 358 4819 
L 358 4154 
L 3450 4154 
L 3450 4819 
L 2278 4819 
L 2278 5389 
L 1530 5389 
z
M 2445 4134 
C 2387 3840 2272 3437 2176 3168 
L 2701 3034 
L 1005 3034 
L 1619 3174 
C 1587 3430 1485 3821 1357 4109 
L 723 3981 
C 838 3686 934 3290 947 3034 
L 218 3034 
L 218 2336 
L 3533 2336 
L 3533 3034 
L 2784 3034 
C 2899 3283 3027 3629 3162 3981 
L 2445 4134 
z
M 589 1914 
L 589 -576 
L 1299 -576 
L 1299 -262 
L 2496 -262 
L 2496 -557 
L 3245 -557 
L 3245 1914 
L 589 1914 
z
M 1299 403 
L 1299 1248 
L 2496 1248 
L 2496 403 
L 1299 403 
z
" transform="scale(0.015625)"/>
      <path id="NotoSansCJKjp-Bold-30b9" d="M 5338 4339 
L 4813 4730 
C 4685 4685 4429 4646 4154 4646 
C 3866 4646 2227 4646 1894 4646 
C 1702 4646 1312 4666 1139 4691 
L 1139 3782 
C 1274 3789 1626 3827 1894 3827 
C 2170 3827 3802 3827 4064 3827 
C 3923 3373 3533 2739 3110 2259 
C 2509 1587 1517 806 486 422 
L 1146 -269 
C 2022 147 2874 813 3552 1523 
C 4154 947 4749 294 5165 -282 
L 5894 352 
C 5517 813 4742 1632 4109 2182 
C 4538 2765 4896 3443 5114 3942 
C 5171 4070 5286 4269 5338 4339 
z
" transform="scale(0.015625)"/>
      <path id="NotoSansCJKjp-Bold-30ad" d="M 589 1875 
L 768 1018 
C 915 1056 1133 1101 1408 1152 
L 2938 1414 
L 3155 250 
C 3194 64 3213 -160 3238 -397 
L 4166 -230 
C 4109 -26 4045 205 4000 397 
L 3770 1549 
L 5158 1773 
C 5402 1811 5664 1856 5837 1869 
L 5664 2714 
C 5498 2662 5261 2611 5011 2560 
C 4723 2502 4198 2413 3622 2317 
L 3424 3341 
L 4704 3546 
C 4896 3571 5152 3610 5293 3622 
L 5139 4461 
C 4986 4416 4742 4365 4538 4326 
L 3277 4115 
L 3174 4704 
C 3142 4858 3123 5075 3104 5203 
L 2202 5056 
C 2246 4902 2291 4749 2330 4570 
L 2445 3987 
C 1894 3898 1402 3827 1178 3802 
C 979 3776 787 3763 582 3757 
L 755 2874 
C 973 2931 1139 2963 1344 3008 
L 2598 3213 
L 2790 2182 
L 1254 1946 
C 1050 1920 762 1882 589 1875 
z
" transform="scale(0.015625)"/>
      <path id="NotoSansCJKjp-Bold-30fc" d="M 589 2963 
L 589 1958 
C 826 1971 1254 1990 1619 1990 
C 2368 1990 4480 1990 5056 1990 
C 5325 1990 5651 1965 5805 1958 
L 5805 2963 
C 5638 2950 5357 2925 5056 2925 
C 4480 2925 2374 2925 1619 2925 
C 1286 2925 819 2944 589 2963 
z
" transform="scale(0.015625)"/>
      <path id="NotoSansCJKjp-Bold-5834" d="M 3405 3936 
L 5056 3936 
L 5056 3629 
L 3405 3629 
L 3405 3936 
z
M 3405 4742 
L 5056 4742 
L 5056 4442 
L 3405 4442 
L 3405 4742 
z
M 2720 5274 
L 2720 3098 
L 5766 3098 
L 5766 5274 
L 2720 5274 
z
M 141 1248 
L 429 474 
C 826 666 1286 890 1754 1126 
C 1907 1024 2144 794 2253 672 
C 2509 838 2758 1056 2989 1299 
L 3373 1299 
C 3027 826 2541 384 2067 141 
C 2246 26 2445 -160 2566 -314 
C 3123 45 3731 685 4070 1299 
L 4448 1299 
C 4173 710 3738 134 3251 -173 
C 3443 -275 3674 -454 3802 -602 
C 4320 -192 4826 582 5088 1299 
L 5331 1299 
C 5261 531 5184 198 5094 102 
C 5043 45 4992 32 4909 32 
C 4819 32 4653 32 4448 51 
C 4544 -109 4608 -371 4621 -550 
C 4883 -563 5120 -557 5267 -538 
C 5434 -512 5574 -467 5696 -320 
C 5869 -128 5971 390 6061 1638 
C 6074 1728 6080 1907 6080 1907 
L 3462 1907 
C 3526 2003 3584 2106 3642 2208 
L 6208 2208 
L 6208 2854 
L 2157 2854 
L 2157 2208 
L 2880 2208 
C 2726 1958 2522 1728 2298 1530 
L 2157 2080 
L 1651 1856 
L 1651 3366 
L 2240 3366 
L 2240 4090 
L 1651 4090 
L 1651 5357 
L 934 5357 
L 934 4090 
L 288 4090 
L 288 3366 
L 934 3366 
L 934 1555 
C 634 1434 358 1325 141 1248 
z
" transform="scale(0.015625)"/>
      <path id="DejaVuSans-Bold-2c" d="M 653 1209 
L 1778 1209 
L 1778 256 
L 1006 -909 
L 341 -909 
L 653 256 
L 653 1209 
z
" transform="scale(0.015625)"/>
      <path id="DejaVuSans-Bold-20" transform="scale(0.015625)"/>
      <path id="DejaVuSans-Bold-61" d="M 2106 1575 
Q 1756 1575 1579 1456 
Q 1403 1338 1403 1106 
Q 1403 894 1545 773 
Q 1688 653 1941 653 
Q 2256 653 2472 879 
Q 2688 1106 2688 1447 
L 2688 1575 
L 2106 1575 
z
M 3816 1997 
L 3816 0 
L 2688 0 
L 2688 519 
Q 2463 200 2181 54 
Q 1900 -91 1497 -91 
Q 953 -91 614 226 
Q 275 544 275 1050 
Q 275 1666 698 1953 
Q 1122 2241 2028 2241 
L 2688 2241 
L 2688 2328 
Q 2688 2594 2478 2717 
Q 2269 2841 1825 2841 
Q 1466 2841 1156 2769 
Q 847 2697 581 2553 
L 581 3406 
Q 941 3494 1303 3539 
Q 1666 3584 2028 3584 
Q 2975 3584 3395 3211 
Q 3816 2838 3816 1997 
z
" transform="scale(0.015625)"/>
      <path id="DejaVuSans-Bold-6b" d="M 538 4863 
L 1656 4863 
L 1656 2216 
L 2944 3500 
L 4244 3500 
L 2534 1894 
L 4378 0 
L 3022 0 
L 1656 1459 
L 1656 0 
L 538 0 
L 538 4863 
z
" transform="scale(0.015625)"/>
      <path id="DejaVuSans-Bold-65" d="M 4031 1759 
L 4031 1441 
L 1416 1441 
Q 1456 1047 1700 850 
Q 1944 653 2381 653 
Q 2734 653 3104 758 
Q 3475 863 3866 1075 
L 3866 213 
Q 3469 63 3072 -14 
Q 2675 -91 2278 -91 
Q 1328 -91 801 392 
Q 275 875 275 1747 
Q 275 2603 792 3093 
Q 1309 3584 2216 3584 
Q 3041 3584 3536 3087 
Q 4031 2591 4031 1759 
z
M 2881 2131 
Q 2881 2450 2695 2645 
Q 2509 2841 2209 2841 
Q 1884 2841 1681 2658 
Q 1478 2475 1428 2131 
L 2881 2131 
z
" transform="scale(0.015625)"/>
      <path id="DejaVuSans-Bold-43" d="M 4288 256 
Q 3956 84 3597 -3 
Q 3238 -91 2847 -91 
Q 1681 -91 1000 561 
Q 319 1213 319 2328 
Q 319 3447 1000 4098 
Q 1681 4750 2847 4750 
Q 3238 4750 3597 4662 
Q 3956 4575 4288 4403 
L 4288 3438 
Q 3953 3666 3628 3772 
Q 3303 3878 2944 3878 
Q 2300 3878 1931 3465 
Q 1563 3053 1563 2328 
Q 1563 1606 1931 1193 
Q 2300 781 2944 781 
Q 3303 781 3628 887 
Q 3953 994 4288 1222 
L 4288 256 
z
" transform="scale(0.015625)"/>
      <path id="DejaVuSans-Bold-6c" d="M 538 4863 
L 1656 4863 
L 1656 0 
L 538 0 
L 538 4863 
z
" transform="scale(0.015625)"/>
      <path id="DejaVuSans-Bold-75" d="M 500 1363 
L 500 3500 
L 1625 3500 
L 1625 3150 
Q 1625 2866 1622 2436 
Q 1619 2006 1619 1863 
Q 1619 1441 1641 1255 
Q 1663 1069 1716 984 
Q 1784 875 1895 815 
Q 2006 756 2150 756 
Q 2500 756 2700 1025 
Q 2900 1294 2900 1772 
L 2900 3500 
L 4019 3500 
L 4019 0 
L 2900 0 
L 2900 506 
Q 2647 200 2364 54 
Q 2081 -91 1741 -91 
Q 1134 -91 817 281 
Q 500 653 500 1363 
z
" transform="scale(0.015625)"/>
      <path id="DejaVuSans-Bold-62" d="M 2400 722 
Q 2759 722 2948 984 
Q 3138 1247 3138 1747 
Q 3138 2247 2948 2509 
Q 2759 2772 2400 2772 
Q 2041 2772 1848 2508 
Q 1656 2244 1656 1747 
Q 1656 1250 1848 986 
Q 2041 722 2400 722 
z
M 1656 2988 
Q 1888 3294 2169 3439 
Q 2450 3584 2816 3584 
Q 3463 3584 3878 3070 
Q 4294 2556 4294 1747 
Q 4294 938 3878 423 
Q 3463 -91 2816 -91 
Q 2450 -91 2169 54 
Q 1888 200 1656 506 
L 1656 0 
L 538 0 
L 538 4863 
L 1656 4863 
L 1656 2988 
z
" transform="scale(0.015625)"/>
      <path id="DejaVuSans-Bold-69" d="M 538 3500 
L 1656 3500 
L 1656 0 
L 538 0 
L 538 3500 
z
M 538 4863 
L 1656 4863 
L 1656 3950 
L 538 3950 
L 538 4863 
z
" transform="scale(0.015625)"/>
     </defs>
     <use xlink:href="#NotoSansCJKjp-Bold-3055"/>
     <use xlink:href="#NotoSansCJKjp-Bold-304b" x="99.999985"/>
     <use xlink:href="#NotoSansCJKjp-Bold-3048" x="199.999969"/>
     <use xlink:href="#NotoSansCJKjp-Bold-5036" x="299.999954"/>
     <use xlink:href="#NotoSansCJKjp-Bold-697d" x="399.999939"/>
     <use xlink:href="#NotoSansCJKjp-Bold-90e8" x="499.999924"/>
     <use xlink:href="#NotoSansCJKjp-Bold-30b9" x="599.999908"/>
     <use xlink:href="#NotoSansCJKjp-Bold-30ad" x="699.999893"/>
     <use xlink:href="#NotoSansCJKjp-Bold-30fc" x="799.999878"/>
     <use xlink:href="#NotoSansCJKjp-Bold-5834" x="899.999863"/>
     <use xlink:href="#DejaVuSans-Bold-2c" x="999.999847"/>
     <use xlink:href="#DejaVuSans-Bold-20" x="1037.988129"/>
     <use xlink:href="#DejaVuSans-Bold-53" x="1072.802582"/>
     <use xlink:href="#DejaVuSans-Bold-61" x="1144.824066"/>
     <use xlink:href="#DejaVuSans-Bold-6b" x="1212.304535"/>
     <use xlink:href="#DejaVuSans-Bold-61" x="1278.808441"/>
     <use xlink:href="#DejaVuSans-Bold-65" x="1346.28891"/>
     <use xlink:href="#DejaVuSans-Bold-20" x="1414.111176"/>
     <use xlink:href="#DejaVuSans-Bold-43" x="1448.925629"/>
     <use xlink:href="#DejaVuSans-Bold-6c" x="1522.314301"/>
     <use xlink:href="#DejaVuSans-Bold-75" x="1556.591644"/>
     <use xlink:href="#DejaVuSans-Bold-62" x="1627.783051"/>
     <use xlink:href="#DejaVuSans-Bold-20" x="1699.365082"/>
     <use xlink:href="#DejaVuSans-Bold-53" x="1734.179535"/>
     <use xlink:href="#DejaVuSans-Bold-6b" x="1806.201019"/>
     <use xlink:href="#DejaVuSans-Bold-69" x="1872.704926"/>
    </g>
    <!-- Area -->
    <g transform="translate(138.79625 37.6615) scale(0.16 -0.16)">
     <defs>
      <path id="DejaVuSans-Bold-41" d="M 3419 850 
L 1538 850 
L 1241 0 
L 31 0 
L 1759 4666 
L 3194 4666 
L 4922 0 
L 3713 0 
L 3419 850 
z
M 1838 1716 
L 3116 1716 
L 2478 3572 
L 1838 1716 
z
" transform="scale(0.015625)"/>
      <path id="DejaVuSans-Bold-72" d="M 3138 2547 
Q 2991 2616 2845 2648 
Q 2700 2681 2553 2681 
Q 2122 2681 1889 2404 
Q 1656 2128 1656 1613 
L 1656 0 
L 538 0 
L 538 3500 
L 1656 3500 
L 1656 2925 
Q 1872 3269 2151 3426 
Q 2431 3584 2822 3584 
Q 2878 3584 2943 3579 
Q 3009 3575 3134 3559 
L 3138 2547 
z
" transform="scale(0.015625)"/>
     </defs>
     <use xlink:href="#DejaVuSans-Bold-41"/>
     <use xlink:href="#DejaVuSans-Bold-72" x="77.392578"/>
     <use xlink:href="#DejaVuSans-Bold-65" x="126.708984"/>
     <use xlink:href="#DejaVuSans-Bold-61" x="194.53125"/>
    </g>
   </g>
  </g>
 </g>
 <defs>
  <clipPath id="p7597b7cc13">
   <path d="M 270.6375 172.6295 
C 270.6375 158.068872 267.769374 143.649827 262.197263 130.197561 
C 256.625151 116.745295 248.457419 104.521419 238.1615 94.2255 
C 227.865581 83.929581 215.641705 75.761849 202.189439 70.189737 
C 188.737173 64.617626 174.318128 61.7495 159.7575 61.7495 
C 145.196872 61.7495 130.777827 64.617626 117.325561 70.189737 
C 103.873295 75.761849 91.649419 83.929581 81.3535 94.2255 
C 71.057581 104.521419 62.889849 116.745295 57.317737 130.197561 
C 51.745626 143.649827 48.8775 158.068872 48.8775 172.6295 
C 48.8775 187.190128 51.745626 201.609173 57.317737 215.061439 
C 62.889849 228.513705 71.057581 240.737581 81.3535 251.0335 
C 91.649419 261.329419 103.873295 269.497151 117.325561 275.069263 
C 130.777827 280.641374 145.196872 283.5095 159.7575 283.5095 
C 174.318128 283.5095 188.737173 280.641374 202.189439 275.069263 
C 215.641705 269.497151 227.865581 261.329419 238.1615 251.0335 
C 248.457419 240.737581 256.625151 228.513705 262.197263 215.061439 
C 267.769374 201.609173 270.6375 187.190128 270.6375 172.6295 
M 159.7575 172.6295 
C 159.7575 172.6295 159.7575 172.6295 159.7575 172.6295 
C 159.7575 172.6295 159.7575 172.6295 159.7575 172.6295 
C 159.7575 172.6295 159.7575 172.6295 159.7575 172.6295 
C 159.7575 172.6295 159.7575 172.6295 159.7575 172.6295 
C 159.7575 172.6295 159.7575 172.6295 159.7575 172.6295 
C 159.7575 172.6295 159.7575 172.6295 159.7575 172.6295 
C 159.7575 172.6295 159.7575 172.6295 159.7575 172.6295 
C 159.7575 172.6295 159.7575 172.6295 159.7575 172.6295 
C 159.7575 172.6295 159.7575 172.6295 159.7575 172.6295 
C 159.7575 172.6295 159.7575 172.6295 159.7575 172.6295 
C 159.7575 172.6295 159.7575 172.6295 159.7575 172.6295 
C 159.7575 172.6295 159.7575 172.6295 159.7575 172.6295 
C 159.7575 172.6295 159.7575 172.6295 159.7575 172.6295 
C 159.7575 172.6295 159.7575 172.6295 159.7575 172.6295 
C 159.7575 172.6295 159.7575 172.6295 159.7575 172.6295 
C 159.7575 172.6295 159.7575 172.6295 159.7575 172.6295 
z
"/>
  </clipPath>
 </defs>
</svg>
