<?xml version="1.0" encoding="utf-8" standalone="no"?>
<!DOCTYPE svg PUBLIC "-//W3C//DTD SVG 1.1//EN"
  "http://www.w3.org/Graphics/SVG/1.1/DTD/svg11.dtd">
<svg xmlns:xlink="http://www.w3.org/1999/xlink" width="263.173164pt" height="285.744563pt" viewBox="0 0 263.173164 285.744563" xmlns="http://www.w3.org/2000/svg" version="1.1">
 <title>Ski Rose for Les Angles</title>
 <metadata>
  <rdf:RDF xmlns:dc="http://purl.org/dc/elements/1.1/" xmlns:cc="http://creativecommons.org/ns#" xmlns:rdf="http://www.w3.org/1999/02/22-rdf-syntax-ns#">
   <cc:Work>
    <dc:type rdf:resource="http://purl.org/dc/dcmitype/StillImage"/>
    <dc:title>Ski Rose for Les Angles</dc:title>
    <dc:date>2024-12-10T22:22:28.157055</dc:date>
    <dc:description>A 32-bin histogram of downhill ski trail orientations generated from &lt;https://openskimap.org/?obj=a2fed1f3149f7c9e4f9ccaac4b8e29f0bfccd632&gt;.</dc:description>
    <dc:format>image/svg+xml</dc:format>
    <dc:creator>
     <cc:Agent>
      <dc:title>https://github.com/dhimmel/openskistats</dc:title>
     </cc:Agent>
    </dc:creator>
   </cc:Work>
  </rdf:RDF>
 </metadata>
 <defs>
  <style type="text/css">*{stroke-linejoin: round; stroke-linecap: butt}</style>
 </defs>
 <g id="figure_1">
  <g id="patch_1">
   <path d="M 0 285.744563 
L 263.173164 285.744563 
L 263.173164 -0 
L 0 -0 
z
" style="fill: #ffffff"/>
  </g>
  <g id="axes_1">
   <g id="patch_2">
    <path d="M 242.974844 154.3255 
C 242.974844 139.764872 240.106717 125.345827 234.534606 111.893561 
C 228.962495 98.441295 220.794763 86.217419 210.498844 75.9215 
C 200.202925 65.625581 187.979049 57.457849 174.526783 51.885737 
C 161.074516 46.313626 146.655472 43.4455 132.094844 43.4455 
C 117.534216 43.4455 103.115171 46.313626 89.662905 51.885737 
C 76.210638 57.457849 63.986763 65.625581 53.690844 75.9215 
C 43.394925 86.217419 35.227192 98.441295 29.655081 111.893561 
C 24.08297 125.345827 21.214844 139.764872 21.214844 154.3255 
C 21.214844 168.886128 24.08297 183.305173 29.655081 196.757439 
C 35.227192 210.209705 43.394925 222.433581 53.690844 232.7295 
C 63.986763 243.025419 76.210638 251.193151 89.662905 256.765263 
C 103.115171 262.337374 117.534216 265.2055 132.094844 265.2055 
C 146.655472 265.2055 161.074516 262.337374 174.526783 256.765263 
C 187.979049 251.193151 200.202925 243.025419 210.498844 232.7295 
C 220.794763 222.433581 228.962495 210.209705 234.534606 196.757439 
C 240.106717 183.305173 242.974844 168.886128 242.974844 154.3255 
M 132.094844 154.3255 
C 132.094844 154.3255 132.094844 154.3255 132.094844 154.3255 
C 132.094844 154.3255 132.094844 154.3255 132.094844 154.3255 
C 132.094844 154.3255 132.094844 154.3255 132.094844 154.3255 
C 132.094844 154.3255 132.094844 154.3255 132.094844 154.3255 
C 132.094844 154.3255 132.094844 154.3255 132.094844 154.3255 
C 132.094844 154.3255 132.094844 154.3255 132.094844 154.3255 
C 132.094844 154.3255 132.094844 154.3255 132.094844 154.3255 
C 132.094844 154.3255 132.094844 154.3255 132.094844 154.3255 
C 132.094844 154.3255 132.094844 154.3255 132.094844 154.3255 
C 132.094844 154.3255 132.094844 154.3255 132.094844 154.3255 
C 132.094844 154.3255 132.094844 154.3255 132.094844 154.3255 
C 132.094844 154.3255 132.094844 154.3255 132.094844 154.3255 
C 132.094844 154.3255 132.094844 154.3255 132.094844 154.3255 
C 132.094844 154.3255 132.094844 154.3255 132.094844 154.3255 
C 132.094844 154.3255 132.094844 154.3255 132.094844 154.3255 
C 132.094844 154.3255 132.094844 154.3255 132.094844 154.3255 
z
" style="fill: #ffffff"/>
   </g>
   <g id="matplotlib.axis_1">
    <g id="xtick_1">
     <g id="line2d_1">
      <path d="M 132.094844 154.3255 
L 132.094844 43.4455 
" clip-path="url(#p38c57737a2)" style="fill: none; stroke: #b0b0b0; stroke-width: 0.8; stroke-linecap: square"/>
     </g>
     <g id="text_1">
      <!-- N -->
      <g transform="translate(127.910469 37.704875) scale(0.1 -0.1)">
       <defs>
        <path id="DejaVuSans-Bold-4e" d="M 588 4666 
L 1931 4666 
L 3628 1466 
L 3628 4666 
L 4769 4666 
L 4769 0 
L 3425 0 
L 1728 3200 
L 1728 0 
L 588 0 
L 588 4666 
z
" transform="scale(0.015625)"/>
       </defs>
       <use xlink:href="#DejaVuSans-Bold-4e"/>
      </g>
     </g>
    </g>
    <g id="xtick_2">
     <g id="line2d_2">
      <path d="M 132.094844 154.3255 
L 210.498844 75.9215 
" clip-path="url(#p38c57737a2)" style="fill: none; stroke: #b0b0b0; stroke-width: 0.8; stroke-linecap: square"/>
     </g>
    </g>
    <g id="xtick_3">
     <g id="line2d_3">
      <path d="M 132.094844 154.3255 
L 242.974844 154.3255 
" clip-path="url(#p38c57737a2)" style="fill: none; stroke: #b0b0b0; stroke-width: 0.8; stroke-linecap: square"/>
     </g>
     <g id="text_2">
      <!-- E -->
      <g transform="translate(248.059219 157.084875) scale(0.1 -0.1)">
       <defs>
        <path id="DejaVuSans-Bold-45" d="M 588 4666 
L 3834 4666 
L 3834 3756 
L 1791 3756 
L 1791 2888 
L 3713 2888 
L 3713 1978 
L 1791 1978 
L 1791 909 
L 3903 909 
L 3903 0 
L 588 0 
L 588 4666 
z
" transform="scale(0.015625)"/>
       </defs>
       <use xlink:href="#DejaVuSans-Bold-45"/>
      </g>
     </g>
    </g>
    <g id="xtick_4">
     <g id="line2d_4">
      <path d="M 132.094844 154.3255 
L 210.498844 232.7295 
" clip-path="url(#p38c57737a2)" style="fill: none; stroke: #b0b0b0; stroke-width: 0.8; stroke-linecap: square"/>
     </g>
    </g>
    <g id="xtick_5">
     <g id="line2d_5">
      <path d="M 132.094844 154.3255 
L 132.094844 265.2055 
" clip-path="url(#p38c57737a2)" style="fill: none; stroke: #b0b0b0; stroke-width: 0.8; stroke-linecap: square"/>
     </g>
     <g id="text_3">
      <!-- S -->
      <g transform="translate(128.494062 276.464875) scale(0.1 -0.1)">
       <defs>
        <path id="DejaVuSans-Bold-53" d="M 3834 4519 
L 3834 3531 
Q 3450 3703 3084 3790 
Q 2719 3878 2394 3878 
Q 1963 3878 1756 3759 
Q 1550 3641 1550 3391 
Q 1550 3203 1689 3098 
Q 1828 2994 2194 2919 
L 2706 2816 
Q 3484 2659 3812 2340 
Q 4141 2022 4141 1434 
Q 4141 663 3683 286 
Q 3225 -91 2284 -91 
Q 1841 -91 1394 -6 
Q 947 78 500 244 
L 500 1259 
Q 947 1022 1364 901 
Q 1781 781 2169 781 
Q 2563 781 2772 912 
Q 2981 1044 2981 1288 
Q 2981 1506 2839 1625 
Q 2697 1744 2272 1838 
L 1806 1941 
Q 1106 2091 782 2419 
Q 459 2747 459 3303 
Q 459 4000 909 4375 
Q 1359 4750 2203 4750 
Q 2588 4750 2994 4692 
Q 3400 4634 3834 4519 
z
" transform="scale(0.015625)"/>
       </defs>
       <use xlink:href="#DejaVuSans-Bold-53"/>
      </g>
     </g>
    </g>
    <g id="xtick_6">
     <g id="line2d_6">
      <path d="M 132.094844 154.3255 
L 53.690844 232.7295 
" clip-path="url(#p38c57737a2)" style="fill: none; stroke: #b0b0b0; stroke-width: 0.8; stroke-linecap: square"/>
     </g>
    </g>
    <g id="xtick_7">
     <g id="line2d_7">
      <path d="M 132.094844 154.3255 
L 21.214844 154.3255 
" clip-path="url(#p38c57737a2)" style="fill: none; stroke: #b0b0b0; stroke-width: 0.8; stroke-linecap: square"/>
     </g>
     <g id="text_4">
      <!-- W -->
      <g transform="translate(7.2 157.084875) scale(0.1 -0.1)">
       <defs>
        <path id="DejaVuSans-Bold-57" d="M 191 4666 
L 1344 4666 
L 2150 1275 
L 2950 4666 
L 4109 4666 
L 4909 1275 
L 5716 4666 
L 6859 4666 
L 5759 0 
L 4372 0 
L 3525 3547 
L 2688 0 
L 1300 0 
L 191 4666 
z
" transform="scale(0.015625)"/>
       </defs>
       <use xlink:href="#DejaVuSans-Bold-57"/>
      </g>
     </g>
    </g>
    <g id="xtick_8">
     <g id="line2d_8">
      <path d="M 132.094844 154.3255 
L 53.690844 75.9215 
" clip-path="url(#p38c57737a2)" style="fill: none; stroke: #b0b0b0; stroke-width: 0.8; stroke-linecap: square"/>
     </g>
    </g>
   </g>
   <g id="matplotlib.axis_2"/>
   <g id="patch_3">
    <path d="M 132.094844 154.3255 
C 132.094844 154.3255 132.094844 154.3255 132.094844 154.3255 
C 132.094844 154.3255 132.094844 154.3255 132.094844 154.3255 
L 135.719181 117.526985 
C 134.514711 117.408355 133.305142 117.348933 132.094844 117.348933 
C 130.884545 117.348933 129.674977 117.408355 128.470506 117.526985 
z
" clip-path="url(#p38c57737a2)" style="fill: #d4a0a7; stroke: #000000; stroke-width: 0.5; stroke-linejoin: miter"/>
   </g>
   <g id="patch_4">
    <path d="M 132.094844 154.3255 
C 132.094844 154.3255 132.094844 154.3255 132.094844 154.3255 
C 132.094844 154.3255 132.094844 154.3255 132.094844 154.3255 
L 149.616165 96.565444 
C 147.725592 95.991945 145.808002 95.511614 143.87032 95.126185 
C 141.932638 94.740756 139.9772 94.450694 138.01107 94.257047 
z
" clip-path="url(#p38c57737a2)" style="fill: #d4a0a7; stroke: #000000; stroke-width: 0.5; stroke-linejoin: miter"/>
   </g>
   <g id="patch_5">
    <path d="M 132.094844 154.3255 
C 132.094844 154.3255 132.094844 154.3255 132.094844 154.3255 
C 132.094844 154.3255 132.094844 154.3255 132.094844 154.3255 
L 165.817906 91.234087 
C 163.75283 90.130281 161.634805 89.12853 159.471481 88.232452 
C 157.308157 87.336373 155.102141 86.547048 152.861403 85.867328 
z
" clip-path="url(#p38c57737a2)" style="fill: #d4a0a7; stroke: #000000; stroke-width: 0.5; stroke-linejoin: miter"/>
   </g>
   <g id="patch_6">
    <path d="M 132.094844 154.3255 
C 132.094844 154.3255 132.094844 154.3255 132.094844 154.3255 
C 132.094844 154.3255 132.094844 154.3255 132.094844 154.3255 
L 176.130313 100.668125 
C 174.374027 99.226779 172.548034 97.87253 170.658928 96.610269 
C 168.769822 95.348009 166.819882 94.17926 164.816149 93.108243 
z
" clip-path="url(#p38c57737a2)" style="fill: #d4a0a7; stroke: #000000; stroke-width: 0.5; stroke-linejoin: miter"/>
   </g>
   <g id="patch_7">
    <path d="M 132.094844 154.3255 
C 132.094844 154.3255 132.094844 154.3255 132.094844 154.3255 
C 132.094844 154.3255 132.094844 154.3255 132.094844 154.3255 
L 194.828524 102.841299 
C 193.143369 100.787932 191.358415 98.818539 189.48011 96.940234 
C 187.601805 95.061928 185.632412 93.276975 183.579045 91.59182 
z
" clip-path="url(#p38c57737a2)" style="fill: #d4a0a7; stroke: #000000; stroke-width: 0.5; stroke-linejoin: miter"/>
   </g>
   <g id="patch_8">
    <path d="M 132.094844 154.3255 
C 132.094844 154.3255 132.094844 154.3255 132.094844 154.3255 
C 132.094844 154.3255 132.094844 154.3255 132.094844 154.3255 
L 229.882274 102.05703 
C 228.171448 98.856301 226.304508 95.741499 224.288194 92.723873 
C 222.271881 89.706247 220.108626 86.789435 217.806243 83.983973 
z
" clip-path="url(#p38c57737a2)" style="fill: #d4a0a7; stroke: #000000; stroke-width: 0.5; stroke-linejoin: miter"/>
   </g>
   <g id="patch_9">
    <path d="M 132.094844 154.3255 
C 132.094844 154.3255 132.094844 154.3255 132.094844 154.3255 
C 132.094844 154.3255 132.094844 154.3255 132.094844 154.3255 
L 236.624626 122.616737 
C 235.586751 119.195321 234.381519 115.826924 233.013284 112.523713 
C 231.64505 109.220502 230.115461 105.986458 228.430043 102.833263 
z
" clip-path="url(#p38c57737a2)" style="fill: #d4a0a7; stroke: #000000; stroke-width: 0.5; stroke-linejoin: miter"/>
   </g>
   <g id="patch_10">
    <path d="M 132.094844 154.3255 
C 132.094844 154.3255 132.094844 154.3255 132.094844 154.3255 
C 132.094844 154.3255 132.094844 154.3255 132.094844 154.3255 
L 233.175812 144.369894 
C 232.84995 141.061363 232.361845 137.770825 231.713259 134.510165 
C 231.064674 131.249506 230.25639 128.022655 229.291327 124.841269 
z
" clip-path="url(#p38c57737a2)" style="fill: #d4a0a7; stroke: #000000; stroke-width: 0.5; stroke-linejoin: miter"/>
   </g>
   <g id="patch_11">
    <path d="M 132.094844 154.3255 
C 132.094844 154.3255 132.094844 154.3255 132.094844 154.3255 
C 132.094844 154.3255 132.094844 154.3255 132.094844 154.3255 
L 225.605248 163.535471 
C 225.906704 160.474736 226.057705 157.401045 226.057705 154.3255 
C 226.057705 151.249955 225.906704 148.176264 225.605248 145.115529 
z
" clip-path="url(#p38c57737a2)" style="fill: #d4a0a7; stroke: #000000; stroke-width: 0.5; stroke-linejoin: miter"/>
   </g>
   <g id="patch_12">
    <path d="M 132.094844 154.3255 
C 132.094844 154.3255 132.094844 154.3255 132.094844 154.3255 
C 132.094844 154.3255 132.094844 154.3255 132.094844 154.3255 
L 224.913406 182.481703 
C 225.835001 179.443613 226.606878 176.362106 227.22625 173.248313 
C 227.845622 170.13452 228.311742 166.992195 228.622926 163.832686 
z
" clip-path="url(#p38c57737a2)" style="fill: #d4a0a7; stroke: #000000; stroke-width: 0.5; stroke-linejoin: miter"/>
   </g>
   <g id="patch_13">
    <path d="M 132.094844 154.3255 
C 132.094844 154.3255 132.094844 154.3255 132.094844 154.3255 
C 132.094844 154.3255 132.094844 154.3255 132.094844 154.3255 
L 203.869973 192.690106 
C 205.125704 190.340799 206.265334 187.931255 207.284745 185.470177 
C 208.304157 183.009099 209.202122 180.499455 209.975398 177.950308 
z
" clip-path="url(#p38c57737a2)" style="fill: #d4a0a7; stroke: #000000; stroke-width: 0.5; stroke-linejoin: miter"/>
   </g>
   <g id="patch_14">
    <path d="M 132.094844 154.3255 
C 132.094844 154.3255 132.094844 154.3255 132.094844 154.3255 
C 132.094844 154.3255 132.094844 154.3255 132.094844 154.3255 
L 182.407319 195.615881 
C 183.758814 193.969079 185.028642 192.256914 186.212215 190.485572 
C 187.395788 188.714229 188.49168 186.885844 189.495932 185.007021 
z
" clip-path="url(#p38c57737a2)" style="fill: #d4a0a7; stroke: #000000; stroke-width: 0.5; stroke-linejoin: miter"/>
   </g>
   <g id="patch_15">
    <path d="M 132.094844 154.3255 
C 132.094844 154.3255 132.094844 154.3255 132.094844 154.3255 
C 132.094844 154.3255 132.094844 154.3255 132.094844 154.3255 
L 171.260122 202.04853 
C 172.822168 200.766592 174.320333 199.408734 175.749206 197.979862 
C 177.178078 196.55099 178.535936 195.052825 179.817874 193.490779 
z
" clip-path="url(#p38c57737a2)" style="fill: #d4a0a7; stroke: #000000; stroke-width: 0.5; stroke-linejoin: miter"/>
   </g>
   <g id="patch_16">
    <path d="M 132.094844 154.3255 
C 132.094844 154.3255 132.094844 154.3255 132.094844 154.3255 
C 132.094844 154.3255 132.094844 154.3255 132.094844 154.3255 
L 158.324926 203.398532 
C 159.93116 202.539983 161.494273 201.603089 163.008619 200.591235 
C 164.522966 199.579381 165.98672 198.493786 167.394596 197.338373 
z
" clip-path="url(#p38c57737a2)" style="fill: #d4a0a7; stroke: #000000; stroke-width: 0.5; stroke-linejoin: miter"/>
   </g>
   <g id="patch_17">
    <path d="M 132.094844 154.3255 
C 132.094844 154.3255 132.094844 154.3255 132.094844 154.3255 
C 132.094844 154.3255 132.094844 154.3255 132.094844 154.3255 
L 146.455873 201.667469 
C 148.005446 201.197411 149.531007 200.651556 151.027045 200.031877 
C 152.523083 199.412198 153.987795 198.719441 155.41589 197.956108 
z
" clip-path="url(#p38c57737a2)" style="fill: #d4a0a7; stroke: #000000; stroke-width: 0.5; stroke-linejoin: miter"/>
   </g>
   <g id="patch_18">
    <path d="M 132.094844 154.3255 
C 132.094844 154.3255 132.094844 154.3255 132.094844 154.3255 
C 132.094844 154.3255 132.094844 154.3255 132.094844 154.3255 
L 134.529176 179.04169 
C 135.338174 178.96201 136.142772 178.842659 136.940064 178.684068 
C 137.737357 178.525477 138.526382 178.327836 139.30429 178.09186 
z
" clip-path="url(#p38c57737a2)" style="fill: #d4a0a7; stroke: #000000; stroke-width: 0.5; stroke-linejoin: miter"/>
   </g>
   <g id="patch_19">
    <path d="M 132.094844 154.3255 
C 132.094844 154.3255 132.094844 154.3255 132.094844 154.3255 
C 132.094844 154.3255 132.094844 154.3255 132.094844 154.3255 
L 130.222554 173.335177 
C 130.844769 173.39646 131.469618 173.427157 132.094844 173.427157 
C 132.720069 173.427157 133.344918 173.39646 133.967134 173.335177 
z
" clip-path="url(#p38c57737a2)" style="fill: #d4a0a7; stroke: #000000; stroke-width: 0.5; stroke-linejoin: miter"/>
   </g>
   <g id="patch_20">
    <path d="M 132.094844 154.3255 
C 132.094844 154.3255 132.094844 154.3255 132.094844 154.3255 
C 132.094844 154.3255 132.094844 154.3255 132.094844 154.3255 
L 127.857391 168.294509 
C 128.314618 168.433207 128.778378 168.549373 129.246998 168.642588 
C 129.715618 168.735802 130.188531 168.805952 130.664031 168.852785 
z
" clip-path="url(#p38c57737a2)" style="fill: #d4a0a7; stroke: #000000; stroke-width: 0.5; stroke-linejoin: miter"/>
   </g>
   <g id="patch_21">
    <path d="M 132.094844 154.3255 
C 132.094844 154.3255 132.094844 154.3255 132.094844 154.3255 
C 132.094844 154.3255 132.094844 154.3255 132.094844 154.3255 
L 124.491701 168.54998 
C 124.957289 168.798843 125.434815 169.024696 125.922555 169.226724 
C 126.410294 169.428752 126.907658 169.606712 127.412851 169.759961 
z
" clip-path="url(#p38c57737a2)" style="fill: #d4a0a7; stroke: #000000; stroke-width: 0.5; stroke-linejoin: miter"/>
   </g>
   <g id="patch_22">
    <path d="M 132.094844 154.3255 
C 132.094844 154.3255 132.094844 154.3255 132.094844 154.3255 
C 132.094844 154.3255 132.094844 154.3255 132.094844 154.3255 
L 120.597794 168.334696 
C 121.056336 168.711012 121.533077 169.064587 122.026296 169.394146 
C 122.519516 169.723704 123.028618 170.028849 123.551765 170.308476 
z
" clip-path="url(#p38c57737a2)" style="fill: #d4a0a7; stroke: #000000; stroke-width: 0.5; stroke-linejoin: miter"/>
   </g>
   <g id="patch_23">
    <path d="M 132.094844 154.3255 
C 132.094844 154.3255 132.094844 154.3255 132.094844 154.3255 
C 132.094844 154.3255 132.094844 154.3255 132.094844 154.3255 
L 114.924282 168.417016 
C 115.385518 168.979034 115.87407 169.518068 116.388173 170.032171 
C 116.902276 170.546274 117.44131 171.034826 118.003328 171.496062 
z
" clip-path="url(#p38c57737a2)" style="fill: #d4a0a7; stroke: #000000; stroke-width: 0.5; stroke-linejoin: miter"/>
   </g>
   <g id="patch_24">
    <path d="M 132.094844 154.3255 
C 132.094844 154.3255 132.094844 154.3255 132.094844 154.3255 
C 132.094844 154.3255 132.094844 154.3255 132.094844 154.3255 
L 120.930478 160.292978 
C 121.125803 160.658404 121.338951 161.01402 121.569153 161.358542 
C 121.799355 161.703064 122.046333 162.036075 122.309195 162.356374 
z
" clip-path="url(#p38c57737a2)" style="fill: #d4a0a7; stroke: #000000; stroke-width: 0.5; stroke-linejoin: miter"/>
   </g>
   <g id="patch_25">
    <path d="M 132.094844 154.3255 
C 132.094844 154.3255 132.094844 154.3255 132.094844 154.3255 
C 132.094844 154.3255 132.094844 154.3255 132.094844 154.3255 
L 117.060402 158.886148 
C 117.209679 159.378248 117.383026 159.862722 117.579818 160.33782 
C 117.776611 160.812919 117.99661 161.278069 118.239023 161.731591 
z
" clip-path="url(#p38c57737a2)" style="fill: #d4a0a7; stroke: #000000; stroke-width: 0.5; stroke-linejoin: miter"/>
   </g>
   <g id="patch_26">
    <path d="M 132.094844 154.3255 
C 132.094844 154.3255 132.094844 154.3255 132.094844 154.3255 
C 132.094844 154.3255 132.094844 154.3255 132.094844 154.3255 
L 128.464168 154.68309 
C 128.475873 154.801928 128.493405 154.920119 128.516701 155.037237 
C 128.539997 155.154355 128.56903 155.270258 128.603693 155.384529 
z
" clip-path="url(#p38c57737a2)" style="fill: #d4a0a7; stroke: #000000; stroke-width: 0.5; stroke-linejoin: miter"/>
   </g>
   <g id="patch_27">
    <path d="M 132.094844 154.3255 
C 132.094844 154.3255 132.094844 154.3255 132.094844 154.3255 
C 132.094844 154.3255 132.094844 154.3255 132.094844 154.3255 
L 132.094844 154.3255 
C 132.094844 154.3255 132.094844 154.3255 132.094844 154.3255 
C 132.094844 154.3255 132.094844 154.3255 132.094844 154.3255 
z
" clip-path="url(#p38c57737a2)" style="fill: #d4a0a7; stroke: #000000; stroke-width: 0.5; stroke-linejoin: miter"/>
   </g>
   <g id="patch_28">
    <path d="M 132.094844 154.3255 
C 132.094844 154.3255 132.094844 154.3255 132.094844 154.3255 
C 132.094844 154.3255 132.094844 154.3255 132.094844 154.3255 
L 132.094844 154.3255 
C 132.094844 154.3255 132.094844 154.3255 132.094844 154.3255 
C 132.094844 154.3255 132.094844 154.3255 132.094844 154.3255 
z
" clip-path="url(#p38c57737a2)" style="fill: #d4a0a7; stroke: #000000; stroke-width: 0.5; stroke-linejoin: miter"/>
   </g>
   <g id="patch_29">
    <path d="M 132.094844 154.3255 
C 132.094844 154.3255 132.094844 154.3255 132.094844 154.3255 
C 132.094844 154.3255 132.094844 154.3255 132.094844 154.3255 
L 132.094844 154.3255 
C 132.094844 154.3255 132.094844 154.3255 132.094844 154.3255 
C 132.094844 154.3255 132.094844 154.3255 132.094844 154.3255 
z
" clip-path="url(#p38c57737a2)" style="fill: #d4a0a7; stroke: #000000; stroke-width: 0.5; stroke-linejoin: miter"/>
   </g>
   <g id="patch_30">
    <path d="M 132.094844 154.3255 
C 132.094844 154.3255 132.094844 154.3255 132.094844 154.3255 
C 132.094844 154.3255 132.094844 154.3255 132.094844 154.3255 
L 132.094844 154.3255 
C 132.094844 154.3255 132.094844 154.3255 132.094844 154.3255 
C 132.094844 154.3255 132.094844 154.3255 132.094844 154.3255 
z
" clip-path="url(#p38c57737a2)" style="fill: #d4a0a7; stroke: #000000; stroke-width: 0.5; stroke-linejoin: miter"/>
   </g>
   <g id="patch_31">
    <path d="M 132.094844 154.3255 
C 132.094844 154.3255 132.094844 154.3255 132.094844 154.3255 
C 132.094844 154.3255 132.094844 154.3255 132.094844 154.3255 
L 132.094844 154.3255 
C 132.094844 154.3255 132.094844 154.3255 132.094844 154.3255 
C 132.094844 154.3255 132.094844 154.3255 132.094844 154.3255 
z
" clip-path="url(#p38c57737a2)" style="fill: #d4a0a7; stroke: #000000; stroke-width: 0.5; stroke-linejoin: miter"/>
   </g>
   <g id="patch_32">
    <path d="M 132.094844 154.3255 
C 132.094844 154.3255 132.094844 154.3255 132.094844 154.3255 
C 132.094844 154.3255 132.094844 154.3255 132.094844 154.3255 
L 129.307828 149.111361 
C 129.137162 149.202584 128.971077 149.302132 128.810174 149.409644 
C 128.64927 149.517156 128.493743 149.632503 128.344152 149.755269 
z
" clip-path="url(#p38c57737a2)" style="fill: #d4a0a7; stroke: #000000; stroke-width: 0.5; stroke-linejoin: miter"/>
   </g>
   <g id="patch_33">
    <path d="M 132.094844 154.3255 
C 132.094844 154.3255 132.094844 154.3255 132.094844 154.3255 
C 132.094844 154.3255 132.094844 154.3255 132.094844 154.3255 
L 129.335697 145.229811 
C 129.037981 145.320122 128.744879 145.424995 128.457449 145.544053 
C 128.170019 145.66311 127.888608 145.796208 127.614232 145.942865 
z
" clip-path="url(#p38c57737a2)" style="fill: #d4a0a7; stroke: #000000; stroke-width: 0.5; stroke-linejoin: miter"/>
   </g>
   <g id="patch_34">
    <path d="M 132.094844 154.3255 
C 132.094844 154.3255 132.094844 154.3255 132.094844 154.3255 
C 132.094844 154.3255 132.094844 154.3255 132.094844 154.3255 
L 129.361339 126.571761 
C 128.452918 126.661233 127.549437 126.795252 126.65416 126.973333 
C 125.758882 127.151415 124.872888 127.373345 123.999377 127.638322 
z
" clip-path="url(#p38c57737a2)" style="fill: #d4a0a7; stroke: #000000; stroke-width: 0.5; stroke-linejoin: miter"/>
   </g>
   <g id="PathCollection_1">
    <defs>
     <path id="m2b2939257b" d="M 0.193618 7.414054 
L 0.193618 7.414054 
C 0.054922 7.414054 -0.078235 7.358899 -0.176308 7.260826 
C -0.274381 7.162753 -0.329536 7.029596 -0.329536 6.890901 
L -0.329536 5.365008 
L -1.528416 6.56393 
L -1.528416 6.56393 
C -1.577018 6.612704 -1.634775 6.651408 -1.698366 6.677814 
C -1.761958 6.704221 -1.830141 6.717815 -1.898997 6.717815 
C -1.967853 6.717815 -2.036037 6.704221 -2.099628 6.677814 
C -2.163219 6.651408 -2.220976 6.612704 -2.269578 6.56393 
L -2.269578 6.56393 
C -2.318353 6.515327 -2.357056 6.457571 -2.383463 6.393979 
C -2.409869 6.330388 -2.423463 6.262205 -2.423463 6.193348 
C -2.423463 6.124492 -2.409869 6.056309 -2.383463 5.992718 
C -2.357056 5.929126 -2.318353 5.87137 -2.269578 5.822767 
L -0.329536 3.884106 
L -0.329536 0.820937 
L -2.98067 2.351538 
L -3.691824 5.001416 
L -3.691824 5.001416 
C -3.727584 5.135411 -3.815199 5.249836 -3.93523 5.319305 
C -4.055261 5.388775 -4.198123 5.407741 -4.332122 5.371997 
L -4.332122 5.371997 
C -4.466126 5.336237 -4.580558 5.248616 -4.650029 5.128576 
C -4.719499 5.008535 -4.73846 4.865662 -4.702703 4.731657 
L -4.262647 3.092721 
L -5.585535 3.855668 
L -5.585535 3.855668 
C -5.645013 3.890144 -5.710708 3.912561 -5.778854 3.921634 
C -5.847001 3.930706 -5.916272 3.926258 -5.982698 3.908543 
C -6.049125 3.890828 -6.111412 3.860192 -6.165991 3.818391 
C -6.220571 3.77659 -6.266379 3.724437 -6.300791 3.664922 
L -6.300791 3.664922 
C -6.335212 3.605364 -6.35755 3.539597 -6.366524 3.471396 
C -6.375498 3.403194 -6.370933 3.333888 -6.35309 3.267452 
C -6.335248 3.201017 -6.304476 3.138749 -6.26254 3.08422 
C -6.220605 3.029692 -6.168323 2.983966 -6.108695 2.949666 
L -4.785807 2.186762 
L -6.424743 1.746706 
L -6.424743 1.746706 
C -6.558747 1.710946 -6.673179 1.623325 -6.74265 1.503284 
C -6.81212 1.383244 -6.831081 1.240371 -6.795324 1.106366 
L -6.795324 1.106366 
C -6.777471 1.039969 -6.746703 0.977739 -6.704784 0.923241 
C -6.662864 0.868744 -6.61061 0.823041 -6.551015 0.788752 
C -6.491421 0.754464 -6.425647 0.732257 -6.357465 0.723406 
C -6.289282 0.714554 -6.220019 0.71923 -6.153645 0.737166 
L -3.505232 1.44698 
L -0.852424 -0.08496 
L -3.503767 -1.615666 
L -6.153645 -0.905851 
L -6.153645 -0.905851 
C -6.22011 -0.887939 -6.289462 -0.883321 -6.357716 -0.892262 
C -6.42597 -0.901202 -6.491793 -0.923527 -6.551403 -0.957953 
C -6.611013 -0.992379 -6.663247 -1.038234 -6.705103 -1.092883 
C -6.746958 -1.147533 -6.777619 -1.209911 -6.795324 -1.276432 
L -6.795324 -1.276432 
C -6.831068 -1.410431 -6.812101 -1.553293 -6.742632 -1.673324 
C -6.673162 -1.793355 -6.558738 -1.88097 -6.424743 -1.91673 
L -4.785807 -2.355447 
L -6.108695 -3.119732 
L -6.108695 -3.119732 
C -6.228699 -3.188976 -6.316415 -3.303132 -6.352417 -3.436921 
C -6.388419 -3.57071 -6.369839 -3.713469 -6.300791 -3.833586 
L -6.300791 -3.833586 
C -6.266491 -3.893214 -6.220765 -3.945496 -6.166237 -3.987431 
C -6.111708 -4.029367 -6.04944 -4.060139 -5.983005 -4.077981 
C -5.91657 -4.095823 -5.847263 -4.100389 -5.779062 -4.091415 
C -5.71086 -4.082441 -5.645094 -4.060102 -5.585535 -4.025682 
L -4.262647 -3.261396 
L -4.702703 -4.900332 
L -4.702703 -4.900332 
C -4.73846 -5.034337 -4.719499 -5.17721 -4.650029 -5.29725 
C -4.580558 -5.417291 -4.466126 -5.504912 -4.332122 -5.540672 
L -4.332122 -5.540672 
C -4.19831 -5.576464 -4.055613 -5.557686 -3.935617 -5.488496 
C -3.81562 -5.419305 -3.727882 -5.305212 -3.691824 -5.171472 
L -2.982009 -2.521594 
L -0.329411 -0.990302 
L -0.329411 -4.051588 
L -2.269453 -5.991589 
L -2.269453 -5.991589 
C -2.318227 -6.040191 -2.356931 -6.097947 -2.383337 -6.161539 
C -2.409744 -6.22513 -2.423338 -6.293314 -2.423338 -6.36217 
C -2.423338 -6.431026 -2.409744 -6.499209 -2.383337 -6.5628 
C -2.356931 -6.626392 -2.318227 -6.684149 -2.269453 -6.732751 
L -2.269453 -6.732751 
C -2.22085 -6.781526 -2.163094 -6.820229 -2.099502 -6.846635 
C -2.035911 -6.873042 -1.967728 -6.886636 -1.898871 -6.886636 
C -1.830015 -6.886636 -1.761832 -6.873042 -1.698241 -6.846635 
C -1.634649 -6.820229 -1.576893 -6.781526 -1.52829 -6.732751 
L -0.329411 -5.533829 
L -0.329411 -7.059722 
L -0.329411 -7.059722 
C -0.329411 -7.198418 -0.274255 -7.331575 -0.176182 -7.429647 
C -0.07811 -7.52772 0.055047 -7.582875 0.193743 -7.582875 
L 0.193743 -7.582875 
C 0.332439 -7.582875 0.465596 -7.52772 0.563669 -7.429647 
C 0.661741 -7.331575 0.716897 -7.198418 0.716897 -7.059722 
L 0.716897 -5.533829 
L 1.915777 -6.732751 
L 1.915777 -6.732751 
C 1.964379 -6.781526 2.022136 -6.820229 2.085727 -6.846635 
C 2.149318 -6.873042 2.217502 -6.886636 2.286358 -6.886636 
C 2.355214 -6.886636 2.423397 -6.873042 2.486989 -6.846635 
C 2.55058 -6.820229 2.608337 -6.781526 2.656939 -6.732751 
L 2.656939 -6.732751 
C 2.705714 -6.684149 2.744417 -6.626392 2.770823 -6.5628 
C 2.79723 -6.499209 2.810824 -6.431026 2.810824 -6.36217 
C 2.810824 -6.293314 2.79723 -6.22513 2.770823 -6.161539 
C 2.744417 -6.097947 2.705714 -6.040191 2.656939 -5.991589 
L 0.716897 -4.051588 
L 0.716897 -0.991139 
L 3.369495 -2.522954 
L 4.07931 -5.171367 
L 4.07931 -5.171367 
C 4.115368 -5.305107 4.203106 -5.4192 4.323103 -5.488391 
C 4.4431 -5.557582 4.585797 -5.576359 4.719608 -5.540567 
L 4.719608 -5.540567 
C 4.853612 -5.504807 4.968045 -5.417186 5.037515 -5.297146 
C 5.106986 -5.177105 5.125946 -5.034232 5.090189 -4.900227 
L 4.650133 -3.262673 
L 5.973022 -4.025577 
L 5.973022 -4.025577 
C 6.03258 -4.059998 6.098346 -4.082336 6.166548 -4.09131 
C 6.234749 -4.100284 6.304056 -4.095719 6.370491 -4.077876 
C 6.436926 -4.060034 6.499194 -4.029262 6.553723 -3.987327 
C 6.608252 -3.945391 6.653978 -3.893109 6.688277 -3.833481 
L 6.688277 -3.833481 
C 6.757325 -3.713365 6.775905 -3.570605 6.739903 -3.436816 
C 6.703901 -3.303027 6.616186 -3.188871 6.496181 -3.119628 
L 5.173293 -2.355342 
L 6.812229 -1.916625 
L 6.812229 -1.916625 
C 6.946224 -1.880865 7.060649 -1.79325 7.130118 -1.67322 
C 7.199588 -1.553189 7.218554 -1.410326 7.18281 -1.276327 
L 7.18281 -1.276327 
C 7.165106 -1.209806 7.134445 -1.147429 7.092589 -1.092779 
C 7.050733 -1.038129 6.998499 -0.992274 6.938889 -0.957848 
C 6.879279 -0.923422 6.813456 -0.901098 6.745202 -0.892157 
C 6.676949 -0.883217 6.607597 -0.887835 6.541131 -0.905746 
L 3.891253 -1.615561 
L 1.239492 -0.084604 
L 3.892718 1.447085 
L 6.541131 0.73727 
L 6.541131 0.73727 
C 6.674948 0.701466 6.817656 0.720237 6.937662 0.789429 
C 7.057669 0.858621 7.145413 0.972721 7.181471 1.10647 
L 7.181471 1.10647 
C 7.217274 1.240293 7.198497 1.383006 7.129297 1.503014 
C 7.060096 1.623021 6.945986 1.710762 6.812229 1.74681 
L 5.173293 2.186866 
L 6.496181 2.949771 
L 6.496181 2.949771 
C 6.555697 2.984183 6.607849 3.029991 6.649651 3.08457 
C 6.691452 3.13915 6.722088 3.201437 6.739803 3.267863 
C 6.757517 3.33429 6.761966 3.403561 6.752893 3.471707 
C 6.743821 3.539854 6.721404 3.605549 6.686927 3.665026 
L 6.686927 3.665026 
C 6.617458 3.784813 6.503196 3.87225 6.369416 3.907994 
C 6.235636 3.943739 6.092989 3.924946 5.973032 3.855772 
L 4.650144 3.091487 
L 5.08886 4.731783 
L 5.08886 4.731783 
C 5.124664 4.865606 5.105887 5.008319 5.036686 5.128326 
C 4.967486 5.248334 4.853376 5.336074 4.719619 5.372123 
L 4.719619 5.372123 
C 4.585619 5.407867 4.442757 5.3889 4.322726 5.319431 
C 4.202695 5.249961 4.115081 5.135537 4.07932 5.001542 
L 3.368166 2.351664 
L 0.717033 0.821063 
L 0.717033 3.884232 
L 2.657075 5.822893 
L 2.657075 5.822893 
C 2.70585 5.871495 2.744553 5.929252 2.770959 5.992843 
C 2.797366 6.056435 2.81096 6.124618 2.81096 6.193474 
C 2.81096 6.26233 2.797366 6.330514 2.770959 6.394105 
C 2.744553 6.457696 2.70585 6.515453 2.657075 6.564055 
L 2.657075 6.564055 
C 2.608473 6.61283 2.550716 6.651533 2.487125 6.67794 
C 2.423533 6.704346 2.35535 6.71794 2.286494 6.71794 
C 2.217638 6.71794 2.149454 6.704346 2.085863 6.67794 
C 2.022272 6.651533 1.964515 6.61283 1.915913 6.564055 
L 0.717033 5.365133 
L 0.717033 6.891026 
L 0.717033 6.891026 
C 0.717033 7.029722 0.661877 7.162879 0.563805 7.260952 
C 0.465732 7.359024 0.332575 7.41418 0.193879 7.41418 
L 0.193618 7.414054 
z
"/>
    </defs>
    <g clip-path="url(#p38c57737a2)">
     <use xlink:href="#m2b2939257b" x="214.860439" y="135.840221" style="fill: #0000ff; fill-opacity: 0.7"/>
    </g>
   </g>
   <g id="patch_35">
    <path d="M 132.094844 43.4455 
C 117.534216 43.4455 103.115171 46.313626 89.662905 51.885737 
C 76.210638 57.457849 63.986763 65.625581 53.690844 75.9215 
C 43.394925 86.217419 35.227192 98.441295 29.655081 111.893561 
C 24.08297 125.345827 21.214844 139.764872 21.214844 154.3255 
C 21.214844 168.886128 24.08297 183.305173 29.655081 196.757439 
C 35.227192 210.209705 43.394925 222.433581 53.690844 232.7295 
C 63.986763 243.025419 76.210638 251.193151 89.662905 256.765263 
C 103.115171 262.337374 117.534216 265.2055 132.094844 265.2055 
C 146.655472 265.2055 161.074516 262.337374 174.526783 256.765263 
C 187.979049 251.193151 200.202925 243.025419 210.498844 232.7295 
C 220.794763 222.433581 228.962495 210.209705 234.534606 196.757439 
C 240.106717 183.305173 242.974844 168.886128 242.974844 154.3255 
C 242.974844 139.764872 240.106717 125.345827 234.534606 111.893561 
C 228.962495 98.441295 220.794763 86.217419 210.498844 75.9215 
C 200.202925 65.625581 187.979049 57.457849 174.526783 51.885737 
C 161.074516 46.313626 146.655472 43.4455 132.094844 43.4455 
" style="fill: none; stroke: #000000; stroke-width: 0.8; stroke-linejoin: miter; stroke-linecap: square"/>
   </g>
   <g id="text_5">
    <!-- 49 runs -->
    <g style="fill: #95a5a6" transform="translate(8.216524 38.045618) scale(0.1 -0.1)">
     <defs>
      <path id="DejaVuSans-34" d="M 2419 4116 
L 825 1625 
L 2419 1625 
L 2419 4116 
z
M 2253 4666 
L 3047 4666 
L 3047 1625 
L 3713 1625 
L 3713 1100 
L 3047 1100 
L 3047 0 
L 2419 0 
L 2419 1100 
L 313 1100 
L 313 1709 
L 2253 4666 
z
" transform="scale(0.015625)"/>
      <path id="DejaVuSans-39" d="M 703 97 
L 703 672 
Q 941 559 1184 500 
Q 1428 441 1663 441 
Q 2288 441 2617 861 
Q 2947 1281 2994 2138 
Q 2813 1869 2534 1725 
Q 2256 1581 1919 1581 
Q 1219 1581 811 2004 
Q 403 2428 403 3163 
Q 403 3881 828 4315 
Q 1253 4750 1959 4750 
Q 2769 4750 3195 4129 
Q 3622 3509 3622 2328 
Q 3622 1225 3098 567 
Q 2575 -91 1691 -91 
Q 1453 -91 1209 -44 
Q 966 3 703 97 
z
M 1959 2075 
Q 2384 2075 2632 2365 
Q 2881 2656 2881 3163 
Q 2881 3666 2632 3958 
Q 2384 4250 1959 4250 
Q 1534 4250 1286 3958 
Q 1038 3666 1038 3163 
Q 1038 2656 1286 2365 
Q 1534 2075 1959 2075 
z
" transform="scale(0.015625)"/>
      <path id="DejaVuSans-20" transform="scale(0.015625)"/>
      <path id="DejaVuSans-72" d="M 2631 2963 
Q 2534 3019 2420 3045 
Q 2306 3072 2169 3072 
Q 1681 3072 1420 2755 
Q 1159 2438 1159 1844 
L 1159 0 
L 581 0 
L 581 3500 
L 1159 3500 
L 1159 2956 
Q 1341 3275 1631 3429 
Q 1922 3584 2338 3584 
Q 2397 3584 2469 3576 
Q 2541 3569 2628 3553 
L 2631 2963 
z
" transform="scale(0.015625)"/>
      <path id="DejaVuSans-75" d="M 544 1381 
L 544 3500 
L 1119 3500 
L 1119 1403 
Q 1119 906 1312 657 
Q 1506 409 1894 409 
Q 2359 409 2629 706 
Q 2900 1003 2900 1516 
L 2900 3500 
L 3475 3500 
L 3475 0 
L 2900 0 
L 2900 538 
Q 2691 219 2414 64 
Q 2138 -91 1772 -91 
Q 1169 -91 856 284 
Q 544 659 544 1381 
z
M 1991 3584 
L 1991 3584 
z
" transform="scale(0.015625)"/>
      <path id="DejaVuSans-6e" d="M 3513 2113 
L 3513 0 
L 2938 0 
L 2938 2094 
Q 2938 2591 2744 2837 
Q 2550 3084 2163 3084 
Q 1697 3084 1428 2787 
Q 1159 2491 1159 1978 
L 1159 0 
L 581 0 
L 581 3500 
L 1159 3500 
L 1159 2956 
Q 1366 3272 1645 3428 
Q 1925 3584 2291 3584 
Q 2894 3584 3203 3211 
Q 3513 2838 3513 2113 
z
" transform="scale(0.015625)"/>
      <path id="DejaVuSans-73" d="M 2834 3397 
L 2834 2853 
Q 2591 2978 2328 3040 
Q 2066 3103 1784 3103 
Q 1356 3103 1142 2972 
Q 928 2841 928 2578 
Q 928 2378 1081 2264 
Q 1234 2150 1697 2047 
L 1894 2003 
Q 2506 1872 2764 1633 
Q 3022 1394 3022 966 
Q 3022 478 2636 193 
Q 2250 -91 1575 -91 
Q 1294 -91 989 -36 
Q 684 19 347 128 
L 347 722 
Q 666 556 975 473 
Q 1284 391 1588 391 
Q 1994 391 2212 530 
Q 2431 669 2431 922 
Q 2431 1156 2273 1281 
Q 2116 1406 1581 1522 
L 1381 1569 
Q 847 1681 609 1914 
Q 372 2147 372 2553 
Q 372 3047 722 3315 
Q 1072 3584 1716 3584 
Q 2034 3584 2315 3537 
Q 2597 3491 2834 3397 
z
" transform="scale(0.015625)"/>
     </defs>
     <use xlink:href="#DejaVuSans-34"/>
     <use xlink:href="#DejaVuSans-39" x="63.623047"/>
     <use xlink:href="#DejaVuSans-20" x="127.246094"/>
     <use xlink:href="#DejaVuSans-72" x="159.033203"/>
     <use xlink:href="#DejaVuSans-75" x="200.146484"/>
     <use xlink:href="#DejaVuSans-6e" x="263.525391"/>
     <use xlink:href="#DejaVuSans-73" x="326.904297"/>
    </g>
    <!-- 21 lifts -->
    <g style="fill: #95a5a6" transform="translate(8.216524 49.24343) scale(0.1 -0.1)">
     <defs>
      <path id="DejaVuSans-32" d="M 1228 531 
L 3431 531 
L 3431 0 
L 469 0 
L 469 531 
Q 828 903 1448 1529 
Q 2069 2156 2228 2338 
Q 2531 2678 2651 2914 
Q 2772 3150 2772 3378 
Q 2772 3750 2511 3984 
Q 2250 4219 1831 4219 
Q 1534 4219 1204 4116 
Q 875 4013 500 3803 
L 500 4441 
Q 881 4594 1212 4672 
Q 1544 4750 1819 4750 
Q 2544 4750 2975 4387 
Q 3406 4025 3406 3419 
Q 3406 3131 3298 2873 
Q 3191 2616 2906 2266 
Q 2828 2175 2409 1742 
Q 1991 1309 1228 531 
z
" transform="scale(0.015625)"/>
      <path id="DejaVuSans-31" d="M 794 531 
L 1825 531 
L 1825 4091 
L 703 3866 
L 703 4441 
L 1819 4666 
L 2450 4666 
L 2450 531 
L 3481 531 
L 3481 0 
L 794 0 
L 794 531 
z
" transform="scale(0.015625)"/>
      <path id="DejaVuSans-6c" d="M 603 4863 
L 1178 4863 
L 1178 0 
L 603 0 
L 603 4863 
z
" transform="scale(0.015625)"/>
      <path id="DejaVuSans-69" d="M 603 3500 
L 1178 3500 
L 1178 0 
L 603 0 
L 603 3500 
z
M 603 4863 
L 1178 4863 
L 1178 4134 
L 603 4134 
L 603 4863 
z
" transform="scale(0.015625)"/>
      <path id="DejaVuSans-66" d="M 2375 4863 
L 2375 4384 
L 1825 4384 
Q 1516 4384 1395 4259 
Q 1275 4134 1275 3809 
L 1275 3500 
L 2222 3500 
L 2222 3053 
L 1275 3053 
L 1275 0 
L 697 0 
L 697 3053 
L 147 3053 
L 147 3500 
L 697 3500 
L 697 3744 
Q 697 4328 969 4595 
Q 1241 4863 1831 4863 
L 2375 4863 
z
" transform="scale(0.015625)"/>
      <path id="DejaVuSans-74" d="M 1172 4494 
L 1172 3500 
L 2356 3500 
L 2356 3053 
L 1172 3053 
L 1172 1153 
Q 1172 725 1289 603 
Q 1406 481 1766 481 
L 2356 481 
L 2356 0 
L 1766 0 
Q 1100 0 847 248 
Q 594 497 594 1153 
L 594 3053 
L 172 3053 
L 172 3500 
L 594 3500 
L 594 4494 
L 1172 4494 
z
" transform="scale(0.015625)"/>
     </defs>
     <use xlink:href="#DejaVuSans-32"/>
     <use xlink:href="#DejaVuSans-31" x="63.623047"/>
     <use xlink:href="#DejaVuSans-20" x="127.246094"/>
     <use xlink:href="#DejaVuSans-6c" x="159.033203"/>
     <use xlink:href="#DejaVuSans-69" x="186.816406"/>
     <use xlink:href="#DejaVuSans-66" x="214.599609"/>
     <use xlink:href="#DejaVuSans-74" x="248.054688"/>
     <use xlink:href="#DejaVuSans-73" x="287.263672"/>
    </g>
   </g>
   <g id="text_6">
    <!-- 7,299 m -->
    <g style="fill: #95a5a6" transform="translate(215.607539 38.045618) scale(0.1 -0.1)">
     <defs>
      <path id="DejaVuSans-37" d="M 525 4666 
L 3525 4666 
L 3525 4397 
L 1831 0 
L 1172 0 
L 2766 4134 
L 525 4134 
L 525 4666 
z
" transform="scale(0.015625)"/>
      <path id="DejaVuSans-2c" d="M 750 794 
L 1409 794 
L 1409 256 
L 897 -744 
L 494 -744 
L 750 256 
L 750 794 
z
" transform="scale(0.015625)"/>
      <path id="DejaVuSans-202f" transform="scale(0.015625)"/>
      <path id="DejaVuSans-6d" d="M 3328 2828 
Q 3544 3216 3844 3400 
Q 4144 3584 4550 3584 
Q 5097 3584 5394 3201 
Q 5691 2819 5691 2113 
L 5691 0 
L 5113 0 
L 5113 2094 
Q 5113 2597 4934 2840 
Q 4756 3084 4391 3084 
Q 3944 3084 3684 2787 
Q 3425 2491 3425 1978 
L 3425 0 
L 2847 0 
L 2847 2094 
Q 2847 2600 2669 2842 
Q 2491 3084 2119 3084 
Q 1678 3084 1418 2786 
Q 1159 2488 1159 1978 
L 1159 0 
L 581 0 
L 581 3500 
L 1159 3500 
L 1159 2956 
Q 1356 3278 1631 3431 
Q 1906 3584 2284 3584 
Q 2666 3584 2933 3390 
Q 3200 3197 3328 2828 
z
" transform="scale(0.015625)"/>
     </defs>
     <use xlink:href="#DejaVuSans-37"/>
     <use xlink:href="#DejaVuSans-2c" x="63.623047"/>
     <use xlink:href="#DejaVuSans-32" x="95.410156"/>
     <use xlink:href="#DejaVuSans-39" x="159.033203"/>
     <use xlink:href="#DejaVuSans-39" x="222.65625"/>
     <use xlink:href="#DejaVuSans-202f" x="286.279297"/>
     <use xlink:href="#DejaVuSans-6d" x="306.25"/>
    </g>
    <!-- skiable -->
    <g style="fill: #95a5a6" transform="translate(220.787226 49.24343) scale(0.1 -0.1)">
     <defs>
      <path id="DejaVuSans-6b" d="M 581 4863 
L 1159 4863 
L 1159 1991 
L 2875 3500 
L 3609 3500 
L 1753 1863 
L 3688 0 
L 2938 0 
L 1159 1709 
L 1159 0 
L 581 0 
L 581 4863 
z
" transform="scale(0.015625)"/>
      <path id="DejaVuSans-61" d="M 2194 1759 
Q 1497 1759 1228 1600 
Q 959 1441 959 1056 
Q 959 750 1161 570 
Q 1363 391 1709 391 
Q 2188 391 2477 730 
Q 2766 1069 2766 1631 
L 2766 1759 
L 2194 1759 
z
M 3341 1997 
L 3341 0 
L 2766 0 
L 2766 531 
Q 2569 213 2275 61 
Q 1981 -91 1556 -91 
Q 1019 -91 701 211 
Q 384 513 384 1019 
Q 384 1609 779 1909 
Q 1175 2209 1959 2209 
L 2766 2209 
L 2766 2266 
Q 2766 2663 2505 2880 
Q 2244 3097 1772 3097 
Q 1472 3097 1187 3025 
Q 903 2953 641 2809 
L 641 3341 
Q 956 3463 1253 3523 
Q 1550 3584 1831 3584 
Q 2591 3584 2966 3190 
Q 3341 2797 3341 1997 
z
" transform="scale(0.015625)"/>
      <path id="DejaVuSans-62" d="M 3116 1747 
Q 3116 2381 2855 2742 
Q 2594 3103 2138 3103 
Q 1681 3103 1420 2742 
Q 1159 2381 1159 1747 
Q 1159 1113 1420 752 
Q 1681 391 2138 391 
Q 2594 391 2855 752 
Q 3116 1113 3116 1747 
z
M 1159 2969 
Q 1341 3281 1617 3432 
Q 1894 3584 2278 3584 
Q 2916 3584 3314 3078 
Q 3713 2572 3713 1747 
Q 3713 922 3314 415 
Q 2916 -91 2278 -91 
Q 1894 -91 1617 61 
Q 1341 213 1159 525 
L 1159 0 
L 581 0 
L 581 4863 
L 1159 4863 
L 1159 2969 
z
" transform="scale(0.015625)"/>
      <path id="DejaVuSans-65" d="M 3597 1894 
L 3597 1613 
L 953 1613 
Q 991 1019 1311 708 
Q 1631 397 2203 397 
Q 2534 397 2845 478 
Q 3156 559 3463 722 
L 3463 178 
Q 3153 47 2828 -22 
Q 2503 -91 2169 -91 
Q 1331 -91 842 396 
Q 353 884 353 1716 
Q 353 2575 817 3079 
Q 1281 3584 2069 3584 
Q 2775 3584 3186 3129 
Q 3597 2675 3597 1894 
z
M 3022 2063 
Q 3016 2534 2758 2815 
Q 2500 3097 2075 3097 
Q 1594 3097 1305 2825 
Q 1016 2553 972 2059 
L 3022 2063 
z
" transform="scale(0.015625)"/>
     </defs>
     <use xlink:href="#DejaVuSans-73"/>
     <use xlink:href="#DejaVuSans-6b" x="52.099609"/>
     <use xlink:href="#DejaVuSans-69" x="110.009766"/>
     <use xlink:href="#DejaVuSans-61" x="137.792969"/>
     <use xlink:href="#DejaVuSans-62" x="199.072266"/>
     <use xlink:href="#DejaVuSans-6c" x="262.548828"/>
     <use xlink:href="#DejaVuSans-65" x="290.332031"/>
    </g>
    <!-- vert -->
    <g style="fill: #95a5a6" transform="translate(235.870039 60.441243) scale(0.1 -0.1)">
     <defs>
      <path id="DejaVuSans-76" d="M 191 3500 
L 800 3500 
L 1894 563 
L 2988 3500 
L 3597 3500 
L 2284 0 
L 1503 0 
L 191 3500 
z
" transform="scale(0.015625)"/>
     </defs>
     <use xlink:href="#DejaVuSans-76"/>
     <use xlink:href="#DejaVuSans-65" x="59.179688"/>
     <use xlink:href="#DejaVuSans-72" x="120.703125"/>
     <use xlink:href="#DejaVuSans-74" x="161.816406"/>
    </g>
   </g>
   <g id="text_7">
    <!-- affinity: -->
    <g style="fill: #95a5a6" transform="translate(8.216524 253.728507) scale(0.1 -0.1)">
     <defs>
      <path id="DejaVuSans-79" d="M 2059 -325 
Q 1816 -950 1584 -1140 
Q 1353 -1331 966 -1331 
L 506 -1331 
L 506 -850 
L 844 -850 
Q 1081 -850 1212 -737 
Q 1344 -625 1503 -206 
L 1606 56 
L 191 3500 
L 800 3500 
L 1894 763 
L 2988 3500 
L 3597 3500 
L 2059 -325 
z
" transform="scale(0.015625)"/>
      <path id="DejaVuSans-3a" d="M 750 794 
L 1409 794 
L 1409 0 
L 750 0 
L 750 794 
z
M 750 3309 
L 1409 3309 
L 1409 2516 
L 750 2516 
L 750 3309 
z
" transform="scale(0.015625)"/>
     </defs>
     <use xlink:href="#DejaVuSans-61"/>
     <use xlink:href="#DejaVuSans-66" x="61.279297"/>
     <use xlink:href="#DejaVuSans-66" x="96.484375"/>
     <use xlink:href="#DejaVuSans-69" x="131.689453"/>
     <use xlink:href="#DejaVuSans-6e" x="159.472656"/>
     <use xlink:href="#DejaVuSans-69" x="222.851562"/>
     <use xlink:href="#DejaVuSans-74" x="250.634766"/>
     <use xlink:href="#DejaVuSans-79" x="289.84375"/>
     <use xlink:href="#DejaVuSans-3a" x="341.773438"/>
    </g>
    <!-- 17% poleward -->
    <g style="fill: #95a5a6" transform="translate(8.216524 264.92632) scale(0.1 -0.1)">
     <defs>
      <path id="DejaVuSans-25" d="M 4653 2053 
Q 4381 2053 4226 1822 
Q 4072 1591 4072 1178 
Q 4072 772 4226 539 
Q 4381 306 4653 306 
Q 4919 306 5073 539 
Q 5228 772 5228 1178 
Q 5228 1588 5073 1820 
Q 4919 2053 4653 2053 
z
M 4653 2450 
Q 5147 2450 5437 2106 
Q 5728 1763 5728 1178 
Q 5728 594 5436 251 
Q 5144 -91 4653 -91 
Q 4153 -91 3862 251 
Q 3572 594 3572 1178 
Q 3572 1766 3864 2108 
Q 4156 2450 4653 2450 
z
M 1428 4353 
Q 1159 4353 1004 4120 
Q 850 3888 850 3481 
Q 850 3069 1003 2837 
Q 1156 2606 1428 2606 
Q 1700 2606 1854 2837 
Q 2009 3069 2009 3481 
Q 2009 3884 1853 4118 
Q 1697 4353 1428 4353 
z
M 4250 4750 
L 4750 4750 
L 1831 -91 
L 1331 -91 
L 4250 4750 
z
M 1428 4750 
Q 1922 4750 2215 4408 
Q 2509 4066 2509 3481 
Q 2509 2891 2217 2550 
Q 1925 2209 1428 2209 
Q 931 2209 642 2551 
Q 353 2894 353 3481 
Q 353 4063 643 4406 
Q 934 4750 1428 4750 
z
" transform="scale(0.015625)"/>
      <path id="DejaVuSans-70" d="M 1159 525 
L 1159 -1331 
L 581 -1331 
L 581 3500 
L 1159 3500 
L 1159 2969 
Q 1341 3281 1617 3432 
Q 1894 3584 2278 3584 
Q 2916 3584 3314 3078 
Q 3713 2572 3713 1747 
Q 3713 922 3314 415 
Q 2916 -91 2278 -91 
Q 1894 -91 1617 61 
Q 1341 213 1159 525 
z
M 3116 1747 
Q 3116 2381 2855 2742 
Q 2594 3103 2138 3103 
Q 1681 3103 1420 2742 
Q 1159 2381 1159 1747 
Q 1159 1113 1420 752 
Q 1681 391 2138 391 
Q 2594 391 2855 752 
Q 3116 1113 3116 1747 
z
" transform="scale(0.015625)"/>
      <path id="DejaVuSans-6f" d="M 1959 3097 
Q 1497 3097 1228 2736 
Q 959 2375 959 1747 
Q 959 1119 1226 758 
Q 1494 397 1959 397 
Q 2419 397 2687 759 
Q 2956 1122 2956 1747 
Q 2956 2369 2687 2733 
Q 2419 3097 1959 3097 
z
M 1959 3584 
Q 2709 3584 3137 3096 
Q 3566 2609 3566 1747 
Q 3566 888 3137 398 
Q 2709 -91 1959 -91 
Q 1206 -91 779 398 
Q 353 888 353 1747 
Q 353 2609 779 3096 
Q 1206 3584 1959 3584 
z
" transform="scale(0.015625)"/>
      <path id="DejaVuSans-77" d="M 269 3500 
L 844 3500 
L 1563 769 
L 2278 3500 
L 2956 3500 
L 3675 769 
L 4391 3500 
L 4966 3500 
L 4050 0 
L 3372 0 
L 2619 2869 
L 1863 0 
L 1184 0 
L 269 3500 
z
" transform="scale(0.015625)"/>
      <path id="DejaVuSans-64" d="M 2906 2969 
L 2906 4863 
L 3481 4863 
L 3481 0 
L 2906 0 
L 2906 525 
Q 2725 213 2448 61 
Q 2172 -91 1784 -91 
Q 1150 -91 751 415 
Q 353 922 353 1747 
Q 353 2572 751 3078 
Q 1150 3584 1784 3584 
Q 2172 3584 2448 3432 
Q 2725 3281 2906 2969 
z
M 947 1747 
Q 947 1113 1208 752 
Q 1469 391 1925 391 
Q 2381 391 2643 752 
Q 2906 1113 2906 1747 
Q 2906 2381 2643 2742 
Q 2381 3103 1925 3103 
Q 1469 3103 1208 2742 
Q 947 2381 947 1747 
z
" transform="scale(0.015625)"/>
     </defs>
     <use xlink:href="#DejaVuSans-31"/>
     <use xlink:href="#DejaVuSans-37" x="63.623047"/>
     <use xlink:href="#DejaVuSans-25" x="127.246094"/>
     <use xlink:href="#DejaVuSans-20" x="222.265625"/>
     <use xlink:href="#DejaVuSans-70" x="254.052734"/>
     <use xlink:href="#DejaVuSans-6f" x="317.529297"/>
     <use xlink:href="#DejaVuSans-6c" x="378.710938"/>
     <use xlink:href="#DejaVuSans-65" x="406.494141"/>
     <use xlink:href="#DejaVuSans-77" x="468.017578"/>
     <use xlink:href="#DejaVuSans-61" x="549.804688"/>
     <use xlink:href="#DejaVuSans-72" x="611.083984"/>
     <use xlink:href="#DejaVuSans-64" x="650.447266"/>
    </g>
    <!-- 75% eastward -->
    <g style="fill: #95a5a6" transform="translate(8.216524 276.124132) scale(0.1 -0.1)">
     <defs>
      <path id="DejaVuSans-35" d="M 691 4666 
L 3169 4666 
L 3169 4134 
L 1269 4134 
L 1269 2991 
Q 1406 3038 1543 3061 
Q 1681 3084 1819 3084 
Q 2600 3084 3056 2656 
Q 3513 2228 3513 1497 
Q 3513 744 3044 326 
Q 2575 -91 1722 -91 
Q 1428 -91 1123 -41 
Q 819 9 494 109 
L 494 744 
Q 775 591 1075 516 
Q 1375 441 1709 441 
Q 2250 441 2565 725 
Q 2881 1009 2881 1497 
Q 2881 1984 2565 2268 
Q 2250 2553 1709 2553 
Q 1456 2553 1204 2497 
Q 953 2441 691 2322 
L 691 4666 
z
" transform="scale(0.015625)"/>
     </defs>
     <use xlink:href="#DejaVuSans-37"/>
     <use xlink:href="#DejaVuSans-35" x="63.623047"/>
     <use xlink:href="#DejaVuSans-25" x="127.246094"/>
     <use xlink:href="#DejaVuSans-20" x="222.265625"/>
     <use xlink:href="#DejaVuSans-65" x="254.052734"/>
     <use xlink:href="#DejaVuSans-61" x="315.576172"/>
     <use xlink:href="#DejaVuSans-73" x="376.855469"/>
     <use xlink:href="#DejaVuSans-74" x="428.955078"/>
     <use xlink:href="#DejaVuSans-77" x="468.164062"/>
     <use xlink:href="#DejaVuSans-61" x="549.951172"/>
     <use xlink:href="#DejaVuSans-72" x="611.230469"/>
     <use xlink:href="#DejaVuSans-64" x="650.59375"/>
    </g>
   </g>
   <g id="text_8">
    <!-- elevation: -->
    <g style="fill: #95a5a6" transform="translate(206.318476 253.728507) scale(0.1 -0.1)">
     <use xlink:href="#DejaVuSans-65"/>
     <use xlink:href="#DejaVuSans-6c" x="61.523438"/>
     <use xlink:href="#DejaVuSans-65" x="89.306641"/>
     <use xlink:href="#DejaVuSans-76" x="150.830078"/>
     <use xlink:href="#DejaVuSans-61" x="210.009766"/>
     <use xlink:href="#DejaVuSans-74" x="271.289062"/>
     <use xlink:href="#DejaVuSans-69" x="310.498047"/>
     <use xlink:href="#DejaVuSans-6f" x="338.28125"/>
     <use xlink:href="#DejaVuSans-6e" x="399.462891"/>
     <use xlink:href="#DejaVuSans-3a" x="462.841797"/>
    </g>
    <!-- 1,643 m base -->
    <g style="fill: #95a5a6" transform="translate(188.590351 264.92632) scale(0.1 -0.1)">
     <defs>
      <path id="DejaVuSans-36" d="M 2113 2584 
Q 1688 2584 1439 2293 
Q 1191 2003 1191 1497 
Q 1191 994 1439 701 
Q 1688 409 2113 409 
Q 2538 409 2786 701 
Q 3034 994 3034 1497 
Q 3034 2003 2786 2293 
Q 2538 2584 2113 2584 
z
M 3366 4563 
L 3366 3988 
Q 3128 4100 2886 4159 
Q 2644 4219 2406 4219 
Q 1781 4219 1451 3797 
Q 1122 3375 1075 2522 
Q 1259 2794 1537 2939 
Q 1816 3084 2150 3084 
Q 2853 3084 3261 2657 
Q 3669 2231 3669 1497 
Q 3669 778 3244 343 
Q 2819 -91 2113 -91 
Q 1303 -91 875 529 
Q 447 1150 447 2328 
Q 447 3434 972 4092 
Q 1497 4750 2381 4750 
Q 2619 4750 2861 4703 
Q 3103 4656 3366 4563 
z
" transform="scale(0.015625)"/>
      <path id="DejaVuSans-33" d="M 2597 2516 
Q 3050 2419 3304 2112 
Q 3559 1806 3559 1356 
Q 3559 666 3084 287 
Q 2609 -91 1734 -91 
Q 1441 -91 1130 -33 
Q 819 25 488 141 
L 488 750 
Q 750 597 1062 519 
Q 1375 441 1716 441 
Q 2309 441 2620 675 
Q 2931 909 2931 1356 
Q 2931 1769 2642 2001 
Q 2353 2234 1838 2234 
L 1294 2234 
L 1294 2753 
L 1863 2753 
Q 2328 2753 2575 2939 
Q 2822 3125 2822 3475 
Q 2822 3834 2567 4026 
Q 2313 4219 1838 4219 
Q 1578 4219 1281 4162 
Q 984 4106 628 3988 
L 628 4550 
Q 988 4650 1302 4700 
Q 1616 4750 1894 4750 
Q 2613 4750 3031 4423 
Q 3450 4097 3450 3541 
Q 3450 3153 3228 2886 
Q 3006 2619 2597 2516 
z
" transform="scale(0.015625)"/>
     </defs>
     <use xlink:href="#DejaVuSans-31"/>
     <use xlink:href="#DejaVuSans-2c" x="63.623047"/>
     <use xlink:href="#DejaVuSans-36" x="95.410156"/>
     <use xlink:href="#DejaVuSans-34" x="159.033203"/>
     <use xlink:href="#DejaVuSans-33" x="222.65625"/>
     <use xlink:href="#DejaVuSans-202f" x="286.279297"/>
     <use xlink:href="#DejaVuSans-6d" x="306.25"/>
     <use xlink:href="#DejaVuSans-20" x="403.662109"/>
     <use xlink:href="#DejaVuSans-62" x="435.449219"/>
     <use xlink:href="#DejaVuSans-61" x="498.925781"/>
     <use xlink:href="#DejaVuSans-73" x="560.205078"/>
     <use xlink:href="#DejaVuSans-65" x="612.304688"/>
    </g>
    <!-- 2,360 m peak -->
    <g style="fill: #95a5a6" transform="translate(188.009101 276.124132) scale(0.1 -0.1)">
     <defs>
      <path id="DejaVuSans-30" d="M 2034 4250 
Q 1547 4250 1301 3770 
Q 1056 3291 1056 2328 
Q 1056 1369 1301 889 
Q 1547 409 2034 409 
Q 2525 409 2770 889 
Q 3016 1369 3016 2328 
Q 3016 3291 2770 3770 
Q 2525 4250 2034 4250 
z
M 2034 4750 
Q 2819 4750 3233 4129 
Q 3647 3509 3647 2328 
Q 3647 1150 3233 529 
Q 2819 -91 2034 -91 
Q 1250 -91 836 529 
Q 422 1150 422 2328 
Q 422 3509 836 4129 
Q 1250 4750 2034 4750 
z
" transform="scale(0.015625)"/>
     </defs>
     <use xlink:href="#DejaVuSans-32"/>
     <use xlink:href="#DejaVuSans-2c" x="63.623047"/>
     <use xlink:href="#DejaVuSans-33" x="95.410156"/>
     <use xlink:href="#DejaVuSans-36" x="159.033203"/>
     <use xlink:href="#DejaVuSans-30" x="222.65625"/>
     <use xlink:href="#DejaVuSans-202f" x="286.279297"/>
     <use xlink:href="#DejaVuSans-6d" x="306.25"/>
     <use xlink:href="#DejaVuSans-20" x="403.662109"/>
     <use xlink:href="#DejaVuSans-70" x="435.449219"/>
     <use xlink:href="#DejaVuSans-65" x="498.925781"/>
     <use xlink:href="#DejaVuSans-61" x="560.449219"/>
     <use xlink:href="#DejaVuSans-6b" x="621.728516"/>
    </g>
   </g>
   <g id="text_9">
    <!-- Les Angles -->
    <g transform="translate(83.482344 19.3575) scale(0.16 -0.16)">
     <defs>
      <path id="DejaVuSans-Bold-4c" d="M 588 4666 
L 1791 4666 
L 1791 909 
L 3903 909 
L 3903 0 
L 588 0 
L 588 4666 
z
" transform="scale(0.015625)"/>
      <path id="DejaVuSans-Bold-65" d="M 4031 1759 
L 4031 1441 
L 1416 1441 
Q 1456 1047 1700 850 
Q 1944 653 2381 653 
Q 2734 653 3104 758 
Q 3475 863 3866 1075 
L 3866 213 
Q 3469 63 3072 -14 
Q 2675 -91 2278 -91 
Q 1328 -91 801 392 
Q 275 875 275 1747 
Q 275 2603 792 3093 
Q 1309 3584 2216 3584 
Q 3041 3584 3536 3087 
Q 4031 2591 4031 1759 
z
M 2881 2131 
Q 2881 2450 2695 2645 
Q 2509 2841 2209 2841 
Q 1884 2841 1681 2658 
Q 1478 2475 1428 2131 
L 2881 2131 
z
" transform="scale(0.015625)"/>
      <path id="DejaVuSans-Bold-73" d="M 3272 3391 
L 3272 2541 
Q 2913 2691 2578 2766 
Q 2244 2841 1947 2841 
Q 1628 2841 1473 2761 
Q 1319 2681 1319 2516 
Q 1319 2381 1436 2309 
Q 1553 2238 1856 2203 
L 2053 2175 
Q 2913 2066 3209 1816 
Q 3506 1566 3506 1031 
Q 3506 472 3093 190 
Q 2681 -91 1863 -91 
Q 1516 -91 1145 -36 
Q 775 19 384 128 
L 384 978 
Q 719 816 1070 734 
Q 1422 653 1784 653 
Q 2113 653 2278 743 
Q 2444 834 2444 1013 
Q 2444 1163 2330 1236 
Q 2216 1309 1875 1350 
L 1678 1375 
Q 931 1469 631 1722 
Q 331 1975 331 2491 
Q 331 3047 712 3315 
Q 1094 3584 1881 3584 
Q 2191 3584 2531 3537 
Q 2872 3491 3272 3391 
z
" transform="scale(0.015625)"/>
      <path id="DejaVuSans-Bold-20" transform="scale(0.015625)"/>
      <path id="DejaVuSans-Bold-41" d="M 3419 850 
L 1538 850 
L 1241 0 
L 31 0 
L 1759 4666 
L 3194 4666 
L 4922 0 
L 3713 0 
L 3419 850 
z
M 1838 1716 
L 3116 1716 
L 2478 3572 
L 1838 1716 
z
" transform="scale(0.015625)"/>
      <path id="DejaVuSans-Bold-6e" d="M 4056 2131 
L 4056 0 
L 2931 0 
L 2931 347 
L 2931 1631 
Q 2931 2084 2911 2256 
Q 2891 2428 2841 2509 
Q 2775 2619 2662 2680 
Q 2550 2741 2406 2741 
Q 2056 2741 1856 2470 
Q 1656 2200 1656 1722 
L 1656 0 
L 538 0 
L 538 3500 
L 1656 3500 
L 1656 2988 
Q 1909 3294 2193 3439 
Q 2478 3584 2822 3584 
Q 3428 3584 3742 3212 
Q 4056 2841 4056 2131 
z
" transform="scale(0.015625)"/>
      <path id="DejaVuSans-Bold-67" d="M 2919 594 
Q 2688 288 2409 144 
Q 2131 0 1766 0 
Q 1125 0 706 504 
Q 288 1009 288 1791 
Q 288 2575 706 3076 
Q 1125 3578 1766 3578 
Q 2131 3578 2409 3434 
Q 2688 3291 2919 2981 
L 2919 3500 
L 4044 3500 
L 4044 353 
Q 4044 -491 3511 -936 
Q 2978 -1381 1966 -1381 
Q 1638 -1381 1331 -1331 
Q 1025 -1281 716 -1178 
L 716 -306 
Q 1009 -475 1290 -558 
Q 1572 -641 1856 -641 
Q 2406 -641 2662 -400 
Q 2919 -159 2919 353 
L 2919 594 
z
M 2181 2772 
Q 1834 2772 1640 2515 
Q 1447 2259 1447 1791 
Q 1447 1309 1634 1061 
Q 1822 813 2181 813 
Q 2531 813 2725 1069 
Q 2919 1325 2919 1791 
Q 2919 2259 2725 2515 
Q 2531 2772 2181 2772 
z
" transform="scale(0.015625)"/>
      <path id="DejaVuSans-Bold-6c" d="M 538 4863 
L 1656 4863 
L 1656 0 
L 538 0 
L 538 4863 
z
" transform="scale(0.015625)"/>
     </defs>
     <use xlink:href="#DejaVuSans-Bold-4c"/>
     <use xlink:href="#DejaVuSans-Bold-65" x="63.720703"/>
     <use xlink:href="#DejaVuSans-Bold-73" x="131.542969"/>
     <use xlink:href="#DejaVuSans-Bold-20" x="191.064453"/>
     <use xlink:href="#DejaVuSans-Bold-41" x="225.878906"/>
     <use xlink:href="#DejaVuSans-Bold-6e" x="303.271484"/>
     <use xlink:href="#DejaVuSans-Bold-67" x="374.462891"/>
     <use xlink:href="#DejaVuSans-Bold-6c" x="446.044922"/>
     <use xlink:href="#DejaVuSans-Bold-65" x="480.322266"/>
     <use xlink:href="#DejaVuSans-Bold-73" x="548.144531"/>
    </g>
   </g>
  </g>
 </g>
 <defs>
  <clipPath id="p38c57737a2">
   <path d="M 242.974844 154.3255 
C 242.974844 139.764872 240.106717 125.345827 234.534606 111.893561 
C 228.962495 98.441295 220.794763 86.217419 210.498844 75.9215 
C 200.202925 65.625581 187.979049 57.457849 174.526783 51.885737 
C 161.074516 46.313626 146.655472 43.4455 132.094844 43.4455 
C 117.534216 43.4455 103.115171 46.313626 89.662905 51.885737 
C 76.210638 57.457849 63.986763 65.625581 53.690844 75.9215 
C 43.394925 86.217419 35.227192 98.441295 29.655081 111.893561 
C 24.08297 125.345827 21.214844 139.764872 21.214844 154.3255 
C 21.214844 168.886128 24.08297 183.305173 29.655081 196.757439 
C 35.227192 210.209705 43.394925 222.433581 53.690844 232.7295 
C 63.986763 243.025419 76.210638 251.193151 89.662905 256.765263 
C 103.115171 262.337374 117.534216 265.2055 132.094844 265.2055 
C 146.655472 265.2055 161.074516 262.337374 174.526783 256.765263 
C 187.979049 251.193151 200.202925 243.025419 210.498844 232.7295 
C 220.794763 222.433581 228.962495 210.209705 234.534606 196.757439 
C 240.106717 183.305173 242.974844 168.886128 242.974844 154.3255 
M 132.094844 154.3255 
C 132.094844 154.3255 132.094844 154.3255 132.094844 154.3255 
C 132.094844 154.3255 132.094844 154.3255 132.094844 154.3255 
C 132.094844 154.3255 132.094844 154.3255 132.094844 154.3255 
C 132.094844 154.3255 132.094844 154.3255 132.094844 154.3255 
C 132.094844 154.3255 132.094844 154.3255 132.094844 154.3255 
C 132.094844 154.3255 132.094844 154.3255 132.094844 154.3255 
C 132.094844 154.3255 132.094844 154.3255 132.094844 154.3255 
C 132.094844 154.3255 132.094844 154.3255 132.094844 154.3255 
C 132.094844 154.3255 132.094844 154.3255 132.094844 154.3255 
C 132.094844 154.3255 132.094844 154.3255 132.094844 154.3255 
C 132.094844 154.3255 132.094844 154.3255 132.094844 154.3255 
C 132.094844 154.3255 132.094844 154.3255 132.094844 154.3255 
C 132.094844 154.3255 132.094844 154.3255 132.094844 154.3255 
C 132.094844 154.3255 132.094844 154.3255 132.094844 154.3255 
C 132.094844 154.3255 132.094844 154.3255 132.094844 154.3255 
C 132.094844 154.3255 132.094844 154.3255 132.094844 154.3255 
z
"/>
  </clipPath>
 </defs>
</svg>
