<?xml version="1.0" encoding="utf-8" standalone="no"?>
<!DOCTYPE svg PUBLIC "-//W3C//DTD SVG 1.1//EN"
  "http://www.w3.org/Graphics/SVG/1.1/DTD/svg11.dtd">
<svg xmlns:xlink="http://www.w3.org/1999/xlink" width="341.7625pt" height="303.841062pt" viewBox="0 0 341.7625 303.841062" xmlns="http://www.w3.org/2000/svg" version="1.1">
 <title>Ski Rose for ほろたちスキー場, Kokusetsu Horotachi Ski Area</title>
 <metadata>
  <rdf:RDF xmlns:dc="http://purl.org/dc/elements/1.1/" xmlns:cc="http://creativecommons.org/ns#" xmlns:rdf="http://www.w3.org/1999/02/22-rdf-syntax-ns#">
   <cc:Work>
    <dc:type rdf:resource="http://purl.org/dc/dcmitype/StillImage"/>
    <dc:title>Ski Rose for ほろたちスキー場, Kokusetsu Horotachi Ski Area</dc:title>
    <dc:date>2024-12-20T01:53:31.880679</dc:date>
    <dc:description>A 32-bin histogram of downhill ski trail orientations generated from &lt;https://openskimap.org/?obj=aa06168b7eaee35d4f24e977e5b2af99d65daba4&gt;.</dc:description>
    <dc:format>image/svg+xml</dc:format>
    <dc:creator>
     <cc:Agent>
      <dc:title>https://github.com/dhimmel/openskistats</dc:title>
     </cc:Agent>
    </dc:creator>
   </cc:Work>
  </rdf:RDF>
 </metadata>
 <defs>
  <style type="text/css">*{stroke-linejoin: round; stroke-linecap: butt}</style>
 </defs>
 <g id="figure_1">
  <g id="patch_1">
   <path d="M 0 303.841062 
L 341.7625 303.841062 
L 341.7625 0 
L 0 0 
z
" style="fill: #ffffff"/>
  </g>
  <g id="axes_1">
   <g id="patch_2">
    <path d="M 281.76125 172.422 
C 281.76125 157.861372 278.893124 143.442327 273.321013 129.990061 
C 267.748901 116.537795 259.581169 104.313919 249.28525 94.018 
C 238.989331 83.722081 226.765455 75.554349 213.313189 69.982237 
C 199.860923 64.410126 185.441878 61.542 170.88125 61.542 
C 156.320622 61.542 141.901577 64.410126 128.449311 69.982237 
C 114.997045 75.554349 102.773169 83.722081 92.47725 94.018 
C 82.181331 104.313919 74.013599 116.537795 68.441487 129.990061 
C 62.869376 143.442327 60.00125 157.861372 60.00125 172.422 
C 60.00125 186.982628 62.869376 201.401673 68.441487 214.853939 
C 74.013599 228.306205 82.181331 240.530081 92.47725 250.826 
C 102.773169 261.121919 114.997045 269.289651 128.449311 274.861763 
C 141.901577 280.433874 156.320622 283.302 170.88125 283.302 
C 185.441878 283.302 199.860923 280.433874 213.313189 274.861763 
C 226.765455 269.289651 238.989331 261.121919 249.28525 250.826 
C 259.581169 240.530081 267.748901 228.306205 273.321013 214.853939 
C 278.893124 201.401673 281.76125 186.982628 281.76125 172.422 
M 170.88125 172.422 
C 170.88125 172.422 170.88125 172.422 170.88125 172.422 
C 170.88125 172.422 170.88125 172.422 170.88125 172.422 
C 170.88125 172.422 170.88125 172.422 170.88125 172.422 
C 170.88125 172.422 170.88125 172.422 170.88125 172.422 
C 170.88125 172.422 170.88125 172.422 170.88125 172.422 
C 170.88125 172.422 170.88125 172.422 170.88125 172.422 
C 170.88125 172.422 170.88125 172.422 170.88125 172.422 
C 170.88125 172.422 170.88125 172.422 170.88125 172.422 
C 170.88125 172.422 170.88125 172.422 170.88125 172.422 
C 170.88125 172.422 170.88125 172.422 170.88125 172.422 
C 170.88125 172.422 170.88125 172.422 170.88125 172.422 
C 170.88125 172.422 170.88125 172.422 170.88125 172.422 
C 170.88125 172.422 170.88125 172.422 170.88125 172.422 
C 170.88125 172.422 170.88125 172.422 170.88125 172.422 
C 170.88125 172.422 170.88125 172.422 170.88125 172.422 
C 170.88125 172.422 170.88125 172.422 170.88125 172.422 
z
" style="fill: #ffffff"/>
   </g>
   <g id="matplotlib.axis_1">
    <g id="xtick_1">
     <g id="line2d_1">
      <path d="M 170.88125 172.422 
L 170.88125 61.542 
" clip-path="url(#pcfefffa9cf)" style="fill: none; stroke: #b0b0b0; stroke-width: 0.8; stroke-linecap: square"/>
     </g>
     <g id="text_1">
      <!-- N -->
      <g transform="translate(166.696875 55.801375) scale(0.1 -0.1)">
       <defs>
        <path id="DejaVuSans-Bold-4e" d="M 588 4666 
L 1931 4666 
L 3628 1466 
L 3628 4666 
L 4769 4666 
L 4769 0 
L 3425 0 
L 1728 3200 
L 1728 0 
L 588 0 
L 588 4666 
z
" transform="scale(0.015625)"/>
       </defs>
       <use xlink:href="#DejaVuSans-Bold-4e"/>
      </g>
     </g>
    </g>
    <g id="xtick_2">
     <g id="line2d_2">
      <path d="M 170.88125 172.422 
L 249.28525 94.018 
" clip-path="url(#pcfefffa9cf)" style="fill: none; stroke: #b0b0b0; stroke-width: 0.8; stroke-linecap: square"/>
     </g>
    </g>
    <g id="xtick_3">
     <g id="line2d_3">
      <path d="M 170.88125 172.422 
L 281.76125 172.422 
" clip-path="url(#pcfefffa9cf)" style="fill: none; stroke: #b0b0b0; stroke-width: 0.8; stroke-linecap: square"/>
     </g>
     <g id="text_2">
      <!-- E -->
      <g transform="translate(286.845625 175.181375) scale(0.1 -0.1)">
       <defs>
        <path id="DejaVuSans-Bold-45" d="M 588 4666 
L 3834 4666 
L 3834 3756 
L 1791 3756 
L 1791 2888 
L 3713 2888 
L 3713 1978 
L 1791 1978 
L 1791 909 
L 3903 909 
L 3903 0 
L 588 0 
L 588 4666 
z
" transform="scale(0.015625)"/>
       </defs>
       <use xlink:href="#DejaVuSans-Bold-45"/>
      </g>
     </g>
    </g>
    <g id="xtick_4">
     <g id="line2d_4">
      <path d="M 170.88125 172.422 
L 249.28525 250.826 
" clip-path="url(#pcfefffa9cf)" style="fill: none; stroke: #b0b0b0; stroke-width: 0.8; stroke-linecap: square"/>
     </g>
    </g>
    <g id="xtick_5">
     <g id="line2d_5">
      <path d="M 170.88125 172.422 
L 170.88125 283.302 
" clip-path="url(#pcfefffa9cf)" style="fill: none; stroke: #b0b0b0; stroke-width: 0.8; stroke-linecap: square"/>
     </g>
     <g id="text_3">
      <!-- S -->
      <g transform="translate(167.280469 294.561375) scale(0.1 -0.1)">
       <defs>
        <path id="DejaVuSans-Bold-53" d="M 3834 4519 
L 3834 3531 
Q 3450 3703 3084 3790 
Q 2719 3878 2394 3878 
Q 1963 3878 1756 3759 
Q 1550 3641 1550 3391 
Q 1550 3203 1689 3098 
Q 1828 2994 2194 2919 
L 2706 2816 
Q 3484 2659 3812 2340 
Q 4141 2022 4141 1434 
Q 4141 663 3683 286 
Q 3225 -91 2284 -91 
Q 1841 -91 1394 -6 
Q 947 78 500 244 
L 500 1259 
Q 947 1022 1364 901 
Q 1781 781 2169 781 
Q 2563 781 2772 912 
Q 2981 1044 2981 1288 
Q 2981 1506 2839 1625 
Q 2697 1744 2272 1838 
L 1806 1941 
Q 1106 2091 782 2419 
Q 459 2747 459 3303 
Q 459 4000 909 4375 
Q 1359 4750 2203 4750 
Q 2588 4750 2994 4692 
Q 3400 4634 3834 4519 
z
" transform="scale(0.015625)"/>
       </defs>
       <use xlink:href="#DejaVuSans-Bold-53"/>
      </g>
     </g>
    </g>
    <g id="xtick_6">
     <g id="line2d_6">
      <path d="M 170.88125 172.422 
L 92.47725 250.826 
" clip-path="url(#pcfefffa9cf)" style="fill: none; stroke: #b0b0b0; stroke-width: 0.8; stroke-linecap: square"/>
     </g>
    </g>
    <g id="xtick_7">
     <g id="line2d_7">
      <path d="M 170.88125 172.422 
L 60.00125 172.422 
" clip-path="url(#pcfefffa9cf)" style="fill: none; stroke: #b0b0b0; stroke-width: 0.8; stroke-linecap: square"/>
     </g>
     <g id="text_4">
      <!-- W -->
      <g transform="translate(45.986406 175.181375) scale(0.1 -0.1)">
       <defs>
        <path id="DejaVuSans-Bold-57" d="M 191 4666 
L 1344 4666 
L 2150 1275 
L 2950 4666 
L 4109 4666 
L 4909 1275 
L 5716 4666 
L 6859 4666 
L 5759 0 
L 4372 0 
L 3525 3547 
L 2688 0 
L 1300 0 
L 191 4666 
z
" transform="scale(0.015625)"/>
       </defs>
       <use xlink:href="#DejaVuSans-Bold-57"/>
      </g>
     </g>
    </g>
    <g id="xtick_8">
     <g id="line2d_8">
      <path d="M 170.88125 172.422 
L 92.47725 94.018 
" clip-path="url(#pcfefffa9cf)" style="fill: none; stroke: #b0b0b0; stroke-width: 0.8; stroke-linecap: square"/>
     </g>
    </g>
   </g>
   <g id="matplotlib.axis_2"/>
   <g id="patch_3">
    <path d="M 170.88125 172.422 
C 170.88125 172.422 170.88125 172.422 170.88125 172.422 
C 170.88125 172.422 170.88125 172.422 170.88125 172.422 
L 170.88125 172.422 
C 170.88125 172.422 170.88125 172.422 170.88125 172.422 
C 170.88125 172.422 170.88125 172.422 170.88125 172.422 
z
" clip-path="url(#pcfefffa9cf)" style="fill: #d4a0a7; stroke: #000000; stroke-width: 0.5; stroke-linejoin: miter"/>
   </g>
   <g id="patch_4">
    <path d="M 170.88125 172.422 
C 170.88125 172.422 170.88125 172.422 170.88125 172.422 
C 170.88125 172.422 170.88125 172.422 170.88125 172.422 
L 170.88125 172.422 
C 170.88125 172.422 170.88125 172.422 170.88125 172.422 
C 170.88125 172.422 170.88125 172.422 170.88125 172.422 
z
" clip-path="url(#pcfefffa9cf)" style="fill: #d4a0a7; stroke: #000000; stroke-width: 0.5; stroke-linejoin: miter"/>
   </g>
   <g id="patch_5">
    <path d="M 170.88125 172.422 
C 170.88125 172.422 170.88125 172.422 170.88125 172.422 
C 170.88125 172.422 170.88125 172.422 170.88125 172.422 
L 170.88125 172.422 
C 170.88125 172.422 170.88125 172.422 170.88125 172.422 
C 170.88125 172.422 170.88125 172.422 170.88125 172.422 
z
" clip-path="url(#pcfefffa9cf)" style="fill: #d4a0a7; stroke: #000000; stroke-width: 0.5; stroke-linejoin: miter"/>
   </g>
   <g id="patch_6">
    <path d="M 170.88125 172.422 
C 170.88125 172.422 170.88125 172.422 170.88125 172.422 
C 170.88125 172.422 170.88125 172.422 170.88125 172.422 
L 181.984501 158.892649 
C 181.541665 158.529223 181.081253 158.187759 180.604928 157.869488 
C 180.128602 157.551218 179.636938 157.256525 179.13171 156.986475 
z
" clip-path="url(#pcfefffa9cf)" style="fill: #d4a0a7; stroke: #000000; stroke-width: 0.5; stroke-linejoin: miter"/>
   </g>
   <g id="patch_7">
    <path d="M 170.88125 172.422 
C 170.88125 172.422 170.88125 172.422 170.88125 172.422 
C 170.88125 172.422 170.88125 172.422 170.88125 172.422 
L 182.675864 162.74241 
C 182.359037 162.356355 182.023446 161.986087 181.670304 161.632946 
C 181.317163 161.279804 180.946895 160.944213 180.56084 160.627386 
z
" clip-path="url(#pcfefffa9cf)" style="fill: #d4a0a7; stroke: #000000; stroke-width: 0.5; stroke-linejoin: miter"/>
   </g>
   <g id="patch_8">
    <path d="M 170.88125 172.422 
C 170.88125 172.422 170.88125 172.422 170.88125 172.422 
C 170.88125 172.422 170.88125 172.422 170.88125 172.422 
L 170.88125 172.422 
C 170.88125 172.422 170.88125 172.422 170.88125 172.422 
C 170.88125 172.422 170.88125 172.422 170.88125 172.422 
z
" clip-path="url(#pcfefffa9cf)" style="fill: #d4a0a7; stroke: #000000; stroke-width: 0.5; stroke-linejoin: miter"/>
   </g>
   <g id="patch_9">
    <path d="M 170.88125 172.422 
C 170.88125 172.422 170.88125 172.422 170.88125 172.422 
C 170.88125 172.422 170.88125 172.422 170.88125 172.422 
L 198.881851 163.928111 
C 198.603833 163.011609 198.280985 162.10931 197.914474 161.224472 
C 197.547962 160.339634 197.138228 159.473325 196.686752 158.628672 
z
" clip-path="url(#pcfefffa9cf)" style="fill: #d4a0a7; stroke: #000000; stroke-width: 0.5; stroke-linejoin: miter"/>
   </g>
   <g id="patch_10">
    <path d="M 170.88125 172.422 
C 170.88125 172.422 170.88125 172.422 170.88125 172.422 
C 170.88125 172.422 170.88125 172.422 170.88125 172.422 
L 214.350406 168.140662 
C 214.210272 166.717851 214.000365 165.302779 213.721446 163.900555 
C 213.442526 162.498332 213.094929 161.110647 212.679911 159.742515 
z
" clip-path="url(#pcfefffa9cf)" style="fill: #d4a0a7; stroke: #000000; stroke-width: 0.5; stroke-linejoin: miter"/>
   </g>
   <g id="patch_11">
    <path d="M 170.88125 172.422 
C 170.88125 172.422 170.88125 172.422 170.88125 172.422 
C 170.88125 172.422 170.88125 172.422 170.88125 172.422 
L 212.502329 176.521319 
C 212.636506 175.158998 212.703716 173.790912 212.703716 172.422 
C 212.703716 171.053088 212.636506 169.685002 212.502329 168.322681 
z
" clip-path="url(#pcfefffa9cf)" style="fill: #d4a0a7; stroke: #000000; stroke-width: 0.5; stroke-linejoin: miter"/>
   </g>
   <g id="patch_12">
    <path d="M 170.88125 172.422 
C 170.88125 172.422 170.88125 172.422 170.88125 172.422 
C 170.88125 172.422 170.88125 172.422 170.88125 172.422 
L 227.020032 189.451513 
C 227.577433 187.614007 228.044282 185.750242 228.418892 183.866949 
C 228.793502 181.983656 229.075422 180.083106 229.263634 178.172163 
z
" clip-path="url(#pcfefffa9cf)" style="fill: #d4a0a7; stroke: #000000; stroke-width: 0.5; stroke-linejoin: miter"/>
   </g>
   <g id="patch_13">
    <path d="M 170.88125 172.422 
C 170.88125 172.422 170.88125 172.422 170.88125 172.422 
C 170.88125 172.422 170.88125 172.422 170.88125 172.422 
L 233.030405 205.641416 
C 234.117726 203.607181 235.104517 201.520788 235.987212 199.389773 
C 236.869908 197.258757 237.647444 195.085688 238.317013 192.878415 
z
" clip-path="url(#pcfefffa9cf)" style="fill: #d4a0a7; stroke: #000000; stroke-width: 0.5; stroke-linejoin: miter"/>
   </g>
   <g id="patch_14">
    <path d="M 170.88125 172.422 
C 170.88125 172.422 170.88125 172.422 170.88125 172.422 
C 170.88125 172.422 170.88125 172.422 170.88125 172.422 
L 212.453285 206.539287 
C 213.569995 205.178572 214.619224 203.76385 215.597183 202.300231 
C 216.575142 200.836612 217.480652 199.32586 218.310442 197.773432 
z
" clip-path="url(#pcfefffa9cf)" style="fill: #d4a0a7; stroke: #000000; stroke-width: 0.5; stroke-linejoin: miter"/>
   </g>
   <g id="patch_15">
    <path d="M 170.88125 172.422 
C 170.88125 172.422 170.88125 172.422 170.88125 172.422 
C 170.88125 172.422 170.88125 172.422 170.88125 172.422 
L 241.222777 258.133399 
C 244.028239 255.831016 246.71897 253.39228 249.28525 250.826 
C 251.85153 248.25972 254.290266 245.568989 256.592649 242.763527 
z
" clip-path="url(#pcfefffa9cf)" style="fill: #d4a0a7; stroke: #000000; stroke-width: 0.5; stroke-linejoin: miter"/>
   </g>
   <g id="patch_16">
    <path d="M 170.88125 172.422 
C 170.88125 172.422 170.88125 172.422 170.88125 172.422 
C 170.88125 172.422 170.88125 172.422 170.88125 172.422 
L 195.318958 218.141736 
C 196.815433 217.341853 198.271734 216.46898 199.682601 215.526269 
C 201.093469 214.583557 202.457201 213.572145 203.768872 212.495684 
z
" clip-path="url(#pcfefffa9cf)" style="fill: #d4a0a7; stroke: #000000; stroke-width: 0.5; stroke-linejoin: miter"/>
   </g>
   <g id="patch_17">
    <path d="M 170.88125 172.422 
C 170.88125 172.422 170.88125 172.422 170.88125 172.422 
C 170.88125 172.422 170.88125 172.422 170.88125 172.422 
L 178.249592 196.712167 
C 179.044645 196.47099 179.827378 196.190924 180.594964 195.872979 
C 181.362549 195.555035 182.114062 195.199596 182.846787 194.807946 
z
" clip-path="url(#pcfefffa9cf)" style="fill: #d4a0a7; stroke: #000000; stroke-width: 0.5; stroke-linejoin: miter"/>
   </g>
   <g id="patch_18">
    <path d="M 170.88125 172.422 
C 170.88125 172.422 170.88125 172.422 170.88125 172.422 
C 170.88125 172.422 170.88125 172.422 170.88125 172.422 
L 172.306261 186.890377 
C 172.779832 186.843735 173.250829 186.773869 173.717548 186.681033 
C 174.184267 186.588197 174.646148 186.472502 175.10152 186.334366 
z
" clip-path="url(#pcfefffa9cf)" style="fill: #d4a0a7; stroke: #000000; stroke-width: 0.5; stroke-linejoin: miter"/>
   </g>
   <g id="patch_19">
    <path d="M 170.88125 172.422 
C 170.88125 172.422 170.88125 172.422 170.88125 172.422 
C 170.88125 172.422 170.88125 172.422 170.88125 172.422 
L 167.668767 205.038888 
C 168.736366 205.144038 169.808485 205.196708 170.88125 205.196708 
C 171.954015 205.196708 173.026134 205.144038 174.093733 205.038888 
z
" clip-path="url(#pcfefffa9cf)" style="fill: #d4a0a7; stroke: #000000; stroke-width: 0.5; stroke-linejoin: miter"/>
   </g>
   <g id="patch_20">
    <path d="M 170.88125 172.422 
C 170.88125 172.422 170.88125 172.422 170.88125 172.422 
C 170.88125 172.422 170.88125 172.422 170.88125 172.422 
L 166.732951 186.09711 
C 167.180558 186.23289 167.634561 186.346612 168.093321 186.437865 
C 168.552081 186.529118 169.015045 186.597792 169.480541 186.643639 
z
" clip-path="url(#pcfefffa9cf)" style="fill: #d4a0a7; stroke: #000000; stroke-width: 0.5; stroke-linejoin: miter"/>
   </g>
   <g id="patch_21">
    <path d="M 170.88125 172.422 
C 170.88125 172.422 170.88125 172.422 170.88125 172.422 
C 170.88125 172.422 170.88125 172.422 170.88125 172.422 
L 140.779318 228.738754 
C 142.622649 229.724035 144.513244 230.61822 146.444274 231.418079 
C 148.375304 232.217937 150.344441 232.922506 152.344572 233.529239 
z
" clip-path="url(#pcfefffa9cf)" style="fill: #d4a0a7; stroke: #000000; stroke-width: 0.5; stroke-linejoin: miter"/>
   </g>
   <g id="patch_22">
    <path d="M 170.88125 172.422 
C 170.88125 172.422 170.88125 172.422 170.88125 172.422 
C 170.88125 172.422 170.88125 172.422 170.88125 172.422 
L 162.4496 182.695996 
C 162.785883 182.971976 163.135513 183.23128 163.497228 183.47297 
C 163.858943 183.71466 164.232306 183.938445 164.615969 184.143517 
z
" clip-path="url(#pcfefffa9cf)" style="fill: #d4a0a7; stroke: #000000; stroke-width: 0.5; stroke-linejoin: miter"/>
   </g>
   <g id="patch_23">
    <path d="M 170.88125 172.422 
C 170.88125 172.422 170.88125 172.422 170.88125 172.422 
C 170.88125 172.422 170.88125 172.422 170.88125 172.422 
L 170.88125 172.422 
C 170.88125 172.422 170.88125 172.422 170.88125 172.422 
C 170.88125 172.422 170.88125 172.422 170.88125 172.422 
z
" clip-path="url(#pcfefffa9cf)" style="fill: #d4a0a7; stroke: #000000; stroke-width: 0.5; stroke-linejoin: miter"/>
   </g>
   <g id="patch_24">
    <path d="M 170.88125 172.422 
C 170.88125 172.422 170.88125 172.422 170.88125 172.422 
C 170.88125 172.422 170.88125 172.422 170.88125 172.422 
L 170.88125 172.422 
C 170.88125 172.422 170.88125 172.422 170.88125 172.422 
C 170.88125 172.422 170.88125 172.422 170.88125 172.422 
z
" clip-path="url(#pcfefffa9cf)" style="fill: #d4a0a7; stroke: #000000; stroke-width: 0.5; stroke-linejoin: miter"/>
   </g>
   <g id="patch_25">
    <path d="M 170.88125 172.422 
C 170.88125 172.422 170.88125 172.422 170.88125 172.422 
C 170.88125 172.422 170.88125 172.422 170.88125 172.422 
L 170.88125 172.422 
C 170.88125 172.422 170.88125 172.422 170.88125 172.422 
C 170.88125 172.422 170.88125 172.422 170.88125 172.422 
z
" clip-path="url(#pcfefffa9cf)" style="fill: #d4a0a7; stroke: #000000; stroke-width: 0.5; stroke-linejoin: miter"/>
   </g>
   <g id="patch_26">
    <path d="M 170.88125 172.422 
C 170.88125 172.422 170.88125 172.422 170.88125 172.422 
C 170.88125 172.422 170.88125 172.422 170.88125 172.422 
L 170.88125 172.422 
C 170.88125 172.422 170.88125 172.422 170.88125 172.422 
C 170.88125 172.422 170.88125 172.422 170.88125 172.422 
z
" clip-path="url(#pcfefffa9cf)" style="fill: #d4a0a7; stroke: #000000; stroke-width: 0.5; stroke-linejoin: miter"/>
   </g>
   <g id="patch_27">
    <path d="M 170.88125 172.422 
C 170.88125 172.422 170.88125 172.422 170.88125 172.422 
C 170.88125 172.422 170.88125 172.422 170.88125 172.422 
L 170.88125 172.422 
C 170.88125 172.422 170.88125 172.422 170.88125 172.422 
C 170.88125 172.422 170.88125 172.422 170.88125 172.422 
z
" clip-path="url(#pcfefffa9cf)" style="fill: #d4a0a7; stroke: #000000; stroke-width: 0.5; stroke-linejoin: miter"/>
   </g>
   <g id="patch_28">
    <path d="M 170.88125 172.422 
C 170.88125 172.422 170.88125 172.422 170.88125 172.422 
C 170.88125 172.422 170.88125 172.422 170.88125 172.422 
L 170.88125 172.422 
C 170.88125 172.422 170.88125 172.422 170.88125 172.422 
C 170.88125 172.422 170.88125 172.422 170.88125 172.422 
z
" clip-path="url(#pcfefffa9cf)" style="fill: #d4a0a7; stroke: #000000; stroke-width: 0.5; stroke-linejoin: miter"/>
   </g>
   <g id="patch_29">
    <path d="M 170.88125 172.422 
C 170.88125 172.422 170.88125 172.422 170.88125 172.422 
C 170.88125 172.422 170.88125 172.422 170.88125 172.422 
L 170.88125 172.422 
C 170.88125 172.422 170.88125 172.422 170.88125 172.422 
C 170.88125 172.422 170.88125 172.422 170.88125 172.422 
z
" clip-path="url(#pcfefffa9cf)" style="fill: #d4a0a7; stroke: #000000; stroke-width: 0.5; stroke-linejoin: miter"/>
   </g>
   <g id="patch_30">
    <path d="M 170.88125 172.422 
C 170.88125 172.422 170.88125 172.422 170.88125 172.422 
C 170.88125 172.422 170.88125 172.422 170.88125 172.422 
L 170.88125 172.422 
C 170.88125 172.422 170.88125 172.422 170.88125 172.422 
C 170.88125 172.422 170.88125 172.422 170.88125 172.422 
z
" clip-path="url(#pcfefffa9cf)" style="fill: #d4a0a7; stroke: #000000; stroke-width: 0.5; stroke-linejoin: miter"/>
   </g>
   <g id="patch_31">
    <path d="M 170.88125 172.422 
C 170.88125 172.422 170.88125 172.422 170.88125 172.422 
C 170.88125 172.422 170.88125 172.422 170.88125 172.422 
L 170.88125 172.422 
C 170.88125 172.422 170.88125 172.422 170.88125 172.422 
C 170.88125 172.422 170.88125 172.422 170.88125 172.422 
z
" clip-path="url(#pcfefffa9cf)" style="fill: #d4a0a7; stroke: #000000; stroke-width: 0.5; stroke-linejoin: miter"/>
   </g>
   <g id="patch_32">
    <path d="M 170.88125 172.422 
C 170.88125 172.422 170.88125 172.422 170.88125 172.422 
C 170.88125 172.422 170.88125 172.422 170.88125 172.422 
L 170.88125 172.422 
C 170.88125 172.422 170.88125 172.422 170.88125 172.422 
C 170.88125 172.422 170.88125 172.422 170.88125 172.422 
z
" clip-path="url(#pcfefffa9cf)" style="fill: #d4a0a7; stroke: #000000; stroke-width: 0.5; stroke-linejoin: miter"/>
   </g>
   <g id="patch_33">
    <path d="M 170.88125 172.422 
C 170.88125 172.422 170.88125 172.422 170.88125 172.422 
C 170.88125 172.422 170.88125 172.422 170.88125 172.422 
L 170.88125 172.422 
C 170.88125 172.422 170.88125 172.422 170.88125 172.422 
C 170.88125 172.422 170.88125 172.422 170.88125 172.422 
z
" clip-path="url(#pcfefffa9cf)" style="fill: #d4a0a7; stroke: #000000; stroke-width: 0.5; stroke-linejoin: miter"/>
   </g>
   <g id="patch_34">
    <path d="M 170.88125 172.422 
C 170.88125 172.422 170.88125 172.422 170.88125 172.422 
C 170.88125 172.422 170.88125 172.422 170.88125 172.422 
L 170.88125 172.422 
C 170.88125 172.422 170.88125 172.422 170.88125 172.422 
C 170.88125 172.422 170.88125 172.422 170.88125 172.422 
z
" clip-path="url(#pcfefffa9cf)" style="fill: #d4a0a7; stroke: #000000; stroke-width: 0.5; stroke-linejoin: miter"/>
   </g>
   <g id="PathCollection_1">
    <defs>
     <path id="ma813c0c3e4" d="M 0.193618 7.414054 
L 0.193618 7.414054 
C 0.054922 7.414054 -0.078235 7.358899 -0.176308 7.260826 
C -0.274381 7.162753 -0.329536 7.029596 -0.329536 6.890901 
L -0.329536 5.365008 
L -1.528416 6.56393 
L -1.528416 6.56393 
C -1.577018 6.612704 -1.634775 6.651408 -1.698366 6.677814 
C -1.761958 6.704221 -1.830141 6.717815 -1.898997 6.717815 
C -1.967853 6.717815 -2.036037 6.704221 -2.099628 6.677814 
C -2.163219 6.651408 -2.220976 6.612704 -2.269578 6.56393 
L -2.269578 6.56393 
C -2.318353 6.515327 -2.357056 6.457571 -2.383463 6.393979 
C -2.409869 6.330388 -2.423463 6.262205 -2.423463 6.193348 
C -2.423463 6.124492 -2.409869 6.056309 -2.383463 5.992718 
C -2.357056 5.929126 -2.318353 5.87137 -2.269578 5.822767 
L -0.329536 3.884106 
L -0.329536 0.820937 
L -2.98067 2.351538 
L -3.691824 5.001416 
L -3.691824 5.001416 
C -3.727584 5.135411 -3.815199 5.249836 -3.93523 5.319305 
C -4.055261 5.388775 -4.198123 5.407741 -4.332122 5.371997 
L -4.332122 5.371997 
C -4.466126 5.336237 -4.580558 5.248616 -4.650029 5.128576 
C -4.719499 5.008535 -4.73846 4.865662 -4.702703 4.731657 
L -4.262647 3.092721 
L -5.585535 3.855668 
L -5.585535 3.855668 
C -5.645013 3.890144 -5.710708 3.912561 -5.778854 3.921634 
C -5.847001 3.930706 -5.916272 3.926258 -5.982698 3.908543 
C -6.049125 3.890828 -6.111412 3.860192 -6.165991 3.818391 
C -6.220571 3.77659 -6.266379 3.724437 -6.300791 3.664922 
L -6.300791 3.664922 
C -6.335212 3.605364 -6.35755 3.539597 -6.366524 3.471396 
C -6.375498 3.403194 -6.370933 3.333888 -6.35309 3.267452 
C -6.335248 3.201017 -6.304476 3.138749 -6.26254 3.08422 
C -6.220605 3.029692 -6.168323 2.983966 -6.108695 2.949666 
L -4.785807 2.186762 
L -6.424743 1.746706 
L -6.424743 1.746706 
C -6.558747 1.710946 -6.673179 1.623325 -6.74265 1.503284 
C -6.81212 1.383244 -6.831081 1.240371 -6.795324 1.106366 
L -6.795324 1.106366 
C -6.777471 1.039969 -6.746703 0.977739 -6.704784 0.923241 
C -6.662864 0.868744 -6.61061 0.823041 -6.551015 0.788752 
C -6.491421 0.754464 -6.425647 0.732257 -6.357465 0.723406 
C -6.289282 0.714554 -6.220019 0.71923 -6.153645 0.737166 
L -3.505232 1.44698 
L -0.852424 -0.08496 
L -3.503767 -1.615666 
L -6.153645 -0.905851 
L -6.153645 -0.905851 
C -6.22011 -0.887939 -6.289462 -0.883321 -6.357716 -0.892262 
C -6.42597 -0.901202 -6.491793 -0.923527 -6.551403 -0.957953 
C -6.611013 -0.992379 -6.663247 -1.038234 -6.705103 -1.092883 
C -6.746958 -1.147533 -6.777619 -1.209911 -6.795324 -1.276432 
L -6.795324 -1.276432 
C -6.831068 -1.410431 -6.812101 -1.553293 -6.742632 -1.673324 
C -6.673162 -1.793355 -6.558738 -1.88097 -6.424743 -1.91673 
L -4.785807 -2.355447 
L -6.108695 -3.119732 
L -6.108695 -3.119732 
C -6.228699 -3.188976 -6.316415 -3.303132 -6.352417 -3.436921 
C -6.388419 -3.57071 -6.369839 -3.713469 -6.300791 -3.833586 
L -6.300791 -3.833586 
C -6.266491 -3.893214 -6.220765 -3.945496 -6.166237 -3.987431 
C -6.111708 -4.029367 -6.04944 -4.060139 -5.983005 -4.077981 
C -5.91657 -4.095823 -5.847263 -4.100389 -5.779062 -4.091415 
C -5.71086 -4.082441 -5.645094 -4.060102 -5.585535 -4.025682 
L -4.262647 -3.261396 
L -4.702703 -4.900332 
L -4.702703 -4.900332 
C -4.73846 -5.034337 -4.719499 -5.17721 -4.650029 -5.29725 
C -4.580558 -5.417291 -4.466126 -5.504912 -4.332122 -5.540672 
L -4.332122 -5.540672 
C -4.19831 -5.576464 -4.055613 -5.557686 -3.935617 -5.488496 
C -3.81562 -5.419305 -3.727882 -5.305212 -3.691824 -5.171472 
L -2.982009 -2.521594 
L -0.329411 -0.990302 
L -0.329411 -4.051588 
L -2.269453 -5.991589 
L -2.269453 -5.991589 
C -2.318227 -6.040191 -2.356931 -6.097947 -2.383337 -6.161539 
C -2.409744 -6.22513 -2.423338 -6.293314 -2.423338 -6.36217 
C -2.423338 -6.431026 -2.409744 -6.499209 -2.383337 -6.5628 
C -2.356931 -6.626392 -2.318227 -6.684149 -2.269453 -6.732751 
L -2.269453 -6.732751 
C -2.22085 -6.781526 -2.163094 -6.820229 -2.099502 -6.846635 
C -2.035911 -6.873042 -1.967728 -6.886636 -1.898871 -6.886636 
C -1.830015 -6.886636 -1.761832 -6.873042 -1.698241 -6.846635 
C -1.634649 -6.820229 -1.576893 -6.781526 -1.52829 -6.732751 
L -0.329411 -5.533829 
L -0.329411 -7.059722 
L -0.329411 -7.059722 
C -0.329411 -7.198418 -0.274255 -7.331575 -0.176182 -7.429647 
C -0.07811 -7.52772 0.055047 -7.582875 0.193743 -7.582875 
L 0.193743 -7.582875 
C 0.332439 -7.582875 0.465596 -7.52772 0.563669 -7.429647 
C 0.661741 -7.331575 0.716897 -7.198418 0.716897 -7.059722 
L 0.716897 -5.533829 
L 1.915777 -6.732751 
L 1.915777 -6.732751 
C 1.964379 -6.781526 2.022136 -6.820229 2.085727 -6.846635 
C 2.149318 -6.873042 2.217502 -6.886636 2.286358 -6.886636 
C 2.355214 -6.886636 2.423397 -6.873042 2.486989 -6.846635 
C 2.55058 -6.820229 2.608337 -6.781526 2.656939 -6.732751 
L 2.656939 -6.732751 
C 2.705714 -6.684149 2.744417 -6.626392 2.770823 -6.5628 
C 2.79723 -6.499209 2.810824 -6.431026 2.810824 -6.36217 
C 2.810824 -6.293314 2.79723 -6.22513 2.770823 -6.161539 
C 2.744417 -6.097947 2.705714 -6.040191 2.656939 -5.991589 
L 0.716897 -4.051588 
L 0.716897 -0.991139 
L 3.369495 -2.522954 
L 4.07931 -5.171367 
L 4.07931 -5.171367 
C 4.115368 -5.305107 4.203106 -5.4192 4.323103 -5.488391 
C 4.4431 -5.557582 4.585797 -5.576359 4.719608 -5.540567 
L 4.719608 -5.540567 
C 4.853612 -5.504807 4.968045 -5.417186 5.037515 -5.297146 
C 5.106986 -5.177105 5.125946 -5.034232 5.090189 -4.900227 
L 4.650133 -3.262673 
L 5.973022 -4.025577 
L 5.973022 -4.025577 
C 6.03258 -4.059998 6.098346 -4.082336 6.166548 -4.09131 
C 6.234749 -4.100284 6.304056 -4.095719 6.370491 -4.077876 
C 6.436926 -4.060034 6.499194 -4.029262 6.553723 -3.987327 
C 6.608252 -3.945391 6.653978 -3.893109 6.688277 -3.833481 
L 6.688277 -3.833481 
C 6.757325 -3.713365 6.775905 -3.570605 6.739903 -3.436816 
C 6.703901 -3.303027 6.616186 -3.188871 6.496181 -3.119628 
L 5.173293 -2.355342 
L 6.812229 -1.916625 
L 6.812229 -1.916625 
C 6.946224 -1.880865 7.060649 -1.79325 7.130118 -1.67322 
C 7.199588 -1.553189 7.218554 -1.410326 7.18281 -1.276327 
L 7.18281 -1.276327 
C 7.165106 -1.209806 7.134445 -1.147429 7.092589 -1.092779 
C 7.050733 -1.038129 6.998499 -0.992274 6.938889 -0.957848 
C 6.879279 -0.923422 6.813456 -0.901098 6.745202 -0.892157 
C 6.676949 -0.883217 6.607597 -0.887835 6.541131 -0.905746 
L 3.891253 -1.615561 
L 1.239492 -0.084604 
L 3.892718 1.447085 
L 6.541131 0.73727 
L 6.541131 0.73727 
C 6.674948 0.701466 6.817656 0.720237 6.937662 0.789429 
C 7.057669 0.858621 7.145413 0.972721 7.181471 1.10647 
L 7.181471 1.10647 
C 7.217274 1.240293 7.198497 1.383006 7.129297 1.503014 
C 7.060096 1.623021 6.945986 1.710762 6.812229 1.74681 
L 5.173293 2.186866 
L 6.496181 2.949771 
L 6.496181 2.949771 
C 6.555697 2.984183 6.607849 3.029991 6.649651 3.08457 
C 6.691452 3.13915 6.722088 3.201437 6.739803 3.267863 
C 6.757517 3.33429 6.761966 3.403561 6.752893 3.471707 
C 6.743821 3.539854 6.721404 3.605549 6.686927 3.665026 
L 6.686927 3.665026 
C 6.617458 3.784813 6.503196 3.87225 6.369416 3.907994 
C 6.235636 3.943739 6.092989 3.924946 5.973032 3.855772 
L 4.650144 3.091487 
L 5.08886 4.731783 
L 5.08886 4.731783 
C 5.124664 4.865606 5.105887 5.008319 5.036686 5.128326 
C 4.967486 5.248334 4.853376 5.336074 4.719619 5.372123 
L 4.719619 5.372123 
C 4.585619 5.407867 4.442757 5.3889 4.322726 5.319431 
C 4.202695 5.249961 4.115081 5.135537 4.07932 5.001542 
L 3.368166 2.351664 
L 0.717033 0.821063 
L 0.717033 3.884232 
L 2.657075 5.822893 
L 2.657075 5.822893 
C 2.70585 5.871495 2.744553 5.929252 2.770959 5.992843 
C 2.797366 6.056435 2.81096 6.124618 2.81096 6.193474 
C 2.81096 6.26233 2.797366 6.330514 2.770959 6.394105 
C 2.744553 6.457696 2.70585 6.515453 2.657075 6.564055 
L 2.657075 6.564055 
C 2.608473 6.61283 2.550716 6.651533 2.487125 6.67794 
C 2.423533 6.704346 2.35535 6.71794 2.286494 6.71794 
C 2.217638 6.71794 2.149454 6.704346 2.085863 6.67794 
C 2.022272 6.651533 1.964515 6.61283 1.915913 6.564055 
L 0.717033 5.365133 
L 0.717033 6.891026 
L 0.717033 6.891026 
C 0.717033 7.029722 0.661877 7.162879 0.563805 7.260952 
C 0.465732 7.359024 0.332575 7.41418 0.193879 7.41418 
L 0.193618 7.414054 
z
"/>
    </defs>
    <g clip-path="url(#pcfefffa9cf)">
     <use xlink:href="#ma813c0c3e4" x="240.60679" y="232.553036" style="fill: #0000ff; fill-opacity: 0.7"/>
    </g>
   </g>
   <g id="patch_35">
    <path d="M 170.88125 61.542 
C 156.320622 61.542 141.901577 64.410126 128.449311 69.982237 
C 114.997045 75.554349 102.773169 83.722081 92.47725 94.018 
C 82.181331 104.313919 74.013599 116.537795 68.441487 129.990061 
C 62.869376 143.442327 60.00125 157.861372 60.00125 172.422 
C 60.00125 186.982628 62.869376 201.401673 68.441487 214.853939 
C 74.013599 228.306205 82.181331 240.530081 92.47725 250.826 
C 102.773169 261.121919 114.997045 269.289651 128.449311 274.861763 
C 141.901577 280.433874 156.320622 283.302 170.88125 283.302 
C 185.441878 283.302 199.860923 280.433874 213.313189 274.861763 
C 226.765455 269.289651 238.989331 261.121919 249.28525 250.826 
C 259.581169 240.530081 267.748901 228.306205 273.321013 214.853939 
C 278.893124 201.401673 281.76125 186.982628 281.76125 172.422 
C 281.76125 157.861372 278.893124 143.442327 273.321013 129.990061 
C 267.748901 116.537795 259.581169 104.313919 249.28525 94.018 
C 238.989331 83.722081 226.765455 75.554349 213.313189 69.982237 
C 199.860923 64.410126 185.441878 61.542 170.88125 61.542 
" style="fill: none; stroke: #000000; stroke-width: 0.8; stroke-linejoin: miter; stroke-linecap: square"/>
   </g>
   <g id="text_5">
    <!-- 4 runs -->
    <g style="fill: #95a5a6" transform="translate(47.00293 56.142118) scale(0.1 -0.1)">
     <defs>
      <path id="DejaVuSans-34" d="M 2419 4116 
L 825 1625 
L 2419 1625 
L 2419 4116 
z
M 2253 4666 
L 3047 4666 
L 3047 1625 
L 3713 1625 
L 3713 1100 
L 3047 1100 
L 3047 0 
L 2419 0 
L 2419 1100 
L 313 1100 
L 313 1709 
L 2253 4666 
z
" transform="scale(0.015625)"/>
      <path id="DejaVuSans-20" transform="scale(0.015625)"/>
      <path id="DejaVuSans-72" d="M 2631 2963 
Q 2534 3019 2420 3045 
Q 2306 3072 2169 3072 
Q 1681 3072 1420 2755 
Q 1159 2438 1159 1844 
L 1159 0 
L 581 0 
L 581 3500 
L 1159 3500 
L 1159 2956 
Q 1341 3275 1631 3429 
Q 1922 3584 2338 3584 
Q 2397 3584 2469 3576 
Q 2541 3569 2628 3553 
L 2631 2963 
z
" transform="scale(0.015625)"/>
      <path id="DejaVuSans-75" d="M 544 1381 
L 544 3500 
L 1119 3500 
L 1119 1403 
Q 1119 906 1312 657 
Q 1506 409 1894 409 
Q 2359 409 2629 706 
Q 2900 1003 2900 1516 
L 2900 3500 
L 3475 3500 
L 3475 0 
L 2900 0 
L 2900 538 
Q 2691 219 2414 64 
Q 2138 -91 1772 -91 
Q 1169 -91 856 284 
Q 544 659 544 1381 
z
M 1991 3584 
L 1991 3584 
z
" transform="scale(0.015625)"/>
      <path id="DejaVuSans-6e" d="M 3513 2113 
L 3513 0 
L 2938 0 
L 2938 2094 
Q 2938 2591 2744 2837 
Q 2550 3084 2163 3084 
Q 1697 3084 1428 2787 
Q 1159 2491 1159 1978 
L 1159 0 
L 581 0 
L 581 3500 
L 1159 3500 
L 1159 2956 
Q 1366 3272 1645 3428 
Q 1925 3584 2291 3584 
Q 2894 3584 3203 3211 
Q 3513 2838 3513 2113 
z
" transform="scale(0.015625)"/>
      <path id="DejaVuSans-73" d="M 2834 3397 
L 2834 2853 
Q 2591 2978 2328 3040 
Q 2066 3103 1784 3103 
Q 1356 3103 1142 2972 
Q 928 2841 928 2578 
Q 928 2378 1081 2264 
Q 1234 2150 1697 2047 
L 1894 2003 
Q 2506 1872 2764 1633 
Q 3022 1394 3022 966 
Q 3022 478 2636 193 
Q 2250 -91 1575 -91 
Q 1294 -91 989 -36 
Q 684 19 347 128 
L 347 722 
Q 666 556 975 473 
Q 1284 391 1588 391 
Q 1994 391 2212 530 
Q 2431 669 2431 922 
Q 2431 1156 2273 1281 
Q 2116 1406 1581 1522 
L 1381 1569 
Q 847 1681 609 1914 
Q 372 2147 372 2553 
Q 372 3047 722 3315 
Q 1072 3584 1716 3584 
Q 2034 3584 2315 3537 
Q 2597 3491 2834 3397 
z
" transform="scale(0.015625)"/>
     </defs>
     <use xlink:href="#DejaVuSans-34"/>
     <use xlink:href="#DejaVuSans-20" x="63.623047"/>
     <use xlink:href="#DejaVuSans-72" x="95.410156"/>
     <use xlink:href="#DejaVuSans-75" x="136.523438"/>
     <use xlink:href="#DejaVuSans-6e" x="199.902344"/>
     <use xlink:href="#DejaVuSans-73" x="263.28125"/>
    </g>
    <!-- 1 lifts -->
    <g style="fill: #95a5a6" transform="translate(47.00293 67.33993) scale(0.1 -0.1)">
     <defs>
      <path id="DejaVuSans-31" d="M 794 531 
L 1825 531 
L 1825 4091 
L 703 3866 
L 703 4441 
L 1819 4666 
L 2450 4666 
L 2450 531 
L 3481 531 
L 3481 0 
L 794 0 
L 794 531 
z
" transform="scale(0.015625)"/>
      <path id="DejaVuSans-6c" d="M 603 4863 
L 1178 4863 
L 1178 0 
L 603 0 
L 603 4863 
z
" transform="scale(0.015625)"/>
      <path id="DejaVuSans-69" d="M 603 3500 
L 1178 3500 
L 1178 0 
L 603 0 
L 603 3500 
z
M 603 4863 
L 1178 4863 
L 1178 4134 
L 603 4134 
L 603 4863 
z
" transform="scale(0.015625)"/>
      <path id="DejaVuSans-66" d="M 2375 4863 
L 2375 4384 
L 1825 4384 
Q 1516 4384 1395 4259 
Q 1275 4134 1275 3809 
L 1275 3500 
L 2222 3500 
L 2222 3053 
L 1275 3053 
L 1275 0 
L 697 0 
L 697 3053 
L 147 3053 
L 147 3500 
L 697 3500 
L 697 3744 
Q 697 4328 969 4595 
Q 1241 4863 1831 4863 
L 2375 4863 
z
" transform="scale(0.015625)"/>
      <path id="DejaVuSans-74" d="M 1172 4494 
L 1172 3500 
L 2356 3500 
L 2356 3053 
L 1172 3053 
L 1172 1153 
Q 1172 725 1289 603 
Q 1406 481 1766 481 
L 2356 481 
L 2356 0 
L 1766 0 
Q 1100 0 847 248 
Q 594 497 594 1153 
L 594 3053 
L 172 3053 
L 172 3500 
L 594 3500 
L 594 4494 
L 1172 4494 
z
" transform="scale(0.015625)"/>
     </defs>
     <use xlink:href="#DejaVuSans-31"/>
     <use xlink:href="#DejaVuSans-20" x="63.623047"/>
     <use xlink:href="#DejaVuSans-6c" x="95.410156"/>
     <use xlink:href="#DejaVuSans-69" x="123.193359"/>
     <use xlink:href="#DejaVuSans-66" x="150.976562"/>
     <use xlink:href="#DejaVuSans-74" x="184.431641"/>
     <use xlink:href="#DejaVuSans-73" x="223.640625"/>
    </g>
   </g>
   <g id="text_6">
    <!-- 739 m -->
    <g style="fill: #95a5a6" transform="translate(263.93457 56.142118) scale(0.1 -0.1)">
     <defs>
      <path id="DejaVuSans-37" d="M 525 4666 
L 3525 4666 
L 3525 4397 
L 1831 0 
L 1172 0 
L 2766 4134 
L 525 4134 
L 525 4666 
z
" transform="scale(0.015625)"/>
      <path id="DejaVuSans-33" d="M 2597 2516 
Q 3050 2419 3304 2112 
Q 3559 1806 3559 1356 
Q 3559 666 3084 287 
Q 2609 -91 1734 -91 
Q 1441 -91 1130 -33 
Q 819 25 488 141 
L 488 750 
Q 750 597 1062 519 
Q 1375 441 1716 441 
Q 2309 441 2620 675 
Q 2931 909 2931 1356 
Q 2931 1769 2642 2001 
Q 2353 2234 1838 2234 
L 1294 2234 
L 1294 2753 
L 1863 2753 
Q 2328 2753 2575 2939 
Q 2822 3125 2822 3475 
Q 2822 3834 2567 4026 
Q 2313 4219 1838 4219 
Q 1578 4219 1281 4162 
Q 984 4106 628 3988 
L 628 4550 
Q 988 4650 1302 4700 
Q 1616 4750 1894 4750 
Q 2613 4750 3031 4423 
Q 3450 4097 3450 3541 
Q 3450 3153 3228 2886 
Q 3006 2619 2597 2516 
z
" transform="scale(0.015625)"/>
      <path id="DejaVuSans-39" d="M 703 97 
L 703 672 
Q 941 559 1184 500 
Q 1428 441 1663 441 
Q 2288 441 2617 861 
Q 2947 1281 2994 2138 
Q 2813 1869 2534 1725 
Q 2256 1581 1919 1581 
Q 1219 1581 811 2004 
Q 403 2428 403 3163 
Q 403 3881 828 4315 
Q 1253 4750 1959 4750 
Q 2769 4750 3195 4129 
Q 3622 3509 3622 2328 
Q 3622 1225 3098 567 
Q 2575 -91 1691 -91 
Q 1453 -91 1209 -44 
Q 966 3 703 97 
z
M 1959 2075 
Q 2384 2075 2632 2365 
Q 2881 2656 2881 3163 
Q 2881 3666 2632 3958 
Q 2384 4250 1959 4250 
Q 1534 4250 1286 3958 
Q 1038 3666 1038 3163 
Q 1038 2656 1286 2365 
Q 1534 2075 1959 2075 
z
" transform="scale(0.015625)"/>
      <path id="DejaVuSans-202f" transform="scale(0.015625)"/>
      <path id="DejaVuSans-6d" d="M 3328 2828 
Q 3544 3216 3844 3400 
Q 4144 3584 4550 3584 
Q 5097 3584 5394 3201 
Q 5691 2819 5691 2113 
L 5691 0 
L 5113 0 
L 5113 2094 
Q 5113 2597 4934 2840 
Q 4756 3084 4391 3084 
Q 3944 3084 3684 2787 
Q 3425 2491 3425 1978 
L 3425 0 
L 2847 0 
L 2847 2094 
Q 2847 2600 2669 2842 
Q 2491 3084 2119 3084 
Q 1678 3084 1418 2786 
Q 1159 2488 1159 1978 
L 1159 0 
L 581 0 
L 581 3500 
L 1159 3500 
L 1159 2956 
Q 1356 3278 1631 3431 
Q 1906 3584 2284 3584 
Q 2666 3584 2933 3390 
Q 3200 3197 3328 2828 
z
" transform="scale(0.015625)"/>
     </defs>
     <use xlink:href="#DejaVuSans-37"/>
     <use xlink:href="#DejaVuSans-33" x="63.623047"/>
     <use xlink:href="#DejaVuSans-39" x="127.246094"/>
     <use xlink:href="#DejaVuSans-202f" x="190.869141"/>
     <use xlink:href="#DejaVuSans-6d" x="210.839844"/>
    </g>
    <!-- skiable -->
    <g style="fill: #95a5a6" transform="translate(259.573632 67.33993) scale(0.1 -0.1)">
     <defs>
      <path id="DejaVuSans-6b" d="M 581 4863 
L 1159 4863 
L 1159 1991 
L 2875 3500 
L 3609 3500 
L 1753 1863 
L 3688 0 
L 2938 0 
L 1159 1709 
L 1159 0 
L 581 0 
L 581 4863 
z
" transform="scale(0.015625)"/>
      <path id="DejaVuSans-61" d="M 2194 1759 
Q 1497 1759 1228 1600 
Q 959 1441 959 1056 
Q 959 750 1161 570 
Q 1363 391 1709 391 
Q 2188 391 2477 730 
Q 2766 1069 2766 1631 
L 2766 1759 
L 2194 1759 
z
M 3341 1997 
L 3341 0 
L 2766 0 
L 2766 531 
Q 2569 213 2275 61 
Q 1981 -91 1556 -91 
Q 1019 -91 701 211 
Q 384 513 384 1019 
Q 384 1609 779 1909 
Q 1175 2209 1959 2209 
L 2766 2209 
L 2766 2266 
Q 2766 2663 2505 2880 
Q 2244 3097 1772 3097 
Q 1472 3097 1187 3025 
Q 903 2953 641 2809 
L 641 3341 
Q 956 3463 1253 3523 
Q 1550 3584 1831 3584 
Q 2591 3584 2966 3190 
Q 3341 2797 3341 1997 
z
" transform="scale(0.015625)"/>
      <path id="DejaVuSans-62" d="M 3116 1747 
Q 3116 2381 2855 2742 
Q 2594 3103 2138 3103 
Q 1681 3103 1420 2742 
Q 1159 2381 1159 1747 
Q 1159 1113 1420 752 
Q 1681 391 2138 391 
Q 2594 391 2855 752 
Q 3116 1113 3116 1747 
z
M 1159 2969 
Q 1341 3281 1617 3432 
Q 1894 3584 2278 3584 
Q 2916 3584 3314 3078 
Q 3713 2572 3713 1747 
Q 3713 922 3314 415 
Q 2916 -91 2278 -91 
Q 1894 -91 1617 61 
Q 1341 213 1159 525 
L 1159 0 
L 581 0 
L 581 4863 
L 1159 4863 
L 1159 2969 
z
" transform="scale(0.015625)"/>
      <path id="DejaVuSans-65" d="M 3597 1894 
L 3597 1613 
L 953 1613 
Q 991 1019 1311 708 
Q 1631 397 2203 397 
Q 2534 397 2845 478 
Q 3156 559 3463 722 
L 3463 178 
Q 3153 47 2828 -22 
Q 2503 -91 2169 -91 
Q 1331 -91 842 396 
Q 353 884 353 1716 
Q 353 2575 817 3079 
Q 1281 3584 2069 3584 
Q 2775 3584 3186 3129 
Q 3597 2675 3597 1894 
z
M 3022 2063 
Q 3016 2534 2758 2815 
Q 2500 3097 2075 3097 
Q 1594 3097 1305 2825 
Q 1016 2553 972 2059 
L 3022 2063 
z
" transform="scale(0.015625)"/>
     </defs>
     <use xlink:href="#DejaVuSans-73"/>
     <use xlink:href="#DejaVuSans-6b" x="52.099609"/>
     <use xlink:href="#DejaVuSans-69" x="110.009766"/>
     <use xlink:href="#DejaVuSans-61" x="137.792969"/>
     <use xlink:href="#DejaVuSans-62" x="199.072266"/>
     <use xlink:href="#DejaVuSans-6c" x="262.548828"/>
     <use xlink:href="#DejaVuSans-65" x="290.332031"/>
    </g>
    <!-- vert -->
    <g style="fill: #95a5a6" transform="translate(274.656445 78.537743) scale(0.1 -0.1)">
     <defs>
      <path id="DejaVuSans-76" d="M 191 3500 
L 800 3500 
L 1894 563 
L 2988 3500 
L 3597 3500 
L 2284 0 
L 1503 0 
L 191 3500 
z
" transform="scale(0.015625)"/>
     </defs>
     <use xlink:href="#DejaVuSans-76"/>
     <use xlink:href="#DejaVuSans-65" x="59.179688"/>
     <use xlink:href="#DejaVuSans-72" x="120.703125"/>
     <use xlink:href="#DejaVuSans-74" x="161.816406"/>
    </g>
   </g>
   <g id="text_7">
    <!-- affinity: -->
    <g style="fill: #95a5a6" transform="translate(47.00293 271.825007) scale(0.1 -0.1)">
     <defs>
      <path id="DejaVuSans-79" d="M 2059 -325 
Q 1816 -950 1584 -1140 
Q 1353 -1331 966 -1331 
L 506 -1331 
L 506 -850 
L 844 -850 
Q 1081 -850 1212 -737 
Q 1344 -625 1503 -206 
L 1606 56 
L 191 3500 
L 800 3500 
L 1894 763 
L 2988 3500 
L 3597 3500 
L 2059 -325 
z
" transform="scale(0.015625)"/>
      <path id="DejaVuSans-3a" d="M 750 794 
L 1409 794 
L 1409 0 
L 750 0 
L 750 794 
z
M 750 3309 
L 1409 3309 
L 1409 2516 
L 750 2516 
L 750 3309 
z
" transform="scale(0.015625)"/>
     </defs>
     <use xlink:href="#DejaVuSans-61"/>
     <use xlink:href="#DejaVuSans-66" x="61.279297"/>
     <use xlink:href="#DejaVuSans-66" x="96.484375"/>
     <use xlink:href="#DejaVuSans-69" x="131.689453"/>
     <use xlink:href="#DejaVuSans-6e" x="159.472656"/>
     <use xlink:href="#DejaVuSans-69" x="222.851562"/>
     <use xlink:href="#DejaVuSans-74" x="250.634766"/>
     <use xlink:href="#DejaVuSans-79" x="289.84375"/>
     <use xlink:href="#DejaVuSans-3a" x="341.773438"/>
    </g>
    <!-- -54% poleward -->
    <g style="fill: #95a5a6" transform="translate(47.00293 283.02282) scale(0.1 -0.1)">
     <defs>
      <path id="DejaVuSans-2d" d="M 313 2009 
L 1997 2009 
L 1997 1497 
L 313 1497 
L 313 2009 
z
" transform="scale(0.015625)"/>
      <path id="DejaVuSans-35" d="M 691 4666 
L 3169 4666 
L 3169 4134 
L 1269 4134 
L 1269 2991 
Q 1406 3038 1543 3061 
Q 1681 3084 1819 3084 
Q 2600 3084 3056 2656 
Q 3513 2228 3513 1497 
Q 3513 744 3044 326 
Q 2575 -91 1722 -91 
Q 1428 -91 1123 -41 
Q 819 9 494 109 
L 494 744 
Q 775 591 1075 516 
Q 1375 441 1709 441 
Q 2250 441 2565 725 
Q 2881 1009 2881 1497 
Q 2881 1984 2565 2268 
Q 2250 2553 1709 2553 
Q 1456 2553 1204 2497 
Q 953 2441 691 2322 
L 691 4666 
z
" transform="scale(0.015625)"/>
      <path id="DejaVuSans-25" d="M 4653 2053 
Q 4381 2053 4226 1822 
Q 4072 1591 4072 1178 
Q 4072 772 4226 539 
Q 4381 306 4653 306 
Q 4919 306 5073 539 
Q 5228 772 5228 1178 
Q 5228 1588 5073 1820 
Q 4919 2053 4653 2053 
z
M 4653 2450 
Q 5147 2450 5437 2106 
Q 5728 1763 5728 1178 
Q 5728 594 5436 251 
Q 5144 -91 4653 -91 
Q 4153 -91 3862 251 
Q 3572 594 3572 1178 
Q 3572 1766 3864 2108 
Q 4156 2450 4653 2450 
z
M 1428 4353 
Q 1159 4353 1004 4120 
Q 850 3888 850 3481 
Q 850 3069 1003 2837 
Q 1156 2606 1428 2606 
Q 1700 2606 1854 2837 
Q 2009 3069 2009 3481 
Q 2009 3884 1853 4118 
Q 1697 4353 1428 4353 
z
M 4250 4750 
L 4750 4750 
L 1831 -91 
L 1331 -91 
L 4250 4750 
z
M 1428 4750 
Q 1922 4750 2215 4408 
Q 2509 4066 2509 3481 
Q 2509 2891 2217 2550 
Q 1925 2209 1428 2209 
Q 931 2209 642 2551 
Q 353 2894 353 3481 
Q 353 4063 643 4406 
Q 934 4750 1428 4750 
z
" transform="scale(0.015625)"/>
      <path id="DejaVuSans-70" d="M 1159 525 
L 1159 -1331 
L 581 -1331 
L 581 3500 
L 1159 3500 
L 1159 2969 
Q 1341 3281 1617 3432 
Q 1894 3584 2278 3584 
Q 2916 3584 3314 3078 
Q 3713 2572 3713 1747 
Q 3713 922 3314 415 
Q 2916 -91 2278 -91 
Q 1894 -91 1617 61 
Q 1341 213 1159 525 
z
M 3116 1747 
Q 3116 2381 2855 2742 
Q 2594 3103 2138 3103 
Q 1681 3103 1420 2742 
Q 1159 2381 1159 1747 
Q 1159 1113 1420 752 
Q 1681 391 2138 391 
Q 2594 391 2855 752 
Q 3116 1113 3116 1747 
z
" transform="scale(0.015625)"/>
      <path id="DejaVuSans-6f" d="M 1959 3097 
Q 1497 3097 1228 2736 
Q 959 2375 959 1747 
Q 959 1119 1226 758 
Q 1494 397 1959 397 
Q 2419 397 2687 759 
Q 2956 1122 2956 1747 
Q 2956 2369 2687 2733 
Q 2419 3097 1959 3097 
z
M 1959 3584 
Q 2709 3584 3137 3096 
Q 3566 2609 3566 1747 
Q 3566 888 3137 398 
Q 2709 -91 1959 -91 
Q 1206 -91 779 398 
Q 353 888 353 1747 
Q 353 2609 779 3096 
Q 1206 3584 1959 3584 
z
" transform="scale(0.015625)"/>
      <path id="DejaVuSans-77" d="M 269 3500 
L 844 3500 
L 1563 769 
L 2278 3500 
L 2956 3500 
L 3675 769 
L 4391 3500 
L 4966 3500 
L 4050 0 
L 3372 0 
L 2619 2869 
L 1863 0 
L 1184 0 
L 269 3500 
z
" transform="scale(0.015625)"/>
      <path id="DejaVuSans-64" d="M 2906 2969 
L 2906 4863 
L 3481 4863 
L 3481 0 
L 2906 0 
L 2906 525 
Q 2725 213 2448 61 
Q 2172 -91 1784 -91 
Q 1150 -91 751 415 
Q 353 922 353 1747 
Q 353 2572 751 3078 
Q 1150 3584 1784 3584 
Q 2172 3584 2448 3432 
Q 2725 3281 2906 2969 
z
M 947 1747 
Q 947 1113 1208 752 
Q 1469 391 1925 391 
Q 2381 391 2643 752 
Q 2906 1113 2906 1747 
Q 2906 2381 2643 2742 
Q 2381 3103 1925 3103 
Q 1469 3103 1208 2742 
Q 947 2381 947 1747 
z
" transform="scale(0.015625)"/>
     </defs>
     <use xlink:href="#DejaVuSans-2d"/>
     <use xlink:href="#DejaVuSans-35" x="36.083984"/>
     <use xlink:href="#DejaVuSans-34" x="99.707031"/>
     <use xlink:href="#DejaVuSans-25" x="163.330078"/>
     <use xlink:href="#DejaVuSans-20" x="258.349609"/>
     <use xlink:href="#DejaVuSans-70" x="290.136719"/>
     <use xlink:href="#DejaVuSans-6f" x="353.613281"/>
     <use xlink:href="#DejaVuSans-6c" x="414.794922"/>
     <use xlink:href="#DejaVuSans-65" x="442.578125"/>
     <use xlink:href="#DejaVuSans-77" x="504.101562"/>
     <use xlink:href="#DejaVuSans-61" x="585.888672"/>
     <use xlink:href="#DejaVuSans-72" x="647.167969"/>
     <use xlink:href="#DejaVuSans-64" x="686.53125"/>
    </g>
    <!-- 63% eastward -->
    <g style="fill: #95a5a6" transform="translate(47.00293 294.220632) scale(0.1 -0.1)">
     <defs>
      <path id="DejaVuSans-36" d="M 2113 2584 
Q 1688 2584 1439 2293 
Q 1191 2003 1191 1497 
Q 1191 994 1439 701 
Q 1688 409 2113 409 
Q 2538 409 2786 701 
Q 3034 994 3034 1497 
Q 3034 2003 2786 2293 
Q 2538 2584 2113 2584 
z
M 3366 4563 
L 3366 3988 
Q 3128 4100 2886 4159 
Q 2644 4219 2406 4219 
Q 1781 4219 1451 3797 
Q 1122 3375 1075 2522 
Q 1259 2794 1537 2939 
Q 1816 3084 2150 3084 
Q 2853 3084 3261 2657 
Q 3669 2231 3669 1497 
Q 3669 778 3244 343 
Q 2819 -91 2113 -91 
Q 1303 -91 875 529 
Q 447 1150 447 2328 
Q 447 3434 972 4092 
Q 1497 4750 2381 4750 
Q 2619 4750 2861 4703 
Q 3103 4656 3366 4563 
z
" transform="scale(0.015625)"/>
     </defs>
     <use xlink:href="#DejaVuSans-36"/>
     <use xlink:href="#DejaVuSans-33" x="63.623047"/>
     <use xlink:href="#DejaVuSans-25" x="127.246094"/>
     <use xlink:href="#DejaVuSans-20" x="222.265625"/>
     <use xlink:href="#DejaVuSans-65" x="254.052734"/>
     <use xlink:href="#DejaVuSans-61" x="315.576172"/>
     <use xlink:href="#DejaVuSans-73" x="376.855469"/>
     <use xlink:href="#DejaVuSans-74" x="428.955078"/>
     <use xlink:href="#DejaVuSans-77" x="468.164062"/>
     <use xlink:href="#DejaVuSans-61" x="549.951172"/>
     <use xlink:href="#DejaVuSans-72" x="611.230469"/>
     <use xlink:href="#DejaVuSans-64" x="650.59375"/>
    </g>
   </g>
   <g id="text_8">
    <!-- elevation: -->
    <g style="fill: #95a5a6" transform="translate(245.104882 271.825007) scale(0.1 -0.1)">
     <use xlink:href="#DejaVuSans-65"/>
     <use xlink:href="#DejaVuSans-6c" x="61.523438"/>
     <use xlink:href="#DejaVuSans-65" x="89.306641"/>
     <use xlink:href="#DejaVuSans-76" x="150.830078"/>
     <use xlink:href="#DejaVuSans-61" x="210.009766"/>
     <use xlink:href="#DejaVuSans-74" x="271.289062"/>
     <use xlink:href="#DejaVuSans-69" x="310.498047"/>
     <use xlink:href="#DejaVuSans-6f" x="338.28125"/>
     <use xlink:href="#DejaVuSans-6e" x="399.462891"/>
     <use xlink:href="#DejaVuSans-3a" x="462.841797"/>
    </g>
    <!-- 160 m base -->
    <g style="fill: #95a5a6" transform="translate(236.917382 283.02282) scale(0.1 -0.1)">
     <defs>
      <path id="DejaVuSans-30" d="M 2034 4250 
Q 1547 4250 1301 3770 
Q 1056 3291 1056 2328 
Q 1056 1369 1301 889 
Q 1547 409 2034 409 
Q 2525 409 2770 889 
Q 3016 1369 3016 2328 
Q 3016 3291 2770 3770 
Q 2525 4250 2034 4250 
z
M 2034 4750 
Q 2819 4750 3233 4129 
Q 3647 3509 3647 2328 
Q 3647 1150 3233 529 
Q 2819 -91 2034 -91 
Q 1250 -91 836 529 
Q 422 1150 422 2328 
Q 422 3509 836 4129 
Q 1250 4750 2034 4750 
z
" transform="scale(0.015625)"/>
     </defs>
     <use xlink:href="#DejaVuSans-31"/>
     <use xlink:href="#DejaVuSans-36" x="63.623047"/>
     <use xlink:href="#DejaVuSans-30" x="127.246094"/>
     <use xlink:href="#DejaVuSans-202f" x="190.869141"/>
     <use xlink:href="#DejaVuSans-6d" x="210.839844"/>
     <use xlink:href="#DejaVuSans-20" x="308.251953"/>
     <use xlink:href="#DejaVuSans-62" x="340.039062"/>
     <use xlink:href="#DejaVuSans-61" x="403.515625"/>
     <use xlink:href="#DejaVuSans-73" x="464.794922"/>
     <use xlink:href="#DejaVuSans-65" x="516.894531"/>
    </g>
    <!-- 360 m peak -->
    <g style="fill: #95a5a6" transform="translate(236.336132 294.220632) scale(0.1 -0.1)">
     <use xlink:href="#DejaVuSans-33"/>
     <use xlink:href="#DejaVuSans-36" x="63.623047"/>
     <use xlink:href="#DejaVuSans-30" x="127.246094"/>
     <use xlink:href="#DejaVuSans-202f" x="190.869141"/>
     <use xlink:href="#DejaVuSans-6d" x="210.839844"/>
     <use xlink:href="#DejaVuSans-20" x="308.251953"/>
     <use xlink:href="#DejaVuSans-70" x="340.039062"/>
     <use xlink:href="#DejaVuSans-65" x="403.515625"/>
     <use xlink:href="#DejaVuSans-61" x="465.039062"/>
     <use xlink:href="#DejaVuSans-6b" x="526.318359"/>
    </g>
   </g>
   <g id="text_9">
    <!-- ほろたちスキー場, Kokusetsu Horotachi -->
    <g transform="translate(7.2 19.5375) scale(0.16 -0.16)">
     <defs>
      <path id="NotoSansCJKjp-Bold-307b" d="M 1798 4947 
L 909 5024 
C 902 4819 870 4570 845 4397 
C 774 3904 595 2688 595 1722 
C 595 851 717 122 845 -326 
L 1581 -269 
C 1574 -179 1574 -70 1568 -6 
C 1568 64 1587 198 1606 288 
C 1677 640 1882 1293 2061 1818 
L 1670 2138 
C 1581 1920 1466 1677 1376 1459 
C 1357 1587 1350 1766 1350 1894 
C 1350 2534 1555 3949 1651 4378 
C 1670 4493 1747 4819 1798 4947 
z
M 4090 1094 
L 4090 947 
C 4090 640 3949 448 3571 448 
C 3258 448 3053 570 3053 806 
C 3053 1018 3258 1158 3622 1158 
C 3776 1158 3930 1139 4090 1094 
z
M 2675 4742 
L 2675 4032 
C 3149 4013 3603 4006 4032 4013 
L 4032 3206 
C 3565 3200 3078 3206 2579 3245 
L 2579 2509 
C 3072 2483 3565 2477 4038 2490 
L 4064 1734 
C 3930 1754 3795 1760 3648 1760 
C 2778 1760 2330 1306 2330 749 
C 2330 58 2931 -262 3674 -262 
C 4499 -262 4858 115 4858 685 
L 4858 749 
C 5165 563 5453 320 5722 51 
L 6138 749 
C 5894 973 5453 1331 4819 1555 
C 4806 1850 4787 2170 4781 2515 
C 5178 2534 5542 2560 5856 2598 
L 5856 3341 
C 5523 3296 5158 3264 4774 3238 
L 4774 4045 
C 5120 4064 5440 4090 5722 4122 
L 5722 4832 
C 4934 4717 3846 4653 2675 4742 
z
" transform="scale(0.015625)"/>
      <path id="NotoSansCJKjp-Bold-308d" d="M 1389 4832 
L 1402 3994 
C 1542 4019 1773 4038 1933 4051 
C 2240 4070 3130 4115 3482 4128 
C 2976 3603 1395 2317 544 1664 
L 1139 1030 
C 1830 1728 2528 2362 3520 2362 
C 4250 2362 4717 1984 4717 1478 
C 4717 634 3667 256 1894 486 
L 2118 -346 
C 4486 -538 5594 205 5594 1472 
C 5594 2368 4826 3034 3699 3034 
C 3539 3034 3302 3014 3091 2950 
C 3648 3373 4262 3866 4634 4141 
C 4723 4198 4870 4294 4986 4358 
L 4557 4922 
C 4435 4890 4243 4864 4096 4851 
C 3680 4826 2253 4806 1907 4806 
C 1696 4806 1491 4819 1389 4832 
z
" transform="scale(0.015625)"/>
      <path id="NotoSansCJKjp-Bold-305f" d="M 3411 3174 
L 3411 2419 
C 3814 2470 4211 2490 4646 2490 
C 5037 2490 5427 2451 5747 2413 
L 5766 3181 
C 5389 3219 5005 3238 4640 3238 
C 4230 3238 3770 3206 3411 3174 
z
M 3757 1562 
L 2995 1638 
C 2944 1382 2880 1075 2880 781 
C 2880 134 3462 -237 4538 -237 
C 5050 -237 5485 -192 5843 -147 
L 5875 672 
C 5414 589 4973 538 4544 538 
C 3859 538 3667 749 3667 1030 
C 3667 1171 3706 1382 3757 1562 
z
M 1402 4154 
C 1139 4154 922 4160 595 4198 
L 614 3405 
C 838 3392 1082 3379 1389 3379 
L 1811 3392 
L 1677 2854 
C 1440 1958 954 614 570 -26 
L 1459 -326 
C 1818 435 2246 1741 2477 2637 
L 2675 3456 
C 3098 3507 3533 3578 3917 3667 
L 3917 4467 
C 3565 4384 3206 4314 2848 4262 
L 2899 4506 
C 2925 4646 2982 4934 3034 5107 
L 2054 5184 
C 2074 5037 2061 4774 2035 4538 
L 1978 4173 
C 1779 4160 1587 4154 1402 4154 
z
" transform="scale(0.015625)"/>
      <path id="NotoSansCJKjp-Bold-3061" d="M 666 4352 
L 666 3558 
C 992 3526 1370 3507 1773 3501 
C 1606 2797 1350 1946 1043 1350 
L 1798 1082 
C 1862 1190 1907 1274 1978 1363 
C 2362 1850 3014 2112 3750 2112 
C 4378 2112 4704 1792 4704 1408 
C 4704 467 3290 294 1888 525 
L 2112 -301 
C 4179 -525 5568 -6 5568 1434 
C 5568 2253 4883 2803 3846 2803 
C 3277 2803 2778 2688 2259 2400 
C 2355 2714 2458 3123 2547 3514 
C 3405 3558 4422 3680 5088 3789 
L 5075 4550 
C 4301 4384 3437 4288 2707 4250 
L 2746 4448 
C 2790 4659 2829 4877 2893 5101 
L 1990 5139 
C 2003 4928 1997 4768 1958 4493 
L 1920 4230 
C 1530 4237 1050 4288 666 4352 
z
" transform="scale(0.015625)"/>
      <path id="NotoSansCJKjp-Bold-30b9" d="M 5338 4339 
L 4813 4730 
C 4685 4685 4429 4646 4154 4646 
C 3866 4646 2227 4646 1894 4646 
C 1702 4646 1312 4666 1139 4691 
L 1139 3782 
C 1274 3789 1626 3827 1894 3827 
C 2170 3827 3802 3827 4064 3827 
C 3923 3373 3533 2739 3110 2259 
C 2509 1587 1517 806 486 422 
L 1146 -269 
C 2022 147 2874 813 3552 1523 
C 4154 947 4749 294 5165 -282 
L 5894 352 
C 5517 813 4742 1632 4109 2182 
C 4538 2765 4896 3443 5114 3942 
C 5171 4070 5286 4269 5338 4339 
z
" transform="scale(0.015625)"/>
      <path id="NotoSansCJKjp-Bold-30ad" d="M 589 1875 
L 768 1018 
C 915 1056 1133 1101 1408 1152 
L 2938 1414 
L 3155 250 
C 3194 64 3213 -160 3238 -397 
L 4166 -230 
C 4109 -26 4045 205 4000 397 
L 3770 1549 
L 5158 1773 
C 5402 1811 5664 1856 5837 1869 
L 5664 2714 
C 5498 2662 5261 2611 5011 2560 
C 4723 2502 4198 2413 3622 2317 
L 3424 3341 
L 4704 3546 
C 4896 3571 5152 3610 5293 3622 
L 5139 4461 
C 4986 4416 4742 4365 4538 4326 
L 3277 4115 
L 3174 4704 
C 3142 4858 3123 5075 3104 5203 
L 2202 5056 
C 2246 4902 2291 4749 2330 4570 
L 2445 3987 
C 1894 3898 1402 3827 1178 3802 
C 979 3776 787 3763 582 3757 
L 755 2874 
C 973 2931 1139 2963 1344 3008 
L 2598 3213 
L 2790 2182 
L 1254 1946 
C 1050 1920 762 1882 589 1875 
z
" transform="scale(0.015625)"/>
      <path id="NotoSansCJKjp-Bold-30fc" d="M 589 2963 
L 589 1958 
C 826 1971 1254 1990 1619 1990 
C 2368 1990 4480 1990 5056 1990 
C 5325 1990 5651 1965 5805 1958 
L 5805 2963 
C 5638 2950 5357 2925 5056 2925 
C 4480 2925 2374 2925 1619 2925 
C 1286 2925 819 2944 589 2963 
z
" transform="scale(0.015625)"/>
      <path id="NotoSansCJKjp-Bold-5834" d="M 3405 3936 
L 5056 3936 
L 5056 3629 
L 3405 3629 
L 3405 3936 
z
M 3405 4742 
L 5056 4742 
L 5056 4442 
L 3405 4442 
L 3405 4742 
z
M 2720 5274 
L 2720 3098 
L 5766 3098 
L 5766 5274 
L 2720 5274 
z
M 141 1248 
L 429 474 
C 826 666 1286 890 1754 1126 
C 1907 1024 2144 794 2253 672 
C 2509 838 2758 1056 2989 1299 
L 3373 1299 
C 3027 826 2541 384 2067 141 
C 2246 26 2445 -160 2566 -314 
C 3123 45 3731 685 4070 1299 
L 4448 1299 
C 4173 710 3738 134 3251 -173 
C 3443 -275 3674 -454 3802 -602 
C 4320 -192 4826 582 5088 1299 
L 5331 1299 
C 5261 531 5184 198 5094 102 
C 5043 45 4992 32 4909 32 
C 4819 32 4653 32 4448 51 
C 4544 -109 4608 -371 4621 -550 
C 4883 -563 5120 -557 5267 -538 
C 5434 -512 5574 -467 5696 -320 
C 5869 -128 5971 390 6061 1638 
C 6074 1728 6080 1907 6080 1907 
L 3462 1907 
C 3526 2003 3584 2106 3642 2208 
L 6208 2208 
L 6208 2854 
L 2157 2854 
L 2157 2208 
L 2880 2208 
C 2726 1958 2522 1728 2298 1530 
L 2157 2080 
L 1651 1856 
L 1651 3366 
L 2240 3366 
L 2240 4090 
L 1651 4090 
L 1651 5357 
L 934 5357 
L 934 4090 
L 288 4090 
L 288 3366 
L 934 3366 
L 934 1555 
C 634 1434 358 1325 141 1248 
z
" transform="scale(0.015625)"/>
      <path id="DejaVuSans-Bold-2c" d="M 653 1209 
L 1778 1209 
L 1778 256 
L 1006 -909 
L 341 -909 
L 653 256 
L 653 1209 
z
" transform="scale(0.015625)"/>
      <path id="DejaVuSans-Bold-20" transform="scale(0.015625)"/>
      <path id="DejaVuSans-Bold-4b" d="M 588 4666 
L 1791 4666 
L 1791 2963 
L 3525 4666 
L 4922 4666 
L 2675 2456 
L 5153 0 
L 3647 0 
L 1791 1838 
L 1791 0 
L 588 0 
L 588 4666 
z
" transform="scale(0.015625)"/>
      <path id="DejaVuSans-Bold-6f" d="M 2203 2784 
Q 1831 2784 1636 2517 
Q 1441 2250 1441 1747 
Q 1441 1244 1636 976 
Q 1831 709 2203 709 
Q 2569 709 2762 976 
Q 2956 1244 2956 1747 
Q 2956 2250 2762 2517 
Q 2569 2784 2203 2784 
z
M 2203 3584 
Q 3106 3584 3614 3096 
Q 4122 2609 4122 1747 
Q 4122 884 3614 396 
Q 3106 -91 2203 -91 
Q 1297 -91 786 396 
Q 275 884 275 1747 
Q 275 2609 786 3096 
Q 1297 3584 2203 3584 
z
" transform="scale(0.015625)"/>
      <path id="DejaVuSans-Bold-6b" d="M 538 4863 
L 1656 4863 
L 1656 2216 
L 2944 3500 
L 4244 3500 
L 2534 1894 
L 4378 0 
L 3022 0 
L 1656 1459 
L 1656 0 
L 538 0 
L 538 4863 
z
" transform="scale(0.015625)"/>
      <path id="DejaVuSans-Bold-75" d="M 500 1363 
L 500 3500 
L 1625 3500 
L 1625 3150 
Q 1625 2866 1622 2436 
Q 1619 2006 1619 1863 
Q 1619 1441 1641 1255 
Q 1663 1069 1716 984 
Q 1784 875 1895 815 
Q 2006 756 2150 756 
Q 2500 756 2700 1025 
Q 2900 1294 2900 1772 
L 2900 3500 
L 4019 3500 
L 4019 0 
L 2900 0 
L 2900 506 
Q 2647 200 2364 54 
Q 2081 -91 1741 -91 
Q 1134 -91 817 281 
Q 500 653 500 1363 
z
" transform="scale(0.015625)"/>
      <path id="DejaVuSans-Bold-73" d="M 3272 3391 
L 3272 2541 
Q 2913 2691 2578 2766 
Q 2244 2841 1947 2841 
Q 1628 2841 1473 2761 
Q 1319 2681 1319 2516 
Q 1319 2381 1436 2309 
Q 1553 2238 1856 2203 
L 2053 2175 
Q 2913 2066 3209 1816 
Q 3506 1566 3506 1031 
Q 3506 472 3093 190 
Q 2681 -91 1863 -91 
Q 1516 -91 1145 -36 
Q 775 19 384 128 
L 384 978 
Q 719 816 1070 734 
Q 1422 653 1784 653 
Q 2113 653 2278 743 
Q 2444 834 2444 1013 
Q 2444 1163 2330 1236 
Q 2216 1309 1875 1350 
L 1678 1375 
Q 931 1469 631 1722 
Q 331 1975 331 2491 
Q 331 3047 712 3315 
Q 1094 3584 1881 3584 
Q 2191 3584 2531 3537 
Q 2872 3491 3272 3391 
z
" transform="scale(0.015625)"/>
      <path id="DejaVuSans-Bold-65" d="M 4031 1759 
L 4031 1441 
L 1416 1441 
Q 1456 1047 1700 850 
Q 1944 653 2381 653 
Q 2734 653 3104 758 
Q 3475 863 3866 1075 
L 3866 213 
Q 3469 63 3072 -14 
Q 2675 -91 2278 -91 
Q 1328 -91 801 392 
Q 275 875 275 1747 
Q 275 2603 792 3093 
Q 1309 3584 2216 3584 
Q 3041 3584 3536 3087 
Q 4031 2591 4031 1759 
z
M 2881 2131 
Q 2881 2450 2695 2645 
Q 2509 2841 2209 2841 
Q 1884 2841 1681 2658 
Q 1478 2475 1428 2131 
L 2881 2131 
z
" transform="scale(0.015625)"/>
      <path id="DejaVuSans-Bold-74" d="M 1759 4494 
L 1759 3500 
L 2913 3500 
L 2913 2700 
L 1759 2700 
L 1759 1216 
Q 1759 972 1856 886 
Q 1953 800 2241 800 
L 2816 800 
L 2816 0 
L 1856 0 
Q 1194 0 917 276 
Q 641 553 641 1216 
L 641 2700 
L 84 2700 
L 84 3500 
L 641 3500 
L 641 4494 
L 1759 4494 
z
" transform="scale(0.015625)"/>
      <path id="DejaVuSans-Bold-48" d="M 588 4666 
L 1791 4666 
L 1791 2888 
L 3566 2888 
L 3566 4666 
L 4769 4666 
L 4769 0 
L 3566 0 
L 3566 1978 
L 1791 1978 
L 1791 0 
L 588 0 
L 588 4666 
z
" transform="scale(0.015625)"/>
      <path id="DejaVuSans-Bold-72" d="M 3138 2547 
Q 2991 2616 2845 2648 
Q 2700 2681 2553 2681 
Q 2122 2681 1889 2404 
Q 1656 2128 1656 1613 
L 1656 0 
L 538 0 
L 538 3500 
L 1656 3500 
L 1656 2925 
Q 1872 3269 2151 3426 
Q 2431 3584 2822 3584 
Q 2878 3584 2943 3579 
Q 3009 3575 3134 3559 
L 3138 2547 
z
" transform="scale(0.015625)"/>
      <path id="DejaVuSans-Bold-61" d="M 2106 1575 
Q 1756 1575 1579 1456 
Q 1403 1338 1403 1106 
Q 1403 894 1545 773 
Q 1688 653 1941 653 
Q 2256 653 2472 879 
Q 2688 1106 2688 1447 
L 2688 1575 
L 2106 1575 
z
M 3816 1997 
L 3816 0 
L 2688 0 
L 2688 519 
Q 2463 200 2181 54 
Q 1900 -91 1497 -91 
Q 953 -91 614 226 
Q 275 544 275 1050 
Q 275 1666 698 1953 
Q 1122 2241 2028 2241 
L 2688 2241 
L 2688 2328 
Q 2688 2594 2478 2717 
Q 2269 2841 1825 2841 
Q 1466 2841 1156 2769 
Q 847 2697 581 2553 
L 581 3406 
Q 941 3494 1303 3539 
Q 1666 3584 2028 3584 
Q 2975 3584 3395 3211 
Q 3816 2838 3816 1997 
z
" transform="scale(0.015625)"/>
      <path id="DejaVuSans-Bold-63" d="M 3366 3391 
L 3366 2478 
Q 3138 2634 2908 2709 
Q 2678 2784 2431 2784 
Q 1963 2784 1702 2511 
Q 1441 2238 1441 1747 
Q 1441 1256 1702 982 
Q 1963 709 2431 709 
Q 2694 709 2930 787 
Q 3166 866 3366 1019 
L 3366 103 
Q 3103 6 2833 -42 
Q 2563 -91 2291 -91 
Q 1344 -91 809 395 
Q 275 881 275 1747 
Q 275 2613 809 3098 
Q 1344 3584 2291 3584 
Q 2566 3584 2833 3536 
Q 3100 3488 3366 3391 
z
" transform="scale(0.015625)"/>
      <path id="DejaVuSans-Bold-68" d="M 4056 2131 
L 4056 0 
L 2931 0 
L 2931 347 
L 2931 1625 
Q 2931 2084 2911 2256 
Q 2891 2428 2841 2509 
Q 2775 2619 2662 2680 
Q 2550 2741 2406 2741 
Q 2056 2741 1856 2470 
Q 1656 2200 1656 1722 
L 1656 0 
L 538 0 
L 538 4863 
L 1656 4863 
L 1656 2988 
Q 1909 3294 2193 3439 
Q 2478 3584 2822 3584 
Q 3428 3584 3742 3212 
Q 4056 2841 4056 2131 
z
" transform="scale(0.015625)"/>
      <path id="DejaVuSans-Bold-69" d="M 538 3500 
L 1656 3500 
L 1656 0 
L 538 0 
L 538 3500 
z
M 538 4863 
L 1656 4863 
L 1656 3950 
L 538 3950 
L 538 4863 
z
" transform="scale(0.015625)"/>
     </defs>
     <use xlink:href="#NotoSansCJKjp-Bold-307b"/>
     <use xlink:href="#NotoSansCJKjp-Bold-308d" x="99.999985"/>
     <use xlink:href="#NotoSansCJKjp-Bold-305f" x="199.999969"/>
     <use xlink:href="#NotoSansCJKjp-Bold-3061" x="299.999954"/>
     <use xlink:href="#NotoSansCJKjp-Bold-30b9" x="399.999939"/>
     <use xlink:href="#NotoSansCJKjp-Bold-30ad" x="499.999924"/>
     <use xlink:href="#NotoSansCJKjp-Bold-30fc" x="599.999908"/>
     <use xlink:href="#NotoSansCJKjp-Bold-5834" x="699.999893"/>
     <use xlink:href="#DejaVuSans-Bold-2c" x="799.999878"/>
     <use xlink:href="#DejaVuSans-Bold-20" x="837.988159"/>
     <use xlink:href="#DejaVuSans-Bold-4b" x="872.802612"/>
     <use xlink:href="#DejaVuSans-Bold-6f" x="948.542847"/>
     <use xlink:href="#DejaVuSans-Bold-6b" x="1017.244019"/>
     <use xlink:href="#DejaVuSans-Bold-75" x="1083.747925"/>
     <use xlink:href="#DejaVuSans-Bold-73" x="1154.939331"/>
     <use xlink:href="#DejaVuSans-Bold-65" x="1214.460815"/>
     <use xlink:href="#DejaVuSans-Bold-74" x="1282.283081"/>
     <use xlink:href="#DejaVuSans-Bold-73" x="1330.085815"/>
     <use xlink:href="#DejaVuSans-Bold-75" x="1389.6073"/>
     <use xlink:href="#DejaVuSans-Bold-20" x="1460.798706"/>
     <use xlink:href="#DejaVuSans-Bold-48" x="1495.613159"/>
     <use xlink:href="#DejaVuSans-Bold-6f" x="1579.304565"/>
     <use xlink:href="#DejaVuSans-Bold-72" x="1648.005737"/>
     <use xlink:href="#DejaVuSans-Bold-6f" x="1697.322144"/>
     <use xlink:href="#DejaVuSans-Bold-74" x="1766.023315"/>
     <use xlink:href="#DejaVuSans-Bold-61" x="1813.82605"/>
     <use xlink:href="#DejaVuSans-Bold-63" x="1881.306519"/>
     <use xlink:href="#DejaVuSans-Bold-68" x="1940.583862"/>
     <use xlink:href="#DejaVuSans-Bold-69" x="2011.775269"/>
    </g>
    <!-- Ski Area -->
    <g transform="translate(133.31125 37.454) scale(0.16 -0.16)">
     <defs>
      <path id="DejaVuSans-Bold-41" d="M 3419 850 
L 1538 850 
L 1241 0 
L 31 0 
L 1759 4666 
L 3194 4666 
L 4922 0 
L 3713 0 
L 3419 850 
z
M 1838 1716 
L 3116 1716 
L 2478 3572 
L 1838 1716 
z
" transform="scale(0.015625)"/>
     </defs>
     <use xlink:href="#DejaVuSans-Bold-53"/>
     <use xlink:href="#DejaVuSans-Bold-6b" x="72.021484"/>
     <use xlink:href="#DejaVuSans-Bold-69" x="138.525391"/>
     <use xlink:href="#DejaVuSans-Bold-20" x="172.802734"/>
     <use xlink:href="#DejaVuSans-Bold-41" x="207.617188"/>
     <use xlink:href="#DejaVuSans-Bold-72" x="285.009766"/>
     <use xlink:href="#DejaVuSans-Bold-65" x="334.326172"/>
     <use xlink:href="#DejaVuSans-Bold-61" x="402.148438"/>
    </g>
   </g>
  </g>
 </g>
 <defs>
  <clipPath id="pcfefffa9cf">
   <path d="M 281.76125 172.422 
C 281.76125 157.861372 278.893124 143.442327 273.321013 129.990061 
C 267.748901 116.537795 259.581169 104.313919 249.28525 94.018 
C 238.989331 83.722081 226.765455 75.554349 213.313189 69.982237 
C 199.860923 64.410126 185.441878 61.542 170.88125 61.542 
C 156.320622 61.542 141.901577 64.410126 128.449311 69.982237 
C 114.997045 75.554349 102.773169 83.722081 92.47725 94.018 
C 82.181331 104.313919 74.013599 116.537795 68.441487 129.990061 
C 62.869376 143.442327 60.00125 157.861372 60.00125 172.422 
C 60.00125 186.982628 62.869376 201.401673 68.441487 214.853939 
C 74.013599 228.306205 82.181331 240.530081 92.47725 250.826 
C 102.773169 261.121919 114.997045 269.289651 128.449311 274.861763 
C 141.901577 280.433874 156.320622 283.302 170.88125 283.302 
C 185.441878 283.302 199.860923 280.433874 213.313189 274.861763 
C 226.765455 269.289651 238.989331 261.121919 249.28525 250.826 
C 259.581169 240.530081 267.748901 228.306205 273.321013 214.853939 
C 278.893124 201.401673 281.76125 186.982628 281.76125 172.422 
M 170.88125 172.422 
C 170.88125 172.422 170.88125 172.422 170.88125 172.422 
C 170.88125 172.422 170.88125 172.422 170.88125 172.422 
C 170.88125 172.422 170.88125 172.422 170.88125 172.422 
C 170.88125 172.422 170.88125 172.422 170.88125 172.422 
C 170.88125 172.422 170.88125 172.422 170.88125 172.422 
C 170.88125 172.422 170.88125 172.422 170.88125 172.422 
C 170.88125 172.422 170.88125 172.422 170.88125 172.422 
C 170.88125 172.422 170.88125 172.422 170.88125 172.422 
C 170.88125 172.422 170.88125 172.422 170.88125 172.422 
C 170.88125 172.422 170.88125 172.422 170.88125 172.422 
C 170.88125 172.422 170.88125 172.422 170.88125 172.422 
C 170.88125 172.422 170.88125 172.422 170.88125 172.422 
C 170.88125 172.422 170.88125 172.422 170.88125 172.422 
C 170.88125 172.422 170.88125 172.422 170.88125 172.422 
C 170.88125 172.422 170.88125 172.422 170.88125 172.422 
C 170.88125 172.422 170.88125 172.422 170.88125 172.422 
z
"/>
  </clipPath>
 </defs>
</svg>
