<?xml version="1.0" encoding="utf-8" standalone="no"?>
<!DOCTYPE svg PUBLIC "-//W3C//DTD SVG 1.1//EN"
  "http://www.w3.org/Graphics/SVG/1.1/DTD/svg11.dtd">
<svg xmlns:xlink="http://www.w3.org/1999/xlink" width="385.5925pt" height="304.321062pt" viewBox="0 0 385.5925 304.321062" xmlns="http://www.w3.org/2000/svg" version="1.1">
 <title>Ski Rose for ガーラ湯沢スノーリゾート, Gala Yuzawa Snow Resort</title>
 <metadata>
  <rdf:RDF xmlns:dc="http://purl.org/dc/elements/1.1/" xmlns:cc="http://creativecommons.org/ns#" xmlns:rdf="http://www.w3.org/1999/02/22-rdf-syntax-ns#">
   <cc:Work>
    <dc:type rdf:resource="http://purl.org/dc/dcmitype/StillImage"/>
    <dc:title>Ski Rose for ガーラ湯沢スノーリゾート, Gala Yuzawa Snow Resort</dc:title>
    <dc:date>2024-12-20T01:53:47.181689</dc:date>
    <dc:description>A 32-bin histogram of downhill ski trail orientations generated from &lt;https://openskimap.org/?obj=ae4305c22d12b888e099e6c5077345d589f4046d&gt;.</dc:description>
    <dc:format>image/svg+xml</dc:format>
    <dc:creator>
     <cc:Agent>
      <dc:title>https://github.com/dhimmel/openskistats</dc:title>
     </cc:Agent>
    </dc:creator>
   </cc:Work>
  </rdf:RDF>
 </metadata>
 <defs>
  <style type="text/css">*{stroke-linejoin: round; stroke-linecap: butt}</style>
 </defs>
 <g id="figure_1">
  <g id="patch_1">
   <path d="M 0 304.321062 
L 385.5925 304.321062 
L 385.5925 0 
L 0 0 
z
" style="fill: #ffffff"/>
  </g>
  <g id="axes_1">
   <g id="patch_2">
    <path d="M 303.67625 172.902 
C 303.67625 158.341372 300.808124 143.922327 295.236013 130.470061 
C 289.663901 117.017795 281.496169 104.793919 271.20025 94.498 
C 260.904331 84.202081 248.680455 76.034349 235.228189 70.462237 
C 221.775923 64.890126 207.356878 62.022 192.79625 62.022 
C 178.235622 62.022 163.816577 64.890126 150.364311 70.462237 
C 136.912045 76.034349 124.688169 84.202081 114.39225 94.498 
C 104.096331 104.793919 95.928599 117.017795 90.356487 130.470061 
C 84.784376 143.922327 81.91625 158.341372 81.91625 172.902 
C 81.91625 187.462628 84.784376 201.881673 90.356487 215.333939 
C 95.928599 228.786205 104.096331 241.010081 114.39225 251.306 
C 124.688169 261.601919 136.912045 269.769651 150.364311 275.341763 
C 163.816577 280.913874 178.235622 283.782 192.79625 283.782 
C 207.356878 283.782 221.775923 280.913874 235.228189 275.341763 
C 248.680455 269.769651 260.904331 261.601919 271.20025 251.306 
C 281.496169 241.010081 289.663901 228.786205 295.236013 215.333939 
C 300.808124 201.881673 303.67625 187.462628 303.67625 172.902 
M 192.79625 172.902 
C 192.79625 172.902 192.79625 172.902 192.79625 172.902 
C 192.79625 172.902 192.79625 172.902 192.79625 172.902 
C 192.79625 172.902 192.79625 172.902 192.79625 172.902 
C 192.79625 172.902 192.79625 172.902 192.79625 172.902 
C 192.79625 172.902 192.79625 172.902 192.79625 172.902 
C 192.79625 172.902 192.79625 172.902 192.79625 172.902 
C 192.79625 172.902 192.79625 172.902 192.79625 172.902 
C 192.79625 172.902 192.79625 172.902 192.79625 172.902 
C 192.79625 172.902 192.79625 172.902 192.79625 172.902 
C 192.79625 172.902 192.79625 172.902 192.79625 172.902 
C 192.79625 172.902 192.79625 172.902 192.79625 172.902 
C 192.79625 172.902 192.79625 172.902 192.79625 172.902 
C 192.79625 172.902 192.79625 172.902 192.79625 172.902 
C 192.79625 172.902 192.79625 172.902 192.79625 172.902 
C 192.79625 172.902 192.79625 172.902 192.79625 172.902 
C 192.79625 172.902 192.79625 172.902 192.79625 172.902 
z
" style="fill: #ffffff"/>
   </g>
   <g id="matplotlib.axis_1">
    <g id="xtick_1">
     <g id="line2d_1">
      <path d="M 192.79625 172.902 
L 192.79625 62.022 
" clip-path="url(#pcf569cd8c0)" style="fill: none; stroke: #b0b0b0; stroke-width: 0.8; stroke-linecap: square"/>
     </g>
     <g id="text_1">
      <!-- N -->
      <g transform="translate(188.611875 56.281375) scale(0.1 -0.1)">
       <defs>
        <path id="DejaVuSans-Bold-4e" d="M 588 4666 
L 1931 4666 
L 3628 1466 
L 3628 4666 
L 4769 4666 
L 4769 0 
L 3425 0 
L 1728 3200 
L 1728 0 
L 588 0 
L 588 4666 
z
" transform="scale(0.015625)"/>
       </defs>
       <use xlink:href="#DejaVuSans-Bold-4e"/>
      </g>
     </g>
    </g>
    <g id="xtick_2">
     <g id="line2d_2">
      <path d="M 192.79625 172.902 
L 271.20025 94.498 
" clip-path="url(#pcf569cd8c0)" style="fill: none; stroke: #b0b0b0; stroke-width: 0.8; stroke-linecap: square"/>
     </g>
    </g>
    <g id="xtick_3">
     <g id="line2d_3">
      <path d="M 192.79625 172.902 
L 303.67625 172.902 
" clip-path="url(#pcf569cd8c0)" style="fill: none; stroke: #b0b0b0; stroke-width: 0.8; stroke-linecap: square"/>
     </g>
     <g id="text_2">
      <!-- E -->
      <g transform="translate(308.760625 175.661375) scale(0.1 -0.1)">
       <defs>
        <path id="DejaVuSans-Bold-45" d="M 588 4666 
L 3834 4666 
L 3834 3756 
L 1791 3756 
L 1791 2888 
L 3713 2888 
L 3713 1978 
L 1791 1978 
L 1791 909 
L 3903 909 
L 3903 0 
L 588 0 
L 588 4666 
z
" transform="scale(0.015625)"/>
       </defs>
       <use xlink:href="#DejaVuSans-Bold-45"/>
      </g>
     </g>
    </g>
    <g id="xtick_4">
     <g id="line2d_4">
      <path d="M 192.79625 172.902 
L 271.20025 251.306 
" clip-path="url(#pcf569cd8c0)" style="fill: none; stroke: #b0b0b0; stroke-width: 0.8; stroke-linecap: square"/>
     </g>
    </g>
    <g id="xtick_5">
     <g id="line2d_5">
      <path d="M 192.79625 172.902 
L 192.79625 283.782 
" clip-path="url(#pcf569cd8c0)" style="fill: none; stroke: #b0b0b0; stroke-width: 0.8; stroke-linecap: square"/>
     </g>
     <g id="text_3">
      <!-- S -->
      <g transform="translate(189.195469 295.041375) scale(0.1 -0.1)">
       <defs>
        <path id="DejaVuSans-Bold-53" d="M 3834 4519 
L 3834 3531 
Q 3450 3703 3084 3790 
Q 2719 3878 2394 3878 
Q 1963 3878 1756 3759 
Q 1550 3641 1550 3391 
Q 1550 3203 1689 3098 
Q 1828 2994 2194 2919 
L 2706 2816 
Q 3484 2659 3812 2340 
Q 4141 2022 4141 1434 
Q 4141 663 3683 286 
Q 3225 -91 2284 -91 
Q 1841 -91 1394 -6 
Q 947 78 500 244 
L 500 1259 
Q 947 1022 1364 901 
Q 1781 781 2169 781 
Q 2563 781 2772 912 
Q 2981 1044 2981 1288 
Q 2981 1506 2839 1625 
Q 2697 1744 2272 1838 
L 1806 1941 
Q 1106 2091 782 2419 
Q 459 2747 459 3303 
Q 459 4000 909 4375 
Q 1359 4750 2203 4750 
Q 2588 4750 2994 4692 
Q 3400 4634 3834 4519 
z
" transform="scale(0.015625)"/>
       </defs>
       <use xlink:href="#DejaVuSans-Bold-53"/>
      </g>
     </g>
    </g>
    <g id="xtick_6">
     <g id="line2d_6">
      <path d="M 192.79625 172.902 
L 114.39225 251.306 
" clip-path="url(#pcf569cd8c0)" style="fill: none; stroke: #b0b0b0; stroke-width: 0.8; stroke-linecap: square"/>
     </g>
    </g>
    <g id="xtick_7">
     <g id="line2d_7">
      <path d="M 192.79625 172.902 
L 81.91625 172.902 
" clip-path="url(#pcf569cd8c0)" style="fill: none; stroke: #b0b0b0; stroke-width: 0.8; stroke-linecap: square"/>
     </g>
     <g id="text_4">
      <!-- W -->
      <g transform="translate(67.901406 175.661375) scale(0.1 -0.1)">
       <defs>
        <path id="DejaVuSans-Bold-57" d="M 191 4666 
L 1344 4666 
L 2150 1275 
L 2950 4666 
L 4109 4666 
L 4909 1275 
L 5716 4666 
L 6859 4666 
L 5759 0 
L 4372 0 
L 3525 3547 
L 2688 0 
L 1300 0 
L 191 4666 
z
" transform="scale(0.015625)"/>
       </defs>
       <use xlink:href="#DejaVuSans-Bold-57"/>
      </g>
     </g>
    </g>
    <g id="xtick_8">
     <g id="line2d_8">
      <path d="M 192.79625 172.902 
L 114.39225 94.498 
" clip-path="url(#pcf569cd8c0)" style="fill: none; stroke: #b0b0b0; stroke-width: 0.8; stroke-linecap: square"/>
     </g>
    </g>
   </g>
   <g id="matplotlib.axis_2"/>
   <g id="patch_3">
    <path d="M 192.79625 172.902 
C 192.79625 172.902 192.79625 172.902 192.79625 172.902 
C 192.79625 172.902 192.79625 172.902 192.79625 172.902 
L 198.994376 109.971375 
C 196.934562 109.768502 194.86603 109.666881 192.79625 109.666881 
C 190.72647 109.666881 188.657938 109.768502 186.598124 109.971375 
z
" clip-path="url(#pcf569cd8c0)" style="fill: #d4a0a7; stroke: #000000; stroke-width: 0.5; stroke-linejoin: miter"/>
   </g>
   <g id="patch_4">
    <path d="M 192.79625 172.902 
C 192.79625 172.902 192.79625 172.902 192.79625 172.902 
C 192.79625 172.902 192.79625 172.902 192.79625 172.902 
L 212.755243 107.106018 
C 210.601642 106.45273 208.417265 105.905572 206.210001 105.46652 
C 204.002737 105.027468 201.775247 104.697051 199.535577 104.476463 
z
" clip-path="url(#pcf569cd8c0)" style="fill: #d4a0a7; stroke: #000000; stroke-width: 0.5; stroke-linejoin: miter"/>
   </g>
   <g id="patch_5">
    <path d="M 192.79625 172.902 
C 192.79625 172.902 192.79625 172.902 192.79625 172.902 
C 192.79625 172.902 192.79625 172.902 192.79625 172.902 
L 235.774929 92.494547 
C 233.143073 91.087791 230.443736 89.811099 227.686666 88.669084 
C 224.929597 87.527068 222.11812 86.521106 219.26239 85.654829 
z
" clip-path="url(#pcf569cd8c0)" style="fill: #d4a0a7; stroke: #000000; stroke-width: 0.5; stroke-linejoin: miter"/>
   </g>
   <g id="patch_6">
    <path d="M 192.79625 172.902 
C 192.79625 172.902 192.79625 172.902 192.79625 172.902 
C 192.79625 172.902 192.79625 172.902 192.79625 172.902 
L 246.825631 107.067009 
C 244.670753 105.298547 242.430348 103.636949 240.112507 102.088217 
C 237.794666 100.539485 235.402184 99.105487 232.943702 97.791401 
z
" clip-path="url(#pcf569cd8c0)" style="fill: #d4a0a7; stroke: #000000; stroke-width: 0.5; stroke-linejoin: miter"/>
   </g>
   <g id="patch_7">
    <path d="M 192.79625 172.902 
C 192.79625 172.902 192.79625 172.902 192.79625 172.902 
C 192.79625 172.902 192.79625 172.902 192.79625 172.902 
L 269.44508 109.997931 
C 267.386136 107.489101 265.205256 105.08287 262.910318 102.787932 
C 260.61538 100.492994 258.209149 98.312114 255.700319 96.25317 
z
" clip-path="url(#pcf569cd8c0)" style="fill: #d4a0a7; stroke: #000000; stroke-width: 0.5; stroke-linejoin: miter"/>
   </g>
   <g id="patch_8">
    <path d="M 192.79625 172.902 
C 192.79625 172.902 192.79625 172.902 192.79625 172.902 
C 192.79625 172.902 192.79625 172.902 192.79625 172.902 
L 273.920935 129.539952 
C 272.501631 126.88462 270.952812 124.300572 269.280074 121.797143 
C 267.607336 119.293713 265.812694 116.873919 263.902632 114.546501 
z
" clip-path="url(#pcf569cd8c0)" style="fill: #d4a0a7; stroke: #000000; stroke-width: 0.5; stroke-linejoin: miter"/>
   </g>
   <g id="patch_9">
    <path d="M 192.79625 172.902 
C 192.79625 172.902 192.79625 172.902 192.79625 172.902 
C 192.79625 172.902 192.79625 172.902 192.79625 172.902 
L 292.252992 142.732127 
C 291.265487 139.476759 290.118748 136.271838 288.816916 133.128938 
C 287.515084 129.986038 286.05973 126.908949 284.456108 123.908785 
z
" clip-path="url(#pcf569cd8c0)" style="fill: #d4a0a7; stroke: #000000; stroke-width: 0.5; stroke-linejoin: miter"/>
   </g>
   <g id="patch_10">
    <path d="M 192.79625 172.902 
C 192.79625 172.902 192.79625 172.902 192.79625 172.902 
C 192.79625 172.902 192.79625 172.902 192.79625 172.902 
L 269.255416 165.371429 
C 269.008929 162.868807 268.639719 160.379794 268.149119 157.913382 
C 267.658519 155.446971 267.047121 153.006132 266.317133 150.599684 
z
" clip-path="url(#pcf569cd8c0)" style="fill: #d4a0a7; stroke: #000000; stroke-width: 0.5; stroke-linejoin: miter"/>
   </g>
   <g id="patch_11">
    <path d="M 192.79625 172.902 
C 192.79625 172.902 192.79625 172.902 192.79625 172.902 
C 192.79625 172.902 192.79625 172.902 192.79625 172.902 
L 303.142332 183.770141 
C 303.498063 180.158348 303.67625 176.531268 303.67625 172.902 
C 303.67625 169.272732 303.498063 165.645652 303.142332 162.033859 
z
" clip-path="url(#pcf569cd8c0)" style="fill: #d4a0a7; stroke: #000000; stroke-width: 0.5; stroke-linejoin: miter"/>
   </g>
   <g id="patch_12">
    <path d="M 192.79625 172.902 
C 192.79625 172.902 192.79625 172.902 192.79625 172.902 
C 192.79625 172.902 192.79625 172.902 192.79625 172.902 
L 285.773324 201.106287 
C 286.696492 198.063008 287.469687 194.976239 288.090117 191.857129 
C 288.710547 188.738018 289.177463 185.590326 289.489179 182.425422 
z
" clip-path="url(#pcf569cd8c0)" style="fill: #d4a0a7; stroke: #000000; stroke-width: 0.5; stroke-linejoin: miter"/>
   </g>
   <g id="patch_13">
    <path d="M 192.79625 172.902 
C 192.79625 172.902 192.79625 172.902 192.79625 172.902 
C 192.79625 172.902 192.79625 172.902 192.79625 172.902 
L 281.137911 220.121601 
C 282.683479 217.230047 284.086148 214.264352 285.340852 211.235229 
C 286.595556 208.206106 287.700782 205.117206 288.652538 201.979687 
z
" clip-path="url(#pcf569cd8c0)" style="fill: #d4a0a7; stroke: #000000; stroke-width: 0.5; stroke-linejoin: miter"/>
   </g>
   <g id="patch_14">
    <path d="M 192.79625 172.902 
C 192.79625 172.902 192.79625 172.902 192.79625 172.902 
C 192.79625 172.902 192.79625 172.902 192.79625 172.902 
L 247.53065 217.821362 
C 249.000928 216.029823 250.38236 214.167177 251.669957 212.240153 
C 252.957553 210.313129 254.149762 208.324049 255.242277 206.280097 
z
" clip-path="url(#pcf569cd8c0)" style="fill: #d4a0a7; stroke: #000000; stroke-width: 0.5; stroke-linejoin: miter"/>
   </g>
   <g id="patch_15">
    <path d="M 192.79625 172.902 
C 192.79625 172.902 192.79625 172.902 192.79625 172.902 
C 192.79625 172.902 192.79625 172.902 192.79625 172.902 
L 241.522227 232.274775 
C 243.465587 230.679901 245.329471 228.990575 247.107148 227.212898 
C 248.884825 225.435221 250.574151 223.571337 252.169025 221.627977 
z
" clip-path="url(#pcf569cd8c0)" style="fill: #d4a0a7; stroke: #000000; stroke-width: 0.5; stroke-linejoin: miter"/>
   </g>
   <g id="patch_16">
    <path d="M 192.79625 172.902 
C 192.79625 172.902 192.79625 172.902 192.79625 172.902 
C 192.79625 172.902 192.79625 172.902 192.79625 172.902 
L 223.909663 231.111102 
C 225.814934 230.092713 227.669056 228.981395 229.465333 227.781161 
C 231.26161 226.580927 232.997876 225.293225 234.66786 223.922704 
z
" clip-path="url(#pcf569cd8c0)" style="fill: #d4a0a7; stroke: #000000; stroke-width: 0.5; stroke-linejoin: miter"/>
   </g>
   <g id="patch_17">
    <path d="M 192.79625 172.902 
C 192.79625 172.902 192.79625 172.902 192.79625 172.902 
C 192.79625 172.902 192.79625 172.902 192.79625 172.902 
L 209.514771 228.015577 
C 211.31872 227.468355 213.094716 226.832894 214.836342 226.111489 
C 216.577968 225.390083 218.283125 224.583604 219.945655 223.694964 
z
" clip-path="url(#pcf569cd8c0)" style="fill: #d4a0a7; stroke: #000000; stroke-width: 0.5; stroke-linejoin: miter"/>
   </g>
   <g id="patch_18">
    <path d="M 192.79625 172.902 
C 192.79625 172.902 192.79625 172.902 192.79625 172.902 
C 192.79625 172.902 192.79625 172.902 192.79625 172.902 
L 196.706893 212.607425 
C 198.006511 212.479424 199.299061 212.287692 200.579874 212.032922 
C 201.860688 211.778153 203.128221 211.460652 204.377895 211.081568 
z
" clip-path="url(#pcf569cd8c0)" style="fill: #d4a0a7; stroke: #000000; stroke-width: 0.5; stroke-linejoin: miter"/>
   </g>
   <g id="patch_19">
    <path d="M 192.79625 172.902 
C 192.79625 172.902 192.79625 172.902 192.79625 172.902 
C 192.79625 172.902 192.79625 172.902 192.79625 172.902 
L 188.741472 214.070853 
C 190.08899 214.203572 191.442212 214.270051 192.79625 214.270051 
C 194.150288 214.270051 195.50351 214.203572 196.851028 214.070853 
z
" clip-path="url(#pcf569cd8c0)" style="fill: #d4a0a7; stroke: #000000; stroke-width: 0.5; stroke-linejoin: miter"/>
   </g>
   <g id="patch_20">
    <path d="M 192.79625 172.902 
C 192.79625 172.902 192.79625 172.902 192.79625 172.902 
C 192.79625 172.902 192.79625 172.902 192.79625 172.902 
L 185.88533 195.684251 
C 186.631027 195.910456 187.38738 196.099913 188.151659 196.251937 
C 188.915937 196.403961 189.687219 196.51837 190.462718 196.59475 
z
" clip-path="url(#pcf569cd8c0)" style="fill: #d4a0a7; stroke: #000000; stroke-width: 0.5; stroke-linejoin: miter"/>
   </g>
   <g id="patch_21">
    <path d="M 192.79625 172.902 
C 192.79625 172.902 192.79625 172.902 192.79625 172.902 
C 192.79625 172.902 192.79625 172.902 192.79625 172.902 
L 184.461186 188.495808 
C 184.971594 188.768628 185.49509 189.016223 186.029782 189.237699 
C 186.564474 189.459176 187.109717 189.654267 187.663543 189.822268 
z
" clip-path="url(#pcf569cd8c0)" style="fill: #d4a0a7; stroke: #000000; stroke-width: 0.5; stroke-linejoin: miter"/>
   </g>
   <g id="patch_22">
    <path d="M 192.79625 172.902 
C 192.79625 172.902 192.79625 172.902 192.79625 172.902 
C 192.79625 172.902 192.79625 172.902 192.79625 172.902 
L 176.459538 192.808341 
C 177.111102 193.343066 177.788527 193.845479 178.489366 194.313765 
C 179.190205 194.78205 179.913613 195.215645 180.656978 195.612981 
z
" clip-path="url(#pcf569cd8c0)" style="fill: #d4a0a7; stroke: #000000; stroke-width: 0.5; stroke-linejoin: miter"/>
   </g>
   <g id="patch_23">
    <path d="M 192.79625 172.902 
C 192.79625 172.902 192.79625 172.902 192.79625 172.902 
C 192.79625 172.902 192.79625 172.902 192.79625 172.902 
L 162.012154 198.165855 
C 162.839077 199.173464 163.714973 200.139867 164.636678 201.061572 
C 165.558383 201.983277 166.524786 202.859173 167.532395 203.686096 
z
" clip-path="url(#pcf569cd8c0)" style="fill: #d4a0a7; stroke: #000000; stroke-width: 0.5; stroke-linejoin: miter"/>
   </g>
   <g id="patch_24">
    <path d="M 192.79625 172.902 
C 192.79625 172.902 192.79625 172.902 192.79625 172.902 
C 192.79625 172.902 192.79625 172.902 192.79625 172.902 
L 173.379165 183.280648 
C 173.718874 183.916198 174.089581 184.534687 174.489949 185.133879 
C 174.890317 185.733072 175.319862 186.312246 175.777033 186.869311 
z
" clip-path="url(#pcf569cd8c0)" style="fill: #d4a0a7; stroke: #000000; stroke-width: 0.5; stroke-linejoin: miter"/>
   </g>
   <g id="patch_25">
    <path d="M 192.79625 172.902 
C 192.79625 172.902 192.79625 172.902 192.79625 172.902 
C 192.79625 172.902 192.79625 172.902 192.79625 172.902 
L 192.79625 172.902 
C 192.79625 172.902 192.79625 172.902 192.79625 172.902 
C 192.79625 172.902 192.79625 172.902 192.79625 172.902 
z
" clip-path="url(#pcf569cd8c0)" style="fill: #d4a0a7; stroke: #000000; stroke-width: 0.5; stroke-linejoin: miter"/>
   </g>
   <g id="patch_26">
    <path d="M 192.79625 172.902 
C 192.79625 172.902 192.79625 172.902 192.79625 172.902 
C 192.79625 172.902 192.79625 172.902 192.79625 172.902 
L 165.992207 175.541968 
C 166.078617 176.419304 166.20805 177.291869 166.380038 178.156511 
C 166.552026 179.021153 166.766362 179.87683 167.022271 180.720451 
z
" clip-path="url(#pcf569cd8c0)" style="fill: #d4a0a7; stroke: #000000; stroke-width: 0.5; stroke-linejoin: miter"/>
   </g>
   <g id="patch_27">
    <path d="M 192.79625 172.902 
C 192.79625 172.902 192.79625 172.902 192.79625 172.902 
C 192.79625 172.902 192.79625 172.902 192.79625 172.902 
L 183.643961 172.000578 
C 183.614457 172.300146 183.599677 172.600982 183.599677 172.902 
C 183.599677 173.203018 183.614457 173.503854 183.643961 173.803422 
z
" clip-path="url(#pcf569cd8c0)" style="fill: #d4a0a7; stroke: #000000; stroke-width: 0.5; stroke-linejoin: miter"/>
   </g>
   <g id="patch_28">
    <path d="M 192.79625 172.902 
C 192.79625 172.902 192.79625 172.902 192.79625 172.902 
C 192.79625 172.902 192.79625 172.902 192.79625 172.902 
L 152.533903 160.68855 
C 152.134138 162.006397 151.799317 163.343077 151.530649 164.693762 
C 151.261982 166.044446 151.05979 167.407508 150.924807 168.778023 
z
" clip-path="url(#pcf569cd8c0)" style="fill: #d4a0a7; stroke: #000000; stroke-width: 0.5; stroke-linejoin: miter"/>
   </g>
   <g id="patch_29">
    <path d="M 192.79625 172.902 
C 192.79625 172.902 192.79625 172.902 192.79625 172.902 
C 192.79625 172.902 192.79625 172.902 192.79625 172.902 
L 174.117991 162.918263 
C 173.791208 163.52963 173.494639 164.156673 173.229355 164.797127 
C 172.96407 165.43758 172.73039 166.090673 172.529158 166.754045 
z
" clip-path="url(#pcf569cd8c0)" style="fill: #d4a0a7; stroke: #000000; stroke-width: 0.5; stroke-linejoin: miter"/>
   </g>
   <g id="patch_30">
    <path d="M 192.79625 172.902 
C 192.79625 172.902 192.79625 172.902 192.79625 172.902 
C 192.79625 172.902 192.79625 172.902 192.79625 172.902 
L 177.570496 160.406547 
C 177.161501 160.904908 176.777221 161.42305 176.419044 161.959101 
C 176.060866 162.495151 175.729223 163.048464 175.425313 163.617041 
z
" clip-path="url(#pcf569cd8c0)" style="fill: #d4a0a7; stroke: #000000; stroke-width: 0.5; stroke-linejoin: miter"/>
   </g>
   <g id="patch_31">
    <path d="M 192.79625 172.902 
C 192.79625 172.902 192.79625 172.902 192.79625 172.902 
C 192.79625 172.902 192.79625 172.902 192.79625 172.902 
L 169.928407 145.037453 
C 169.016359 145.785952 168.14161 146.578778 167.307319 147.413069 
C 166.473028 148.24736 165.680202 149.122109 164.931703 150.034157 
z
" clip-path="url(#pcf569cd8c0)" style="fill: #d4a0a7; stroke: #000000; stroke-width: 0.5; stroke-linejoin: miter"/>
   </g>
   <g id="patch_32">
    <path d="M 192.79625 172.902 
C 192.79625 172.902 192.79625 172.902 192.79625 172.902 
C 192.79625 172.902 192.79625 172.902 192.79625 172.902 
L 169.940058 130.141072 
C 168.540429 130.889189 167.178374 131.705573 165.858813 132.587276 
C 164.539251 133.468978 163.263775 134.414936 162.03699 135.421733 
z
" clip-path="url(#pcf569cd8c0)" style="fill: #d4a0a7; stroke: #000000; stroke-width: 0.5; stroke-linejoin: miter"/>
   </g>
   <g id="patch_33">
    <path d="M 192.79625 172.902 
C 192.79625 172.902 192.79625 172.902 192.79625 172.902 
C 192.79625 172.902 192.79625 172.902 192.79625 172.902 
L 184.756447 146.398321 
C 183.888942 146.661475 183.03488 146.967064 182.197346 147.313982 
C 181.359812 147.6609 180.539815 148.048729 179.740318 148.476069 
z
" clip-path="url(#pcf569cd8c0)" style="fill: #d4a0a7; stroke: #000000; stroke-width: 0.5; stroke-linejoin: miter"/>
   </g>
   <g id="patch_34">
    <path d="M 192.79625 172.902 
C 192.79625 172.902 192.79625 172.902 192.79625 172.902 
C 192.79625 172.902 192.79625 172.902 192.79625 172.902 
L 190.24031 146.951104 
C 189.390898 147.034764 188.546106 147.160077 187.708985 147.326591 
C 186.871863 147.493105 186.043422 147.700618 185.226653 147.948382 
z
" clip-path="url(#pcf569cd8c0)" style="fill: #d4a0a7; stroke: #000000; stroke-width: 0.5; stroke-linejoin: miter"/>
   </g>
   <g id="PathCollection_1">
    <defs>
     <path id="mba546acebd" d="M 0.193618 7.414054 
L 0.193618 7.414054 
C 0.054922 7.414054 -0.078235 7.358899 -0.176308 7.260826 
C -0.274381 7.162753 -0.329536 7.029596 -0.329536 6.890901 
L -0.329536 5.365008 
L -1.528416 6.56393 
L -1.528416 6.56393 
C -1.577018 6.612704 -1.634775 6.651408 -1.698366 6.677814 
C -1.761958 6.704221 -1.830141 6.717815 -1.898997 6.717815 
C -1.967853 6.717815 -2.036037 6.704221 -2.099628 6.677814 
C -2.163219 6.651408 -2.220976 6.612704 -2.269578 6.56393 
L -2.269578 6.56393 
C -2.318353 6.515327 -2.357056 6.457571 -2.383463 6.393979 
C -2.409869 6.330388 -2.423463 6.262205 -2.423463 6.193348 
C -2.423463 6.124492 -2.409869 6.056309 -2.383463 5.992718 
C -2.357056 5.929126 -2.318353 5.87137 -2.269578 5.822767 
L -0.329536 3.884106 
L -0.329536 0.820937 
L -2.98067 2.351538 
L -3.691824 5.001416 
L -3.691824 5.001416 
C -3.727584 5.135411 -3.815199 5.249836 -3.93523 5.319305 
C -4.055261 5.388775 -4.198123 5.407741 -4.332122 5.371997 
L -4.332122 5.371997 
C -4.466126 5.336237 -4.580558 5.248616 -4.650029 5.128576 
C -4.719499 5.008535 -4.73846 4.865662 -4.702703 4.731657 
L -4.262647 3.092721 
L -5.585535 3.855668 
L -5.585535 3.855668 
C -5.645013 3.890144 -5.710708 3.912561 -5.778854 3.921634 
C -5.847001 3.930706 -5.916272 3.926258 -5.982698 3.908543 
C -6.049125 3.890828 -6.111412 3.860192 -6.165991 3.818391 
C -6.220571 3.77659 -6.266379 3.724437 -6.300791 3.664922 
L -6.300791 3.664922 
C -6.335212 3.605364 -6.35755 3.539597 -6.366524 3.471396 
C -6.375498 3.403194 -6.370933 3.333888 -6.35309 3.267452 
C -6.335248 3.201017 -6.304476 3.138749 -6.26254 3.08422 
C -6.220605 3.029692 -6.168323 2.983966 -6.108695 2.949666 
L -4.785807 2.186762 
L -6.424743 1.746706 
L -6.424743 1.746706 
C -6.558747 1.710946 -6.673179 1.623325 -6.74265 1.503284 
C -6.81212 1.383244 -6.831081 1.240371 -6.795324 1.106366 
L -6.795324 1.106366 
C -6.777471 1.039969 -6.746703 0.977739 -6.704784 0.923241 
C -6.662864 0.868744 -6.61061 0.823041 -6.551015 0.788752 
C -6.491421 0.754464 -6.425647 0.732257 -6.357465 0.723406 
C -6.289282 0.714554 -6.220019 0.71923 -6.153645 0.737166 
L -3.505232 1.44698 
L -0.852424 -0.08496 
L -3.503767 -1.615666 
L -6.153645 -0.905851 
L -6.153645 -0.905851 
C -6.22011 -0.887939 -6.289462 -0.883321 -6.357716 -0.892262 
C -6.42597 -0.901202 -6.491793 -0.923527 -6.551403 -0.957953 
C -6.611013 -0.992379 -6.663247 -1.038234 -6.705103 -1.092883 
C -6.746958 -1.147533 -6.777619 -1.209911 -6.795324 -1.276432 
L -6.795324 -1.276432 
C -6.831068 -1.410431 -6.812101 -1.553293 -6.742632 -1.673324 
C -6.673162 -1.793355 -6.558738 -1.88097 -6.424743 -1.91673 
L -4.785807 -2.355447 
L -6.108695 -3.119732 
L -6.108695 -3.119732 
C -6.228699 -3.188976 -6.316415 -3.303132 -6.352417 -3.436921 
C -6.388419 -3.57071 -6.369839 -3.713469 -6.300791 -3.833586 
L -6.300791 -3.833586 
C -6.266491 -3.893214 -6.220765 -3.945496 -6.166237 -3.987431 
C -6.111708 -4.029367 -6.04944 -4.060139 -5.983005 -4.077981 
C -5.91657 -4.095823 -5.847263 -4.100389 -5.779062 -4.091415 
C -5.71086 -4.082441 -5.645094 -4.060102 -5.585535 -4.025682 
L -4.262647 -3.261396 
L -4.702703 -4.900332 
L -4.702703 -4.900332 
C -4.73846 -5.034337 -4.719499 -5.17721 -4.650029 -5.29725 
C -4.580558 -5.417291 -4.466126 -5.504912 -4.332122 -5.540672 
L -4.332122 -5.540672 
C -4.19831 -5.576464 -4.055613 -5.557686 -3.935617 -5.488496 
C -3.81562 -5.419305 -3.727882 -5.305212 -3.691824 -5.171472 
L -2.982009 -2.521594 
L -0.329411 -0.990302 
L -0.329411 -4.051588 
L -2.269453 -5.991589 
L -2.269453 -5.991589 
C -2.318227 -6.040191 -2.356931 -6.097947 -2.383337 -6.161539 
C -2.409744 -6.22513 -2.423338 -6.293314 -2.423338 -6.36217 
C -2.423338 -6.431026 -2.409744 -6.499209 -2.383337 -6.5628 
C -2.356931 -6.626392 -2.318227 -6.684149 -2.269453 -6.732751 
L -2.269453 -6.732751 
C -2.22085 -6.781526 -2.163094 -6.820229 -2.099502 -6.846635 
C -2.035911 -6.873042 -1.967728 -6.886636 -1.898871 -6.886636 
C -1.830015 -6.886636 -1.761832 -6.873042 -1.698241 -6.846635 
C -1.634649 -6.820229 -1.576893 -6.781526 -1.52829 -6.732751 
L -0.329411 -5.533829 
L -0.329411 -7.059722 
L -0.329411 -7.059722 
C -0.329411 -7.198418 -0.274255 -7.331575 -0.176182 -7.429647 
C -0.07811 -7.52772 0.055047 -7.582875 0.193743 -7.582875 
L 0.193743 -7.582875 
C 0.332439 -7.582875 0.465596 -7.52772 0.563669 -7.429647 
C 0.661741 -7.331575 0.716897 -7.198418 0.716897 -7.059722 
L 0.716897 -5.533829 
L 1.915777 -6.732751 
L 1.915777 -6.732751 
C 1.964379 -6.781526 2.022136 -6.820229 2.085727 -6.846635 
C 2.149318 -6.873042 2.217502 -6.886636 2.286358 -6.886636 
C 2.355214 -6.886636 2.423397 -6.873042 2.486989 -6.846635 
C 2.55058 -6.820229 2.608337 -6.781526 2.656939 -6.732751 
L 2.656939 -6.732751 
C 2.705714 -6.684149 2.744417 -6.626392 2.770823 -6.5628 
C 2.79723 -6.499209 2.810824 -6.431026 2.810824 -6.36217 
C 2.810824 -6.293314 2.79723 -6.22513 2.770823 -6.161539 
C 2.744417 -6.097947 2.705714 -6.040191 2.656939 -5.991589 
L 0.716897 -4.051588 
L 0.716897 -0.991139 
L 3.369495 -2.522954 
L 4.07931 -5.171367 
L 4.07931 -5.171367 
C 4.115368 -5.305107 4.203106 -5.4192 4.323103 -5.488391 
C 4.4431 -5.557582 4.585797 -5.576359 4.719608 -5.540567 
L 4.719608 -5.540567 
C 4.853612 -5.504807 4.968045 -5.417186 5.037515 -5.297146 
C 5.106986 -5.177105 5.125946 -5.034232 5.090189 -4.900227 
L 4.650133 -3.262673 
L 5.973022 -4.025577 
L 5.973022 -4.025577 
C 6.03258 -4.059998 6.098346 -4.082336 6.166548 -4.09131 
C 6.234749 -4.100284 6.304056 -4.095719 6.370491 -4.077876 
C 6.436926 -4.060034 6.499194 -4.029262 6.553723 -3.987327 
C 6.608252 -3.945391 6.653978 -3.893109 6.688277 -3.833481 
L 6.688277 -3.833481 
C 6.757325 -3.713365 6.775905 -3.570605 6.739903 -3.436816 
C 6.703901 -3.303027 6.616186 -3.188871 6.496181 -3.119628 
L 5.173293 -2.355342 
L 6.812229 -1.916625 
L 6.812229 -1.916625 
C 6.946224 -1.880865 7.060649 -1.79325 7.130118 -1.67322 
C 7.199588 -1.553189 7.218554 -1.410326 7.18281 -1.276327 
L 7.18281 -1.276327 
C 7.165106 -1.209806 7.134445 -1.147429 7.092589 -1.092779 
C 7.050733 -1.038129 6.998499 -0.992274 6.938889 -0.957848 
C 6.879279 -0.923422 6.813456 -0.901098 6.745202 -0.892157 
C 6.676949 -0.883217 6.607597 -0.887835 6.541131 -0.905746 
L 3.891253 -1.615561 
L 1.239492 -0.084604 
L 3.892718 1.447085 
L 6.541131 0.73727 
L 6.541131 0.73727 
C 6.674948 0.701466 6.817656 0.720237 6.937662 0.789429 
C 7.057669 0.858621 7.145413 0.972721 7.181471 1.10647 
L 7.181471 1.10647 
C 7.217274 1.240293 7.198497 1.383006 7.129297 1.503014 
C 7.060096 1.623021 6.945986 1.710762 6.812229 1.74681 
L 5.173293 2.186866 
L 6.496181 2.949771 
L 6.496181 2.949771 
C 6.555697 2.984183 6.607849 3.029991 6.649651 3.08457 
C 6.691452 3.13915 6.722088 3.201437 6.739803 3.267863 
C 6.757517 3.33429 6.761966 3.403561 6.752893 3.471707 
C 6.743821 3.539854 6.721404 3.605549 6.686927 3.665026 
L 6.686927 3.665026 
C 6.617458 3.784813 6.503196 3.87225 6.369416 3.907994 
C 6.235636 3.943739 6.092989 3.924946 5.973032 3.855772 
L 4.650144 3.091487 
L 5.08886 4.731783 
L 5.08886 4.731783 
C 5.124664 4.865606 5.105887 5.008319 5.036686 5.128326 
C 4.967486 5.248334 4.853376 5.336074 4.719619 5.372123 
L 4.719619 5.372123 
C 4.585619 5.407867 4.442757 5.3889 4.322726 5.319431 
C 4.202695 5.249961 4.115081 5.135537 4.07932 5.001542 
L 3.368166 2.351664 
L 0.717033 0.821063 
L 0.717033 3.884232 
L 2.657075 5.822893 
L 2.657075 5.822893 
C 2.70585 5.871495 2.744553 5.929252 2.770959 5.992843 
C 2.797366 6.056435 2.81096 6.124618 2.81096 6.193474 
C 2.81096 6.26233 2.797366 6.330514 2.770959 6.394105 
C 2.744553 6.457696 2.70585 6.515453 2.657075 6.564055 
L 2.657075 6.564055 
C 2.608473 6.61283 2.550716 6.651533 2.487125 6.67794 
C 2.423533 6.704346 2.35535 6.71794 2.286494 6.71794 
C 2.217638 6.71794 2.149454 6.704346 2.085863 6.67794 
C 2.022272 6.651533 1.964515 6.61283 1.915913 6.564055 
L 0.717033 5.365133 
L 0.717033 6.891026 
L 0.717033 6.891026 
C 0.717033 7.029722 0.661877 7.162879 0.563805 7.260952 
C 0.465732 7.359024 0.332575 7.41418 0.193879 7.41418 
L 0.193618 7.414054 
z
"/>
    </defs>
    <g clip-path="url(#pcf569cd8c0)">
     <use xlink:href="#mba546acebd" x="257.540095" y="156.389856" style="fill: #0000ff; fill-opacity: 0.7"/>
    </g>
   </g>
   <g id="patch_35">
    <path d="M 192.79625 62.022 
C 178.235622 62.022 163.816577 64.890126 150.364311 70.462237 
C 136.912045 76.034349 124.688169 84.202081 114.39225 94.498 
C 104.096331 104.793919 95.928599 117.017795 90.356487 130.470061 
C 84.784376 143.922327 81.91625 158.341372 81.91625 172.902 
C 81.91625 187.462628 84.784376 201.881673 90.356487 215.333939 
C 95.928599 228.786205 104.096331 241.010081 114.39225 251.306 
C 124.688169 261.601919 136.912045 269.769651 150.364311 275.341763 
C 163.816577 280.913874 178.235622 283.782 192.79625 283.782 
C 207.356878 283.782 221.775923 280.913874 235.228189 275.341763 
C 248.680455 269.769651 260.904331 261.601919 271.20025 251.306 
C 281.496169 241.010081 289.663901 228.786205 295.236013 215.333939 
C 300.808124 201.881673 303.67625 187.462628 303.67625 172.902 
C 303.67625 158.341372 300.808124 143.922327 295.236013 130.470061 
C 289.663901 117.017795 281.496169 104.793919 271.20025 94.498 
C 260.904331 84.202081 248.680455 76.034349 235.228189 70.462237 
C 221.775923 64.890126 207.356878 62.022 192.79625 62.022 
" style="fill: none; stroke: #000000; stroke-width: 0.8; stroke-linejoin: miter; stroke-linecap: square"/>
   </g>
   <g id="text_5">
    <!-- 36 runs -->
    <g style="fill: #95a5a6" transform="translate(68.91793 56.622118) scale(0.1 -0.1)">
     <defs>
      <path id="DejaVuSans-33" d="M 2597 2516 
Q 3050 2419 3304 2112 
Q 3559 1806 3559 1356 
Q 3559 666 3084 287 
Q 2609 -91 1734 -91 
Q 1441 -91 1130 -33 
Q 819 25 488 141 
L 488 750 
Q 750 597 1062 519 
Q 1375 441 1716 441 
Q 2309 441 2620 675 
Q 2931 909 2931 1356 
Q 2931 1769 2642 2001 
Q 2353 2234 1838 2234 
L 1294 2234 
L 1294 2753 
L 1863 2753 
Q 2328 2753 2575 2939 
Q 2822 3125 2822 3475 
Q 2822 3834 2567 4026 
Q 2313 4219 1838 4219 
Q 1578 4219 1281 4162 
Q 984 4106 628 3988 
L 628 4550 
Q 988 4650 1302 4700 
Q 1616 4750 1894 4750 
Q 2613 4750 3031 4423 
Q 3450 4097 3450 3541 
Q 3450 3153 3228 2886 
Q 3006 2619 2597 2516 
z
" transform="scale(0.015625)"/>
      <path id="DejaVuSans-36" d="M 2113 2584 
Q 1688 2584 1439 2293 
Q 1191 2003 1191 1497 
Q 1191 994 1439 701 
Q 1688 409 2113 409 
Q 2538 409 2786 701 
Q 3034 994 3034 1497 
Q 3034 2003 2786 2293 
Q 2538 2584 2113 2584 
z
M 3366 4563 
L 3366 3988 
Q 3128 4100 2886 4159 
Q 2644 4219 2406 4219 
Q 1781 4219 1451 3797 
Q 1122 3375 1075 2522 
Q 1259 2794 1537 2939 
Q 1816 3084 2150 3084 
Q 2853 3084 3261 2657 
Q 3669 2231 3669 1497 
Q 3669 778 3244 343 
Q 2819 -91 2113 -91 
Q 1303 -91 875 529 
Q 447 1150 447 2328 
Q 447 3434 972 4092 
Q 1497 4750 2381 4750 
Q 2619 4750 2861 4703 
Q 3103 4656 3366 4563 
z
" transform="scale(0.015625)"/>
      <path id="DejaVuSans-20" transform="scale(0.015625)"/>
      <path id="DejaVuSans-72" d="M 2631 2963 
Q 2534 3019 2420 3045 
Q 2306 3072 2169 3072 
Q 1681 3072 1420 2755 
Q 1159 2438 1159 1844 
L 1159 0 
L 581 0 
L 581 3500 
L 1159 3500 
L 1159 2956 
Q 1341 3275 1631 3429 
Q 1922 3584 2338 3584 
Q 2397 3584 2469 3576 
Q 2541 3569 2628 3553 
L 2631 2963 
z
" transform="scale(0.015625)"/>
      <path id="DejaVuSans-75" d="M 544 1381 
L 544 3500 
L 1119 3500 
L 1119 1403 
Q 1119 906 1312 657 
Q 1506 409 1894 409 
Q 2359 409 2629 706 
Q 2900 1003 2900 1516 
L 2900 3500 
L 3475 3500 
L 3475 0 
L 2900 0 
L 2900 538 
Q 2691 219 2414 64 
Q 2138 -91 1772 -91 
Q 1169 -91 856 284 
Q 544 659 544 1381 
z
M 1991 3584 
L 1991 3584 
z
" transform="scale(0.015625)"/>
      <path id="DejaVuSans-6e" d="M 3513 2113 
L 3513 0 
L 2938 0 
L 2938 2094 
Q 2938 2591 2744 2837 
Q 2550 3084 2163 3084 
Q 1697 3084 1428 2787 
Q 1159 2491 1159 1978 
L 1159 0 
L 581 0 
L 581 3500 
L 1159 3500 
L 1159 2956 
Q 1366 3272 1645 3428 
Q 1925 3584 2291 3584 
Q 2894 3584 3203 3211 
Q 3513 2838 3513 2113 
z
" transform="scale(0.015625)"/>
      <path id="DejaVuSans-73" d="M 2834 3397 
L 2834 2853 
Q 2591 2978 2328 3040 
Q 2066 3103 1784 3103 
Q 1356 3103 1142 2972 
Q 928 2841 928 2578 
Q 928 2378 1081 2264 
Q 1234 2150 1697 2047 
L 1894 2003 
Q 2506 1872 2764 1633 
Q 3022 1394 3022 966 
Q 3022 478 2636 193 
Q 2250 -91 1575 -91 
Q 1294 -91 989 -36 
Q 684 19 347 128 
L 347 722 
Q 666 556 975 473 
Q 1284 391 1588 391 
Q 1994 391 2212 530 
Q 2431 669 2431 922 
Q 2431 1156 2273 1281 
Q 2116 1406 1581 1522 
L 1381 1569 
Q 847 1681 609 1914 
Q 372 2147 372 2553 
Q 372 3047 722 3315 
Q 1072 3584 1716 3584 
Q 2034 3584 2315 3537 
Q 2597 3491 2834 3397 
z
" transform="scale(0.015625)"/>
     </defs>
     <use xlink:href="#DejaVuSans-33"/>
     <use xlink:href="#DejaVuSans-36" x="63.623047"/>
     <use xlink:href="#DejaVuSans-20" x="127.246094"/>
     <use xlink:href="#DejaVuSans-72" x="159.033203"/>
     <use xlink:href="#DejaVuSans-75" x="200.146484"/>
     <use xlink:href="#DejaVuSans-6e" x="263.525391"/>
     <use xlink:href="#DejaVuSans-73" x="326.904297"/>
    </g>
    <!-- 11 lifts -->
    <g style="fill: #95a5a6" transform="translate(68.91793 67.81993) scale(0.1 -0.1)">
     <defs>
      <path id="DejaVuSans-31" d="M 794 531 
L 1825 531 
L 1825 4091 
L 703 3866 
L 703 4441 
L 1819 4666 
L 2450 4666 
L 2450 531 
L 3481 531 
L 3481 0 
L 794 0 
L 794 531 
z
" transform="scale(0.015625)"/>
      <path id="DejaVuSans-6c" d="M 603 4863 
L 1178 4863 
L 1178 0 
L 603 0 
L 603 4863 
z
" transform="scale(0.015625)"/>
      <path id="DejaVuSans-69" d="M 603 3500 
L 1178 3500 
L 1178 0 
L 603 0 
L 603 3500 
z
M 603 4863 
L 1178 4863 
L 1178 4134 
L 603 4134 
L 603 4863 
z
" transform="scale(0.015625)"/>
      <path id="DejaVuSans-66" d="M 2375 4863 
L 2375 4384 
L 1825 4384 
Q 1516 4384 1395 4259 
Q 1275 4134 1275 3809 
L 1275 3500 
L 2222 3500 
L 2222 3053 
L 1275 3053 
L 1275 0 
L 697 0 
L 697 3053 
L 147 3053 
L 147 3500 
L 697 3500 
L 697 3744 
Q 697 4328 969 4595 
Q 1241 4863 1831 4863 
L 2375 4863 
z
" transform="scale(0.015625)"/>
      <path id="DejaVuSans-74" d="M 1172 4494 
L 1172 3500 
L 2356 3500 
L 2356 3053 
L 1172 3053 
L 1172 1153 
Q 1172 725 1289 603 
Q 1406 481 1766 481 
L 2356 481 
L 2356 0 
L 1766 0 
Q 1100 0 847 248 
Q 594 497 594 1153 
L 594 3053 
L 172 3053 
L 172 3500 
L 594 3500 
L 594 4494 
L 1172 4494 
z
" transform="scale(0.015625)"/>
     </defs>
     <use xlink:href="#DejaVuSans-31"/>
     <use xlink:href="#DejaVuSans-31" x="63.623047"/>
     <use xlink:href="#DejaVuSans-20" x="127.246094"/>
     <use xlink:href="#DejaVuSans-6c" x="159.033203"/>
     <use xlink:href="#DejaVuSans-69" x="186.816406"/>
     <use xlink:href="#DejaVuSans-66" x="214.599609"/>
     <use xlink:href="#DejaVuSans-74" x="248.054688"/>
     <use xlink:href="#DejaVuSans-73" x="287.263672"/>
    </g>
   </g>
   <g id="text_6">
    <!-- 2,972 m -->
    <g style="fill: #95a5a6" transform="translate(276.308945 56.622118) scale(0.1 -0.1)">
     <defs>
      <path id="DejaVuSans-32" d="M 1228 531 
L 3431 531 
L 3431 0 
L 469 0 
L 469 531 
Q 828 903 1448 1529 
Q 2069 2156 2228 2338 
Q 2531 2678 2651 2914 
Q 2772 3150 2772 3378 
Q 2772 3750 2511 3984 
Q 2250 4219 1831 4219 
Q 1534 4219 1204 4116 
Q 875 4013 500 3803 
L 500 4441 
Q 881 4594 1212 4672 
Q 1544 4750 1819 4750 
Q 2544 4750 2975 4387 
Q 3406 4025 3406 3419 
Q 3406 3131 3298 2873 
Q 3191 2616 2906 2266 
Q 2828 2175 2409 1742 
Q 1991 1309 1228 531 
z
" transform="scale(0.015625)"/>
      <path id="DejaVuSans-2c" d="M 750 794 
L 1409 794 
L 1409 256 
L 897 -744 
L 494 -744 
L 750 256 
L 750 794 
z
" transform="scale(0.015625)"/>
      <path id="DejaVuSans-39" d="M 703 97 
L 703 672 
Q 941 559 1184 500 
Q 1428 441 1663 441 
Q 2288 441 2617 861 
Q 2947 1281 2994 2138 
Q 2813 1869 2534 1725 
Q 2256 1581 1919 1581 
Q 1219 1581 811 2004 
Q 403 2428 403 3163 
Q 403 3881 828 4315 
Q 1253 4750 1959 4750 
Q 2769 4750 3195 4129 
Q 3622 3509 3622 2328 
Q 3622 1225 3098 567 
Q 2575 -91 1691 -91 
Q 1453 -91 1209 -44 
Q 966 3 703 97 
z
M 1959 2075 
Q 2384 2075 2632 2365 
Q 2881 2656 2881 3163 
Q 2881 3666 2632 3958 
Q 2384 4250 1959 4250 
Q 1534 4250 1286 3958 
Q 1038 3666 1038 3163 
Q 1038 2656 1286 2365 
Q 1534 2075 1959 2075 
z
" transform="scale(0.015625)"/>
      <path id="DejaVuSans-37" d="M 525 4666 
L 3525 4666 
L 3525 4397 
L 1831 0 
L 1172 0 
L 2766 4134 
L 525 4134 
L 525 4666 
z
" transform="scale(0.015625)"/>
      <path id="DejaVuSans-202f" transform="scale(0.015625)"/>
      <path id="DejaVuSans-6d" d="M 3328 2828 
Q 3544 3216 3844 3400 
Q 4144 3584 4550 3584 
Q 5097 3584 5394 3201 
Q 5691 2819 5691 2113 
L 5691 0 
L 5113 0 
L 5113 2094 
Q 5113 2597 4934 2840 
Q 4756 3084 4391 3084 
Q 3944 3084 3684 2787 
Q 3425 2491 3425 1978 
L 3425 0 
L 2847 0 
L 2847 2094 
Q 2847 2600 2669 2842 
Q 2491 3084 2119 3084 
Q 1678 3084 1418 2786 
Q 1159 2488 1159 1978 
L 1159 0 
L 581 0 
L 581 3500 
L 1159 3500 
L 1159 2956 
Q 1356 3278 1631 3431 
Q 1906 3584 2284 3584 
Q 2666 3584 2933 3390 
Q 3200 3197 3328 2828 
z
" transform="scale(0.015625)"/>
     </defs>
     <use xlink:href="#DejaVuSans-32"/>
     <use xlink:href="#DejaVuSans-2c" x="63.623047"/>
     <use xlink:href="#DejaVuSans-39" x="95.410156"/>
     <use xlink:href="#DejaVuSans-37" x="159.033203"/>
     <use xlink:href="#DejaVuSans-32" x="222.65625"/>
     <use xlink:href="#DejaVuSans-202f" x="286.279297"/>
     <use xlink:href="#DejaVuSans-6d" x="306.25"/>
    </g>
    <!-- skiable -->
    <g style="fill: #95a5a6" transform="translate(281.488632 67.81993) scale(0.1 -0.1)">
     <defs>
      <path id="DejaVuSans-6b" d="M 581 4863 
L 1159 4863 
L 1159 1991 
L 2875 3500 
L 3609 3500 
L 1753 1863 
L 3688 0 
L 2938 0 
L 1159 1709 
L 1159 0 
L 581 0 
L 581 4863 
z
" transform="scale(0.015625)"/>
      <path id="DejaVuSans-61" d="M 2194 1759 
Q 1497 1759 1228 1600 
Q 959 1441 959 1056 
Q 959 750 1161 570 
Q 1363 391 1709 391 
Q 2188 391 2477 730 
Q 2766 1069 2766 1631 
L 2766 1759 
L 2194 1759 
z
M 3341 1997 
L 3341 0 
L 2766 0 
L 2766 531 
Q 2569 213 2275 61 
Q 1981 -91 1556 -91 
Q 1019 -91 701 211 
Q 384 513 384 1019 
Q 384 1609 779 1909 
Q 1175 2209 1959 2209 
L 2766 2209 
L 2766 2266 
Q 2766 2663 2505 2880 
Q 2244 3097 1772 3097 
Q 1472 3097 1187 3025 
Q 903 2953 641 2809 
L 641 3341 
Q 956 3463 1253 3523 
Q 1550 3584 1831 3584 
Q 2591 3584 2966 3190 
Q 3341 2797 3341 1997 
z
" transform="scale(0.015625)"/>
      <path id="DejaVuSans-62" d="M 3116 1747 
Q 3116 2381 2855 2742 
Q 2594 3103 2138 3103 
Q 1681 3103 1420 2742 
Q 1159 2381 1159 1747 
Q 1159 1113 1420 752 
Q 1681 391 2138 391 
Q 2594 391 2855 752 
Q 3116 1113 3116 1747 
z
M 1159 2969 
Q 1341 3281 1617 3432 
Q 1894 3584 2278 3584 
Q 2916 3584 3314 3078 
Q 3713 2572 3713 1747 
Q 3713 922 3314 415 
Q 2916 -91 2278 -91 
Q 1894 -91 1617 61 
Q 1341 213 1159 525 
L 1159 0 
L 581 0 
L 581 4863 
L 1159 4863 
L 1159 2969 
z
" transform="scale(0.015625)"/>
      <path id="DejaVuSans-65" d="M 3597 1894 
L 3597 1613 
L 953 1613 
Q 991 1019 1311 708 
Q 1631 397 2203 397 
Q 2534 397 2845 478 
Q 3156 559 3463 722 
L 3463 178 
Q 3153 47 2828 -22 
Q 2503 -91 2169 -91 
Q 1331 -91 842 396 
Q 353 884 353 1716 
Q 353 2575 817 3079 
Q 1281 3584 2069 3584 
Q 2775 3584 3186 3129 
Q 3597 2675 3597 1894 
z
M 3022 2063 
Q 3016 2534 2758 2815 
Q 2500 3097 2075 3097 
Q 1594 3097 1305 2825 
Q 1016 2553 972 2059 
L 3022 2063 
z
" transform="scale(0.015625)"/>
     </defs>
     <use xlink:href="#DejaVuSans-73"/>
     <use xlink:href="#DejaVuSans-6b" x="52.099609"/>
     <use xlink:href="#DejaVuSans-69" x="110.009766"/>
     <use xlink:href="#DejaVuSans-61" x="137.792969"/>
     <use xlink:href="#DejaVuSans-62" x="199.072266"/>
     <use xlink:href="#DejaVuSans-6c" x="262.548828"/>
     <use xlink:href="#DejaVuSans-65" x="290.332031"/>
    </g>
    <!-- vert -->
    <g style="fill: #95a5a6" transform="translate(296.571445 79.017743) scale(0.1 -0.1)">
     <defs>
      <path id="DejaVuSans-76" d="M 191 3500 
L 800 3500 
L 1894 563 
L 2988 3500 
L 3597 3500 
L 2284 0 
L 1503 0 
L 191 3500 
z
" transform="scale(0.015625)"/>
     </defs>
     <use xlink:href="#DejaVuSans-76"/>
     <use xlink:href="#DejaVuSans-65" x="59.179688"/>
     <use xlink:href="#DejaVuSans-72" x="120.703125"/>
     <use xlink:href="#DejaVuSans-74" x="161.816406"/>
    </g>
   </g>
   <g id="text_7">
    <!-- affinity: -->
    <g style="fill: #95a5a6" transform="translate(68.91793 272.305007) scale(0.1 -0.1)">
     <defs>
      <path id="DejaVuSans-79" d="M 2059 -325 
Q 1816 -950 1584 -1140 
Q 1353 -1331 966 -1331 
L 506 -1331 
L 506 -850 
L 844 -850 
Q 1081 -850 1212 -737 
Q 1344 -625 1503 -206 
L 1606 56 
L 191 3500 
L 800 3500 
L 1894 763 
L 2988 3500 
L 3597 3500 
L 2059 -325 
z
" transform="scale(0.015625)"/>
      <path id="DejaVuSans-3a" d="M 750 794 
L 1409 794 
L 1409 0 
L 750 0 
L 750 794 
z
M 750 3309 
L 1409 3309 
L 1409 2516 
L 750 2516 
L 750 3309 
z
" transform="scale(0.015625)"/>
     </defs>
     <use xlink:href="#DejaVuSans-61"/>
     <use xlink:href="#DejaVuSans-66" x="61.279297"/>
     <use xlink:href="#DejaVuSans-66" x="96.484375"/>
     <use xlink:href="#DejaVuSans-69" x="131.689453"/>
     <use xlink:href="#DejaVuSans-6e" x="159.472656"/>
     <use xlink:href="#DejaVuSans-69" x="222.851562"/>
     <use xlink:href="#DejaVuSans-74" x="250.634766"/>
     <use xlink:href="#DejaVuSans-79" x="289.84375"/>
     <use xlink:href="#DejaVuSans-3a" x="341.773438"/>
    </g>
    <!-- 15% poleward -->
    <g style="fill: #95a5a6" transform="translate(68.91793 283.50282) scale(0.1 -0.1)">
     <defs>
      <path id="DejaVuSans-35" d="M 691 4666 
L 3169 4666 
L 3169 4134 
L 1269 4134 
L 1269 2991 
Q 1406 3038 1543 3061 
Q 1681 3084 1819 3084 
Q 2600 3084 3056 2656 
Q 3513 2228 3513 1497 
Q 3513 744 3044 326 
Q 2575 -91 1722 -91 
Q 1428 -91 1123 -41 
Q 819 9 494 109 
L 494 744 
Q 775 591 1075 516 
Q 1375 441 1709 441 
Q 2250 441 2565 725 
Q 2881 1009 2881 1497 
Q 2881 1984 2565 2268 
Q 2250 2553 1709 2553 
Q 1456 2553 1204 2497 
Q 953 2441 691 2322 
L 691 4666 
z
" transform="scale(0.015625)"/>
      <path id="DejaVuSans-25" d="M 4653 2053 
Q 4381 2053 4226 1822 
Q 4072 1591 4072 1178 
Q 4072 772 4226 539 
Q 4381 306 4653 306 
Q 4919 306 5073 539 
Q 5228 772 5228 1178 
Q 5228 1588 5073 1820 
Q 4919 2053 4653 2053 
z
M 4653 2450 
Q 5147 2450 5437 2106 
Q 5728 1763 5728 1178 
Q 5728 594 5436 251 
Q 5144 -91 4653 -91 
Q 4153 -91 3862 251 
Q 3572 594 3572 1178 
Q 3572 1766 3864 2108 
Q 4156 2450 4653 2450 
z
M 1428 4353 
Q 1159 4353 1004 4120 
Q 850 3888 850 3481 
Q 850 3069 1003 2837 
Q 1156 2606 1428 2606 
Q 1700 2606 1854 2837 
Q 2009 3069 2009 3481 
Q 2009 3884 1853 4118 
Q 1697 4353 1428 4353 
z
M 4250 4750 
L 4750 4750 
L 1831 -91 
L 1331 -91 
L 4250 4750 
z
M 1428 4750 
Q 1922 4750 2215 4408 
Q 2509 4066 2509 3481 
Q 2509 2891 2217 2550 
Q 1925 2209 1428 2209 
Q 931 2209 642 2551 
Q 353 2894 353 3481 
Q 353 4063 643 4406 
Q 934 4750 1428 4750 
z
" transform="scale(0.015625)"/>
      <path id="DejaVuSans-70" d="M 1159 525 
L 1159 -1331 
L 581 -1331 
L 581 3500 
L 1159 3500 
L 1159 2969 
Q 1341 3281 1617 3432 
Q 1894 3584 2278 3584 
Q 2916 3584 3314 3078 
Q 3713 2572 3713 1747 
Q 3713 922 3314 415 
Q 2916 -91 2278 -91 
Q 1894 -91 1617 61 
Q 1341 213 1159 525 
z
M 3116 1747 
Q 3116 2381 2855 2742 
Q 2594 3103 2138 3103 
Q 1681 3103 1420 2742 
Q 1159 2381 1159 1747 
Q 1159 1113 1420 752 
Q 1681 391 2138 391 
Q 2594 391 2855 752 
Q 3116 1113 3116 1747 
z
" transform="scale(0.015625)"/>
      <path id="DejaVuSans-6f" d="M 1959 3097 
Q 1497 3097 1228 2736 
Q 959 2375 959 1747 
Q 959 1119 1226 758 
Q 1494 397 1959 397 
Q 2419 397 2687 759 
Q 2956 1122 2956 1747 
Q 2956 2369 2687 2733 
Q 2419 3097 1959 3097 
z
M 1959 3584 
Q 2709 3584 3137 3096 
Q 3566 2609 3566 1747 
Q 3566 888 3137 398 
Q 2709 -91 1959 -91 
Q 1206 -91 779 398 
Q 353 888 353 1747 
Q 353 2609 779 3096 
Q 1206 3584 1959 3584 
z
" transform="scale(0.015625)"/>
      <path id="DejaVuSans-77" d="M 269 3500 
L 844 3500 
L 1563 769 
L 2278 3500 
L 2956 3500 
L 3675 769 
L 4391 3500 
L 4966 3500 
L 4050 0 
L 3372 0 
L 2619 2869 
L 1863 0 
L 1184 0 
L 269 3500 
z
" transform="scale(0.015625)"/>
      <path id="DejaVuSans-64" d="M 2906 2969 
L 2906 4863 
L 3481 4863 
L 3481 0 
L 2906 0 
L 2906 525 
Q 2725 213 2448 61 
Q 2172 -91 1784 -91 
Q 1150 -91 751 415 
Q 353 922 353 1747 
Q 353 2572 751 3078 
Q 1150 3584 1784 3584 
Q 2172 3584 2448 3432 
Q 2725 3281 2906 2969 
z
M 947 1747 
Q 947 1113 1208 752 
Q 1469 391 1925 391 
Q 2381 391 2643 752 
Q 2906 1113 2906 1747 
Q 2906 2381 2643 2742 
Q 2381 3103 1925 3103 
Q 1469 3103 1208 2742 
Q 947 2381 947 1747 
z
" transform="scale(0.015625)"/>
     </defs>
     <use xlink:href="#DejaVuSans-31"/>
     <use xlink:href="#DejaVuSans-35" x="63.623047"/>
     <use xlink:href="#DejaVuSans-25" x="127.246094"/>
     <use xlink:href="#DejaVuSans-20" x="222.265625"/>
     <use xlink:href="#DejaVuSans-70" x="254.052734"/>
     <use xlink:href="#DejaVuSans-6f" x="317.529297"/>
     <use xlink:href="#DejaVuSans-6c" x="378.710938"/>
     <use xlink:href="#DejaVuSans-65" x="406.494141"/>
     <use xlink:href="#DejaVuSans-77" x="468.017578"/>
     <use xlink:href="#DejaVuSans-61" x="549.804688"/>
     <use xlink:href="#DejaVuSans-72" x="611.083984"/>
     <use xlink:href="#DejaVuSans-64" x="650.447266"/>
    </g>
    <!-- 58% eastward -->
    <g style="fill: #95a5a6" transform="translate(68.91793 294.700632) scale(0.1 -0.1)">
     <defs>
      <path id="DejaVuSans-38" d="M 2034 2216 
Q 1584 2216 1326 1975 
Q 1069 1734 1069 1313 
Q 1069 891 1326 650 
Q 1584 409 2034 409 
Q 2484 409 2743 651 
Q 3003 894 3003 1313 
Q 3003 1734 2745 1975 
Q 2488 2216 2034 2216 
z
M 1403 2484 
Q 997 2584 770 2862 
Q 544 3141 544 3541 
Q 544 4100 942 4425 
Q 1341 4750 2034 4750 
Q 2731 4750 3128 4425 
Q 3525 4100 3525 3541 
Q 3525 3141 3298 2862 
Q 3072 2584 2669 2484 
Q 3125 2378 3379 2068 
Q 3634 1759 3634 1313 
Q 3634 634 3220 271 
Q 2806 -91 2034 -91 
Q 1263 -91 848 271 
Q 434 634 434 1313 
Q 434 1759 690 2068 
Q 947 2378 1403 2484 
z
M 1172 3481 
Q 1172 3119 1398 2916 
Q 1625 2713 2034 2713 
Q 2441 2713 2670 2916 
Q 2900 3119 2900 3481 
Q 2900 3844 2670 4047 
Q 2441 4250 2034 4250 
Q 1625 4250 1398 4047 
Q 1172 3844 1172 3481 
z
" transform="scale(0.015625)"/>
     </defs>
     <use xlink:href="#DejaVuSans-35"/>
     <use xlink:href="#DejaVuSans-38" x="63.623047"/>
     <use xlink:href="#DejaVuSans-25" x="127.246094"/>
     <use xlink:href="#DejaVuSans-20" x="222.265625"/>
     <use xlink:href="#DejaVuSans-65" x="254.052734"/>
     <use xlink:href="#DejaVuSans-61" x="315.576172"/>
     <use xlink:href="#DejaVuSans-73" x="376.855469"/>
     <use xlink:href="#DejaVuSans-74" x="428.955078"/>
     <use xlink:href="#DejaVuSans-77" x="468.164062"/>
     <use xlink:href="#DejaVuSans-61" x="549.951172"/>
     <use xlink:href="#DejaVuSans-72" x="611.230469"/>
     <use xlink:href="#DejaVuSans-64" x="650.59375"/>
    </g>
   </g>
   <g id="text_8">
    <!-- elevation: -->
    <g style="fill: #95a5a6" transform="translate(267.019882 272.305007) scale(0.1 -0.1)">
     <use xlink:href="#DejaVuSans-65"/>
     <use xlink:href="#DejaVuSans-6c" x="61.523438"/>
     <use xlink:href="#DejaVuSans-65" x="89.306641"/>
     <use xlink:href="#DejaVuSans-76" x="150.830078"/>
     <use xlink:href="#DejaVuSans-61" x="210.009766"/>
     <use xlink:href="#DejaVuSans-74" x="271.289062"/>
     <use xlink:href="#DejaVuSans-69" x="310.498047"/>
     <use xlink:href="#DejaVuSans-6f" x="338.28125"/>
     <use xlink:href="#DejaVuSans-6e" x="399.462891"/>
     <use xlink:href="#DejaVuSans-3a" x="462.841797"/>
    </g>
    <!-- 365 m base -->
    <g style="fill: #95a5a6" transform="translate(258.832382 283.50282) scale(0.1 -0.1)">
     <use xlink:href="#DejaVuSans-33"/>
     <use xlink:href="#DejaVuSans-36" x="63.623047"/>
     <use xlink:href="#DejaVuSans-35" x="127.246094"/>
     <use xlink:href="#DejaVuSans-202f" x="190.869141"/>
     <use xlink:href="#DejaVuSans-6d" x="210.839844"/>
     <use xlink:href="#DejaVuSans-20" x="308.251953"/>
     <use xlink:href="#DejaVuSans-62" x="340.039062"/>
     <use xlink:href="#DejaVuSans-61" x="403.515625"/>
     <use xlink:href="#DejaVuSans-73" x="464.794922"/>
     <use xlink:href="#DejaVuSans-65" x="516.894531"/>
    </g>
    <!-- 1,178 m peak -->
    <g style="fill: #95a5a6" transform="translate(248.710507 294.700632) scale(0.1 -0.1)">
     <use xlink:href="#DejaVuSans-31"/>
     <use xlink:href="#DejaVuSans-2c" x="63.623047"/>
     <use xlink:href="#DejaVuSans-31" x="95.410156"/>
     <use xlink:href="#DejaVuSans-37" x="159.033203"/>
     <use xlink:href="#DejaVuSans-38" x="222.65625"/>
     <use xlink:href="#DejaVuSans-202f" x="286.279297"/>
     <use xlink:href="#DejaVuSans-6d" x="306.25"/>
     <use xlink:href="#DejaVuSans-20" x="403.662109"/>
     <use xlink:href="#DejaVuSans-70" x="435.449219"/>
     <use xlink:href="#DejaVuSans-65" x="498.925781"/>
     <use xlink:href="#DejaVuSans-61" x="560.449219"/>
     <use xlink:href="#DejaVuSans-6b" x="621.728516"/>
    </g>
   </g>
   <g id="text_9">
    <!-- ガーラ湯沢スノーリゾート, Gala Yuzawa Snow -->
    <g transform="translate(7.2 20.0175) scale(0.16 -0.16)">
     <defs>
      <path id="NotoSansCJKjp-Bold-30ac" d="M 4922 5126 
L 4416 4915 
C 4589 4666 4781 4288 4915 4026 
L 5427 4250 
C 5306 4486 5082 4890 4922 5126 
z
M 5677 5414 
L 5171 5203 
C 5350 4960 5555 4589 5683 4320 
L 6195 4544 
C 6080 4768 5843 5171 5677 5414 
z
M 5453 3699 
L 4896 3968 
C 4742 3936 4576 3923 4416 3923 
L 3213 3923 
L 3238 4493 
C 3245 4646 3258 4915 3277 5069 
L 2336 5069 
C 2362 4915 2381 4621 2381 4480 
L 2368 3923 
L 1453 3923 
C 1210 3923 877 3936 608 3968 
L 608 3123 
C 883 3149 1235 3155 1453 3155 
L 2298 3155 
C 2157 2182 1837 1459 1242 870 
C 986 614 666 397 403 250 
L 1146 -352 
C 2291 461 2899 1459 3136 3155 
L 4576 3155 
C 4576 2464 4493 1184 4307 781 
C 4237 621 4147 557 3942 557 
C 3693 557 3360 589 3046 640 
L 3149 -211 
C 3456 -237 3840 -269 4205 -269 
C 4646 -269 4890 -96 5030 224 
C 5306 877 5382 2669 5408 3360 
C 5408 3430 5434 3590 5453 3699 
z
" transform="scale(0.015625)"/>
      <path id="NotoSansCJKjp-Bold-30fc" d="M 589 2963 
L 589 1958 
C 826 1971 1254 1990 1619 1990 
C 2368 1990 4480 1990 5056 1990 
C 5325 1990 5651 1965 5805 1958 
L 5805 2963 
C 5638 2950 5357 2925 5056 2925 
C 4480 2925 2374 2925 1619 2925 
C 1286 2925 819 2944 589 2963 
z
" transform="scale(0.015625)"/>
      <path id="NotoSansCJKjp-Bold-30e9" d="M 1427 4909 
L 1427 4083 
C 1613 4096 1888 4102 2093 4102 
C 2477 4102 4186 4102 4544 4102 
C 4774 4102 5075 4096 5248 4083 
L 5248 4909 
C 5069 4883 4755 4877 4557 4877 
C 4186 4877 2496 4877 2093 4877 
C 1875 4877 1606 4883 1427 4909 
z
M 5786 3053 
L 5216 3405 
C 5126 3366 4954 3341 4749 3341 
C 4307 3341 2022 3341 1581 3341 
C 1382 3341 1107 3360 838 3379 
L 838 2547 
C 1107 2573 1427 2579 1581 2579 
C 2157 2579 4346 2579 4672 2579 
C 4557 2221 4358 1824 4013 1472 
C 3526 973 2758 550 1798 352 
L 2432 -371 
C 3251 -141 4070 294 4717 1011 
C 5197 1542 5472 2163 5664 2784 
C 5690 2854 5741 2970 5786 3053 
z
" transform="scale(0.015625)"/>
      <path id="NotoSansCJKjp-Bold-6e6f" d="M 3245 3891 
L 4966 3891 
L 4966 3590 
L 3245 3590 
L 3245 3891 
z
M 3245 4698 
L 4966 4698 
L 4966 4403 
L 3245 4403 
L 3245 4698 
z
M 2528 5242 
L 2528 3046 
L 5722 3046 
L 5722 5242 
L 2528 5242 
z
M 512 4838 
C 896 4672 1376 4378 1606 4160 
L 2054 4794 
C 1811 5005 1318 5267 941 5414 
L 512 4838 
z
M 179 3110 
C 563 2950 1037 2675 1267 2464 
L 1709 3104 
C 1466 3309 973 3558 595 3693 
L 179 3110 
z
M 269 -45 
L 960 -499 
C 1210 -19 1466 531 1702 1069 
C 1862 954 2074 768 2176 666 
C 2400 832 2624 1050 2829 1286 
L 3200 1286 
C 2880 787 2426 333 1946 32 
C 2093 -77 2349 -307 2464 -435 
C 3014 -32 3578 602 3962 1286 
L 4333 1286 
C 4083 698 3699 166 3238 -179 
C 3398 -269 3674 -474 3795 -582 
C 4301 -147 4755 531 5050 1286 
L 5299 1286 
C 5248 538 5190 230 5107 141 
C 5050 77 5005 70 4922 70 
C 4838 70 4678 70 4499 90 
C 4602 -83 4666 -365 4678 -576 
C 4934 -582 5171 -576 5312 -550 
C 5478 -525 5606 -474 5722 -333 
C 5888 -134 5971 384 6054 1600 
C 6061 1690 6067 1875 6067 1875 
L 3270 1875 
C 3334 1971 3392 2074 3450 2176 
L 6202 2176 
L 6202 2790 
L 1965 2790 
L 1965 2176 
L 2675 2176 
C 2438 1798 2112 1446 1754 1190 
L 1907 1555 
L 1306 2016 
C 979 1261 563 448 269 -45 
z
" transform="scale(0.015625)"/>
      <path id="NotoSansCJKjp-Bold-6ca2" d="M 563 4845 
C 973 4666 1498 4352 1741 4122 
L 2189 4742 
C 1926 4973 1389 5254 986 5408 
L 563 4845 
z
M 179 3110 
C 602 2931 1126 2637 1376 2413 
L 1805 3046 
C 1536 3264 998 3539 589 3686 
L 179 3110 
z
M 352 0 
L 1018 -493 
C 1376 141 1747 883 2061 1568 
L 1472 2054 
C 1120 1299 666 493 352 0 
z
M 3360 3155 
L 3360 3366 
L 3360 4403 
L 5107 4403 
L 5107 3155 
L 3360 3155 
z
M 2579 5165 
L 2579 3366 
C 2579 2310 2509 838 1658 -154 
C 1850 -237 2189 -454 2330 -595 
C 2995 205 3238 1370 3322 2394 
L 3789 2394 
C 4134 1062 4704 0 5709 -576 
C 5837 -352 6099 -19 6291 147 
C 5434 563 4877 1408 4570 2394 
L 5901 2394 
L 5901 5165 
L 2579 5165 
z
" transform="scale(0.015625)"/>
      <path id="NotoSansCJKjp-Bold-30b9" d="M 5338 4339 
L 4813 4730 
C 4685 4685 4429 4646 4154 4646 
C 3866 4646 2227 4646 1894 4646 
C 1702 4646 1312 4666 1139 4691 
L 1139 3782 
C 1274 3789 1626 3827 1894 3827 
C 2170 3827 3802 3827 4064 3827 
C 3923 3373 3533 2739 3110 2259 
C 2509 1587 1517 806 486 422 
L 1146 -269 
C 2022 147 2874 813 3552 1523 
C 4154 947 4749 294 5165 -282 
L 5894 352 
C 5517 813 4742 1632 4109 2182 
C 4538 2765 4896 3443 5114 3942 
C 5171 4070 5286 4269 5338 4339 
z
" transform="scale(0.015625)"/>
      <path id="NotoSansCJKjp-Bold-30ce" d="M 5338 4685 
L 4339 4941 
C 4166 4026 3744 2918 3130 2176 
C 2560 1485 1696 851 698 512 
L 1427 -237 
C 2413 160 3309 941 3853 1619 
C 4371 2266 4787 3232 5056 3968 
C 5133 4173 5222 4454 5338 4685 
z
" transform="scale(0.015625)"/>
      <path id="NotoSansCJKjp-Bold-30ea" d="M 5139 4966 
L 4173 4966 
C 4198 4787 4211 4582 4211 4326 
C 4211 4045 4211 3437 4211 3110 
C 4211 2112 4128 1632 3686 1152 
C 3302 736 2784 493 2150 346 
L 2816 -358 
C 3283 -211 3949 102 4371 563 
C 4845 1088 5114 1683 5114 3059 
C 5114 3373 5114 3994 5114 4326 
C 5114 4582 5126 4787 5139 4966 
z
M 2170 4915 
L 1248 4915 
C 1267 4768 1274 4544 1274 4422 
C 1274 4141 1274 2630 1274 2266 
C 1274 2074 1248 1824 1242 1702 
L 2170 1702 
C 2157 1850 2150 2099 2150 2259 
C 2150 2618 2150 4141 2150 4422 
C 2150 4627 2157 4768 2170 4915 
z
" transform="scale(0.015625)"/>
      <path id="NotoSansCJKjp-Bold-30be" d="M 1325 4621 
L 499 4198 
C 794 3789 1261 2950 1581 2266 
L 2426 2746 
C 2189 3194 1638 4173 1325 4621 
z
M 5696 5549 
L 5165 5331 
C 5338 5101 5536 4736 5677 4474 
L 6208 4704 
C 6086 4928 5856 5318 5696 5549 
z
M 4832 5344 
L 4301 5126 
C 4467 4896 4666 4550 4794 4282 
L 4429 4352 
C 4435 4192 4397 3891 4333 3597 
C 4134 2720 3635 1139 1453 205 
L 2221 -448 
C 4333 640 4941 2240 5254 3475 
C 5286 3603 5370 3923 5440 4154 
L 4826 4275 
L 5331 4486 
C 5216 4723 4992 5114 4832 5344 
z
" transform="scale(0.015625)"/>
      <path id="NotoSansCJKjp-Bold-30c8" d="M 2010 614 
C 2010 358 1984 -26 1946 -282 
L 2944 -282 
C 2918 -19 2886 429 2886 614 
L 2886 2426 
C 3578 2189 4538 1818 5197 1472 
L 5562 2355 
C 4973 2643 3744 3098 2886 3347 
L 2886 4294 
C 2886 4557 2918 4838 2944 5062 
L 1946 5062 
C 1990 4838 2010 4518 2010 4294 
C 2010 3750 2010 1101 2010 614 
z
" transform="scale(0.015625)"/>
      <path id="DejaVuSans-Bold-2c" d="M 653 1209 
L 1778 1209 
L 1778 256 
L 1006 -909 
L 341 -909 
L 653 256 
L 653 1209 
z
" transform="scale(0.015625)"/>
      <path id="DejaVuSans-Bold-20" transform="scale(0.015625)"/>
      <path id="DejaVuSans-Bold-47" d="M 4781 347 
Q 4331 128 3847 18 
Q 3363 -91 2847 -91 
Q 1681 -91 1000 561 
Q 319 1213 319 2328 
Q 319 3456 1012 4103 
Q 1706 4750 2913 4750 
Q 3378 4750 3804 4662 
Q 4231 4575 4609 4403 
L 4609 3438 
Q 4219 3659 3833 3768 
Q 3447 3878 3059 3878 
Q 2341 3878 1952 3476 
Q 1563 3075 1563 2328 
Q 1563 1588 1938 1184 
Q 2313 781 3003 781 
Q 3191 781 3352 804 
Q 3513 828 3641 878 
L 3641 1784 
L 2906 1784 
L 2906 2591 
L 4781 2591 
L 4781 347 
z
" transform="scale(0.015625)"/>
      <path id="DejaVuSans-Bold-61" d="M 2106 1575 
Q 1756 1575 1579 1456 
Q 1403 1338 1403 1106 
Q 1403 894 1545 773 
Q 1688 653 1941 653 
Q 2256 653 2472 879 
Q 2688 1106 2688 1447 
L 2688 1575 
L 2106 1575 
z
M 3816 1997 
L 3816 0 
L 2688 0 
L 2688 519 
Q 2463 200 2181 54 
Q 1900 -91 1497 -91 
Q 953 -91 614 226 
Q 275 544 275 1050 
Q 275 1666 698 1953 
Q 1122 2241 2028 2241 
L 2688 2241 
L 2688 2328 
Q 2688 2594 2478 2717 
Q 2269 2841 1825 2841 
Q 1466 2841 1156 2769 
Q 847 2697 581 2553 
L 581 3406 
Q 941 3494 1303 3539 
Q 1666 3584 2028 3584 
Q 2975 3584 3395 3211 
Q 3816 2838 3816 1997 
z
" transform="scale(0.015625)"/>
      <path id="DejaVuSans-Bold-6c" d="M 538 4863 
L 1656 4863 
L 1656 0 
L 538 0 
L 538 4863 
z
" transform="scale(0.015625)"/>
      <path id="DejaVuSans-Bold-59" d="M -63 4666 
L 1253 4666 
L 2316 3003 
L 3378 4666 
L 4697 4666 
L 2919 1966 
L 2919 0 
L 1716 0 
L 1716 1966 
L -63 4666 
z
" transform="scale(0.015625)"/>
      <path id="DejaVuSans-Bold-75" d="M 500 1363 
L 500 3500 
L 1625 3500 
L 1625 3150 
Q 1625 2866 1622 2436 
Q 1619 2006 1619 1863 
Q 1619 1441 1641 1255 
Q 1663 1069 1716 984 
Q 1784 875 1895 815 
Q 2006 756 2150 756 
Q 2500 756 2700 1025 
Q 2900 1294 2900 1772 
L 2900 3500 
L 4019 3500 
L 4019 0 
L 2900 0 
L 2900 506 
Q 2647 200 2364 54 
Q 2081 -91 1741 -91 
Q 1134 -91 817 281 
Q 500 653 500 1363 
z
" transform="scale(0.015625)"/>
      <path id="DejaVuSans-Bold-7a" d="M 366 3500 
L 3419 3500 
L 3419 2719 
L 1575 800 
L 3419 800 
L 3419 0 
L 288 0 
L 288 781 
L 2131 2700 
L 366 2700 
L 366 3500 
z
" transform="scale(0.015625)"/>
      <path id="DejaVuSans-Bold-77" d="M 225 3500 
L 1313 3500 
L 1900 1088 
L 2491 3500 
L 3425 3500 
L 4013 1113 
L 4603 3500 
L 5691 3500 
L 4769 0 
L 3547 0 
L 2956 2406 
L 2369 0 
L 1147 0 
L 225 3500 
z
" transform="scale(0.015625)"/>
      <path id="DejaVuSans-Bold-6e" d="M 4056 2131 
L 4056 0 
L 2931 0 
L 2931 347 
L 2931 1631 
Q 2931 2084 2911 2256 
Q 2891 2428 2841 2509 
Q 2775 2619 2662 2680 
Q 2550 2741 2406 2741 
Q 2056 2741 1856 2470 
Q 1656 2200 1656 1722 
L 1656 0 
L 538 0 
L 538 3500 
L 1656 3500 
L 1656 2988 
Q 1909 3294 2193 3439 
Q 2478 3584 2822 3584 
Q 3428 3584 3742 3212 
Q 4056 2841 4056 2131 
z
" transform="scale(0.015625)"/>
      <path id="DejaVuSans-Bold-6f" d="M 2203 2784 
Q 1831 2784 1636 2517 
Q 1441 2250 1441 1747 
Q 1441 1244 1636 976 
Q 1831 709 2203 709 
Q 2569 709 2762 976 
Q 2956 1244 2956 1747 
Q 2956 2250 2762 2517 
Q 2569 2784 2203 2784 
z
M 2203 3584 
Q 3106 3584 3614 3096 
Q 4122 2609 4122 1747 
Q 4122 884 3614 396 
Q 3106 -91 2203 -91 
Q 1297 -91 786 396 
Q 275 884 275 1747 
Q 275 2609 786 3096 
Q 1297 3584 2203 3584 
z
" transform="scale(0.015625)"/>
     </defs>
     <use xlink:href="#NotoSansCJKjp-Bold-30ac"/>
     <use xlink:href="#NotoSansCJKjp-Bold-30fc" x="99.999985"/>
     <use xlink:href="#NotoSansCJKjp-Bold-30e9" x="199.999969"/>
     <use xlink:href="#NotoSansCJKjp-Bold-6e6f" x="299.999954"/>
     <use xlink:href="#NotoSansCJKjp-Bold-6ca2" x="399.999939"/>
     <use xlink:href="#NotoSansCJKjp-Bold-30b9" x="499.999924"/>
     <use xlink:href="#NotoSansCJKjp-Bold-30ce" x="599.999908"/>
     <use xlink:href="#NotoSansCJKjp-Bold-30fc" x="699.999893"/>
     <use xlink:href="#NotoSansCJKjp-Bold-30ea" x="799.999878"/>
     <use xlink:href="#NotoSansCJKjp-Bold-30be" x="899.999863"/>
     <use xlink:href="#NotoSansCJKjp-Bold-30fc" x="999.999847"/>
     <use xlink:href="#NotoSansCJKjp-Bold-30c8" x="1099.999832"/>
     <use xlink:href="#DejaVuSans-Bold-2c" x="1199.999817"/>
     <use xlink:href="#DejaVuSans-Bold-20" x="1237.988098"/>
     <use xlink:href="#DejaVuSans-Bold-47" x="1272.802551"/>
     <use xlink:href="#DejaVuSans-Bold-61" x="1354.882629"/>
     <use xlink:href="#DejaVuSans-Bold-6c" x="1422.363098"/>
     <use xlink:href="#DejaVuSans-Bold-61" x="1456.640442"/>
     <use xlink:href="#DejaVuSans-Bold-20" x="1524.120911"/>
     <use xlink:href="#DejaVuSans-Bold-59" x="1558.935364"/>
     <use xlink:href="#DejaVuSans-Bold-75" x="1624.097473"/>
     <use xlink:href="#DejaVuSans-Bold-7a" x="1695.288879"/>
     <use xlink:href="#DejaVuSans-Bold-61" x="1753.492004"/>
     <use xlink:href="#DejaVuSans-Bold-77" x="1820.972473"/>
     <use xlink:href="#DejaVuSans-Bold-61" x="1913.355286"/>
     <use xlink:href="#DejaVuSans-Bold-20" x="1980.835754"/>
     <use xlink:href="#DejaVuSans-Bold-53" x="2015.650208"/>
     <use xlink:href="#DejaVuSans-Bold-6e" x="2087.671692"/>
     <use xlink:href="#DejaVuSans-Bold-6f" x="2158.863098"/>
     <use xlink:href="#DejaVuSans-Bold-77" x="2227.56427"/>
    </g>
    <!-- Resort -->
    <g transform="translate(163.18375 37.934) scale(0.16 -0.16)">
     <defs>
      <path id="DejaVuSans-Bold-52" d="M 2297 2597 
Q 2675 2597 2839 2737 
Q 3003 2878 3003 3200 
Q 3003 3519 2839 3656 
Q 2675 3794 2297 3794 
L 1791 3794 
L 1791 2597 
L 2297 2597 
z
M 1791 1766 
L 1791 0 
L 588 0 
L 588 4666 
L 2425 4666 
Q 3347 4666 3776 4356 
Q 4206 4047 4206 3378 
Q 4206 2916 3982 2619 
Q 3759 2322 3309 2181 
Q 3556 2125 3751 1926 
Q 3947 1728 4147 1325 
L 4800 0 
L 3519 0 
L 2950 1159 
Q 2778 1509 2601 1637 
Q 2425 1766 2131 1766 
L 1791 1766 
z
" transform="scale(0.015625)"/>
      <path id="DejaVuSans-Bold-65" d="M 4031 1759 
L 4031 1441 
L 1416 1441 
Q 1456 1047 1700 850 
Q 1944 653 2381 653 
Q 2734 653 3104 758 
Q 3475 863 3866 1075 
L 3866 213 
Q 3469 63 3072 -14 
Q 2675 -91 2278 -91 
Q 1328 -91 801 392 
Q 275 875 275 1747 
Q 275 2603 792 3093 
Q 1309 3584 2216 3584 
Q 3041 3584 3536 3087 
Q 4031 2591 4031 1759 
z
M 2881 2131 
Q 2881 2450 2695 2645 
Q 2509 2841 2209 2841 
Q 1884 2841 1681 2658 
Q 1478 2475 1428 2131 
L 2881 2131 
z
" transform="scale(0.015625)"/>
      <path id="DejaVuSans-Bold-73" d="M 3272 3391 
L 3272 2541 
Q 2913 2691 2578 2766 
Q 2244 2841 1947 2841 
Q 1628 2841 1473 2761 
Q 1319 2681 1319 2516 
Q 1319 2381 1436 2309 
Q 1553 2238 1856 2203 
L 2053 2175 
Q 2913 2066 3209 1816 
Q 3506 1566 3506 1031 
Q 3506 472 3093 190 
Q 2681 -91 1863 -91 
Q 1516 -91 1145 -36 
Q 775 19 384 128 
L 384 978 
Q 719 816 1070 734 
Q 1422 653 1784 653 
Q 2113 653 2278 743 
Q 2444 834 2444 1013 
Q 2444 1163 2330 1236 
Q 2216 1309 1875 1350 
L 1678 1375 
Q 931 1469 631 1722 
Q 331 1975 331 2491 
Q 331 3047 712 3315 
Q 1094 3584 1881 3584 
Q 2191 3584 2531 3537 
Q 2872 3491 3272 3391 
z
" transform="scale(0.015625)"/>
      <path id="DejaVuSans-Bold-72" d="M 3138 2547 
Q 2991 2616 2845 2648 
Q 2700 2681 2553 2681 
Q 2122 2681 1889 2404 
Q 1656 2128 1656 1613 
L 1656 0 
L 538 0 
L 538 3500 
L 1656 3500 
L 1656 2925 
Q 1872 3269 2151 3426 
Q 2431 3584 2822 3584 
Q 2878 3584 2943 3579 
Q 3009 3575 3134 3559 
L 3138 2547 
z
" transform="scale(0.015625)"/>
      <path id="DejaVuSans-Bold-74" d="M 1759 4494 
L 1759 3500 
L 2913 3500 
L 2913 2700 
L 1759 2700 
L 1759 1216 
Q 1759 972 1856 886 
Q 1953 800 2241 800 
L 2816 800 
L 2816 0 
L 1856 0 
Q 1194 0 917 276 
Q 641 553 641 1216 
L 641 2700 
L 84 2700 
L 84 3500 
L 641 3500 
L 641 4494 
L 1759 4494 
z
" transform="scale(0.015625)"/>
     </defs>
     <use xlink:href="#DejaVuSans-Bold-52"/>
     <use xlink:href="#DejaVuSans-Bold-65" x="77.001953"/>
     <use xlink:href="#DejaVuSans-Bold-73" x="144.824219"/>
     <use xlink:href="#DejaVuSans-Bold-6f" x="204.345703"/>
     <use xlink:href="#DejaVuSans-Bold-72" x="273.046875"/>
     <use xlink:href="#DejaVuSans-Bold-74" x="322.363281"/>
    </g>
   </g>
  </g>
 </g>
 <defs>
  <clipPath id="pcf569cd8c0">
   <path d="M 303.67625 172.902 
C 303.67625 158.341372 300.808124 143.922327 295.236013 130.470061 
C 289.663901 117.017795 281.496169 104.793919 271.20025 94.498 
C 260.904331 84.202081 248.680455 76.034349 235.228189 70.462237 
C 221.775923 64.890126 207.356878 62.022 192.79625 62.022 
C 178.235622 62.022 163.816577 64.890126 150.364311 70.462237 
C 136.912045 76.034349 124.688169 84.202081 114.39225 94.498 
C 104.096331 104.793919 95.928599 117.017795 90.356487 130.470061 
C 84.784376 143.922327 81.91625 158.341372 81.91625 172.902 
C 81.91625 187.462628 84.784376 201.881673 90.356487 215.333939 
C 95.928599 228.786205 104.096331 241.010081 114.39225 251.306 
C 124.688169 261.601919 136.912045 269.769651 150.364311 275.341763 
C 163.816577 280.913874 178.235622 283.782 192.79625 283.782 
C 207.356878 283.782 221.775923 280.913874 235.228189 275.341763 
C 248.680455 269.769651 260.904331 261.601919 271.20025 251.306 
C 281.496169 241.010081 289.663901 228.786205 295.236013 215.333939 
C 300.808124 201.881673 303.67625 187.462628 303.67625 172.902 
M 192.79625 172.902 
C 192.79625 172.902 192.79625 172.902 192.79625 172.902 
C 192.79625 172.902 192.79625 172.902 192.79625 172.902 
C 192.79625 172.902 192.79625 172.902 192.79625 172.902 
C 192.79625 172.902 192.79625 172.902 192.79625 172.902 
C 192.79625 172.902 192.79625 172.902 192.79625 172.902 
C 192.79625 172.902 192.79625 172.902 192.79625 172.902 
C 192.79625 172.902 192.79625 172.902 192.79625 172.902 
C 192.79625 172.902 192.79625 172.902 192.79625 172.902 
C 192.79625 172.902 192.79625 172.902 192.79625 172.902 
C 192.79625 172.902 192.79625 172.902 192.79625 172.902 
C 192.79625 172.902 192.79625 172.902 192.79625 172.902 
C 192.79625 172.902 192.79625 172.902 192.79625 172.902 
C 192.79625 172.902 192.79625 172.902 192.79625 172.902 
C 192.79625 172.902 192.79625 172.902 192.79625 172.902 
C 192.79625 172.902 192.79625 172.902 192.79625 172.902 
C 192.79625 172.902 192.79625 172.902 192.79625 172.902 
z
"/>
  </clipPath>
 </defs>
</svg>
