<?xml version="1.0" encoding="utf-8" standalone="no"?>
<!DOCTYPE svg PUBLIC "-//W3C//DTD SVG 1.1//EN"
  "http://www.w3.org/Graphics/SVG/1.1/DTD/svg11.dtd">
<svg xmlns:xlink="http://www.w3.org/1999/xlink" width="295.9pt" height="285.744562pt" viewBox="0 0 295.9 285.744562" xmlns="http://www.w3.org/2000/svg" version="1.1">
 <title>Ski Rose for ニセコユナイテッド, Niseko United</title>
 <metadata>
  <rdf:RDF xmlns:dc="http://purl.org/dc/elements/1.1/" xmlns:cc="http://creativecommons.org/ns#" xmlns:rdf="http://www.w3.org/1999/02/22-rdf-syntax-ns#">
   <cc:Work>
    <dc:type rdf:resource="http://purl.org/dc/dcmitype/StillImage"/>
    <dc:title>Ski Rose for ニセコユナイテッド, Niseko United</dc:title>
    <dc:date>2024-12-20T01:53:29.944006</dc:date>
    <dc:description>A 32-bin histogram of downhill ski trail orientations generated from &lt;https://openskimap.org/?obj=c1232311b8a594641320925f8fdd3324a2817bbd&gt;.</dc:description>
    <dc:format>image/svg+xml</dc:format>
    <dc:creator>
     <cc:Agent>
      <dc:title>https://github.com/dhimmel/openskistats</dc:title>
     </cc:Agent>
    </dc:creator>
   </cc:Work>
  </rdf:RDF>
 </metadata>
 <defs>
  <style type="text/css">*{stroke-linejoin: round; stroke-linecap: butt}</style>
 </defs>
 <g id="figure_1">
  <g id="patch_1">
   <path d="M 0 285.744562 
L 295.9 285.744562 
L 295.9 0 
L 0 0 
z
" style="fill: #ffffff"/>
  </g>
  <g id="axes_1">
   <g id="patch_2">
    <path d="M 258.83 154.3255 
C 258.83 139.764872 255.961874 125.345827 250.389763 111.893561 
C 244.817651 98.441295 236.649919 86.217419 226.354 75.9215 
C 216.058081 65.625581 203.834205 57.457849 190.381939 51.885737 
C 176.929673 46.313626 162.510628 43.4455 147.95 43.4455 
C 133.389372 43.4455 118.970327 46.313626 105.518061 51.885737 
C 92.065795 57.457849 79.841919 65.625581 69.546 75.9215 
C 59.250081 86.217419 51.082349 98.441295 45.510237 111.893561 
C 39.938126 125.345827 37.07 139.764872 37.07 154.3255 
C 37.07 168.886128 39.938126 183.305173 45.510237 196.757439 
C 51.082349 210.209705 59.250081 222.433581 69.546 232.7295 
C 79.841919 243.025419 92.065795 251.193151 105.518061 256.765263 
C 118.970327 262.337374 133.389372 265.2055 147.95 265.2055 
C 162.510628 265.2055 176.929673 262.337374 190.381939 256.765263 
C 203.834205 251.193151 216.058081 243.025419 226.354 232.7295 
C 236.649919 222.433581 244.817651 210.209705 250.389763 196.757439 
C 255.961874 183.305173 258.83 168.886128 258.83 154.3255 
M 147.95 154.3255 
C 147.95 154.3255 147.95 154.3255 147.95 154.3255 
C 147.95 154.3255 147.95 154.3255 147.95 154.3255 
C 147.95 154.3255 147.95 154.3255 147.95 154.3255 
C 147.95 154.3255 147.95 154.3255 147.95 154.3255 
C 147.95 154.3255 147.95 154.3255 147.95 154.3255 
C 147.95 154.3255 147.95 154.3255 147.95 154.3255 
C 147.95 154.3255 147.95 154.3255 147.95 154.3255 
C 147.95 154.3255 147.95 154.3255 147.95 154.3255 
C 147.95 154.3255 147.95 154.3255 147.95 154.3255 
C 147.95 154.3255 147.95 154.3255 147.95 154.3255 
C 147.95 154.3255 147.95 154.3255 147.95 154.3255 
C 147.95 154.3255 147.95 154.3255 147.95 154.3255 
C 147.95 154.3255 147.95 154.3255 147.95 154.3255 
C 147.95 154.3255 147.95 154.3255 147.95 154.3255 
C 147.95 154.3255 147.95 154.3255 147.95 154.3255 
C 147.95 154.3255 147.95 154.3255 147.95 154.3255 
z
" style="fill: #ffffff"/>
   </g>
   <g id="matplotlib.axis_1">
    <g id="xtick_1">
     <g id="line2d_1">
      <path d="M 147.95 154.3255 
L 147.95 43.4455 
" clip-path="url(#p6fddde0075)" style="fill: none; stroke: #b0b0b0; stroke-width: 0.8; stroke-linecap: square"/>
     </g>
     <g id="text_1">
      <!-- N -->
      <g transform="translate(143.765625 37.704875) scale(0.1 -0.1)">
       <defs>
        <path id="DejaVuSans-Bold-4e" d="M 588 4666 
L 1931 4666 
L 3628 1466 
L 3628 4666 
L 4769 4666 
L 4769 0 
L 3425 0 
L 1728 3200 
L 1728 0 
L 588 0 
L 588 4666 
z
" transform="scale(0.015625)"/>
       </defs>
       <use xlink:href="#DejaVuSans-Bold-4e"/>
      </g>
     </g>
    </g>
    <g id="xtick_2">
     <g id="line2d_2">
      <path d="M 147.95 154.3255 
L 226.354 75.9215 
" clip-path="url(#p6fddde0075)" style="fill: none; stroke: #b0b0b0; stroke-width: 0.8; stroke-linecap: square"/>
     </g>
    </g>
    <g id="xtick_3">
     <g id="line2d_3">
      <path d="M 147.95 154.3255 
L 258.83 154.3255 
" clip-path="url(#p6fddde0075)" style="fill: none; stroke: #b0b0b0; stroke-width: 0.8; stroke-linecap: square"/>
     </g>
     <g id="text_2">
      <!-- E -->
      <g transform="translate(263.914375 157.084875) scale(0.1 -0.1)">
       <defs>
        <path id="DejaVuSans-Bold-45" d="M 588 4666 
L 3834 4666 
L 3834 3756 
L 1791 3756 
L 1791 2888 
L 3713 2888 
L 3713 1978 
L 1791 1978 
L 1791 909 
L 3903 909 
L 3903 0 
L 588 0 
L 588 4666 
z
" transform="scale(0.015625)"/>
       </defs>
       <use xlink:href="#DejaVuSans-Bold-45"/>
      </g>
     </g>
    </g>
    <g id="xtick_4">
     <g id="line2d_4">
      <path d="M 147.95 154.3255 
L 226.354 232.7295 
" clip-path="url(#p6fddde0075)" style="fill: none; stroke: #b0b0b0; stroke-width: 0.8; stroke-linecap: square"/>
     </g>
    </g>
    <g id="xtick_5">
     <g id="line2d_5">
      <path d="M 147.95 154.3255 
L 147.95 265.2055 
" clip-path="url(#p6fddde0075)" style="fill: none; stroke: #b0b0b0; stroke-width: 0.8; stroke-linecap: square"/>
     </g>
     <g id="text_3">
      <!-- S -->
      <g transform="translate(144.349219 276.464875) scale(0.1 -0.1)">
       <defs>
        <path id="DejaVuSans-Bold-53" d="M 3834 4519 
L 3834 3531 
Q 3450 3703 3084 3790 
Q 2719 3878 2394 3878 
Q 1963 3878 1756 3759 
Q 1550 3641 1550 3391 
Q 1550 3203 1689 3098 
Q 1828 2994 2194 2919 
L 2706 2816 
Q 3484 2659 3812 2340 
Q 4141 2022 4141 1434 
Q 4141 663 3683 286 
Q 3225 -91 2284 -91 
Q 1841 -91 1394 -6 
Q 947 78 500 244 
L 500 1259 
Q 947 1022 1364 901 
Q 1781 781 2169 781 
Q 2563 781 2772 912 
Q 2981 1044 2981 1288 
Q 2981 1506 2839 1625 
Q 2697 1744 2272 1838 
L 1806 1941 
Q 1106 2091 782 2419 
Q 459 2747 459 3303 
Q 459 4000 909 4375 
Q 1359 4750 2203 4750 
Q 2588 4750 2994 4692 
Q 3400 4634 3834 4519 
z
" transform="scale(0.015625)"/>
       </defs>
       <use xlink:href="#DejaVuSans-Bold-53"/>
      </g>
     </g>
    </g>
    <g id="xtick_6">
     <g id="line2d_6">
      <path d="M 147.95 154.3255 
L 69.546 232.7295 
" clip-path="url(#p6fddde0075)" style="fill: none; stroke: #b0b0b0; stroke-width: 0.8; stroke-linecap: square"/>
     </g>
    </g>
    <g id="xtick_7">
     <g id="line2d_7">
      <path d="M 147.95 154.3255 
L 37.07 154.3255 
" clip-path="url(#p6fddde0075)" style="fill: none; stroke: #b0b0b0; stroke-width: 0.8; stroke-linecap: square"/>
     </g>
     <g id="text_4">
      <!-- W -->
      <g transform="translate(23.055156 157.084875) scale(0.1 -0.1)">
       <defs>
        <path id="DejaVuSans-Bold-57" d="M 191 4666 
L 1344 4666 
L 2150 1275 
L 2950 4666 
L 4109 4666 
L 4909 1275 
L 5716 4666 
L 6859 4666 
L 5759 0 
L 4372 0 
L 3525 3547 
L 2688 0 
L 1300 0 
L 191 4666 
z
" transform="scale(0.015625)"/>
       </defs>
       <use xlink:href="#DejaVuSans-Bold-57"/>
      </g>
     </g>
    </g>
    <g id="xtick_8">
     <g id="line2d_8">
      <path d="M 147.95 154.3255 
L 69.546 75.9215 
" clip-path="url(#p6fddde0075)" style="fill: none; stroke: #b0b0b0; stroke-width: 0.8; stroke-linecap: square"/>
     </g>
    </g>
   </g>
   <g id="matplotlib.axis_2"/>
   <g id="patch_3">
    <path d="M 147.95 154.3255 
C 147.95 154.3255 147.95 154.3255 147.95 154.3255 
C 147.95 154.3255 147.95 154.3255 147.95 154.3255 
L 151.98396 113.368019 
C 150.64336 113.235982 149.297086 113.169844 147.95 113.169844 
C 146.602914 113.169844 145.25664 113.235982 143.91604 113.368019 
z
" clip-path="url(#p6fddde0075)" style="fill: #d4a0a7; stroke: #000000; stroke-width: 0.5; stroke-linejoin: miter"/>
   </g>
   <g id="patch_4">
    <path d="M 147.95 154.3255 
C 147.95 154.3255 147.95 154.3255 147.95 154.3255 
C 147.95 154.3255 147.95 154.3255 147.95 154.3255 
L 160.040372 114.468884 
C 158.735806 114.073148 157.412596 113.741701 156.075522 113.475741 
C 154.738449 113.20978 153.389123 113.009627 152.032419 112.876003 
z
" clip-path="url(#p6fddde0075)" style="fill: #d4a0a7; stroke: #000000; stroke-width: 0.5; stroke-linejoin: miter"/>
   </g>
   <g id="patch_5">
    <path d="M 147.95 154.3255 
C 147.95 154.3255 147.95 154.3255 147.95 154.3255 
C 147.95 154.3255 147.95 154.3255 147.95 154.3255 
L 173.762162 106.034342 
C 172.18152 105.189471 170.56035 104.422715 168.904508 103.736843 
C 167.248666 103.05097 165.560147 102.446809 163.845051 101.92654 
z
" clip-path="url(#p6fddde0075)" style="fill: #d4a0a7; stroke: #000000; stroke-width: 0.5; stroke-linejoin: miter"/>
   </g>
   <g id="patch_6">
    <path d="M 147.95 154.3255 
C 147.95 154.3255 147.95 154.3255 147.95 154.3255 
C 147.95 154.3255 147.95 154.3255 147.95 154.3255 
L 186.021866 107.934798 
C 184.503429 106.688649 182.924724 105.517802 181.291455 104.426486 
C 179.658186 103.335171 177.97232 102.324702 176.239948 101.398729 
z
" clip-path="url(#p6fddde0075)" style="fill: #d4a0a7; stroke: #000000; stroke-width: 0.5; stroke-linejoin: miter"/>
   </g>
   <g id="patch_7">
    <path d="M 147.95 154.3255 
C 147.95 154.3255 147.95 154.3255 147.95 154.3255 
C 147.95 154.3255 147.95 154.3255 147.95 154.3255 
L 189.202687 120.470295 
C 188.094556 119.120033 186.920798 117.824991 185.685654 116.589846 
C 184.450509 115.354702 183.155467 114.180944 181.805205 113.072813 
z
" clip-path="url(#p6fddde0075)" style="fill: #d4a0a7; stroke: #000000; stroke-width: 0.5; stroke-linejoin: miter"/>
   </g>
   <g id="patch_8">
    <path d="M 147.95 154.3255 
C 147.95 154.3255 147.95 154.3255 147.95 154.3255 
C 147.95 154.3255 147.95 154.3255 147.95 154.3255 
L 199.51335 126.764315 
C 198.611231 125.07657 197.626792 123.434133 196.56359 121.842938 
C 195.500387 120.251743 194.359702 118.713707 193.145654 117.234385 
z
" clip-path="url(#p6fddde0075)" style="fill: #d4a0a7; stroke: #000000; stroke-width: 0.5; stroke-linejoin: miter"/>
   </g>
   <g id="patch_9">
    <path d="M 147.95 154.3255 
C 147.95 154.3255 147.95 154.3255 147.95 154.3255 
C 147.95 154.3255 147.95 154.3255 147.95 154.3255 
L 208.353833 136.002198 
C 207.754084 134.02509 207.057626 132.07862 206.266974 130.169818 
C 205.476323 128.261017 204.592431 126.392184 203.618491 124.570072 
z
" clip-path="url(#p6fddde0075)" style="fill: #d4a0a7; stroke: #000000; stroke-width: 0.5; stroke-linejoin: miter"/>
   </g>
   <g id="patch_10">
    <path d="M 147.95 154.3255 
C 147.95 154.3255 147.95 154.3255 147.95 154.3255 
C 147.95 154.3255 147.95 154.3255 147.95 154.3255 
L 241.155993 145.145511 
C 240.855518 142.09474 240.40544 139.06056 239.807384 136.05393 
C 239.209329 133.047301 238.464016 130.071847 237.574139 127.138315 
z
" clip-path="url(#p6fddde0075)" style="fill: #d4a0a7; stroke: #000000; stroke-width: 0.5; stroke-linejoin: miter"/>
   </g>
   <g id="patch_11">
    <path d="M 147.95 154.3255 
C 147.95 154.3255 147.95 154.3255 147.95 154.3255 
C 147.95 154.3255 147.95 154.3255 147.95 154.3255 
L 227.286953 162.139508 
C 227.542718 159.542691 227.670831 156.934882 227.670831 154.3255 
C 227.670831 151.716118 227.542718 149.108309 227.286953 146.511492 
z
" clip-path="url(#p6fddde0075)" style="fill: #d4a0a7; stroke: #000000; stroke-width: 0.5; stroke-linejoin: miter"/>
   </g>
   <g id="patch_12">
    <path d="M 147.95 154.3255 
C 147.95 154.3255 147.95 154.3255 147.95 154.3255 
C 147.95 154.3255 147.95 154.3255 147.95 154.3255 
L 243.870193 183.422572 
C 244.822583 180.282961 245.620254 177.098483 246.260323 173.880639 
C 246.900392 170.662795 247.382088 167.415466 247.70367 164.150379 
z
" clip-path="url(#p6fddde0075)" style="fill: #d4a0a7; stroke: #000000; stroke-width: 0.5; stroke-linejoin: miter"/>
   </g>
   <g id="patch_13">
    <path d="M 147.95 154.3255 
C 147.95 154.3255 147.95 154.3255 147.95 154.3255 
C 147.95 154.3255 147.95 154.3255 147.95 154.3255 
L 245.73743 206.59397 
C 247.448255 203.393242 249.000902 200.110445 250.389763 196.757439 
C 251.778623 193.404433 253.002024 189.985258 254.055544 186.512265 
z
" clip-path="url(#p6fddde0075)" style="fill: #d4a0a7; stroke: #000000; stroke-width: 0.5; stroke-linejoin: miter"/>
   </g>
   <g id="patch_14">
    <path d="M 147.95 154.3255 
C 147.95 154.3255 147.95 154.3255 147.95 154.3255 
C 147.95 154.3255 147.95 154.3255 147.95 154.3255 
L 224.187154 216.891715 
C 226.23504 214.39636 228.159176 211.801962 229.952613 209.117894 
C 231.74605 206.433826 233.406625 203.663323 234.928342 200.816392 
z
" clip-path="url(#p6fddde0075)" style="fill: #d4a0a7; stroke: #000000; stroke-width: 0.5; stroke-linejoin: miter"/>
   </g>
   <g id="patch_15">
    <path d="M 147.95 154.3255 
C 147.95 154.3255 147.95 154.3255 147.95 154.3255 
C 147.95 154.3255 147.95 154.3255 147.95 154.3255 
L 198.048903 215.37119 
C 200.04702 213.731378 201.963422 211.994453 203.791187 210.166687 
C 205.618953 208.338922 207.355878 206.42252 208.99569 204.424403 
z
" clip-path="url(#p6fddde0075)" style="fill: #d4a0a7; stroke: #000000; stroke-width: 0.5; stroke-linejoin: miter"/>
   </g>
   <g id="patch_16">
    <path d="M 147.95 154.3255 
C 147.95 154.3255 147.95 154.3255 147.95 154.3255 
C 147.95 154.3255 147.95 154.3255 147.95 154.3255 
L 188.152922 229.539877 
C 190.614801 228.223975 193.010589 226.787995 195.331632 225.237124 
C 197.652675 223.686252 199.896176 222.022358 202.054031 220.251453 
z
" clip-path="url(#p6fddde0075)" style="fill: #d4a0a7; stroke: #000000; stroke-width: 0.5; stroke-linejoin: miter"/>
   </g>
   <g id="patch_17">
    <path d="M 147.95 154.3255 
C 147.95 154.3255 147.95 154.3255 147.95 154.3255 
C 147.95 154.3255 147.95 154.3255 147.95 154.3255 
L 169.383576 224.982531 
C 171.696286 224.280978 173.973158 223.4663 176.205967 222.54144 
C 178.438777 221.61658 180.624833 220.582652 182.756239 219.443392 
z
" clip-path="url(#p6fddde0075)" style="fill: #d4a0a7; stroke: #000000; stroke-width: 0.5; stroke-linejoin: miter"/>
   </g>
   <g id="patch_18">
    <path d="M 147.95 154.3255 
C 147.95 154.3255 147.95 154.3255 147.95 154.3255 
C 147.95 154.3255 147.95 154.3255 147.95 154.3255 
L 156.507783 241.21413 
C 159.351778 240.934021 162.180306 240.514449 164.98315 239.956929 
C 167.785995 239.399408 170.559777 238.704612 173.294479 237.875049 
z
" clip-path="url(#p6fddde0075)" style="fill: #d4a0a7; stroke: #000000; stroke-width: 0.5; stroke-linejoin: miter"/>
   </g>
   <g id="patch_19">
    <path d="M 147.95 154.3255 
C 147.95 154.3255 147.95 154.3255 147.95 154.3255 
C 147.95 154.3255 147.95 154.3255 147.95 154.3255 
L 139.160921 243.56252 
C 142.081782 243.850199 145.015006 243.994299 147.95 243.994299 
C 150.884994 243.994299 153.818218 243.850199 156.739079 243.56252 
z
" clip-path="url(#p6fddde0075)" style="fill: #d4a0a7; stroke: #000000; stroke-width: 0.5; stroke-linejoin: miter"/>
   </g>
   <g id="patch_20">
    <path d="M 147.95 154.3255 
C 147.95 154.3255 147.95 154.3255 147.95 154.3255 
C 147.95 154.3255 147.95 154.3255 147.95 154.3255 
L 128.756592 217.597687 
C 130.827585 218.225916 132.928174 218.752087 135.050772 219.174298 
C 137.17337 219.596509 139.315418 219.914251 141.469179 220.126378 
z
" clip-path="url(#p6fddde0075)" style="fill: #d4a0a7; stroke: #000000; stroke-width: 0.5; stroke-linejoin: miter"/>
   </g>
   <g id="patch_21">
    <path d="M 147.95 154.3255 
C 147.95 154.3255 147.95 154.3255 147.95 154.3255 
C 147.95 154.3255 147.95 154.3255 147.95 154.3255 
L 112.168288 221.268374 
C 114.359429 222.439563 116.60675 223.502467 118.902136 224.453247 
C 121.197522 225.404027 123.538205 226.241536 125.915731 226.962751 
z
" clip-path="url(#p6fddde0075)" style="fill: #d4a0a7; stroke: #000000; stroke-width: 0.5; stroke-linejoin: miter"/>
   </g>
   <g id="patch_22">
    <path d="M 147.95 154.3255 
C 147.95 154.3255 147.95 154.3255 147.95 154.3255 
C 147.95 154.3255 147.95 154.3255 147.95 154.3255 
L 95.335727 218.436177 
C 97.434165 220.158321 99.615891 221.776399 101.873024 223.284567 
C 104.130158 224.792735 106.459977 226.189175 108.854068 227.468844 
z
" clip-path="url(#p6fddde0075)" style="fill: #d4a0a7; stroke: #000000; stroke-width: 0.5; stroke-linejoin: miter"/>
   </g>
   <g id="patch_23">
    <path d="M 147.95 154.3255 
C 147.95 154.3255 147.95 154.3255 147.95 154.3255 
C 147.95 154.3255 147.95 154.3255 147.95 154.3255 
L 101.910661 192.109009 
C 103.147372 193.615945 104.457323 195.061254 105.835785 196.439715 
C 107.214246 197.818177 108.659555 199.128128 110.166491 200.364839 
z
" clip-path="url(#p6fddde0075)" style="fill: #d4a0a7; stroke: #000000; stroke-width: 0.5; stroke-linejoin: miter"/>
   </g>
   <g id="patch_24">
    <path d="M 147.95 154.3255 
C 147.95 154.3255 147.95 154.3255 147.95 154.3255 
C 147.95 154.3255 147.95 154.3255 147.95 154.3255 
L 99.0956 180.438721 
C 99.950325 182.037798 100.883045 183.593947 101.890391 185.101547 
C 102.897737 186.609147 103.978494 188.06638 105.12876 189.467983 
z
" clip-path="url(#p6fddde0075)" style="fill: #d4a0a7; stroke: #000000; stroke-width: 0.5; stroke-linejoin: miter"/>
   </g>
   <g id="patch_25">
    <path d="M 147.95 154.3255 
C 147.95 154.3255 147.95 154.3255 147.95 154.3255 
C 147.95 154.3255 147.95 154.3255 147.95 154.3255 
L 111.38196 165.418294 
C 111.745043 166.61522 112.166674 167.793599 112.645329 168.949174 
C 113.123983 170.104748 113.659085 171.236126 114.248701 172.33922 
z
" clip-path="url(#p6fddde0075)" style="fill: #d4a0a7; stroke: #000000; stroke-width: 0.5; stroke-linejoin: miter"/>
   </g>
   <g id="patch_26">
    <path d="M 147.95 154.3255 
C 147.95 154.3255 147.95 154.3255 147.95 154.3255 
C 147.95 154.3255 147.95 154.3255 147.95 154.3255 
L 109.95729 158.067455 
C 110.079769 159.311014 110.263231 160.547809 110.507011 161.773374 
C 110.750791 162.998939 111.054596 164.211796 111.417328 165.407565 
z
" clip-path="url(#p6fddde0075)" style="fill: #d4a0a7; stroke: #000000; stroke-width: 0.5; stroke-linejoin: miter"/>
   </g>
   <g id="patch_27">
    <path d="M 147.95 154.3255 
C 147.95 154.3255 147.95 154.3255 147.95 154.3255 
C 147.95 154.3255 147.95 154.3255 147.95 154.3255 
L 122.468401 151.815782 
C 122.386254 152.649832 122.345107 153.487414 122.345107 154.3255 
C 122.345107 155.163586 122.386254 156.001168 122.468401 156.835218 
z
" clip-path="url(#p6fddde0075)" style="fill: #d4a0a7; stroke: #000000; stroke-width: 0.5; stroke-linejoin: miter"/>
   </g>
   <g id="patch_28">
    <path d="M 147.95 154.3255 
C 147.95 154.3255 147.95 154.3255 147.95 154.3255 
C 147.95 154.3255 147.95 154.3255 147.95 154.3255 
L 127.781235 148.207372 
C 127.58098 148.867526 127.413257 149.537114 127.278672 150.213717 
C 127.144087 150.890321 127.042803 151.573124 126.975185 152.259661 
z
" clip-path="url(#p6fddde0075)" style="fill: #d4a0a7; stroke: #000000; stroke-width: 0.5; stroke-linejoin: miter"/>
   </g>
   <g id="patch_29">
    <path d="M 147.95 154.3255 
C 147.95 154.3255 147.95 154.3255 147.95 154.3255 
C 147.95 154.3255 147.95 154.3255 147.95 154.3255 
L 138.275109 149.154163 
C 138.105843 149.470837 137.952228 149.79563 137.814817 150.12737 
C 137.677406 150.459109 137.556365 150.797396 137.452132 151.141006 
z
" clip-path="url(#p6fddde0075)" style="fill: #d4a0a7; stroke: #000000; stroke-width: 0.5; stroke-linejoin: miter"/>
   </g>
   <g id="patch_30">
    <path d="M 147.95 154.3255 
C 147.95 154.3255 147.95 154.3255 147.95 154.3255 
C 147.95 154.3255 147.95 154.3255 147.95 154.3255 
L 141.47185 149.00902 
C 141.297834 149.221059 141.134333 149.441515 140.981938 149.66959 
C 140.829543 149.897665 140.688438 150.133085 140.559132 150.374999 
z
" clip-path="url(#p6fddde0075)" style="fill: #d4a0a7; stroke: #000000; stroke-width: 0.5; stroke-linejoin: miter"/>
   </g>
   <g id="patch_31">
    <path d="M 147.95 154.3255 
C 147.95 154.3255 147.95 154.3255 147.95 154.3255 
C 147.95 154.3255 147.95 154.3255 147.95 154.3255 
L 137.959843 142.152458 
C 137.561401 142.479451 137.179254 142.825809 136.814781 143.190281 
C 136.450309 143.554754 136.103951 143.936901 135.776958 144.335343 
z
" clip-path="url(#p6fddde0075)" style="fill: #d4a0a7; stroke: #000000; stroke-width: 0.5; stroke-linejoin: miter"/>
   </g>
   <g id="patch_32">
    <path d="M 147.95 154.3255 
C 147.95 154.3255 147.95 154.3255 147.95 154.3255 
C 147.95 154.3255 147.95 154.3255 147.95 154.3255 
L 134.445819 129.060954 
C 133.618872 129.502966 132.814126 129.985312 132.034487 130.506251 
C 131.254847 131.027189 130.501254 131.586092 129.776429 132.18094 
z
" clip-path="url(#p6fddde0075)" style="fill: #d4a0a7; stroke: #000000; stroke-width: 0.5; stroke-linejoin: miter"/>
   </g>
   <g id="patch_33">
    <path d="M 147.95 154.3255 
C 147.95 154.3255 147.95 154.3255 147.95 154.3255 
C 147.95 154.3255 147.95 154.3255 147.95 154.3255 
L 144.73607 143.730593 
C 144.389283 143.835789 144.04787 143.957949 143.713063 144.09663 
C 143.378257 144.235311 143.050462 144.390347 142.730861 144.561177 
z
" clip-path="url(#p6fddde0075)" style="fill: #d4a0a7; stroke: #000000; stroke-width: 0.5; stroke-linejoin: miter"/>
   </g>
   <g id="patch_34">
    <path d="M 147.95 154.3255 
C 147.95 154.3255 147.95 154.3255 147.95 154.3255 
C 147.95 154.3255 147.95 154.3255 147.95 154.3255 
L 145.318279 127.605188 
C 144.443683 127.691328 143.573844 127.820356 142.711903 127.991807 
C 141.849962 128.163258 140.996958 128.376924 140.155972 128.632034 
z
" clip-path="url(#p6fddde0075)" style="fill: #d4a0a7; stroke: #000000; stroke-width: 0.5; stroke-linejoin: miter"/>
   </g>
   <g id="PathCollection_1">
    <defs>
     <path id="md1e8bf6f06" d="M 0.193618 7.414054 
L 0.193618 7.414054 
C 0.054922 7.414054 -0.078235 7.358899 -0.176308 7.260826 
C -0.274381 7.162753 -0.329536 7.029596 -0.329536 6.890901 
L -0.329536 5.365008 
L -1.528416 6.56393 
L -1.528416 6.56393 
C -1.577018 6.612704 -1.634775 6.651408 -1.698366 6.677814 
C -1.761958 6.704221 -1.830141 6.717815 -1.898997 6.717815 
C -1.967853 6.717815 -2.036037 6.704221 -2.099628 6.677814 
C -2.163219 6.651408 -2.220976 6.612704 -2.269578 6.56393 
L -2.269578 6.56393 
C -2.318353 6.515327 -2.357056 6.457571 -2.383463 6.393979 
C -2.409869 6.330388 -2.423463 6.262205 -2.423463 6.193348 
C -2.423463 6.124492 -2.409869 6.056309 -2.383463 5.992718 
C -2.357056 5.929126 -2.318353 5.87137 -2.269578 5.822767 
L -0.329536 3.884106 
L -0.329536 0.820937 
L -2.98067 2.351538 
L -3.691824 5.001416 
L -3.691824 5.001416 
C -3.727584 5.135411 -3.815199 5.249836 -3.93523 5.319305 
C -4.055261 5.388775 -4.198123 5.407741 -4.332122 5.371997 
L -4.332122 5.371997 
C -4.466126 5.336237 -4.580558 5.248616 -4.650029 5.128576 
C -4.719499 5.008535 -4.73846 4.865662 -4.702703 4.731657 
L -4.262647 3.092721 
L -5.585535 3.855668 
L -5.585535 3.855668 
C -5.645013 3.890144 -5.710708 3.912561 -5.778854 3.921634 
C -5.847001 3.930706 -5.916272 3.926258 -5.982698 3.908543 
C -6.049125 3.890828 -6.111412 3.860192 -6.165991 3.818391 
C -6.220571 3.77659 -6.266379 3.724437 -6.300791 3.664922 
L -6.300791 3.664922 
C -6.335212 3.605364 -6.35755 3.539597 -6.366524 3.471396 
C -6.375498 3.403194 -6.370933 3.333888 -6.35309 3.267452 
C -6.335248 3.201017 -6.304476 3.138749 -6.26254 3.08422 
C -6.220605 3.029692 -6.168323 2.983966 -6.108695 2.949666 
L -4.785807 2.186762 
L -6.424743 1.746706 
L -6.424743 1.746706 
C -6.558747 1.710946 -6.673179 1.623325 -6.74265 1.503284 
C -6.81212 1.383244 -6.831081 1.240371 -6.795324 1.106366 
L -6.795324 1.106366 
C -6.777471 1.039969 -6.746703 0.977739 -6.704784 0.923241 
C -6.662864 0.868744 -6.61061 0.823041 -6.551015 0.788752 
C -6.491421 0.754464 -6.425647 0.732257 -6.357465 0.723406 
C -6.289282 0.714554 -6.220019 0.71923 -6.153645 0.737166 
L -3.505232 1.44698 
L -0.852424 -0.08496 
L -3.503767 -1.615666 
L -6.153645 -0.905851 
L -6.153645 -0.905851 
C -6.22011 -0.887939 -6.289462 -0.883321 -6.357716 -0.892262 
C -6.42597 -0.901202 -6.491793 -0.923527 -6.551403 -0.957953 
C -6.611013 -0.992379 -6.663247 -1.038234 -6.705103 -1.092883 
C -6.746958 -1.147533 -6.777619 -1.209911 -6.795324 -1.276432 
L -6.795324 -1.276432 
C -6.831068 -1.410431 -6.812101 -1.553293 -6.742632 -1.673324 
C -6.673162 -1.793355 -6.558738 -1.88097 -6.424743 -1.91673 
L -4.785807 -2.355447 
L -6.108695 -3.119732 
L -6.108695 -3.119732 
C -6.228699 -3.188976 -6.316415 -3.303132 -6.352417 -3.436921 
C -6.388419 -3.57071 -6.369839 -3.713469 -6.300791 -3.833586 
L -6.300791 -3.833586 
C -6.266491 -3.893214 -6.220765 -3.945496 -6.166237 -3.987431 
C -6.111708 -4.029367 -6.04944 -4.060139 -5.983005 -4.077981 
C -5.91657 -4.095823 -5.847263 -4.100389 -5.779062 -4.091415 
C -5.71086 -4.082441 -5.645094 -4.060102 -5.585535 -4.025682 
L -4.262647 -3.261396 
L -4.702703 -4.900332 
L -4.702703 -4.900332 
C -4.73846 -5.034337 -4.719499 -5.17721 -4.650029 -5.29725 
C -4.580558 -5.417291 -4.466126 -5.504912 -4.332122 -5.540672 
L -4.332122 -5.540672 
C -4.19831 -5.576464 -4.055613 -5.557686 -3.935617 -5.488496 
C -3.81562 -5.419305 -3.727882 -5.305212 -3.691824 -5.171472 
L -2.982009 -2.521594 
L -0.329411 -0.990302 
L -0.329411 -4.051588 
L -2.269453 -5.991589 
L -2.269453 -5.991589 
C -2.318227 -6.040191 -2.356931 -6.097947 -2.383337 -6.161539 
C -2.409744 -6.22513 -2.423338 -6.293314 -2.423338 -6.36217 
C -2.423338 -6.431026 -2.409744 -6.499209 -2.383337 -6.5628 
C -2.356931 -6.626392 -2.318227 -6.684149 -2.269453 -6.732751 
L -2.269453 -6.732751 
C -2.22085 -6.781526 -2.163094 -6.820229 -2.099502 -6.846635 
C -2.035911 -6.873042 -1.967728 -6.886636 -1.898871 -6.886636 
C -1.830015 -6.886636 -1.761832 -6.873042 -1.698241 -6.846635 
C -1.634649 -6.820229 -1.576893 -6.781526 -1.52829 -6.732751 
L -0.329411 -5.533829 
L -0.329411 -7.059722 
L -0.329411 -7.059722 
C -0.329411 -7.198418 -0.274255 -7.331575 -0.176182 -7.429647 
C -0.07811 -7.52772 0.055047 -7.582875 0.193743 -7.582875 
L 0.193743 -7.582875 
C 0.332439 -7.582875 0.465596 -7.52772 0.563669 -7.429647 
C 0.661741 -7.331575 0.716897 -7.198418 0.716897 -7.059722 
L 0.716897 -5.533829 
L 1.915777 -6.732751 
L 1.915777 -6.732751 
C 1.964379 -6.781526 2.022136 -6.820229 2.085727 -6.846635 
C 2.149318 -6.873042 2.217502 -6.886636 2.286358 -6.886636 
C 2.355214 -6.886636 2.423397 -6.873042 2.486989 -6.846635 
C 2.55058 -6.820229 2.608337 -6.781526 2.656939 -6.732751 
L 2.656939 -6.732751 
C 2.705714 -6.684149 2.744417 -6.626392 2.770823 -6.5628 
C 2.79723 -6.499209 2.810824 -6.431026 2.810824 -6.36217 
C 2.810824 -6.293314 2.79723 -6.22513 2.770823 -6.161539 
C 2.744417 -6.097947 2.705714 -6.040191 2.656939 -5.991589 
L 0.716897 -4.051588 
L 0.716897 -0.991139 
L 3.369495 -2.522954 
L 4.07931 -5.171367 
L 4.07931 -5.171367 
C 4.115368 -5.305107 4.203106 -5.4192 4.323103 -5.488391 
C 4.4431 -5.557582 4.585797 -5.576359 4.719608 -5.540567 
L 4.719608 -5.540567 
C 4.853612 -5.504807 4.968045 -5.417186 5.037515 -5.297146 
C 5.106986 -5.177105 5.125946 -5.034232 5.090189 -4.900227 
L 4.650133 -3.262673 
L 5.973022 -4.025577 
L 5.973022 -4.025577 
C 6.03258 -4.059998 6.098346 -4.082336 6.166548 -4.09131 
C 6.234749 -4.100284 6.304056 -4.095719 6.370491 -4.077876 
C 6.436926 -4.060034 6.499194 -4.029262 6.553723 -3.987327 
C 6.608252 -3.945391 6.653978 -3.893109 6.688277 -3.833481 
L 6.688277 -3.833481 
C 6.757325 -3.713365 6.775905 -3.570605 6.739903 -3.436816 
C 6.703901 -3.303027 6.616186 -3.188871 6.496181 -3.119628 
L 5.173293 -2.355342 
L 6.812229 -1.916625 
L 6.812229 -1.916625 
C 6.946224 -1.880865 7.060649 -1.79325 7.130118 -1.67322 
C 7.199588 -1.553189 7.218554 -1.410326 7.18281 -1.276327 
L 7.18281 -1.276327 
C 7.165106 -1.209806 7.134445 -1.147429 7.092589 -1.092779 
C 7.050733 -1.038129 6.998499 -0.992274 6.938889 -0.957848 
C 6.879279 -0.923422 6.813456 -0.901098 6.745202 -0.892157 
C 6.676949 -0.883217 6.607597 -0.887835 6.541131 -0.905746 
L 3.891253 -1.615561 
L 1.239492 -0.084604 
L 3.892718 1.447085 
L 6.541131 0.73727 
L 6.541131 0.73727 
C 6.674948 0.701466 6.817656 0.720237 6.937662 0.789429 
C 7.057669 0.858621 7.145413 0.972721 7.181471 1.10647 
L 7.181471 1.10647 
C 7.217274 1.240293 7.198497 1.383006 7.129297 1.503014 
C 7.060096 1.623021 6.945986 1.710762 6.812229 1.74681 
L 5.173293 2.186866 
L 6.496181 2.949771 
L 6.496181 2.949771 
C 6.555697 2.984183 6.607849 3.029991 6.649651 3.08457 
C 6.691452 3.13915 6.722088 3.201437 6.739803 3.267863 
C 6.757517 3.33429 6.761966 3.403561 6.752893 3.471707 
C 6.743821 3.539854 6.721404 3.605549 6.686927 3.665026 
L 6.686927 3.665026 
C 6.617458 3.784813 6.503196 3.87225 6.369416 3.907994 
C 6.235636 3.943739 6.092989 3.924946 5.973032 3.855772 
L 4.650144 3.091487 
L 5.08886 4.731783 
L 5.08886 4.731783 
C 5.124664 4.865606 5.105887 5.008319 5.036686 5.128326 
C 4.967486 5.248334 4.853376 5.336074 4.719619 5.372123 
L 4.719619 5.372123 
C 4.585619 5.407867 4.442757 5.3889 4.322726 5.319431 
C 4.202695 5.249961 4.115081 5.135537 4.07932 5.001542 
L 3.368166 2.351664 
L 0.717033 0.821063 
L 0.717033 3.884232 
L 2.657075 5.822893 
L 2.657075 5.822893 
C 2.70585 5.871495 2.744553 5.929252 2.770959 5.992843 
C 2.797366 6.056435 2.81096 6.124618 2.81096 6.193474 
C 2.81096 6.26233 2.797366 6.330514 2.770959 6.394105 
C 2.744553 6.457696 2.70585 6.515453 2.657075 6.564055 
L 2.657075 6.564055 
C 2.608473 6.61283 2.550716 6.651533 2.487125 6.67794 
C 2.423533 6.704346 2.35535 6.71794 2.286494 6.71794 
C 2.217638 6.71794 2.149454 6.704346 2.085863 6.67794 
C 2.022272 6.651533 1.964515 6.61283 1.915913 6.564055 
L 0.717033 5.365133 
L 0.717033 6.891026 
L 0.717033 6.891026 
C 0.717033 7.029722 0.661877 7.162879 0.563805 7.260952 
C 0.465732 7.359024 0.332575 7.41418 0.193879 7.41418 
L 0.193618 7.414054 
z
"/>
    </defs>
    <g clip-path="url(#p6fddde0075)">
     <use xlink:href="#md1e8bf6f06" x="191.204363" y="192.498537" style="fill: #0000ff; fill-opacity: 0.7"/>
    </g>
   </g>
   <g id="patch_35">
    <path d="M 147.95 43.4455 
C 133.389372 43.4455 118.970327 46.313626 105.518061 51.885737 
C 92.065795 57.457849 79.841919 65.625581 69.546 75.9215 
C 59.250081 86.217419 51.082349 98.441295 45.510237 111.893561 
C 39.938126 125.345827 37.07 139.764872 37.07 154.3255 
C 37.07 168.886128 39.938126 183.305173 45.510237 196.757439 
C 51.082349 210.209705 59.250081 222.433581 69.546 232.7295 
C 79.841919 243.025419 92.065795 251.193151 105.518061 256.765263 
C 118.970327 262.337374 133.389372 265.2055 147.95 265.2055 
C 162.510628 265.2055 176.929673 262.337374 190.381939 256.765263 
C 203.834205 251.193151 216.058081 243.025419 226.354 232.7295 
C 236.649919 222.433581 244.817651 210.209705 250.389763 196.757439 
C 255.961874 183.305173 258.83 168.886128 258.83 154.3255 
C 258.83 139.764872 255.961874 125.345827 250.389763 111.893561 
C 244.817651 98.441295 236.649919 86.217419 226.354 75.9215 
C 216.058081 65.625581 203.834205 57.457849 190.381939 51.885737 
C 176.929673 46.313626 162.510628 43.4455 147.95 43.4455 
" style="fill: none; stroke: #000000; stroke-width: 0.8; stroke-linejoin: miter; stroke-linecap: square"/>
   </g>
   <g id="text_5">
    <!-- 153 runs -->
    <g style="fill: #95a5a6" transform="translate(24.07168 38.045618) scale(0.1 -0.1)">
     <defs>
      <path id="DejaVuSans-31" d="M 794 531 
L 1825 531 
L 1825 4091 
L 703 3866 
L 703 4441 
L 1819 4666 
L 2450 4666 
L 2450 531 
L 3481 531 
L 3481 0 
L 794 0 
L 794 531 
z
" transform="scale(0.015625)"/>
      <path id="DejaVuSans-35" d="M 691 4666 
L 3169 4666 
L 3169 4134 
L 1269 4134 
L 1269 2991 
Q 1406 3038 1543 3061 
Q 1681 3084 1819 3084 
Q 2600 3084 3056 2656 
Q 3513 2228 3513 1497 
Q 3513 744 3044 326 
Q 2575 -91 1722 -91 
Q 1428 -91 1123 -41 
Q 819 9 494 109 
L 494 744 
Q 775 591 1075 516 
Q 1375 441 1709 441 
Q 2250 441 2565 725 
Q 2881 1009 2881 1497 
Q 2881 1984 2565 2268 
Q 2250 2553 1709 2553 
Q 1456 2553 1204 2497 
Q 953 2441 691 2322 
L 691 4666 
z
" transform="scale(0.015625)"/>
      <path id="DejaVuSans-33" d="M 2597 2516 
Q 3050 2419 3304 2112 
Q 3559 1806 3559 1356 
Q 3559 666 3084 287 
Q 2609 -91 1734 -91 
Q 1441 -91 1130 -33 
Q 819 25 488 141 
L 488 750 
Q 750 597 1062 519 
Q 1375 441 1716 441 
Q 2309 441 2620 675 
Q 2931 909 2931 1356 
Q 2931 1769 2642 2001 
Q 2353 2234 1838 2234 
L 1294 2234 
L 1294 2753 
L 1863 2753 
Q 2328 2753 2575 2939 
Q 2822 3125 2822 3475 
Q 2822 3834 2567 4026 
Q 2313 4219 1838 4219 
Q 1578 4219 1281 4162 
Q 984 4106 628 3988 
L 628 4550 
Q 988 4650 1302 4700 
Q 1616 4750 1894 4750 
Q 2613 4750 3031 4423 
Q 3450 4097 3450 3541 
Q 3450 3153 3228 2886 
Q 3006 2619 2597 2516 
z
" transform="scale(0.015625)"/>
      <path id="DejaVuSans-20" transform="scale(0.015625)"/>
      <path id="DejaVuSans-72" d="M 2631 2963 
Q 2534 3019 2420 3045 
Q 2306 3072 2169 3072 
Q 1681 3072 1420 2755 
Q 1159 2438 1159 1844 
L 1159 0 
L 581 0 
L 581 3500 
L 1159 3500 
L 1159 2956 
Q 1341 3275 1631 3429 
Q 1922 3584 2338 3584 
Q 2397 3584 2469 3576 
Q 2541 3569 2628 3553 
L 2631 2963 
z
" transform="scale(0.015625)"/>
      <path id="DejaVuSans-75" d="M 544 1381 
L 544 3500 
L 1119 3500 
L 1119 1403 
Q 1119 906 1312 657 
Q 1506 409 1894 409 
Q 2359 409 2629 706 
Q 2900 1003 2900 1516 
L 2900 3500 
L 3475 3500 
L 3475 0 
L 2900 0 
L 2900 538 
Q 2691 219 2414 64 
Q 2138 -91 1772 -91 
Q 1169 -91 856 284 
Q 544 659 544 1381 
z
M 1991 3584 
L 1991 3584 
z
" transform="scale(0.015625)"/>
      <path id="DejaVuSans-6e" d="M 3513 2113 
L 3513 0 
L 2938 0 
L 2938 2094 
Q 2938 2591 2744 2837 
Q 2550 3084 2163 3084 
Q 1697 3084 1428 2787 
Q 1159 2491 1159 1978 
L 1159 0 
L 581 0 
L 581 3500 
L 1159 3500 
L 1159 2956 
Q 1366 3272 1645 3428 
Q 1925 3584 2291 3584 
Q 2894 3584 3203 3211 
Q 3513 2838 3513 2113 
z
" transform="scale(0.015625)"/>
      <path id="DejaVuSans-73" d="M 2834 3397 
L 2834 2853 
Q 2591 2978 2328 3040 
Q 2066 3103 1784 3103 
Q 1356 3103 1142 2972 
Q 928 2841 928 2578 
Q 928 2378 1081 2264 
Q 1234 2150 1697 2047 
L 1894 2003 
Q 2506 1872 2764 1633 
Q 3022 1394 3022 966 
Q 3022 478 2636 193 
Q 2250 -91 1575 -91 
Q 1294 -91 989 -36 
Q 684 19 347 128 
L 347 722 
Q 666 556 975 473 
Q 1284 391 1588 391 
Q 1994 391 2212 530 
Q 2431 669 2431 922 
Q 2431 1156 2273 1281 
Q 2116 1406 1581 1522 
L 1381 1569 
Q 847 1681 609 1914 
Q 372 2147 372 2553 
Q 372 3047 722 3315 
Q 1072 3584 1716 3584 
Q 2034 3584 2315 3537 
Q 2597 3491 2834 3397 
z
" transform="scale(0.015625)"/>
     </defs>
     <use xlink:href="#DejaVuSans-31"/>
     <use xlink:href="#DejaVuSans-35" x="63.623047"/>
     <use xlink:href="#DejaVuSans-33" x="127.246094"/>
     <use xlink:href="#DejaVuSans-20" x="190.869141"/>
     <use xlink:href="#DejaVuSans-72" x="222.65625"/>
     <use xlink:href="#DejaVuSans-75" x="263.769531"/>
     <use xlink:href="#DejaVuSans-6e" x="327.148438"/>
     <use xlink:href="#DejaVuSans-73" x="390.527344"/>
    </g>
    <!-- 29 lifts -->
    <g style="fill: #95a5a6" transform="translate(24.07168 49.24343) scale(0.1 -0.1)">
     <defs>
      <path id="DejaVuSans-32" d="M 1228 531 
L 3431 531 
L 3431 0 
L 469 0 
L 469 531 
Q 828 903 1448 1529 
Q 2069 2156 2228 2338 
Q 2531 2678 2651 2914 
Q 2772 3150 2772 3378 
Q 2772 3750 2511 3984 
Q 2250 4219 1831 4219 
Q 1534 4219 1204 4116 
Q 875 4013 500 3803 
L 500 4441 
Q 881 4594 1212 4672 
Q 1544 4750 1819 4750 
Q 2544 4750 2975 4387 
Q 3406 4025 3406 3419 
Q 3406 3131 3298 2873 
Q 3191 2616 2906 2266 
Q 2828 2175 2409 1742 
Q 1991 1309 1228 531 
z
" transform="scale(0.015625)"/>
      <path id="DejaVuSans-39" d="M 703 97 
L 703 672 
Q 941 559 1184 500 
Q 1428 441 1663 441 
Q 2288 441 2617 861 
Q 2947 1281 2994 2138 
Q 2813 1869 2534 1725 
Q 2256 1581 1919 1581 
Q 1219 1581 811 2004 
Q 403 2428 403 3163 
Q 403 3881 828 4315 
Q 1253 4750 1959 4750 
Q 2769 4750 3195 4129 
Q 3622 3509 3622 2328 
Q 3622 1225 3098 567 
Q 2575 -91 1691 -91 
Q 1453 -91 1209 -44 
Q 966 3 703 97 
z
M 1959 2075 
Q 2384 2075 2632 2365 
Q 2881 2656 2881 3163 
Q 2881 3666 2632 3958 
Q 2384 4250 1959 4250 
Q 1534 4250 1286 3958 
Q 1038 3666 1038 3163 
Q 1038 2656 1286 2365 
Q 1534 2075 1959 2075 
z
" transform="scale(0.015625)"/>
      <path id="DejaVuSans-6c" d="M 603 4863 
L 1178 4863 
L 1178 0 
L 603 0 
L 603 4863 
z
" transform="scale(0.015625)"/>
      <path id="DejaVuSans-69" d="M 603 3500 
L 1178 3500 
L 1178 0 
L 603 0 
L 603 3500 
z
M 603 4863 
L 1178 4863 
L 1178 4134 
L 603 4134 
L 603 4863 
z
" transform="scale(0.015625)"/>
      <path id="DejaVuSans-66" d="M 2375 4863 
L 2375 4384 
L 1825 4384 
Q 1516 4384 1395 4259 
Q 1275 4134 1275 3809 
L 1275 3500 
L 2222 3500 
L 2222 3053 
L 1275 3053 
L 1275 0 
L 697 0 
L 697 3053 
L 147 3053 
L 147 3500 
L 697 3500 
L 697 3744 
Q 697 4328 969 4595 
Q 1241 4863 1831 4863 
L 2375 4863 
z
" transform="scale(0.015625)"/>
      <path id="DejaVuSans-74" d="M 1172 4494 
L 1172 3500 
L 2356 3500 
L 2356 3053 
L 1172 3053 
L 1172 1153 
Q 1172 725 1289 603 
Q 1406 481 1766 481 
L 2356 481 
L 2356 0 
L 1766 0 
Q 1100 0 847 248 
Q 594 497 594 1153 
L 594 3053 
L 172 3053 
L 172 3500 
L 594 3500 
L 594 4494 
L 1172 4494 
z
" transform="scale(0.015625)"/>
     </defs>
     <use xlink:href="#DejaVuSans-32"/>
     <use xlink:href="#DejaVuSans-39" x="63.623047"/>
     <use xlink:href="#DejaVuSans-20" x="127.246094"/>
     <use xlink:href="#DejaVuSans-6c" x="159.033203"/>
     <use xlink:href="#DejaVuSans-69" x="186.816406"/>
     <use xlink:href="#DejaVuSans-66" x="214.599609"/>
     <use xlink:href="#DejaVuSans-74" x="248.054688"/>
     <use xlink:href="#DejaVuSans-73" x="287.263672"/>
    </g>
   </g>
   <g id="text_6">
    <!-- 11,208 m -->
    <g style="fill: #95a5a6" transform="translate(225.100195 38.045618) scale(0.1 -0.1)">
     <defs>
      <path id="DejaVuSans-2c" d="M 750 794 
L 1409 794 
L 1409 256 
L 897 -744 
L 494 -744 
L 750 256 
L 750 794 
z
" transform="scale(0.015625)"/>
      <path id="DejaVuSans-30" d="M 2034 4250 
Q 1547 4250 1301 3770 
Q 1056 3291 1056 2328 
Q 1056 1369 1301 889 
Q 1547 409 2034 409 
Q 2525 409 2770 889 
Q 3016 1369 3016 2328 
Q 3016 3291 2770 3770 
Q 2525 4250 2034 4250 
z
M 2034 4750 
Q 2819 4750 3233 4129 
Q 3647 3509 3647 2328 
Q 3647 1150 3233 529 
Q 2819 -91 2034 -91 
Q 1250 -91 836 529 
Q 422 1150 422 2328 
Q 422 3509 836 4129 
Q 1250 4750 2034 4750 
z
" transform="scale(0.015625)"/>
      <path id="DejaVuSans-38" d="M 2034 2216 
Q 1584 2216 1326 1975 
Q 1069 1734 1069 1313 
Q 1069 891 1326 650 
Q 1584 409 2034 409 
Q 2484 409 2743 651 
Q 3003 894 3003 1313 
Q 3003 1734 2745 1975 
Q 2488 2216 2034 2216 
z
M 1403 2484 
Q 997 2584 770 2862 
Q 544 3141 544 3541 
Q 544 4100 942 4425 
Q 1341 4750 2034 4750 
Q 2731 4750 3128 4425 
Q 3525 4100 3525 3541 
Q 3525 3141 3298 2862 
Q 3072 2584 2669 2484 
Q 3125 2378 3379 2068 
Q 3634 1759 3634 1313 
Q 3634 634 3220 271 
Q 2806 -91 2034 -91 
Q 1263 -91 848 271 
Q 434 634 434 1313 
Q 434 1759 690 2068 
Q 947 2378 1403 2484 
z
M 1172 3481 
Q 1172 3119 1398 2916 
Q 1625 2713 2034 2713 
Q 2441 2713 2670 2916 
Q 2900 3119 2900 3481 
Q 2900 3844 2670 4047 
Q 2441 4250 2034 4250 
Q 1625 4250 1398 4047 
Q 1172 3844 1172 3481 
z
" transform="scale(0.015625)"/>
      <path id="DejaVuSans-202f" transform="scale(0.015625)"/>
      <path id="DejaVuSans-6d" d="M 3328 2828 
Q 3544 3216 3844 3400 
Q 4144 3584 4550 3584 
Q 5097 3584 5394 3201 
Q 5691 2819 5691 2113 
L 5691 0 
L 5113 0 
L 5113 2094 
Q 5113 2597 4934 2840 
Q 4756 3084 4391 3084 
Q 3944 3084 3684 2787 
Q 3425 2491 3425 1978 
L 3425 0 
L 2847 0 
L 2847 2094 
Q 2847 2600 2669 2842 
Q 2491 3084 2119 3084 
Q 1678 3084 1418 2786 
Q 1159 2488 1159 1978 
L 1159 0 
L 581 0 
L 581 3500 
L 1159 3500 
L 1159 2956 
Q 1356 3278 1631 3431 
Q 1906 3584 2284 3584 
Q 2666 3584 2933 3390 
Q 3200 3197 3328 2828 
z
" transform="scale(0.015625)"/>
     </defs>
     <use xlink:href="#DejaVuSans-31"/>
     <use xlink:href="#DejaVuSans-31" x="63.623047"/>
     <use xlink:href="#DejaVuSans-2c" x="127.246094"/>
     <use xlink:href="#DejaVuSans-32" x="159.033203"/>
     <use xlink:href="#DejaVuSans-30" x="222.65625"/>
     <use xlink:href="#DejaVuSans-38" x="286.279297"/>
     <use xlink:href="#DejaVuSans-202f" x="349.902344"/>
     <use xlink:href="#DejaVuSans-6d" x="369.873047"/>
    </g>
    <!-- skiable -->
    <g style="fill: #95a5a6" transform="translate(236.642382 49.24343) scale(0.1 -0.1)">
     <defs>
      <path id="DejaVuSans-6b" d="M 581 4863 
L 1159 4863 
L 1159 1991 
L 2875 3500 
L 3609 3500 
L 1753 1863 
L 3688 0 
L 2938 0 
L 1159 1709 
L 1159 0 
L 581 0 
L 581 4863 
z
" transform="scale(0.015625)"/>
      <path id="DejaVuSans-61" d="M 2194 1759 
Q 1497 1759 1228 1600 
Q 959 1441 959 1056 
Q 959 750 1161 570 
Q 1363 391 1709 391 
Q 2188 391 2477 730 
Q 2766 1069 2766 1631 
L 2766 1759 
L 2194 1759 
z
M 3341 1997 
L 3341 0 
L 2766 0 
L 2766 531 
Q 2569 213 2275 61 
Q 1981 -91 1556 -91 
Q 1019 -91 701 211 
Q 384 513 384 1019 
Q 384 1609 779 1909 
Q 1175 2209 1959 2209 
L 2766 2209 
L 2766 2266 
Q 2766 2663 2505 2880 
Q 2244 3097 1772 3097 
Q 1472 3097 1187 3025 
Q 903 2953 641 2809 
L 641 3341 
Q 956 3463 1253 3523 
Q 1550 3584 1831 3584 
Q 2591 3584 2966 3190 
Q 3341 2797 3341 1997 
z
" transform="scale(0.015625)"/>
      <path id="DejaVuSans-62" d="M 3116 1747 
Q 3116 2381 2855 2742 
Q 2594 3103 2138 3103 
Q 1681 3103 1420 2742 
Q 1159 2381 1159 1747 
Q 1159 1113 1420 752 
Q 1681 391 2138 391 
Q 2594 391 2855 752 
Q 3116 1113 3116 1747 
z
M 1159 2969 
Q 1341 3281 1617 3432 
Q 1894 3584 2278 3584 
Q 2916 3584 3314 3078 
Q 3713 2572 3713 1747 
Q 3713 922 3314 415 
Q 2916 -91 2278 -91 
Q 1894 -91 1617 61 
Q 1341 213 1159 525 
L 1159 0 
L 581 0 
L 581 4863 
L 1159 4863 
L 1159 2969 
z
" transform="scale(0.015625)"/>
      <path id="DejaVuSans-65" d="M 3597 1894 
L 3597 1613 
L 953 1613 
Q 991 1019 1311 708 
Q 1631 397 2203 397 
Q 2534 397 2845 478 
Q 3156 559 3463 722 
L 3463 178 
Q 3153 47 2828 -22 
Q 2503 -91 2169 -91 
Q 1331 -91 842 396 
Q 353 884 353 1716 
Q 353 2575 817 3079 
Q 1281 3584 2069 3584 
Q 2775 3584 3186 3129 
Q 3597 2675 3597 1894 
z
M 3022 2063 
Q 3016 2534 2758 2815 
Q 2500 3097 2075 3097 
Q 1594 3097 1305 2825 
Q 1016 2553 972 2059 
L 3022 2063 
z
" transform="scale(0.015625)"/>
     </defs>
     <use xlink:href="#DejaVuSans-73"/>
     <use xlink:href="#DejaVuSans-6b" x="52.099609"/>
     <use xlink:href="#DejaVuSans-69" x="110.009766"/>
     <use xlink:href="#DejaVuSans-61" x="137.792969"/>
     <use xlink:href="#DejaVuSans-62" x="199.072266"/>
     <use xlink:href="#DejaVuSans-6c" x="262.548828"/>
     <use xlink:href="#DejaVuSans-65" x="290.332031"/>
    </g>
    <!-- vert -->
    <g style="fill: #95a5a6" transform="translate(251.725195 60.441243) scale(0.1 -0.1)">
     <defs>
      <path id="DejaVuSans-76" d="M 191 3500 
L 800 3500 
L 1894 563 
L 2988 3500 
L 3597 3500 
L 2284 0 
L 1503 0 
L 191 3500 
z
" transform="scale(0.015625)"/>
     </defs>
     <use xlink:href="#DejaVuSans-76"/>
     <use xlink:href="#DejaVuSans-65" x="59.179688"/>
     <use xlink:href="#DejaVuSans-72" x="120.703125"/>
     <use xlink:href="#DejaVuSans-74" x="161.816406"/>
    </g>
   </g>
   <g id="text_7">
    <!-- affinity: -->
    <g style="fill: #95a5a6" transform="translate(24.07168 253.728507) scale(0.1 -0.1)">
     <defs>
      <path id="DejaVuSans-79" d="M 2059 -325 
Q 1816 -950 1584 -1140 
Q 1353 -1331 966 -1331 
L 506 -1331 
L 506 -850 
L 844 -850 
Q 1081 -850 1212 -737 
Q 1344 -625 1503 -206 
L 1606 56 
L 191 3500 
L 800 3500 
L 1894 763 
L 2988 3500 
L 3597 3500 
L 2059 -325 
z
" transform="scale(0.015625)"/>
      <path id="DejaVuSans-3a" d="M 750 794 
L 1409 794 
L 1409 0 
L 750 0 
L 750 794 
z
M 750 3309 
L 1409 3309 
L 1409 2516 
L 750 2516 
L 750 3309 
z
" transform="scale(0.015625)"/>
     </defs>
     <use xlink:href="#DejaVuSans-61"/>
     <use xlink:href="#DejaVuSans-66" x="61.279297"/>
     <use xlink:href="#DejaVuSans-66" x="96.484375"/>
     <use xlink:href="#DejaVuSans-69" x="131.689453"/>
     <use xlink:href="#DejaVuSans-6e" x="159.472656"/>
     <use xlink:href="#DejaVuSans-69" x="222.851562"/>
     <use xlink:href="#DejaVuSans-74" x="250.634766"/>
     <use xlink:href="#DejaVuSans-79" x="289.84375"/>
     <use xlink:href="#DejaVuSans-3a" x="341.773438"/>
    </g>
    <!-- -34% poleward -->
    <g style="fill: #95a5a6" transform="translate(24.07168 264.92632) scale(0.1 -0.1)">
     <defs>
      <path id="DejaVuSans-2d" d="M 313 2009 
L 1997 2009 
L 1997 1497 
L 313 1497 
L 313 2009 
z
" transform="scale(0.015625)"/>
      <path id="DejaVuSans-34" d="M 2419 4116 
L 825 1625 
L 2419 1625 
L 2419 4116 
z
M 2253 4666 
L 3047 4666 
L 3047 1625 
L 3713 1625 
L 3713 1100 
L 3047 1100 
L 3047 0 
L 2419 0 
L 2419 1100 
L 313 1100 
L 313 1709 
L 2253 4666 
z
" transform="scale(0.015625)"/>
      <path id="DejaVuSans-25" d="M 4653 2053 
Q 4381 2053 4226 1822 
Q 4072 1591 4072 1178 
Q 4072 772 4226 539 
Q 4381 306 4653 306 
Q 4919 306 5073 539 
Q 5228 772 5228 1178 
Q 5228 1588 5073 1820 
Q 4919 2053 4653 2053 
z
M 4653 2450 
Q 5147 2450 5437 2106 
Q 5728 1763 5728 1178 
Q 5728 594 5436 251 
Q 5144 -91 4653 -91 
Q 4153 -91 3862 251 
Q 3572 594 3572 1178 
Q 3572 1766 3864 2108 
Q 4156 2450 4653 2450 
z
M 1428 4353 
Q 1159 4353 1004 4120 
Q 850 3888 850 3481 
Q 850 3069 1003 2837 
Q 1156 2606 1428 2606 
Q 1700 2606 1854 2837 
Q 2009 3069 2009 3481 
Q 2009 3884 1853 4118 
Q 1697 4353 1428 4353 
z
M 4250 4750 
L 4750 4750 
L 1831 -91 
L 1331 -91 
L 4250 4750 
z
M 1428 4750 
Q 1922 4750 2215 4408 
Q 2509 4066 2509 3481 
Q 2509 2891 2217 2550 
Q 1925 2209 1428 2209 
Q 931 2209 642 2551 
Q 353 2894 353 3481 
Q 353 4063 643 4406 
Q 934 4750 1428 4750 
z
" transform="scale(0.015625)"/>
      <path id="DejaVuSans-70" d="M 1159 525 
L 1159 -1331 
L 581 -1331 
L 581 3500 
L 1159 3500 
L 1159 2969 
Q 1341 3281 1617 3432 
Q 1894 3584 2278 3584 
Q 2916 3584 3314 3078 
Q 3713 2572 3713 1747 
Q 3713 922 3314 415 
Q 2916 -91 2278 -91 
Q 1894 -91 1617 61 
Q 1341 213 1159 525 
z
M 3116 1747 
Q 3116 2381 2855 2742 
Q 2594 3103 2138 3103 
Q 1681 3103 1420 2742 
Q 1159 2381 1159 1747 
Q 1159 1113 1420 752 
Q 1681 391 2138 391 
Q 2594 391 2855 752 
Q 3116 1113 3116 1747 
z
" transform="scale(0.015625)"/>
      <path id="DejaVuSans-6f" d="M 1959 3097 
Q 1497 3097 1228 2736 
Q 959 2375 959 1747 
Q 959 1119 1226 758 
Q 1494 397 1959 397 
Q 2419 397 2687 759 
Q 2956 1122 2956 1747 
Q 2956 2369 2687 2733 
Q 2419 3097 1959 3097 
z
M 1959 3584 
Q 2709 3584 3137 3096 
Q 3566 2609 3566 1747 
Q 3566 888 3137 398 
Q 2709 -91 1959 -91 
Q 1206 -91 779 398 
Q 353 888 353 1747 
Q 353 2609 779 3096 
Q 1206 3584 1959 3584 
z
" transform="scale(0.015625)"/>
      <path id="DejaVuSans-77" d="M 269 3500 
L 844 3500 
L 1563 769 
L 2278 3500 
L 2956 3500 
L 3675 769 
L 4391 3500 
L 4966 3500 
L 4050 0 
L 3372 0 
L 2619 2869 
L 1863 0 
L 1184 0 
L 269 3500 
z
" transform="scale(0.015625)"/>
      <path id="DejaVuSans-64" d="M 2906 2969 
L 2906 4863 
L 3481 4863 
L 3481 0 
L 2906 0 
L 2906 525 
Q 2725 213 2448 61 
Q 2172 -91 1784 -91 
Q 1150 -91 751 415 
Q 353 922 353 1747 
Q 353 2572 751 3078 
Q 1150 3584 1784 3584 
Q 2172 3584 2448 3432 
Q 2725 3281 2906 2969 
z
M 947 1747 
Q 947 1113 1208 752 
Q 1469 391 1925 391 
Q 2381 391 2643 752 
Q 2906 1113 2906 1747 
Q 2906 2381 2643 2742 
Q 2381 3103 1925 3103 
Q 1469 3103 1208 2742 
Q 947 2381 947 1747 
z
" transform="scale(0.015625)"/>
     </defs>
     <use xlink:href="#DejaVuSans-2d"/>
     <use xlink:href="#DejaVuSans-33" x="36.083984"/>
     <use xlink:href="#DejaVuSans-34" x="99.707031"/>
     <use xlink:href="#DejaVuSans-25" x="163.330078"/>
     <use xlink:href="#DejaVuSans-20" x="258.349609"/>
     <use xlink:href="#DejaVuSans-70" x="290.136719"/>
     <use xlink:href="#DejaVuSans-6f" x="353.613281"/>
     <use xlink:href="#DejaVuSans-6c" x="414.794922"/>
     <use xlink:href="#DejaVuSans-65" x="442.578125"/>
     <use xlink:href="#DejaVuSans-77" x="504.101562"/>
     <use xlink:href="#DejaVuSans-61" x="585.888672"/>
     <use xlink:href="#DejaVuSans-72" x="647.167969"/>
     <use xlink:href="#DejaVuSans-64" x="686.53125"/>
    </g>
    <!-- 39% eastward -->
    <g style="fill: #95a5a6" transform="translate(24.07168 276.124132) scale(0.1 -0.1)">
     <use xlink:href="#DejaVuSans-33"/>
     <use xlink:href="#DejaVuSans-39" x="63.623047"/>
     <use xlink:href="#DejaVuSans-25" x="127.246094"/>
     <use xlink:href="#DejaVuSans-20" x="222.265625"/>
     <use xlink:href="#DejaVuSans-65" x="254.052734"/>
     <use xlink:href="#DejaVuSans-61" x="315.576172"/>
     <use xlink:href="#DejaVuSans-73" x="376.855469"/>
     <use xlink:href="#DejaVuSans-74" x="428.955078"/>
     <use xlink:href="#DejaVuSans-77" x="468.164062"/>
     <use xlink:href="#DejaVuSans-61" x="549.951172"/>
     <use xlink:href="#DejaVuSans-72" x="611.230469"/>
     <use xlink:href="#DejaVuSans-64" x="650.59375"/>
    </g>
   </g>
   <g id="text_8">
    <!-- elevation: -->
    <g style="fill: #95a5a6" transform="translate(222.173632 253.728507) scale(0.1 -0.1)">
     <use xlink:href="#DejaVuSans-65"/>
     <use xlink:href="#DejaVuSans-6c" x="61.523438"/>
     <use xlink:href="#DejaVuSans-65" x="89.306641"/>
     <use xlink:href="#DejaVuSans-76" x="150.830078"/>
     <use xlink:href="#DejaVuSans-61" x="210.009766"/>
     <use xlink:href="#DejaVuSans-74" x="271.289062"/>
     <use xlink:href="#DejaVuSans-69" x="310.498047"/>
     <use xlink:href="#DejaVuSans-6f" x="338.28125"/>
     <use xlink:href="#DejaVuSans-6e" x="399.462891"/>
     <use xlink:href="#DejaVuSans-3a" x="462.841797"/>
    </g>
    <!-- 260 m base -->
    <g style="fill: #95a5a6" transform="translate(213.986132 264.92632) scale(0.1 -0.1)">
     <defs>
      <path id="DejaVuSans-36" d="M 2113 2584 
Q 1688 2584 1439 2293 
Q 1191 2003 1191 1497 
Q 1191 994 1439 701 
Q 1688 409 2113 409 
Q 2538 409 2786 701 
Q 3034 994 3034 1497 
Q 3034 2003 2786 2293 
Q 2538 2584 2113 2584 
z
M 3366 4563 
L 3366 3988 
Q 3128 4100 2886 4159 
Q 2644 4219 2406 4219 
Q 1781 4219 1451 3797 
Q 1122 3375 1075 2522 
Q 1259 2794 1537 2939 
Q 1816 3084 2150 3084 
Q 2853 3084 3261 2657 
Q 3669 2231 3669 1497 
Q 3669 778 3244 343 
Q 2819 -91 2113 -91 
Q 1303 -91 875 529 
Q 447 1150 447 2328 
Q 447 3434 972 4092 
Q 1497 4750 2381 4750 
Q 2619 4750 2861 4703 
Q 3103 4656 3366 4563 
z
" transform="scale(0.015625)"/>
     </defs>
     <use xlink:href="#DejaVuSans-32"/>
     <use xlink:href="#DejaVuSans-36" x="63.623047"/>
     <use xlink:href="#DejaVuSans-30" x="127.246094"/>
     <use xlink:href="#DejaVuSans-202f" x="190.869141"/>
     <use xlink:href="#DejaVuSans-6d" x="210.839844"/>
     <use xlink:href="#DejaVuSans-20" x="308.251953"/>
     <use xlink:href="#DejaVuSans-62" x="340.039062"/>
     <use xlink:href="#DejaVuSans-61" x="403.515625"/>
     <use xlink:href="#DejaVuSans-73" x="464.794922"/>
     <use xlink:href="#DejaVuSans-65" x="516.894531"/>
    </g>
    <!-- 1,176 m peak -->
    <g style="fill: #95a5a6" transform="translate(203.864257 276.124132) scale(0.1 -0.1)">
     <defs>
      <path id="DejaVuSans-37" d="M 525 4666 
L 3525 4666 
L 3525 4397 
L 1831 0 
L 1172 0 
L 2766 4134 
L 525 4134 
L 525 4666 
z
" transform="scale(0.015625)"/>
     </defs>
     <use xlink:href="#DejaVuSans-31"/>
     <use xlink:href="#DejaVuSans-2c" x="63.623047"/>
     <use xlink:href="#DejaVuSans-31" x="95.410156"/>
     <use xlink:href="#DejaVuSans-37" x="159.033203"/>
     <use xlink:href="#DejaVuSans-36" x="222.65625"/>
     <use xlink:href="#DejaVuSans-202f" x="286.279297"/>
     <use xlink:href="#DejaVuSans-6d" x="306.25"/>
     <use xlink:href="#DejaVuSans-20" x="403.662109"/>
     <use xlink:href="#DejaVuSans-70" x="435.449219"/>
     <use xlink:href="#DejaVuSans-65" x="498.925781"/>
     <use xlink:href="#DejaVuSans-61" x="560.449219"/>
     <use xlink:href="#DejaVuSans-6b" x="621.728516"/>
    </g>
   </g>
   <g id="text_9">
    <!-- ニセコユナイテッド, Niseko United -->
    <g transform="translate(7.2 19.3575) scale(0.16 -0.16)">
     <defs>
      <path id="NotoSansCJKjp-Bold-30cb" d="M 1088 4346 
L 1088 3418 
C 1306 3430 1600 3443 1843 3443 
C 2195 3443 4147 3443 4486 3443 
C 4710 3443 5011 3424 5197 3418 
L 5197 4346 
C 5018 4326 4742 4307 4486 4307 
C 4134 4307 2381 4307 1837 4307 
C 1619 4307 1318 4320 1088 4346 
z
M 550 1216 
L 550 237 
C 787 256 1101 275 1350 275 
C 1760 275 4627 275 5024 275 
C 5216 275 5504 262 5728 237 
L 5728 1216 
C 5510 1190 5242 1178 5024 1178 
C 4627 1178 1760 1178 1350 1178 
C 1101 1178 800 1197 550 1216 
z
" transform="scale(0.015625)"/>
      <path id="NotoSansCJKjp-Bold-30bb" d="M 5837 3667 
L 5222 4141 
C 5101 4077 4947 4032 4768 3994 
C 4480 3923 3584 3744 2650 3565 
L 2650 4320 
C 2650 4538 2675 4858 2707 5056 
L 1754 5056 
C 1786 4858 1805 4531 1805 4320 
L 1805 3405 
C 1171 3290 608 3194 307 3155 
L 461 2317 
C 730 2381 1235 2483 1805 2598 
L 1805 851 
C 1805 96 2016 -256 3475 -256 
C 4160 -256 4928 -192 5459 -115 
L 5485 755 
C 4851 627 4141 538 3469 538 
C 2765 538 2650 678 2650 1075 
L 2650 2771 
L 4621 3162 
C 4442 2829 4019 2246 3597 1869 
L 4301 1453 
C 4762 1907 5344 2784 5626 3315 
C 5683 3430 5779 3578 5837 3667 
z
" transform="scale(0.015625)"/>
      <path id="NotoSansCJKjp-Bold-30b3" d="M 922 1069 
L 922 154 
C 1133 173 1498 192 1747 192 
L 4666 192 
L 4659 -141 
L 5587 -141 
C 5574 51 5562 390 5562 614 
L 5562 3930 
C 5562 4115 5574 4371 5581 4518 
C 5472 4512 5203 4506 5018 4506 
L 1792 4506 
C 1574 4506 1242 4518 1005 4544 
L 1005 3654 
C 1184 3667 1530 3680 1798 3680 
L 4672 3680 
L 4672 1030 
L 1722 1030 
C 1434 1030 1146 1050 922 1069 
z
" transform="scale(0.015625)"/>
      <path id="NotoSansCJKjp-Bold-30e6" d="M 454 1158 
L 454 230 
C 672 250 896 262 1088 262 
L 5357 262 
C 5504 262 5773 256 5952 230 
L 5952 1158 
C 5786 1139 5581 1107 5357 1107 
L 4666 1107 
C 4787 1818 5018 3283 5094 3866 
C 5101 3917 5133 4064 5158 4154 
L 4493 4486 
C 4384 4442 4064 4403 3898 4403 
C 3507 4403 2285 4403 1875 4403 
C 1658 4403 1363 4429 1158 4454 
L 1158 3552 
C 1389 3571 1626 3578 1882 3578 
C 2285 3578 3597 3578 4090 3578 
C 4077 3162 3853 1805 3731 1107 
L 1088 1107 
C 890 1107 659 1126 454 1158 
z
" transform="scale(0.015625)"/>
      <path id="NotoSansCJKjp-Bold-30ca" d="M 557 3654 
L 557 2771 
C 755 2784 1011 2803 1293 2803 
L 2925 2803 
C 2874 1722 2445 800 1190 230 
L 1984 -358 
C 3366 467 3770 1517 3808 2803 
L 5248 2803 
C 5504 2803 5818 2784 5952 2778 
L 5952 3648 
C 5818 3635 5549 3610 5254 3610 
L 3814 3610 
L 3814 4307 
C 3814 4512 3827 4864 3866 5062 
L 2848 5062 
C 2906 4864 2931 4531 2931 4314 
L 2931 3610 
L 1267 3610 
C 1011 3610 749 3635 557 3654 
z
" transform="scale(0.015625)"/>
      <path id="NotoSansCJKjp-Bold-30a4" d="M 397 2490 
L 800 1683 
C 1587 1914 2400 2259 3059 2605 
L 3059 557 
C 3059 275 3034 -128 3014 -282 
L 4026 -282 
C 3981 -122 3968 275 3968 557 
L 3968 3142 
C 4589 3552 5203 4051 5690 4531 
L 4998 5190 
C 4582 4685 3853 4045 3194 3635 
C 2483 3200 1542 2784 397 2490 
z
" transform="scale(0.015625)"/>
      <path id="NotoSansCJKjp-Bold-30c6" d="M 1286 4909 
L 1286 4083 
C 1485 4096 1754 4109 1978 4109 
C 2374 4109 4173 4109 4544 4109 
C 4768 4109 5018 4096 5235 4083 
L 5235 4909 
C 5018 4877 4762 4864 4544 4864 
C 4173 4864 2374 4864 1971 4864 
C 1760 4864 1498 4877 1286 4909 
z
M 544 3270 
L 544 2432 
C 723 2445 966 2458 1158 2458 
L 2918 2458 
C 2893 1920 2784 1440 2522 1043 
C 2266 672 1818 301 1363 128 
L 2112 -416 
C 2682 -128 3174 371 3398 813 
C 3629 1261 3770 1798 3808 2458 
L 5350 2458 
C 5530 2458 5773 2451 5933 2438 
L 5933 3270 
C 5760 3245 5485 3232 5350 3232 
C 4966 3232 1555 3232 1158 3232 
C 960 3232 736 3251 544 3270 
z
" transform="scale(0.015625)"/>
      <path id="NotoSansCJKjp-Bold-30c3" d="M 3232 3802 
L 2470 3552 
C 2630 3219 2912 2445 2989 2131 
L 3757 2400 
C 3667 2694 3354 3526 3232 3802 
z
M 5594 3334 
L 4698 3622 
C 4621 2822 4314 1971 3878 1427 
C 3347 762 2458 275 1754 90 
L 2426 -595 
C 3174 -314 3974 224 4570 992 
C 5005 1555 5274 2221 5440 2867 
C 5478 2995 5517 3130 5594 3334 
z
M 1747 3462 
L 979 3187 
C 1133 2906 1453 2054 1562 1709 
L 2342 2003 
C 2214 2362 1907 3136 1747 3462 
z
" transform="scale(0.015625)"/>
      <path id="NotoSansCJKjp-Bold-30c9" d="M 4365 4762 
L 3827 4538 
C 4064 4205 4205 3949 4390 3546 
L 4947 3795 
C 4800 4083 4544 4493 4365 4762 
z
M 5203 5114 
L 4672 4864 
C 4909 4544 5062 4307 5267 3904 
L 5805 4166 
C 5658 4454 5389 4858 5203 5114 
z
M 1811 518 
C 1811 269 1786 -122 1747 -371 
L 2752 -371 
C 2720 -109 2688 339 2688 518 
L 2688 2330 
C 3379 2099 4339 1728 5005 1376 
L 5363 2266 
C 4774 2554 3539 3008 2688 3264 
L 2688 4198 
C 2688 4467 2720 4749 2746 4973 
L 1747 4973 
C 1792 4742 1811 4429 1811 4198 
C 1811 3661 1811 1011 1811 518 
z
" transform="scale(0.015625)"/>
      <path id="DejaVuSans-Bold-2c" d="M 653 1209 
L 1778 1209 
L 1778 256 
L 1006 -909 
L 341 -909 
L 653 256 
L 653 1209 
z
" transform="scale(0.015625)"/>
      <path id="DejaVuSans-Bold-20" transform="scale(0.015625)"/>
      <path id="DejaVuSans-Bold-69" d="M 538 3500 
L 1656 3500 
L 1656 0 
L 538 0 
L 538 3500 
z
M 538 4863 
L 1656 4863 
L 1656 3950 
L 538 3950 
L 538 4863 
z
" transform="scale(0.015625)"/>
      <path id="DejaVuSans-Bold-73" d="M 3272 3391 
L 3272 2541 
Q 2913 2691 2578 2766 
Q 2244 2841 1947 2841 
Q 1628 2841 1473 2761 
Q 1319 2681 1319 2516 
Q 1319 2381 1436 2309 
Q 1553 2238 1856 2203 
L 2053 2175 
Q 2913 2066 3209 1816 
Q 3506 1566 3506 1031 
Q 3506 472 3093 190 
Q 2681 -91 1863 -91 
Q 1516 -91 1145 -36 
Q 775 19 384 128 
L 384 978 
Q 719 816 1070 734 
Q 1422 653 1784 653 
Q 2113 653 2278 743 
Q 2444 834 2444 1013 
Q 2444 1163 2330 1236 
Q 2216 1309 1875 1350 
L 1678 1375 
Q 931 1469 631 1722 
Q 331 1975 331 2491 
Q 331 3047 712 3315 
Q 1094 3584 1881 3584 
Q 2191 3584 2531 3537 
Q 2872 3491 3272 3391 
z
" transform="scale(0.015625)"/>
      <path id="DejaVuSans-Bold-65" d="M 4031 1759 
L 4031 1441 
L 1416 1441 
Q 1456 1047 1700 850 
Q 1944 653 2381 653 
Q 2734 653 3104 758 
Q 3475 863 3866 1075 
L 3866 213 
Q 3469 63 3072 -14 
Q 2675 -91 2278 -91 
Q 1328 -91 801 392 
Q 275 875 275 1747 
Q 275 2603 792 3093 
Q 1309 3584 2216 3584 
Q 3041 3584 3536 3087 
Q 4031 2591 4031 1759 
z
M 2881 2131 
Q 2881 2450 2695 2645 
Q 2509 2841 2209 2841 
Q 1884 2841 1681 2658 
Q 1478 2475 1428 2131 
L 2881 2131 
z
" transform="scale(0.015625)"/>
      <path id="DejaVuSans-Bold-6b" d="M 538 4863 
L 1656 4863 
L 1656 2216 
L 2944 3500 
L 4244 3500 
L 2534 1894 
L 4378 0 
L 3022 0 
L 1656 1459 
L 1656 0 
L 538 0 
L 538 4863 
z
" transform="scale(0.015625)"/>
      <path id="DejaVuSans-Bold-6f" d="M 2203 2784 
Q 1831 2784 1636 2517 
Q 1441 2250 1441 1747 
Q 1441 1244 1636 976 
Q 1831 709 2203 709 
Q 2569 709 2762 976 
Q 2956 1244 2956 1747 
Q 2956 2250 2762 2517 
Q 2569 2784 2203 2784 
z
M 2203 3584 
Q 3106 3584 3614 3096 
Q 4122 2609 4122 1747 
Q 4122 884 3614 396 
Q 3106 -91 2203 -91 
Q 1297 -91 786 396 
Q 275 884 275 1747 
Q 275 2609 786 3096 
Q 1297 3584 2203 3584 
z
" transform="scale(0.015625)"/>
      <path id="DejaVuSans-Bold-55" d="M 588 4666 
L 1791 4666 
L 1791 1869 
Q 1791 1291 1980 1042 
Q 2169 794 2597 794 
Q 3028 794 3217 1042 
Q 3406 1291 3406 1869 
L 3406 4666 
L 4609 4666 
L 4609 1869 
Q 4609 878 4112 393 
Q 3616 -91 2597 -91 
Q 1581 -91 1084 393 
Q 588 878 588 1869 
L 588 4666 
z
" transform="scale(0.015625)"/>
      <path id="DejaVuSans-Bold-6e" d="M 4056 2131 
L 4056 0 
L 2931 0 
L 2931 347 
L 2931 1631 
Q 2931 2084 2911 2256 
Q 2891 2428 2841 2509 
Q 2775 2619 2662 2680 
Q 2550 2741 2406 2741 
Q 2056 2741 1856 2470 
Q 1656 2200 1656 1722 
L 1656 0 
L 538 0 
L 538 3500 
L 1656 3500 
L 1656 2988 
Q 1909 3294 2193 3439 
Q 2478 3584 2822 3584 
Q 3428 3584 3742 3212 
Q 4056 2841 4056 2131 
z
" transform="scale(0.015625)"/>
      <path id="DejaVuSans-Bold-74" d="M 1759 4494 
L 1759 3500 
L 2913 3500 
L 2913 2700 
L 1759 2700 
L 1759 1216 
Q 1759 972 1856 886 
Q 1953 800 2241 800 
L 2816 800 
L 2816 0 
L 1856 0 
Q 1194 0 917 276 
Q 641 553 641 1216 
L 641 2700 
L 84 2700 
L 84 3500 
L 641 3500 
L 641 4494 
L 1759 4494 
z
" transform="scale(0.015625)"/>
      <path id="DejaVuSans-Bold-64" d="M 2919 2988 
L 2919 4863 
L 4044 4863 
L 4044 0 
L 2919 0 
L 2919 506 
Q 2688 197 2409 53 
Q 2131 -91 1766 -91 
Q 1119 -91 703 423 
Q 288 938 288 1747 
Q 288 2556 703 3070 
Q 1119 3584 1766 3584 
Q 2128 3584 2408 3439 
Q 2688 3294 2919 2988 
z
M 2181 722 
Q 2541 722 2730 984 
Q 2919 1247 2919 1747 
Q 2919 2247 2730 2509 
Q 2541 2772 2181 2772 
Q 1825 2772 1636 2509 
Q 1447 2247 1447 1747 
Q 1447 1247 1636 984 
Q 1825 722 2181 722 
z
" transform="scale(0.015625)"/>
     </defs>
     <use xlink:href="#NotoSansCJKjp-Bold-30cb"/>
     <use xlink:href="#NotoSansCJKjp-Bold-30bb" x="99.999985"/>
     <use xlink:href="#NotoSansCJKjp-Bold-30b3" x="199.999969"/>
     <use xlink:href="#NotoSansCJKjp-Bold-30e6" x="299.999954"/>
     <use xlink:href="#NotoSansCJKjp-Bold-30ca" x="399.999939"/>
     <use xlink:href="#NotoSansCJKjp-Bold-30a4" x="499.999924"/>
     <use xlink:href="#NotoSansCJKjp-Bold-30c6" x="599.999908"/>
     <use xlink:href="#NotoSansCJKjp-Bold-30c3" x="699.999893"/>
     <use xlink:href="#NotoSansCJKjp-Bold-30c9" x="799.999878"/>
     <use xlink:href="#DejaVuSans-Bold-2c" x="899.999863"/>
     <use xlink:href="#DejaVuSans-Bold-20" x="937.988144"/>
     <use xlink:href="#DejaVuSans-Bold-4e" x="972.802597"/>
     <use xlink:href="#DejaVuSans-Bold-69" x="1056.494003"/>
     <use xlink:href="#DejaVuSans-Bold-73" x="1090.771347"/>
     <use xlink:href="#DejaVuSans-Bold-65" x="1150.292831"/>
     <use xlink:href="#DejaVuSans-Bold-6b" x="1218.115097"/>
     <use xlink:href="#DejaVuSans-Bold-6f" x="1281.994003"/>
     <use xlink:href="#DejaVuSans-Bold-20" x="1350.695175"/>
     <use xlink:href="#DejaVuSans-Bold-55" x="1385.509628"/>
     <use xlink:href="#DejaVuSans-Bold-6e" x="1466.7108"/>
     <use xlink:href="#DejaVuSans-Bold-69" x="1537.902206"/>
     <use xlink:href="#DejaVuSans-Bold-74" x="1572.17955"/>
     <use xlink:href="#DejaVuSans-Bold-65" x="1619.982285"/>
     <use xlink:href="#DejaVuSans-Bold-64" x="1687.80455"/>
    </g>
   </g>
  </g>
 </g>
 <defs>
  <clipPath id="p6fddde0075">
   <path d="M 258.83 154.3255 
C 258.83 139.764872 255.961874 125.345827 250.389763 111.893561 
C 244.817651 98.441295 236.649919 86.217419 226.354 75.9215 
C 216.058081 65.625581 203.834205 57.457849 190.381939 51.885737 
C 176.929673 46.313626 162.510628 43.4455 147.95 43.4455 
C 133.389372 43.4455 118.970327 46.313626 105.518061 51.885737 
C 92.065795 57.457849 79.841919 65.625581 69.546 75.9215 
C 59.250081 86.217419 51.082349 98.441295 45.510237 111.893561 
C 39.938126 125.345827 37.07 139.764872 37.07 154.3255 
C 37.07 168.886128 39.938126 183.305173 45.510237 196.757439 
C 51.082349 210.209705 59.250081 222.433581 69.546 232.7295 
C 79.841919 243.025419 92.065795 251.193151 105.518061 256.765263 
C 118.970327 262.337374 133.389372 265.2055 147.95 265.2055 
C 162.510628 265.2055 176.929673 262.337374 190.381939 256.765263 
C 203.834205 251.193151 216.058081 243.025419 226.354 232.7295 
C 236.649919 222.433581 244.817651 210.209705 250.389763 196.757439 
C 255.961874 183.305173 258.83 168.886128 258.83 154.3255 
M 147.95 154.3255 
C 147.95 154.3255 147.95 154.3255 147.95 154.3255 
C 147.95 154.3255 147.95 154.3255 147.95 154.3255 
C 147.95 154.3255 147.95 154.3255 147.95 154.3255 
C 147.95 154.3255 147.95 154.3255 147.95 154.3255 
C 147.95 154.3255 147.95 154.3255 147.95 154.3255 
C 147.95 154.3255 147.95 154.3255 147.95 154.3255 
C 147.95 154.3255 147.95 154.3255 147.95 154.3255 
C 147.95 154.3255 147.95 154.3255 147.95 154.3255 
C 147.95 154.3255 147.95 154.3255 147.95 154.3255 
C 147.95 154.3255 147.95 154.3255 147.95 154.3255 
C 147.95 154.3255 147.95 154.3255 147.95 154.3255 
C 147.95 154.3255 147.95 154.3255 147.95 154.3255 
C 147.95 154.3255 147.95 154.3255 147.95 154.3255 
C 147.95 154.3255 147.95 154.3255 147.95 154.3255 
C 147.95 154.3255 147.95 154.3255 147.95 154.3255 
C 147.95 154.3255 147.95 154.3255 147.95 154.3255 
z
"/>
  </clipPath>
 </defs>
</svg>
