<?xml version="1.0" encoding="utf-8" standalone="no"?>
<!DOCTYPE svg PUBLIC "-//W3C//DTD SVG 1.1//EN"
  "http://www.w3.org/Graphics/SVG/1.1/DTD/svg11.dtd">
<svg xmlns:xlink="http://www.w3.org/1999/xlink" width="64.8pt" height="64.8pt" viewBox="0 0 64.8 64.8" xmlns="http://www.w3.org/2000/svg" version="1.1">
 <title>Ski Roses of the World: Downhill Ski Trail Orientations</title>
 <metadata>
  <rdf:RDF xmlns:dc="http://purl.org/dc/elements/1.1/" xmlns:cc="http://creativecommons.org/ns#" xmlns:rdf="http://www.w3.org/1999/02/22-rdf-syntax-ns#">
   <cc:Work>
    <dc:type rdf:resource="http://purl.org/dc/dcmitype/StillImage"/>
    <dc:title>Ski Roses of the World: Downhill Ski Trail Orientations</dc:title>
    <dc:date>2024-11-14T22:00:57.572457</dc:date>
    <dc:format>image/svg+xml</dc:format>
    <dc:creator>
     <cc:Agent>
      <dc:title>https://github.com/dhimmel/ski-bearing-stats</dc:title>
     </cc:Agent>
    </dc:creator>
   </cc:Work>
  </rdf:RDF>
 </metadata>
 <defs>
  <style type="text/css">*{stroke-linejoin: round; stroke-linecap: butt}</style>
 </defs>
 <g id="figure_1">
  <g id="patch_1">
   <path d="M 0 64.8 
L 64.8 64.8 
L 64.8 0 
L 0 0 
L 0 64.8 
z
" style="fill: none"/>
  </g>
  <g id="axes_1">
   <g id="patch_2">
    <path d="M 57.6 32.4 
C 57.6 29.090766 56.948153 25.813711 55.681764 22.756378 
C 54.415375 19.699044 52.559072 16.920891 50.219091 14.580909 
C 47.879109 12.240928 45.100956 10.384625 42.043622 9.118236 
C 38.986289 7.851847 35.709234 7.2 32.4 7.2 
C 29.090766 7.2 25.813711 7.851847 22.756378 9.118236 
C 19.699044 10.384625 16.920891 12.240928 14.580909 14.580909 
C 12.240928 16.920891 10.384625 19.699044 9.118236 22.756378 
C 7.851847 25.813711 7.2 29.090766 7.2 32.4 
C 7.2 35.709234 7.851847 38.986289 9.118236 42.043622 
C 10.384625 45.100956 12.240928 47.879109 14.580909 50.219091 
C 16.920891 52.559072 19.699044 54.415375 22.756378 55.681764 
C 25.813711 56.948153 29.090766 57.6 32.4 57.6 
C 35.709234 57.6 38.986289 56.948153 42.043622 55.681764 
C 45.100956 54.415375 47.879109 52.559072 50.219091 50.219091 
C 52.559072 47.879109 54.415375 45.100956 55.681764 42.043622 
C 56.948153 38.986289 57.6 35.709234 57.6 32.4 
M 32.4 32.4 
C 32.4 32.4 32.4 32.4 32.4 32.4 
C 32.4 32.4 32.4 32.4 32.4 32.4 
C 32.4 32.4 32.4 32.4 32.4 32.4 
C 32.4 32.4 32.4 32.4 32.4 32.4 
C 32.4 32.4 32.4 32.4 32.4 32.4 
C 32.4 32.4 32.4 32.4 32.4 32.4 
C 32.4 32.4 32.4 32.4 32.4 32.4 
C 32.4 32.4 32.4 32.4 32.4 32.4 
C 32.4 32.4 32.4 32.4 32.4 32.4 
C 32.4 32.4 32.4 32.4 32.4 32.4 
C 32.4 32.4 32.4 32.4 32.4 32.4 
C 32.4 32.4 32.4 32.4 32.4 32.4 
C 32.4 32.4 32.4 32.4 32.4 32.4 
C 32.4 32.4 32.4 32.4 32.4 32.4 
C 32.4 32.4 32.4 32.4 32.4 32.4 
C 32.4 32.4 32.4 32.4 32.4 32.4 
L 32.4 32.4 
z
" style="fill: none"/>
   </g>
   <g id="matplotlib.axis_1"/>
   <g id="matplotlib.axis_2"/>
   <g id="patch_3">
    <path d="M 32.4 32.4 
C 32.4 32.4 32.4 32.4 32.4 32.4 
C 32.4 32.4 32.4 32.4 32.4 32.4 
L 39.814592 14.499592 
C 37.463932 13.525916 34.944336 13.024738 32.4 13.024738 
C 29.855664 13.024738 27.336068 13.525916 24.985408 14.499592 
z
" clip-path="url(#pb3a78d573d)" style="fill: #d4a0a7; stroke: #6b6b6b; stroke-width: 0.4; stroke-linejoin: miter"/>
   </g>
   <g id="patch_4">
    <path d="M 32.4 32.4 
C 32.4 32.4 32.4 32.4 32.4 32.4 
C 32.4 32.4 32.4 32.4 32.4 32.4 
L 55.681764 22.756378 
C 54.415375 19.699044 52.559072 16.920891 50.219091 14.580909 
C 47.879109 12.240928 45.100956 10.384625 42.043622 9.118236 
z
" clip-path="url(#pb3a78d573d)" style="fill: #d4a0a7; stroke: #6b6b6b; stroke-width: 0.4; stroke-linejoin: miter"/>
   </g>
   <g id="patch_5">
    <path d="M 32.4 32.4 
C 32.4 32.4 32.4 32.4 32.4 32.4 
C 32.4 32.4 32.4 32.4 32.4 32.4 
L 44.154872 37.269027 
C 44.794267 35.725392 45.123381 34.070819 45.123381 32.4 
C 45.123381 30.729181 44.794267 29.074608 44.154872 27.530973 
z
" clip-path="url(#pb3a78d573d)" style="fill: #d4a0a7; stroke: #6b6b6b; stroke-width: 0.4; stroke-linejoin: miter"/>
   </g>
   <g id="patch_6">
    <path d="M 32.4 32.4 
C 32.4 32.4 32.4 32.4 32.4 32.4 
C 32.4 32.4 32.4 32.4 32.4 32.4 
L 35.947931 40.965463 
C 37.072737 40.499553 38.094832 39.816611 38.955721 38.955721 
C 39.816611 38.094832 40.499553 37.072737 40.965463 35.947931 
z
" clip-path="url(#pb3a78d573d)" style="fill: #d4a0a7; stroke: #6b6b6b; stroke-width: 0.4; stroke-linejoin: miter"/>
   </g>
   <g id="patch_7">
    <path d="M 32.4 32.4 
C 32.4 32.4 32.4 32.4 32.4 32.4 
C 32.4 32.4 32.4 32.4 32.4 32.4 
L 31.169889 35.36975 
C 31.559873 35.531287 31.977884 35.614434 32.4 35.614434 
C 32.822116 35.614434 33.240127 35.531287 33.630111 35.36975 
z
" clip-path="url(#pb3a78d573d)" style="fill: #d4a0a7; stroke: #6b6b6b; stroke-width: 0.4; stroke-linejoin: miter"/>
   </g>
   <g id="patch_8">
    <path d="M 32.4 32.4 
C 32.4 32.4 32.4 32.4 32.4 32.4 
C 32.4 32.4 32.4 32.4 32.4 32.4 
L 31.567119 32.744991 
C 31.612422 32.854364 31.67883 32.953749 31.76254 33.03746 
C 31.846251 33.12117 31.945636 33.187578 32.055009 33.232881 
z
" clip-path="url(#pb3a78d573d)" style="fill: #d4a0a7; stroke: #6b6b6b; stroke-width: 0.4; stroke-linejoin: miter"/>
   </g>
   <g id="patch_9">
    <path d="M 32.4 32.4 
C 32.4 32.4 32.4 32.4 32.4 32.4 
C 32.4 32.4 32.4 32.4 32.4 32.4 
L 28.415928 30.749743 
C 28.199218 31.272927 28.087672 31.83371 28.087672 32.4 
C 28.087672 32.96629 28.199218 33.527073 28.415928 34.050257 
z
" clip-path="url(#pb3a78d573d)" style="fill: #d4a0a7; stroke: #6b6b6b; stroke-width: 0.4; stroke-linejoin: miter"/>
   </g>
   <g id="patch_10">
    <path d="M 32.4 32.4 
C 32.4 32.4 32.4 32.4 32.4 32.4 
C 32.4 32.4 32.4 32.4 32.4 32.4 
L 29.352825 25.04347 
C 28.386775 25.443621 27.508939 26.030172 26.769556 26.769556 
C 26.030172 27.508939 25.443621 28.386775 25.04347 29.352825 
z
" clip-path="url(#pb3a78d573d)" style="fill: #d4a0a7; stroke: #6b6b6b; stroke-width: 0.4; stroke-linejoin: miter"/>
   </g>
   <g id="patch_11">
    <path d="M 32.4 7.2 
C 29.090766 7.2 25.813711 7.851847 22.756378 9.118236 
C 19.699044 10.384625 16.920891 12.240928 14.580909 14.580909 
C 12.240928 16.920891 10.384625 19.699044 9.118236 22.756378 
C 7.851847 25.813711 7.2 29.090766 7.2 32.4 
C 7.2 35.709234 7.851847 38.986289 9.118236 42.043622 
C 10.384625 45.100956 12.240928 47.879109 14.580909 50.219091 
C 16.920891 52.559072 19.699044 54.415375 22.756378 55.681764 
C 25.813711 56.948153 29.090766 57.6 32.4 57.6 
C 35.709234 57.6 38.986289 56.948153 42.043622 55.681764 
C 45.100956 54.415375 47.879109 52.559072 50.219091 50.219091 
C 52.559072 47.879109 54.415375 45.100956 55.681764 42.043622 
C 56.948153 38.986289 57.6 35.709234 57.6 32.4 
C 57.6 29.090766 56.948153 25.813711 55.681764 22.756378 
C 54.415375 19.699044 52.559072 16.920891 50.219091 14.580909 
C 47.879109 12.240928 45.100956 10.384625 42.043622 9.118236 
C 38.986289 7.851847 35.709234 7.2 32.4 7.2 
" style="fill: none; stroke: #6b6b6b; stroke-width: 0.4; stroke-linejoin: miter; stroke-linecap: square"/>
   </g>
  </g>
 </g>
 <defs>
  <clipPath id="pb3a78d573d">
   <path d="M 57.6 32.4 
C 57.6 29.090766 56.948153 25.813711 55.681764 22.756378 
C 54.415375 19.699044 52.559072 16.920891 50.219091 14.580909 
C 47.879109 12.240928 45.100956 10.384625 42.043622 9.118236 
C 38.986289 7.851847 35.709234 7.2 32.4 7.2 
C 29.090766 7.2 25.813711 7.851847 22.756378 9.118236 
C 19.699044 10.384625 16.920891 12.240928 14.580909 14.580909 
C 12.240928 16.920891 10.384625 19.699044 9.118236 22.756378 
C 7.851847 25.813711 7.2 29.090766 7.2 32.4 
C 7.2 35.709234 7.851847 38.986289 9.118236 42.043622 
C 10.384625 45.100956 12.240928 47.879109 14.580909 50.219091 
C 16.920891 52.559072 19.699044 54.415375 22.756378 55.681764 
C 25.813711 56.948153 29.090766 57.6 32.4 57.6 
C 35.709234 57.6 38.986289 56.948153 42.043622 55.681764 
C 45.100956 54.415375 47.879109 52.559072 50.219091 50.219091 
C 52.559072 47.879109 54.415375 45.100956 55.681764 42.043622 
C 56.948153 38.986289 57.6 35.709234 57.6 32.4 
M 32.4 32.4 
C 32.4 32.4 32.4 32.4 32.4 32.4 
C 32.4 32.4 32.4 32.4 32.4 32.4 
C 32.4 32.4 32.4 32.4 32.4 32.4 
C 32.4 32.4 32.4 32.4 32.4 32.4 
C 32.4 32.4 32.4 32.4 32.4 32.4 
C 32.4 32.4 32.4 32.4 32.4 32.4 
C 32.4 32.4 32.4 32.4 32.4 32.4 
C 32.4 32.4 32.4 32.4 32.4 32.4 
C 32.4 32.4 32.4 32.4 32.4 32.4 
C 32.4 32.4 32.4 32.4 32.4 32.4 
C 32.4 32.4 32.4 32.4 32.4 32.4 
C 32.4 32.4 32.4 32.4 32.4 32.4 
C 32.4 32.4 32.4 32.4 32.4 32.4 
C 32.4 32.4 32.4 32.4 32.4 32.4 
C 32.4 32.4 32.4 32.4 32.4 32.4 
C 32.4 32.4 32.4 32.4 32.4 32.4 
z
"/>
  </clipPath>
 </defs>
</svg>
