<?xml version="1.0" encoding="utf-8" standalone="no"?>
<!DOCTYPE svg PUBLIC "-//W3C//DTD SVG 1.1//EN"
  "http://www.w3.org/Graphics/SVG/1.1/DTD/svg11.dtd">
<svg xmlns:xlink="http://www.w3.org/1999/xlink" width="64.8pt" height="64.8pt" viewBox="0 0 64.8 64.8" xmlns="http://www.w3.org/2000/svg" version="1.1">
 <title>Ski Roses of the World: Downhill Ski Trail Orientations</title>
 <metadata>
  <rdf:RDF xmlns:dc="http://purl.org/dc/elements/1.1/" xmlns:cc="http://creativecommons.org/ns#" xmlns:rdf="http://www.w3.org/1999/02/22-rdf-syntax-ns#">
   <cc:Work>
    <dc:type rdf:resource="http://purl.org/dc/dcmitype/StillImage"/>
    <dc:title>Ski Roses of the World: Downhill Ski Trail Orientations</dc:title>
    <dc:date>2024-11-14T22:02:16.399388</dc:date>
    <dc:format>image/svg+xml</dc:format>
    <dc:creator>
     <cc:Agent>
      <dc:title>https://github.com/dhimmel/ski-bearing-stats</dc:title>
     </cc:Agent>
    </dc:creator>
   </cc:Work>
  </rdf:RDF>
 </metadata>
 <defs>
  <style type="text/css">*{stroke-linejoin: round; stroke-linecap: butt}</style>
 </defs>
 <g id="figure_1">
  <g id="patch_1">
   <path d="M 0 64.8 
L 64.8 64.8 
L 64.8 0 
L 0 0 
L 0 64.8 
z
" style="fill: none"/>
  </g>
  <g id="axes_1">
   <g id="patch_2">
    <path d="M 57.6 32.4 
C 57.6 29.090766 56.948153 25.813711 55.681764 22.756378 
C 54.415375 19.699044 52.559072 16.920891 50.219091 14.580909 
C 47.879109 12.240928 45.100956 10.384625 42.043622 9.118236 
C 38.986289 7.851847 35.709234 7.2 32.4 7.2 
C 29.090766 7.2 25.813711 7.851847 22.756378 9.118236 
C 19.699044 10.384625 16.920891 12.240928 14.580909 14.580909 
C 12.240928 16.920891 10.384625 19.699044 9.118236 22.756378 
C 7.851847 25.813711 7.2 29.090766 7.2 32.4 
C 7.2 35.709234 7.851847 38.986289 9.118236 42.043622 
C 10.384625 45.100956 12.240928 47.879109 14.580909 50.219091 
C 16.920891 52.559072 19.699044 54.415375 22.756378 55.681764 
C 25.813711 56.948153 29.090766 57.6 32.4 57.6 
C 35.709234 57.6 38.986289 56.948153 42.043622 55.681764 
C 45.100956 54.415375 47.879109 52.559072 50.219091 50.219091 
C 52.559072 47.879109 54.415375 45.100956 55.681764 42.043622 
C 56.948153 38.986289 57.6 35.709234 57.6 32.4 
M 32.4 32.4 
C 32.4 32.4 32.4 32.4 32.4 32.4 
C 32.4 32.4 32.4 32.4 32.4 32.4 
C 32.4 32.4 32.4 32.4 32.4 32.4 
C 32.4 32.4 32.4 32.4 32.4 32.4 
C 32.4 32.4 32.4 32.4 32.4 32.4 
C 32.4 32.4 32.4 32.4 32.4 32.4 
C 32.4 32.4 32.4 32.4 32.4 32.4 
C 32.4 32.4 32.4 32.4 32.4 32.4 
C 32.4 32.4 32.4 32.4 32.4 32.4 
C 32.4 32.4 32.4 32.4 32.4 32.4 
C 32.4 32.4 32.4 32.4 32.4 32.4 
C 32.4 32.4 32.4 32.4 32.4 32.4 
C 32.4 32.4 32.4 32.4 32.4 32.4 
C 32.4 32.4 32.4 32.4 32.4 32.4 
C 32.4 32.4 32.4 32.4 32.4 32.4 
C 32.4 32.4 32.4 32.4 32.4 32.4 
L 32.4 32.4 
z
" style="fill: none"/>
   </g>
   <g id="matplotlib.axis_1"/>
   <g id="matplotlib.axis_2"/>
   <g id="patch_3">
    <path d="M 32.4 32.4 
C 32.4 32.4 32.4 32.4 32.4 32.4 
C 32.4 32.4 32.4 32.4 32.4 32.4 
L 40.708329 12.34192 
C 38.074326 11.250881 35.251024 10.689291 32.4 10.689291 
C 29.548976 10.689291 26.725674 11.250881 24.091671 12.34192 
z
" clip-path="url(#p235cd4a6d4)" style="fill: #d4a0a7; stroke: #6b6b6b; stroke-width: 0.4; stroke-linejoin: miter"/>
   </g>
   <g id="patch_4">
    <path d="M 32.4 32.4 
C 32.4 32.4 32.4 32.4 32.4 32.4 
C 32.4 32.4 32.4 32.4 32.4 32.4 
L 46.440746 26.584132 
C 45.677014 24.740318 44.557516 23.064872 43.146322 21.653678 
C 41.735128 20.242484 40.059682 19.122986 38.215868 18.359254 
z
" clip-path="url(#p235cd4a6d4)" style="fill: #d4a0a7; stroke: #6b6b6b; stroke-width: 0.4; stroke-linejoin: miter"/>
   </g>
   <g id="patch_5">
    <path d="M 32.4 32.4 
C 32.4 32.4 32.4 32.4 32.4 32.4 
C 32.4 32.4 32.4 32.4 32.4 32.4 
L 39.471865 35.329263 
C 39.856533 34.400594 40.054532 33.405184 40.054532 32.4 
C 40.054532 31.394816 39.856533 30.399406 39.471865 29.470737 
z
" clip-path="url(#p235cd4a6d4)" style="fill: #d4a0a7; stroke: #6b6b6b; stroke-width: 0.4; stroke-linejoin: miter"/>
   </g>
   <g id="patch_6">
    <path d="M 32.4 32.4 
C 32.4 32.4 32.4 32.4 32.4 32.4 
C 32.4 32.4 32.4 32.4 32.4 32.4 
L 35.508775 39.905246 
C 36.494354 39.497005 37.389936 38.898597 38.144266 38.144266 
C 38.898597 37.389936 39.497005 36.494354 39.905246 35.508775 
z
" clip-path="url(#p235cd4a6d4)" style="fill: #d4a0a7; stroke: #6b6b6b; stroke-width: 0.4; stroke-linejoin: miter"/>
   </g>
   <g id="patch_7">
    <path d="M 32.4 32.4 
C 32.4 32.4 32.4 32.4 32.4 32.4 
C 32.4 32.4 32.4 32.4 32.4 32.4 
L 29.506543 39.385422 
C 30.423861 39.765388 31.407103 39.960967 32.4 39.960967 
C 33.392897 39.960967 34.376139 39.765388 35.293457 39.385422 
z
" clip-path="url(#p235cd4a6d4)" style="fill: #d4a0a7; stroke: #6b6b6b; stroke-width: 0.4; stroke-linejoin: miter"/>
   </g>
   <g id="patch_8">
    <path d="M 32.4 32.4 
C 32.4 32.4 32.4 32.4 32.4 32.4 
C 32.4 32.4 32.4 32.4 32.4 32.4 
L 21.296115 36.99938 
C 21.9001 38.457529 22.785436 39.782527 23.901454 40.898546 
C 25.017473 42.014564 26.342471 42.8999 27.80062 43.503885 
z
" clip-path="url(#p235cd4a6d4)" style="fill: #d4a0a7; stroke: #6b6b6b; stroke-width: 0.4; stroke-linejoin: miter"/>
   </g>
   <g id="patch_9">
    <path d="M 32.4 32.4 
C 32.4 32.4 32.4 32.4 32.4 32.4 
C 32.4 32.4 32.4 32.4 32.4 32.4 
L 9.118236 22.756378 
C 7.851847 25.813711 7.2 29.090766 7.2 32.4 
C 7.2 35.709234 7.851847 38.986289 9.118236 42.043622 
z
" clip-path="url(#p235cd4a6d4)" style="fill: #d4a0a7; stroke: #6b6b6b; stroke-width: 0.4; stroke-linejoin: miter"/>
   </g>
   <g id="patch_10">
    <path d="M 32.4 32.4 
C 32.4 32.4 32.4 32.4 32.4 32.4 
C 32.4 32.4 32.4 32.4 32.4 32.4 
L 24.507222 13.345149 
C 22.004962 14.381619 19.731195 15.900901 17.816048 17.816048 
C 15.900901 19.731195 14.381619 22.004962 13.345149 24.507222 
z
" clip-path="url(#p235cd4a6d4)" style="fill: #d4a0a7; stroke: #6b6b6b; stroke-width: 0.4; stroke-linejoin: miter"/>
   </g>
   <g id="patch_11">
    <path d="M 32.4 7.2 
C 29.090766 7.2 25.813711 7.851847 22.756378 9.118236 
C 19.699044 10.384625 16.920891 12.240928 14.580909 14.580909 
C 12.240928 16.920891 10.384625 19.699044 9.118236 22.756378 
C 7.851847 25.813711 7.2 29.090766 7.2 32.4 
C 7.2 35.709234 7.851847 38.986289 9.118236 42.043622 
C 10.384625 45.100956 12.240928 47.879109 14.580909 50.219091 
C 16.920891 52.559072 19.699044 54.415375 22.756378 55.681764 
C 25.813711 56.948153 29.090766 57.6 32.4 57.6 
C 35.709234 57.6 38.986289 56.948153 42.043622 55.681764 
C 45.100956 54.415375 47.879109 52.559072 50.219091 50.219091 
C 52.559072 47.879109 54.415375 45.100956 55.681764 42.043622 
C 56.948153 38.986289 57.6 35.709234 57.6 32.4 
C 57.6 29.090766 56.948153 25.813711 55.681764 22.756378 
C 54.415375 19.699044 52.559072 16.920891 50.219091 14.580909 
C 47.879109 12.240928 45.100956 10.384625 42.043622 9.118236 
C 38.986289 7.851847 35.709234 7.2 32.4 7.2 
" style="fill: none; stroke: #6b6b6b; stroke-width: 0.4; stroke-linejoin: miter; stroke-linecap: square"/>
   </g>
  </g>
 </g>
 <defs>
  <clipPath id="p235cd4a6d4">
   <path d="M 57.6 32.4 
C 57.6 29.090766 56.948153 25.813711 55.681764 22.756378 
C 54.415375 19.699044 52.559072 16.920891 50.219091 14.580909 
C 47.879109 12.240928 45.100956 10.384625 42.043622 9.118236 
C 38.986289 7.851847 35.709234 7.2 32.4 7.2 
C 29.090766 7.2 25.813711 7.851847 22.756378 9.118236 
C 19.699044 10.384625 16.920891 12.240928 14.580909 14.580909 
C 12.240928 16.920891 10.384625 19.699044 9.118236 22.756378 
C 7.851847 25.813711 7.2 29.090766 7.2 32.4 
C 7.2 35.709234 7.851847 38.986289 9.118236 42.043622 
C 10.384625 45.100956 12.240928 47.879109 14.580909 50.219091 
C 16.920891 52.559072 19.699044 54.415375 22.756378 55.681764 
C 25.813711 56.948153 29.090766 57.6 32.4 57.6 
C 35.709234 57.6 38.986289 56.948153 42.043622 55.681764 
C 45.100956 54.415375 47.879109 52.559072 50.219091 50.219091 
C 52.559072 47.879109 54.415375 45.100956 55.681764 42.043622 
C 56.948153 38.986289 57.6 35.709234 57.6 32.4 
M 32.4 32.4 
C 32.4 32.4 32.4 32.4 32.4 32.4 
C 32.4 32.4 32.4 32.4 32.4 32.4 
C 32.4 32.4 32.4 32.4 32.4 32.4 
C 32.4 32.4 32.4 32.4 32.4 32.4 
C 32.4 32.4 32.4 32.4 32.4 32.4 
C 32.4 32.4 32.4 32.4 32.4 32.4 
C 32.4 32.4 32.4 32.4 32.4 32.4 
C 32.4 32.4 32.4 32.4 32.4 32.4 
C 32.4 32.4 32.4 32.4 32.4 32.4 
C 32.4 32.4 32.4 32.4 32.4 32.4 
C 32.4 32.4 32.4 32.4 32.4 32.4 
C 32.4 32.4 32.4 32.4 32.4 32.4 
C 32.4 32.4 32.4 32.4 32.4 32.4 
C 32.4 32.4 32.4 32.4 32.4 32.4 
C 32.4 32.4 32.4 32.4 32.4 32.4 
C 32.4 32.4 32.4 32.4 32.4 32.4 
z
"/>
  </clipPath>
 </defs>
</svg>
