<?xml version="1.0" encoding="utf-8" standalone="no"?>
<!DOCTYPE svg PUBLIC "-//W3C//DTD SVG 1.1//EN"
  "http://www.w3.org/Graphics/SVG/1.1/DTD/svg11.dtd">
<svg xmlns:xlink="http://www.w3.org/1999/xlink" width="64.8pt" height="64.8pt" viewBox="0 0 64.8 64.8" xmlns="http://www.w3.org/2000/svg" version="1.1">
 <title>Ski Roses of the World: Downhill Ski Trail Orientations</title>
 <metadata>
  <rdf:RDF xmlns:dc="http://purl.org/dc/elements/1.1/" xmlns:cc="http://creativecommons.org/ns#" xmlns:rdf="http://www.w3.org/1999/02/22-rdf-syntax-ns#">
   <cc:Work>
    <dc:type rdf:resource="http://purl.org/dc/dcmitype/StillImage"/>
    <dc:title>Ski Roses of the World: Downhill Ski Trail Orientations</dc:title>
    <dc:date>2024-11-14T22:03:37.090715</dc:date>
    <dc:format>image/svg+xml</dc:format>
    <dc:creator>
     <cc:Agent>
      <dc:title>https://github.com/dhimmel/ski-bearing-stats</dc:title>
     </cc:Agent>
    </dc:creator>
   </cc:Work>
  </rdf:RDF>
 </metadata>
 <defs>
  <style type="text/css">*{stroke-linejoin: round; stroke-linecap: butt}</style>
 </defs>
 <g id="figure_1">
  <g id="patch_1">
   <path d="M 0 64.8 
L 64.8 64.8 
L 64.8 0 
L 0 0 
L 0 64.8 
z
" style="fill: none"/>
  </g>
  <g id="axes_1">
   <g id="patch_2">
    <path d="M 57.6 32.4 
C 57.6 29.090766 56.948153 25.813711 55.681764 22.756378 
C 54.415375 19.699044 52.559072 16.920891 50.219091 14.580909 
C 47.879109 12.240928 45.100956 10.384625 42.043622 9.118236 
C 38.986289 7.851847 35.709234 7.2 32.4 7.2 
C 29.090766 7.2 25.813711 7.851847 22.756378 9.118236 
C 19.699044 10.384625 16.920891 12.240928 14.580909 14.580909 
C 12.240928 16.920891 10.384625 19.699044 9.118236 22.756378 
C 7.851847 25.813711 7.2 29.090766 7.2 32.4 
C 7.2 35.709234 7.851847 38.986289 9.118236 42.043622 
C 10.384625 45.100956 12.240928 47.879109 14.580909 50.219091 
C 16.920891 52.559072 19.699044 54.415375 22.756378 55.681764 
C 25.813711 56.948153 29.090766 57.6 32.4 57.6 
C 35.709234 57.6 38.986289 56.948153 42.043622 55.681764 
C 45.100956 54.415375 47.879109 52.559072 50.219091 50.219091 
C 52.559072 47.879109 54.415375 45.100956 55.681764 42.043622 
C 56.948153 38.986289 57.6 35.709234 57.6 32.4 
M 32.4 32.4 
C 32.4 32.4 32.4 32.4 32.4 32.4 
C 32.4 32.4 32.4 32.4 32.4 32.4 
C 32.4 32.4 32.4 32.4 32.4 32.4 
C 32.4 32.4 32.4 32.4 32.4 32.4 
C 32.4 32.4 32.4 32.4 32.4 32.4 
C 32.4 32.4 32.4 32.4 32.4 32.4 
C 32.4 32.4 32.4 32.4 32.4 32.4 
C 32.4 32.4 32.4 32.4 32.4 32.4 
C 32.4 32.4 32.4 32.4 32.4 32.4 
C 32.4 32.4 32.4 32.4 32.4 32.4 
C 32.4 32.4 32.4 32.4 32.4 32.4 
C 32.4 32.4 32.4 32.4 32.4 32.4 
C 32.4 32.4 32.4 32.4 32.4 32.4 
C 32.4 32.4 32.4 32.4 32.4 32.4 
C 32.4 32.4 32.4 32.4 32.4 32.4 
C 32.4 32.4 32.4 32.4 32.4 32.4 
L 32.4 32.4 
z
" style="fill: none"/>
   </g>
   <g id="matplotlib.axis_1"/>
   <g id="matplotlib.axis_2"/>
   <g id="patch_3">
    <path d="M 32.4 32.4 
C 32.4 32.4 32.4 32.4 32.4 32.4 
C 32.4 32.4 32.4 32.4 32.4 32.4 
L 36.501873 22.497203 
C 35.20145 21.95855 33.807568 21.681289 32.4 21.681289 
C 30.992432 21.681289 29.59855 21.95855 28.298127 22.497203 
z
" clip-path="url(#p1eb763e359)" style="fill: #d4a0a7; stroke: #6b6b6b; stroke-width: 0.4; stroke-linejoin: miter"/>
   </g>
   <g id="patch_4">
    <path d="M 32.4 32.4 
C 32.4 32.4 32.4 32.4 32.4 32.4 
C 32.4 32.4 32.4 32.4 32.4 32.4 
L 55.681764 22.756378 
C 54.415375 19.699044 52.559072 16.920891 50.219091 14.580909 
C 47.879109 12.240928 45.100956 10.384625 42.043622 9.118236 
z
" clip-path="url(#p1eb763e359)" style="fill: #d4a0a7; stroke: #6b6b6b; stroke-width: 0.4; stroke-linejoin: miter"/>
   </g>
   <g id="patch_5">
    <path d="M 32.4 32.4 
C 32.4 32.4 32.4 32.4 32.4 32.4 
C 32.4 32.4 32.4 32.4 32.4 32.4 
L 51.724021 40.404272 
C 52.775133 37.866664 53.31617 35.146686 53.31617 32.4 
C 53.31617 29.653314 52.775133 26.933336 51.724021 24.395728 
z
" clip-path="url(#p1eb763e359)" style="fill: #d4a0a7; stroke: #6b6b6b; stroke-width: 0.4; stroke-linejoin: miter"/>
   </g>
   <g id="patch_6">
    <path d="M 32.4 32.4 
C 32.4 32.4 32.4 32.4 32.4 32.4 
C 32.4 32.4 32.4 32.4 32.4 32.4 
L 37.29947 44.228367 
C 38.852757 43.584974 40.264206 42.641874 41.45304 41.45304 
C 42.641874 40.264206 43.584974 38.852757 44.228367 37.29947 
z
" clip-path="url(#p1eb763e359)" style="fill: #d4a0a7; stroke: #6b6b6b; stroke-width: 0.4; stroke-linejoin: miter"/>
   </g>
   <g id="patch_7">
    <path d="M 32.4 32.4 
C 32.4 32.4 32.4 32.4 32.4 32.4 
C 32.4 32.4 32.4 32.4 32.4 32.4 
L 30.76707 36.342241 
C 31.284761 36.556676 31.839656 36.667051 32.4 36.667051 
C 32.960344 36.667051 33.515239 36.556676 34.03293 36.342241 
z
" clip-path="url(#p1eb763e359)" style="fill: #d4a0a7; stroke: #6b6b6b; stroke-width: 0.4; stroke-linejoin: miter"/>
   </g>
   <g id="patch_8">
    <path d="M 32.4 32.4 
C 32.4 32.4 32.4 32.4 32.4 32.4 
C 32.4 32.4 32.4 32.4 32.4 32.4 
L 32.4 32.4 
C 32.4 32.4 32.4 32.4 32.4 32.4 
C 32.4 32.4 32.4 32.4 32.4 32.4 
z
" clip-path="url(#p1eb763e359)" style="fill: #d4a0a7; stroke: #6b6b6b; stroke-width: 0.4; stroke-linejoin: miter"/>
   </g>
   <g id="patch_9">
    <path d="M 32.4 32.4 
C 32.4 32.4 32.4 32.4 32.4 32.4 
C 32.4 32.4 32.4 32.4 32.4 32.4 
L 32.4 32.4 
C 32.4 32.4 32.4 32.4 32.4 32.4 
C 32.4 32.4 32.4 32.4 32.4 32.4 
z
" clip-path="url(#p1eb763e359)" style="fill: #d4a0a7; stroke: #6b6b6b; stroke-width: 0.4; stroke-linejoin: miter"/>
   </g>
   <g id="patch_10">
    <path d="M 32.4 32.4 
C 32.4 32.4 32.4 32.4 32.4 32.4 
C 32.4 32.4 32.4 32.4 32.4 32.4 
L 32.4 32.4 
C 32.4 32.4 32.4 32.4 32.4 32.4 
C 32.4 32.4 32.4 32.4 32.4 32.4 
z
" clip-path="url(#p1eb763e359)" style="fill: #d4a0a7; stroke: #6b6b6b; stroke-width: 0.4; stroke-linejoin: miter"/>
   </g>
   <g id="patch_11">
    <path d="M 32.4 7.2 
C 29.090766 7.2 25.813711 7.851847 22.756378 9.118236 
C 19.699044 10.384625 16.920891 12.240928 14.580909 14.580909 
C 12.240928 16.920891 10.384625 19.699044 9.118236 22.756378 
C 7.851847 25.813711 7.2 29.090766 7.2 32.4 
C 7.2 35.709234 7.851847 38.986289 9.118236 42.043622 
C 10.384625 45.100956 12.240928 47.879109 14.580909 50.219091 
C 16.920891 52.559072 19.699044 54.415375 22.756378 55.681764 
C 25.813711 56.948153 29.090766 57.6 32.4 57.6 
C 35.709234 57.6 38.986289 56.948153 42.043622 55.681764 
C 45.100956 54.415375 47.879109 52.559072 50.219091 50.219091 
C 52.559072 47.879109 54.415375 45.100956 55.681764 42.043622 
C 56.948153 38.986289 57.6 35.709234 57.6 32.4 
C 57.6 29.090766 56.948153 25.813711 55.681764 22.756378 
C 54.415375 19.699044 52.559072 16.920891 50.219091 14.580909 
C 47.879109 12.240928 45.100956 10.384625 42.043622 9.118236 
C 38.986289 7.851847 35.709234 7.2 32.4 7.2 
" style="fill: none; stroke: #6b6b6b; stroke-width: 0.4; stroke-linejoin: miter; stroke-linecap: square"/>
   </g>
  </g>
 </g>
 <defs>
  <clipPath id="p1eb763e359">
   <path d="M 57.6 32.4 
C 57.6 29.090766 56.948153 25.813711 55.681764 22.756378 
C 54.415375 19.699044 52.559072 16.920891 50.219091 14.580909 
C 47.879109 12.240928 45.100956 10.384625 42.043622 9.118236 
C 38.986289 7.851847 35.709234 7.2 32.4 7.2 
C 29.090766 7.2 25.813711 7.851847 22.756378 9.118236 
C 19.699044 10.384625 16.920891 12.240928 14.580909 14.580909 
C 12.240928 16.920891 10.384625 19.699044 9.118236 22.756378 
C 7.851847 25.813711 7.2 29.090766 7.2 32.4 
C 7.2 35.709234 7.851847 38.986289 9.118236 42.043622 
C 10.384625 45.100956 12.240928 47.879109 14.580909 50.219091 
C 16.920891 52.559072 19.699044 54.415375 22.756378 55.681764 
C 25.813711 56.948153 29.090766 57.6 32.4 57.6 
C 35.709234 57.6 38.986289 56.948153 42.043622 55.681764 
C 45.100956 54.415375 47.879109 52.559072 50.219091 50.219091 
C 52.559072 47.879109 54.415375 45.100956 55.681764 42.043622 
C 56.948153 38.986289 57.6 35.709234 57.6 32.4 
M 32.4 32.4 
C 32.4 32.4 32.4 32.4 32.4 32.4 
C 32.4 32.4 32.4 32.4 32.4 32.4 
C 32.4 32.4 32.4 32.4 32.4 32.4 
C 32.4 32.4 32.4 32.4 32.4 32.4 
C 32.4 32.4 32.4 32.4 32.4 32.4 
C 32.4 32.4 32.4 32.4 32.4 32.4 
C 32.4 32.4 32.4 32.4 32.4 32.4 
C 32.4 32.4 32.4 32.4 32.4 32.4 
C 32.4 32.4 32.4 32.4 32.4 32.4 
C 32.4 32.4 32.4 32.4 32.4 32.4 
C 32.4 32.4 32.4 32.4 32.4 32.4 
C 32.4 32.4 32.4 32.4 32.4 32.4 
C 32.4 32.4 32.4 32.4 32.4 32.4 
C 32.4 32.4 32.4 32.4 32.4 32.4 
C 32.4 32.4 32.4 32.4 32.4 32.4 
C 32.4 32.4 32.4 32.4 32.4 32.4 
z
"/>
  </clipPath>
 </defs>
</svg>
